<?xml version="1.0" encoding="utf-8"?>
<!-- Generator: Adobe Illustrator 16.0.0, SVG Export Plug-In . SVG Version: 6.00 Build 0)  -->
<!DOCTYPE svg PUBLIC "-//W3C//DTD SVG 1.1//EN" "http://www.w3.org/Graphics/SVG/1.1/DTD/svg11.dtd">
<svg version="1.1" id="Layer_1" xmlns="http://www.w3.org/2000/svg" xmlns:xlink="http://www.w3.org/1999/xlink" x="0px" y="0px"
	 width="41.617px" height="36px" viewBox="6.198 9.68 41.617 36" enable-background="new 6.198 9.68 41.617 36"
	 xml:space="preserve">
<path fill="#F8F8F8" d="M47.815,28.241c0,3.503-0.496,6.38-1.499,8.641c-0.996,2.262-2.413,4.045-4.247,5.331
	c-1.829,1.297-4.026,2.197-6.578,2.704c-2.551,0.513-5.378,0.763-8.471,0.763c-3.107,0-5.948-0.25-8.518-0.763
	c-2.57-0.506-4.762-1.407-6.578-2.704c-1.82-1.286-3.226-3.07-4.229-5.331c-0.996-2.261-1.498-5.14-1.498-8.641
	c0-1.719,0.275-3.393,0.836-5.011c0.551-1.617,1.402-3.07,2.546-4.357L9.512,18.78l0.068-0.047
	c-0.238-0.587-0.403-1.195-0.486-1.828c-0.083-0.624-0.12-1.268-0.12-1.912c0-0.376,0.009-0.799,0.042-1.269
	c0.032-0.478,0.087-0.965,0.178-1.479c0.092-0.505,0.207-0.983,0.35-1.434c0.148-0.44,0.322-0.818,0.533-1.131h0.175
	c0.919,0,1.746,0.092,2.491,0.275c0.745,0.194,1.453,0.451,2.133,0.792c0.671,0.34,1.329,0.726,1.958,1.177
	c0.634,0.441,1.314,0.892,2.05,1.36c1.292-0.377,2.634-0.625,4.021-0.744c1.394-0.12,2.763-0.184,4.114-0.184
	c1.351,0,2.722,0.064,4.1,0.184c1.379,0.12,2.735,0.367,4.055,0.744c0.708-0.468,1.383-0.919,2.03-1.36
	c0.645-0.451,1.296-0.837,1.958-1.177c0.662-0.34,1.36-0.597,2.105-0.792c0.744-0.183,1.576-0.275,2.491-0.275h0.223
	c0.181,0.295,0.347,0.671,0.483,1.122c0.147,0.45,0.262,0.938,0.351,1.443c0.091,0.515,0.159,1.002,0.202,1.479
	c0.045,0.469,0.073,0.892,0.073,1.269c0,0.644-0.046,1.287-0.139,1.913c-0.092,0.633-0.238,1.241-0.45,1.829v0.046l-0.046,0.093
	c1.14,1.287,1.985,2.74,2.537,4.357C47.544,24.849,47.815,26.522,47.815,28.241z M34.118,26.347c-1.172,0-2.344,0.055-3.526,0.166
	c-1.18,0.101-2.357,0.156-3.524,0.156c-1.173,0-2.354-0.056-3.54-0.156c-1.186-0.11-2.361-0.166-3.539-0.166
	c-2.432,0-4.398,0.662-5.901,1.967c-1.503,1.305-2.252,3.235-2.252,5.792c0,2.179,0.482,3.859,1.453,5.047
	c0.969,1.186,2.206,2.06,3.718,2.61c1.512,0.553,3.152,0.883,4.933,0.966c1.783,0.093,3.493,0.138,5.13,0.138
	c1.112,0,2.252-0.009,3.434-0.045c1.181-0.028,2.33-0.121,3.46-0.276c1.126-0.166,2.198-0.412,3.209-0.772
	c1.015-0.349,1.897-0.854,2.648-1.517c0.753-0.662,1.35-1.499,1.801-2.519c0.451-1.013,0.681-2.253,0.681-3.724
	c0-1.259-0.202-2.371-0.611-3.328c-0.405-0.946-0.972-1.746-1.688-2.399c-0.726-0.644-1.582-1.131-2.583-1.453
	C36.42,26.513,35.323,26.347,34.118,26.347z M17.332,33.177c0-0.992,0.198-1.838,0.597-2.546c0.395-0.708,0.891-1.057,1.475-1.057
	c0.583,0,1.084,0.349,1.498,1.057c0.415,0.709,0.621,1.555,0.621,2.546c0,0.992-0.207,1.84-0.621,2.537
	c-0.413,0.699-0.914,1.048-1.498,1.048c-0.584,0-1.081-0.349-1.475-1.048C17.53,35.016,17.332,34.17,17.332,33.177z M27.021,41.516
	c-0.644,0-1.232-0.212-1.756-0.646c-0.529-0.422-0.911-0.992-1.149-1.699c-0.092-0.238,0-0.422,0.267-0.56
	c0.24-0.093,0.423,0.009,0.543,0.293c0.404,1.14,1.103,1.7,2.096,1.692c0.464,0,0.892-0.155,1.273-0.469
	c0.383-0.304,0.649-0.718,0.8-1.224c0.12-0.304,0.317-0.405,0.583-0.293c0.24,0.092,0.34,0.275,0.294,0.56
	c-0.239,0.708-0.625,1.277-1.149,1.699C28.299,41.304,27.697,41.516,27.021,41.516z M28.349,36.671c0-0.184-0.133-0.34-0.391-0.469
	c-0.267-0.138-0.579-0.211-0.938-0.211c-0.378,0-0.699,0.073-0.956,0.211c-0.267,0.128-0.396,0.285-0.396,0.469
	s0.129,0.339,0.396,0.487c0.257,0.137,0.579,0.211,0.956,0.211c0.376,0,0.689-0.074,0.946-0.211
	C28.225,37.011,28.349,36.855,28.349,36.671z M36.71,33.177c0-0.992-0.202-1.838-0.605-2.546c-0.41-0.708-0.897-1.057-1.466-1.057
	c-0.584,0-1.09,0.349-1.512,1.057c-0.418,0.709-0.63,1.555-0.63,2.546c0,0.992,0.212,1.84,0.63,2.537
	c0.423,0.699,0.927,1.048,1.512,1.048c0.582,0,1.075-0.349,1.474-1.048C36.508,35.016,36.71,34.17,36.71,33.177z"/>
</svg>
