<?xml version="1.0" encoding="utf-8"?>
<!-- Generator: Adobe Illustrator 16.0.0, SVG Export Plug-In . SVG Version: 6.00 Build 0)  -->
<!DOCTYPE svg PUBLIC "-//W3C//DTD SVG 1.1//EN" "http://www.w3.org/Graphics/SVG/1.1/DTD/svg11.dtd">
<svg version="1.1" id="Layer_1" xmlns="http://www.w3.org/2000/svg" xmlns:xlink="http://www.w3.org/1999/xlink" x="0px" y="0px"
	 width="51.081px" height="36px" viewBox="-6.948 4.549 51.081 36" enable-background="new -6.948 4.549 51.081 36"
	 xml:space="preserve">
<path fill="#F8F8F8" d="M42.442,19.985c0.424-0.073,0.814,0,1.164,0.209c0.35,0.209,0.527,0.566,0.527,1.069
	c0,0.532-0.244,0.996-0.735,1.385c-0.492,0.385-1.057,0.73-1.701,1.034c-0.65,0.305-1.324,0.543-2.014,0.712
	c-0.69,0.165-1.231,0.266-1.617,0.306c-0.796,2.565-2.023,4.838-3.687,6.816c-1.667,1.978-3.606,3.628-5.822,4.939
	c-2.217,1.324-4.604,2.343-7.153,3.043c-2.549,0.701-5.087,1.051-7.62,1.051c-4.042,0-7.881-0.859-11.505-2.59
	c-3.619-1.73-6.621-4.253-9-7.587c-0.146-0.294-0.226-0.531-0.226-0.712c0-0.373,0.125-0.68,0.374-0.926
	c0.249-0.26,0.565-0.385,0.927-0.385c0.26,0,0.548,0.115,0.859,0.34c2.273,2.012,4.93,3.008,7.96,2.996
	c1.085,0,2.17-0.147,3.256-0.417c1.081-0.282,2.07-0.724,2.975-1.335c-0.532-0.294-0.972-0.678-1.312-1.164
	c-0.344-0.477-0.515-1.019-0.515-1.605c0-0.419,0.073-0.782,0.221-1.086c-0.328-0.103-0.746-0.294-1.232-0.562
	c-0.486-0.267-0.96-0.582-1.414-0.939c-0.453-0.361-0.833-0.757-1.137-1.198c-0.306-0.43-0.458-0.86-0.458-1.284
	c0-0.299,0.09-0.56,0.277-0.792s0.418-0.436,0.696-0.622c-0.757-0.464-1.459-1.149-2.109-2.052c-0.644-0.905-0.966-1.81-0.966-2.713
	c0-0.611,0.305-1.008,0.916-1.194c-0.649-0.65-1.164-1.396-1.538-2.245C0.448,11.629,0.26,10.747,0.26,9.842
	c0-0.424,0.084-0.808,0.267-1.153c0.169-0.339,0.52-0.509,1.035-0.509c0.333,0,1.113,0.249,2.33,0.746
	c1.215,0.499,2.538,1.058,3.952,1.68c1.413,0.616,2.765,1.243,4.06,1.872c1.289,0.626,2.194,1.068,2.713,1.328
	c0.463,0.26,0.905,0.549,1.318,0.871c0.412,0.323,0.825,0.662,1.232,1.013c0.367-0.939,0.809-1.922,1.305-2.952
	c0.499-1.024,1.052-2.007,1.663-2.952c0.61-0.938,1.284-1.832,2.024-2.657c0.736-0.836,1.56-1.514,2.464-2.051
	c0.147-0.114,0.367-0.169,0.667-0.169c0.328,0,0.577,0.073,0.747,0.22c0.293-0.107,0.678-0.232,1.153-0.374
	c0.463-0.136,0.858-0.204,1.175-0.204c0.532,0,0.928,0.249,1.187,0.746c0.577,0,1.097,0.147,1.572,0.43
	c0.463,0.288,0.7,0.752,0.7,1.402c0,0.57-0.249,1.063-0.747,1.464c1.777,0.797,3.246,1.951,4.423,3.466
	c1.175,1.514,2.011,3.199,2.51,5.042c0.107,0.039,0.316,0.057,0.633,0.057c0.871,0,1.685-0.153,2.443-0.458
	c0.758-0.305,1.282-0.458,1.576-0.458c0.335,0,0.628,0.136,0.878,0.401c0.247,0.272,0.373,0.572,0.373,0.905
	c0,0.423-0.181,0.871-0.542,1.34C43.008,19.363,42.702,19.725,42.442,19.985z"/>
</svg>
