<?xml version="1.0" encoding="utf-8"?>
<!-- Generator: Adobe Illustrator 16.0.0, SVG Export Plug-In . SVG Version: 6.00 Build 0)  -->
<!DOCTYPE svg PUBLIC "-//W3C//DTD SVG 1.1//EN" "http://www.w3.org/Graphics/SVG/1.1/DTD/svg11.dtd">
<svg version="1.1" id="Layer_1" xmlns="http://www.w3.org/2000/svg" xmlns:xlink="http://www.w3.org/1999/xlink" x="0px" y="0px"
	 width="26.891px" height="26px" viewBox="-0.763 -0.737 26.891 26" enable-background="new -0.763 -0.737 26.891 26"
	 xml:space="preserve">
<g>
	<path fill="#222222" d="M-0.763,25.259v-0.838c1.043-0.017,1.82-0.186,2.329-0.521c0.509-0.335,1.043-1.23,1.604-2.684
		l7.323-19.547c0.137-0.336,0.239-0.635,0.308-0.885c0.067-0.254,0.103-0.481,0.103-0.685c0-0.109-0.02-0.243-0.057-0.391
		c-0.038-0.146-0.093-0.294-0.167-0.445h3.54l8.07,21.766c0.557,1.467,1.068,2.397,1.525,2.795c0.461,0.397,1.092,0.597,1.901,0.597
		h0.411v0.838h-11.05l0.037-0.838c0.021,0,0.062,0,0.109,0c0.635,0.05,1.076,0.069,1.322,0.069c0.971,0,1.67-0.113,2.104-0.353
		c0.435-0.237,0.65-0.615,0.65-1.134c0-0.123-0.032-0.327-0.104-0.597c-0.067-0.269-0.163-0.583-0.286-0.932l-2.739-7.435H7.847
		l-2.814,7.435c-0.111,0.324-0.196,0.606-0.251,0.848c-0.055,0.244-0.09,0.444-0.104,0.606c0,0.535,0.205,0.928,0.614,1.184
		c0.411,0.255,1.05,0.382,1.919,0.382c0.225,0,0.628-0.021,1.212-0.069c0.05,0,0.087,0,0.112,0v0.838L-0.763,25.259L-0.763,25.259z
		 M8.424,12.513h7.137L12.02,2.97L8.424,12.513z"/>
</g>
</svg>
