<?xml version="1.0" encoding="utf-8"?>
<!-- Generator: Adobe Illustrator 16.0.0, SVG Export Plug-In . SVG Version: 6.00 Build 0)  -->
<!DOCTYPE svg PUBLIC "-//W3C//DTD SVG 1.1//EN" "http://www.w3.org/Graphics/SVG/1.1/DTD/svg11.dtd">
<svg version="1.1" id="Layer_1" xmlns="http://www.w3.org/2000/svg" xmlns:xlink="http://www.w3.org/1999/xlink" x="0px" y="0px"
	 width="25.365px" height="24.521px" viewBox="0 0 25.365 24.521" enable-background="new 0 0 25.365 24.521" xml:space="preserve">
<g>
	<path fill="#222222" d="M0,24.521V23.73c0.984-0.015,1.717-0.176,2.197-0.492s0.984-1.16,1.512-2.531l6.908-18.438
		c0.129-0.316,0.226-0.598,0.29-0.835c0.064-0.24,0.097-0.454,0.097-0.645c0-0.104-0.018-0.229-0.053-0.369
		C10.916,0.282,10.863,0.142,10.793,0h3.34l7.611,20.531c0.526,1.383,1.008,2.262,1.44,2.637c0.434,0.375,1.029,0.562,1.793,0.562
		h0.388v0.791H14.94l0.035-0.791c0.021,0,0.06,0,0.104,0c0.6,0.047,1.016,0.067,1.248,0.067c0.914,0,1.574-0.108,1.984-0.334
		c0.41-0.223,0.615-0.58,0.615-1.069c0-0.117-0.033-0.308-0.098-0.562s-0.154-0.551-0.271-0.879l-2.584-7.014H8.121l-2.654,7.014
		c-0.105,0.305-0.185,0.571-0.237,0.8c-0.052,0.229-0.085,0.419-0.097,0.571c0,0.504,0.193,0.876,0.58,1.116
		C6.1,23.68,6.703,23.8,7.524,23.8c0.211,0,0.592-0.021,1.143-0.067c0.047,0,0.082,0,0.105,0v0.791L0,24.521L0,24.521z
		 M8.666,12.498h6.731l-3.339-9L8.666,12.498z"/>
</g>
</svg>
