<?xml version="1.0" encoding="utf-8"?>
<!-- Generator: Adobe Illustrator 16.0.0, SVG Export Plug-In . SVG Version: 6.00 Build 0)  -->
<!DOCTYPE svg PUBLIC "-//W3C//DTD SVG 1.1//EN" "http://www.w3.org/Graphics/SVG/1.1/DTD/svg11.dtd">
<svg version="1.1" id="Layer_1" xmlns="http://www.w3.org/2000/svg" xmlns:xlink="http://www.w3.org/1999/xlink" x="0px" y="0px"
	 width="25.365px" height="24.521px" viewBox="0 0 25.365 24.521" enable-background="new 0 0 25.365 24.521" xml:space="preserve">
<g>
	<path d="M0,24.521V23.73c0.984-0.012,1.717-0.176,2.197-0.492s0.984-1.16,1.512-2.531l6.908-18.439
		c0.129-0.316,0.226-0.595,0.29-0.835s0.097-0.454,0.097-0.642c0-0.105-0.018-0.229-0.053-0.369S10.863,0.141,10.793,0h3.34
		l7.611,20.531c0.527,1.383,1.008,2.262,1.441,2.637s1.031,0.562,1.793,0.562h0.387v0.791H14.941l0.035-0.791
		c0.023,0,0.059,0,0.105,0c0.598,0.047,1.014,0.07,1.248,0.07c0.914,0,1.576-0.111,1.986-0.334s0.615-0.58,0.615-1.072
		c0-0.117-0.032-0.305-0.097-0.562s-0.155-0.551-0.272-0.879l-2.584-7.014H8.121l-2.654,7.014c-0.105,0.305-0.185,0.571-0.237,0.8
		s-0.085,0.419-0.097,0.571c0,0.504,0.193,0.876,0.58,1.116s0.99,0.36,1.811,0.36c0.211,0,0.592-0.023,1.143-0.07
		c0.047,0,0.082,0,0.105,0v0.791H0z M8.666,12.498h6.732l-3.34-9L8.666,12.498z"/>
</g>
</svg>
