<?xml version="1.0" encoding="utf-8"?>
<!-- Generator: Adobe Illustrator 16.0.0, SVG Export Plug-In . SVG Version: 6.00 Build 0)  -->
<!DOCTYPE svg PUBLIC "-//W3C//DTD SVG 1.1//EN" "http://www.w3.org/Graphics/SVG/1.1/DTD/svg11.dtd">
<svg version="1.1" id="Layer_1" xmlns="http://www.w3.org/2000/svg" xmlns:xlink="http://www.w3.org/1999/xlink" x="0px" y="0px"
	 width="46.583px" height="23.436px" viewBox="0 0 46.583 23.436" enable-background="new 0 0 46.583 23.436" xml:space="preserve">
<g>
	<path fill="#222222" d="M3.96,23.436H0L7.632,0h4.32l7.488,23.436h-4.788l-1.188-4.104H5.22L3.96,23.436z M10.332,8.604
		L9.504,4.176L8.496,8.604L6.12,16.308h6.48L10.332,8.604z"/>
	<path fill="#222222" d="M38.34,4.796c0.432-0.194,0.904-0.364,1.422-0.51c0.516-0.146,1.098-0.221,1.746-0.221
		c1.656,0,2.916,0.507,3.779,1.515c0.862,1.008,1.297,2.544,1.297,4.605v13.248h-4.213V9.787c0-0.838-0.197-1.434-0.596-1.778
		s-0.979-0.521-1.746-0.521c-0.646,0-1.218,0.099-1.71,0.288c-0.489,0.191-1.024,0.454-1.603,0.79v14.87h-4.213V9.787
		c0-0.838-0.217-1.434-0.646-1.778s-0.997-0.521-1.689-0.521c-0.625,0-1.194,0.099-1.711,0.288
		c-0.518,0.192-1.049,0.443-1.604,0.757v14.903h-4.212V4.464h2.771l1.367,2.442l1.836-2.11C29,4.602,29.45,4.432,29.967,4.286
		c0.517-0.146,1.109-0.221,1.781-0.221c0.722,0,1.338,0.067,1.854,0.2c0.517,0.134,0.979,0.312,1.388,0.528l1.438,2.256L38.34,4.796
		z"/>
</g>
</svg>
