<?xml version="1.0" encoding="utf-8"?>
<!-- Generator: Adobe Illustrator 16.0.0, SVG Export Plug-In . SVG Version: 6.00 Build 0)  -->
<!DOCTYPE svg PUBLIC "-//W3C//DTD SVG 1.1//EN" "http://www.w3.org/Graphics/SVG/1.1/DTD/svg11.dtd">
<svg version="1.1" id="Layer_1" xmlns="http://www.w3.org/2000/svg" xmlns:xlink="http://www.w3.org/1999/xlink" x="0px" y="0px"
	 width="51.68px" height="26px" viewBox="-2.549 -1.282 51.68 26" enable-background="new -2.549 -1.282 51.68 26"
	 xml:space="preserve">
<g>
	<path fill="#222222" d="M1.845,24.717h-4.394L5.918-1.282h4.793l8.307,25.999h-5.312l-1.317-4.552H3.244L1.845,24.717z
		 M8.915,8.263L7.996,3.351L6.878,8.263l-2.636,8.547h7.188L8.915,8.263z"/>
	<path fill="#222222" d="M39.985,4.04c0.479-0.215,1.005-0.404,1.579-0.565c0.572-0.163,1.217-0.246,1.937-0.246
		c1.837,0,3.235,0.563,4.193,1.682c0.954,1.118,1.437,2.822,1.437,5.107v14.697H44.46V9.577c0-0.93-0.22-1.592-0.663-1.973
		c-0.441-0.381-1.087-0.579-1.936-0.579c-0.717,0-1.352,0.11-1.897,0.32c-0.542,0.212-1.136,0.504-1.781,0.876v16.498h-4.67V9.577
		c0-0.93-0.242-1.592-0.718-1.973s-1.105-0.579-1.872-0.579c-0.694,0-1.324,0.11-1.899,0.32c-0.574,0.213-1.162,0.492-1.78,0.84
		v16.532h-4.671V3.67h3.074l1.516,2.709l2.038-2.341c0.429-0.215,0.926-0.404,1.5-0.565c0.573-0.163,1.23-0.246,1.976-0.246
		c0.802,0,1.484,0.075,2.057,0.222c0.573,0.148,1.085,0.346,1.54,0.587l1.596,2.502L39.985,4.04z"/>
</g>
</svg>
