<?xml version="1.0" encoding="utf-8"?>
<!-- Generator: Adobe Illustrator 16.0.0, SVG Export Plug-In . SVG Version: 6.00 Build 0)  -->
<!DOCTYPE svg PUBLIC "-//W3C//DTD SVG 1.1//EN" "http://www.w3.org/Graphics/SVG/1.1/DTD/svg11.dtd">
<svg version="1.1" id="Layer_1" xmlns="http://www.w3.org/2000/svg" xmlns:xlink="http://www.w3.org/1999/xlink" x="0px" y="0px"
	 width="46.583px" height="23.436px" viewBox="0 0 46.583 23.436" enable-background="new 0 0 46.583 23.436" xml:space="preserve">
<g>
	<path d="M3.96,23.436H0L7.632,0h4.32l7.488,23.436h-4.788l-1.188-4.104H5.22L3.96,23.436z M10.332,8.604L9.504,4.176L8.496,8.604
		L6.12,16.308h6.48L10.332,8.604z"/>
	<path d="M38.34,4.796c0.432-0.194,0.905-0.364,1.422-0.51c0.516-0.145,1.098-0.218,1.746-0.218c1.656,0,2.916,0.504,3.78,1.512
		c0.864,1.008,1.296,2.544,1.296,4.608v13.248h-4.212V9.787c0-0.838-0.198-1.431-0.594-1.778c-0.396-0.347-0.979-0.521-1.746-0.521
		c-0.648,0-1.218,0.096-1.71,0.288C37.83,7.967,37.296,8.23,36.72,8.566v14.87h-4.212V9.787c0-0.838-0.216-1.431-0.648-1.778
		c-0.432-0.347-0.997-0.521-1.692-0.521c-0.624,0-1.194,0.096-1.71,0.288c-0.516,0.192-1.05,0.443-1.602,0.754v14.906h-4.212V4.464
		h2.772l1.368,2.442l1.836-2.11c0.384-0.194,0.833-0.364,1.35-0.51c0.516-0.145,1.11-0.218,1.782-0.218
		c0.72,0,1.338,0.067,1.854,0.2c0.516,0.134,0.978,0.31,1.386,0.528l1.44,2.256L38.34,4.796z"/>
</g>
</svg>
