<?xml version="1.0" encoding="utf-8"?>
<!-- Generator: Adobe Illustrator 16.0.0, SVG Export Plug-In . SVG Version: 6.00 Build 0)  -->
<!DOCTYPE svg PUBLIC "-//W3C//DTD SVG 1.1//EN" "http://www.w3.org/Graphics/SVG/1.1/DTD/svg11.dtd">
<svg version="1.1" id="Layer_1" xmlns="http://www.w3.org/2000/svg" xmlns:xlink="http://www.w3.org/1999/xlink" x="0px" y="0px"
	 width="43.891px" height="26px" viewBox="1.147 0.68 43.891 26" enable-background="new 1.147 0.68 43.891 26"
	 xml:space="preserve">
<g>
	<path fill="#222222" d="M23.211,26.06h-5.302l-1.746-6.258H8.229l-1.78,6.258H1.147L8.228,0.68h8.069L23.211,26.06z M9.116,15.083
		h6.056L12.196,4.168h-0.069L9.116,15.083z"/>
	<path fill="#222222" d="M34.981,4.134c7.082,0,10.057,3.937,10.057,10.949c0,7.492-3.455,11.597-10.057,11.597
		c-6.567,0-10.022-4.103-10.022-11.597C24.957,8.068,27.933,4.134,34.981,4.134z M40.317,15.251c0-3.455-1.367-5.986-5.302-5.986
		c-3.968,0-5.336,2.532-5.336,5.986c0,4.178,1.439,7.115,5.303,7.115C38.882,22.366,40.317,19.427,40.317,15.251z"/>
</g>
</svg>
