<?xml version="1.0" encoding="utf-8"?>
<!-- Generator: Adobe Illustrator 16.0.0, SVG Export Plug-In . SVG Version: 6.00 Build 0)  -->
<!DOCTYPE svg PUBLIC "-//W3C//DTD SVG 1.1//EN" "http://www.w3.org/Graphics/SVG/1.1/DTD/svg11.dtd">
<svg version="1.1" id="Layer_1" xmlns="http://www.w3.org/2000/svg" xmlns:xlink="http://www.w3.org/1999/xlink" x="0px" y="0px"
	 width="46.186px" height="27.355px" viewBox="0 0 46.186 27.355" enable-background="new 0 0 46.186 27.355" xml:space="preserve">
<g>
	<path fill="#222222" d="M23.217,26.708h-5.578l-1.837-6.587H7.451l-1.872,6.587H0L7.451,0h8.493L23.217,26.708z M8.387,15.154
		h6.371L11.626,3.671h-0.071L8.387,15.154z"/>
	<path fill="#222222" d="M35.602,3.635c7.451,0,10.583,4.142,10.583,11.521c0,7.884-3.637,12.203-10.583,12.203
		c-6.911,0-10.546-4.318-10.546-12.203C25.056,7.775,28.187,3.635,35.602,3.635z M41.217,15.334c0-3.636-1.438-6.299-5.578-6.299
		c-4.176,0-5.615,2.664-5.615,6.299c0,4.394,1.514,7.486,5.579,7.486C39.706,22.821,41.217,19.726,41.217,15.334z"/>
</g>
</svg>
