<?xml version="1.0" encoding="utf-8"?>
<!-- Generator: Adobe Illustrator 16.0.0, SVG Export Plug-In . SVG Version: 6.00 Build 0)  -->
<!DOCTYPE svg PUBLIC "-//W3C//DTD SVG 1.1//EN" "http://www.w3.org/Graphics/SVG/1.1/DTD/svg11.dtd">
<svg version="1.1" id="Layer_1" xmlns="http://www.w3.org/2000/svg" xmlns:xlink="http://www.w3.org/1999/xlink" x="0px" y="0px"
	 width="46.185px" height="27.356px" viewBox="0 0 46.185 27.356" enable-background="new 0 0 46.185 27.356" xml:space="preserve">
<g>
	<path d="M23.217,26.708h-5.579l-1.836-6.587H7.451l-1.872,6.587H0L7.451,0h8.495L23.217,26.708z M8.387,15.154h6.372L11.626,3.671
		h-0.072L8.387,15.154z"/>
	<path d="M35.602,3.635c7.451,0,10.583,4.14,10.583,11.519c0,7.883-3.636,12.203-10.583,12.203c-6.911,0-10.546-4.319-10.546-12.203
		C25.056,7.775,28.187,3.635,35.602,3.635z M41.217,15.334c0-3.636-1.439-6.299-5.579-6.299c-4.175,0-5.615,2.664-5.615,6.299
		c0,4.392,1.512,7.487,5.579,7.487C39.706,22.821,41.217,19.726,41.217,15.334z"/>
</g>
</svg>
