<?xml version="1.0" encoding="utf-8"?>
<!-- Generator: Adobe Illustrator 16.0.0, SVG Export Plug-In . SVG Version: 6.00 Build 0)  -->
<!DOCTYPE svg PUBLIC "-//W3C//DTD SVG 1.1//EN" "http://www.w3.org/Graphics/SVG/1.1/DTD/svg11.dtd">
<svg version="1.1" id="Layer_1" xmlns="http://www.w3.org/2000/svg" xmlns:xlink="http://www.w3.org/1999/xlink" x="0px" y="0px"
	 width="40.991px" height="26px" viewBox="-2.44 -1.548 40.991 26" enable-background="new -2.44 -1.548 40.991 26"
	 xml:space="preserve">
<g>
	<path fill="#222222" d="M-2.44,23.313l1.934-0.5c0.267-0.065,0.469-0.163,0.609-0.298c0.141-0.134,0.264-0.345,0.37-0.636
		L9.333-1.548h2.057l8.777,23.505c0.146,0.438,0.473,0.739,0.978,0.897l1.556,0.459v1.138h-9.894v-1.138l2.175-0.5
		c0.333-0.074,0.551-0.193,0.669-0.337c0.113-0.147,0.109-0.384-0.014-0.72l-1.816-4.788H4.563L2.79,21.915
		c-0.106,0.333-0.095,0.549,0.026,0.648c0.126,0.1,0.309,0.183,0.548,0.25l2.178,0.498v1.138H-2.44V23.313L-2.44,23.313z
		 M13.184,15.173L9.05,4.099L5.082,15.173H13.184z"/>
	<path fill="#222222" d="M24.337,23.514l1.515-0.38c0.187-0.054,0.36-0.096,0.52-0.128c0.164-0.03,0.3-0.072,0.411-0.127
		c0.113-0.057,0.202-0.123,0.27-0.214c0.063-0.086,0.1-0.196,0.1-0.329V8.929c0-0.204-0.014-0.376-0.04-0.529
		c-0.025-0.158-0.094-0.297-0.199-0.418c-0.108-0.127-0.274-0.259-0.499-0.38c-0.223-0.126-0.54-0.27-0.938-0.429l-1.099-0.459
		V5.896l5.273-1.102h1.212v4.449c0.225-0.638,0.523-1.231,0.897-1.772c0.372-0.545,0.788-1.018,1.251-1.416
		c0.454-0.4,0.951-0.708,1.477-0.929c0.522-0.214,1.066-0.329,1.626-0.329c0.308,0,0.604,0.057,0.896,0.164
		c0.298,0.107,0.553,0.249,0.782,0.429c0.229,0.18,0.404,0.385,0.543,0.618c0.141,0.232,0.216,0.482,0.216,0.748
		c0,0.464-0.104,0.874-0.309,1.237c-0.206,0.36-0.429,0.658-0.669,0.898c-0.24,0.241-0.563,0.487-0.975,0.734
		c-0.055-0.117-0.12-0.259-0.212-0.429c-0.087-0.166-0.202-0.322-0.349-0.48c-0.146-0.152-0.329-0.286-0.549-0.398
		c-0.217-0.118-0.487-0.17-0.809-0.17c-0.384,0-0.779,0.07-1.187,0.199c-0.407,0.132-0.784,0.308-1.138,0.519
		c-0.354,0.213-0.662,0.452-0.928,0.722c-0.262,0.263-0.448,0.533-0.558,0.798v11.768c0,0.267,0.116,0.461,0.352,0.583
		c0.234,0.117,0.558,0.213,0.968,0.279l2.934,0.497v0.938H24.338L24.337,23.514L24.337,23.514z"/>
</g>
</svg>
