<?xml version="1.0" encoding="utf-8"?>
<!-- Generator: Adobe Illustrator 16.0.0, SVG Export Plug-In . SVG Version: 6.00 Build 0)  -->
<!DOCTYPE svg PUBLIC "-//W3C//DTD SVG 1.1 Tiny//EN" "http://www.w3.org/Graphics/SVG/1.1/DTD/svg11-tiny.dtd">
<svg version="1.1" baseProfile="tiny" id="Layer_1" xmlns="http://www.w3.org/2000/svg" xmlns:xlink="http://www.w3.org/1999/xlink"
	 x="0px" y="0px" width="36.105px" height="22.904px" viewBox="0 0 36.105 22.904" xml:space="preserve">
<g>
	<path d="M0,21.902l1.705-0.439c0.234-0.059,0.413-0.146,0.536-0.264s0.231-0.305,0.325-0.562L10.371,0h1.811l7.734,20.707
		c0.129,0.387,0.416,0.65,0.861,0.791l1.371,0.404v1.002H13.43v-1.002l1.916-0.439c0.293-0.07,0.489-0.17,0.589-0.299
		s0.097-0.34-0.009-0.633l-1.6-4.219H6.17l-1.564,4.359c-0.094,0.293-0.085,0.483,0.026,0.571s0.272,0.161,0.483,0.22l1.916,0.439
		v1.002H0V21.902z M13.764,14.73l-3.639-9.756L6.627,14.73H13.764z"/>
	<path d="M23.59,22.078l1.336-0.334c0.164-0.047,0.316-0.085,0.457-0.114s0.261-0.067,0.36-0.114s0.179-0.108,0.237-0.185
		s0.088-0.173,0.088-0.29V9.229c0-0.176-0.012-0.331-0.035-0.466s-0.082-0.258-0.176-0.369s-0.24-0.223-0.439-0.334
		s-0.475-0.237-0.826-0.378l-0.967-0.404V6.557l4.641-0.967h1.072v3.92c0.199-0.562,0.463-1.084,0.791-1.564
		s0.694-0.896,1.099-1.248s0.838-0.624,1.301-0.817s0.94-0.29,1.433-0.29c0.27,0,0.533,0.047,0.791,0.141s0.486,0.22,0.686,0.378
		s0.36,0.34,0.483,0.545s0.185,0.425,0.185,0.659c0,0.41-0.091,0.773-0.272,1.09s-0.378,0.58-0.589,0.791s-0.498,0.428-0.861,0.65
		c-0.047-0.105-0.108-0.231-0.185-0.378s-0.179-0.287-0.308-0.422s-0.29-0.252-0.483-0.352s-0.431-0.149-0.712-0.149
		c-0.34,0-0.688,0.059-1.046,0.176s-0.691,0.27-1.002,0.457s-0.583,0.398-0.817,0.633s-0.398,0.469-0.492,0.703v10.371
		c0,0.234,0.103,0.404,0.308,0.51s0.489,0.188,0.853,0.246l2.584,0.439v0.826H23.59V22.078z"/>
</g>
</svg>
