<?xml version="1.0" encoding="utf-8"?>
<!-- Generator: Adobe Illustrator 16.0.0, SVG Export Plug-In . SVG Version: 6.00 Build 0)  -->
<!DOCTYPE svg PUBLIC "-//W3C//DTD SVG 1.1//EN" "http://www.w3.org/Graphics/SVG/1.1/DTD/svg11.dtd">
<svg version="1.1" id="Layer_1" xmlns="http://www.w3.org/2000/svg" xmlns:xlink="http://www.w3.org/1999/xlink" x="0px" y="0px"
	 width="36.105px" height="22.904px" viewBox="0 0 36.105 22.904" enable-background="new 0 0 36.105 22.904" xml:space="preserve">
<g>
	<path fill="#222222" d="M0,21.902l1.705-0.439c0.234-0.059,0.413-0.146,0.536-0.264s0.231-0.305,0.325-0.562L10.371,0h1.812
		l7.731,20.707c0.129,0.387,0.416,0.65,0.861,0.791l1.371,0.404v1.002H13.43v-1.002l1.916-0.439c0.293-0.067,0.486-0.17,0.589-0.299
		c0.1-0.129,0.097-0.34-0.012-0.633l-1.6-4.219H6.17L4.607,20.67c-0.094,0.293-0.085,0.483,0.023,0.571
		c0.111,0.088,0.272,0.161,0.483,0.22L7.031,21.9v1.002H0V21.902z M13.764,14.73l-3.642-9.756L6.627,14.73H13.764z"/>
	<path fill="#222222" d="M23.59,22.078l1.336-0.334c0.164-0.047,0.316-0.085,0.457-0.114c0.144-0.026,0.264-0.064,0.36-0.111
		c0.099-0.05,0.179-0.108,0.237-0.188c0.058-0.077,0.088-0.173,0.088-0.29V9.229c0-0.179-0.012-0.331-0.035-0.466
		c-0.023-0.138-0.082-0.261-0.176-0.369c-0.094-0.111-0.24-0.226-0.439-0.334c-0.196-0.111-0.475-0.237-0.826-0.378l-0.967-0.404
		V6.557l4.644-0.97h1.069v3.92c0.199-0.562,0.463-1.084,0.791-1.562c0.328-0.48,0.694-0.896,1.102-1.248
		c0.402-0.352,0.838-0.624,1.301-0.817c0.463-0.19,0.94-0.29,1.433-0.29c0.271,0,0.533,0.05,0.791,0.144
		c0.261,0.094,0.486,0.22,0.688,0.378s0.357,0.34,0.48,0.545s0.188,0.425,0.188,0.659c0,0.41-0.091,0.771-0.272,1.09
		c-0.181,0.317-0.378,0.58-0.589,0.791s-0.498,0.428-0.859,0.647c-0.049-0.104-0.107-0.229-0.187-0.378
		c-0.077-0.146-0.179-0.284-0.308-0.422c-0.129-0.135-0.29-0.252-0.483-0.352c-0.192-0.103-0.431-0.149-0.712-0.149
		c-0.34,0-0.688,0.062-1.046,0.176c-0.358,0.117-0.691,0.271-1.002,0.457c-0.312,0.188-0.583,0.398-0.817,0.636
		c-0.231,0.232-0.396,0.469-0.492,0.703v10.368c0,0.234,0.104,0.404,0.311,0.513c0.205,0.104,0.489,0.188,0.853,0.246l2.584,0.438
		v0.826H23.59V22.078z"/>
</g>
</svg>
