<?xml version="1.0" encoding="utf-8"?>
<!-- Generator: Adobe Illustrator 16.0.0, SVG Export Plug-In . SVG Version: 6.00 Build 0)  -->
<!DOCTYPE svg PUBLIC "-//W3C//DTD SVG 1.1//EN" "http://www.w3.org/Graphics/SVG/1.1/DTD/svg11.dtd">
<svg version="1.1" id="Layer_1" xmlns="http://www.w3.org/2000/svg" xmlns:xlink="http://www.w3.org/1999/xlink" x="0px" y="0px"
	 width="44px" height="31.497px" viewBox="4.021 1.439 44 31.497" enable-background="new 4.021 1.439 44 31.497"
	 xml:space="preserve">
<g>
	<path fill="#222222" d="M14.444,1.439h2.737L27.67,25.846h-2.672l-3.53-8.213H10.123l-3.562,8.213h-2.54L14.444,1.439z
		 M11.046,15.423h9.466L15.828,4.209L11.046,15.423z"/>
	<path fill="#222222" d="M48.021,23.008c0,1.945,0,4.388-1.649,6.598c-2.276,3.166-6.433,3.33-7.157,3.33
		c-2.572,0-7.586-0.988-9.234-6.629h2.44c0.595,1.484,2.374,4.552,6.761,4.552c3.035,0,6.53-1.749,6.53-6.729v-1.582h-0.065
		c-1.353,2.572-4.317,3.729-6.959,3.729c-4.748,0-9.433-3.691-9.433-9.365c0-5.74,4.685-9.566,9.433-9.566
		c1.648,0,4.883,0.495,6.959,3.693h0.065V7.805h2.31V23.008L48.021,23.008z M38.688,24.196c4.781,0,7.156-4.285,7.156-7.354
		c0-3.958-3.1-7.421-7.156-7.421c-4.09,0-7.125,3.463-7.125,7.421C31.562,20.765,34.598,24.196,38.688,24.196z"/>
</g>
</svg>
