<?xml version="1.0" encoding="utf-8"?>
<!-- Generator: Adobe Illustrator 16.0.0, SVG Export Plug-In . SVG Version: 6.00 Build 0)  -->
<!DOCTYPE svg PUBLIC "-//W3C//DTD SVG 1.1 Tiny//EN" "http://www.w3.org/Graphics/SVG/1.1/DTD/svg11-tiny.dtd">
<svg version="1.1" baseProfile="tiny" id="Layer_1" xmlns="http://www.w3.org/2000/svg" xmlns:xlink="http://www.w3.org/1999/xlink"
	 x="0px" y="0px" width="44px" height="31.497px" viewBox="4.021 1.439 44 31.497" xml:space="preserve">
<g>
	<path d="M14.444,1.439h2.737L27.67,25.846h-2.672l-3.53-8.213H10.123l-3.562,8.213h-2.54L14.444,1.439z M11.046,15.423h9.466
		L15.828,4.209L11.046,15.423z"/>
	<path d="M48.021,23.009c0,1.945,0,4.387-1.649,6.597c-2.276,3.166-6.433,3.33-7.157,3.33c-2.572,0-7.586-0.989-9.234-6.629h2.44
		c0.594,1.484,2.374,4.552,6.761,4.552c3.035,0,6.53-1.749,6.53-6.729v-1.583h-0.065c-1.353,2.572-4.32,3.727-6.959,3.727
		c-4.749,0-9.433-3.694-9.433-9.367c0-5.738,4.684-9.564,9.433-9.564c1.648,0,4.882,0.495,6.959,3.693h0.065V7.805h2.31V23.009z
		 M38.687,24.196c4.782,0,7.157-4.286,7.157-7.354c0-3.958-3.1-7.421-7.157-7.421c-4.09,0-7.124,3.463-7.124,7.421
		C31.563,20.765,34.597,24.196,38.687,24.196z"/>
</g>
</svg>
