<?xml version="1.0" encoding="utf-8"?>
<!-- Generator: Adobe Illustrator 16.0.0, SVG Export Plug-In . SVG Version: 6.00 Build 0)  -->
<!DOCTYPE svg PUBLIC "-//W3C//DTD SVG 1.1//EN" "http://www.w3.org/Graphics/SVG/1.1/DTD/svg11.dtd">
<svg version="1.1" id="Layer_1" xmlns="http://www.w3.org/2000/svg" xmlns:xlink="http://www.w3.org/1999/xlink" x="0px" y="0px"
	 width="36.324px" height="26px" viewBox="7.86 4.188 36.324 26" enable-background="new 7.86 4.188 36.324 26"
	 xml:space="preserve">
<g>
	<path fill="#222222" d="M16.465,4.188h2.259l8.658,20.148h-2.205l-2.915-6.78h-9.363l-2.941,6.78H7.86L16.465,4.188z M13.658,15.73
		h7.815l-3.868-9.256L13.658,15.73z"/>
	<path fill="#222222" d="M44.184,21.994c0,1.604,0,3.621-1.362,5.445c-1.878,2.613-5.31,2.748-5.907,2.748
		c-2.123,0-6.263-0.814-7.623-5.473h2.014c0.491,1.227,1.961,3.759,5.58,3.759c2.506,0,5.392-1.445,5.392-5.557v-1.305h-0.055
		c-1.114,2.124-3.562,3.079-5.743,3.079c-3.92,0-7.788-3.047-7.788-7.73c0-4.74,3.867-7.897,7.788-7.897
		c1.359,0,4.029,0.408,5.743,3.048h0.055V9.441h1.907V21.994L44.184,21.994z M36.477,22.973c3.948,0,5.907-3.538,5.907-6.071
		c0-3.268-2.559-6.125-5.907-6.125c-3.376,0-5.883,2.858-5.883,6.125C30.595,20.141,33.101,22.973,36.477,22.973z"/>
</g>
</svg>
