<?xml version="1.0" encoding="utf-8"?>
<!-- Generator: Adobe Illustrator 16.0.0, SVG Export Plug-In . SVG Version: 6.00 Build 0)  -->
<!DOCTYPE svg PUBLIC "-//W3C//DTD SVG 1.1//EN" "http://www.w3.org/Graphics/SVG/1.1/DTD/svg11.dtd">
<svg version="1.1" id="Layer_1" xmlns="http://www.w3.org/2000/svg" xmlns:xlink="http://www.w3.org/1999/xlink" x="0px" y="0px"
	 width="48.021px" height="34.376px" viewBox="0 0 48.021 34.376" enable-background="new 0 0 48.021 34.376" xml:space="preserve">
<g>
	<path d="M11.375,0h2.987l11.447,26.637h-2.916l-3.852-8.963H6.659l-3.888,8.963H0L11.375,0z M7.667,15.262h10.331L12.886,3.023
		L7.667,15.262z"/>
	<path d="M48.021,23.541c0,2.124,0,4.788-1.8,7.199c-2.484,3.456-7.02,3.636-7.811,3.636c-2.808,0-8.279-1.08-10.079-7.235h2.664
		c0.648,1.62,2.591,4.967,7.379,4.967c3.312,0,7.127-1.908,7.127-7.343v-1.728h-0.072c-1.476,2.808-4.715,4.067-7.595,4.067
		c-5.183,0-10.294-4.031-10.294-10.223c0-6.263,5.111-10.438,10.294-10.438c1.8,0,5.328,0.54,7.595,4.031h0.072V6.947h2.52V23.541z
		 M37.834,24.837c5.219,0,7.811-4.679,7.811-8.027c0-4.319-3.383-8.099-7.811-8.099c-4.463,0-7.775,3.78-7.775,8.099
		C30.059,21.093,33.371,24.837,37.834,24.837z"/>
</g>
</svg>
