<?xml version="1.0" encoding="utf-8"?>
<!-- Generator: Adobe Illustrator 16.0.0, SVG Export Plug-In . SVG Version: 6.00 Build 0)  -->
<!DOCTYPE svg PUBLIC "-//W3C//DTD SVG 1.1//EN" "http://www.w3.org/Graphics/SVG/1.1/DTD/svg11.dtd">
<svg version="1.1" id="Layer_1" xmlns="http://www.w3.org/2000/svg" xmlns:xlink="http://www.w3.org/1999/xlink" x="0px" y="0px"
	 width="36.936px" height="25.632px" viewBox="0 0 36.936 25.632" enable-background="new 0 0 36.936 25.632" xml:space="preserve">
<g>
	<path d="M8.244,0c1.824,0,3.384,0.648,4.68,1.944s1.944,2.856,1.944,4.68c0,0.84-0.15,1.645-0.45,2.412
		c-0.3,0.769-0.738,1.453-1.313,2.052c1.08,0.696,1.926,1.602,2.538,2.718c0.611,1.116,0.918,2.346,0.918,3.69
		c0,2.137-0.751,3.955-2.25,5.454c-1.501,1.5-3.319,2.25-5.455,2.25H0V0H8.244z M7.92,9.792c0.888,0,1.644-0.3,2.268-0.9
		c0.624-0.6,0.936-1.355,0.936-2.268c0-0.888-0.312-1.644-0.936-2.268C9.564,3.732,8.808,3.42,7.92,3.42H3.6v6.372H7.92z
		 M8.496,21.78c1.2,0,2.214-0.414,3.042-1.242s1.242-1.841,1.242-3.042c0-1.2-0.414-2.214-1.242-3.042s-1.842-1.242-3.042-1.242H3.6
		v8.568H8.496z"/>
	<path d="M36.936,20.16c0,1.728-0.678,3.072-2.034,4.032c-1.355,0.96-3.113,1.44-5.273,1.44c-1.129,0-2.311-0.174-3.546-0.522
		c-1.236-0.348-2.419-0.822-3.546-1.422l0.468-3.132c2.735,1.2,5.004,1.8,6.804,1.8c0.984,0,1.733-0.131,2.25-0.396
		c0.516-0.264,0.774-0.708,0.774-1.332c0-0.744-0.913-1.404-2.736-1.98c-2.88-0.912-4.572-1.5-5.076-1.764
		c-1.824-0.959-2.735-2.256-2.735-3.888c0-1.512,0.635-2.748,1.907-3.708c1.272-0.959,2.928-1.44,4.969-1.44
		c1.199,0,2.399,0.18,3.6,0.54s2.448,0.9,3.744,1.62l-1.296,2.736c-1.057-0.48-2.101-0.876-3.132-1.188
		c-1.032-0.312-2.005-0.468-2.916-0.468c-1.872,0-2.809,0.492-2.809,1.476c0,0.672,0.912,1.32,2.736,1.944
		c2.808,0.96,4.5,1.584,5.076,1.872C36.012,17.365,36.936,18.625,36.936,20.16z"/>
</g>
</svg>
