<?xml version="1.0" encoding="utf-8"?>
<!-- Generator: Adobe Illustrator 16.0.0, SVG Export Plug-In . SVG Version: 6.00 Build 0)  -->
<!DOCTYPE svg PUBLIC "-//W3C//DTD SVG 1.1//EN" "http://www.w3.org/Graphics/SVG/1.1/DTD/svg11.dtd">
<svg version="1.1" id="Layer_1" xmlns="http://www.w3.org/2000/svg" xmlns:xlink="http://www.w3.org/1999/xlink" x="0px" y="0px"
	 width="37.463px" height="26px" viewBox="-0.265 -0.184 37.463 26" enable-background="new -0.265 -0.184 37.463 26"
	 xml:space="preserve">
<g>
	<path fill="#222222" d="M8.098-0.184c1.848,0,3.432,0.657,4.746,1.971c1.315,1.314,1.973,2.897,1.973,4.748
		c0,0.852-0.153,1.668-0.458,2.446c-0.304,0.78-0.749,1.475-1.333,2.081c1.097,0.707,1.954,1.625,2.575,2.757
		c0.62,1.131,0.931,2.378,0.931,3.741c0,2.166-0.762,4.012-2.281,5.532c-1.522,1.522-3.363,2.282-5.533,2.282h-8.983V-0.184H8.098z
		 M7.77,9.749c0.9,0,1.667-0.304,2.3-0.912c0.633-0.609,0.953-1.375,0.953-2.301c0-0.901-0.318-1.667-0.953-2.3
		c-0.634-0.633-1.399-0.95-2.3-0.95H3.386v6.463H7.77z M8.354,21.909c1.214,0,2.245-0.42,3.085-1.261
		c0.841-0.839,1.257-1.867,1.257-3.088c0-1.215-0.416-2.243-1.257-3.083c-0.839-0.841-1.871-1.261-3.085-1.261H3.386v8.689h4.967
		L8.354,21.909L8.354,21.909z"/>
	<path fill="#222222" d="M37.199,20.265c0,1.754-0.688,3.116-2.062,4.09c-1.374,0.973-3.156,1.462-5.346,1.462
		c-1.146,0-2.347-0.176-3.597-0.529c-1.255-0.354-2.455-0.834-3.598-1.441l0.475-3.178c2.774,1.217,5.075,1.825,6.901,1.825
		c0.999,0,1.759-0.132,2.282-0.401c0.524-0.27,0.786-0.719,0.786-1.352c0-0.753-0.926-1.424-2.775-2.008
		c-2.921-0.926-4.637-1.522-5.148-1.789c-1.849-0.973-2.772-2.288-2.772-3.945c0-1.533,0.645-2.785,1.935-3.76
		c1.289-0.973,2.973-1.461,5.042-1.461c1.212,0,2.43,0.182,3.65,0.547c1.217,0.365,2.482,0.912,3.798,1.644l-1.315,2.775
		c-1.074-0.487-2.133-0.888-3.177-1.206c-1.048-0.316-2.034-0.474-2.956-0.474c-1.899,0-2.853,0.5-2.853,1.499
		c0,0.68,0.925,1.339,2.776,1.97c2.846,0.976,4.563,1.608,5.147,1.9C36.262,17.43,37.199,18.708,37.199,20.265z"/>
</g>
</svg>
