<?xml version="1.0" encoding="utf-8"?>
<!-- Generator: Adobe Illustrator 16.0.0, SVG Export Plug-In . SVG Version: 6.00 Build 0)  -->
<!DOCTYPE svg PUBLIC "-//W3C//DTD SVG 1.1//EN" "http://www.w3.org/Graphics/SVG/1.1/DTD/svg11.dtd">
<svg version="1.1" id="Layer_1" xmlns="http://www.w3.org/2000/svg" xmlns:xlink="http://www.w3.org/1999/xlink" x="0px" y="0px"
	 width="36.936px" height="25.632px" viewBox="0 0 36.936 25.632" enable-background="new 0 0 36.936 25.632" xml:space="preserve">
<g>
	<path fill="#222222" d="M8.244,0c1.822,0,3.384,0.648,4.68,1.944c1.296,1.296,1.944,2.856,1.944,4.68c0,0.84-0.15,1.645-0.45,2.412
		c-0.3,0.769-0.738,1.453-1.313,2.052c1.08,0.696,1.926,1.602,2.538,2.718c0.611,1.115,0.918,2.346,0.918,3.689
		c0,2.137-0.751,3.955-2.25,5.455c-1.501,1.5-3.317,2.25-5.455,2.25H0V0H8.244z M7.92,9.792c0.888,0,1.644-0.3,2.268-0.9
		s0.938-1.355,0.938-2.268c0-0.888-0.312-1.644-0.938-2.268S8.808,3.42,7.92,3.42H3.6v6.372H7.92z M8.496,21.781
		c1.198,0,2.214-0.414,3.042-1.242s1.24-1.842,1.24-3.043c0-1.199-0.412-2.213-1.24-3.041s-1.844-1.243-3.042-1.243H3.6v8.569H8.496
		z"/>
	<path fill="#222222" d="M36.936,20.16c0,1.729-0.678,3.072-2.034,4.032c-1.354,0.96-3.111,1.44-5.271,1.44
		c-1.129,0-2.312-0.174-3.546-0.522c-1.236-0.348-2.419-0.821-3.546-1.422l0.468-3.132c2.735,1.199,5.004,1.8,6.804,1.8
		c0.984,0,1.733-0.131,2.25-0.396c0.518-0.266,0.774-0.709,0.774-1.332c0-0.744-0.913-1.404-2.736-1.98
		c-2.88-0.912-4.572-1.5-5.076-1.764c-1.823-0.959-2.733-2.256-2.733-3.888c0-1.512,0.635-2.748,1.905-3.708
		c1.272-0.959,2.93-1.44,4.971-1.44c1.197,0,2.397,0.18,3.6,0.54c1.201,0.36,2.448,0.9,3.744,1.62l-1.296,2.736
		c-1.059-0.48-2.103-0.876-3.132-1.188c-1.032-0.312-2.006-0.468-2.916-0.468c-1.872,0-2.811,0.492-2.811,1.476
		c0,0.672,0.912,1.32,2.736,1.943c2.808,0.961,4.5,1.584,5.076,1.873C36.012,17.365,36.936,18.625,36.936,20.16z"/>
</g>
</svg>
