<?xml version="1.0" encoding="utf-8"?>
<!-- Generator: Adobe Illustrator 16.0.0, SVG Export Plug-In . SVG Version: 6.00 Build 0)  -->
<!DOCTYPE svg PUBLIC "-//W3C//DTD SVG 1.1//EN" "http://www.w3.org/Graphics/SVG/1.1/DTD/svg11.dtd">
<svg version="1.1" id="Layer_1" xmlns="http://www.w3.org/2000/svg" xmlns:xlink="http://www.w3.org/1999/xlink" x="0px" y="0px"
	 width="37.793px" height="24.451px" viewBox="0 0 37.793 24.451" enable-background="new 0 0 37.793 24.451" xml:space="preserve">
<g>
	<path fill="#222222" d="M11.689,11.25c2.707,0.199,4.717,0.873,6.029,2.021c1.312,1.148,1.97,2.584,1.97,4.309
		c0,1.5-0.444,2.792-1.335,3.876s-2.03,1.793-3.419,2.127c-1.389,0.334-3.249,0.501-5.581,0.501H0v-0.811h0.914
		c1.02,0,1.726-0.129,2.118-0.387c0.392-0.258,0.642-0.658,0.747-1.203s0.158-1.812,0.158-3.807V6.275
		c0-1.934-0.056-3.182-0.167-3.744c-0.111-0.562-0.346-0.949-0.703-1.16S1.927,1.055,0.72,1.055H0.264V0.246l3.92-0.105L8.648,0
		c6.516,0,9.773,1.875,9.773,5.625c0,1.547-0.56,2.789-1.679,3.727C15.623,10.29,13.939,10.922,11.689,11.25z M7.383,10.916
		c0.293,0.012,0.539,0.018,0.738,0.018c2.531,0,4.26-0.398,5.186-1.195c0.926-0.797,1.389-2.086,1.389-3.867
		c0-1.242-0.182-2.203-0.545-2.883c-0.363-0.68-0.908-1.204-1.635-1.573s-1.969-0.554-3.727-0.554c-0.457,0-0.926,0.018-1.406,0.053
		V10.916z M7.383,11.777v5.309c0,2.263,0.041,3.697,0.123,4.308c0.082,0.609,0.302,1.071,0.659,1.39
		c0.357,0.315,1.063,0.475,2.118,0.475c1.875,0,3.281-0.479,4.219-1.44s1.406-2.401,1.406-4.323c0-1.97-0.53-3.419-1.591-4.351
		c-1.061-0.934-2.927-1.397-5.599-1.397C8.297,11.742,7.852,11.754,7.383,11.777z"/>
	<path fill="#222222" d="M37.143,21.444h0.65c-0.105,2.005-1.09,3.007-2.953,3.007c-0.797,0-1.427-0.211-1.89-0.634
		c-0.464-0.422-0.765-1.049-0.905-1.881c-1.172,0.832-2.24,1.459-3.208,1.881c-0.967,0.423-1.831,0.634-2.593,0.634
		c-0.973,0-1.811-0.281-2.514-0.845c-0.703-0.562-1.057-1.308-1.057-2.231c0-1.207,0.59-2.263,1.768-3.164
		c1.179-0.901,2.805-1.78,4.879-2.637l2.725-1.107v-0.702c0-0.996-0.064-1.718-0.193-2.163s-0.463-0.844-1.002-1.195
		c-0.539-0.351-1.248-0.527-2.127-0.527c-1.758,0-2.736,0.586-2.936,1.758c-0.188,1.195-0.68,1.792-1.477,1.792
		c-0.715,0-1.072-0.341-1.072-1.021c0-0.668,0.475-1.386,1.424-2.153c0.949-0.767,2.426-1.151,4.43-1.151
		c1.488,0,2.643,0.234,3.463,0.703c0.82,0.469,1.362,1.002,1.627,1.6c0.264,0.598,0.396,1.512,0.396,2.74v5.818
		c0,1.359,0.068,2.232,0.211,2.619s0.443,0.58,0.914,0.58C36.475,23.168,36.955,22.594,37.143,21.444z M32.045,15.293l-1.916,0.772
		c-3.023,1.229-4.535,2.776-4.535,4.642c0,0.737,0.193,1.333,0.58,1.784s0.891,0.677,1.512,0.677c0.551,0,1.189-0.183,1.916-0.545
		c0.729-0.363,1.541-0.908,2.443-1.636V15.293z"/>
</g>
</svg>
