<?xml version="1.0" encoding="utf-8"?>
<!-- Generator: Adobe Illustrator 16.0.0, SVG Export Plug-In . SVG Version: 6.00 Build 0)  -->
<!DOCTYPE svg PUBLIC "-//W3C//DTD SVG 1.1 Tiny//EN" "http://www.w3.org/Graphics/SVG/1.1/DTD/svg11-tiny.dtd">
<svg version="1.1" baseProfile="tiny" id="Layer_1" xmlns="http://www.w3.org/2000/svg" xmlns:xlink="http://www.w3.org/1999/xlink"
	 x="0px" y="0px" width="37.793px" height="24.451px" viewBox="0 0 37.793 24.451" xml:space="preserve">
<g>
	<path d="M11.689,11.25c2.707,0.199,4.717,0.873,6.029,2.021s1.969,2.584,1.969,4.307c0,1.5-0.445,2.792-1.336,3.876
		s-2.03,1.793-3.419,2.127s-3.249,0.501-5.581,0.501H0v-0.809h0.914c1.02,0,1.726-0.129,2.118-0.387s0.642-0.659,0.747-1.204
		s0.158-1.813,0.158-3.806V6.275c0-1.934-0.056-3.182-0.167-3.744s-0.346-0.949-0.703-1.16s-1.14-0.316-2.347-0.316H0.264V0.246
		l3.92-0.105L8.648,0c6.516,0,9.773,1.875,9.773,5.625c0,1.547-0.56,2.789-1.679,3.727S13.939,10.922,11.689,11.25z M7.383,10.916
		c0.293,0.012,0.539,0.018,0.738,0.018c2.531,0,4.26-0.398,5.186-1.195s1.389-2.086,1.389-3.867c0-1.242-0.182-2.203-0.545-2.883
		s-0.908-1.204-1.635-1.573s-1.969-0.554-3.727-0.554c-0.457,0-0.926,0.018-1.406,0.053V10.916z M7.383,11.777v5.309
		c0,2.262,0.041,3.697,0.123,4.307s0.302,1.072,0.659,1.389s1.063,0.475,2.118,0.475c1.875,0,3.281-0.48,4.219-1.441
		s1.406-2.402,1.406-4.324c0-1.969-0.53-3.419-1.591-4.351s-2.927-1.397-5.599-1.397C8.297,11.742,7.852,11.754,7.383,11.777z"/>
	<path d="M37.143,21.445h0.65c-0.105,2.004-1.09,3.006-2.953,3.006c-0.797,0-1.427-0.211-1.89-0.633s-0.765-1.049-0.905-1.881
		c-1.172,0.832-2.241,1.459-3.208,1.881s-1.831,0.633-2.593,0.633c-0.973,0-1.811-0.281-2.514-0.844s-1.055-1.307-1.055-2.232
		c0-1.207,0.589-2.262,1.767-3.164s2.804-1.781,4.878-2.637l2.725-1.107v-0.703c0-0.996-0.064-1.717-0.193-2.162
		s-0.463-0.844-1.002-1.195s-1.248-0.527-2.127-0.527c-1.758,0-2.736,0.586-2.936,1.758c-0.188,1.195-0.68,1.793-1.477,1.793
		c-0.715,0-1.072-0.34-1.072-1.02c0-0.668,0.475-1.386,1.424-2.153s2.426-1.151,4.43-1.151c1.488,0,2.643,0.234,3.463,0.703
		s1.362,1.002,1.626,1.6s0.396,1.512,0.396,2.742v5.818c0,1.359,0.07,2.232,0.211,2.619s0.445,0.58,0.914,0.58
		C36.475,23.168,36.955,22.594,37.143,21.445z M32.045,15.293l-1.916,0.773c-3.023,1.23-4.535,2.777-4.535,4.641
		c0,0.738,0.193,1.333,0.58,1.784s0.891,0.677,1.512,0.677c0.551,0,1.189-0.182,1.916-0.545s1.541-0.908,2.443-1.635V15.293z"/>
</g>
</svg>
