<?xml version="1.0" encoding="utf-8"?>
<!-- Generator: Adobe Illustrator 16.0.0, SVG Export Plug-In . SVG Version: 6.00 Build 0)  -->
<!DOCTYPE svg PUBLIC "-//W3C//DTD SVG 1.1//EN" "http://www.w3.org/Graphics/SVG/1.1/DTD/svg11.dtd">
<svg version="1.1" id="Layer_1" xmlns="http://www.w3.org/2000/svg" xmlns:xlink="http://www.w3.org/1999/xlink" x="0px" y="0px"
	 width="40.19px" height="26px" viewBox="-1.198 -0.775 40.19 26" enable-background="new -1.198 -0.775 40.19 26"
	 xml:space="preserve">
<g>
	<path fill="#222222" d="M11.231,11.188c2.879,0.211,5.016,0.928,6.411,2.148c1.396,1.221,2.095,2.747,2.095,4.582
		c0,1.596-0.471,2.968-1.419,4.122c-0.947,1.152-2.158,1.907-3.636,2.263c-1.476,0.355-3.455,0.533-5.934,0.533h-9.945v-0.864h0.97
		c1.085,0,1.837-0.138,2.253-0.411c0.416-0.274,0.683-0.701,0.795-1.281c0.111-0.578,0.167-1.927,0.167-4.047V5.897
		c0-2.056-0.059-3.383-0.178-3.98c-0.118-0.598-0.368-1.01-0.747-1.233C1.682,0.459,0.85,0.347-0.432,0.347h-0.486v-0.861
		l4.168-0.11l4.747-0.151c6.93,0,10.394,1.994,10.394,5.981c0,1.646-0.597,2.966-1.786,3.964
		C15.415,10.168,13.624,10.839,11.231,11.188z M6.654,10.833c0.31,0.013,0.572,0.02,0.785,0.02c2.691,0,4.53-0.424,5.515-1.271
		c0.985-0.848,1.477-2.219,1.477-4.112c0-1.321-0.192-2.344-0.58-3.066c-0.386-0.722-0.965-1.28-1.738-1.672
		c-0.774-0.394-2.096-0.59-3.963-0.59c-0.486,0-0.985,0.02-1.495,0.057L6.654,10.833L6.654,10.833z M6.654,11.749v5.646
		c0,2.405,0.042,3.933,0.13,4.582c0.088,0.647,0.323,1.139,0.702,1.479c0.38,0.333,1.13,0.505,2.253,0.505
		c1.993,0,3.488-0.511,4.486-1.532c0.998-1.022,1.495-2.553,1.495-4.598c0-2.094-0.562-3.635-1.691-4.626
		c-1.129-0.994-3.113-1.486-5.955-1.486C7.626,11.71,7.153,11.725,6.654,11.749z"/>
	<path fill="#222222" d="M38.301,22.027h0.691c-0.113,2.133-1.159,3.197-3.14,3.197c-0.848,0-1.518-0.224-2.009-0.673
		c-0.492-0.448-0.812-1.115-0.963-2c-1.246,0.884-2.382,1.552-3.411,2c-1.029,0.451-1.946,0.673-2.758,0.673
		c-1.034,0-1.925-0.298-2.673-0.896c-0.748-0.6-1.125-1.393-1.125-2.373c0-1.284,0.629-2.407,1.881-3.366
		c1.252-0.957,2.981-1.892,5.187-2.801l2.899-1.178v-0.746c0-1.061-0.069-1.828-0.205-2.301c-0.137-0.474-0.492-0.898-1.064-1.271
		c-0.573-0.373-1.328-0.561-2.264-0.561c-1.868,0-2.908,0.623-3.122,1.87c-0.197,1.271-0.723,1.906-1.569,1.906
		c-0.76,0-1.141-0.363-1.141-1.085c0-0.711,0.505-1.475,1.515-2.291c1.009-0.815,2.581-1.224,4.71-1.224
		c1.583,0,2.811,0.248,3.683,0.747c0.872,0.498,1.449,1.065,1.731,1.702c0.279,0.635,0.421,1.606,0.421,2.912v6.188
		c0,1.446,0.073,2.372,0.224,2.785c0.153,0.41,0.474,0.615,0.973,0.615C37.59,23.861,38.1,23.249,38.301,22.027z M32.88,15.487
		l-2.04,0.821c-3.214,1.307-4.821,2.95-4.821,4.936c0,0.783,0.205,1.418,0.617,1.897c0.411,0.479,0.946,0.72,1.605,0.72
		c0.586,0,1.267-0.196,2.039-0.581c0.775-0.384,1.639-0.965,2.597-1.737v-6.056H32.88z"/>
</g>
</svg>
