<?xml version="1.0" encoding="utf-8"?>
<!-- Generator: Adobe Illustrator 16.0.0, SVG Export Plug-In . SVG Version: 6.00 Build 0)  -->
<!DOCTYPE svg PUBLIC "-//W3C//DTD SVG 1.1//EN" "http://www.w3.org/Graphics/SVG/1.1/DTD/svg11.dtd">
<svg version="1.1" id="Layer_1" xmlns="http://www.w3.org/2000/svg" xmlns:xlink="http://www.w3.org/1999/xlink" x="0px" y="0px"
	 width="29.026px" height="26px" viewBox="3.289 2.945 29.026 26" enable-background="new 3.289 2.945 29.026 26"
	 xml:space="preserve">
<g>
	<path fill="#222222" d="M3.289,2.945H9.42c1.235,0,3.433,0.031,4.989,1C16.11,5,16.464,6.848,16.464,7.64
		c0,2.936-1.701,3.873-2.582,4.344c-0.294,0.177-0.88,0.383-1.206,0.411c-0.323,0.03-0.47,0.117-0.47,0.352s0.178,0.323,0.764,0.498
		l0.937,0.295c2.025,0.645,3.789,2.668,3.789,5.251c0,2.67-1.438,3.961-2.113,4.432c-1.791,1.263-4.464,1.263-5.869,1.263H3.289
		V2.945z M9.159,11.78c1.171,0,2.461-0.177,3.197-0.852c0.352-0.323,1.142-1.205,1.142-2.641c0-3.052-3.227-3.052-5.37-3.052H6.077
		v6.543L9.159,11.78L9.159,11.78z M6.077,21.963h4.166c1.115,0,4.314,0,4.314-3.642c0-2.287-1.29-3.694-3.55-4.104
		c-0.058,0-1.643-0.265-4.929-0.178v7.924H6.077z"/>
	<path fill="#222222" d="M30.2,9.078h2.114v13.824c0,0.85-0.265,2.29-0.352,2.581c-0.03,0.148-0.587,1.967-2.555,2.789
		c-0.408,0.177-1.583,0.674-3.405,0.674c-0.496,0-2.084-0.06-3.608-0.472v-2.67h1.084c0.411,0.527,0.881,1.087,2.553,1.087
		c1.441,0,2.349-0.646,2.436-0.702c1.263-0.882,1.263-2.584,1.263-3.287v-2.228l-0.118-0.149c-0.203,0-0.234,0.059-0.497,0.527
		c-0.265,0.47-1.352,1.878-3.493,1.878c-1.995,0-3.314-1.29-4.05-2.759c-0.821-1.646-0.88-3.375-0.88-4.96
		c0-3.668,2.201-6.426,4.873-6.426c2.348,0,3.347,1.232,3.96,2.406c0.235,0.411,0.235,0.469,0.411,0.558
		c0.12-0.058,0.264-0.117,0.264-0.381L30.2,9.078L30.2,9.078z M29.849,15.857c0-3.583-1.612-5.106-3.491-5.106
		c-3.052,0-3.052,4.166-3.052,5.518c0,0.969,0.235,4.518,3.021,4.518C27.324,20.787,29.849,20.084,29.849,15.857z"/>
</g>
</svg>
