<?xml version="1.0" encoding="utf-8"?>
<!-- Generator: Adobe Illustrator 16.0.0, SVG Export Plug-In . SVG Version: 6.00 Build 0)  -->
<!DOCTYPE svg PUBLIC "-//W3C//DTD SVG 1.1//EN" "http://www.w3.org/Graphics/SVG/1.1/DTD/svg11.dtd">
<svg version="1.1" id="Layer_1" xmlns="http://www.w3.org/2000/svg" xmlns:xlink="http://www.w3.org/1999/xlink" x="0px" y="0px"
	 width="35.602px" height="31.893px" viewBox="0 0 35.602 31.893" enable-background="new 0 0 35.602 31.893" xml:space="preserve">
<g>
	<path fill="#222222" d="M0,0h7.521c1.514,0,4.211,0.036,6.119,1.225c2.087,1.296,2.521,3.562,2.521,4.534
		c0,3.601-2.088,4.751-3.168,5.328c-0.36,0.216-1.08,0.469-1.478,0.504c-0.396,0.036-0.576,0.145-0.576,0.433
		s0.218,0.396,0.938,0.611l1.15,0.36c2.483,0.792,4.646,3.274,4.646,6.442c0,3.274-1.764,4.858-2.592,5.436
		c-2.196,1.548-5.474,1.548-7.199,1.548H0V0z M7.199,10.835c1.438,0,3.021-0.216,3.923-1.044c0.432-0.396,1.402-1.477,1.402-3.24
		c0-3.743-3.959-3.743-6.587-3.743H3.42v8.026L7.199,10.835L7.199,10.835z M3.42,23.325H8.53c1.368,0,5.291,0,5.291-4.464
		c0-2.808-1.583-4.535-4.354-5.039c-0.072,0-2.016-0.324-6.047-0.217V23.325z"/>
	<path fill="#222222" d="M33.011,7.523h2.591v16.954c0,1.044-0.323,2.809-0.432,3.167c-0.036,0.181-0.72,2.412-3.132,3.42
		c-0.504,0.217-1.943,0.828-4.177,0.828c-0.61,0-2.556-0.072-4.428-0.576V28.04h1.332c0.504,0.647,1.08,1.332,3.131,1.332
		c1.767,0,2.88-0.792,2.988-0.864c1.548-1.08,1.548-3.168,1.548-4.031v-2.734l-0.145-0.181c-0.252,0-0.288,0.071-0.611,0.647
		c-0.324,0.576-1.656,2.305-4.284,2.305c-2.447,0-4.065-1.584-4.967-3.385c-1.008-2.017-1.08-4.139-1.08-6.083
		c0-4.5,2.7-7.883,5.978-7.883c2.879,0,4.104,1.512,4.857,2.952c0.288,0.504,0.288,0.575,0.504,0.684
		c0.146-0.071,0.324-0.144,0.324-0.468L33.011,7.523L33.011,7.523z M32.579,15.838c0-4.393-1.979-6.263-4.283-6.263
		c-3.743,0-3.743,5.11-3.743,6.767c0,1.188,0.287,5.543,3.707,5.543C29.483,21.885,32.579,21.021,32.579,15.838z"/>
</g>
</svg>
