<?xml version="1.0" encoding="utf-8"?>
<!-- Generator: Adobe Illustrator 16.0.0, SVG Export Plug-In . SVG Version: 6.00 Build 0)  -->
<!DOCTYPE svg PUBLIC "-//W3C//DTD SVG 1.1//EN" "http://www.w3.org/Graphics/SVG/1.1/DTD/svg11.dtd">
<svg version="1.1" id="Layer_1" xmlns="http://www.w3.org/2000/svg" xmlns:xlink="http://www.w3.org/1999/xlink" x="0px" y="0px"
	 width="30.364px" height="26px" viewBox="-1.142 -0.979 30.364 26" enable-background="new -1.142 -0.979 30.364 26"
	 xml:space="preserve">
<g>
	<path fill="#222222" d="M3.956-0.979c6.228,0,9.069,1.946,9.069,6.15c0,2.685-1.596,4.788-4.32,5.489v0.311
		c3.502,1.012,5.294,3.27,5.294,6.462c0,4.711-3.154,7.008-9.498,7.008h-5.643v-25.42H3.956z M1.739,10.038
		c0.74,0.039,1.4,0.078,2.025,0.078c4.242,0,6.266-1.324,6.266-4.477c0-3.035-2.024-4.517-6.15-4.517
		c-0.623,0-1.363,0.041-2.14,0.117V10.038z M1.739,22.103c0.895,0.079,1.672,0.079,2.413,0.079c4.749,0,6.966-1.325,6.966-4.711
		c0-3.501-2.413-5.252-7.318-5.252c-0.623,0-1.322,0.039-2.063,0.078L1.739,22.103L1.739,22.103z"/>
	<path fill="#222222" d="M27.393,10.038c-0.663-1.714-1.713-2.919-3.311-2.919c-2.335,0-3.935,2.763-3.935,7.94
		c0,5.06,1.558,7.822,3.935,7.822c1.556,0,2.569-0.972,3.229-2.919h1.91v2.687c-1.519,1.635-3.114,2.373-5.101,2.373
		c-4.166,0-6.812-3.624-6.812-9.928c0-6.46,2.648-10.12,6.812-10.12c1.79,0,3.465,0.778,5.101,2.335v2.726L27.393,10.038
		L27.393,10.038z"/>
</g>
</svg>
