<?xml version="1.0" encoding="utf-8"?>
<!-- Generator: Adobe Illustrator 16.0.0, SVG Export Plug-In . SVG Version: 6.00 Build 0)  -->
<!DOCTYPE svg PUBLIC "-//W3C//DTD SVG 1.1//EN" "http://www.w3.org/Graphics/SVG/1.1/DTD/svg11.dtd">
<svg version="1.1" id="Layer_1" xmlns="http://www.w3.org/2000/svg" xmlns:xlink="http://www.w3.org/1999/xlink" x="0px" y="0px"
	 width="28.079px" height="24.045px" viewBox="0 0 28.079 24.045" enable-background="new 0 0 28.079 24.045" xml:space="preserve">
<g>
	<path fill="#222222" d="M4.715,0c5.759,0,8.387,1.8,8.387,5.687c0,2.484-1.476,4.428-3.996,5.076v0.288
		c3.24,0.936,4.896,3.024,4.896,5.976c0,4.355-2.916,6.479-8.783,6.479H0V0H4.715z M2.664,10.187
		c0.684,0.036,1.296,0.072,1.872,0.072c3.923,0,5.795-1.224,5.795-4.139c0-2.808-1.872-4.176-5.688-4.176
		c-0.576,0-1.26,0.036-1.979,0.108V10.187z M2.664,21.345c0.828,0.072,1.548,0.072,2.231,0.072c4.392,0,6.443-1.225,6.443-4.355
		c0-3.237-2.232-4.857-6.767-4.857c-0.576,0-1.224,0.036-1.908,0.072L2.664,21.345L2.664,21.345z"/>
	<path fill="#222222" d="M26.387,10.187c-0.612-1.584-1.584-2.7-3.061-2.7c-2.16,0-3.637,2.556-3.637,7.343
		c0,4.679,1.439,7.235,3.637,7.235c1.439,0,2.375-0.9,2.987-2.7h1.765v2.483c-1.404,1.512-2.879,2.195-4.716,2.195
		c-3.852,0-6.299-3.348-6.299-9.179c0-5.975,2.448-9.358,6.299-9.358c1.656,0,3.204,0.72,4.716,2.16v2.52H26.387L26.387,10.187z"/>
</g>
</svg>
