<?xml version="1.0" encoding="utf-8"?>
<!-- Generator: Adobe Illustrator 16.0.0, SVG Export Plug-In . SVG Version: 6.00 Build 0)  -->
<!DOCTYPE svg PUBLIC "-//W3C//DTD SVG 1.1//EN" "http://www.w3.org/Graphics/SVG/1.1/DTD/svg11.dtd">
<svg version="1.1" id="Layer_1" xmlns="http://www.w3.org/2000/svg" xmlns:xlink="http://www.w3.org/1999/xlink" x="0px" y="0px"
	 width="28.079px" height="24.045px" viewBox="0 0 28.079 24.045" enable-background="new 0 0 28.079 24.045" xml:space="preserve">
<g>
	<path d="M4.715,0c5.759,0,8.387,1.8,8.387,5.687c0,2.484-1.476,4.428-3.996,5.076v0.288c3.24,0.936,4.896,3.024,4.896,5.976
		c0,4.355-2.916,6.479-8.783,6.479H0V0H4.715z M2.664,10.187c0.684,0.036,1.296,0.072,1.872,0.072c3.923,0,5.795-1.224,5.795-4.139
		c0-2.808-1.872-4.176-5.688-4.176c-0.576,0-1.26,0.036-1.979,0.108V10.187z M2.664,21.345c0.828,0.072,1.548,0.072,2.231,0.072
		c4.392,0,6.443-1.224,6.443-4.355c0-3.239-2.232-4.859-6.767-4.859c-0.576,0-1.224,0.036-1.908,0.072V21.345z"/>
	<path d="M26.387,10.187c-0.612-1.584-1.584-2.7-3.06-2.7c-2.16,0-3.636,2.556-3.636,7.343c0,4.679,1.44,7.235,3.636,7.235
		c1.44,0,2.375-0.9,2.988-2.7h1.764v2.484c-1.404,1.512-2.88,2.196-4.715,2.196c-3.852,0-6.299-3.348-6.299-9.179
		c0-5.975,2.448-9.358,6.299-9.358c1.656,0,3.204,0.72,4.715,2.16v2.52H26.387z"/>
</g>
</svg>
