<?xml version="1.0" encoding="utf-8"?>
<!-- Generator: Adobe Illustrator 16.0.0, SVG Export Plug-In . SVG Version: 6.00 Build 0)  -->
<!DOCTYPE svg PUBLIC "-//W3C//DTD SVG 1.1 Tiny//EN" "http://www.w3.org/Graphics/SVG/1.1/DTD/svg11-tiny.dtd">
<svg version="1.1" baseProfile="tiny" id="Layer_1" xmlns="http://www.w3.org/2000/svg" xmlns:xlink="http://www.w3.org/1999/xlink"
	 x="0px" y="0px" width="35.602px" height="31.892px" viewBox="0 0 35.602 31.892" xml:space="preserve">
<g>
	<path d="M0,0h7.523c1.512,0,4.211,0.036,6.119,1.224c2.087,1.296,2.52,3.563,2.52,4.535c0,3.6-2.088,4.751-3.168,5.328
		c-0.36,0.216-1.08,0.468-1.476,0.504s-0.576,0.144-0.576,0.432c0,0.288,0.216,0.396,0.936,0.612l1.152,0.36
		c2.483,0.792,4.644,3.275,4.644,6.443c0,3.275-1.764,4.859-2.592,5.435c-2.196,1.548-5.472,1.548-7.199,1.548H0V0z M7.199,10.835
		c1.44,0,3.023-0.216,3.923-1.044c0.432-0.396,1.404-1.476,1.404-3.24c0-3.744-3.959-3.744-6.587-3.744H3.42v8.027H7.199z
		 M3.42,23.325h5.111c1.368,0,5.291,0,5.291-4.463c0-2.808-1.583-4.536-4.355-5.04c-0.072,0-2.016-0.324-6.047-0.216V23.325z"/>
	<path d="M33.011,7.523h2.591v16.954c0,1.044-0.323,2.808-0.432,3.167c-0.036,0.18-0.72,2.412-3.132,3.42
		c-0.504,0.216-1.943,0.828-4.175,0.828c-0.612,0-2.556-0.072-4.428-0.576v-3.276h1.332c0.504,0.648,1.08,1.332,3.131,1.332
		c1.765,0,2.88-0.792,2.988-0.864c1.548-1.08,1.548-3.168,1.548-4.032v-2.735l-0.145-0.18c-0.252,0-0.288,0.072-0.611,0.648
		c-0.324,0.576-1.656,2.304-4.284,2.304c-2.447,0-4.067-1.584-4.967-3.384c-1.008-2.016-1.08-4.139-1.08-6.083
		c0-4.5,2.7-7.883,5.976-7.883c2.879,0,4.104,1.512,4.859,2.952c0.288,0.504,0.288,0.576,0.504,0.684
		c0.144-0.072,0.324-0.144,0.324-0.468V7.523z M32.579,15.838c0-4.392-1.979-6.263-4.283-6.263c-3.743,0-3.743,5.111-3.743,6.767
		c0,1.188,0.287,5.543,3.707,5.543C29.483,21.885,32.579,21.021,32.579,15.838z"/>
</g>
</svg>
