<?xml version="1.0" encoding="utf-8"?>
<!-- Generator: Adobe Illustrator 16.0.0, SVG Export Plug-In . SVG Version: 6.00 Build 0)  -->
<!DOCTYPE svg PUBLIC "-//W3C//DTD SVG 1.1//EN" "http://www.w3.org/Graphics/SVG/1.1/DTD/svg11.dtd">
<svg version="1.1" id="Layer_1" xmlns="http://www.w3.org/2000/svg" xmlns:xlink="http://www.w3.org/1999/xlink" x="0px" y="0px"
	 width="37.475px" height="23.146px" viewBox="0 0 37.475 23.146" enable-background="new 0 0 37.475 23.146" xml:space="preserve">
<g>
	<path fill="#222222" d="M4.355,4.14c0-2.054-0.252-3.133-2.771-3.133h-1.26V0.324c1.008-0.036,3.491-0.18,4.535-0.216
		C6.839,0.036,9.575,0,10.259,0c3.167,0,5.939,0.468,7.235,1.404c1.477,1.043,2.195,2.268,2.195,3.995
		c0,2.052-1.691,3.959-4.104,4.392v0.072c3.385,1.008,5.363,3.204,5.363,6.011c0,2.844-1.979,6.839-7.775,6.839H0v-0.684h0.828
		c2.95,0,3.526-0.686,3.526-2.952V4.14z M7.343,9.683h3.924c3.456,0,5.184-1.368,5.184-4.178c0-2.52-1.513-4.821-5.939-4.821
		c-0.792,0-2.268,0.07-3.167,0.106L7.343,9.683L7.343,9.683z M7.343,18.034c0,2.735,1.08,3.708,4.104,3.708
		c4.752,0,6.119-2.952,6.119-5.759c0-2.772-2.124-5.616-6.335-5.616H7.343V18.034z"/>
	<path fill="#222222" d="M26.963,13.57c-0.071,0.54-0.145,1.044-0.145,1.512c0,3.743,2.628,6.263,5.472,6.263
		c1.8,0,3.204-0.72,4.571-2.34l0.396,0.434c-1.512,1.906-3.779,3.708-6.406,3.708c-3.527,0-6.265-3.204-6.265-7.379
		c0-3.815,2.557-7.703,6.947-7.703c4.858,0,4.751,3.492,5.938,4.68v0.828L26.963,13.57L26.963,13.57z M34.45,12.635
		c-0.396-2.34-1.835-3.888-3.562-3.888c-1.188,0-2.987,0.54-3.814,3.888H34.45z"/>
</g>
</svg>
