<?xml version="1.0" encoding="utf-8"?>
<!-- Generator: Adobe Illustrator 16.0.0, SVG Export Plug-In . SVG Version: 6.00 Build 0)  -->
<!DOCTYPE svg PUBLIC "-//W3C//DTD SVG 1.1//EN" "http://www.w3.org/Graphics/SVG/1.1/DTD/svg11.dtd">
<svg version="1.1" id="Layer_1" xmlns="http://www.w3.org/2000/svg" xmlns:xlink="http://www.w3.org/1999/xlink" x="0px" y="0px"
	 width="37.474px" height="23.146px" viewBox="0 0 37.474 23.146" enable-background="new 0 0 37.474 23.146" xml:space="preserve">
<g>
	<path d="M4.355,4.14c0-2.052-0.252-3.131-2.771-3.131h-1.26V0.324c1.008-0.036,3.492-0.18,4.536-0.216
		C6.839,0.036,9.575,0,10.259,0c3.167,0,5.939,0.468,7.235,1.404c1.476,1.043,2.196,2.268,2.196,3.995
		c0,2.052-1.692,3.959-4.104,4.392v0.072c3.384,1.008,5.363,3.204,5.363,6.011c0,2.844-1.979,6.839-7.775,6.839H0v-0.684h0.828
		c2.951,0,3.527-0.684,3.527-2.952V4.14z M7.343,9.683h3.923c3.456,0,5.183-1.368,5.183-4.176c0-2.52-1.512-4.823-5.939-4.823
		c-0.792,0-2.268,0.072-3.167,0.108V9.683z M7.343,18.034c0,2.735,1.08,3.708,4.104,3.708c4.751,0,6.119-2.952,6.119-5.759
		c0-2.772-2.124-5.616-6.335-5.616H7.343V18.034z"/>
	<path d="M26.963,13.57c-0.072,0.54-0.144,1.044-0.144,1.512c0,3.743,2.628,6.263,5.471,6.263c1.8,0,3.204-0.72,4.572-2.34
		l0.396,0.432c-1.512,1.908-3.78,3.708-6.407,3.708c-3.528,0-6.264-3.204-6.264-7.379c0-3.815,2.556-7.703,6.947-7.703
		c4.859,0,4.751,3.492,5.939,4.68v0.828H26.963z M34.45,12.635c-0.396-2.34-1.835-3.888-3.563-3.888
		c-1.188,0-2.987,0.54-3.815,3.888H34.45z"/>
</g>
</svg>
