<?xml version="1.0" encoding="utf-8"?>
<!-- Generator: Adobe Illustrator 16.0.0, SVG Export Plug-In . SVG Version: 6.00 Build 0)  -->
<!DOCTYPE svg PUBLIC "-//W3C//DTD SVG 1.1//EN" "http://www.w3.org/Graphics/SVG/1.1/DTD/svg11.dtd">
<svg version="1.1" id="Layer_1" xmlns="http://www.w3.org/2000/svg" xmlns:xlink="http://www.w3.org/1999/xlink" x="0px" y="0px"
	 width="42.085px" height="26px" viewBox="-2.306 -1.426 42.085 26" enable-background="new -2.306 -1.426 42.085 26"
	 xml:space="preserve">
<g>
	<path fill="#222222" d="M2.583,3.225c0-2.308-0.284-3.521-3.113-3.521h-1.413v-0.766c1.131-0.041,3.919-0.202,5.093-0.244
		c2.224-0.082,5.298-0.121,6.066-0.121c3.557,0,6.672,0.525,8.125,1.577c1.659,1.172,2.465,2.547,2.465,4.487
		c0,2.304-1.899,4.447-4.608,4.933v0.081c3.802,1.132,6.024,3.599,6.024,6.752c0,3.194-2.222,7.681-8.734,7.681H-2.306v-0.767h0.929
		c3.313,0,3.959-0.773,3.959-3.318L2.583,3.225L2.583,3.225z M5.939,9.451h4.407c3.882,0,5.823-1.537,5.823-4.694
		c0-2.831-1.7-5.416-6.671-5.416c-0.889,0-2.547,0.078-3.558,0.119L5.939,9.451L5.939,9.451z M5.939,18.829
		c0,3.074,1.214,4.167,4.61,4.167c5.338,0,6.872-3.316,6.872-6.469c0-3.114-2.386-6.308-7.115-6.308H5.939V18.829z"/>
	<path fill="#222222" d="M27.977,13.817c-0.08,0.605-0.162,1.172-0.162,1.697c0,4.204,2.951,7.034,6.146,7.034
		c2.021,0,3.599-0.809,5.133-2.628l0.447,0.487c-1.699,2.141-4.245,4.166-7.198,4.166c-3.958,0-7.035-3.6-7.035-8.288
		c0-4.286,2.87-8.652,7.804-8.652c5.455,0,5.336,3.922,6.667,5.256v0.929L27.977,13.817L27.977,13.817z M36.387,12.766
		c-0.445-2.628-2.062-4.367-4.001-4.367c-1.333,0-3.356,0.607-4.282,4.367H36.387z"/>
</g>
</svg>
