<?xml version="1.0" encoding="utf-8"?>
<!-- Generator: Adobe Illustrator 16.0.0, SVG Export Plug-In . SVG Version: 6.00 Build 0)  -->
<!DOCTYPE svg PUBLIC "-//W3C//DTD SVG 1.1//EN" "http://www.w3.org/Graphics/SVG/1.1/DTD/svg11.dtd">
<svg version="1.1" id="Layer_1" xmlns="http://www.w3.org/2000/svg" xmlns:xlink="http://www.w3.org/1999/xlink" x="0px" y="0px"
	 width="32.764px" height="25.093px" viewBox="0 0 32.764 25.093" enable-background="new 0 0 32.764 25.093" xml:space="preserve">
<g>
	<path fill="#222222" d="M21.712,17.208c0,2.545-0.78,4.439-2.34,5.688c-1.729,1.395-4.479,2.088-8.244,2.088
		c-0.288,0-0.863,0.014-1.729,0.036c-0.863,0.022-1.597,0.036-2.194,0.036c-2.4,0-4.729-0.204-6.983-0.612
		c-0.145-0.096-0.217-0.274-0.217-0.54c-0.023-0.264,0.048-0.468,0.217-0.611c0.863-0.19,1.332-0.299,1.403-0.324
		c0.479-0.143,0.84-0.336,1.08-0.575c0-10.392-0.072-17.148-0.218-20.268C2.032,1.669,1.276,1.333,0.221,1.117
		C0.1,1.069,0.04,0.937,0.04,0.721C0.016,0.529,0.076,0.41,0.221,0.361c1.679-0.24,2.892-0.36,3.636-0.36H11.2
		c2.424-0.023,4.392,0.517,5.902,1.62c1.368,1.008,2.052,2.245,2.052,3.708c0,2.712-1.512,4.333-4.534,4.86
		c-0.218,0.048-0.324,0.121-0.324,0.216c0,0.072,0.12,0.144,0.358,0.216C19.36,12.061,21.712,14.257,21.712,17.208z M17.933,17.029
		c0-2.904-1.921-5.004-5.761-6.3c-0.146-0.048-0.216-0.12-0.216-0.216c-0.024-0.096,0.048-0.167,0.216-0.216
		c1.104-0.312,1.968-0.852,2.593-1.62c0.552-0.72,0.827-1.524,0.827-2.412c0-1.32-0.516-2.49-1.548-3.51s-2.27-1.506-3.708-1.458
		c-2.16,0.072-3.576,0.312-4.248,0.72C6.064,3.025,6.04,4.693,6.017,7.021l0.216,15.156c0.624,0.504,1.346,0.828,2.16,0.972
		c0.576,0.097,1.562,0.144,2.952,0.144c2.184,0,3.852-0.588,5.004-1.764C17.404,20.449,17.933,18.951,17.933,17.029z"/>
	<path fill="#222222" d="M32.764,19.225c0,1.2-0.336,2.196-1.008,2.987c-0.456,0.554-1.128,1.129-2.016,1.729
		c-1.131,0.768-2.09,1.152-2.883,1.152c-1.104,0-1.92-0.288-2.445-0.864c-0.576-0.671-0.864-1.776-0.864-3.312
		c0-1.873,0.468-3.434,1.404-4.682c1.08-1.439,2.592-2.158,4.534-2.158c1.079,0,1.934,0.694,2.558,2.088
		C32.523,17.222,32.764,18.242,32.764,19.225z M30.28,19.658c0-0.625-0.322-1.453-0.973-2.484c-0.646-1.031-1.236-1.549-1.764-1.549
		c-1.129,0-1.692,0.807-1.692,2.412c0,1.032,0.204,1.98,0.612,2.844c0.527,1.129,1.283,1.693,2.268,1.693
		C29.764,22.574,30.28,21.601,30.28,19.658z"/>
</g>
</svg>
