<?xml version="1.0" encoding="utf-8"?>
<!-- Generator: Adobe Illustrator 16.0.0, SVG Export Plug-In . SVG Version: 6.00 Build 0)  -->
<!DOCTYPE svg PUBLIC "-//W3C//DTD SVG 1.1//EN" "http://www.w3.org/Graphics/SVG/1.1/DTD/svg11.dtd">
<svg version="1.1" id="Layer_1" xmlns="http://www.w3.org/2000/svg" xmlns:xlink="http://www.w3.org/1999/xlink" x="0px" y="0px"
	 width="32.764px" height="25.093px" viewBox="0 0 32.764 25.093" enable-background="new 0 0 32.764 25.093" xml:space="preserve">
<g>
	<path d="M21.712,17.209c0,2.544-0.78,4.44-2.34,5.688c-1.728,1.393-4.477,2.088-8.244,2.088c-0.288,0-0.863,0.012-1.728,0.036
		s-1.597,0.036-2.196,0.036c-2.4,0-4.729-0.204-6.983-0.612c-0.145-0.096-0.217-0.276-0.217-0.54
		c-0.023-0.264,0.048-0.468,0.217-0.612c0.863-0.191,1.332-0.3,1.403-0.324c0.48-0.144,0.84-0.336,1.08-0.576
		c0-10.392-0.072-17.148-0.216-20.268C2.032,1.669,1.276,1.333,0.221,1.117C0.1,1.069,0.04,0.937,0.04,0.721
		C0.016,0.529,0.076,0.41,0.221,0.361c1.679-0.24,2.892-0.36,3.636-0.36H11.2c2.424-0.023,4.392,0.517,5.904,1.62
		c1.368,1.008,2.052,2.245,2.052,3.708c0,2.712-1.512,4.333-4.536,4.86c-0.216,0.048-0.324,0.121-0.324,0.216
		c0,0.072,0.12,0.144,0.36,0.216C19.36,12.061,21.712,14.257,21.712,17.209z M17.933,17.029c0-2.904-1.921-5.004-5.761-6.3
		c-0.144-0.048-0.216-0.12-0.216-0.216c-0.024-0.096,0.048-0.167,0.216-0.216c1.104-0.312,1.968-0.852,2.593-1.62
		c0.552-0.72,0.827-1.524,0.827-2.412c0-1.32-0.516-2.49-1.548-3.51s-2.268-1.506-3.708-1.458c-2.16,0.072-3.576,0.312-4.248,0.72
		C6.064,3.025,6.04,4.693,6.017,7.021l0.216,15.156c0.624,0.504,1.344,0.828,2.16,0.972c0.576,0.096,1.56,0.144,2.952,0.144
		c2.184,0,3.852-0.588,5.004-1.764C17.404,20.449,17.933,18.95,17.933,17.029z"/>
	<path d="M32.764,19.225c0,1.2-0.336,2.196-1.008,2.988c-0.456,0.553-1.128,1.128-2.016,1.728c-1.129,0.768-2.088,1.152-2.881,1.152
		c-1.104,0-1.92-0.288-2.447-0.864c-0.576-0.671-0.864-1.776-0.864-3.312c0-1.872,0.468-3.432,1.404-4.68
		c1.08-1.44,2.592-2.16,4.536-2.16c1.079,0,1.932,0.696,2.556,2.088C32.523,17.222,32.764,18.241,32.764,19.225z M30.28,19.657
		c0-0.624-0.324-1.452-0.973-2.484c-0.647-1.032-1.236-1.548-1.764-1.548c-1.129,0-1.692,0.805-1.692,2.412
		c0,1.032,0.204,1.98,0.612,2.844c0.527,1.128,1.283,1.692,2.268,1.692C29.764,22.573,30.28,21.601,30.28,19.657z"/>
</g>
</svg>
