<?xml version="1.0" encoding="utf-8"?>
<!-- Generator: Adobe Illustrator 16.0.0, SVG Export Plug-In . SVG Version: 6.00 Build 0)  -->
<!DOCTYPE svg PUBLIC "-//W3C//DTD SVG 1.1//EN" "http://www.w3.org/Graphics/SVG/1.1/DTD/svg11.dtd">
<svg version="1.1" id="Layer_1" xmlns="http://www.w3.org/2000/svg" xmlns:xlink="http://www.w3.org/1999/xlink" x="0px" y="0px"
	 width="33.946px" height="26px" viewBox="-0.59 -0.454 33.946 26" enable-background="new -0.59 -0.454 33.946 26"
	 xml:space="preserve">
<g>
	<path fill="#222222" d="M21.904,17.376c0,2.638-0.809,4.6-2.424,5.892c-1.792,1.447-4.642,2.165-8.542,2.165
		c-0.299,0-0.895,0.016-1.792,0.038c-0.894,0.022-1.654,0.036-2.273,0.036c-2.487,0-4.899-0.212-7.235-0.634
		c-0.149-0.099-0.224-0.285-0.224-0.56c-0.024-0.273,0.049-0.485,0.224-0.634c0.895-0.196,1.379-0.31,1.455-0.336
		c0.496-0.148,0.87-0.349,1.118-0.597c0-10.767-0.073-17.766-0.225-20.998C1.515,1.276,0.73,0.927-0.363,0.705
		C-0.488,0.654-0.55,0.517-0.55,0.293C-0.575,0.094-0.512-0.029-0.363-0.08c1.739-0.25,2.998-0.374,3.768-0.374h7.609
		c2.51-0.023,4.55,0.536,6.114,1.678c1.418,1.044,2.125,2.326,2.125,3.841c0,2.81-1.565,4.49-4.697,5.036
		c-0.225,0.049-0.335,0.126-0.335,0.223c0,0.075,0.124,0.149,0.37,0.225C19.467,12.043,21.904,14.32,21.904,17.376z M17.988,17.191
		c0-3.009-1.99-5.186-5.967-6.527c-0.152-0.05-0.224-0.125-0.224-0.225c-0.025-0.1,0.05-0.173,0.224-0.225
		c1.143-0.323,2.039-0.883,2.687-1.678c0.572-0.746,0.857-1.58,0.857-2.499c0-1.368-0.534-2.58-1.603-3.638
		c-1.069-1.056-2.353-1.56-3.841-1.51c-2.24,0.074-3.707,0.322-4.403,0.746C5.692,2.681,5.667,4.41,5.643,6.82l0.224,15.704
		c0.647,0.522,1.396,0.857,2.238,1.008c0.597,0.1,1.618,0.149,3.059,0.149c2.262,0,3.99-0.608,5.184-1.827
		C17.44,20.733,17.988,19.183,17.988,17.191z"/>
	<path fill="#222222" d="M33.356,19.466c0,1.244-0.349,2.276-1.046,3.097c-0.473,0.57-1.168,1.169-2.088,1.789
		c-1.173,0.794-2.167,1.194-2.987,1.194c-1.146,0-1.989-0.298-2.533-0.895c-0.596-0.697-0.895-1.841-0.895-3.432
		c0-1.941,0.485-3.559,1.455-4.852c1.118-1.491,2.686-2.235,4.697-2.235c1.117,0,2.004,0.719,2.65,2.163
		C33.105,17.39,33.356,18.447,33.356,19.466z M30.781,19.914c0-0.647-0.332-1.506-1.008-2.575c-0.668-1.065-1.28-1.604-1.827-1.604
		c-1.171,0-1.754,0.837-1.754,2.5c0,1.068,0.211,2.053,0.634,2.945c0.547,1.172,1.331,1.755,2.35,1.755
		C30.248,22.936,30.781,21.928,30.781,19.914z"/>
</g>
</svg>
