<?xml version="1.0" encoding="utf-8"?>
<!-- Generator: Adobe Illustrator 16.0.0, SVG Export Plug-In . SVG Version: 6.00 Build 0)  -->
<!DOCTYPE svg PUBLIC "-//W3C//DTD SVG 1.1//EN" "http://www.w3.org/Graphics/SVG/1.1/DTD/svg11.dtd">
<svg version="1.1" id="Layer_1" xmlns="http://www.w3.org/2000/svg" xmlns:xlink="http://www.w3.org/1999/xlink" x="0px" y="0px"
	 width="30.829px" height="17.961px" viewBox="0 0 30.829 17.961" enable-background="new 0 0 30.829 17.961" xml:space="preserve">
<g>
	<path d="M11.59,15.802c0-1.152,1.151-2.016,2.231-2.016c0.612,0,1.116,0.288,1.116,0.864c0,0.576-0.504,0.864-0.936,1.044
		c-0.36,0.144-0.792,0.324-0.864,0.72c-0.108,0.612,0.72,0.864,1.368,0.864c2.339,0,5.039-2.556,5.183-5.507
		c0.108-1.764-1.403-2.34-2.087-2.268c-0.433,0.072-0.54,0.108-0.937,0.108c-0.468,0.036-1.008-0.072-0.972-0.288
		c0.072-0.252,0.612-0.324,0.972-0.288c0.468,0,0.756,0.072,1.08,0.108c1.548-0.216,3.168-1.62,3.563-3.275
		c0.288-1.152,0.036-2.052-0.792-2.556c-0.288,0.288-0.576,0.54-0.828,0.864c-1.296,1.368-2.627,3.023-4.463,5.507
		c-3.348,4.5-7.235,8.279-11.411,8.279C1.583,17.961,0,17.206,0,15.226c0-2.088,1.656-5.111,5.939-8.243
		c4.104-2.988,9.071-4.392,12.814-4.392c0.504,0,0.972,0.036,1.404,0.108c1.26-0.9,2.447-1.548,3.455-1.944
		C24.657,0.324,25.953,0,27.176,0c1.152,0,2.231,0.36,2.592,0.972c0.108,0.18,0.072,0.288,0,0.324
		c-0.144,0.036-0.144-0.072-0.252-0.18c-0.396-0.468-1.224-0.828-2.304-0.828c-1.044,0-2.304,0.288-3.384,0.792
		C23,1.439,21.993,2.087,20.985,2.916c1.332,0.504,2.232,1.476,1.98,2.952c-0.36,1.979-2.844,3.167-4.572,3.419v0.036
		c2.196,0.36,3.24,1.62,3.168,3.096c-0.144,3.023-3.42,5.147-7.055,5.147C13.138,17.565,11.59,17.17,11.59,15.802z M3.815,17.638
		c3.312,0,5.58-3.312,8.352-6.947c2.34-3.06,4.967-5.615,6.659-6.983c0.288-0.252,0.611-0.468,0.899-0.684
		c-0.324-0.072-0.72-0.108-1.151-0.108c-3.456,0-8.171,1.404-11.986,4.319c-3.924,3.024-5.111,6.155-5.111,8.027
		C1.476,16.666,2.232,17.638,3.815,17.638z"/>
	<path d="M22.032,16.558c0-0.468,0.252-0.936,0.54-1.368c0.72-1.116,1.764-2.196,2.7-3.131c0.684-0.684,0.936-0.9,1.655-0.864
		c0.756-0.036,0.828,0.036,0.396,0.54c-0.612,0.72-1.188,1.44-1.908,2.304c-0.611,0.756-1.08,1.404-1.296,1.764
		c-0.216,0.396-0.252,0.684-0.107,0.792c0.18,0.216,0.54,0.036,0.863-0.108c0.396-0.18,1.044-0.648,1.584-1.116
		c0.756-0.612,1.332-1.08,1.728-1.476c0.181-0.108,0.396-0.324,0.504-0.216c0.108,0.108-0.18,0.36-0.287,0.468
		c-0.433,0.432-1.477,1.368-2.16,1.872c-0.72,0.576-1.943,1.476-3.132,1.476C22.356,17.494,21.997,17.098,22.032,16.558z
		 M30.599,7.235c-0.432,0.576-1.332,0.972-1.691,0.972c-0.181-0.216-0.217-0.756-0.036-1.224c0.252-0.54,0.756-0.684,1.403-0.684
		C30.815,6.299,31.031,6.695,30.599,7.235z"/>
</g>
</svg>
