<?xml version="1.0" encoding="utf-8"?>
<!-- Generator: Adobe Illustrator 16.0.0, SVG Export Plug-In . SVG Version: 6.00 Build 0)  -->
<!DOCTYPE svg PUBLIC "-//W3C//DTD SVG 1.1//EN" "http://www.w3.org/Graphics/SVG/1.1/DTD/svg11.dtd">
<svg version="1.1" id="Layer_1" xmlns="http://www.w3.org/2000/svg" xmlns:xlink="http://www.w3.org/1999/xlink" x="0px" y="0px"
	 width="44.624px" height="26px" viewBox="-13.796 -4.02 44.624 26" enable-background="new -13.796 -4.02 44.624 26"
	 xml:space="preserve">
<g>
	<path fill="#222222" d="M2.979,18.853c0-1.665,1.667-2.917,3.229-2.917c0.887,0,1.617,0.417,1.617,1.252s-0.729,1.25-1.354,1.512
		c-0.521,0.209-1.147,0.471-1.25,1.042c-0.157,0.885,1.042,1.251,1.98,1.251c3.385,0,7.293-3.698,7.501-7.971
		c0.157-2.554-2.031-3.387-3.021-3.283c-0.626,0.104-0.781,0.157-1.355,0.157c-0.679,0.05-1.46-0.105-1.408-0.417
		c0.104-0.367,0.887-0.47,1.408-0.417c0.676,0,1.094,0.104,1.563,0.156c2.238-0.313,4.585-2.345,5.156-4.74
		c0.417-1.667,0.051-2.972-1.146-3.701c-0.418,0.417-0.835,0.782-1.199,1.25c-1.875,1.98-3.801,4.375-6.459,7.973
		C3.395,16.513-2.232,21.98-8.277,21.98c-3.228-0.005-5.519-1.099-5.519-3.959c0-3.022,2.397-7.398,8.596-11.935
		C0.741,1.763,7.93-0.27,13.347-0.27c0.729,0,1.408,0.055,2.033,0.157c1.824-1.303,3.542-2.241,5.001-2.814
		c1.513-0.625,3.389-1.094,5.16-1.094c1.667,0,3.229,0.521,3.751,1.407c0.155,0.26,0.105,0.417,0,0.469
		c-0.207,0.053-0.207-0.104-0.362-0.259c-0.573-0.678-1.772-1.199-3.338-1.199c-1.51,0-3.334,0.417-4.896,1.146
		c-1.197,0.519-2.656,1.457-4.115,2.657c1.928,0.729,3.23,2.136,2.865,4.272c-0.521,2.867-4.115,4.587-6.616,4.95v0.052
		c3.178,0.521,4.69,2.346,4.585,4.48c-0.208,4.374-4.95,7.45-10.212,7.45C5.22,21.404,2.979,20.835,2.979,18.853z M-8.273,21.514
		c4.793,0,8.077-4.796,12.089-10.057c3.386-4.428,7.188-8.126,9.64-10.108c0.416-0.365,0.882-0.677,1.299-0.99
		c-0.468-0.104-1.042-0.156-1.665-0.156c-5.002,0-11.828,2.031-17.35,6.251c-5.68,4.376-7.398,8.912-7.398,11.619
		C-11.66,20.104-10.565,21.514-8.273,21.514z"/>
	<path fill="#222222" d="M18.094,19.949c0-0.678,0.363-1.356,0.782-1.98c1.041-1.614,2.554-3.18,3.906-4.533
		c0.99-0.989,1.354-1.302,2.396-1.249c1.095-0.053,1.196,0.051,0.571,0.78c-0.884,1.042-1.718,2.084-2.761,3.336
		c-0.887,1.095-1.562,2.032-1.876,2.553c-0.314,0.573-0.364,0.989-0.155,1.146c0.26,0.311,0.778,0.052,1.248-0.159
		c0.573-0.26,1.512-0.935,2.294-1.612c1.097-0.885,1.929-1.562,2.502-2.139c0.261-0.156,0.57-0.47,0.728-0.31
		c0.157,0.155-0.263,0.521-0.415,0.676c-0.628,0.625-2.14,1.98-3.126,2.71c-1.043,0.834-2.812,2.14-4.534,2.14
		C18.564,21.303,18.042,20.729,18.094,19.949z M30.495,6.454c-0.626,0.834-1.929,1.406-2.446,1.406
		c-0.262-0.312-0.312-1.094-0.054-1.771c0.364-0.783,1.095-0.99,2.03-0.99C30.808,5.099,31.122,5.672,30.495,6.454z"/>
</g>
</svg>
