<?xml version="1.0" encoding="utf-8"?>
<!-- Generator: Adobe Illustrator 16.0.0, SVG Export Plug-In . SVG Version: 6.00 Build 0)  -->
<!DOCTYPE svg PUBLIC "-//W3C//DTD SVG 1.1//EN" "http://www.w3.org/Graphics/SVG/1.1/DTD/svg11.dtd">
<svg version="1.1" id="Layer_1" xmlns="http://www.w3.org/2000/svg" xmlns:xlink="http://www.w3.org/1999/xlink" x="0px" y="0px"
	 width="44.626px" height="26px" viewBox="-13.797 -4.02 44.626 26" enable-background="new -13.797 -4.02 44.626 26"
	 xml:space="preserve">
<g>
	<path fill="#222222" d="M2.98,18.854c0-1.666,1.667-2.918,3.229-2.918c0.886,0,1.616,0.418,1.616,1.252s-0.729,1.25-1.355,1.511
		c-0.521,0.209-1.146,0.47-1.25,1.043c-0.157,0.885,1.042,1.25,1.98,1.25c3.386,0,7.293-3.698,7.502-7.97
		c0.156-2.555-2.03-3.388-3.021-3.284c-0.626,0.104-0.782,0.157-1.356,0.157c-0.678,0.05-1.459-0.105-1.407-0.417
		c0.104-0.366,0.886-0.469,1.408-0.417c0.676,0,1.094,0.104,1.563,0.156c2.239-0.313,4.586-2.345,5.157-4.741
		c0.417-1.668,0.051-2.971-1.147-3.7c-0.417,0.417-0.834,0.782-1.199,1.25c-1.875,1.98-3.802,4.376-6.46,7.973
		C3.395,16.512-2.232,21.98-8.277,21.98c-3.228-0.002-5.52-1.096-5.52-3.959c0-3.022,2.397-7.398,8.597-11.935
		C0.741,1.763,7.93-0.27,13.348-0.27c0.729,0,1.408,0.053,2.033,0.157c1.824-1.303,3.542-2.241,5.001-2.814
		c1.513-0.624,3.39-1.093,5.16-1.093c1.668,0,3.229,0.521,3.752,1.407c0.154,0.26,0.104,0.417,0,0.469
		c-0.209,0.052-0.209-0.104-0.364-0.26c-0.573-0.678-1.772-1.199-3.337-1.199c-1.51,0-3.333,0.417-4.896,1.146
		c-1.198,0.52-2.657,1.458-4.116,2.658c1.928,0.729,3.231,2.136,2.866,4.273c-0.522,2.866-4.116,4.586-6.618,4.95v0.052
		c3.178,0.521,4.69,2.345,4.586,4.48c-0.209,4.375-4.951,7.451-10.212,7.451C5.221,21.405,2.98,20.835,2.98,18.854z M-8.274,21.514
		c4.794,0,8.077-4.796,12.089-10.057c3.387-4.43,7.189-8.128,9.64-10.109c0.416-0.365,0.883-0.677,1.3-0.99
		c-0.469-0.104-1.043-0.156-1.665-0.156c-5.003,0-11.829,2.032-17.351,6.251c-5.68,4.377-7.398,8.911-7.398,11.619
		C-11.66,20.105-10.565,21.514-8.274,21.514z"/>
	<path fill="#222222" d="M18.095,19.949c0-0.678,0.364-1.355,0.781-1.981c1.042-1.614,2.555-3.178,3.908-4.532
		c0.99-0.989,1.354-1.302,2.396-1.249c1.095-0.053,1.197,0.051,0.572,0.78c-0.885,1.043-1.719,2.085-2.762,3.336
		c-0.885,1.094-1.562,2.032-1.875,2.553c-0.313,0.574-0.364,0.989-0.155,1.146c0.26,0.312,0.78,0.053,1.25-0.157
		c0.572-0.26,1.51-0.937,2.292-1.614c1.095-0.886,1.929-1.562,2.5-2.137c0.263-0.156,0.572-0.47,0.729-0.312
		c0.157,0.155-0.262,0.521-0.415,0.676c-0.627,0.626-2.139,1.981-3.126,2.711c-1.043,0.833-2.812,2.138-4.534,2.138
		C18.564,21.305,18.043,20.729,18.095,19.949z M30.497,6.454c-0.627,0.834-1.929,1.407-2.447,1.407
		c-0.262-0.312-0.313-1.094-0.053-1.772c0.363-0.782,1.094-0.99,2.03-0.99C30.808,5.099,31.124,5.672,30.497,6.454z"/>
</g>
</svg>
