<?xml version="1.0" encoding="utf-8"?>
<!-- Generator: Adobe Illustrator 16.0.0, SVG Export Plug-In . SVG Version: 6.00 Build 0)  -->
<!DOCTYPE svg PUBLIC "-//W3C//DTD SVG 1.1//EN" "http://www.w3.org/Graphics/SVG/1.1/DTD/svg11.dtd">
<svg version="1.1" id="Layer_1" xmlns="http://www.w3.org/2000/svg" xmlns:xlink="http://www.w3.org/1999/xlink" x="0px" y="0px"
	 width="28.568px" height="26px" viewBox="-0.244 -0.223 28.568 26" enable-background="new -0.244 -0.223 28.568 26"
	 xml:space="preserve">
<g>
	<path fill="#222222" d="M20.556,19.15c0,4.541-2.929,6.592-10.401,6.592H1.879c-1.537,0-2.124-0.66-2.124-2.415V3.477
		c0-1.392,0.659-2.124,1.979-2.124h9.961c5.128,0,7.911,1.905,7.911,5.713c0,3.955-3.004,4.028-3.004,5.787
		C16.602,14.976,20.556,14.683,20.556,19.15z M4.37,8.092c0,2.266,1.172,3.441,3.516,3.441h2.27c2.637,0,4.47-1.464,4.47-3.517
		c0-1.832-1.467-3.442-4.249-3.442H7.449C5.395,4.576,4.37,5.748,4.37,8.092z M4.443,18.639c0,2.71,0.879,3.881,3.516,3.881h2.491
		c2.93,0,5.125-1.611,5.125-4.029c0-1.974-1.316-3.736-4.539-3.736H7.519C5.467,14.756,4.443,15.928,4.443,18.639z"/>
	<path fill="#222222" d="M28.324,2.488v20.947c0,1.537-0.879,2.342-2.709,2.342c-2.197,0-3.005-0.805-3.005-2.71V2.121
		c0-1.317,0.881-2.344,2.197-2.344h1.172C27.518-0.223,28.324,0.657,28.324,2.488z"/>
</g>
</svg>
