<?xml version="1.0" encoding="utf-8"?>
<!-- Generator: Adobe Illustrator 16.0.0, SVG Export Plug-In . SVG Version: 6.00 Build 0)  -->
<!DOCTYPE svg PUBLIC "-//W3C//DTD SVG 1.1//EN" "http://www.w3.org/Graphics/SVG/1.1/DTD/svg11.dtd">
<svg version="1.1" id="Layer_1" xmlns="http://www.w3.org/2000/svg" xmlns:xlink="http://www.w3.org/1999/xlink" x="0px" y="0px"
	 width="28.079px" height="25.557px" viewBox="0 0 28.079 25.557" enable-background="new 0 0 28.079 25.557" xml:space="preserve">
<g>
	<path d="M20.445,19.042c0,4.463-2.88,6.479-10.223,6.479H2.088C0.576,25.521,0,24.873,0,23.146V3.636
		c0-1.368,0.648-2.088,1.944-2.088h9.791c5.04,0,7.775,1.872,7.775,5.615c0,3.888-2.952,3.959-2.952,5.688
		C16.558,14.938,20.445,14.65,20.445,19.042z M4.536,8.171c0,2.231,1.152,3.383,3.456,3.383h2.231c2.592,0,4.392-1.44,4.392-3.456
		c0-1.8-1.44-3.383-4.175-3.383h-2.88C5.543,4.716,4.536,5.868,4.536,8.171z M4.607,18.538c0,2.664,0.864,3.815,3.456,3.815h2.448
		c2.88,0,5.039-1.584,5.039-3.959c0-1.944-1.295-3.672-4.463-3.672H7.631C5.615,14.722,4.607,15.874,4.607,18.538z"/>
	<path d="M28.079,2.664v20.589c0,1.512-0.863,2.304-2.663,2.304c-2.16,0-2.952-0.792-2.952-2.664V2.304
		c0-1.295,0.864-2.304,2.16-2.304h1.151C27.287,0,28.079,0.864,28.079,2.664z"/>
</g>
</svg>
