<?xml version="1.0" encoding="utf-8"?>
<!-- Generator: Adobe Illustrator 16.0.0, SVG Export Plug-In . SVG Version: 6.00 Build 0)  -->
<!DOCTYPE svg PUBLIC "-//W3C//DTD SVG 1.1//EN" "http://www.w3.org/Graphics/SVG/1.1/DTD/svg11.dtd">
<svg version="1.1" id="Layer_1" xmlns="http://www.w3.org/2000/svg" xmlns:xlink="http://www.w3.org/1999/xlink" x="0px" y="0px"
	 width="28.079px" height="25.557px" viewBox="0 0 28.079 25.557" enable-background="new 0 0 28.079 25.557" xml:space="preserve">
<g>
	<path fill="#222222" d="M20.445,19.042c0,4.463-2.88,6.479-10.223,6.479H2.088C0.576,25.521,0,24.873,0,23.146V3.636
		c0-1.368,0.648-2.088,1.944-2.088h9.791c5.04,0,7.775,1.872,7.775,5.615c0,3.888-2.952,3.959-2.952,5.688
		C16.558,14.938,20.445,14.65,20.445,19.042z M4.536,8.171c0,2.229,1.152,3.383,3.456,3.383h2.231c2.592,0,4.393-1.438,4.393-3.456
		c0-1.8-1.441-3.383-4.176-3.383H7.56C5.543,4.716,4.536,5.868,4.536,8.171z M4.607,18.538c0,2.664,0.864,3.813,3.456,3.813h2.448
		c2.88,0,5.038-1.584,5.038-3.959c0-1.942-1.294-3.672-4.462-3.672H7.631C5.615,14.722,4.607,15.874,4.607,18.538z"/>
	<path fill="#222222" d="M28.079,2.664v20.589c0,1.512-0.863,2.304-2.662,2.304c-2.16,0-2.953-0.792-2.953-2.664V2.304
		c0-1.295,0.865-2.304,2.16-2.304h1.151C27.288,0,28.079,0.865,28.079,2.664z"/>
</g>
</svg>
