<?xml version="1.0" encoding="utf-8"?>
<!-- Generator: Adobe Illustrator 16.0.0, SVG Export Plug-In . SVG Version: 6.00 Build 0)  -->
<!DOCTYPE svg PUBLIC "-//W3C//DTD SVG 1.1 Tiny//EN" "http://www.w3.org/Graphics/SVG/1.1/DTD/svg11-tiny.dtd">
<svg version="1.1" baseProfile="tiny" id="Layer_1" xmlns="http://www.w3.org/2000/svg" xmlns:xlink="http://www.w3.org/1999/xlink"
	 x="0px" y="0px" width="17.964px" height="25.02px" viewBox="0 0 17.964 25.02" xml:space="preserve">
<g>
	<path d="M17.964,18.468c0,2.448-1.116,4.26-3.348,5.436c-1.08,0.576-2.628,0.936-4.644,1.08c-0.553,0.024-2.185,0.036-4.896,0.036
		H0.684c-0.409,0-0.612-0.102-0.612-0.306c0-0.204,0.372-0.306,1.116-0.306c0.864,0,1.374-0.09,1.53-0.27
		c0.156-0.18,0.234-0.726,0.234-1.638V3.024c0-1.056-0.048-1.667-0.144-1.836C2.64,0.9,2.028,0.744,0.972,0.72
		C0.324,0.72,0,0.594,0,0.341C0,0.114,0.3,0,0.9,0c0.024,0,0.167,0,0.432,0c0.264,0.072,0.504,0.108,0.72,0.108h7.02
		c2.592,0.024,4.524,0.456,5.796,1.296C16.356,2.388,17.1,3.816,17.1,5.688c0,1.632-0.612,2.97-1.836,4.014
		c-1.224,1.044-2.94,1.698-5.148,1.962v0.216c2.184,0.144,3.888,0.6,5.112,1.368C17.052,14.4,17.964,16.141,17.964,18.468z
		 M13.14,6.048c0-2.304-0.528-3.839-1.584-4.608c-0.553-0.408-1.597-0.612-3.132-0.612c-0.408,0-1.044,0.036-1.908,0.108v10.44H6.84
		l1.98-0.072c1.368-0.048,2.43-0.534,3.186-1.458C12.762,8.922,13.14,7.656,13.14,6.048z M14.184,18.072
		c0-3.024-1.224-4.896-3.672-5.616c-0.72-0.216-2.052-0.324-3.996-0.324V22.86c0,0.696,0.072,1.093,0.216,1.188
		c0.24,0.168,0.912,0.252,2.016,0.252c1.656,0,2.976-0.527,3.96-1.584C13.692,21.66,14.184,20.112,14.184,18.072z"/>
</g>
</svg>
