<?xml version="1.0" encoding="utf-8"?>
<!-- Generator: Adobe Illustrator 16.0.0, SVG Export Plug-In . SVG Version: 6.00 Build 0)  -->
<!DOCTYPE svg PUBLIC "-//W3C//DTD SVG 1.1//EN" "http://www.w3.org/Graphics/SVG/1.1/DTD/svg11.dtd">
<svg version="1.1" id="Layer_1" xmlns="http://www.w3.org/2000/svg" xmlns:xlink="http://www.w3.org/1999/xlink" x="0px" y="0px"
	 width="17.964px" height="25.02px" viewBox="0 0 17.964 25.02" enable-background="new 0 0 17.964 25.02" xml:space="preserve">
<g>
	<path fill="#222222" d="M17.964,18.468c0,2.448-1.116,4.26-3.348,5.436c-1.08,0.576-2.63,0.938-4.646,1.08
		c-0.553,0.024-2.185,0.036-4.896,0.036H0.684c-0.409,0-0.612-0.102-0.612-0.306s0.372-0.306,1.116-0.306
		c0.864,0,1.374-0.092,1.53-0.271c0.156-0.18,0.234-0.726,0.234-1.638V3.024c0-1.056-0.048-1.667-0.144-1.836
		C2.64,0.9,2.028,0.744,0.972,0.72C0.324,0.72,0,0.594,0,0.341C0,0.115,0.3,0,0.9,0c0.024,0,0.167,0,0.432,0
		c0.264,0.072,0.504,0.106,0.72,0.106h7.02c2.592,0.024,4.524,0.456,5.797,1.296C16.356,2.388,17.1,3.816,17.1,5.688
		c0,1.632-0.612,2.972-1.836,4.016s-2.94,1.696-5.147,1.962v0.216c2.184,0.144,3.887,0.6,5.111,1.368
		C17.052,14.4,17.964,16.141,17.964,18.468z M13.14,6.048c0-2.304-0.528-3.839-1.584-4.608c-0.553-0.406-1.598-0.61-3.132-0.61
		c-0.408,0-1.044,0.036-1.908,0.106v10.44H6.84l1.98-0.072c1.368-0.048,2.43-0.534,3.186-1.458
		C12.762,8.922,13.14,7.656,13.14,6.048z M14.184,18.073c0-3.024-1.224-4.896-3.672-5.616c-0.72-0.216-2.052-0.324-3.996-0.324
		V22.86c0,0.696,0.072,1.095,0.216,1.188c0.24,0.168,0.912,0.252,2.016,0.252c1.656,0,2.976-0.527,3.96-1.584
		C13.692,21.66,14.184,20.112,14.184,18.073z"/>
</g>
</svg>
