<?xml version="1.0" encoding="utf-8"?>
<!-- Generator: Adobe Illustrator 16.0.0, SVG Export Plug-In . SVG Version: 6.00 Build 0)  -->
<!DOCTYPE svg PUBLIC "-//W3C//DTD SVG 1.1//EN" "http://www.w3.org/Graphics/SVG/1.1/DTD/svg11.dtd">
<svg version="1.1" id="Layer_1" xmlns="http://www.w3.org/2000/svg" xmlns:xlink="http://www.w3.org/1999/xlink" x="0px" y="0px"
	 width="18.671px" height="25.999px" viewBox="-0.354 -0.49 18.671 25.999" enable-background="new -0.354 -0.49 18.671 25.999"
	 xml:space="preserve">
<g>
	<path fill="#222222" d="M18.317,18.703c0,2.545-1.161,4.427-3.481,5.646c-1.121,0.601-2.731,0.977-4.827,1.125
		c-0.574,0.023-2.271,0.034-5.088,0.034H0.36c-0.426,0-0.636-0.104-0.636-0.315s0.386-0.318,1.157-0.318
		c0.898,0,1.43-0.096,1.591-0.281c0.161-0.187,0.242-0.754,0.242-1.701V2.651c0-1.098-0.049-1.732-0.148-1.908
		c-0.176-0.298-0.812-0.46-1.91-0.485c-0.674,0-1.01-0.131-1.01-0.394c0-0.235,0.311-0.354,0.935-0.354c0.024,0,0.173,0,0.45,0
		c0.274,0.075,0.523,0.11,0.748,0.11h7.297c2.694,0.025,4.702,0.475,6.024,1.348c1.547,1.024,2.319,2.509,2.319,4.455
		c0,1.696-0.636,3.089-1.906,4.174c-1.274,1.084-3.057,1.761-5.352,2.039v0.225c2.271,0.149,4.039,0.624,5.312,1.422
		C17.37,14.475,18.317,16.283,18.317,18.703z M13.304,5.795c0-2.395-0.553-3.989-1.646-4.79c-0.577-0.422-1.662-0.634-3.255-0.634
		c-0.423,0-1.084,0.038-1.983,0.109v10.85h0.337l2.058-0.075c1.423-0.049,2.524-0.555,3.31-1.514
		C12.91,8.781,13.304,7.466,13.304,5.795z M14.388,18.293c0-3.145-1.272-5.089-3.816-5.837C9.824,12.23,8.44,12.118,6.42,12.118
		v11.147c0,0.725,0.075,1.137,0.227,1.234c0.25,0.175,0.946,0.261,2.095,0.261c1.722,0,3.093-0.546,4.116-1.646
		C13.876,22.02,14.388,20.41,14.388,18.293z"/>
</g>
</svg>
