<?xml version="1.0" encoding="utf-8"?>
<!-- Generator: Adobe Illustrator 16.0.0, SVG Export Plug-In . SVG Version: 6.00 Build 0)  -->
<!DOCTYPE svg PUBLIC "-//W3C//DTD SVG 1.1//EN" "http://www.w3.org/Graphics/SVG/1.1/DTD/svg11.dtd">
<svg version="1.1" id="Layer_1" xmlns="http://www.w3.org/2000/svg" xmlns:xlink="http://www.w3.org/1999/xlink" x="0px" y="0px"
	 width="35.029px" height="27.435px" viewBox="268.615 347.385 35.029 27.435"
	 enable-background="new 268.615 347.385 35.029 27.435" xml:space="preserve">
<g>
	<path fill="#222222" d="M291.872,364.308c-0.168,0.216-0.349,0.42-0.54,0.612c-0.647,1.032-1.812,2.196-3.492,3.492
		c-1.823,1.392-3.252,2.088-4.283,2.088h-0.685c-0.553,0-2.063-0.72-4.536-2.16c-2.472-1.463-4.151-2.196-5.04-2.196
		c-0.527,0-0.924,0.384-1.188,1.152c-0.239,0.744-0.433,1.116-0.575,1.116c-0.121,0-0.276-0.098-0.469-0.288
		c0-0.072-0.019-0.167-0.054-0.288c-0.036-0.12-0.055-0.216-0.055-0.288c0-0.959,0.588-1.98,1.765-3.06
		c0.982-0.912,1.858-1.488,2.628-1.729c0.191-0.047,0.419-0.108,0.685-0.18c0.264-0.072,0.562-0.167,0.899-0.288
		c1.823-0.648,2.735-2.208,2.735-4.681c0-0.407-0.006-0.743-0.019-1.009c-0.012-0.264-0.029-0.456-0.054-0.575
		c-0.217-1.151-0.828-2.292-1.836-3.421c-0.024-0.048-0.049-0.096-0.072-0.144s-0.048-0.096-0.071-0.146
		c-0.457-0.6-1.068-1.104-1.836-1.512c-0.769-0.408-1.524-0.611-2.269-0.611c-1.417,0-2.316,0.505-2.7,1.513
		c-0.216,0.504-0.324,0.814-0.324,0.936c0,0.528,0.324,1.236,0.973,2.124c0.24,0.336,0.479,0.66,0.721,0.974
		c0.238,0.312,0.479,0.624,0.72,0.936c0.097,0.144,0.301,0.564,0.612,1.26c0.383,0.792,0.575,1.356,0.575,1.692
		c0,0.646-0.246,1.309-0.737,1.979c-0.492,0.674-1.062,1.152-1.71,1.44c-0.479,0.216-0.731,0.324-0.757,0.324
		c-0.312,0-0.468-0.167-0.468-0.504c0,0.119,0.061,0.035,0.181-0.252c0.479-0.36,1.021-0.842,1.619-1.44
		c0.097-0.191,0.145-0.468,0.145-0.828c0-0.359-0.312-0.888-0.937-1.584c-0.239-0.24-0.468-0.474-0.684-0.702
		c-0.217-0.228-0.445-0.462-0.685-0.702c-0.336-0.358-0.589-0.756-0.757-1.188c-0.455-1.008-0.684-1.692-0.684-2.052
		c0-1.802,0.972-3.444,2.916-4.934c1.271-0.936,2.436-1.476,3.491-1.62c0.097,0,0.229-0.028,0.396-0.09
		c0.167-0.06,0.301-0.09,0.396-0.09c0.983,0,2.101,0.372,3.349,1.116c1.128,0.672,2.052,1.438,2.771,2.304
		c0-0.022,0.022-0.06,0.071-0.106c0.648-2.208,1.836-3.312,3.563-3.312c0.601,0,1.068,0.096,1.404,0.288
		c0.239,0.24,0.545,0.528,0.918,0.864c0.372,0.336,0.797,0.744,1.277,1.224c1.104,1.248,1.859,1.872,2.269,1.872
		c0.048,0,0.12-0.012,0.217-0.036c0.096-0.022,0.168-0.036,0.216-0.036c0.071,0,0.162,0.066,0.271,0.198
		c0.107,0.132,0.162,0.246,0.162,0.342c0,0.024-0.014,0.078-0.036,0.162c-0.023,0.084-0.036,0.15-0.036,0.198l-3.601,2.124
		c2.712,2.23,4.068,4.452,4.068,6.66C292.7,362.592,292.424,363.612,291.872,364.308z M289.532,362.004
		c-0.409-1.056-1.021-2.088-1.837-3.096c-0.815-1.032-1.703-1.766-2.663-2.196c-0.505-0.24-0.9-0.36-1.188-0.36h-0.217
		c-0.071,0.192-0.145,0.504-0.216,0.938c-0.097,1.296-0.744,2.544-1.944,3.744c-1.128,1.078-2.363,1.774-3.708,2.088
		c-0.048,0.022-0.113,0.06-0.197,0.106s-0.21,0.108-0.378,0.182c0.145,0.048,0.323,0.132,0.54,0.252
		c0.216,0.118,0.479,0.264,0.792,0.432c0.624,0.336,1.451,0.798,2.483,1.386s2.305,1.291,3.815,2.106
		c0.145,0.048,0.456,0.071,0.937,0.071c0.672,0,1.284-0.145,1.836-0.433c1.032-0.528,1.691-1.404,1.979-2.628
		c0.097-0.408,0.162-0.714,0.198-0.918s0.054-0.282,0.054-0.234C289.82,363.132,289.724,362.652,289.532,362.004z M286.328,351.492
		c-0.937-0.938-1.598-1.404-1.979-1.404c-0.121-0.072-0.191-0.108-0.217-0.108c-0.119,0-0.336,0.084-0.647,0.252
		c-0.145,0.072-0.294,0.294-0.449,0.666c-0.157,0.373-0.234,0.666-0.234,0.882c0,0.409,0.192,1.237,0.576,2.484
		c0.022,0.36,0.132,0.78,0.324,1.26c2.688-0.813,4.031-1.476,4.031-1.979C287.732,353.112,287.264,352.428,286.328,351.492z"/>
	<path fill="#222222" d="M303.644,359.772l-2.448-0.144c-0.168,0-0.312,0.048-0.432,0.144c-0.072,1.248-0.139,2.322-0.198,3.224
		c-0.062,0.898-0.113,1.626-0.162,2.178c-0.191,1.872-0.407,3.588-0.647,5.146c-0.121,0.624-0.265,1.562-0.432,2.81
		c-0.192,1.128-0.36,1.69-0.505,1.69c-0.312,0-0.491-0.096-0.54-0.286c-0.023-0.192-0.065-0.499-0.126-0.918
		c-0.061-0.422-0.138-0.968-0.233-1.64l-1.225-9.358c-0.048-0.336-0.107-0.716-0.18-1.136c-0.072-0.419-0.168-0.87-0.288-1.35
		c-0.097-0.312-0.611-0.516-1.548-0.612c-0.097-0.096-0.145-0.216-0.145-0.358c0-0.168,0.096-0.288,0.288-0.36
		c0.959-0.479,1.596-1.271,1.907-2.376c0.048-0.216,0.126-0.522,0.233-0.918c0.107-0.396,0.234-0.87,0.378-1.422
		c0.528-2.76,1.345-4.142,2.448-4.142c0.145,0,0.342,0.02,0.594,0.056s0.505,0.078,0.757,0.126s0.504,0.09,0.756,0.126
		s0.45,0.054,0.595,0.054c0.287,0,0.479-0.114,0.575-0.342c0.097-0.229,0.204-0.342,0.324-0.342c0.071,0,0.119,0.012,0.145,0.036
		l0.107,0.07v0.576c0-0.24-0.048-0.204-0.145,0.108c-0.023,0.07-0.065,0.228-0.126,0.468c-0.062,0.24-0.149,0.562-0.271,0.972
		c-0.097,0.336-0.175,0.618-0.233,0.846c-0.061,0.229-0.114,0.402-0.162,0.522c-0.191,0-0.433-0.018-0.721-0.054
		c-0.287-0.036-0.625-0.078-1.008-0.126c-0.721-0.146-1.249-0.216-1.584-0.216c-0.336,0-0.63,0.132-0.882,0.396
		s-0.379,0.564-0.379,0.9c0,0.672,0.479,1.522,1.44,2.556c0.119,0.216,0.396,0.528,0.827,0.936c0.24,0.168,0.696,0.252,1.368,0.252
		c0.048,0,0.131,0,0.252,0c0.12,0,0.3-0.012,0.54-0.034l0.721-0.036c0.167,0,0.275,0.106,0.323,0.324
		c0.022-0.072,0.036,0.144,0.036,0.646v1.008H303.644z"/>
</g>
</svg>
