<?xml version="1.0" encoding="utf-8"?>
<!-- Generator: Adobe Illustrator 16.0.0, SVG Export Plug-In . SVG Version: 6.00 Build 0)  -->
<!DOCTYPE svg PUBLIC "-//W3C//DTD SVG 1.1//EN" "http://www.w3.org/Graphics/SVG/1.1/DTD/svg11.dtd">
<svg version="1.1" id="Layer_1" xmlns="http://www.w3.org/2000/svg" xmlns:xlink="http://www.w3.org/1999/xlink" x="0px" y="0px"
	 width="33.198px" height="26px" viewBox="269.531 348.101 33.198 26" enable-background="new 269.531 348.101 33.198 26"
	 xml:space="preserve">
<g>
	<path fill="#222222" d="M291.572,364.14c-0.159,0.205-0.332,0.397-0.513,0.578c-0.611,0.979-1.716,2.081-3.308,3.312
		c-1.728,1.318-3.084,1.978-4.06,1.978h-0.651c-0.521,0-1.954-0.682-4.298-2.048c-2.342-1.386-3.933-2.078-4.775-2.078
		c-0.499,0-0.876,0.362-1.126,1.09c-0.228,0.703-0.41,1.059-0.545,1.059c-0.114,0-0.261-0.092-0.443-0.272
		c0-0.066-0.02-0.158-0.054-0.273c-0.031-0.113-0.052-0.204-0.052-0.271c0-0.91,0.559-1.877,1.674-2.9
		c0.93-0.863,1.759-1.41,2.489-1.639c0.181-0.046,0.397-0.103,0.65-0.171c0.249-0.068,0.533-0.158,0.852-0.272
		c1.727-0.612,2.591-2.093,2.591-4.436c0-0.384-0.006-0.701-0.017-0.956c-0.013-0.251-0.029-0.431-0.055-0.546
		c-0.204-1.091-0.783-2.172-1.739-3.241c-0.021-0.046-0.046-0.092-0.066-0.136c-0.022-0.047-0.045-0.091-0.067-0.139
		c-0.432-0.569-1.013-1.047-1.739-1.432c-0.729-0.388-1.444-0.578-2.149-0.578c-1.343,0-2.193,0.477-2.557,1.433
		c-0.205,0.476-0.309,0.771-0.309,0.884c0,0.503,0.309,1.172,0.924,2.015c0.228,0.317,0.453,0.625,0.684,0.923
		c0.226,0.295,0.453,0.591,0.683,0.886c0.09,0.136,0.285,0.533,0.578,1.195c0.364,0.749,0.545,1.284,0.545,1.602
		c0,0.612-0.233,1.242-0.698,1.876c-0.467,0.638-1.007,1.09-1.619,1.363c-0.455,0.205-0.695,0.307-0.718,0.307
		c-0.296,0-0.444-0.158-0.444-0.476c0,0.111,0.059,0.03,0.172-0.24c0.453-0.342,0.967-0.797,1.533-1.364
		c0.094-0.182,0.138-0.444,0.138-0.784c0-0.341-0.296-0.843-0.888-1.501c-0.225-0.229-0.442-0.451-0.647-0.666
		c-0.206-0.216-0.423-0.438-0.65-0.664c-0.318-0.341-0.56-0.718-0.716-1.128c-0.432-0.956-0.649-1.603-0.649-1.944
		c0-1.707,0.921-3.265,2.764-4.675c1.203-0.888,2.309-1.399,3.309-1.535c0.092,0,0.217-0.027,0.375-0.084
		c0.159-0.059,0.285-0.087,0.377-0.087c0.931,0,1.989,0.353,3.174,1.058c1.066,0.638,1.942,1.364,2.625,2.185
		c0-0.02,0.021-0.056,0.066-0.1c0.615-2.093,1.74-3.139,3.377-3.139c0.569,0,1.013,0.091,1.33,0.273
		c0.228,0.227,0.519,0.499,0.871,0.818c0.352,0.317,0.756,0.705,1.209,1.159c1.047,1.184,1.762,1.775,2.15,1.775
		c0.044,0,0.113-0.013,0.205-0.035c0.09-0.021,0.157-0.033,0.203-0.033c0.067,0,0.155,0.062,0.257,0.189
		c0.101,0.123,0.154,0.232,0.154,0.323c0,0.022-0.015,0.074-0.032,0.154c-0.023,0.078-0.034,0.141-0.034,0.188l-3.414,2.011
		c2.571,2.114,3.857,4.22,3.857,6.312C292.355,362.513,292.093,363.479,291.572,364.14z M289.354,361.956
		c-0.388-1-0.968-1.978-1.74-2.932c-0.772-0.979-1.613-1.674-2.523-2.082c-0.478-0.227-0.854-0.34-1.125-0.34h-0.207
		c-0.066,0.182-0.136,0.478-0.203,0.888c-0.091,1.227-0.704,2.411-1.841,3.547c-1.07,1.023-2.239,1.681-3.516,1.979
		c-0.046,0.021-0.105,0.056-0.187,0.1c-0.079,0.044-0.197,0.104-0.357,0.172c0.138,0.046,0.307,0.126,0.512,0.239
		c0.204,0.111,0.453,0.249,0.75,0.408c0.592,0.32,1.376,0.758,2.354,1.315c0.979,0.556,2.186,1.223,3.614,1.995
		c0.138,0.046,0.433,0.067,0.889,0.067c0.636,0,1.217-0.138,1.738-0.41c0.978-0.502,1.603-1.331,1.875-2.49
		c0.093-0.386,0.154-0.678,0.188-0.872c0.033-0.192,0.052-0.267,0.052-0.22C289.626,363.024,289.535,362.571,289.354,361.956z
		 M286.317,351.996c-0.887-0.889-1.514-1.332-1.875-1.332c-0.113-0.067-0.182-0.102-0.205-0.102c-0.112,0-0.317,0.079-0.612,0.239
		c-0.138,0.067-0.277,0.277-0.426,0.631c-0.147,0.354-0.221,0.632-0.221,0.836c0,0.387,0.182,1.173,0.546,2.354
		c0.021,0.339,0.124,0.738,0.306,1.193c2.547-0.772,3.821-1.398,3.821-1.874C287.648,353.529,287.205,352.884,286.317,351.996z"/>
	<path fill="#222222" d="M302.727,359.843l-2.322-0.138c-0.158,0-0.295,0.045-0.409,0.138c-0.066,1.181-0.132,2.197-0.188,3.052
		c-0.059,0.852-0.107,1.541-0.156,2.065c-0.181,1.773-0.384,3.399-0.612,4.876c-0.113,0.592-0.25,1.479-0.408,2.662
		c-0.183,1.067-0.341,1.603-0.479,1.603c-0.295,0-0.466-0.091-0.512-0.271c-0.023-0.183-0.062-0.474-0.121-0.871
		c-0.057-0.398-0.129-0.918-0.22-1.553l-1.16-8.87c-0.045-0.317-0.103-0.677-0.171-1.075c-0.068-0.397-0.158-0.825-0.271-1.28
		c-0.093-0.296-0.58-0.488-1.468-0.579c-0.092-0.091-0.137-0.205-0.137-0.341c0-0.158,0.09-0.271,0.271-0.341
		c0.909-0.453,1.513-1.203,1.808-2.252c0.045-0.203,0.12-0.494,0.221-0.87c0.102-0.375,0.222-0.822,0.357-1.347
		c0.501-2.615,1.275-3.924,2.32-3.924c0.139,0,0.325,0.019,0.563,0.053c0.237,0.034,0.479,0.074,0.718,0.12
		c0.238,0.045,0.478,0.084,0.717,0.117c0.237,0.036,0.426,0.054,0.562,0.054c0.272,0,0.455-0.109,0.545-0.325
		c0.092-0.217,0.195-0.323,0.308-0.323c0.067,0,0.113,0.011,0.137,0.034l0.102,0.065v0.547c0-0.228-0.047-0.193-0.138,0.103
		c-0.021,0.065-0.062,0.217-0.12,0.443c-0.058,0.228-0.14,0.532-0.256,0.921c-0.091,0.319-0.165,0.586-0.221,0.802
		c-0.058,0.216-0.108,0.381-0.153,0.493c-0.181,0-0.41-0.017-0.683-0.052c-0.272-0.034-0.595-0.073-0.957-0.118
		c-0.685-0.139-1.183-0.204-1.5-0.204c-0.318,0-0.598,0.125-0.836,0.375c-0.239,0.251-0.358,0.535-0.358,0.854
		c0,0.636,0.453,1.442,1.364,2.421c0.112,0.205,0.375,0.501,0.783,0.888c0.229,0.157,0.659,0.237,1.297,0.237
		c0.044,0,0.124,0,0.238,0c0.115,0,0.285-0.011,0.513-0.03l0.684-0.036c0.157,0,0.26,0.103,0.306,0.309
		c0.021-0.068,0.033,0.136,0.033,0.611v0.956h0.011v0.002H302.727z"/>
</g>
</svg>
