<?xml version="1.0" encoding="utf-8"?>
<!-- Generator: Adobe Illustrator 16.0.0, SVG Export Plug-In . SVG Version: 6.00 Build 0)  -->
<!DOCTYPE svg PUBLIC "-//W3C//DTD SVG 1.1 Tiny//EN" "http://www.w3.org/Graphics/SVG/1.1/DTD/svg11-tiny.dtd">
<svg version="1.1" baseProfile="tiny" id="Layer_1" xmlns="http://www.w3.org/2000/svg" xmlns:xlink="http://www.w3.org/1999/xlink"
	 x="0px" y="0px" width="35.027px" height="27.432px" viewBox="268.616 347.388 35.027 27.432" xml:space="preserve">
<g>
	<path d="M291.872,364.308c-0.168,0.216-0.348,0.42-0.54,0.612c-0.648,1.032-1.812,2.196-3.492,3.492
		c-1.824,1.392-3.252,2.088-4.284,2.088h-0.684c-0.552,0-2.064-0.72-4.536-2.16c-2.472-1.463-4.152-2.196-5.04-2.196
		c-0.528,0-0.924,0.384-1.188,1.152c-0.24,0.744-0.432,1.116-0.576,1.116c-0.121,0-0.276-0.096-0.468-0.288
		c0-0.072-0.018-0.167-0.054-0.288c-0.036-0.12-0.054-0.216-0.054-0.288c0-0.959,0.588-1.98,1.764-3.06
		c0.983-0.912,1.859-1.488,2.628-1.728c0.192-0.047,0.419-0.108,0.684-0.18c0.264-0.072,0.563-0.167,0.9-0.288
		c1.824-0.648,2.736-2.208,2.736-4.68c0-0.408-0.006-0.744-0.018-1.008c-0.012-0.264-0.03-0.456-0.054-0.576
		c-0.216-1.152-0.828-2.292-1.836-3.42c-0.024-0.048-0.048-0.096-0.072-0.144c-0.024-0.048-0.048-0.096-0.072-0.144
		c-0.457-0.6-1.068-1.104-1.836-1.512c-0.768-0.408-1.524-0.612-2.268-0.612c-1.417,0-2.316,0.504-2.7,1.512
		c-0.216,0.504-0.324,0.816-0.324,0.936c0,0.528,0.324,1.236,0.972,2.124c0.24,0.336,0.48,0.66,0.72,0.972
		c0.239,0.312,0.479,0.624,0.72,0.936c0.096,0.144,0.3,0.564,0.612,1.26c0.383,0.792,0.576,1.356,0.576,1.692
		c0,0.648-0.246,1.309-0.738,1.98c-0.492,0.672-1.062,1.152-1.71,1.44c-0.48,0.216-0.732,0.324-0.756,0.324
		c-0.312,0-0.468-0.167-0.468-0.504c0,0.12,0.06,0.036,0.18-0.252c0.479-0.36,1.02-0.84,1.62-1.44
		c0.096-0.191,0.144-0.468,0.144-0.828c0-0.36-0.312-0.888-0.936-1.584c-0.24-0.24-0.468-0.474-0.684-0.702
		c-0.216-0.228-0.445-0.462-0.684-0.702c-0.336-0.36-0.588-0.756-0.756-1.188c-0.456-1.008-0.684-1.692-0.684-2.052
		c0-1.8,0.972-3.444,2.916-4.932c1.271-0.936,2.436-1.476,3.492-1.62c0.096,0,0.228-0.03,0.396-0.09c0.167-0.06,0.3-0.09,0.396-0.09
		c0.984,0,2.1,0.372,3.348,1.116c1.128,0.672,2.052,1.44,2.772,2.304c0-0.024,0.023-0.06,0.072-0.108
		c0.648-2.208,1.836-3.312,3.564-3.312c0.6,0,1.068,0.096,1.404,0.288c0.24,0.24,0.545,0.528,0.918,0.864
		c0.372,0.336,0.797,0.744,1.278,1.224c1.104,1.248,1.86,1.872,2.268,1.872c0.048,0,0.12-0.012,0.216-0.036
		c0.096-0.024,0.168-0.036,0.216-0.036c0.072,0,0.162,0.066,0.27,0.198s0.162,0.246,0.162,0.342c0,0.024-0.013,0.078-0.036,0.162
		c-0.024,0.084-0.036,0.15-0.036,0.198l-3.6,2.124c2.712,2.232,4.068,4.452,4.068,6.66
		C292.7,362.592,292.424,363.612,291.872,364.308z M289.532,362.004c-0.409-1.056-1.021-2.088-1.836-3.096
		c-0.816-1.032-1.704-1.764-2.664-2.196c-0.504-0.24-0.9-0.36-1.188-0.36h-0.216c-0.072,0.192-0.144,0.504-0.216,0.936
		c-0.096,1.296-0.744,2.544-1.944,3.744c-1.128,1.08-2.364,1.776-3.708,2.088c-0.048,0.024-0.114,0.06-0.198,0.108
		c-0.084,0.048-0.21,0.108-0.378,0.18c0.144,0.048,0.324,0.132,0.54,0.252c0.216,0.12,0.479,0.264,0.792,0.432
		c0.624,0.336,1.452,0.798,2.484,1.386c1.032,0.588,2.304,1.291,3.816,2.106c0.144,0.048,0.456,0.072,0.936,0.072
		c0.672,0,1.284-0.144,1.836-0.432c1.032-0.528,1.692-1.404,1.98-2.628c0.096-0.408,0.162-0.714,0.198-0.918
		c0.036-0.204,0.054-0.282,0.054-0.234C289.82,363.132,289.724,362.652,289.532,362.004z M286.328,351.492
		c-0.936-0.936-1.597-1.404-1.98-1.404c-0.121-0.072-0.192-0.108-0.216-0.108c-0.12,0-0.336,0.084-0.648,0.252
		c-0.144,0.072-0.294,0.294-0.45,0.666c-0.157,0.373-0.234,0.666-0.234,0.882c0,0.409,0.192,1.237,0.576,2.484
		c0.023,0.36,0.132,0.78,0.324,1.26c2.688-0.815,4.032-1.476,4.032-1.98C287.732,353.112,287.264,352.428,286.328,351.492z"/>
	<path d="M303.644,359.772l-2.448-0.144c-0.168,0-0.312,0.048-0.432,0.144c-0.072,1.248-0.138,2.322-0.198,3.222
		c-0.061,0.9-0.114,1.626-0.162,2.178c-0.192,1.872-0.408,3.588-0.648,5.148c-0.121,0.624-0.265,1.56-0.432,2.808
		c-0.192,1.128-0.36,1.692-0.504,1.692c-0.312,0-0.492-0.096-0.54-0.288c-0.024-0.192-0.066-0.499-0.126-0.918
		c-0.06-0.42-0.138-0.966-0.234-1.638l-1.224-9.36c-0.048-0.336-0.108-0.714-0.18-1.134c-0.072-0.419-0.168-0.87-0.288-1.35
		c-0.096-0.312-0.612-0.516-1.548-0.612c-0.096-0.096-0.144-0.216-0.144-0.36c0-0.168,0.096-0.288,0.288-0.36
		c0.959-0.479,1.596-1.271,1.908-2.376c0.048-0.216,0.126-0.522,0.234-0.918s0.234-0.87,0.378-1.422
		c0.528-2.76,1.344-4.14,2.448-4.14c0.144,0,0.342,0.018,0.594,0.054s0.504,0.078,0.756,0.126c0.252,0.048,0.504,0.09,0.756,0.126
		s0.45,0.054,0.594,0.054c0.288,0,0.48-0.114,0.576-0.342c0.096-0.228,0.204-0.342,0.324-0.342c0.072,0,0.12,0.012,0.144,0.036
		l0.108,0.072v0.576c0-0.24-0.048-0.204-0.144,0.108c-0.024,0.072-0.066,0.228-0.126,0.468c-0.061,0.24-0.15,0.564-0.27,0.972
		c-0.096,0.336-0.175,0.618-0.234,0.846c-0.06,0.228-0.114,0.402-0.162,0.522c-0.192,0-0.432-0.018-0.72-0.054
		s-0.625-0.078-1.008-0.126c-0.72-0.144-1.249-0.216-1.584-0.216c-0.336,0-0.63,0.132-0.882,0.396s-0.378,0.564-0.378,0.9
		c0,0.672,0.48,1.524,1.44,2.556c0.12,0.216,0.396,0.528,0.828,0.936c0.24,0.168,0.696,0.252,1.368,0.252c0.048,0,0.131,0,0.252,0
		c0.12,0,0.3-0.012,0.54-0.036l0.72-0.036c0.167,0,0.276,0.108,0.324,0.324c0.023-0.072,0.036,0.144,0.036,0.648V359.772z"/>
</g>
</svg>
