<?xml version="1.0" encoding="utf-8"?>
<!-- Generator: Adobe Illustrator 16.0.0, SVG Export Plug-In . SVG Version: 6.00 Build 0)  -->
<!DOCTYPE svg PUBLIC "-//W3C//DTD SVG 1.1//EN" "http://www.w3.org/Graphics/SVG/1.1/DTD/svg11.dtd">
<svg version="1.1" id="Layer_1" xmlns="http://www.w3.org/2000/svg" xmlns:xlink="http://www.w3.org/1999/xlink" x="0px" y="0px"
	 width="23.235px" height="26px" viewBox="0.252 0.281 23.235 26" enable-background="new 0.252 0.281 23.235 26"
	 xml:space="preserve">
<g>
	<path fill="#222222" d="M4.022,23.041c-2.538-2.394-3.771-6.482-3.771-9.865c0-3.276,1.057-6.659,3.594-9.337
		c1.797-1.901,4.968-3.558,8.809-3.558c3.204,0,5.85,1.2,7.117,1.938c0.459,0.282,0.633,0.247,0.706,0l0.281-1.022
		c0.069-0.213,0.144-0.213,0.459-0.213c0.316,0,0.388,0.071,0.388,0.564c0,0.671,0.705,5.851,0.879,6.834
		c0.035,0.177,0,0.317-0.142,0.352l-0.529,0.143c-0.176,0.034-0.246,0-0.351-0.282c-0.493-1.162-1.269-2.854-2.749-4.368
		c-1.48-1.516-3.348-2.713-6.131-2.713c-6.307,0-8.843,5.604-8.808,10.747c0,2.042,0.633,6.024,3.383,9.054
		c2.394,2.677,4.404,2.958,6.762,2.958c3.981,0,7.081-2.183,8.704-4.474c0.104-0.178,0.177-0.211,0.282-0.104l0.458,0.352
		c0.106,0.07,0.177,0.142,0.07,0.317c-2.114,3.065-5.53,5.919-10.501,5.919C8.778,26.283,6.136,24.979,4.022,23.041z"/>
</g>
</svg>
