<?xml version="1.0" encoding="utf-8"?>
<!-- Generator: Adobe Illustrator 16.0.0, SVG Export Plug-In . SVG Version: 6.00 Build 0)  -->
<!DOCTYPE svg PUBLIC "-//W3C//DTD SVG 1.1//EN" "http://www.w3.org/Graphics/SVG/1.1/DTD/svg11.dtd">
<svg version="1.1" id="Layer_1" xmlns="http://www.w3.org/2000/svg" xmlns:xlink="http://www.w3.org/1999/xlink" x="0px" y="0px"
	 width="42.154px" height="26.061px" viewBox="0 0 42.154 26.061" enable-background="new 0 0 42.154 26.061" xml:space="preserve">
<g>
	<path d="M21.057,7.019H18.25V3.06c-0.864-0.252-2.627-0.612-4.715-0.612c-6.119,0-10.223,3.6-10.223,10.403
		c0,6.875,3.527,10.763,10.367,10.763c1.548,0,2.988-0.252,4.211-0.54l0.144-4.175h2.808l-0.144,6.119
		c-1.476,0.648-4.859,1.044-7.235,1.044C5.183,26.061,0,21.885,0,13.21C0,6.155,4.283,0,13.714,0c2.664,0,5.615,0.612,7.343,1.26
		V7.019z"/>
	<path d="M28.512,12.526h-2.664V8.063c2.052-0.828,4.247-1.44,6.515-1.44c4.787,0,7.343,1.764,7.343,6.695
		c0,1.62-0.216,6.695-0.216,10.043h2.664v2.268h-5.328v-0.756c0-1.08,0.217-2.556,0.36-3.275h-0.072
		c-1.115,2.987-2.951,4.463-6.227,4.463c-2.124,0-5.759-0.792-5.759-5.328c0-5.183,5.543-5.687,11.771-5.687v-1.332
		c0-3.492-1.332-4.823-4.247-4.823c-1.044,0-2.808,0.18-4.14,0.756V12.526z M36.898,17.098c-4.391,0-8.819,0-8.819,3.491
		c0,2.088,1.584,3.204,3.492,3.204C33.587,23.793,36.898,22.677,36.898,17.098z"/>
</g>
</svg>
