<?xml version="1.0" encoding="utf-8"?>
<!-- Generator: Adobe Illustrator 16.0.0, SVG Export Plug-In . SVG Version: 6.00 Build 0)  -->
<!DOCTYPE svg PUBLIC "-//W3C//DTD SVG 1.1//EN" "http://www.w3.org/Graphics/SVG/1.1/DTD/svg11.dtd">
<svg version="1.1" id="Layer_1" xmlns="http://www.w3.org/2000/svg" xmlns:xlink="http://www.w3.org/1999/xlink" x="0px" y="0px"
	 width="42.053px" height="26px" viewBox="0.051 0.031 42.053 26" enable-background="new 0.051 0.031 42.053 26"
	 xml:space="preserve">
<g>
	<path fill="#222222" d="M21.057,7.033h-2.801v-3.95c-0.859-0.251-2.621-0.608-4.704-0.608c-6.104,0-10.198,3.591-10.198,10.375
		c0,6.859,3.516,10.74,10.342,10.74c1.544,0,2.979-0.254,4.201-0.539l0.143-4.167h2.801l-0.143,6.104
		c-1.472,0.646-4.848,1.041-7.218,1.041C5.221,26.03,0.051,21.864,0.051,13.21c0-7.037,4.272-13.178,13.681-13.178
		c2.658,0,5.602,0.608,7.328,1.257L21.057,7.033L21.057,7.033z"/>
	<path fill="#222222" d="M28.495,12.527h-2.658V8.074c2.047-0.826,4.237-1.434,6.499-1.434c4.776,0,7.325,1.76,7.325,6.677
		c0,1.616-0.215,6.679-0.215,10.019h2.657v2.265h-5.315v-0.754c0-1.077,0.217-2.553,0.359-3.268h-0.071
		c-1.113,2.98-2.944,4.452-6.212,4.452c-2.119,0-5.748-0.79-5.748-5.315c0-5.17,5.529-5.673,11.743-5.673v-1.329
		c0-3.483-1.329-4.812-4.236-4.812c-1.042,0-2.804,0.181-4.131,0.754L28.495,12.527L28.495,12.527z M36.86,17.088
		c-4.383,0-8.798,0-8.798,3.482c0,2.083,1.58,3.197,3.483,3.197C33.556,23.768,36.86,22.654,36.86,17.088z"/>
</g>
</svg>
