<?xml version="1.0" encoding="utf-8"?>
<!-- Generator: Adobe Illustrator 16.0.0, SVG Export Plug-In . SVG Version: 6.00 Build 0)  -->
<!DOCTYPE svg PUBLIC "-//W3C//DTD SVG 1.1//EN" "http://www.w3.org/Graphics/SVG/1.1/DTD/svg11.dtd">
<svg version="1.1" id="Layer_1" xmlns="http://www.w3.org/2000/svg" xmlns:xlink="http://www.w3.org/1999/xlink" x="0px" y="0px"
	 width="23.738px" height="26.564px" viewBox="0 0 23.738 26.564" enable-background="new 0 0 23.738 26.564" xml:space="preserve">
<g>
	<path fill="#222222" d="M3.852,23.253C1.26,20.806,0,16.63,0,13.174c0-3.347,1.08-6.803,3.672-9.539C5.508,1.692,8.747,0,12.671,0
		c3.274,0,5.976,1.225,7.271,1.979c0.47,0.288,0.647,0.252,0.722,0l0.287-1.044c0.071-0.217,0.146-0.217,0.469-0.217
		s0.396,0.072,0.396,0.576c0,0.685,0.721,5.977,0.899,6.982c0.035,0.181,0,0.324-0.146,0.36l-0.54,0.145
		c-0.18,0.035-0.252,0-0.358-0.288c-0.504-1.188-1.296-2.916-2.809-4.463c-1.513-1.549-3.42-2.771-6.264-2.771
		c-6.443,0-9.035,5.724-8.999,10.979c0,2.087,0.647,6.154,3.456,9.25c2.446,2.735,4.499,3.023,6.91,3.023
		c4.067,0,7.234-2.231,8.892-4.571c0.107-0.181,0.181-0.216,0.288-0.107l0.468,0.359c0.108,0.072,0.181,0.145,0.072,0.324
		c-2.16,3.132-5.65,6.047-10.728,6.047C8.711,26.565,6.012,25.233,3.852,23.253z"/>
</g>
</svg>
