<?xml version="1.0" encoding="utf-8"?>
<!-- Generator: Adobe Illustrator 16.0.0, SVG Export Plug-In . SVG Version: 6.00 Build 0)  -->
<!DOCTYPE svg PUBLIC "-//W3C//DTD SVG 1.1 Tiny//EN" "http://www.w3.org/Graphics/SVG/1.1/DTD/svg11-tiny.dtd">
<svg version="1.1" baseProfile="tiny" id="Layer_1" xmlns="http://www.w3.org/2000/svg" xmlns:xlink="http://www.w3.org/1999/xlink"
	 x="0px" y="0px" width="23.739px" height="26.565px" viewBox="0 0 23.739 26.565" xml:space="preserve">
<g>
	<path d="M3.852,23.253C1.26,20.806,0,16.63,0,13.174c0-3.347,1.08-6.803,3.672-9.539C5.508,1.692,8.747,0,12.671,0
		c3.275,0,5.975,1.224,7.271,1.98c0.469,0.288,0.648,0.252,0.721,0l0.287-1.044c0.072-0.216,0.145-0.216,0.469-0.216
		c0.323,0,0.396,0.072,0.396,0.576c0,0.684,0.72,5.976,0.9,6.983c0.035,0.18,0,0.324-0.145,0.36l-0.54,0.144
		c-0.18,0.036-0.252,0-0.359-0.288c-0.504-1.188-1.296-2.916-2.808-4.463c-1.513-1.548-3.42-2.771-6.264-2.771
		c-6.443,0-9.035,5.723-8.999,10.979c0,2.087,0.648,6.155,3.456,9.25c2.447,2.736,4.499,3.024,6.911,3.024
		c4.067,0,7.234-2.232,8.891-4.571c0.108-0.18,0.18-0.216,0.288-0.108l0.468,0.36c0.108,0.072,0.18,0.144,0.072,0.324
		c-2.16,3.132-5.651,6.047-10.727,6.047C8.711,26.565,6.012,25.233,3.852,23.253z"/>
</g>
</svg>
