<?xml version="1.0" encoding="utf-8"?>
<!-- Generator: Adobe Illustrator 16.0.0, SVG Export Plug-In . SVG Version: 6.00 Build 0)  -->
<!DOCTYPE svg PUBLIC "-//W3C//DTD SVG 1.1//EN" "http://www.w3.org/Graphics/SVG/1.1/DTD/svg11.dtd">
<svg version="1.1" id="Layer_1" xmlns="http://www.w3.org/2000/svg" xmlns:xlink="http://www.w3.org/1999/xlink" x="0px" y="0px"
	 width="38.501px" height="26px" viewBox="0.886 0.598 38.501 26" enable-background="new 0.886 0.598 38.501 26"
	 xml:space="preserve">
<g>
	<path fill="#222222" d="M18.413,3.052l1.159-2.406h1.059l0.437,9.999h-1.126c-0.739-2.81-1.669-4.882-2.79-6.218
		c-1.389-1.669-3.048-2.501-4.974-2.501c-2.087,0-3.781,0.93-5.092,2.79C5.776,6.574,5.122,9.723,5.122,14.16
		c0,3.729,0.748,6.576,2.25,8.537c1.277,1.658,3.069,2.487,5.377,2.487c2.017,0,3.708-0.647,5.078-1.938
		c1.367-1.295,2.254-3.247,2.672-5.856h1.193c-0.348,2.958-1.364,5.232-3.045,6.823c-1.68,1.591-3.797,2.386-6.352,2.386
		c-2.073,0-3.975-0.521-5.708-1.562c-1.731-1.045-3.114-2.541-4.151-4.495c-1.036-1.955-1.551-4.102-1.551-6.432
		c0-2.476,0.538-4.8,1.608-6.974C3.561,4.963,4.931,3.33,6.601,2.237c1.669-1.091,3.467-1.638,5.393-1.638
		c1.076,0,2.117,0.185,3.127,0.555C16.129,1.523,17.226,2.156,18.413,3.052z"/>
	<path fill="#222222" d="M39.251,18.21H27.974c0.06,2.399,0.505,4.089,1.345,5.077c0.964,1.109,2.19,1.664,3.68,1.664
		c2.199,0,3.964-1.252,5.294-3.75l1.095,0.47c-1.636,3.182-4.002,4.772-7.091,4.772c-2.106,0-3.882-0.762-5.319-2.285
		c-1.438-1.526-2.159-3.476-2.159-5.848c0-2.555,0.709-4.619,2.126-6.194c1.418-1.573,3.165-2.361,5.237-2.361
		c1.523,0,2.84,0.392,3.949,1.177c1.109,0.781,1.943,1.91,2.504,3.375C39.022,15.342,39.228,16.641,39.251,18.21z M27.974,17.016
		h6.826c0.403,0,0.717-0.138,0.938-0.412c0.225-0.274,0.339-0.742,0.339-1.403c0-1.232-0.384-2.279-1.15-3.142
		c-0.768-0.862-1.673-1.295-2.714-1.295c-1.168,0-2.154,0.524-2.968,1.566C28.431,13.37,28.009,14.932,27.974,17.016z"/>
</g>
</svg>
