<?xml version="1.0" encoding="utf-8"?>
<!-- Generator: Adobe Illustrator 16.0.0, SVG Export Plug-In . SVG Version: 6.00 Build 0)  -->
<!DOCTYPE svg PUBLIC "-//W3C//DTD SVG 1.1//EN" "http://www.w3.org/Graphics/SVG/1.1/DTD/svg11.dtd">
<svg version="1.1" id="Layer_1" xmlns="http://www.w3.org/2000/svg" xmlns:xlink="http://www.w3.org/1999/xlink" x="0px" y="0px"
	 width="40.271px" height="27.193px" viewBox="0 0 40.271 27.193" enable-background="new 0 0 40.271 27.193" xml:space="preserve">
<g>
	<path fill="#222222" d="M18.334,2.566l1.213-2.516h1.107l0.457,10.459h-1.178c-0.773-2.939-1.746-5.107-2.918-6.504
		c-1.453-1.746-3.188-2.617-5.203-2.617c-2.182,0-3.955,0.973-5.326,2.918C5.115,6.251,4.43,9.545,4.43,14.186
		c0,3.9,0.783,6.879,2.354,8.93c1.336,1.734,3.211,2.602,5.625,2.602c2.109,0,3.879-0.677,5.311-2.028
		c1.43-1.354,2.359-3.396,2.795-6.126h1.248c-0.363,3.094-1.426,5.473-3.184,7.137s-3.973,2.496-6.645,2.496
		c-2.168,0-4.157-0.545-5.97-1.635c-1.811-1.092-3.258-2.657-4.342-4.702S0,16.57,0,14.133c0-2.59,0.562-5.021,1.681-7.295
		c1.117-2.273,2.55-3.981,4.297-5.124C7.724,0.572,9.604,0,11.619,0c1.125,0,2.215,0.193,3.271,0.58
		C15.944,0.967,17.092,1.629,18.334,2.566z"/>
	<path fill="#222222" d="M40.131,18.422H28.336c0.061,2.51,0.527,4.277,1.406,5.311c1.008,1.16,2.291,1.74,3.85,1.74
		c2.299,0,4.145-1.309,5.537-3.922l1.145,0.492c-1.711,3.328-4.186,4.992-7.418,4.992c-2.203,0-4.06-0.797-5.563-2.391
		c-1.505-1.596-2.259-3.635-2.259-6.117c0-2.672,0.741-4.831,2.224-6.479c1.483-1.646,3.31-2.47,5.478-2.47
		c1.594,0,2.971,0.41,4.131,1.23c1.16,0.818,2.033,1.998,2.619,3.531C39.891,15.422,40.107,16.781,40.131,18.422z M28.336,17.174
		h7.139c0.422,0,0.75-0.144,0.982-0.431c0.234-0.287,0.354-0.776,0.354-1.468c0-1.289-0.401-2.385-1.204-3.287
		s-1.749-1.354-2.839-1.354c-1.221,0-2.253,0.547-3.104,1.637C28.813,13.359,28.371,14.994,28.336,17.174z"/>
</g>
</svg>
