<?xml version="1.0" encoding="utf-8"?>
<!-- Generator: Adobe Illustrator 16.0.0, SVG Export Plug-In . SVG Version: 6.00 Build 0)  -->
<!DOCTYPE svg PUBLIC "-//W3C//DTD SVG 1.1 Tiny//EN" "http://www.w3.org/Graphics/SVG/1.1/DTD/svg11-tiny.dtd">
<svg version="1.1" baseProfile="tiny" id="Layer_1" xmlns="http://www.w3.org/2000/svg" xmlns:xlink="http://www.w3.org/1999/xlink"
	 x="0px" y="0px" width="40.271px" height="27.193px" viewBox="0 0 40.271 27.193" xml:space="preserve">
<g>
	<path d="M18.334,2.566l1.213-2.514h1.107l0.457,10.459h-1.178c-0.773-2.941-1.746-5.109-2.918-6.504
		c-1.453-1.746-3.188-2.619-5.203-2.619c-2.18,0-3.955,0.973-5.326,2.918S4.43,9.545,4.43,14.186c0,3.902,0.785,6.879,2.355,8.93
		c1.336,1.734,3.211,2.602,5.625,2.602c2.109,0,3.879-0.677,5.309-2.03s2.361-3.396,2.795-6.126h1.248
		c-0.363,3.094-1.424,5.473-3.182,7.137s-3.973,2.496-6.645,2.496c-2.168,0-4.157-0.545-5.968-1.635s-3.258-2.657-4.342-4.702
		S0,16.57,0,14.133c0-2.59,0.56-5.021,1.679-7.295S4.23,2.856,5.977,1.714S9.604,0,11.619,0c1.125,0,2.215,0.193,3.27,0.58
		S17.092,1.629,18.334,2.566z"/>
	<path d="M40.131,18.422H28.336c0.059,2.508,0.527,4.277,1.406,5.309c1.008,1.16,2.291,1.74,3.85,1.74
		c2.297,0,4.143-1.307,5.537-3.92l1.143,0.492c-1.711,3.328-4.184,4.992-7.418,4.992c-2.203,0-4.058-0.797-5.563-2.391
		s-2.259-3.633-2.259-6.117c0-2.672,0.741-4.831,2.224-6.478s3.308-2.47,5.476-2.47c1.594,0,2.971,0.41,4.131,1.23
		s2.033,1.998,2.619,3.533C39.891,15.422,40.107,16.781,40.131,18.422z M28.336,17.174h7.137c0.422,0,0.75-0.144,0.984-0.431
		s0.352-0.776,0.352-1.468c0-1.289-0.401-2.385-1.204-3.287s-1.749-1.354-2.839-1.354c-1.219,0-2.253,0.545-3.103,1.635
		S28.371,14.994,28.336,17.174z"/>
</g>
</svg>
