<?xml version="1.0" encoding="utf-8"?>
<!-- Generator: Adobe Illustrator 16.0.0, SVG Export Plug-In . SVG Version: 6.00 Build 0)  -->
<!DOCTYPE svg PUBLIC "-//W3C//DTD SVG 1.1//EN" "http://www.w3.org/Graphics/SVG/1.1/DTD/svg11.dtd">
<svg version="1.1" id="Layer_1" xmlns="http://www.w3.org/2000/svg" xmlns:xlink="http://www.w3.org/1999/xlink" x="0px" y="0px"
	 width="39.245px" height="26px" viewBox="291.024 270.197 39.245 26" enable-background="new 291.024 270.197 39.245 26"
	 xml:space="preserve">
<g>
	<path fill="#222222" d="M311.109,291.273c-0.26,0.43-0.517,0.852-0.773,1.269c-0.733,0.96-1.635,1.749-2.711,2.366
		c-1.503,0.86-3.216,1.289-5.139,1.289c-3.396,0-6.187-1.318-8.364-3.956c-2.064-2.495-3.098-5.526-3.098-9.097
		c0-3.684,1.034-6.764,3.107-9.235c2.071-2.473,4.741-3.712,8.011-3.712c1.274,0,2.415,0.188,3.418,0.56
		c0.861,0.416,1.722,0.826,2.581,1.226c0.259,0,0.443-0.114,0.558-0.343c0.029-0.072,0.066-0.195,0.108-0.366h1.333v6.538h-0.795
		c-0.058,0-0.165,0-0.323,0s-0.294-0.051-0.408-0.149c-0.058-0.044-0.342-0.663-0.843-1.861c-0.503-1.197-1.076-2.118-1.719-2.763
		c-0.988-0.975-2.207-1.462-3.656-1.462c-2.48,0-4.372,1.147-5.679,3.439c-1.131,1.992-1.7,4.562-1.7,7.7s0.617,5.756,1.851,7.848
		c1.462,2.495,3.562,3.742,6.301,3.742c1.245,0,2.457-0.336,3.635-1.01c0.846-0.488,1.62-1.111,2.321-1.872
		c0.272-0.343,0.545-0.688,0.817-1.03L311.109,291.273z"/>
	<path fill="#222222" d="M330.269,295.509h-6.797v-0.604c0.019-0.129,0.04-0.264,0.075-0.408c0.036-0.144,0.104-0.247,0.205-0.312
		c0.1-0.064,0.283-0.129,0.549-0.194c0.269-0.065,0.453-0.164,0.569-0.301c0.114-0.136,0.19-0.295,0.226-0.475
		s0.054-0.398,0.054-0.656v-9.094c0-1.002-0.23-1.807-0.688-2.409c-0.545-0.7-1.362-1.052-2.453-1.052
		c-0.701,0-1.377,0.142-2.021,0.43c-0.503,0.215-1.004,0.537-1.507,0.967l-0.387,0.322v10.774c0,0.302,0.012,0.527,0.032,0.677
		c0.021,0.151,0.098,0.303,0.227,0.452c0.128,0.149,0.362,0.257,0.7,0.322c0.336,0.064,0.548,0.126,0.634,0.182
		c0.084,0.057,0.154,0.145,0.2,0.26c0.054,0.114,0.075,0.271,0.075,0.473v0.646h-6.859v-0.625c0-0.114,0.003-0.235,0.01-0.364
		c0.012-0.129,0.072-0.251,0.198-0.367c0.121-0.114,0.309-0.198,0.57-0.247c0.258-0.051,0.454-0.133,0.599-0.247
		c0.142-0.114,0.232-0.247,0.261-0.396c0.025-0.152,0.044-0.399,0.044-0.743v-18.6c0-0.201-0.009-0.438-0.022-0.712
		c-0.015-0.271-0.126-0.537-0.331-0.795c-0.104-0.129-0.284-0.232-0.541-0.31c-0.258-0.08-0.452-0.177-0.585-0.292
		c-0.133-0.114-0.199-0.301-0.199-0.559v-0.538h4.99v9.248l0.473-0.302c0.788-0.518,1.517-0.889,2.182-1.118
		c0.668-0.229,1.431-0.344,2.292-0.344c1.562,0,2.815,0.338,3.763,1.011c1.133,0.804,1.698,2.022,1.698,3.656v9.7
		c0,0.215,0,0.357,0,0.43c0,0.186,0.036,0.33,0.107,0.431c0.028,0.027,0.136,0.127,0.322,0.302c0.144,0.129,0.335,0.224,0.57,0.278
		c0.237,0.057,0.383,0.101,0.442,0.129c0.099,0.057,0.18,0.164,0.235,0.322c0.057,0.159,0.087,0.308,0.087,0.451V295.509
		L330.269,295.509z"/>
</g>
</svg>
