<?xml version="1.0" encoding="utf-8"?>
<!-- Generator: Adobe Illustrator 16.0.0, SVG Export Plug-In . SVG Version: 6.00 Build 0)  -->
<!DOCTYPE svg PUBLIC "-//W3C//DTD SVG 1.1//EN" "http://www.w3.org/Graphics/SVG/1.1/DTD/svg11.dtd">
<svg version="1.1" id="Layer_1" xmlns="http://www.w3.org/2000/svg" xmlns:xlink="http://www.w3.org/1999/xlink" x="0px" y="0px"
	 width="45.593px" height="30.205px" viewBox="287.85 268.095 45.593 30.205" enable-background="new 287.85 268.095 45.593 30.205"
	 xml:space="preserve">
<g>
	<path fill="#222222" d="M311.183,292.579c-0.301,0.5-0.6,0.99-0.898,1.475c-0.852,1.115-1.898,2.031-3.148,2.748
		c-1.747,1-3.737,1.498-5.971,1.498c-3.945,0-7.187-1.531-9.717-4.596c-2.398-2.898-3.599-6.42-3.599-10.568
		c0-4.279,1.202-7.857,3.61-10.729c2.406-2.873,5.508-4.312,9.306-4.312c1.481,0,2.806,0.219,3.972,0.65
		c1,0.482,2,0.959,2.998,1.424c0.301,0,0.516-0.133,0.648-0.398c0.033-0.084,0.076-0.227,0.125-0.426h1.549v7.596h-0.924
		c-0.066,0-0.191,0-0.375,0s-0.342-0.059-0.475-0.174c-0.066-0.051-0.395-0.771-0.977-2.162c-0.584-1.391-1.25-2.461-1.998-3.209
		c-1.148-1.133-2.564-1.699-4.247-1.699c-2.882,0-5.08,1.333-6.597,3.996c-1.314,2.314-1.975,5.298-1.975,8.945
		c0,3.646,0.717,6.687,2.149,9.117c1.698,2.898,4.138,4.348,7.319,4.348c1.448,0,2.855-0.391,4.223-1.174
		c0.982-0.566,1.883-1.291,2.697-2.174c0.316-0.398,0.633-0.799,0.949-1.197L311.183,292.579z"/>
	<path fill="#222222" d="M333.443,297.5h-7.896v-0.701c0.02-0.149,0.047-0.307,0.088-0.475c0.041-0.166,0.121-0.287,0.238-0.361
		c0.115-0.075,0.328-0.149,0.637-0.226c0.311-0.076,0.527-0.19,0.662-0.35c0.133-0.158,0.221-0.342,0.262-0.551
		s0.062-0.463,0.062-0.762V283.51c0-1.165-0.268-2.1-0.799-2.799c-0.633-0.813-1.582-1.223-2.85-1.223c-0.814,0-1.6,0.165-2.348,0.5
		c-0.584,0.249-1.166,0.624-1.75,1.122l-0.449,0.375v12.517c0,0.351,0.014,0.613,0.037,0.787c0.025,0.176,0.113,0.351,0.264,0.524
		c0.148,0.174,0.42,0.299,0.812,0.375c0.391,0.074,0.637,0.146,0.736,0.211c0.098,0.066,0.18,0.168,0.234,0.302
		c0.061,0.133,0.088,0.315,0.088,0.549v0.75h-7.969v-0.726c0-0.133,0.004-0.274,0.012-0.424c0.012-0.149,0.084-0.291,0.229-0.426
		c0.141-0.133,0.359-0.229,0.662-0.287c0.299-0.059,0.529-0.154,0.697-0.287c0.164-0.133,0.268-0.287,0.301-0.461
		c0.031-0.176,0.051-0.463,0.051-0.863v-21.608c0-0.233-0.01-0.508-0.025-0.826c-0.018-0.315-0.146-0.625-0.385-0.924
		c-0.121-0.149-0.33-0.271-0.629-0.36c-0.299-0.093-0.525-0.205-0.68-0.339c-0.154-0.133-0.23-0.35-0.23-0.649v-0.625h5.797v10.744
		l0.549-0.351c0.916-0.601,1.762-1.032,2.535-1.299c0.775-0.267,1.662-0.399,2.662-0.399c1.814,0,3.271,0.392,4.371,1.174
		c1.316,0.934,1.973,2.35,1.973,4.248v11.268c0,0.25,0,0.416,0,0.5c0,0.215,0.043,0.383,0.125,0.5
		c0.033,0.033,0.158,0.148,0.375,0.35c0.166,0.15,0.389,0.26,0.662,0.324c0.275,0.066,0.445,0.117,0.514,0.15
		c0.115,0.066,0.209,0.191,0.273,0.375c0.066,0.184,0.102,0.357,0.102,0.523V297.5L333.443,297.5z"/>
</g>
</svg>
