<?xml version="1.0" encoding="utf-8"?>
<!-- Generator: Adobe Illustrator 16.0.0, SVG Export Plug-In . SVG Version: 6.00 Build 0)  -->
<!DOCTYPE svg PUBLIC "-//W3C//DTD SVG 1.1 Tiny//EN" "http://www.w3.org/Graphics/SVG/1.1/DTD/svg11-tiny.dtd">
<svg version="1.1" baseProfile="tiny" id="Layer_1" xmlns="http://www.w3.org/2000/svg" xmlns:xlink="http://www.w3.org/1999/xlink"
	 x="0px" y="0px" width="45.593px" height="30.204px" viewBox="287.849 268.095 45.593 30.204" xml:space="preserve">
<g>
	<path d="M311.183,292.579c-0.3,0.5-0.6,0.991-0.899,1.474c-0.85,1.116-1.898,2.032-3.147,2.748c-1.749,1-3.739,1.499-5.971,1.499
		c-3.947,0-7.187-1.532-9.718-4.597c-2.398-2.898-3.598-6.42-3.598-10.568c0-4.28,1.203-7.857,3.61-10.73s5.509-4.31,9.306-4.31
		c1.482,0,2.806,0.217,3.972,0.65c1,0.483,1.999,0.958,2.998,1.424c0.3,0,0.516-0.133,0.649-0.4
		c0.033-0.083,0.075-0.225,0.125-0.424h1.549v7.595h-0.924c-0.067,0-0.192,0-0.375,0c-0.184,0-0.342-0.058-0.475-0.175
		c-0.067-0.05-0.392-0.77-0.975-2.161s-1.249-2.461-1.999-3.21c-1.149-1.132-2.565-1.699-4.247-1.699
		c-2.882,0-5.08,1.333-6.596,3.997c-1.315,2.315-1.974,5.296-1.974,8.944s0.716,6.687,2.149,9.119
		c1.699,2.898,4.138,4.347,7.32,4.347c1.449,0,2.856-0.391,4.222-1.174c0.982-0.566,1.882-1.291,2.698-2.173
		c0.315-0.4,0.633-0.8,0.949-1.199L311.183,292.579z"/>
	<path d="M333.442,297.5h-7.895v-0.7c0.017-0.15,0.046-0.308,0.088-0.475c0.041-0.166,0.12-0.287,0.237-0.362
		c0.116-0.075,0.328-0.15,0.637-0.225c0.309-0.075,0.528-0.191,0.662-0.35c0.133-0.158,0.221-0.341,0.263-0.55
		c0.041-0.208,0.062-0.462,0.062-0.762V283.51c0-1.166-0.267-2.099-0.8-2.798c-0.633-0.815-1.582-1.224-2.848-1.224
		c-0.816,0-1.6,0.167-2.349,0.5c-0.583,0.25-1.166,0.625-1.749,1.124l-0.449,0.375v12.516c0,0.35,0.012,0.612,0.037,0.787
		s0.112,0.35,0.263,0.524c0.149,0.175,0.42,0.3,0.812,0.375c0.392,0.075,0.637,0.146,0.737,0.212c0.1,0.067,0.179,0.167,0.237,0.3
		c0.058,0.134,0.087,0.317,0.087,0.55v0.75h-7.969v-0.725c0-0.133,0.004-0.275,0.012-0.425c0.009-0.15,0.084-0.291,0.226-0.424
		c0.141-0.133,0.362-0.229,0.662-0.288c0.3-0.058,0.532-0.154,0.699-0.287c0.166-0.133,0.266-0.288,0.3-0.462
		c0.033-0.175,0.05-0.462,0.05-0.862v-21.61c0-0.233-0.009-0.508-0.025-0.825c-0.018-0.316-0.146-0.625-0.385-0.924
		c-0.12-0.15-0.329-0.271-0.629-0.362c-0.299-0.091-0.525-0.204-0.679-0.337c-0.154-0.133-0.23-0.35-0.23-0.65v-0.625h5.796v10.743
		l0.55-0.35c0.915-0.6,1.761-1.033,2.535-1.299c0.774-0.266,1.661-0.399,2.661-0.399c1.814,0,3.272,0.391,4.372,1.174
		c1.315,0.933,1.973,2.349,1.973,4.247v11.267c0,0.25,0,0.417,0,0.5c0,0.216,0.042,0.383,0.125,0.5
		c0.033,0.034,0.158,0.15,0.375,0.35c0.166,0.15,0.388,0.259,0.662,0.325c0.274,0.067,0.445,0.117,0.513,0.15
		c0.116,0.067,0.208,0.192,0.274,0.375c0.066,0.184,0.1,0.358,0.1,0.524V297.5z"/>
</g>
</svg>
