<?xml version="1.0" encoding="utf-8"?>
<!-- Generator: Adobe Illustrator 16.0.0, SVG Export Plug-In . SVG Version: 6.00 Build 0)  -->
<!DOCTYPE svg PUBLIC "-//W3C//DTD SVG 1.1//EN" "http://www.w3.org/Graphics/SVG/1.1/DTD/svg11.dtd">
<svg version="1.1" id="Layer_1" xmlns="http://www.w3.org/2000/svg" xmlns:xlink="http://www.w3.org/1999/xlink" x="0px" y="0px"
	 width="28.912px" height="26px" viewBox="296.043 325 28.912 26" enable-background="new 296.043 325 28.912 26"
	 xml:space="preserve">
<g>
	<path fill="#222222" d="M313.379,345.209c-0.231,3.86-2.149,5.79-5.757,5.79h-5.788c-1.595,0-2.957-0.566-4.091-1.699
		c-1.132-1.132-1.7-2.495-1.7-4.091v-14.42c0-1.619,0.568-2.988,1.7-4.108c1.134-1.121,2.497-1.682,4.091-1.682h5.789
		c3.63,0,5.55,1.93,5.757,5.79h-2.879c-0.231-1.942-1.19-2.912-2.877-2.912h-2.912c-0.784,0-1.461,0.283-2.026,0.85
		c-0.563,0.566-0.849,1.254-0.849,2.062v14.421c0,0.811,0.282,1.497,0.849,2.063c0.567,0.567,1.242,0.851,2.026,0.851h2.912
		c1.71,0,2.669-0.971,2.877-2.91h2.878V345.209L313.379,345.209z"/>
	<path fill="#222222" d="M319.166,327.877v-2.876h5.789v2.876H319.166z M319.166,351v-20.21h5.789V351H319.166z"/>
</g>
</svg>
