<?xml version="1.0" encoding="utf-8"?>
<!-- Generator: Adobe Illustrator 16.0.0, SVG Export Plug-In . SVG Version: 6.00 Build 0)  -->
<!DOCTYPE svg PUBLIC "-//W3C//DTD SVG 1.1 Tiny//EN" "http://www.w3.org/Graphics/SVG/1.1/DTD/svg11-tiny.dtd">
<svg version="1.1" baseProfile="tiny" id="Layer_1" xmlns="http://www.w3.org/2000/svg" xmlns:xlink="http://www.w3.org/1999/xlink"
	 x="0px" y="0px" width="30.024px" height="27px" viewBox="295.488 324.5 30.024 27" xml:space="preserve">
<g>
	<path d="M313.488,345.488c-0.24,4.009-2.232,6.012-5.977,6.012H301.5c-1.656,0-3.072-0.588-4.248-1.764
		c-1.176-1.175-1.764-2.592-1.764-4.248v-14.976c0-1.68,0.588-3.102,1.764-4.266c1.176-1.164,2.592-1.746,4.248-1.746h6.012
		c3.768,0,5.761,2.004,5.977,6.012H310.5c-0.24-2.016-1.236-3.024-2.988-3.024h-3.024c-0.816,0-1.518,0.294-2.106,0.882
		c-0.588,0.588-0.882,1.302-0.882,2.142v14.976c0,0.841,0.293,1.554,0.882,2.142c0.588,0.588,1.29,0.882,2.106,0.882h3.024
		c1.776,0,2.772-1.008,2.988-3.024H313.488z"/>
	<path d="M319.5,327.488V324.5h6.012v2.988H319.5z M319.5,351.5v-20.988h6.012V351.5H319.5z"/>
</g>
</svg>
