<?xml version="1.0" encoding="utf-8"?>
<!-- Generator: Adobe Illustrator 16.0.0, SVG Export Plug-In . SVG Version: 6.00 Build 0)  -->
<!DOCTYPE svg PUBLIC "-//W3C//DTD SVG 1.1//EN" "http://www.w3.org/Graphics/SVG/1.1/DTD/svg11.dtd">
<svg version="1.1" id="Layer_1" xmlns="http://www.w3.org/2000/svg" xmlns:xlink="http://www.w3.org/1999/xlink" x="0px" y="0px"
	 width="30.025px" height="27.001px" viewBox="295.487 324.499 30.025 27.001"
	 enable-background="new 295.487 324.499 30.025 27.001" xml:space="preserve">
<g>
	<path fill="#222222" d="M313.49,345.488c-0.24,4.009-2.232,6.012-5.979,6.012H301.5c-1.656,0-3.072-0.588-4.248-1.764
		s-1.766-2.592-1.766-4.248v-14.977c0-1.681,0.59-3.103,1.766-4.267s2.592-1.746,4.248-1.746h6.012c3.77,0,5.763,2.004,5.979,6.013
		h-2.99c-0.24-2.017-1.236-3.023-2.988-3.023h-3.024c-0.814,0-1.518,0.294-2.104,0.882s-0.882,1.302-0.882,2.142v14.977
		c0,0.842,0.293,1.555,0.882,2.143c0.588,0.588,1.29,0.883,2.104,0.883h3.024c1.776,0,2.772-1.009,2.988-3.023h2.989V345.488z"/>
	<path fill="#222222" d="M319.5,327.488V324.5h6.012v2.988H319.5z M319.5,351.5v-20.988h6.012V351.5H319.5z"/>
</g>
</svg>
