<?xml version="1.0" encoding="utf-8"?>
<!-- Generator: Adobe Illustrator 16.0.0, SVG Export Plug-In . SVG Version: 6.00 Build 0)  -->
<!DOCTYPE svg PUBLIC "-//W3C//DTD SVG 1.1//EN" "http://www.w3.org/Graphics/SVG/1.1/DTD/svg11.dtd">
<svg version="1.1" id="Layer_1" xmlns="http://www.w3.org/2000/svg" xmlns:xlink="http://www.w3.org/1999/xlink" x="0px" y="0px"
	 width="35.469px" height="26px" viewBox="-0.474 -0.347 35.469 26" enable-background="new -0.474 -0.347 35.469 26"
	 xml:space="preserve">
<g>
	<path fill="#222222" d="M19.239,0.022h2.627v10.134h-2.737c-0.481-4.03-2.552-7.322-6.99-7.322c-5.438,0-6.805,4.956-6.805,9.801
		c0,4.771,1.478,9.838,6.805,9.838c4.216,0,6.25-2.959,6.656-6.88h3.183c-0.445,6.435-4.142,10.06-10.615,10.06
		C3.594,25.652-0.474,20.179-0.474,12.302c0-6.954,4.585-12.648,12.279-12.648c2.403,0,5.103,1.147,6.73,2.7L19.239,0.022z"/>
	<path fill="#222222" d="M24.124,24.912v-2.439h1.812c1.036,0,1.479-0.408,1.479-1.48V4.314c0-1.073-0.445-1.48-1.479-1.48h-1.812
		V0.392h7.655v20.6c0,1.072,0.444,1.48,1.478,1.48h1.738v2.439H24.124z"/>
</g>
</svg>
