<?xml version="1.0" encoding="utf-8"?>
<!-- Generator: Adobe Illustrator 16.0.0, SVG Export Plug-In . SVG Version: 6.00 Build 0)  -->
<!DOCTYPE svg PUBLIC "-//W3C//DTD SVG 1.1//EN" "http://www.w3.org/Graphics/SVG/1.1/DTD/svg11.dtd">
<svg version="1.1" id="Layer_1" xmlns="http://www.w3.org/2000/svg" xmlns:xlink="http://www.w3.org/1999/xlink" x="0px" y="0px"
	 width="34.521px" height="25.305px" viewBox="0 0 34.521 25.305" enable-background="new 0 0 34.521 25.305" xml:space="preserve">
<g>
	<path fill="#222222" d="M19.186,0.36h2.557v9.863h-2.664C18.61,6.3,16.594,3.096,12.275,3.096c-5.292,0-6.623,4.823-6.623,9.539
		c0,4.644,1.439,9.575,6.623,9.575c4.104,0,6.083-2.88,6.479-6.695h3.097c-0.433,6.263-4.031,9.791-10.331,9.791
		C3.959,25.305,0,19.978,0,12.311C0,5.543,4.463,0,11.951,0c2.339,0,4.967,1.116,6.551,2.628L19.186,0.36z"/>
	<path fill="#222222" d="M23.94,24.585V22.21h1.765c1.008,0,1.439-0.396,1.439-1.44V4.536c0-1.044-0.433-1.44-1.439-1.44H23.94V0.72
		h7.451v20.05c0,1.044,0.433,1.44,1.439,1.44h1.691v2.375H23.94z"/>
</g>
</svg>
