<?xml version="1.0" encoding="utf-8"?>
<!-- Generator: Adobe Illustrator 16.0.0, SVG Export Plug-In . SVG Version: 6.00 Build 0)  -->
<!DOCTYPE svg PUBLIC "-//W3C//DTD SVG 1.1//EN" "http://www.w3.org/Graphics/SVG/1.1/DTD/svg11.dtd">
<svg version="1.1" id="Layer_1" xmlns="http://www.w3.org/2000/svg" xmlns:xlink="http://www.w3.org/1999/xlink" x="0px" y="0px"
	 width="49.201px" height="26px" viewBox="-0.984 -0.52 49.201 26" enable-background="new -0.984 -0.52 49.201 26"
	 xml:space="preserve">
<g>
	<path fill="#222222" d="M12.822-0.52c1.782,0,3.503,0.391,5.164,1.172c0.781,0.367,1.324,0.549,1.629,0.549
		c0.22,0,0.574-0.055,1.062-0.164C20.836,1,21.013,0.981,21.211,0.981c0.632,0,1.19,0.293,1.667,0.879
		c1.172,1.416,1.759,3.174,1.759,5.273c0,1.477-0.506,2.557-1.522,3.24c-0.546,0.367-1.163,0.549-1.846,0.549
		c-0.623,0-1.129-0.134-1.52-0.403c-0.391-0.269-0.769-0.745-1.135-1.428c-0.525-0.965-0.952-1.657-1.282-2.078
		c-0.327-0.42-0.732-0.803-1.208-1.145c-1.184-0.83-2.42-1.245-3.714-1.245c-1.257,0-2.255,0.456-2.994,1.365
		c-0.739,0.91-1.116,2.128-1.116,3.654c0,2.1,0.531,4.022,1.593,5.768c1.44,2.332,3.503,3.497,6.186,3.497
		c0.989,0,1.972-0.164,2.939-0.497s1.724-0.758,2.261-1.281c0.464-0.439,0.846-0.659,1.135-0.659c0.427,0,0.797,0.196,1.102,0.594
		s0.456,0.878,0.456,1.439c0,0.708-0.213,1.499-0.641,2.378c-0.424,0.881-0.937,1.57-1.538,2.069
		c-0.256,0.205-0.788,0.391-1.593,0.547c-0.461,0.086-1.08,0.312-1.846,0.677c-1.807,0.867-3.687,1.3-5.64,1.3
		c-2.039,0-4.071-0.456-6.099-1.373c-2.356-1.062-4.217-2.691-5.582-4.886c-1.345-2.132-2.017-4.366-2.017-6.697
		c0-2.71,0.844-5.182,2.527-7.416c1.465-1.94,3.375-3.424,5.734-4.449C9.068-0.129,10.918-0.52,12.822-0.52z"/>
	<path fill="#222222" d="M35.783,1.091l-0.237,7.141c0,0.171,0,0.305,0,0.403c0,0.244,0.079,0.367,0.237,0.367
		c0.086,0,0.33-0.165,0.732-0.495c1.429-1.172,3.003-1.759,4.725-1.759c1.709,0,3.217,0.617,4.522,1.849
		c1.636,1.55,2.454,3.571,2.454,6.06c0,3.553-1.325,6.392-3.974,8.516c-1.904,1.539-4.139,2.308-6.702,2.308
		c-1.27,0-2.413-0.162-3.433-0.485c-1.021-0.324-2.134-0.877-3.342-1.658c-0.184-0.109-0.33-0.164-0.439-0.164
		c-0.135,0-0.513,0.115-1.139,0.348c-0.317,0.121-0.687,0.184-1.113,0.184c-0.76,0-1.136-0.243-1.136-0.732
		c0-0.158,0.027-0.341,0.092-0.549c0.241-0.793,0.409-1.775,0.494-2.947c0.086-1.172,0.128-3.025,0.128-5.566V8.855
		c0-1.257-0.049-2.044-0.146-2.363c-0.101-0.318-0.372-0.567-0.823-0.751c-0.635-0.269-1.074-0.534-1.321-0.796
		c-0.242-0.263-0.366-0.595-0.366-0.998c0-0.818,0.872-1.618,2.618-2.399c0.952-0.415,2.139-0.778,3.562-1.089
		c1.422-0.311,2.64-0.466,3.652-0.466C35.478-0.007,35.797,0.359,35.783,1.091z M37.359,12.261c-0.662,0-1.136,0.226-1.429,0.677
		c-0.234,0.342-0.348,1.037-0.348,2.087c0,2.869,0.098,4.804,0.29,5.805c0.171,0.928,0.689,1.392,1.557,1.392
		c0.891,0,1.568-0.378,2.032-1.135s0.696-1.855,0.696-3.296c0-2.124-0.391-3.675-1.172-4.651
		C38.536,12.578,37.993,12.285,37.359,12.261z"/>
</g>
</svg>
