<?xml version="1.0" encoding="utf-8"?>
<!-- Generator: Adobe Illustrator 16.0.0, SVG Export Plug-In . SVG Version: 6.00 Build 0)  -->
<!DOCTYPE svg PUBLIC "-//W3C//DTD SVG 1.1 Tiny//EN" "http://www.w3.org/Graphics/SVG/1.1/DTD/svg11-tiny.dtd">
<svg version="1.1" baseProfile="tiny" id="Layer_1" xmlns="http://www.w3.org/2000/svg" xmlns:xlink="http://www.w3.org/1999/xlink"
	 x="0px" y="0px" width="47.232px" height="24.961px" viewBox="0 0 47.232 24.961" xml:space="preserve">
<g>
	<path d="M13.254,0c1.711,0,3.363,0.375,4.957,1.125c0.75,0.352,1.271,0.527,1.564,0.527c0.211,0,0.551-0.053,1.02-0.158
		c0.152-0.035,0.322-0.053,0.51-0.053c0.609,0,1.143,0.281,1.6,0.844c1.125,1.359,1.688,3.047,1.688,5.062
		c0,1.418-0.486,2.455-1.459,3.111c-0.527,0.352-1.119,0.527-1.775,0.527c-0.598,0-1.084-0.129-1.459-0.387s-0.738-0.715-1.09-1.371
		c-0.504-0.926-0.914-1.591-1.23-1.995s-0.703-0.771-1.16-1.099c-1.137-0.797-2.326-1.195-3.568-1.195
		c-1.207,0-2.165,0.437-2.874,1.31S8.912,8.291,8.912,9.756c0,2.016,0.51,3.861,1.529,5.537c1.383,2.238,3.363,3.357,5.941,3.357
		c0.949,0,1.89-0.158,2.821-0.475s1.655-0.727,2.171-1.23c0.445-0.422,0.809-0.633,1.09-0.633c0.41,0,0.762,0.19,1.055,0.571
		s0.439,0.841,0.439,1.38c0,0.68-0.205,1.441-0.615,2.285s-0.902,1.506-1.477,1.986c-0.246,0.199-0.756,0.375-1.529,0.527
		c-0.445,0.082-1.037,0.299-1.775,0.65c-1.734,0.832-3.539,1.248-5.414,1.248c-1.957,0-3.908-0.439-5.854-1.318
		c-2.262-1.02-4.049-2.584-5.361-4.693C0.645,16.898,0,14.754,0,12.516c0-2.602,0.809-4.975,2.426-7.119
		c1.406-1.863,3.24-3.287,5.502-4.271C9.65,0.375,11.426,0,13.254,0z"/>
	<path d="M35.297,1.547l-0.229,6.855c0,0.164,0,0.293,0,0.387c0,0.234,0.076,0.352,0.229,0.352c0.082,0,0.316-0.158,0.703-0.475
		c1.371-1.125,2.883-1.688,4.535-1.688c1.641,0,3.088,0.592,4.342,1.775c1.57,1.488,2.355,3.428,2.355,5.818
		c0,3.41-1.271,6.135-3.814,8.174c-1.828,1.477-3.973,2.215-6.434,2.215c-1.219,0-2.317-0.155-3.296-0.466s-2.048-0.841-3.208-1.591
		c-0.176-0.105-0.316-0.158-0.422-0.158c-0.129,0-0.492,0.111-1.09,0.334c-0.305,0.117-0.662,0.176-1.072,0.176
		c-0.727,0-1.09-0.234-1.09-0.703c0-0.152,0.029-0.328,0.088-0.527c0.234-0.762,0.393-1.705,0.475-2.83s0.123-2.906,0.123-5.344V9
		c0-1.207-0.047-1.963-0.141-2.268s-0.357-0.545-0.791-0.721c-0.609-0.258-1.031-0.513-1.266-0.765s-0.352-0.571-0.352-0.958
		c0-0.785,0.838-1.553,2.514-2.303c0.914-0.398,2.054-0.747,3.419-1.046s2.534-0.448,3.507-0.448
		C35.004,0.492,35.309,0.844,35.297,1.547z M36.809,12.27c-0.633,0-1.09,0.217-1.371,0.65c-0.223,0.328-0.334,0.996-0.334,2.004
		c0,2.754,0.094,4.611,0.281,5.572c0.164,0.891,0.662,1.336,1.494,1.336c0.855,0,1.506-0.363,1.951-1.09s0.668-1.781,0.668-3.164
		c0-2.039-0.375-3.527-1.125-4.465C37.939,12.574,37.418,12.293,36.809,12.27z"/>
</g>
</svg>
