<?xml version="1.0" encoding="utf-8"?>
<!-- Generator: Adobe Illustrator 16.0.0, SVG Export Plug-In . SVG Version: 6.00 Build 0)  -->
<!DOCTYPE svg PUBLIC "-//W3C//DTD SVG 1.1 Tiny//EN" "http://www.w3.org/Graphics/SVG/1.1/DTD/svg11-tiny.dtd">
<svg version="1.1" baseProfile="tiny" id="Layer_1" xmlns="http://www.w3.org/2000/svg" xmlns:xlink="http://www.w3.org/1999/xlink"
	 x="0px" y="0px" width="52.963px" height="24.838px" viewBox="0 0 52.963 24.838" xml:space="preserve">
<g>
	<path d="M23.818,16.172l3.34,5.001l-0.457,0.317c-0.328-0.305-0.598-0.458-0.809-0.458s-0.803,0.282-1.775,0.845
		c-2.016,1.163-3.712,1.947-5.089,2.353s-3.015,0.608-4.913,0.608c-3.785,0-6.891-0.896-9.316-2.689
		c-1.43-1.043-2.555-2.338-3.375-3.885C0.475,16.494,0,14.543,0,12.41c0-2.906,0.85-5.432,2.549-7.576C5.104,1.611,8.965,0,14.133,0
		c1.898,0,3.527,0.199,4.887,0.598s3.059,1.184,5.098,2.355c0.973,0.551,1.564,0.826,1.775,0.826s0.48-0.152,0.809-0.457
		l0.457,0.316l-3.34,5.01l-0.475-0.315c0.023-0.187,0.035-0.344,0.035-0.473c0-0.338-0.146-0.656-0.439-0.954
		s-0.814-0.657-1.564-1.077c-2.074-1.167-4.271-1.751-6.592-1.751c-2.742,0-4.928,0.685-6.557,2.055
		c-1.922,1.604-2.883,3.699-2.883,6.286c0,2.587,0.961,4.683,2.883,6.286c1.629,1.37,3.814,2.055,6.557,2.055
		c2.32,0,4.518-0.586,6.592-1.758c0.75-0.422,1.271-0.782,1.564-1.081s0.439-0.618,0.439-0.958c0-0.129-0.012-0.281-0.035-0.457
		L23.818,16.172z"/>
	<path d="M48.076,16.822h-4.482c-0.375,0-0.659,0.082-0.853,0.246s-0.349,0.457-0.466,0.879h-0.475v-5.221h0.475
		c0.117,0.417,0.272,0.708,0.466,0.875c0.193,0.167,0.478,0.25,0.853,0.25h9.369v0.51c-0.41,0.117-0.7,0.287-0.87,0.51
		s-0.255,0.539-0.255,0.949v4.148c0,0.363,0.085,0.645,0.255,0.844s0.46,0.357,0.87,0.475v0.404
		c-3.797,2.098-7.582,3.146-11.355,3.146c-3.258,0-5.895-0.768-7.91-2.303c-1.09-0.844-1.969-1.887-2.637-3.129
		c-0.785-1.477-1.178-3.053-1.178-4.729c0-2.32,0.715-4.383,2.145-6.188c2.227-2.789,5.52-4.184,9.879-4.184
		c1.91,0,4.09,0.422,6.539,1.266c0.973,0.328,1.541,0.492,1.705,0.492c0.199,0,0.434-0.094,0.703-0.281l0.422,0.229l-2.347,4.957
		l-0.422-0.211c0-0.047,0-0.082,0-0.105c0-0.434-0.434-0.879-1.3-1.336c-1.604-0.855-3.326-1.283-5.165-1.283
		c-2.119,0-3.858,0.58-5.217,1.74c-1.429,1.219-2.144,2.859-2.144,4.922c0,1.934,0.65,3.48,1.951,4.641
		c1.336,1.184,3.211,1.775,5.625,1.775c2.297,0,4.236-0.428,5.818-1.283V16.822z"/>
</g>
</svg>
