<?xml version="1.0" encoding="utf-8"?>
<!-- Generator: Adobe Illustrator 16.0.0, SVG Export Plug-In . SVG Version: 6.00 Build 0)  -->
<!DOCTYPE svg PUBLIC "-//W3C//DTD SVG 1.1//EN" "http://www.w3.org/Graphics/SVG/1.1/DTD/svg11.dtd">
<svg version="1.1" id="Layer_1" xmlns="http://www.w3.org/2000/svg" xmlns:xlink="http://www.w3.org/1999/xlink" x="0px" y="0px"
	 width="50px" height="27.204px" viewBox="-4.873 -2.652 50 27.204" enable-background="new -4.873 -2.652 50 27.204"
	 xml:space="preserve">
<g>
	<path fill="#222222" d="M13.73-1.254c0.146-0.39,0.349-0.669,0.612-0.83c0.262-0.16,0.64-0.237,1.134-0.237
		c0.539,0,0.917,0.129,1.135,0.389c0.219,0.262,0.329,0.803,0.329,1.616c0,1.426,0.015,2.758,0.043,3.984
		c0.029,1.23,0.043,1.765,0.043,1.605c0,0.688-0.117,1.149-0.349,1.386c-0.232,0.24-0.647,0.361-1.244,0.361
		c-0.96,0-1.587-0.685-1.879-2.053c-0.102-0.404-0.181-0.717-0.239-0.938c-0.277-1.092-0.938-1.983-1.988-2.671
		C10.28,0.665,9.05,0.322,7.637,0.322c-2.576,0-4.643,0.942-6.2,2.824c-1.557,1.887-2.336,4.417-2.336,7.587s0.79,5.703,2.369,7.583
		c1.579,1.888,3.665,2.828,6.255,2.828c0.844,0,1.703-0.12,2.576-0.36c0.873-0.24,1.733-0.602,2.577-1.081
		c0.392-0.204,0.931-0.546,1.615-1.037c0.685-0.487,1.172-0.732,1.464-0.732c0.451,0,0.833,0.149,1.146,0.449
		c0.312,0.294,0.469,0.663,0.469,1.103c0,0.437-0.171,0.853-0.513,1.255c-0.342,0.401-0.979,0.892-1.91,1.477
		c-1.223,0.801-2.454,1.391-3.691,1.769s-2.54,0.567-3.908,0.567c-3.596,0-6.564-1.27-8.908-3.81
		c-2.345-2.539-3.516-5.789-3.516-9.748c0-3.916,1.187-7.169,3.559-9.76c2.372-2.59,5.357-3.886,8.951-3.886
		c0.961,0,1.94,0.117,2.937,0.35C11.57-2.071,12.624-1.72,13.73-1.254z"/>
	<path fill="#222222" d="M45.127,13.855c0,3.115-1.062,5.665-3.188,7.642c-2.126,1.977-4.884,2.97-8.276,2.97
		c-3.377,0-6.127-0.989-8.253-2.97c-2.125-1.979-3.188-4.529-3.188-7.642c0-3.113,1.062-5.659,3.188-7.631
		c2.126-1.973,4.876-2.959,8.253-2.959c3.382,0,6.136,0.99,8.267,2.97C44.06,8.215,45.127,10.755,45.127,13.855z M33.663,21.41
		c2.242,0,4.079-0.71,5.513-2.129c1.435-1.42,2.149-3.229,2.149-5.426s-0.721-4.01-2.16-5.448c-1.44-1.435-3.276-2.15-5.504-2.15
		c-2.227,0-4.06,0.717-5.489,2.15c-1.434,1.434-2.151,3.25-2.151,5.448c0,2.212,0.712,4.024,2.142,5.437
		C29.589,20.703,31.423,21.41,33.663,21.41z"/>
</g>
</svg>
