<?xml version="1.0" encoding="utf-8"?>
<!-- Generator: Adobe Illustrator 16.0.0, SVG Export Plug-In . SVG Version: 6.00 Build 0)  -->
<!DOCTYPE svg PUBLIC "-//W3C//DTD SVG 1.1//EN" "http://www.w3.org/Graphics/SVG/1.1/DTD/svg11.dtd">
<svg version="1.1" id="Layer_1" xmlns="http://www.w3.org/2000/svg" xmlns:xlink="http://www.w3.org/1999/xlink" x="0px" y="0px"
	 width="40.254px" height="21.902px" viewBox="0 0 40.254 21.902" enable-background="new 0 0 40.254 21.902" xml:space="preserve">
<g>
	<path fill="#222222" d="M14.977,1.125c0.117-0.314,0.281-0.539,0.492-0.668c0.211-0.129,0.516-0.191,0.914-0.191
		c0.434,0,0.738,0.104,0.914,0.314c0.176,0.211,0.264,0.646,0.264,1.301c0,1.148,0.012,2.22,0.035,3.208
		c0.023,0.99,0.035,1.421,0.035,1.292c0,0.553-0.094,0.925-0.281,1.116c-0.187,0.193-0.521,0.29-1.002,0.29
		c-0.773,0-1.277-0.551-1.512-1.652c-0.082-0.326-0.146-0.578-0.193-0.756c-0.223-0.879-0.756-1.597-1.6-2.151
		c-0.844-0.558-1.834-0.835-2.971-0.835c-2.074,0-3.738,0.759-4.992,2.274c-1.254,1.519-1.881,3.556-1.881,6.108
		s0.636,4.591,1.907,6.106c1.271,1.519,2.95,2.276,5.036,2.276c0.68,0,1.371-0.097,2.074-0.29c0.703-0.193,1.395-0.483,2.074-0.87
		c0.316-0.164,0.75-0.44,1.301-0.835c0.551-0.393,0.943-0.589,1.178-0.589c0.363,0,0.671,0.12,0.923,0.36
		c0.252,0.238,0.378,0.535,0.378,0.888c0,0.352-0.138,0.688-0.413,1.011c-0.275,0.323-0.788,0.718-1.538,1.188
		c-0.984,0.645-1.975,1.119-2.971,1.424s-2.045,0.457-3.146,0.457c-2.895,0-5.285-1.022-7.172-3.067C0.943,16.79,0,14.174,0,10.986
		c0-3.152,0.955-5.771,2.865-7.857C4.775,1.043,7.178,0,10.072,0c0.773,0,1.562,0.094,2.364,0.281
		C13.238,0.468,14.086,0.75,14.977,1.125z"/>
	<path fill="#222222" d="M40.254,13.289c0,2.508-0.855,4.561-2.566,6.152s-3.932,2.391-6.662,2.391
		c-2.719,0-4.934-0.797-6.645-2.391s-2.566-3.646-2.566-6.152s0.855-4.556,2.566-6.144s3.926-2.382,6.645-2.382
		c2.721,0,4.938,0.797,6.654,2.391C39.395,8.748,40.254,10.793,40.254,13.289z M31.025,19.371c1.805,0,3.283-0.571,4.438-1.714
		c1.155-1.143,1.73-2.599,1.73-4.368c0-1.769-0.58-3.229-1.739-4.386c-1.16-1.155-2.638-1.731-4.431-1.731s-3.268,0.577-4.42,1.731
		c-1.154,1.154-1.731,2.616-1.731,4.386c0,1.781,0.573,3.24,1.724,4.377C27.744,18.802,29.221,19.371,31.025,19.371z"/>
</g>
</svg>
