<?xml version="1.0" encoding="utf-8"?>
<!-- Generator: Adobe Illustrator 16.0.0, SVG Export Plug-In . SVG Version: 6.00 Build 0)  -->
<!DOCTYPE svg PUBLIC "-//W3C//DTD SVG 1.1 Tiny//EN" "http://www.w3.org/Graphics/SVG/1.1/DTD/svg11-tiny.dtd">
<svg version="1.1" baseProfile="tiny" id="Layer_1" xmlns="http://www.w3.org/2000/svg" xmlns:xlink="http://www.w3.org/1999/xlink"
	 x="0px" y="0px" width="40.254px" height="21.902px" viewBox="0 0 40.254 21.902" xml:space="preserve">
<g>
	<path d="M14.977,1.125c0.117-0.316,0.281-0.539,0.492-0.668s0.516-0.193,0.914-0.193c0.434,0,0.738,0.105,0.914,0.316
		s0.264,0.645,0.264,1.301c0,1.148,0.012,2.218,0.035,3.208s0.035,1.421,0.035,1.292c0,0.551-0.094,0.923-0.281,1.116
		s-0.521,0.29-1.002,0.29c-0.773,0-1.277-0.551-1.512-1.652c-0.082-0.328-0.146-0.58-0.193-0.756
		c-0.223-0.879-0.756-1.597-1.6-2.153s-1.834-0.835-2.971-0.835c-2.074,0-3.738,0.759-4.992,2.276s-1.881,3.554-1.881,6.108
		s0.636,4.591,1.907,6.108s2.95,2.276,5.036,2.276c0.68,0,1.371-0.097,2.074-0.29s1.395-0.483,2.074-0.87
		c0.316-0.164,0.75-0.442,1.301-0.835s0.943-0.589,1.178-0.589c0.363,0,0.671,0.12,0.923,0.36s0.378,0.536,0.378,0.888
		s-0.138,0.688-0.413,1.011s-0.788,0.718-1.538,1.187c-0.984,0.645-1.975,1.119-2.971,1.424s-2.045,0.457-3.146,0.457
		c-2.895,0-5.285-1.022-7.172-3.067S0,14.174,0,10.986c0-3.152,0.955-5.771,2.865-7.857S7.178,0,10.072,0
		c0.773,0,1.562,0.094,2.364,0.281S14.086,0.75,14.977,1.125z"/>
	<path d="M40.254,13.289c0,2.508-0.855,4.559-2.566,6.152s-3.932,2.391-6.662,2.391c-2.719,0-4.934-0.797-6.645-2.391
		s-2.566-3.645-2.566-6.152s0.855-4.556,2.566-6.144s3.926-2.382,6.645-2.382s4.937,0.797,6.653,2.391S40.254,10.793,40.254,13.289z
		 M31.025,19.371c1.805,0,3.284-0.571,4.438-1.714s1.731-2.599,1.731-4.368s-0.58-3.231-1.74-4.386s-2.637-1.731-4.43-1.731
		s-3.267,0.577-4.421,1.731s-1.731,2.616-1.731,4.386c0,1.781,0.574,3.24,1.723,4.377S29.221,19.371,31.025,19.371z"/>
</g>
</svg>
