<?xml version="1.0" encoding="utf-8"?>
<!-- Generator: Adobe Illustrator 16.0.0, SVG Export Plug-In . SVG Version: 6.00 Build 0)  -->
<!DOCTYPE svg PUBLIC "-//W3C//DTD SVG 1.1//EN" "http://www.w3.org/Graphics/SVG/1.1/DTD/svg11.dtd">
<svg version="1.1" id="Layer_1" xmlns="http://www.w3.org/2000/svg" xmlns:xlink="http://www.w3.org/1999/xlink" x="0px" y="0px"
	 width="35.602px" height="25.484px" viewBox="0 0 35.602 25.484" enable-background="new 0 0 35.602 25.484" xml:space="preserve">
<g>
	<path fill="#222222" d="M6.801,25.742c-3.121,0-5.618-0.551-7.16-1.432V1.175C1.294,0.33,3.643-0.258,6.544-0.258
		c7.638,0,10.946,5.25,10.946,12.816C17.488,20.088,14.44,25.742,6.801,25.742z M6.655,2.791c-0.994,0-1.726,0.11-2.386,0.367
		v18.985c0.551,0.185,1.467,0.366,2.461,0.366c4.331,0,6.02-3.159,6.02-10.024C12.751,5.911,10.878,2.791,6.655,2.791z"/>
	<path fill="#222222" d="M28.801,25.742c-5.397,0-8.079-2.202-8.079-6.021c0-5.212,5.031-6.72,11.053-7.307v-1.065
		c0-2.571-1.614-3.269-3.932-3.269c-1.91,0-3.745,0.625-4.955,1.212l-1.031-2.572c1.288-0.623,3.676-1.506,6.794-1.506
		c4.077,0,7.308,1.727,7.308,6.831v12.265C34.382,25.155,31.884,25.742,28.801,25.742z M31.775,14.541
		c-4.225,0.515-6.83,1.433-6.83,5.032c0,2.572,1.542,3.674,4.149,3.674c1.028,0,2.019-0.222,2.68-0.551L31.775,14.541L31.775,14.541
		z"/>
</g>
</svg>
