<?xml version="1.0" encoding="utf-8"?>
<!-- Generator: Adobe Illustrator 16.0.0, SVG Export Plug-In . SVG Version: 6.00 Build 0)  -->
<!DOCTYPE svg PUBLIC "-//W3C//DTD SVG 1.1 Tiny//EN" "http://www.w3.org/Graphics/SVG/1.1/DTD/svg11-tiny.dtd">
<svg version="1.1" baseProfile="tiny" id="Layer_1" xmlns="http://www.w3.org/2000/svg" xmlns:xlink="http://www.w3.org/1999/xlink"
	 x="0px" y="0px" width="35.602px" height="25.485px" viewBox="0 0 35.602 25.485" xml:space="preserve">
<g>
	<path d="M7.019,25.485c-3.06,0-5.507-0.54-7.019-1.404V1.404C1.62,0.576,3.923,0,6.767,0c7.487,0,10.727,5.147,10.727,12.562
		C17.494,19.942,14.506,25.485,7.019,25.485z M6.875,2.988c-0.972,0-1.691,0.108-2.339,0.36v18.61c0.54,0.18,1.439,0.36,2.412,0.36
		c4.248,0,5.903-3.096,5.903-9.827C12.851,6.047,11.015,2.988,6.875,2.988z"/>
	<path d="M28.583,25.485c-5.291,0-7.919-2.16-7.919-5.903c0-5.111,4.932-6.587,10.834-7.163v-1.044c0-2.52-1.583-3.204-3.852-3.204
		c-1.872,0-3.671,0.612-4.859,1.188l-1.008-2.52c1.26-0.612,3.6-1.476,6.659-1.476c3.996,0,7.163,1.692,7.163,6.695v12.022
		C34.054,24.909,31.606,25.485,28.583,25.485z M31.498,14.506c-4.139,0.504-6.695,1.404-6.695,4.931c0,2.52,1.512,3.6,4.067,3.6
		c1.008,0,1.979-0.216,2.627-0.54V14.506z"/>
</g>
</svg>
