<?xml version="1.0" encoding="utf-8"?>
<!-- Generator: Adobe Illustrator 16.0.0, SVG Export Plug-In . SVG Version: 6.00 Build 0)  -->
<!DOCTYPE svg PUBLIC "-//W3C//DTD SVG 1.1//EN" "http://www.w3.org/Graphics/SVG/1.1/DTD/svg11.dtd">
<svg version="1.1" id="Layer_1" xmlns="http://www.w3.org/2000/svg" xmlns:xlink="http://www.w3.org/1999/xlink" x="0px" y="0px"
	 width="35.602px" height="25.484px" viewBox="0 0 35.602 25.484" enable-background="new 0 0 35.602 25.484" xml:space="preserve">
<g>
	<path fill="#222222" d="M7.019,25.485c-3.06,0-5.507-0.54-7.019-1.403V1.404C1.62,0.576,3.923,0,6.767,0
		c7.487,0,10.729,5.146,10.729,12.562C17.494,19.942,14.506,25.485,7.019,25.485z M6.875,2.988c-0.974,0-1.691,0.108-2.339,0.36
		v18.609c0.54,0.181,1.438,0.359,2.412,0.359c4.246,0,5.901-3.096,5.901-9.826C12.851,6.047,11.015,2.988,6.875,2.988z"/>
	<path fill="#222222" d="M28.583,25.485c-5.291,0-7.919-2.159-7.919-5.902c0-5.11,4.932-6.587,10.834-7.163v-1.044
		c0-2.521-1.583-3.204-3.854-3.204c-1.872,0-3.671,0.612-4.857,1.188l-1.01-2.521c1.262-0.611,3.602-1.477,6.659-1.477
		c3.996,0,7.163,1.692,7.163,6.695V24.08C34.054,24.909,31.606,25.485,28.583,25.485z M31.498,14.506
		c-4.141,0.504-6.695,1.404-6.695,4.932c0,2.521,1.512,3.601,4.067,3.601c1.008,0,1.979-0.217,2.627-0.54L31.498,14.506
		L31.498,14.506z"/>
</g>
</svg>
