<?xml version="1.0" encoding="utf-8"?>
<!-- Generator: Adobe Illustrator 16.0.0, SVG Export Plug-In . SVG Version: 6.00 Build 0)  -->
<!DOCTYPE svg PUBLIC "-//W3C//DTD SVG 1.1//EN" "http://www.w3.org/Graphics/SVG/1.1/DTD/svg11.dtd">
<svg version="1.1" id="Layer_1" xmlns="http://www.w3.org/2000/svg" xmlns:xlink="http://www.w3.org/1999/xlink" x="0px" y="0px"
	 width="25.488px" height="25.883px" viewBox="0 0 25.488 25.883" enable-background="new 0 0 25.488 25.883" xml:space="preserve">
<g>
	<path fill="#222222" d="M-0.057,25.291h4.014V0.557h-4.014V0.051h6.726c0.337,0,0.675-0.006,1.012-0.018
		c0.336-0.012,0.674-0.03,1.012-0.054c0.337,0,0.675-0.005,1.015-0.018c0.335-0.012,0.673-0.018,1.011-0.018
		c0.723,0,1.365,0.013,1.934,0.036c0.564,0.024,1.097,0.066,1.591,0.126c0.494,0.062,0.964,0.145,1.41,0.253
		c0.443,0.108,0.922,0.248,1.429,0.416c1.469,0.482,2.74,1.127,3.814,1.934c1.073,0.808,1.953,1.742,2.64,2.803
		c0.687,1.062,1.193,2.218,1.519,3.471c0.325,1.254,0.488,2.567,0.488,3.941c0,1.591-0.193,3.02-0.579,4.284
		c-0.385,1.268-0.917,2.388-1.591,3.365c-0.675,0.977-1.464,1.82-2.365,2.532c-0.905,0.712-1.875,1.283-2.912,1.719
		c-0.578,0.267-1.127,0.469-1.645,0.612c-0.522,0.146-1.049,0.253-1.591,0.325c-0.543,0.07-1.143,0.122-1.791,0.147
		c-0.651,0.021-1.401,0.033-2.242,0.033c-0.359,0-0.747-0.006-1.155-0.018c-0.411-0.014-0.82-0.029-1.232-0.055
		c-0.41-0.024-0.813-0.044-1.211-0.056c-0.397-0.012-0.775-0.018-1.139-0.018h-6.149V25.291z M7.573,25.291
		c0.407,0.048,0.886,0.084,1.428,0.107s1.139,0.035,1.787,0.035c0.82,0,1.633-0.041,2.443-0.126
		c0.808-0.084,1.576-0.265,2.314-0.543c0.735-0.276,1.422-0.675,2.061-1.194c0.642-0.519,1.212-1.197,1.718-2.041
		c0.773-1.304,1.311-2.635,1.611-3.997c0.302-1.361,0.452-2.852,0.452-4.467c0-1.904-0.184-3.634-0.542-5.189
		c-0.362-1.555-0.959-2.88-1.79-3.978c-0.834-1.094-1.937-1.944-3.311-2.546c-1.375-0.603-3.077-0.904-5.099-0.904
		c-0.603,0-1.151,0.012-1.645,0.036C8.508,0.509,8.031,0.533,7.573,0.557V25.291z"/>
</g>
</svg>
