<?xml version="1.0" encoding="utf-8"?>
<!-- Generator: Adobe Illustrator 16.0.0, SVG Export Plug-In . SVG Version: 6.00 Build 0)  -->
<!DOCTYPE svg PUBLIC "-//W3C//DTD SVG 1.1//EN" "http://www.w3.org/Graphics/SVG/1.1/DTD/svg11.dtd">
<svg version="1.1" id="Layer_1" xmlns="http://www.w3.org/2000/svg" xmlns:xlink="http://www.w3.org/1999/xlink" x="0px" y="0px"
	 width="25.488px" height="25.883px" viewBox="0 0 25.488 25.883" enable-background="new 0 0 25.488 25.883" xml:space="preserve">
<g>
	<path fill="#222222" d="M0,25.236h3.996V0.612H0V0.108h6.696c0.336,0,0.672-0.006,1.008-0.018c0.335-0.012,0.671-0.03,1.008-0.054
		c0.336,0,0.672-0.005,1.01-0.018C10.056,0.006,10.392,0,10.728,0c0.72,0,1.36,0.013,1.926,0.036
		c0.562,0.024,1.092,0.066,1.584,0.126c0.492,0.061,0.96,0.144,1.404,0.252c0.442,0.108,0.918,0.247,1.422,0.414
		c1.463,0.48,2.729,1.122,3.798,1.926c1.068,0.804,1.944,1.734,2.628,2.79C24.174,6.601,24.678,7.752,25.002,9
		c0.324,1.249,0.486,2.556,0.486,3.924c0,1.584-0.192,3.006-0.576,4.266c-0.384,1.261-0.913,2.377-1.584,3.349
		c-0.672,0.973-1.458,1.812-2.356,2.521c-0.9,0.709-1.866,1.278-2.898,1.711c-0.576,0.266-1.122,0.467-1.638,0.61
		c-0.519,0.146-1.044,0.252-1.584,0.324c-0.54,0.071-1.136,0.121-1.782,0.146c-0.648,0.022-1.394,0.034-2.232,0.034
		c-0.358,0-0.744-0.006-1.15-0.018c-0.409-0.013-0.816-0.029-1.226-0.054c-0.409-0.025-0.81-0.043-1.206-0.055
		c-0.396-0.012-0.772-0.018-1.134-0.018H0V25.236z M7.596,25.236c0.406,0.048,0.882,0.084,1.422,0.107s1.134,0.035,1.78,0.035
		c0.816,0,1.626-0.041,2.432-0.125c0.804-0.084,1.57-0.264,2.304-0.541c0.732-0.275,1.416-0.672,2.052-1.188
		c0.638-0.517,1.206-1.193,1.71-2.033c0.77-1.297,1.304-2.623,1.604-3.979c0.3-1.356,0.45-2.839,0.45-4.447
		c0-1.896-0.182-3.618-0.54-5.166c-0.36-1.548-0.954-2.868-1.782-3.96C18.198,2.85,17.1,2.004,15.732,1.404
		c-1.368-0.6-3.062-0.9-5.076-0.9c-0.6,0-1.146,0.012-1.638,0.036C8.526,0.564,8.052,0.588,7.596,0.612V25.236z"/>
</g>
</svg>
