<?xml version="1.0" encoding="utf-8"?>
<!-- Generator: Adobe Illustrator 16.0.0, SVG Export Plug-In . SVG Version: 6.00 Build 0)  -->
<!DOCTYPE svg PUBLIC "-//W3C//DTD SVG 1.1//EN" "http://www.w3.org/Graphics/SVG/1.1/DTD/svg11.dtd">
<svg version="1.1" id="Layer_1" xmlns="http://www.w3.org/2000/svg" xmlns:xlink="http://www.w3.org/1999/xlink" x="0px" y="0px"
	 width="25.488px" height="25.884px" viewBox="0 0 25.488 25.884" enable-background="new 0 0 25.488 25.884" xml:space="preserve">
<g>
	<path d="M0,25.236h3.996V0.612H0V0.108h6.696c0.336,0,0.672-0.006,1.008-0.018c0.335-0.012,0.671-0.03,1.008-0.054
		c0.336,0,0.672-0.005,1.008-0.018C10.056,0.006,10.392,0,10.728,0c0.72,0,1.362,0.013,1.926,0.036
		c0.564,0.024,1.092,0.066,1.584,0.126c0.492,0.061,0.96,0.144,1.404,0.252c0.444,0.108,0.918,0.247,1.422,0.414
		c1.463,0.48,2.73,1.122,3.798,1.926s1.944,1.734,2.628,2.79C24.174,6.601,24.678,7.752,25.002,9
		c0.324,1.249,0.486,2.556,0.486,3.924c0,1.584-0.192,3.006-0.576,4.266c-0.384,1.26-0.913,2.376-1.584,3.348
		c-0.672,0.972-1.458,1.812-2.358,2.52c-0.9,0.708-1.866,1.278-2.898,1.71c-0.576,0.265-1.122,0.468-1.638,0.612
		c-0.517,0.144-1.044,0.252-1.584,0.324c-0.54,0.072-1.134,0.12-1.782,0.144s-1.392,0.036-2.232,0.036
		c-0.36,0-0.744-0.006-1.152-0.018c-0.409-0.012-0.816-0.03-1.224-0.054c-0.408-0.024-0.81-0.042-1.206-0.054
		C6.858,25.746,6.48,25.74,6.12,25.74H0V25.236z M7.596,25.236c0.408,0.048,0.882,0.084,1.422,0.108
		c0.54,0.024,1.134,0.036,1.782,0.036c0.816,0,1.626-0.042,2.43-0.126c0.804-0.084,1.572-0.264,2.304-0.54s1.416-0.672,2.052-1.188
		c0.636-0.516,1.206-1.194,1.71-2.034c0.768-1.296,1.302-2.622,1.602-3.978c0.3-1.355,0.45-2.838,0.45-4.446
		c0-1.896-0.18-3.618-0.54-5.166c-0.36-1.548-0.954-2.868-1.782-3.96c-0.828-1.092-1.926-1.938-3.294-2.538
		c-1.368-0.6-3.06-0.9-5.076-0.9c-0.6,0-1.146,0.012-1.638,0.036C8.526,0.564,8.052,0.588,7.596,0.612V25.236z"/>
</g>
</svg>
