<?xml version="1.0" encoding="utf-8"?>
<!-- Generator: Adobe Illustrator 16.0.0, SVG Export Plug-In . SVG Version: 6.00 Build 0)  -->
<!DOCTYPE svg PUBLIC "-//W3C//DTD SVG 1.1//EN" "http://www.w3.org/Graphics/SVG/1.1/DTD/svg11.dtd">
<svg version="1.1" id="Layer_1" xmlns="http://www.w3.org/2000/svg" xmlns:xlink="http://www.w3.org/1999/xlink" x="0px" y="0px"
	 width="27.352px" height="25.734px" viewBox="0 0 27.352 25.734" enable-background="new 0 0 27.352 25.734" xml:space="preserve">
<g>
	<path fill="#222222" d="M18.246,12.744v1.283c0,1.383-0.055,2.59-0.159,3.621c-0.106,1.031-0.351,2.045-0.73,3.041
		s-0.953,1.875-1.715,2.637c-1.605,1.605-3.816,2.408-6.633,2.408H0V0.105h9.009c2.815,0,5.026,0.803,6.633,2.408
		c0.762,0.762,1.334,1.615,1.715,2.564s0.625,1.916,0.73,2.9c0.104,0.982,0.159,2.139,0.159,3.463V12.744z M14.361,12.753
		c0-1.476-0.021-2.612-0.068-3.416c-0.047-0.802-0.173-1.554-0.378-2.257C13.708,6.378,13.4,5.799,12.99,5.342
		c-1.057-1.157-2.51-1.737-4.359-1.737H3.92v18.633h4.711c1.863,0,3.314-0.573,4.359-1.721c0.607-0.667,0.988-1.574,1.143-2.724
		C14.285,16.646,14.361,14.966,14.361,12.753z"/>
	<path fill="#222222" d="M27.352,3.885h-3.885V0h3.885V3.885z M27.246,25.734h-3.676V7.488h3.676V25.734z"/>
</g>
</svg>
