<?xml version="1.0" encoding="utf-8"?>
<!-- Generator: Adobe Illustrator 16.0.0, SVG Export Plug-In . SVG Version: 6.00 Build 0)  -->
<!DOCTYPE svg PUBLIC "-//W3C//DTD SVG 1.1 Tiny//EN" "http://www.w3.org/Graphics/SVG/1.1/DTD/svg11-tiny.dtd">
<svg version="1.1" baseProfile="tiny" id="Layer_1" xmlns="http://www.w3.org/2000/svg" xmlns:xlink="http://www.w3.org/1999/xlink"
	 x="0px" y="0px" width="27.352px" height="25.734px" viewBox="0 0 27.352 25.734" xml:space="preserve">
<g>
	<path d="M18.246,12.744v1.283c0,1.383-0.053,2.59-0.159,3.621s-0.349,2.045-0.73,3.041c-0.381,0.996-0.953,1.875-1.715,2.637
		c-1.607,1.605-3.818,2.408-6.633,2.408H0V0.105h9.009c2.815,0,5.026,0.803,6.633,2.408c0.762,0.762,1.334,1.617,1.715,2.566
		c0.381,0.949,0.625,1.916,0.73,2.9s0.159,2.139,0.159,3.463V12.744z M14.361,12.753c0-1.476-0.023-2.614-0.07-3.416
		c-0.047-0.802-0.173-1.554-0.378-2.257C13.708,6.378,13.4,5.799,12.99,5.342c-1.055-1.159-2.508-1.739-4.359-1.739H3.92v18.633
		h4.711c1.863,0,3.316-0.573,4.359-1.721c0.609-0.667,0.99-1.574,1.143-2.722C14.285,16.646,14.361,14.966,14.361,12.753z"/>
	<path d="M27.352,3.885h-3.885V0h3.885V3.885z M27.246,25.734h-3.674V7.488h3.674V25.734z"/>
</g>
</svg>
