<?xml version="1.0" encoding="utf-8"?>
<!-- Generator: Adobe Illustrator 16.0.0, SVG Export Plug-In . SVG Version: 6.00 Build 0)  -->
<!DOCTYPE svg PUBLIC "-//W3C//DTD SVG 1.1//EN" "http://www.w3.org/Graphics/SVG/1.1/DTD/svg11.dtd">
<svg version="1.1" id="Layer_1" xmlns="http://www.w3.org/2000/svg" xmlns:xlink="http://www.w3.org/1999/xlink" x="0px" y="0px"
	 width="42.518px" height="31.965px" viewBox="293.76 231.492 42.518 31.965" enable-background="new 293.76 231.492 42.518 31.965"
	 xml:space="preserve">
<g>
	<path fill="#222222" d="M293.76,255.5v-1.656c0.396-0.035,0.684-0.035,0.9-0.035c1.296-0.072,1.942-0.324,2.268-0.936
		c0.216-0.434,0.252-0.828,0.252-2.521v-13.713c0-1.656-0.036-2.054-0.252-2.521c-0.288-0.613-0.972-0.865-2.268-0.9
		c-0.218-0.036-0.504-0.036-0.9-0.036v-1.689h19.51l-0.034,0.756v2.016v2.592l0.034,1.045h-2.268l-0.036-0.647
		c-0.072-1.478-0.106-1.765-0.216-2.305c-0.181-0.9-0.648-1.115-2.376-1.152l-1.439-0.035h-5.938v8.314h2.916
		c2.591,0,2.843-0.181,2.952-2.375l0.036-0.757h1.941c-0.036,1.619-0.036,2.16-0.036,4.066v3.24l0.036,1.295h-1.941
		c0-0.432-0.036-0.791-0.036-1.008c-0.036-0.432-0.108-0.863-0.182-1.225c-0.216-0.828-0.828-1.08-2.664-1.08h-3.021v9h6.263
		l1.656-0.035c1.943-0.037,2.124-0.361,2.376-4.537h2.123c-0.036,1.332-0.036,1.836-0.036,3.24c0,1.549,0,2.123,0.036,3.6H293.76z"
		/>
	<path fill="#222222" d="M334.438,240.346c-0.826,0.217-0.898,0.432-0.898,2.629v11.123c0,3.778-0.323,5.254-1.439,6.768
		c-1.26,1.654-3.707,2.592-6.803,2.592c-1.116,0-2.23-0.072-3.384-0.252c-1.764-0.289-2.412-0.469-3.996-1.117v-0.684
		c0-0.504,0.036-1.008,0.036-1.549c0-0.574-0.036-1.15-0.036-1.728v-0.864h1.765c0.071,1.297,0.071,1.44,0.218,2.018
		c0.357,1.402,2.016,2.195,4.569,2.195c2.124,0,3.707-0.576,4.571-1.691c0.684-0.9,0.972-2.123,0.972-4.141v-2.447
		c-0.322,0.287-0.609,0.539-0.861,0.756c-1.332,1.115-2.846,1.621-4.752,1.621c-4.896,0-7.849-3.275-7.849-8.676
		c0-5.401,3.023-8.748,7.883-8.748c1.08,0,2.054,0.145,2.916,0.469c1.044,0.359,1.655,0.863,2.987,2.16v-2.123l1.26,0.035
		c0.864,0.035,1.439,0.035,1.766,0.035c0.252,0,0.828,0,1.654-0.035l1.262-0.035v1.475
		C335.157,240.203,334.943,240.238,334.438,240.346z M325.223,240.525c-3.204,0-4.896,2.231-4.896,6.442
		c0,4.105,1.764,6.371,4.896,6.371c3.203,0,4.934-2.231,4.934-6.334C330.156,242.757,328.462,240.525,325.223,240.525z"/>
</g>
</svg>
