<?xml version="1.0" encoding="utf-8"?>
<!-- Generator: Adobe Illustrator 16.0.0, SVG Export Plug-In . SVG Version: 6.00 Build 0)  -->
<!DOCTYPE svg PUBLIC "-//W3C//DTD SVG 1.1//EN" "http://www.w3.org/Graphics/SVG/1.1/DTD/svg11.dtd">
<svg version="1.1" id="Layer_1" xmlns="http://www.w3.org/2000/svg" xmlns:xlink="http://www.w3.org/1999/xlink" x="0px" y="0px"
	 width="45.227px" height="34px" viewBox="292.406 230.476 45.227 34" enable-background="new 292.406 230.476 45.227 34"
	 xml:space="preserve">
<g>
	<path fill="#222222" d="M297.727,254.003v-1.348c0.323-0.028,0.557-0.028,0.733-0.028c1.054-0.059,1.578-0.264,1.844-0.761
		c0.176-0.353,0.205-0.674,0.205-2.051V238.66c0-1.347-0.029-1.669-0.205-2.05c-0.234-0.499-0.79-0.703-1.844-0.732
		c-0.179-0.029-0.41-0.029-0.733-0.029v-1.373h15.869l-0.026,0.614v1.641v2.108l0.026,0.85h-1.844l-0.029-0.526
		c-0.06-1.202-0.086-1.435-0.176-1.875c-0.147-0.731-0.528-0.906-1.933-0.938l-1.171-0.027h-4.829v6.763h2.371
		c2.107,0,2.312-0.147,2.401-1.933l0.029-0.615h1.578c-0.029,1.316-0.029,1.757-0.029,3.307v2.636l0.029,1.054h-1.578
		c0-0.352-0.029-0.644-0.029-0.82c-0.029-0.352-0.088-0.702-0.148-0.997c-0.176-0.673-0.674-0.878-2.167-0.878h-2.457v7.32h5.094
		l1.348-0.028c1.581-0.029,1.729-0.293,1.933-3.69h1.727c-0.029,1.084-0.029,1.494-0.029,2.635c0,1.261,0,1.728,0.029,2.929H297.727
		L297.727,254.003z"/>
	<path fill="#222222" d="M330.815,241.676c-0.672,0.177-0.73,0.352-0.73,2.139v9.048c0,3.073-0.264,4.272-1.171,5.505
		c-1.024,1.345-3.016,2.108-5.533,2.108c-0.908,0-1.813-0.059-2.753-0.205c-1.434-0.234-1.962-0.382-3.25-0.908v-0.557
		c0-0.41,0.029-0.82,0.029-1.261c0-0.466-0.029-0.935-0.029-1.405v-0.702h1.436c0.059,1.055,0.059,1.171,0.178,1.642
		c0.29,1.14,1.64,1.785,3.716,1.785c1.729,0,3.016-0.469,3.719-1.375c0.556-0.732,0.79-1.728,0.79-3.369v-1.99
		c-0.261,0.233-0.495,0.438-0.7,0.615c-1.083,0.906-2.314,1.318-3.864,1.318c-3.983,0-6.385-2.663-6.385-7.058
		c0-4.393,2.459-7.115,6.411-7.115c0.879,0,1.672,0.118,2.372,0.382c0.849,0.292,1.347,0.701,2.43,1.756v-1.726l1.025,0.027
		c0.702,0.029,1.171,0.029,1.437,0.029c0.204,0,0.674,0,1.345-0.029l1.027-0.027v1.199
		C331.4,241.561,331.226,241.589,330.815,241.676z M323.319,241.822c-2.606,0-3.981,1.814-3.981,5.239
		c0,3.339,1.435,5.183,3.981,5.183c2.605,0,4.014-1.814,4.014-5.152C327.332,243.637,325.953,241.822,323.319,241.822z"/>
</g>
</svg>
