<?xml version="1.0" encoding="utf-8"?>
<!-- Generator: Adobe Illustrator 16.0.0, SVG Export Plug-In . SVG Version: 6.00 Build 0)  -->
<!DOCTYPE svg PUBLIC "-//W3C//DTD SVG 1.1 Tiny//EN" "http://www.w3.org/Graphics/SVG/1.1/DTD/svg11-tiny.dtd">
<svg version="1.1" baseProfile="tiny" id="Layer_1" xmlns="http://www.w3.org/2000/svg" xmlns:xlink="http://www.w3.org/1999/xlink"
	 x="0px" y="0px" width="42.514px" height="31.964px" viewBox="293.76 231.491 42.514 31.964" xml:space="preserve">
<g>
	<path d="M293.76,255.5v-1.656c0.396-0.036,0.684-0.036,0.9-0.036c1.296-0.072,1.944-0.324,2.268-0.936
		c0.216-0.432,0.252-0.828,0.252-2.52v-13.714c0-1.656-0.036-2.052-0.252-2.52c-0.288-0.612-0.972-0.864-2.268-0.9
		c-0.216-0.036-0.504-0.036-0.9-0.036v-1.691h19.51l-0.036,0.756v2.016v2.592l0.036,1.044h-2.268l-0.036-0.648
		c-0.072-1.476-0.108-1.764-0.216-2.304c-0.181-0.9-0.648-1.116-2.376-1.152l-1.439-0.036h-5.939v8.315h2.916
		c2.591,0,2.843-0.18,2.952-2.376l0.036-0.756h1.943c-0.036,1.62-0.036,2.16-0.036,4.068v3.239l0.036,1.296h-1.943
		c0-0.432-0.036-0.792-0.036-1.008c-0.036-0.432-0.108-0.864-0.18-1.224c-0.216-0.828-0.828-1.08-2.664-1.08h-3.023v8.999h6.263
		l1.656-0.036c1.943-0.036,2.124-0.36,2.376-4.536h2.123c-0.036,1.332-0.036,1.836-0.036,3.24c0,1.548,0,2.124,0.036,3.6H293.76z"/>
	<path d="M334.438,240.346c-0.828,0.216-0.9,0.432-0.9,2.628v11.123c0,3.779-0.323,5.255-1.439,6.767
		c-1.26,1.656-3.707,2.592-6.803,2.592c-1.116,0-2.232-0.072-3.384-0.252c-1.764-0.288-2.412-0.468-3.996-1.116v-0.684
		c0-0.504,0.036-1.008,0.036-1.548c0-0.576-0.036-1.152-0.036-1.728v-0.864h1.765c0.071,1.296,0.071,1.44,0.216,2.016
		c0.359,1.404,2.016,2.196,4.571,2.196c2.124,0,3.707-0.576,4.571-1.691c0.684-0.9,0.972-2.124,0.972-4.14v-2.448
		c-0.324,0.288-0.611,0.54-0.863,0.756c-1.332,1.116-2.844,1.62-4.752,1.62c-4.896,0-7.847-3.275-7.847-8.675
		s3.023-8.747,7.883-8.747c1.08,0,2.052,0.144,2.916,0.468c1.044,0.36,1.655,0.864,2.987,2.16v-2.124l1.26,0.036
		c0.864,0.036,1.439,0.036,1.764,0.036c0.252,0,0.828,0,1.656-0.036l1.26-0.036v1.476
		C335.157,240.202,334.941,240.238,334.438,240.346z M325.223,240.526c-3.204,0-4.896,2.232-4.896,6.443
		c0,4.104,1.764,6.371,4.896,6.371c3.203,0,4.932-2.232,4.932-6.335C330.154,242.758,328.462,240.526,325.223,240.526z"/>
</g>
</svg>
