<?xml version="1.0" encoding="utf-8"?>
<!-- Generator: Adobe Illustrator 16.0.0, SVG Export Plug-In . SVG Version: 6.00 Build 0)  -->
<!DOCTYPE svg PUBLIC "-//W3C//DTD SVG 1.1//EN" "http://www.w3.org/Graphics/SVG/1.1/DTD/svg11.dtd">
<svg version="1.1" id="Layer_1" xmlns="http://www.w3.org/2000/svg" xmlns:xlink="http://www.w3.org/1999/xlink" x="0px" y="0px"
	 width="35.494px" height="25.881px" viewBox="0 0 35.494 25.881" enable-background="new 0 0 35.494 25.881" xml:space="preserve">
<g>
	<path fill="#222222" d="M0,0h15.766v3.096H3.852v8.747h11.123v3.024H3.852V25.45H0V0z"/>
	<path fill="#222222" d="M18.792,15.946c0-7.955,3.959-10.655,9.18-10.655c5.254,0,7.522,3.528,7.522,9.899v1.332H22.571
		c0.072,5.361,2.951,6.227,6.768,6.227c1.404,0,3.852-0.504,5.075-0.792l0.612,2.987c-1.08,0.361-3.563,0.937-6.551,0.937
		C22.571,25.881,18.792,23.577,18.792,15.946z M31.569,13.894c0.037-3.491-1.26-5.867-4.03-5.867c-2.7,0-4.606,2.016-4.896,5.867
		H31.569z"/>
</g>
</svg>
