<?xml version="1.0" encoding="utf-8"?>
<!-- Generator: Adobe Illustrator 16.0.0, SVG Export Plug-In . SVG Version: 6.00 Build 0)  -->
<!DOCTYPE svg PUBLIC "-//W3C//DTD SVG 1.1//EN" "http://www.w3.org/Graphics/SVG/1.1/DTD/svg11.dtd">
<svg version="1.1" id="Layer_1" xmlns="http://www.w3.org/2000/svg" xmlns:xlink="http://www.w3.org/1999/xlink" x="0px" y="0px"
	 width="35.494px" height="25.881px" viewBox="0 0 35.494 25.881" enable-background="new 0 0 35.494 25.881" xml:space="preserve">
<g>
	<path d="M0,0h15.766v3.096H3.852v8.747h11.123v3.024H3.852v10.583H0V0z"/>
	<path d="M18.792,15.946c0-7.955,3.959-10.655,9.179-10.655c5.255,0,7.523,3.528,7.523,9.899v1.332H22.571
		c0.072,5.363,2.952,6.227,6.768,6.227c1.404,0,3.851-0.504,5.075-0.792l0.612,2.988c-1.08,0.36-3.563,0.936-6.551,0.936
		C22.571,25.881,18.792,23.577,18.792,15.946z M31.57,13.894c0.036-3.491-1.26-5.867-4.031-5.867c-2.7,0-4.607,2.016-4.896,5.867
		H31.57z"/>
</g>
</svg>
