<?xml version="1.0" encoding="utf-8"?>
<!-- Generator: Adobe Illustrator 16.0.0, SVG Export Plug-In . SVG Version: 6.00 Build 0)  -->
<!DOCTYPE svg PUBLIC "-//W3C//DTD SVG 1.1//EN" "http://www.w3.org/Graphics/SVG/1.1/DTD/svg11.dtd">
<svg version="1.1" id="Layer_1" xmlns="http://www.w3.org/2000/svg" xmlns:xlink="http://www.w3.org/1999/xlink" x="0px" y="0px"
	 width="35.658px" height="26px" viewBox="-0.082 -0.06 35.658 26" enable-background="new -0.082 -0.06 35.658 26"
	 xml:space="preserve">
<g>
	<path fill="#222222" d="M-0.082-0.06h15.838v3.11H3.788v8.787h11.174v3.038H3.788v10.632h-3.87V-0.06z"/>
	<path fill="#222222" d="M18.797,15.96c0-7.992,3.978-10.704,9.222-10.704c5.278,0,7.558,3.544,7.558,9.945v1.338H22.594
		c0.072,5.385,2.965,6.255,6.799,6.255c1.41,0,3.869-0.506,5.099-0.795L35.105,25c-1.085,0.362-3.579,0.94-6.58,0.94
		C22.594,25.94,18.797,23.626,18.797,15.96z M31.633,13.897c0.037-3.506-1.266-5.893-4.049-5.893c-2.713,0-4.628,2.025-4.918,5.893
		H31.633z"/>
</g>
</svg>
