<?xml version="1.0" encoding="utf-8"?>
<!-- Generator: Adobe Illustrator 16.0.0, SVG Export Plug-In . SVG Version: 6.00 Build 0)  -->
<!DOCTYPE svg PUBLIC "-//W3C//DTD SVG 1.1 Tiny//EN" "http://www.w3.org/Graphics/SVG/1.1/DTD/svg11-tiny.dtd">
<svg version="1.1" baseProfile="tiny" id="Layer_1" xmlns="http://www.w3.org/2000/svg" xmlns:xlink="http://www.w3.org/1999/xlink"
	 x="0px" y="0px" width="30.499px" height="30.205px" viewBox="0 0 30.499 30.205" xml:space="preserve">
<g>
	<path d="M15.372,2.988c-1.032,1.224-2.532,3.096-4.5,5.616c-0.12,0.168-0.18,0.265-0.18,0.288c0,0.288,0.624,0.432,1.872,0.432
		c0.216,0,0.582-0.036,1.098-0.108c0.516-0.072,0.906-0.096,1.17-0.072L14.94,9.36c-0.648,2.472-1.092,3.804-1.332,3.996H8.964
		l-0.108,0.18c0,0.6,0.804,1.98,2.412,4.14c1.656,2.232,2.496,3.42,2.52,3.564c-0.264,0.96-1.272,2.592-3.024,4.896
		c-1.849,2.424-3.216,3.78-4.104,4.068c-0.84-0.192-2.136-1.08-3.888-2.664C0.924,25.884,0,24.648,0,23.832
		c0-0.383,0.21-0.978,0.63-1.782c0.419-0.804,0.786-1.362,1.098-1.674h0.108c0.696,0.936,1.632,2.016,2.808,3.24
		C6.252,25.272,7.404,26.1,8.1,26.1h0.108l0.576-0.612c-0.096-1.056-0.816-3.186-2.16-6.39C5.28,15.894,4.272,13.98,3.6,13.356
		l-0.972-0.18l-0.072-0.18l0.36-1.152c-0.048-0.456-0.504-1.296-1.368-2.52C0.684,8.1,0.252,7.308,0.252,6.948v-0.18
		c0.864-0.936,2.1-2.076,3.708-3.42c2.424-2.04,3.708-3.12,3.852-3.24L8.172,0c0.743,0.144,1.872,0.528,3.384,1.152
		c1.944,0.792,3.12,1.26,3.528,1.404l0.288,0.36V2.988z M10.8,5.94c0-0.408-0.564-0.768-1.692-1.08C8.196,4.621,7.44,4.5,6.84,4.5
		H6.156l-0.18,0.036c-0.024,0.168-0.108,0.378-0.252,0.63S5.508,5.676,5.508,5.94c0,0.265,0.18,0.888,0.54,1.872
		C6.48,8.94,6.9,9.504,7.308,9.504c0.504,0,1.211-0.468,2.124-1.404C10.344,7.164,10.8,6.444,10.8,5.94z"/>
	<path d="M30.492,8.28c-0.096,0.336-0.606,0.87-1.53,1.602c-0.924,0.732-1.386,1.218-1.386,1.458c0,0.096,0.383,1.026,1.152,2.79
		c0.768,1.764,1.152,3.162,1.152,4.194c0,0.264-1.068,1.362-3.204,3.294c-2.136,1.932-3.324,2.898-3.564,2.898
		c-0.096,0-1.254-0.504-3.474-1.512c-2.22-1.008-3.378-1.56-3.474-1.656l-0.036-0.288c0-0.408,0.372-1.026,1.116-1.854
		c0.744-0.828,1.116-1.386,1.116-1.674c0-0.12-0.222-0.774-0.666-1.962c-0.444-1.188-0.714-1.866-0.81-2.034
		c-0.12-0.696,0.648-2.003,2.304-3.924c1.584-1.824,2.808-2.916,3.672-3.276c0.312,0.024,0.708,0.144,1.188,0.36
		c0.384,0.192,0.768,0.372,1.152,0.54c1.248,0.48,2.976,0.72,5.184,0.72C30.479,8.052,30.516,8.16,30.492,8.28z M25.92,19.764
		c0-0.671-0.24-1.572-0.72-2.7c-0.552-1.296-1.104-1.944-1.656-1.944h-0.108l-0.504,0.54c-0.265,0.072-0.756,0.474-1.476,1.206
		c-0.72,0.732-1.08,1.206-1.08,1.422v0.072c0.336,0.48,1.002,0.936,1.998,1.368c0.996,0.432,1.806,0.648,2.43,0.648
		C25.547,20.376,25.92,20.172,25.92,19.764z M25.056,11.34c0-0.24-0.564-0.516-1.692-0.828c-1.008-0.264-1.704-0.396-2.088-0.396
		c-0.36,0-0.54,0.132-0.54,0.396c0,0.408,0.192,1.008,0.576,1.8c0.408,0.888,0.78,1.332,1.116,1.332
		c0.264,0,0.768-0.324,1.512-0.972C24.684,12.024,25.056,11.581,25.056,11.34z"/>
</g>
</svg>
