<?xml version="1.0" encoding="utf-8"?>
<!-- Generator: Adobe Illustrator 16.0.0, SVG Export Plug-In . SVG Version: 6.00 Build 0)  -->
<!DOCTYPE svg PUBLIC "-//W3C//DTD SVG 1.1//EN" "http://www.w3.org/Graphics/SVG/1.1/DTD/svg11.dtd">
<svg version="1.1" id="Layer_1" xmlns="http://www.w3.org/2000/svg" xmlns:xlink="http://www.w3.org/1999/xlink" x="0px" y="0px"
	 width="35.096px" height="32.766px" viewBox="0 0 35.096 32.766" enable-background="new 0 0 35.096 32.766" xml:space="preserve">
<g>
	<path fill="#222222" d="M16.065,8.859c-0.479,0.363-0.719,0.81-0.719,1.334c0,0.731,0.275,1.54,0.828,2.429
		c0.553,0.887,1.175,1.681,1.864,2.383c-0.167-0.81-0.25-1.334-0.25-1.579c0-0.959,0.316-1.78,0.95-2.461
		c0.635-0.682,1.431-1.022,2.39-1.022c0.871,0,1.64,0.252,2.306,0.756c0.667,0.504,1,1.174,1,2.011c0,0.775-0.242,1.438-0.726,1.985
		c-0.482,0.549-1.105,0.82-1.868,0.82c-0.646,0-1.194-0.255-1.651-0.764s-0.687-1.082-0.687-1.722c0-0.597,0.265-1.208,0.791-1.834
		c0.095-0.094,0.155-0.188,0.186-0.288c0-0.162-0.12-0.244-0.359-0.244c-0.583,0.062-1.045,0.364-1.388,0.903
		c-0.342,0.539-0.512,1.125-0.512,1.76c0.028,0.727,0.21,1.43,0.543,2.107c0.333,0.68,0.811,1.465,1.43,2.355
		c0.713,1.043,1.273,2.013,1.685,2.909c0.409,0.896,0.614,1.82,0.614,2.775c0,1.227-0.295,2.408-0.884,3.551
		c-0.589,1.145-1.375,2.132-2.358,2.962c-1.02,0.852-2.176,1.488-3.471,1.916c-1.294,0.43-2.633,0.644-4.015,0.644
		c-1.253,0-2.508-0.228-3.761-0.677c-1.253-0.452-2.375-1.079-3.364-1.884c-0.798-0.649-1.445-1.43-1.946-2.335
		c-0.5-0.904-0.751-1.831-0.751-2.772c0-1.589,0.564-3.198,1.696-4.828l1.036-1.441c0.479-0.634,0.722-1.27,0.722-1.906
		c0-0.745-0.407-1.117-1.223-1.117c-0.772,0-1.478,0.386-2.108,1.158c-0.632,0.771-1.128,1.626-1.484,2.56l-0.36-0.227
		c0.315-0.791,0.74-1.521,1.273-2.183c0.532-0.663,1.158-1.188,1.876-1.584c0.718-0.393,1.501-0.589,2.352-0.589
		c0.797,0,1.542,0.182,2.236,0.545c0.693,0.364,1.262,0.865,1.701,1.504c0.439,0.641,0.688,1.36,0.746,2.163
		c0,0.95-0.146,1.796-0.438,2.537s-0.712,1.493-1.257,2.256c-0.592,0.838-1.046,1.585-1.361,2.242
		c-0.315,0.656-0.476,1.36-0.476,2.11c0,1.308,0.475,2.307,1.42,2.998c0.946,0.69,2.096,1.037,3.443,1.037
		c1.602,0,2.889-0.432,3.862-1.292c0.521-0.476,0.935-1.062,1.235-1.764c0.303-0.701,0.453-1.411,0.453-2.132
		c0-0.479-0.086-0.967-0.261-1.459c-0.173-0.492-0.394-0.96-0.659-1.402c-0.268-0.44-0.592-0.919-0.973-1.429
		s-0.701-0.939-0.959-1.292c-0.893-1.201-1.576-2.246-2.055-3.134c-0.479-0.889-0.717-1.824-0.717-2.811
		c0-1.704,0.842-3.42,2.524-5.143l1.479-1.512c-1.611-0.528-3.438-1.264-5.479-2.2c-2.194-0.98-3.971-1.474-5.325-1.474
		c-1.384,0-2.453,0.408-3.21,1.226C1.125,6.904,0.861,7.579,0.861,8.318c0,1.1,0.473,1.995,1.416,2.693s1.973,1.047,3.086,1.047
		c1.05,0,2.052-0.237,3.008-0.712c0.955-0.475,1.706-1.137,2.25-1.986l0.325,0.184c-0.646,0.918-1.448,1.633-2.413,2.145
		c-0.965,0.514-2.01,0.77-3.135,0.77c-0.979,0-1.881-0.22-2.708-0.654c-0.827-0.437-1.48-1.048-1.965-1.836
		C0.241,9.179,0,8.291,0,7.308c0-1.499,0.39-2.799,1.168-3.898C1.947,2.307,2.986,1.47,4.283,0.896
		C5.58,0.323,6.958,0.036,8.417,0.036c1.389,0,2.775,0.253,4.164,0.759s2.772,1.188,4.155,2.049l2.549,1.58
		c1.112,0.696,2.108,1.044,2.986,1.044c0.403,0,0.757-0.118,1.06-0.355c0.302-0.235,0.453-0.552,0.453-0.941
		c0-0.809-0.505-1.512-1.513-2.115c-0.614-0.403-1.405-0.666-2.373-0.789l0.142-0.358c0.709,0.083,1.399,0.286,2.073,0.614
		c0.675,0.328,1.224,0.771,1.648,1.327c0.425,0.558,0.637,1.204,0.637,1.942c0,0.521-0.12,1.022-0.359,1.508
		c-0.24,0.485-0.562,0.893-0.965,1.227c-1.24,1.01-2.953,1.514-5.141,1.514C17.7,9.035,17.077,8.977,16.065,8.859z"/>
	<path fill="#222222" d="M35.095,9.36v2.417h-2.479l-0.035,0.688c-0.104,1.447-0.23,2.852-0.378,4.215
		c-0.146,1.361-0.321,2.811-0.522,4.342c-0.202,1.532-0.406,2.998-0.611,4.398c-0.485,3.314-0.92,5.766-1.301,7.348h-0.432
		l-0.176-0.976c-0.574-3.096-1.151-6.838-1.73-11.232c-0.382-2.619-0.681-5.367-0.896-8.244l-0.044-0.536h-2.049v-0.396
		c0.798-0.398,1.352-0.885,1.661-1.459c0.311-0.574,0.466-1.386,0.466-2.437c0-0.393-0.025-0.871-0.078-1.439
		c-0.048-0.422-0.07-0.756-0.07-1.002c0-1.236,0.23-2.387,0.694-3.449C27.577,0.531,28.354,0,29.443,0
		c1.031,0,2.055,0.53,3.066,1.591c0.429,0.428,0.716,0.642,0.861,0.642c0.356,0,0.535-0.273,0.535-0.824
		c0-0.465-0.034-0.934-0.104-1.406h0.536c0.123,0.662,0.186,1.263,0.186,1.802c0,1.178-0.214,2.188-0.643,3.028
		c-0.428,0.84-1.163,1.261-2.206,1.261c-0.778,0-1.632-0.398-2.558-1.195c-0.604-0.551-1.081-0.825-1.434-0.825
		c-0.192,0-0.345,0.1-0.453,0.295c-0.107,0.195-0.163,0.398-0.163,0.609c0,1.227,0.697,2.232,2.093,3.023
		c1.159,0.656,2.861,1.075,5.105,1.257C34.655,9.302,34.931,9.337,35.095,9.36z"/>
</g>
</svg>
