<?xml version="1.0" encoding="utf-8"?>
<!-- Generator: Adobe Illustrator 16.0.0, SVG Export Plug-In . SVG Version: 6.00 Build 0)  -->
<!DOCTYPE svg PUBLIC "-//W3C//DTD SVG 1.1 Tiny//EN" "http://www.w3.org/Graphics/SVG/1.1/DTD/svg11-tiny.dtd">
<svg version="1.1" baseProfile="tiny" id="Layer_1" xmlns="http://www.w3.org/2000/svg" xmlns:xlink="http://www.w3.org/1999/xlink"
	 x="0px" y="0px" width="35.095px" height="32.766px" viewBox="0 0 35.095 32.766" xml:space="preserve">
<g>
	<path d="M16.065,8.859c-0.479,0.363-0.719,0.808-0.719,1.334c0,0.731,0.276,1.54,0.829,2.427c0.552,0.887,1.174,1.681,1.864,2.383
		c-0.167-0.808-0.25-1.334-0.25-1.579c0-0.959,0.317-1.78,0.951-2.461c0.634-0.682,1.43-1.022,2.389-1.022
		c0.871,0,1.639,0.252,2.305,0.755c0.667,0.503,1,1.173,1,2.01c0,0.777-0.242,1.44-0.725,1.987s-1.106,0.82-1.868,0.82
		c-0.645,0-1.195-0.255-1.652-0.764s-0.686-1.082-0.686-1.72c0-0.597,0.264-1.208,0.791-1.834c0.094-0.094,0.155-0.19,0.185-0.29
		c0-0.162-0.12-0.244-0.36-0.244c-0.583,0.064-1.045,0.366-1.387,0.905s-0.512,1.125-0.512,1.758c0.029,0.727,0.21,1.43,0.543,2.109
		c0.333,0.68,0.81,1.465,1.43,2.355c0.713,1.043,1.274,2.013,1.684,2.909c0.409,0.896,0.614,1.822,0.614,2.777
		c0,1.225-0.294,2.408-0.883,3.551c-0.589,1.143-1.375,2.13-2.359,2.962c-1.019,0.85-2.176,1.488-3.47,1.916
		s-2.633,0.642-4.015,0.642c-1.253,0-2.507-0.226-3.76-0.677c-1.253-0.452-2.375-1.079-3.365-1.882
		c-0.797-0.651-1.445-1.43-1.946-2.335c-0.5-0.906-0.751-1.831-0.751-2.774c0-1.589,0.565-3.198,1.696-4.828l1.037-1.441
		c0.48-0.634,0.721-1.27,0.721-1.908c0-0.745-0.407-1.117-1.222-1.117c-0.773,0-1.477,0.386-2.109,1.158s-1.128,1.626-1.485,2.56
		l-0.36-0.226c0.316-0.791,0.741-1.519,1.274-2.181c0.533-0.663,1.159-1.19,1.876-1.584c0.718-0.393,1.501-0.589,2.351-0.589
		c0.797,0,1.542,0.182,2.237,0.545c0.694,0.364,1.261,0.865,1.701,1.504s0.688,1.36,0.747,2.163c0,0.95-0.146,1.796-0.439,2.537
		s-0.712,1.493-1.257,2.256c-0.592,0.838-1.046,1.585-1.362,2.242c-0.316,0.656-0.475,1.36-0.475,2.11
		c0,1.308,0.474,2.307,1.42,2.998c0.947,0.692,2.095,1.038,3.444,1.038c1.601,0,2.888-0.431,3.862-1.292
		c0.522-0.475,0.934-1.062,1.236-1.763s0.453-1.411,0.453-2.132c0-0.48-0.086-0.967-0.26-1.459c-0.173-0.492-0.393-0.96-0.66-1.402
		c-0.267-0.442-0.591-0.919-0.972-1.429c-0.381-0.51-0.701-0.94-0.959-1.292c-0.892-1.201-1.576-2.246-2.054-3.134
		s-0.717-1.824-0.717-2.809c0-1.705,0.842-3.42,2.525-5.143l1.479-1.512c-1.612-0.528-3.438-1.262-5.479-2.2
		C7.993,5.564,6.217,5.071,4.863,5.071c-1.384,0-2.454,0.408-3.21,1.224C1.125,6.904,0.861,7.579,0.861,8.318
		c0,1.098,0.472,1.995,1.416,2.693c0.943,0.698,1.972,1.047,3.086,1.047c1.049,0,2.051-0.237,3.007-0.712
		c0.955-0.475,1.706-1.137,2.25-1.986l0.326,0.182c-0.645,0.918-1.449,1.633-2.414,2.145c-0.964,0.512-2.009,0.768-3.134,0.768
		c-0.979,0-1.881-0.218-2.708-0.654c-0.827-0.437-1.481-1.048-1.965-1.836C0.242,9.177,0,8.291,0,7.308
		c0-1.499,0.39-2.799,1.168-3.899C1.947,2.307,2.986,1.47,4.283,0.896c1.297-0.573,2.675-0.86,4.134-0.86
		c1.388,0,2.776,0.253,4.164,0.759c1.388,0.506,2.773,1.189,4.156,2.049l2.548,1.58c1.113,0.696,2.109,1.044,2.987,1.044
		c0.404,0,0.757-0.118,1.059-0.355s0.453-0.552,0.453-0.943c0-0.807-0.504-1.512-1.512-2.115c-0.615-0.403-1.406-0.666-2.373-0.789
		l0.141-0.36c0.709,0.083,1.4,0.288,2.074,0.616s1.223,0.771,1.648,1.327s0.637,1.204,0.637,1.942c0,0.521-0.12,1.024-0.36,1.508
		s-0.561,0.893-0.965,1.227c-1.24,1.008-2.953,1.512-5.14,1.512C17.7,9.035,17.077,8.977,16.065,8.859z"/>
	<path d="M35.095,9.36v2.417h-2.479l-0.035,0.686c-0.105,1.447-0.231,2.852-0.378,4.215c-0.146,1.361-0.321,2.81-0.523,4.342
		s-0.406,2.998-0.611,4.398c-0.486,3.316-0.92,5.766-1.301,7.348h-0.431l-0.176-0.976c-0.574-3.094-1.151-6.838-1.731-11.232
		c-0.381-2.619-0.68-5.367-0.896-8.244l-0.044-0.536h-2.048v-0.396c0.797-0.398,1.351-0.885,1.661-1.459s0.466-1.386,0.466-2.435
		c0-0.393-0.026-0.873-0.079-1.441c-0.047-0.422-0.07-0.756-0.07-1.002c0-1.236,0.231-2.387,0.694-3.449
		C27.577,0.531,28.354,0,29.443,0c1.031,0,2.054,0.53,3.067,1.591c0.428,0.428,0.715,0.642,0.861,0.642
		c0.357,0,0.536-0.275,0.536-0.826c0-0.463-0.035-0.932-0.105-1.406h0.536c0.123,0.662,0.185,1.263,0.185,1.802
		c0,1.178-0.214,2.188-0.642,3.028s-1.163,1.261-2.206,1.261c-0.779,0-1.632-0.398-2.558-1.195
		c-0.604-0.551-1.081-0.826-1.433-0.826c-0.193,0-0.344,0.099-0.453,0.294c-0.108,0.197-0.163,0.4-0.163,0.611
		c0,1.225,0.697,2.232,2.092,3.023c1.16,0.656,2.862,1.075,5.106,1.257C34.655,9.302,34.931,9.337,35.095,9.36z"/>
</g>
</svg>
