<?xml version="1.0" encoding="utf-8"?>
<!-- Generator: Adobe Illustrator 16.0.0, SVG Export Plug-In . SVG Version: 6.00 Build 0)  -->
<!DOCTYPE svg PUBLIC "-//W3C//DTD SVG 1.1//EN" "http://www.w3.org/Graphics/SVG/1.1/DTD/svg11.dtd">
<svg version="1.1" id="Layer_1" xmlns="http://www.w3.org/2000/svg" xmlns:xlink="http://www.w3.org/1999/xlink" x="0px" y="0px"
	 width="27.847px" height="26.001px" viewBox="3.625 3.382 27.847 26.001" enable-background="new 3.625 3.382 27.847 26.001"
	 xml:space="preserve">
<g>
	<path fill="#222222" d="M16.371,10.413c-0.379,0.288-0.57,0.643-0.57,1.059c0,0.58,0.22,1.222,0.657,1.928
		c0.438,0.704,0.933,1.333,1.479,1.891c-0.132-0.643-0.198-1.059-0.198-1.253c0-0.761,0.25-1.413,0.753-1.953
		c0.505-0.541,1.137-0.811,1.897-0.811c0.69,0,1.301,0.2,1.828,0.6c0.529,0.4,0.795,0.932,0.795,1.596
		c0,0.614-0.192,1.141-0.576,1.575c-0.383,0.436-0.877,0.65-1.482,0.65c-0.513,0-0.947-0.202-1.311-0.605
		c-0.362-0.404-0.544-0.859-0.544-1.367c0-0.473,0.21-0.958,0.627-1.455c0.074-0.074,0.123-0.149,0.146-0.228
		c0-0.128-0.096-0.193-0.284-0.193c-0.463,0.049-0.829,0.288-1.102,0.716c-0.271,0.428-0.406,0.893-0.406,1.397
		c0.022,0.577,0.166,1.136,0.432,1.671c0.265,0.54,0.644,1.163,1.135,1.869c0.564,0.827,1.01,1.598,1.337,2.309
		c0.325,0.711,0.487,1.443,0.487,2.201c0,0.975-0.234,1.911-0.702,2.817c-0.468,0.909-1.091,1.69-1.87,2.351
		c-0.811,0.676-1.728,1.182-2.755,1.521c-1.026,0.342-2.089,0.512-3.187,0.512c-0.994,0-1.99-0.183-2.983-0.537
		c-0.994-0.358-1.885-0.856-2.669-1.495C6.672,26.66,6.158,26.04,5.76,25.323c-0.396-0.718-0.596-1.453-0.596-2.199
		c0-1.261,0.448-2.538,1.346-3.831l0.822-1.145c0.38-0.502,0.573-1.008,0.573-1.512c0-0.591-0.323-0.886-0.97-0.886
		c-0.613,0-1.173,0.306-1.673,0.919c-0.502,0.611-0.896,1.29-1.178,2.031L3.8,18.521c0.25-0.629,0.588-1.209,1.011-1.733
		c0.421-0.526,0.918-0.942,1.488-1.257c0.569-0.312,1.191-0.467,1.866-0.467c0.632,0,1.225,0.144,1.774,0.432
		c0.549,0.289,1.001,0.688,1.35,1.193c0.349,0.509,0.545,1.08,0.591,1.715c0,0.755-0.114,1.426-0.347,2.015
		c-0.231,0.588-0.564,1.185-0.997,1.789c-0.47,0.665-0.83,1.258-1.08,1.778c-0.25,0.521-0.377,1.08-0.377,1.676
		c0,1.037,0.376,1.83,1.126,2.379c0.75,0.547,1.663,0.822,2.731,0.822c1.271,0,2.293-0.344,3.064-1.025
		c0.414-0.377,0.742-0.842,0.98-1.398c0.24-0.558,0.358-1.121,0.358-1.691c0-0.381-0.067-0.768-0.208-1.158
		c-0.137-0.39-0.312-0.762-0.521-1.111c-0.213-0.35-0.471-0.729-0.773-1.135c-0.302-0.404-0.556-0.744-0.761-1.025
		c-0.708-0.952-1.25-1.781-1.63-2.485c-0.38-0.706-0.569-1.447-0.569-2.229c0-1.354,0.668-2.714,2.002-4.082l1.175-1.2
		c-1.278-0.419-2.729-1.003-4.349-1.746c-1.74-0.778-3.15-1.17-4.226-1.17c-1.099,0-1.945,0.324-2.547,0.973
		c-0.417,0.483-0.627,1.02-0.627,1.605c0,0.873,0.376,1.583,1.124,2.137c0.749,0.554,1.565,0.831,2.448,0.831
		c0.834,0,1.629-0.188,2.388-0.565c0.758-0.376,1.354-0.902,1.785-1.576l0.258,0.146c-0.513,0.729-1.148,1.295-1.914,1.702
		C9.629,13.067,8.8,13.27,7.907,13.27c-0.776,0-1.492-0.174-2.148-0.519c-0.656-0.346-1.174-0.832-1.559-1.457
		c-0.384-0.626-0.575-1.331-0.575-2.111c0-1.189,0.31-2.221,0.927-3.092c0.618-0.876,1.442-1.54,2.473-1.996
		c1.029-0.454,2.123-0.682,3.28-0.682c1.102,0,2.2,0.201,3.304,0.602c1.102,0.401,2.199,0.942,3.296,1.625l2.022,1.254
		c0.883,0.552,1.674,0.828,2.369,0.828c0.32,0,0.602-0.094,0.843-0.282c0.238-0.186,0.358-0.438,0.358-0.747
		c0-0.642-0.4-1.199-1.201-1.678c-0.485-0.32-1.113-0.528-1.883-0.626l0.113-0.284c0.562,0.066,1.108,0.226,1.645,0.487
		c0.536,0.26,0.973,0.612,1.309,1.053c0.337,0.443,0.505,0.956,0.505,1.542c0,0.413-0.095,0.811-0.284,1.196
		c-0.19,0.385-0.446,0.708-0.766,0.973c-0.984,0.802-2.344,1.202-4.08,1.202C17.669,10.553,17.175,10.507,16.371,10.413z"/>
	<path fill="#222222" d="M31.471,10.81v1.918h-1.968l-0.026,0.546c-0.083,1.148-0.185,2.262-0.302,3.344
		c-0.115,1.081-0.255,2.231-0.413,3.444c-0.16,1.217-0.322,2.379-0.485,3.49c-0.384,2.629-0.729,4.575-1.032,5.83h-0.342
		l-0.14-0.773c-0.456-2.457-0.914-5.426-1.373-8.912c-0.304-2.078-0.54-4.26-0.711-6.542l-0.035-0.425h-1.626v-0.314
		c0.634-0.316,1.072-0.702,1.317-1.158c0.247-0.456,0.369-1.1,0.369-1.934c0-0.312-0.02-0.69-0.062-1.142
		c-0.038-0.334-0.057-0.6-0.057-0.795c0-0.981,0.184-1.894,0.552-2.737c0.366-0.846,0.982-1.268,1.847-1.268
		c0.818,0,1.632,0.421,2.434,1.262c0.34,0.339,0.567,0.509,0.685,0.509c0.28,0,0.424-0.216,0.424-0.653
		c0-0.37-0.026-0.742-0.082-1.116h0.425c0.098,0.525,0.147,1.002,0.147,1.43c0,0.934-0.17,1.736-0.511,2.403
		c-0.34,0.667-0.923,1-1.751,1c-0.616,0-1.294-0.316-2.028-0.948c-0.479-0.437-0.857-0.654-1.139-0.654
		c-0.151,0-0.272,0.079-0.358,0.234c-0.085,0.154-0.13,0.315-0.13,0.483c0,0.974,0.554,1.771,1.661,2.399
		c0.919,0.521,2.27,0.853,4.051,0.997C31.121,10.765,31.341,10.793,31.471,10.81z"/>
</g>
</svg>
