<?xml version="1.0" encoding="utf-8"?>
<!-- Generator: Adobe Illustrator 16.0.0, SVG Export Plug-In . SVG Version: 6.00 Build 0)  -->
<!DOCTYPE svg PUBLIC "-//W3C//DTD SVG 1.1//EN" "http://www.w3.org/Graphics/SVG/1.1/DTD/svg11.dtd">
<svg version="1.1" id="Layer_1" xmlns="http://www.w3.org/2000/svg" xmlns:xlink="http://www.w3.org/1999/xlink" x="0px" y="0px"
	 width="26.253px" height="26px" viewBox="2.123 2.102 26.253 26" enable-background="new 2.123 2.102 26.253 26"
	 xml:space="preserve">
<g>
	<path fill="#222222" d="M15.355,4.674c-0.889,1.054-2.18,2.666-3.874,4.834c-0.104,0.145-0.155,0.229-0.155,0.248
		c0,0.248,0.537,0.372,1.612,0.372c0.186,0,0.501-0.031,0.945-0.093c0.444-0.062,0.779-0.083,1.007-0.062l0.093,0.186
		c-0.558,2.128-0.94,3.274-1.146,3.44H9.839l-0.093,0.155c0,0.516,0.692,1.705,2.076,3.563c1.425,1.922,2.148,2.945,2.169,3.068
		c-0.228,0.826-1.095,2.231-2.603,4.214c-1.592,2.087-2.769,3.255-3.533,3.503c-0.723-0.165-1.839-0.931-3.347-2.294
		c-1.591-1.426-2.386-2.49-2.386-3.191c0-0.33,0.181-0.842,0.542-1.534c0.361-0.692,0.677-1.172,0.945-1.441h0.093
		c0.599,0.806,1.405,1.735,2.417,2.789c1.384,1.426,2.375,2.139,2.975,2.139h0.093l0.496-0.527c-0.083-0.908-0.703-2.744-1.859-5.5
		c-1.157-2.759-2.025-4.406-2.603-4.943l-0.837-0.155l-0.062-0.155l0.31-0.992c-0.042-0.392-0.434-1.116-1.178-2.169
		C2.711,9.075,2.339,8.393,2.339,8.083V7.928c0.744-0.806,1.808-1.787,3.192-2.944c2.086-1.756,3.192-2.686,3.316-2.79l0.31-0.093
		c0.64,0.124,1.611,0.455,2.913,0.992c1.673,0.682,2.686,1.084,3.037,1.208l0.248,0.31V4.674z M11.419,7.215
		c0-0.351-0.485-0.661-1.456-0.93C9.178,6.08,8.527,5.976,8.01,5.976H7.421L7.267,6.007C7.246,6.151,7.174,6.332,7.05,6.549
		C6.926,6.766,6.864,6.988,6.864,7.215c0,0.228,0.155,0.765,0.465,1.611c0.372,0.971,0.733,1.457,1.085,1.457
		c0.434,0,1.042-0.403,1.828-1.208C11.027,8.269,11.419,7.649,11.419,7.215z"/>
	<path fill="#222222" d="M28.37,9.23c-0.082,0.289-0.521,0.749-1.316,1.378c-0.795,0.63-1.193,1.049-1.193,1.255
		c0,0.083,0.33,0.884,0.992,2.402c0.66,1.518,0.99,2.722,0.99,3.611c0,0.227-0.918,1.173-2.759,2.835
		c-1.838,1.663-2.86,2.495-3.067,2.495c-0.082,0-1.079-0.434-2.989-1.304c-1.913-0.867-2.91-1.344-2.992-1.423l-0.03-0.249
		c0-0.352,0.319-0.883,0.96-1.597c0.639-0.714,0.96-1.194,0.96-1.44c0-0.104-0.191-0.667-0.573-1.689s-0.615-1.606-0.698-1.75
		c-0.103-0.6,0.559-1.724,1.984-3.378c1.363-1.57,2.418-2.51,3.161-2.82c0.269,0.021,0.608,0.124,1.022,0.31
		c0.332,0.166,0.662,0.32,0.992,0.465c1.073,0.413,2.561,0.62,4.462,0.62C28.358,9.033,28.391,9.126,28.37,9.23z M24.434,19.115
		c0-0.578-0.206-1.353-0.618-2.325c-0.477-1.114-0.951-1.671-1.426-1.671h-0.094l-0.434,0.465c-0.228,0.06-0.651,0.408-1.271,1.038
		c-0.621,0.629-0.93,1.038-0.93,1.225v0.061c0.289,0.412,0.863,0.807,1.721,1.177c0.857,0.374,1.554,0.558,2.092,0.558
		C24.112,19.642,24.434,19.466,24.434,19.115z M23.691,11.863c0-0.206-0.485-0.444-1.457-0.712
		c-0.868-0.227-1.466-0.341-1.798-0.341c-0.309,0-0.464,0.114-0.464,0.341c0,0.351,0.165,0.868,0.496,1.549
		c0.352,0.765,0.67,1.147,0.96,1.147c0.227,0,0.66-0.279,1.301-0.837C23.37,12.452,23.691,12.071,23.691,11.863z"/>
</g>
</svg>
