<?xml version="1.0" encoding="utf-8"?>
<!-- Generator: Adobe Illustrator 16.0.0, SVG Export Plug-In . SVG Version: 6.00 Build 0)  -->
<!DOCTYPE svg PUBLIC "-//W3C//DTD SVG 1.1//EN" "http://www.w3.org/Graphics/SVG/1.1/DTD/svg11.dtd">
<svg version="1.1" id="Layer_1" xmlns="http://www.w3.org/2000/svg" xmlns:xlink="http://www.w3.org/1999/xlink" x="0px" y="0px"
	 width="30.5px" height="30.205px" viewBox="0 0 30.5 30.205" enable-background="new 0 0 30.5 30.205" xml:space="preserve">
<g>
	<path fill="#222222" d="M15.372,2.988c-1.032,1.224-2.532,3.096-4.5,5.616c-0.12,0.168-0.18,0.265-0.18,0.288
		c0,0.288,0.624,0.432,1.872,0.432c0.216,0,0.582-0.036,1.098-0.108c0.516-0.072,0.906-0.096,1.17-0.072L14.94,9.36
		c-0.648,2.472-1.092,3.804-1.332,3.996H8.964l-0.108,0.18c0,0.6,0.804,1.98,2.412,4.14c1.656,2.232,2.496,3.421,2.52,3.564
		c-0.264,0.96-1.272,2.592-3.024,4.896c-1.849,2.424-3.216,3.78-4.104,4.068c-0.84-0.191-2.136-1.08-3.888-2.664
		C0.924,25.884,0,24.647,0,23.832c0-0.383,0.21-0.978,0.63-1.782c0.419-0.804,0.786-1.361,1.098-1.674h0.108
		c0.696,0.936,1.632,2.016,2.808,3.24c1.608,1.656,2.76,2.484,3.456,2.484h0.108l0.576-0.613c-0.096-1.055-0.816-3.187-2.16-6.389
		C5.28,15.894,4.272,13.98,3.6,13.356l-0.972-0.18l-0.072-0.18l0.36-1.152c-0.048-0.456-0.504-1.296-1.368-2.52
		C0.684,8.1,0.252,7.308,0.252,6.948v-0.18c0.864-0.936,2.1-2.076,3.708-3.42c2.424-2.04,3.708-3.12,3.852-3.24L8.172,0
		c0.743,0.144,1.872,0.528,3.384,1.152c1.944,0.792,3.12,1.26,3.528,1.404l0.288,0.36V2.988z M10.8,5.94
		c0-0.408-0.564-0.768-1.692-1.08C8.196,4.621,7.44,4.5,6.84,4.5H6.156l-0.18,0.036c-0.024,0.168-0.108,0.378-0.252,0.63
		S5.508,5.676,5.508,5.94c0,0.265,0.18,0.888,0.54,1.872C6.48,8.94,6.9,9.504,7.308,9.504c0.504,0,1.211-0.468,2.124-1.404
		C10.344,7.164,10.8,6.444,10.8,5.94z"/>
	<path fill="#222222" d="M30.492,8.28c-0.096,0.336-0.605,0.87-1.529,1.602c-0.924,0.732-1.387,1.218-1.387,1.458
		c0,0.096,0.383,1.026,1.152,2.79c0.768,1.764,1.151,3.162,1.151,4.194c0,0.264-1.067,1.362-3.205,3.294
		c-2.135,1.932-3.323,2.898-3.563,2.898c-0.096,0-1.254-0.504-3.473-1.514c-2.222-1.008-3.38-1.561-3.476-1.654l-0.035-0.289
		c0-0.408,0.371-1.025,1.115-1.854c0.743-0.829,1.116-1.388,1.116-1.674c0-0.12-0.223-0.774-0.666-1.962
		c-0.444-1.188-0.715-1.866-0.811-2.034c-0.119-0.696,0.648-2.003,2.305-3.924c1.584-1.824,2.808-2.916,3.672-3.276
		c0.312,0.024,0.707,0.144,1.188,0.36c0.385,0.192,0.768,0.372,1.152,0.54c1.248,0.48,2.975,0.72,5.184,0.72
		C30.479,8.052,30.516,8.16,30.492,8.28z M25.919,19.765c0-0.672-0.239-1.572-0.719-2.701c-0.554-1.295-1.104-1.942-1.656-1.942
		h-0.108l-0.504,0.54c-0.265,0.07-0.757,0.474-1.476,1.206c-0.722,0.731-1.08,1.206-1.08,1.422v0.071
		c0.336,0.479,1.002,0.937,1.998,1.367c0.996,0.434,1.806,0.648,2.431,0.648C25.546,20.376,25.919,20.172,25.919,19.765z
		 M25.057,11.34c0-0.24-0.564-0.516-1.693-0.828c-1.008-0.264-1.703-0.396-2.088-0.396c-0.359,0-0.539,0.132-0.539,0.396
		c0,0.408,0.191,1.008,0.576,1.8c0.408,0.888,0.778,1.332,1.115,1.332c0.264,0,0.768-0.324,1.512-0.972S25.057,11.581,25.057,11.34z
		"/>
</g>
</svg>
