<?xml version="1.0" encoding="utf-8"?>
<!-- Generator: Adobe Illustrator 16.0.0, SVG Export Plug-In . SVG Version: 6.00 Build 0)  -->
<!DOCTYPE svg PUBLIC "-//W3C//DTD SVG 1.1//EN" "http://www.w3.org/Graphics/SVG/1.1/DTD/svg11.dtd">
<svg version="1.1" id="Layer_1" xmlns="http://www.w3.org/2000/svg" xmlns:xlink="http://www.w3.org/1999/xlink" x="0px" y="0px"
	 width="34.374px" height="26px" viewBox="0.543 0.411 34.374 26" enable-background="new 0.543 0.411 34.374 26"
	 xml:space="preserve">
<g>
	<path fill="#222222" d="M23.959,8.158c0,0.256-0.093,0.472-0.279,0.646c-0.187,0.174-0.419,0.261-0.697,0.261
		c-0.954,0-2.467-1.125-4.539-3.382c-0.536-0.559-0.959-0.995-1.274-1.312c-0.313-0.311-0.68-0.55-1.099-0.712
		c-0.186-0.07-0.461-0.122-0.82-0.157c-0.362-0.035-0.756-0.055-1.188-0.055s-0.89,0-1.378,0c-0.489,0-0.954,0-1.395,0
		c-0.815,0-1.303,0.082-1.466,0.245C9.757,3.784,9.715,3.901,9.704,4.04C9.692,4.182,9.687,4.355,9.687,4.564v8.306h1.082
		c0.535,0,1.122-0.061,1.762-0.177c0.639-0.117,1.191-0.337,1.657-0.663c0.326-0.255,0.623-0.599,0.89-1.03
		c0.268-0.428,0.542-1.018,0.821-1.76c0.185-0.535,0.511-0.803,0.977-0.803c0.185,0,0.354,0.035,0.505,0.105
		c0.151,0.067,0.263,0.221,0.332,0.454c0.046,0.163,0.063,0.362,0.053,0.591c-0.013,0.233-0.029,0.491-0.053,0.768
		c-0.023,0.187-0.059,0.599-0.104,1.239c-0.047,0.64-0.07,1.506-0.07,2.6c0,1.372,0.035,2.414,0.105,3.125
		c0.069,0.708,0.104,1.155,0.104,1.344c0,0.581-0.326,0.873-0.978,0.873c-0.302,0-0.529-0.07-0.68-0.21
		c-0.151-0.142-0.273-0.456-0.366-0.944c-0.163-0.86-0.396-1.547-0.698-2.059c-0.302-0.51-0.663-0.901-1.082-1.169
		c-0.419-0.265-0.89-0.442-1.413-0.523c-0.523-0.081-1.088-0.122-1.693-0.122H9.688v7.956c0,0.421,0.006,0.763,0.018,1.029
		c0.011,0.266,0.064,0.484,0.157,0.646c0.093,0.184,0.273,0.312,0.542,0.383c0.266,0.07,0.528,0.105,0.785,0.105
		c0.185,0,0.482-0.005,0.89-0.021c0.407-0.011,0.727-0.017,0.96-0.017c0.394,0,0.663,0.07,0.802,0.209
		c0.14,0.143,0.209,0.361,0.209,0.666c0,0.372-0.059,0.621-0.174,0.747c-0.118,0.128-0.327,0.192-0.628,0.192
		c-0.069,0-0.285-0.011-0.646-0.035c-0.36-0.023-0.803-0.04-1.326-0.052c-0.523-0.015-1.111-0.029-1.761-0.055
		c-0.652-0.021-1.291-0.033-1.919-0.033c-1.792,0-3.175,0.027-4.152,0.088c-0.977,0.058-1.605,0.087-1.884,0.087
		c-0.678,0.004-1.016-0.311-1.016-0.938c0-0.375,0.082-0.619,0.245-0.736c0.162-0.113,0.582-0.174,1.256-0.174
		c0.441,0,0.79-0.017,1.047-0.052c0.256-0.035,0.476-0.122,0.663-0.264c0.185-0.139,0.314-0.324,0.384-0.558
		c0.07-0.23,0.105-0.673,0.105-1.324V7.216c0-0.791-0.013-1.433-0.035-1.919C4.185,4.808,4.127,4.425,4.034,4.145
		C3.94,3.866,3.818,3.679,3.668,3.587c-0.152-0.092-0.366-0.14-0.646-0.14c-0.303,0-0.506,0.009-0.611,0.02
		C2.307,3.479,2.16,3.484,1.975,3.484c-0.465,0-0.78-0.076-0.942-0.224C0.869,3.104,0.789,2.831,0.789,2.435
		c0-0.581,0.221-0.87,0.663-0.87c0.022,0,0.082,0.006,0.175,0.017c0.093,0.011,0.163,0.02,0.209,0.02
		c0.117,0,0.349,0.011,0.699,0.033c0.348,0.021,0.768,0.038,1.256,0.05C4.278,1.698,4.796,1.706,5.342,1.72
		c0.546,0.011,1.065,0.017,1.554,0.017c1.745,0,3.535,0.006,5.374,0.017c1.838,0.014,3.524,0.008,5.06-0.017
		c1.232-0.023,2.164-0.058,2.792-0.105c0.628-0.046,1.14-0.067,1.535-0.067c0.466,0,0.761,0.087,0.89,0.261
		c0.128,0.177,0.191,0.39,0.191,0.646c0,0.186-0.04,0.34-0.121,0.453c-0.082,0.117-0.163,0.227-0.244,0.334
		c-0.084,0.102-0.163,0.209-0.244,0.311c-0.084,0.105-0.123,0.228-0.123,0.368c0,0.14,0.067,0.368,0.21,0.679
		c0.138,0.314,0.305,0.661,0.504,1.03c0.197,0.372,0.396,0.738,0.592,1.099c0.197,0.36,0.367,0.657,0.505,0.89
		C23.912,7.798,23.959,7.971,23.959,8.158z"/>
	<path fill="#222222" d="M34.917,25.536c0,0.559-0.244,0.838-0.733,0.838c-0.232,0-0.663-0.023-1.291-0.07
		c-0.628-0.046-1.535-0.066-2.722-0.066c-0.932,0-1.728,0.026-2.391,0.087c-0.666,0.058-1.076,0.087-1.238,0.087
		c-0.443,0-0.738-0.052-0.891-0.157c-0.151-0.105-0.226-0.32-0.226-0.646s0.074-0.545,0.226-0.663
		c0.152-0.117,0.413-0.177,0.786-0.177c0.371,0,0.668-0.026,0.89-0.087c0.222-0.058,0.379-0.18,0.471-0.366
		c0.093-0.187,0.156-0.442,0.192-0.768c0.034-0.326,0.052-0.826,0.052-1.501V6.902c0-0.814-0.018-1.384-0.052-1.71
		c-0.036-0.326-0.111-0.546-0.228-0.664c-0.186-0.184-0.46-0.314-0.819-0.383c-0.362-0.07-0.626-0.13-0.788-0.177
		c-0.276-0.067-0.505-0.179-0.678-0.331c-0.174-0.151-0.263-0.39-0.263-0.716c0-0.372,0.093-0.616,0.278-0.732
		c0.186-0.117,0.545-0.198,1.081-0.244c0.769-0.046,1.435-0.157,2.006-0.332c0.57-0.174,1.228-0.471,1.972-0.89
		c0.184-0.117,0.347-0.198,0.488-0.244c0.142-0.046,0.295-0.069,0.458-0.069c0.673,0,1.011,0.303,1.011,0.91
		c0,0.23-0.026,0.692-0.087,1.378c-0.059,0.686-0.087,1.516-0.087,2.495v16.783c0,0.559,0.005,1.018,0.017,1.378
		c0.015,0.361,0.07,0.646,0.178,0.854c0.103,0.212,0.266,0.355,0.488,0.437c0.223,0.082,0.529,0.122,0.925,0.122
		c0.325,0,0.57,0.055,0.733,0.157C34.835,25.031,34.917,25.234,34.917,25.536z"/>
</g>
</svg>
