<?xml version="1.0" encoding="utf-8"?>
<!-- Generator: Adobe Illustrator 16.0.0, SVG Export Plug-In . SVG Version: 6.00 Build 0)  -->
<!DOCTYPE svg PUBLIC "-//W3C//DTD SVG 1.1 Tiny//EN" "http://www.w3.org/Graphics/SVG/1.1/DTD/svg11-tiny.dtd">
<svg version="1.1" baseProfile="tiny" id="Layer_1" xmlns="http://www.w3.org/2000/svg" xmlns:xlink="http://www.w3.org/1999/xlink"
	 x="0px" y="0px" width="35.461px" height="26.82px" viewBox="0 0 35.461 26.82" xml:space="preserve">
<g>
	<path d="M24.156,7.992c0,0.264-0.096,0.486-0.288,0.666c-0.192,0.18-0.432,0.27-0.72,0.27c-0.984,0-2.544-1.164-4.68-3.492
		c-0.553-0.576-0.99-1.026-1.314-1.35c-0.324-0.324-0.702-0.57-1.134-0.738c-0.192-0.072-0.475-0.126-0.846-0.162
		c-0.373-0.036-0.78-0.054-1.225-0.054s-0.918,0-1.422,0s-0.984,0-1.439,0c-0.841,0-1.345,0.084-1.513,0.252
		C9.505,3.48,9.462,3.6,9.45,3.744s-0.018,0.324-0.018,0.54v8.568h1.116c0.552,0,1.157-0.06,1.817-0.18
		c0.66-0.12,1.229-0.348,1.71-0.684c0.336-0.264,0.643-0.618,0.918-1.062c0.276-0.444,0.559-1.05,0.847-1.818
		c0.191-0.552,0.527-0.828,1.008-0.828c0.191,0,0.365,0.036,0.521,0.108c0.156,0.072,0.271,0.228,0.343,0.468
		c0.048,0.168,0.065,0.373,0.054,0.612c-0.013,0.24-0.03,0.504-0.054,0.792c-0.024,0.192-0.061,0.618-0.108,1.278
		c-0.049,0.66-0.072,1.554-0.072,2.682c0,1.416,0.036,2.49,0.108,3.222c0.072,0.732,0.107,1.194,0.107,1.386
		c0,0.6-0.336,0.9-1.008,0.9c-0.312,0-0.546-0.072-0.702-0.216s-0.282-0.468-0.378-0.972c-0.168-0.888-0.408-1.596-0.72-2.124
		c-0.312-0.528-0.684-0.93-1.116-1.206c-0.432-0.275-0.918-0.456-1.458-0.54c-0.54-0.083-1.122-0.126-1.746-0.126H9.433v8.208
		c0,0.432,0.006,0.787,0.018,1.062c0.012,0.276,0.066,0.499,0.162,0.666c0.096,0.192,0.282,0.324,0.559,0.396
		c0.275,0.072,0.545,0.108,0.81,0.108c0.191,0,0.498-0.005,0.918-0.018c0.42-0.012,0.75-0.018,0.99-0.018
		c0.407,0,0.684,0.072,0.828,0.216c0.144,0.144,0.216,0.373,0.216,0.684c0,0.384-0.061,0.642-0.18,0.774
		c-0.121,0.132-0.337,0.198-0.648,0.198c-0.072,0-0.294-0.012-0.666-0.036c-0.372-0.024-0.828-0.042-1.368-0.054
		c-0.54-0.012-1.146-0.03-1.817-0.054c-0.673-0.024-1.332-0.036-1.98-0.036c-1.849,0-3.276,0.03-4.284,0.09s-1.656,0.09-1.943,0.09
		C0.348,26.82,0,26.496,0,25.848c0-0.384,0.084-0.636,0.253-0.756c0.167-0.12,0.6-0.18,1.296-0.18c0.455,0,0.815-0.018,1.08-0.054
		c0.264-0.036,0.491-0.126,0.684-0.27c0.191-0.144,0.324-0.335,0.396-0.576c0.072-0.24,0.108-0.696,0.108-1.368V7.02
		c0-0.815-0.013-1.476-0.036-1.98c-0.024-0.504-0.084-0.9-0.18-1.188c-0.097-0.288-0.223-0.48-0.378-0.576
		C3.066,3.181,2.845,3.132,2.557,3.132c-0.312,0-0.522,0.006-0.63,0.018c-0.108,0.013-0.259,0.018-0.45,0.018
		c-0.48,0-0.805-0.078-0.972-0.234C0.336,2.778,0.253,2.497,0.253,2.088c0-0.6,0.228-0.9,0.684-0.9c0.023,0,0.084,0.006,0.18,0.018
		c0.096,0.012,0.168,0.018,0.216,0.018c0.12,0,0.36,0.012,0.721,0.036c0.359,0.024,0.792,0.042,1.296,0.054
		C3.853,1.327,4.387,1.338,4.95,1.35c0.563,0.012,1.099,0.018,1.603,0.018c1.8,0,3.647,0.006,5.544,0.018
		c1.896,0.012,3.636,0.006,5.22-0.018c1.271-0.024,2.232-0.06,2.88-0.108c0.648-0.048,1.176-0.072,1.584-0.072
		c0.48,0,0.786,0.09,0.918,0.27s0.198,0.402,0.198,0.666c0,0.192-0.042,0.348-0.126,0.468s-0.168,0.234-0.252,0.342
		c-0.085,0.108-0.168,0.216-0.252,0.324c-0.085,0.108-0.126,0.234-0.126,0.378s0.072,0.378,0.216,0.702
		C22.5,4.662,22.674,5.017,22.879,5.4c0.203,0.384,0.407,0.762,0.611,1.134s0.378,0.678,0.522,0.918
		C24.108,7.62,24.156,7.8,24.156,7.992z"/>
	<path d="M35.461,25.92c0,0.576-0.252,0.864-0.757,0.864c-0.24,0-0.684-0.024-1.332-0.072c-0.647-0.048-1.584-0.072-2.808-0.072
		c-0.96,0-1.782,0.03-2.466,0.09c-0.685,0.06-1.11,0.09-1.278,0.09c-0.456,0-0.762-0.054-0.918-0.162
		c-0.156-0.108-0.233-0.33-0.233-0.666c0-0.336,0.077-0.564,0.233-0.684c0.156-0.12,0.426-0.18,0.811-0.18
		c0.383,0,0.689-0.03,0.918-0.09c0.228-0.06,0.39-0.186,0.485-0.378c0.096-0.192,0.162-0.456,0.198-0.792
		c0.036-0.336,0.054-0.852,0.054-1.548V6.696c0-0.84-0.018-1.428-0.054-1.764C28.278,4.596,28.2,4.369,28.08,4.248
		c-0.192-0.192-0.474-0.324-0.846-0.396s-0.643-0.132-0.81-0.18C26.137,3.6,25.902,3.486,25.723,3.33
		c-0.18-0.156-0.271-0.402-0.271-0.738c0-0.384,0.096-0.636,0.288-0.756c0.192-0.12,0.563-0.204,1.116-0.252
		c0.792-0.048,1.481-0.162,2.07-0.342c0.588-0.18,1.266-0.486,2.034-0.918c0.191-0.12,0.359-0.204,0.504-0.252
		C31.608,0.024,31.765,0,31.933,0c0.695,0,1.044,0.312,1.044,0.936c0,0.24-0.03,0.714-0.09,1.422
		c-0.061,0.708-0.09,1.566-0.09,2.574v17.316c0,0.576,0.005,1.05,0.018,1.422c0.012,0.373,0.072,0.666,0.18,0.882
		c0.108,0.216,0.276,0.366,0.504,0.45c0.229,0.084,0.546,0.126,0.954,0.126c0.336,0,0.588,0.054,0.757,0.162
		C35.376,25.398,35.461,25.608,35.461,25.92z"/>
</g>
</svg>
