<?xml version="1.0" encoding="utf-8"?>
<!-- Generator: Adobe Illustrator 16.0.0, SVG Export Plug-In . SVG Version: 6.00 Build 0)  -->
<!DOCTYPE svg PUBLIC "-//W3C//DTD SVG 1.1//EN" "http://www.w3.org/Graphics/SVG/1.1/DTD/svg11.dtd">
<svg version="1.1" id="Layer_1" xmlns="http://www.w3.org/2000/svg" xmlns:xlink="http://www.w3.org/1999/xlink" x="0px" y="0px"
	 width="35.461px" height="26.82px" viewBox="0 0 35.461 26.82" enable-background="new 0 0 35.461 26.82" xml:space="preserve">
<g>
	<path fill="#222222" d="M24.156,7.992c0,0.264-0.096,0.486-0.288,0.666s-0.433,0.27-0.72,0.27c-0.984,0-2.545-1.162-4.682-3.49
		c-0.553-0.576-0.99-1.026-1.314-1.352c-0.324-0.322-0.702-0.568-1.134-0.736c-0.192-0.072-0.475-0.126-0.846-0.162
		c-0.373-0.036-0.78-0.056-1.225-0.056c-0.445,0-0.918,0-1.422,0s-0.984,0-1.439,0c-0.841,0-1.345,0.084-1.513,0.252
		C9.505,3.48,9.462,3.6,9.45,3.744c-0.012,0.146-0.018,0.324-0.018,0.54v8.568h1.116c0.552,0,1.157-0.062,1.817-0.182
		c0.66-0.12,1.229-0.348,1.71-0.684c0.336-0.264,0.643-0.618,0.918-1.062c0.276-0.442,0.559-1.05,0.847-1.816
		c0.191-0.552,0.527-0.828,1.008-0.828c0.191,0,0.365,0.036,0.521,0.108c0.156,0.07,0.271,0.228,0.343,0.468
		c0.048,0.168,0.065,0.373,0.054,0.61c-0.013,0.24-0.03,0.506-0.054,0.792c-0.024,0.192-0.061,0.618-0.108,1.278
		c-0.049,0.66-0.072,1.554-0.072,2.682c0,1.416,0.036,2.49,0.108,3.224c0.072,0.73,0.107,1.192,0.107,1.386
		c0,0.6-0.336,0.9-1.008,0.9c-0.312,0-0.546-0.072-0.702-0.216c-0.156-0.146-0.282-0.47-0.378-0.974
		c-0.168-0.888-0.408-1.596-0.72-2.124c-0.312-0.526-0.684-0.93-1.116-1.206c-0.432-0.273-0.918-0.456-1.458-0.54
		c-0.54-0.083-1.122-0.126-1.746-0.126H9.433v8.208c0,0.434,0.006,0.787,0.018,1.062c0.012,0.274,0.066,0.499,0.162,0.666
		c0.096,0.19,0.282,0.323,0.559,0.396c0.275,0.072,0.545,0.108,0.81,0.108c0.191,0,0.498-0.005,0.918-0.02
		c0.42-0.012,0.75-0.018,0.99-0.018c0.407,0,0.684,0.072,0.828,0.216c0.144,0.146,0.216,0.373,0.216,0.686
		c0,0.384-0.061,0.642-0.18,0.772c-0.121,0.132-0.337,0.198-0.648,0.198c-0.072,0-0.294-0.012-0.666-0.036s-0.828-0.042-1.368-0.054
		c-0.54-0.014-1.146-0.03-1.817-0.056c-0.673-0.022-1.332-0.034-1.98-0.034c-1.849,0-3.276,0.028-4.284,0.09
		c-1.008,0.06-1.656,0.09-1.943,0.09C0.348,26.82,0,26.496,0,25.848c0-0.386,0.084-0.638,0.253-0.758
		c0.167-0.118,0.6-0.18,1.296-0.18c0.455,0,0.815-0.018,1.08-0.054c0.264-0.036,0.491-0.126,0.684-0.271
		c0.191-0.144,0.324-0.335,0.396-0.575c0.072-0.239,0.108-0.695,0.108-1.367V7.02c0-0.815-0.013-1.478-0.036-1.98
		C3.757,4.536,3.697,4.14,3.601,3.852c-0.097-0.288-0.223-0.48-0.378-0.576C3.066,3.181,2.845,3.132,2.557,3.132
		c-0.312,0-0.522,0.008-0.63,0.02c-0.108,0.013-0.259,0.018-0.45,0.018c-0.48,0-0.805-0.078-0.972-0.232
		C0.336,2.778,0.253,2.497,0.253,2.088c0-0.6,0.228-0.898,0.684-0.898c0.023,0,0.084,0.006,0.18,0.018
		c0.096,0.012,0.168,0.02,0.216,0.02c0.12,0,0.36,0.012,0.721,0.034C2.413,1.284,2.846,1.302,3.35,1.314
		c0.503,0.013,1.037,0.022,1.6,0.036c0.563,0.012,1.099,0.018,1.603,0.018c1.8,0,3.647,0.006,5.544,0.018
		c1.896,0.014,3.636,0.008,5.22-0.018c1.271-0.024,2.232-0.06,2.88-0.108c0.648-0.048,1.176-0.07,1.584-0.07
		c0.48,0,0.785,0.09,0.918,0.27c0.132,0.182,0.197,0.402,0.197,0.666c0,0.192-0.041,0.35-0.125,0.468
		c-0.084,0.12-0.168,0.234-0.252,0.344c-0.086,0.106-0.168,0.216-0.252,0.322c-0.086,0.108-0.127,0.234-0.127,0.379
		s0.071,0.379,0.217,0.701c0.143,0.324,0.315,0.681,0.521,1.062c0.203,0.384,0.407,0.762,0.61,1.134s0.379,0.678,0.521,0.918
		C24.107,7.62,24.156,7.8,24.156,7.992z"/>
	<path fill="#222222" d="M35.461,25.92c0,0.576-0.252,0.864-0.757,0.864c-0.24,0-0.685-0.024-1.332-0.072s-1.584-0.07-2.808-0.07
		c-0.961,0-1.782,0.028-2.467,0.09c-0.686,0.06-1.109,0.09-1.277,0.09c-0.457,0-0.762-0.054-0.918-0.162s-0.233-0.33-0.233-0.666
		s0.077-0.563,0.233-0.684s0.426-0.182,0.811-0.182c0.383,0,0.689-0.028,0.918-0.09c0.229-0.06,0.391-0.186,0.485-0.378
		c0.096-0.192,0.161-0.456,0.198-0.792c0.035-0.336,0.054-0.852,0.054-1.548V6.696c0-0.84-0.019-1.428-0.054-1.764
		C28.277,4.596,28.2,4.369,28.08,4.248c-0.191-0.19-0.475-0.324-0.846-0.396c-0.373-0.072-0.645-0.134-0.812-0.182
		c-0.286-0.07-0.521-0.185-0.7-0.341c-0.179-0.156-0.271-0.402-0.271-0.738c0-0.384,0.096-0.636,0.288-0.756
		c0.191-0.12,0.562-0.204,1.115-0.252c0.793-0.048,1.48-0.162,2.069-0.342s1.267-0.486,2.034-0.918
		c0.189-0.12,0.357-0.204,0.504-0.252C31.607,0.024,31.766,0,31.934,0c0.694,0,1.043,0.312,1.043,0.938
		c0,0.238-0.028,0.714-0.09,1.422c-0.061,0.708-0.09,1.564-0.09,2.574v17.314c0,0.576,0.005,1.05,0.018,1.422
		c0.014,0.373,0.072,0.666,0.182,0.882c0.107,0.218,0.275,0.366,0.504,0.45s0.546,0.126,0.954,0.126
		c0.336,0,0.588,0.056,0.757,0.162C35.376,25.398,35.461,25.608,35.461,25.92z"/>
</g>
</svg>
