<?xml version="1.0" encoding="utf-8"?>
<!-- Generator: Adobe Illustrator 16.0.0, SVG Export Plug-In . SVG Version: 6.00 Build 0)  -->
<!DOCTYPE svg PUBLIC "-//W3C//DTD SVG 1.1//EN" "http://www.w3.org/Graphics/SVG/1.1/DTD/svg11.dtd">
<svg version="1.1" id="Layer_1" xmlns="http://www.w3.org/2000/svg" xmlns:xlink="http://www.w3.org/1999/xlink" x="0px" y="0px"
	 width="33.406px" height="26px" viewBox="-0.055 -0.043 33.406 26" enable-background="new -0.055 -0.043 33.406 26"
	 xml:space="preserve">
<g>
	<path fill="#222222" d="M12.875,14.439c-3.575-0.105-4.298-0.105-8.596-0.145c-0.072,1.553-0.072,7.077,0.217,11.015l-0.181,0.253
		c-1.986,0-2.276,0.037-4.189,0.108l-0.182-0.253c0.145-2.744,0.216-4.84,0.216-15.493c0-5.127-0.108-7.403-0.216-9.607l0.181-0.252
		c2.492,0.036,12.063-0.038,14.555-0.108l0.181,0.253c-0.145,1.3-0.145,1.481-0.217,2.888l-0.216,0.218
		C9.949,3.207,8.721,3.171,4.314,3.171C4.279,4.652,4.207,8.298,4.207,10.43v0.831c4.118-0.037,5.346-0.073,8.956-0.182l0.181,0.218
		c-0.145,1.661-0.145,1.841-0.253,2.888L12.875,14.439z"/>
	<path fill="#222222" d="M33.028,19.387c-0.396,1.77-1.154,3.179-2.35,4.368c-1.587,1.589-3.719,2.202-6.247,2.202
		c-3.251,0-5.309-1.229-6.465-2.419c-2.455-2.491-2.49-6.175-2.49-7.367c0-1.373,0.073-4.912,2.49-7.333
		c1.014-1.047,3.108-2.528,6.718-2.528c2.456,0,4.876,0.794,6.465,2.601c1.66,1.914,2.13,4.443,2.201,6.97
		C33.353,17.112,33.281,18.303,33.028,19.387z M28.37,11.116c-0.688-1.119-1.841-2.059-3.865-2.059
		c-0.688,0-2.709,0.072-3.973,2.095c-0.977,1.48-1.084,3.575-1.084,5.092c0,1.442,0.038,5.091,2.889,6.537
		c0.649,0.325,1.409,0.47,2.132,0.47c1.337,0,3.07-0.434,4.117-2.419c0.831-1.625,0.866-4.045,0.831-4.804
		C29.417,15.125,29.272,12.705,28.37,11.116z"/>
</g>
</svg>
