<?xml version="1.0" encoding="utf-8"?>
<!-- Generator: Adobe Illustrator 16.0.0, SVG Export Plug-In . SVG Version: 6.00 Build 0)  -->
<!DOCTYPE svg PUBLIC "-//W3C//DTD SVG 1.1//EN" "http://www.w3.org/Graphics/SVG/1.1/DTD/svg11.dtd">
<svg version="1.1" id="Layer_1" xmlns="http://www.w3.org/2000/svg" xmlns:xlink="http://www.w3.org/1999/xlink" x="0px" y="0px"
	 width="33.297px" height="25.916px" viewBox="0 0 33.297 25.916" enable-background="new 0 0 33.297 25.916" xml:space="preserve">
<g>
	<path fill="#222222" d="M12.887,14.435c-3.563-0.106-4.284-0.106-8.567-0.145c-0.072,1.548-0.072,7.055,0.216,10.979l-0.18,0.252
		c-1.979,0-2.268,0.037-4.175,0.108L0,25.377c0.144-2.735,0.216-4.824,0.216-15.442C0.216,4.824,0.108,2.556,0,0.36l0.18-0.252
		C2.664,0.144,12.203,0.071,14.687,0l0.18,0.252c-0.144,1.296-0.144,1.476-0.216,2.879l-0.216,0.217
		C9.971,3.239,8.747,3.203,4.355,3.203C4.32,4.679,4.248,8.314,4.248,10.438v0.828c4.104-0.036,5.328-0.072,8.927-0.181l0.18,0.217
		c-0.144,1.655-0.144,1.835-0.252,2.879L12.887,14.435z"/>
	<path fill="#222222" d="M32.975,19.365c-0.396,1.764-1.152,3.168-2.342,4.354c-1.582,1.584-3.707,2.195-6.227,2.195
		c-3.24,0-5.291-1.226-6.443-2.411c-2.447-2.482-2.482-6.154-2.482-7.343c0-1.368,0.072-4.896,2.482-7.308
		c1.01-1.044,3.098-2.52,6.695-2.52c2.447,0,4.859,0.792,6.443,2.592c1.655,1.907,2.123,4.428,2.194,6.947
		C33.297,17.099,33.227,18.285,32.975,19.365z M28.331,11.122c-0.685-1.115-1.834-2.052-3.853-2.052
		c-0.684,0-2.699,0.072-3.959,2.088c-0.973,1.476-1.08,3.563-1.08,5.075c0,1.438,0.037,5.074,2.879,6.516
		c0.648,0.324,1.404,0.468,2.125,0.468c1.332,0,3.06-0.432,4.104-2.411c0.828-1.619,0.863-4.031,0.828-4.787
		C29.375,15.118,29.23,12.706,28.331,11.122z"/>
</g>
</svg>
