<?xml version="1.0" encoding="utf-8"?>
<!-- Generator: Adobe Illustrator 16.0.0, SVG Export Plug-In . SVG Version: 6.00 Build 0)  -->
<!DOCTYPE svg PUBLIC "-//W3C//DTD SVG 1.1 Tiny//EN" "http://www.w3.org/Graphics/SVG/1.1/DTD/svg11-tiny.dtd">
<svg version="1.1" baseProfile="tiny" id="Layer_1" xmlns="http://www.w3.org/2000/svg" xmlns:xlink="http://www.w3.org/1999/xlink"
	 x="0px" y="0px" width="33.298px" height="25.916px" viewBox="0 0 33.298 25.916" xml:space="preserve">
<g>
	<path d="M12.887,14.434c-3.563-0.107-4.284-0.107-8.567-0.144c-0.072,1.548-0.072,7.055,0.216,10.979l-0.18,0.252
		c-1.979,0-2.268,0.036-4.175,0.108L0,25.377c0.144-2.736,0.216-4.824,0.216-15.442c0-5.111-0.108-7.379-0.216-9.575l0.18-0.252
		C2.664,0.144,12.203,0.071,14.687,0l0.18,0.252c-0.144,1.296-0.144,1.476-0.216,2.879l-0.216,0.217
		C9.971,3.239,8.747,3.203,4.355,3.203C4.32,4.679,4.248,8.314,4.248,10.438v0.828c4.104-0.036,5.328-0.072,8.927-0.181l0.18,0.217
		c-0.144,1.655-0.144,1.835-0.252,2.879L12.887,14.434z"/>
	<path d="M32.974,19.365c-0.396,1.764-1.152,3.168-2.34,4.355c-1.583,1.584-3.708,2.195-6.227,2.195
		c-3.24,0-5.292-1.224-6.443-2.411c-2.448-2.483-2.483-6.155-2.483-7.343c0-1.368,0.072-4.896,2.483-7.308
		c1.008-1.044,3.096-2.52,6.695-2.52c2.448,0,4.859,0.792,6.443,2.592c1.656,1.907,2.124,4.428,2.195,6.947
		C33.298,17.098,33.226,18.285,32.974,19.365z M28.331,11.122c-0.684-1.115-1.835-2.052-3.852-2.052c-0.684,0-2.7,0.072-3.959,2.088
		c-0.972,1.476-1.08,3.563-1.08,5.075c0,1.44,0.036,5.075,2.879,6.516c0.648,0.324,1.404,0.468,2.124,0.468
		c1.332,0,3.06-0.432,4.104-2.412c0.828-1.619,0.864-4.031,0.828-4.787C29.375,15.118,29.23,12.706,28.331,11.122z"/>
</g>
</svg>
