<?xml version="1.0" encoding="utf-8"?>
<!-- Generator: Adobe Illustrator 16.0.0, SVG Export Plug-In . SVG Version: 6.00 Build 0)  -->
<!DOCTYPE svg PUBLIC "-//W3C//DTD SVG 1.1//EN" "http://www.w3.org/Graphics/SVG/1.1/DTD/svg11.dtd">
<svg version="1.1" id="Layer_1" xmlns="http://www.w3.org/2000/svg" xmlns:xlink="http://www.w3.org/1999/xlink" x="0px" y="0px"
	 width="29.344px" height="26px" viewBox="2.457 2.176 29.344 26" enable-background="new 2.457 2.176 29.344 26"
	 xml:space="preserve">
<g>
	<path fill="#222222" d="M6.266,22.729H2.457V2.176h12.994v3.178H6.266v5.619h7.228v3.087H6.266V22.729z"/>
	<path fill="#222222" d="M31.787,4.616v2.632h-1.053c-0.461,0-0.867,0.055-1.214,0.165c-0.346,0.111-0.684,0.467-1.016,1.069
		c1.203,0.983,1.806,2.078,1.806,3.283c0,1.346-0.564,2.459-1.696,3.343c-1.128,0.879-2.621,1.325-4.479,1.325
		c-0.803,0-1.74-0.13-2.816-0.391c-0.7,0.322-1.052,0.819-1.052,1.49c0,0.372,0.169,0.71,0.514,1.021
		c0.339,0.311,0.857,0.468,1.552,0.468h4.517c1.547,0,2.757,0.397,3.634,1.195s1.317,1.79,1.317,2.974
		c0,1.436-0.664,2.626-1.994,3.569c-1.332,0.946-3.301,1.416-5.908,1.416c-4.906,0-7.363-1.374-7.363-4.112
		c0-1.354,0.738-2.383,2.213-3.087c-0.946-0.803-1.416-1.641-1.416-2.514c0-1.328,0.808-2.378,2.424-3.162
		c-1.406-0.854-2.109-2.028-2.109-3.523c0-1.264,0.518-2.341,1.552-3.234c1.036-0.894,2.604-1.339,4.713-1.339
		c0.963,0,1.942,0.106,2.937,0.316c0.462-1.937,1.681-2.907,3.658-2.907h1.279V4.616L31.787,4.616z M20.224,21.9
		c-0.491,0.452-0.739,0.889-0.739,1.312c0,0.692,0.413,1.302,1.236,1.829c0.823,0.526,2.133,0.789,3.929,0.789
		c2.642,0,3.961-0.678,3.961-2.032c0-0.503-0.232-0.881-0.694-1.138c-0.462-0.255-0.989-0.383-1.582-0.383H22.69
		C21.999,22.277,21.177,22.152,20.224,21.9z M23.989,14.402c1.868,0,2.803-0.878,2.803-2.634c0-0.673-0.233-1.241-0.699-1.702
		c-0.468-0.461-1.148-0.692-2.042-0.692c-0.903,0-1.603,0.24-2.099,0.723s-0.745,1.086-0.745,1.807c0,0.743,0.245,1.342,0.737,1.805
		C22.433,14.17,23.113,14.402,23.989,14.402z"/>
</g>
</svg>
