<?xml version="1.0" encoding="utf-8"?>
<!-- Generator: Adobe Illustrator 16.0.0, SVG Export Plug-In . SVG Version: 6.00 Build 0)  -->
<!DOCTYPE svg PUBLIC "-//W3C//DTD SVG 1.1//EN" "http://www.w3.org/Graphics/SVG/1.1/DTD/svg11.dtd">
<svg version="1.1" id="Layer_1" xmlns="http://www.w3.org/2000/svg" xmlns:xlink="http://www.w3.org/1999/xlink" x="0px" y="0px"
	 width="34.26px" height="30.357px" viewBox="0 0 34.26 30.357" enable-background="new 0 0 34.26 30.357" xml:space="preserve">
<g>
	<path fill="#222222" d="M4.447,23.994H0V0h15.17v3.709H4.447v6.559h8.438v3.604H4.447V23.994z"/>
	<path fill="#222222" d="M34.242,2.848v3.074h-1.229c-0.539,0-1.012,0.064-1.416,0.193s-0.8,0.545-1.187,1.248
		c1.405,1.148,2.108,2.426,2.108,3.832c0,1.57-0.658,2.871-1.979,3.902c-1.318,1.029-3.062,1.547-5.229,1.547
		c-0.938,0-2.033-0.152-3.287-0.457c-0.819,0.375-1.229,0.955-1.229,1.739c0,0.435,0.199,0.831,0.599,1.194
		c0.398,0.363,1.002,0.545,1.812,0.545h5.272c1.806,0,3.219,0.466,4.244,1.397c1.025,0.931,1.538,2.089,1.538,3.472
		c0,1.676-0.776,3.064-2.329,4.166c-1.553,1.104-3.853,1.652-6.897,1.652c-5.729,0-8.596-1.602-8.596-4.799
		c0-1.582,0.861-2.783,2.583-3.604c-1.103-0.938-1.651-1.916-1.651-2.936c0-1.549,0.942-2.777,2.83-3.691
		c-1.642-0.996-2.462-2.367-2.462-4.113c0-1.477,0.604-2.734,1.812-3.777s3.04-1.563,5.501-1.563c1.125,0,2.268,0.123,3.428,0.369
		c0.539-2.262,1.963-3.393,4.271-3.393h1.493V2.848z M20.742,23.027c-0.574,0.527-0.861,1.037-0.861,1.529
		c0,0.809,0.479,1.521,1.44,2.136c0.962,0.615,2.49,0.923,4.589,0.923c3.082,0,4.623-0.791,4.623-2.373
		c0-0.586-0.271-1.028-0.81-1.327s-1.154-0.448-1.847-0.448h-4.254C22.815,23.467,21.854,23.32,20.742,23.027z M25.138,14.273
		c2.18,0,3.271-1.025,3.271-3.076c0-0.785-0.272-1.447-0.817-1.986s-1.339-0.809-2.382-0.809c-1.056,0-1.872,0.281-2.452,0.844
		c-0.58,0.563-0.869,1.268-0.869,2.109c0,0.867,0.286,1.568,0.86,2.107C23.321,14.002,24.117,14.273,25.138,14.273z"/>
</g>
</svg>
