<?xml version="1.0" encoding="utf-8"?>
<!-- Generator: Adobe Illustrator 16.0.0, SVG Export Plug-In . SVG Version: 6.00 Build 0)  -->
<!DOCTYPE svg PUBLIC "-//W3C//DTD SVG 1.1 Tiny//EN" "http://www.w3.org/Graphics/SVG/1.1/DTD/svg11-tiny.dtd">
<svg version="1.1" baseProfile="tiny" id="Layer_1" xmlns="http://www.w3.org/2000/svg" xmlns:xlink="http://www.w3.org/1999/xlink"
	 x="0px" y="0px" width="34.26px" height="30.357px" viewBox="0 0 34.26 30.357" xml:space="preserve">
<g>
	<path d="M4.447,23.994H0V0h15.17v3.709H4.447v6.557h8.438v3.604H4.447V23.994z"/>
	<path d="M34.242,2.848v3.076h-1.23c-0.539,0-1.011,0.064-1.415,0.193s-0.8,0.545-1.187,1.248c1.406,1.148,2.109,2.426,2.109,3.832
		c0,1.57-0.659,2.871-1.978,3.902s-3.062,1.547-5.229,1.547c-0.938,0-2.033-0.152-3.287-0.457c-0.82,0.375-1.23,0.955-1.23,1.74
		c0,0.434,0.199,0.832,0.598,1.195s1.002,0.545,1.811,0.545h5.273c1.805,0,3.22,0.466,4.245,1.397s1.538,2.089,1.538,3.472
		c0,1.676-0.776,3.064-2.329,4.166s-3.853,1.652-6.899,1.652c-5.73,0-8.596-1.6-8.596-4.799c0-1.582,0.861-2.783,2.584-3.604
		c-1.102-0.938-1.652-1.916-1.652-2.936c0-1.547,0.943-2.777,2.83-3.691c-1.641-0.996-2.461-2.367-2.461-4.113
		c0-1.477,0.604-2.736,1.811-3.779s3.041-1.564,5.502-1.564c1.125,0,2.268,0.123,3.428,0.369c0.539-2.262,1.963-3.393,4.271-3.393
		H34.242z M20.742,23.027c-0.574,0.527-0.861,1.037-0.861,1.529c0,0.809,0.48,1.521,1.441,2.136s2.49,0.923,4.588,0.923
		c3.082,0,4.623-0.791,4.623-2.373c0-0.586-0.27-1.028-0.809-1.327s-1.154-0.448-1.846-0.448h-4.254
		C22.816,23.467,21.855,23.32,20.742,23.027z M25.137,14.273c2.18,0,3.27-1.025,3.27-3.076c0-0.785-0.272-1.447-0.817-1.986
		s-1.339-0.809-2.382-0.809c-1.055,0-1.872,0.281-2.452,0.844s-0.87,1.266-0.87,2.109c0,0.867,0.287,1.57,0.861,2.109
		S24.117,14.273,25.137,14.273z"/>
</g>
</svg>
