<?xml version="1.0" encoding="utf-8"?>
<!-- Generator: Adobe Illustrator 16.0.0, SVG Export Plug-In . SVG Version: 6.00 Build 0)  -->
<!DOCTYPE svg PUBLIC "-//W3C//DTD SVG 1.1//EN" "http://www.w3.org/Graphics/SVG/1.1/DTD/svg11.dtd">
<svg version="1.1" id="Layer_1" xmlns="http://www.w3.org/2000/svg" xmlns:xlink="http://www.w3.org/1999/xlink" x="0px" y="0px"
	 width="28.382px" height="26px" viewBox="-1.373 -1.259 28.382 26" enable-background="new -1.373 -1.259 28.382 26"
	 xml:space="preserve">
<g>
	<path fill="#222222" d="M22.76,0.647l0.214,2.958c0.077,0.896,0.115,1.505,0.115,1.829l-0.545,0.097
		c-0.869-1.972-1.952-3.45-3.244-4.438c-1.29-0.987-2.87-1.479-4.735-1.479c-2.284,0-4.062,0.28-5.333,0.836
		C7.39,1.244,5.813,2.618,4.503,4.578c-1.31,1.959-1.966,4.32-1.966,7.084c0,1.596,0.24,3.029,0.721,4.303
		c0.479,1.271,1.159,2.454,2.034,3.552c0.877,1.095,1.911,2.046,3.106,2.85c0.778,0.532,1.707,0.935,2.784,1.207
		c0.61,0.144,1.518,0.213,2.725,0.213c0.778,0,1.641-0.11,2.59-0.331c0.947-0.219,1.661-0.517,2.145-0.886
		c0.479-0.37,0.806-0.787,0.982-1.254c0.175-0.471,0.262-1.377,0.262-2.729c0-2.241-0.151-3.552-0.447-3.922
		s-1.239-0.612-2.821-0.726l-0.779-0.063l-0.526,0.022c-0.076-0.015-0.183-0.032-0.311-0.059l-0.293-0.487
		c0-0.065,0.046-0.148,0.137-0.252c0.672-0.107,2.141-0.158,4.398-0.158c0.506,0,1.331,0.013,2.472,0.037l2.006,0.076l1.811-0.021
		c0.35,0,0.772,0.014,1.265,0.038c0.091,0.013,0.153,0.035,0.175,0.068c0.025,0.031,0.04,0.084,0.04,0.162
		c0,0.145-0.033,0.324-0.098,0.544c-0.545,0.114-0.968,0.174-1.266,0.174l-1.269-0.02c-0.429,0-0.769,0.149-1.032,0.446
		c-0.129,0.143-0.197,0.627-0.197,1.458l0.021,2.551c0,1.753-0.067,2.867-0.209,3.347c-0.078,0.286-0.244,0.541-0.487,0.768
		c-0.247,0.227-0.766,0.495-1.559,0.807c-1.129,0.453-2.153,0.76-3.074,0.914c-1.714,0.301-3.366,0.448-4.961,0.448
		c-2.569,0-4.675-0.33-6.316-0.983c-1.641-0.656-3.055-1.568-4.243-2.736c-1.187-1.171-2.034-2.35-2.54-3.543
		c-0.771-1.733-1.153-3.516-1.153-5.332c0-2.271,0.6-4.494,1.8-6.667C1.625,3.31,3.562,1.543,6.235,0.179
		c1.882-0.958,4.438-1.438,7.67-1.438c2.231,0,4.058,0.195,5.479,0.584C20.804-0.288,21.931,0.153,22.76,0.647z"/>
</g>
</svg>
