<?xml version="1.0" encoding="utf-8"?>
<!-- Generator: Adobe Illustrator 16.0.0, SVG Export Plug-In . SVG Version: 6.00 Build 0)  -->
<!DOCTYPE svg PUBLIC "-//W3C//DTD SVG 1.1 Tiny//EN" "http://www.w3.org/Graphics/SVG/1.1/DTD/svg11-tiny.dtd">
<svg version="1.1" baseProfile="tiny" id="Layer_1" xmlns="http://www.w3.org/2000/svg" xmlns:xlink="http://www.w3.org/1999/xlink"
	 x="0px" y="0px" width="25.629px" height="23.502px" viewBox="0 0 25.629 23.502" xml:space="preserve">
<g>
	<path d="M21.797,1.723l0.193,2.672c0.07,0.809,0.105,1.359,0.105,1.652l-0.492,0.088c-0.785-1.781-1.761-3.117-2.927-4.008
		s-2.593-1.336-4.28-1.336c-2.062,0-3.668,0.252-4.816,0.756C7.916,2.262,6.492,3.504,5.309,5.273s-1.775,3.902-1.775,6.398
		c0,1.441,0.217,2.736,0.65,3.885s1.046,2.218,1.837,3.208s1.726,1.849,2.804,2.575c0.703,0.48,1.541,0.844,2.514,1.09
		c0.551,0.129,1.371,0.193,2.461,0.193c0.703,0,1.482-0.1,2.338-0.299s1.5-0.466,1.934-0.8s0.729-0.712,0.888-1.134
		s0.237-1.242,0.237-2.461c0-2.027-0.135-3.208-0.404-3.542s-1.119-0.554-2.549-0.659l-0.703-0.053l-0.475,0.018
		c-0.07-0.012-0.164-0.029-0.281-0.053l-0.264-0.439c0-0.059,0.041-0.135,0.123-0.229c0.609-0.094,1.934-0.141,3.973-0.141
		c0.457,0,1.201,0.012,2.232,0.035l1.811,0.07l1.635-0.018c0.316,0,0.697,0.012,1.143,0.035c0.082,0.012,0.135,0.032,0.158,0.062
		s0.035,0.079,0.035,0.149c0,0.129-0.029,0.293-0.088,0.492c-0.492,0.105-0.873,0.158-1.143,0.158l-1.143-0.018
		c-0.387,0-0.697,0.135-0.932,0.404c-0.117,0.129-0.176,0.568-0.176,1.318l0.018,2.303c0,1.582-0.064,2.59-0.193,3.023
		c-0.07,0.258-0.217,0.489-0.439,0.694s-0.691,0.448-1.406,0.729c-1.02,0.41-1.945,0.686-2.777,0.826
		c-1.547,0.27-3.041,0.404-4.482,0.404c-2.32,0-4.222-0.296-5.704-0.888s-2.76-1.415-3.832-2.47s-1.837-2.121-2.294-3.199
		C0.346,15.363,0,13.752,0,12.111c0-2.051,0.542-4.058,1.626-6.021s2.833-3.56,5.247-4.79C8.572,0.434,10.881,0,13.799,0
		c2.016,0,3.665,0.176,4.948,0.527S21.047,1.277,21.797,1.723z"/>
</g>
</svg>
