<?xml version="1.0" encoding="utf-8"?>
<!-- Generator: Adobe Illustrator 16.0.0, SVG Export Plug-In . SVG Version: 6.00 Build 0)  -->
<!DOCTYPE svg PUBLIC "-//W3C//DTD SVG 1.1 Tiny//EN" "http://www.w3.org/Graphics/SVG/1.1/DTD/svg11-tiny.dtd">
<svg version="1.1" baseProfile="tiny" id="Layer_1" xmlns="http://www.w3.org/2000/svg" xmlns:xlink="http://www.w3.org/1999/xlink"
	 x="0px" y="0px" width="40.19px" height="25.488px" viewBox="0 0 40.19 25.488" xml:space="preserve">
<g>
	<path d="M24.192,14.868c0,0.312-0.204,0.528-0.612,0.648c-0.601,0.168-0.972,0.312-1.116,0.432
		c-0.408,0.336-0.612,0.924-0.612,1.764v3.168c0,1.225,0.167,2.124,0.504,2.7c0.023,0.049,0.036,0.097,0.036,0.145
		c0,0.096-0.18,0.229-0.54,0.396c-2.088,0.912-4.692,1.368-7.812,1.368c-3.937,0-7.212-1.056-9.828-3.168
		C1.404,20.04,0,16.98,0,13.141C0,9.085,1.428,5.845,4.284,3.42C6.972,1.141,10.392,0,14.544,0c2.04,0,3.948,0.276,5.724,0.828
		c0.383,0.12,0.972,0.265,1.764,0.433c0.096,1.151,0.192,2.844,0.288,5.075c0,0.121-0.042,0.223-0.126,0.307
		c-0.084,0.084-0.186,0.114-0.306,0.09c-0.336,0-0.66-0.324-0.972-0.972c-0.192-0.456-0.396-0.924-0.612-1.404
		c-1.2-2.111-3.264-3.168-6.192-3.168c-3.312,0-5.904,1.08-7.776,3.24c-1.8,2.04-2.7,4.74-2.7,8.1c0,3.456,0.912,6.252,2.736,8.388
		c1.944,2.257,4.62,3.384,8.028,3.384c1.776,0,2.952-0.245,3.528-0.737c0.576-0.492,0.864-1.578,0.864-3.258
		c0-1.464-0.06-2.448-0.18-2.952c-0.24-1.08-0.78-1.668-1.62-1.765c-0.456-0.023-0.912-0.048-1.368-0.071
		c-0.625-0.096-0.936-0.348-0.936-0.756c0-0.288,0.324-0.433,0.972-0.433c0.696,0,1.722,0.024,3.078,0.072s2.37,0.072,3.042,0.072
		c0.216,0,0.516-0.024,0.9-0.072s0.66-0.072,0.828-0.072C23.963,14.305,24.192,14.484,24.192,14.868z"/>
	<path d="M40.14,21.564c-0.312,1.057-1.188,1.956-2.628,2.7c-1.32,0.647-2.592,0.972-3.816,0.972c-2.136,0-3.816-0.72-5.04-2.16
		c-1.152-1.344-1.728-3.096-1.728-5.256c0-2.544,0.852-4.608,2.556-6.192c1.632-1.535,3.731-2.304,6.3-2.304
		c2.688,0,4.032,0.637,4.032,1.908c0,0.36-0.126,0.69-0.378,0.99c-0.252,0.3-0.558,0.449-0.918,0.449
		c-0.456,0-1.074-0.335-1.854-1.008c-0.78-0.672-1.494-1.008-2.142-1.008c-1.536,0-2.76,0.672-3.672,2.016
		c-0.792,1.152-1.188,2.545-1.188,4.177c0,1.752,0.492,3.216,1.476,4.392c1.056,1.272,2.448,1.908,4.176,1.908
		c0.936,0,1.764-0.192,2.484-0.576c0.432-0.239,0.876-0.6,1.332-1.08c0.36-0.384,0.6-0.576,0.72-0.576
		C40.164,20.916,40.26,21.132,40.14,21.564z"/>
</g>
</svg>
