<?xml version="1.0" encoding="utf-8"?>
<!-- Generator: Adobe Illustrator 16.0.0, SVG Export Plug-In . SVG Version: 6.00 Build 0)  -->
<!DOCTYPE svg PUBLIC "-//W3C//DTD SVG 1.1//EN" "http://www.w3.org/Graphics/SVG/1.1/DTD/svg11.dtd">
<svg version="1.1" id="Layer_1" xmlns="http://www.w3.org/2000/svg" xmlns:xlink="http://www.w3.org/1999/xlink" x="0px" y="0px"
	 width="40.996px" height="26px" viewBox="-0.403 -0.255 40.996 26" enable-background="new -0.403 -0.255 40.996 26"
	 xml:space="preserve">
<g>
	<path fill="#222222" d="M24.275,14.911c0,0.318-0.208,0.538-0.624,0.66c-0.613,0.171-0.992,0.317-1.138,0.439
		c-0.416,0.343-0.622,0.943-0.622,1.8v3.23c0,1.253,0.169,2.167,0.514,2.755c0.021,0.05,0.036,0.1,0.036,0.15
		c0,0.097-0.187,0.232-0.55,0.403c-2.131,0.93-4.786,1.395-7.97,1.395c-4.017,0-7.357-1.076-10.025-3.23
		c-2.866-2.328-4.298-5.449-4.298-9.364c0-4.139,1.458-7.445,4.371-9.917c2.742-2.325,6.23-3.488,10.466-3.488
		c2.08,0,4.026,0.281,5.84,0.845c0.392,0.123,0.992,0.27,1.801,0.441c0.098,1.174,0.194,2.903,0.293,5.176
		c0,0.124-0.043,0.229-0.128,0.316c-0.087,0.087-0.192,0.114-0.311,0.092c-0.346,0-0.676-0.331-0.995-0.995
		c-0.194-0.461-0.404-0.942-0.622-1.429C19.087,2.038,16.98,0.96,13.994,0.96c-3.378,0-6.021,1.101-7.931,3.305
		C4.228,6.343,3.31,9.097,3.31,12.527c0,3.525,0.929,6.379,2.79,8.556c1.983,2.303,4.713,3.451,8.188,3.451
		c1.809,0,3.011-0.247,3.599-0.749c0.586-0.501,0.88-1.608,0.88-3.322c0-1.496-0.062-2.496-0.184-3.011
		c-0.245-1.103-0.796-1.701-1.652-1.803c-0.465-0.021-0.93-0.049-1.396-0.07c-0.637-0.099-0.956-0.356-0.956-0.77
		c0-0.294,0.332-0.444,0.992-0.444c0.71,0,1.756,0.025,3.139,0.074c1.382,0.048,2.416,0.071,3.103,0.071
		c0.222,0,0.526-0.023,0.919-0.071c0.391-0.049,0.672-0.074,0.843-0.074C24.04,14.338,24.275,14.52,24.275,14.911z"/>
	<path fill="#222222" d="M40.542,21.741c-0.319,1.078-1.212,1.995-2.681,2.754c-1.348,0.659-2.645,0.991-3.894,0.991
		c-2.178,0-3.892-0.734-5.142-2.202c-1.174-1.371-1.762-3.157-1.762-5.362c0-2.596,0.869-4.699,2.607-6.315
		c1.665-1.565,3.805-2.35,6.427-2.35c2.742,0,4.111,0.649,4.111,1.946c0,0.364-0.127,0.701-0.384,1.011
		c-0.257,0.306-0.57,0.455-0.937,0.455c-0.465,0-1.096-0.341-1.892-1.028c-0.793-0.686-1.523-1.028-2.186-1.028
		c-1.567,0-2.816,0.686-3.745,2.056c-0.809,1.176-1.213,2.597-1.213,4.264c0,1.786,0.502,3.279,1.509,4.479
		c1.077,1.297,2.495,1.946,4.26,1.946c0.955,0,1.798-0.196,2.531-0.587c0.441-0.244,0.895-0.61,1.358-1.104
		c0.368-0.391,0.613-0.586,0.737-0.586C40.566,21.079,40.664,21.299,40.542,21.741z"/>
</g>
</svg>
