<?xml version="1.0" encoding="utf-8"?>
<!-- Generator: Adobe Illustrator 16.0.0, SVG Export Plug-In . SVG Version: 6.00 Build 0)  -->
<!DOCTYPE svg PUBLIC "-//W3C//DTD SVG 1.1//EN" "http://www.w3.org/Graphics/SVG/1.1/DTD/svg11.dtd">
<svg version="1.1" id="Layer_1" xmlns="http://www.w3.org/2000/svg" xmlns:xlink="http://www.w3.org/1999/xlink" x="0px" y="0px"
	 width="40.189px" height="25.488px" viewBox="0 0 40.189 25.488" enable-background="new 0 0 40.189 25.488" xml:space="preserve">
<g>
	<path fill="#222222" d="M24.192,14.868c0,0.312-0.204,0.528-0.611,0.648c-0.602,0.168-0.973,0.312-1.116,0.432
		c-0.407,0.336-0.611,0.924-0.611,1.764v3.168c0,1.227,0.167,2.124,0.504,2.7c0.022,0.049,0.036,0.097,0.036,0.146
		c0,0.096-0.181,0.229-0.54,0.396c-2.088,0.912-4.691,1.368-7.812,1.368c-3.938,0-7.212-1.056-9.828-3.168
		C1.404,20.04,0,16.98,0,13.141C0,9.085,1.428,5.844,4.284,3.42C6.972,1.141,10.392,0,14.544,0c2.04,0,3.948,0.276,5.725,0.828
		c0.383,0.12,0.973,0.265,1.765,0.433c0.096,1.151,0.191,2.846,0.287,5.075c0,0.121-0.042,0.225-0.126,0.309
		s-0.187,0.112-0.306,0.09c-0.337,0-0.66-0.324-0.973-0.974c-0.191-0.454-0.396-0.924-0.611-1.402
		c-1.2-2.111-3.265-3.168-6.192-3.168c-3.312,0-5.903,1.08-7.775,3.24c-1.8,2.038-2.699,4.738-2.699,8.1
		c0,3.456,0.911,6.252,2.735,8.388c1.943,2.257,4.62,3.384,8.027,3.384c1.775,0,2.952-0.243,3.528-0.735
		c0.575-0.492,0.863-1.578,0.863-3.258c0-1.466-0.061-2.448-0.181-2.952c-0.239-1.08-0.779-1.668-1.619-1.767
		c-0.456-0.021-0.912-0.048-1.368-0.069c-0.625-0.098-0.937-0.35-0.937-0.756c0-0.288,0.324-0.435,0.973-0.435
		c0.695,0,1.722,0.024,3.077,0.072s2.37,0.072,3.042,0.072c0.217,0,0.517-0.024,0.9-0.072c0.383-0.048,0.659-0.072,0.827-0.072
		C23.963,14.305,24.192,14.484,24.192,14.868z"/>
	<path fill="#222222" d="M40.14,21.564c-0.312,1.057-1.188,1.956-2.628,2.7c-1.32,0.646-2.593,0.972-3.816,0.972
		c-2.136,0-3.815-0.72-5.04-2.16c-1.151-1.344-1.728-3.096-1.728-5.256c0-2.544,0.852-4.608,2.556-6.192
		c1.633-1.535,3.73-2.304,6.301-2.304c2.688,0,4.031,0.637,4.031,1.908c0,0.358-0.126,0.688-0.378,0.99
		c-0.252,0.3-0.559,0.447-0.918,0.447c-0.456,0-1.074-0.335-1.854-1.008c-0.779-0.672-1.494-1.008-2.143-1.008
		c-1.536,0-2.76,0.672-3.672,2.016c-0.792,1.152-1.188,2.545-1.188,4.179c0,1.752,0.491,3.216,1.477,4.392
		c1.056,1.272,2.447,1.908,4.176,1.908c0.937,0,1.765-0.192,2.483-0.576c0.433-0.239,0.876-0.6,1.332-1.08
		c0.36-0.384,0.601-0.576,0.721-0.576C40.164,20.916,40.26,21.132,40.14,21.564z"/>
</g>
</svg>
