<?xml version="1.0" encoding="utf-8"?>
<!-- Generator: Adobe Illustrator 16.0.0, SVG Export Plug-In . SVG Version: 6.00 Build 0)  -->
<!DOCTYPE svg PUBLIC "-//W3C//DTD SVG 1.1//EN" "http://www.w3.org/Graphics/SVG/1.1/DTD/svg11.dtd">
<svg version="1.1" id="Layer_1" xmlns="http://www.w3.org/2000/svg" xmlns:xlink="http://www.w3.org/1999/xlink" x="0px" y="0px"
	 width="25.629px" height="23.502px" viewBox="0 0 25.629 23.502" enable-background="new 0 0 25.629 23.502" xml:space="preserve">
<g>
	<path fill="#222222" d="M21.797,1.723l0.193,2.672c0.07,0.809,0.105,1.359,0.105,1.652l-0.492,0.088
		c-0.785-1.781-1.763-3.117-2.929-4.008s-2.593-1.336-4.278-1.336c-2.062,0-3.668,0.252-4.816,0.756
		C7.916,2.262,6.492,3.504,5.309,5.273s-1.775,3.902-1.775,6.398c0,1.441,0.217,2.736,0.65,3.885
		c0.433,1.149,1.046,2.219,1.837,3.209c0.791,0.989,1.726,1.848,2.804,2.574c0.703,0.48,1.541,0.844,2.514,1.09
		c0.551,0.129,1.371,0.193,2.461,0.193c0.703,0,1.482-0.1,2.339-0.299c0.855-0.199,1.5-0.467,1.935-0.801
		c0.434-0.334,0.729-0.711,0.888-1.133c0.159-0.424,0.237-1.242,0.237-2.463c0-2.025-0.136-3.208-0.404-3.542
		s-1.119-0.554-2.549-0.657l-0.703-0.055l-0.476,0.02c-0.069-0.012-0.164-0.029-0.28-0.053L14.521,13.2
		c0-0.059,0.041-0.135,0.123-0.229c0.607-0.096,1.934-0.143,3.973-0.143c0.457,0,1.201,0.012,2.232,0.035l1.811,0.068l1.635-0.018
		c0.316,0,0.697,0.012,1.143,0.035c0.082,0.012,0.137,0.031,0.158,0.062c0.023,0.028,0.035,0.077,0.035,0.147
		c0,0.129-0.029,0.293-0.088,0.491c-0.492,0.104-0.873,0.158-1.143,0.158l-1.145-0.019c-0.387,0-0.695,0.136-0.932,0.403
		c-0.117,0.13-0.178,0.568-0.178,1.318l0.02,2.303c0,1.582-0.062,2.591-0.191,3.022c-0.07,0.259-0.219,0.489-0.439,0.694
		c-0.223,0.205-0.691,0.447-1.406,0.729c-1.02,0.409-1.945,0.687-2.777,0.825c-1.547,0.271-3.041,0.404-4.48,0.404
		c-2.32,0-4.222-0.296-5.704-0.888c-1.482-0.593-2.76-1.416-3.832-2.472c-1.072-1.055-1.837-2.121-2.294-3.198
		C0.346,15.362,0,13.752,0,12.111C0,10.06,0.542,8.053,1.626,6.09S4.459,2.53,6.873,1.3C8.572,0.434,10.881,0,13.799,0
		c2.016,0,3.665,0.176,4.948,0.527C20.029,0.878,21.047,1.277,21.797,1.723z"/>
</g>
</svg>
