<?xml version="1.0" encoding="utf-8"?>
<!-- Generator: Adobe Illustrator 16.0.0, SVG Export Plug-In . SVG Version: 6.00 Build 0)  -->
<!DOCTYPE svg PUBLIC "-//W3C//DTD SVG 1.1 Tiny//EN" "http://www.w3.org/Graphics/SVG/1.1/DTD/svg11-tiny.dtd">
<svg version="1.1" baseProfile="tiny" id="Layer_1" xmlns="http://www.w3.org/2000/svg" xmlns:xlink="http://www.w3.org/1999/xlink"
	 x="0px" y="0px" width="33.624px" height="29.304px" viewBox="0 0 33.624 29.304" xml:space="preserve">
<g>
	<path d="M21.06,20.772c-0.648,1.152-1.62,2.185-2.916,3.097c-1.128,0.768-2.31,1.338-3.546,1.71
		c-1.236,0.372-2.514,0.558-3.834,0.558c-0.072,0-0.174-0.006-0.306-0.018c-0.132-0.013-0.282-0.03-0.45-0.055
		c-0.144-0.023-0.288-0.041-0.432-0.054c-0.144-0.012-0.252-0.018-0.324-0.018c-0.457,0-0.931-0.126-1.422-0.379
		c-0.492-0.252-1.014-0.617-1.566-1.098c-0.024-0.021-0.252-0.254-0.684-0.699c-0.432-0.445-1.08-1.124-1.944-2.037
		C3.18,21.3,2.778,20.934,2.43,20.682c-0.348-0.252-0.63-0.378-0.846-0.378c-0.024,0-0.09,0.018-0.198,0.054
		s-0.234,0.078-0.378,0.126C0.984,20.508,0.96,20.52,0.936,20.52c-0.096,0.024-0.192,0.055-0.288,0.09
		c-0.096,0.036-0.18,0.055-0.252,0.055C0.3,20.592,0.228,20.502,0.18,20.394c-0.048-0.107-0.072-0.246-0.072-0.414
		c0.264-0.24,0.582-0.426,0.954-0.558s0.786-0.21,1.242-0.234c1.08-0.191,1.866-0.335,2.358-0.432
		c0.492-0.096,0.642-0.144,0.45-0.144c0.527,0,1.044,0.126,1.548,0.378s0.996,0.618,1.476,1.098C8.4,20.401,8.718,20.785,9.09,21.24
		c0.372,0.457,0.822,0.984,1.35,1.585c0.432,0.479,0.864,0.846,1.296,1.098s0.875,0.378,1.332,0.378
		c0.696,0,1.368-0.126,2.016-0.379c0.648-0.252,1.271-0.618,1.872-1.1c0.6-0.505,1.05-1.052,1.35-1.642
		c0.3-0.589,0.45-1.22,0.45-1.893c0-0.817-0.114-1.652-0.342-2.506s-0.57-1.738-1.026-2.651c-0.552-1.13-1.176-1.978-1.872-2.542
		c-0.696-0.565-1.452-0.848-2.268-0.848c-0.552,0-1.092,0.109-1.62,0.325c-0.528,0.217-1.044,0.541-1.548,0.974
		c-0.192,0.169-0.462,0.458-0.81,0.866c-0.348,0.409-0.774,0.926-1.278,1.551c-0.312,0.409-0.606,0.722-0.882,0.938
		c-0.276,0.216-0.522,0.324-0.738,0.324c-0.024,0-0.06-0.018-0.108-0.054c-0.048-0.036-0.096-0.078-0.144-0.126
		c-0.048-0.024-0.09-0.054-0.126-0.09c-0.036-0.036-0.078-0.054-0.126-0.054c-0.024,0.072-0.103,0.18-0.234,0.324
		c-0.132,0.145-0.318,0.337-0.558,0.577c-0.816,0.842-1.566,1.473-2.25,1.894S1.5,18.818,0.9,18.818
		c-0.168,0-0.324-0.054-0.468-0.162S0.144,18.374,0,18.133c0.072-0.12,0.186-0.204,0.342-0.252c0.156-0.048,0.354-0.072,0.594-0.072
		c0.264,0,0.468-0.012,0.612-0.036C1.692,17.749,1.776,17.725,1.8,17.7c0.264-0.168,0.468-0.438,0.612-0.812
		c0.144-0.373,0.216-0.848,0.216-1.425c0-0.192-0.042-0.48-0.126-0.865c-0.084-0.385-0.21-0.877-0.378-1.479
		c-0.216-0.77-0.378-1.502-0.486-2.2C1.53,10.223,1.476,9.538,1.476,8.864c0-0.457,0.264-1.034,0.792-1.731s1.308-1.527,2.34-2.489
		c0.984-0.912,1.793-1.596,2.43-2.052c0.636-0.456,1.11-0.684,1.422-0.684c0.072,0.096,0.126,0.192,0.162,0.288
		C8.658,2.292,8.676,2.4,8.676,2.52C8.388,2.76,8.106,2.995,7.83,3.222C7.554,3.451,7.284,3.685,7.02,3.924
		C6.492,4.38,6.084,4.765,5.796,5.076c-0.288,0.312-0.444,0.552-0.468,0.72C5.28,6.108,5.244,6.36,5.22,6.552
		C5.196,6.745,5.184,6.889,5.184,6.984c0,0.384,0.042,0.888,0.126,1.512c0.084,0.625,0.21,1.356,0.378,2.196
		c0.144,0.696,0.252,1.344,0.324,1.944c0.072,0.6,0.108,1.14,0.108,1.62c0,0.024,0,0.048,0,0.072c0,0.024,0,0.048,0,0.072
		s0,0.048,0,0.072c0,0.024,0,0.048,0,0.072c0.096-0.048,0.204-0.168,0.324-0.36c0.12-0.192,0.264-0.456,0.432-0.792
		c0.191-0.335,0.33-0.624,0.414-0.864c0.084-0.24,0.126-0.408,0.126-0.504v-1.656L6.768,6.696C6.744,6.648,6.732,6.606,6.732,6.57
		s0-0.078,0-0.126c0-0.288,0.174-0.654,0.522-1.098C7.602,4.902,8.112,4.38,8.784,3.78C8.952,3.613,9.3,3.348,9.828,2.988
		c0.528-0.36,1.236-0.804,2.124-1.332c0.888-0.552,1.584-0.966,2.088-1.242C14.544,0.139,14.844,0,14.94,0
		c0.264,0,0.594,0.09,0.99,0.27c0.396,0.18,0.858,0.45,1.386,0.81c0.552,0.336,1.02,0.594,1.404,0.774
		c0.384,0.18,0.696,0.27,0.936,0.27c0.072,0,0.186-0.005,0.342-0.018c0.156-0.012,0.318-0.03,0.486-0.054
		c0.167,0,0.33-0.006,0.486-0.018c0.156-0.012,0.27-0.018,0.342-0.018c0.048,0.096,0.078,0.187,0.09,0.27
		c0.012,0.084,0.018,0.187,0.018,0.306c0,0.384-0.144,0.756-0.432,1.116c-0.288,0.36-0.708,0.708-1.26,1.044
		c-0.624,0.384-1.254,0.678-1.89,0.882c-0.636,0.204-1.266,0.306-1.89,0.306c-0.24-0.288-0.517-0.594-0.828-0.918
		c-0.312-0.324-0.648-0.678-1.008-1.062c-0.288-0.24-0.588-0.414-0.9-0.522C12.9,3.33,12.576,3.276,12.24,3.276
		c-0.672,0-1.17,0.162-1.494,0.486c-0.324,0.324-0.486,0.81-0.486,1.458c0,0.096,0.018,0.24,0.054,0.432
		c0.036,0.192,0.102,0.42,0.198,0.684c0.096,0.336,0.167,0.606,0.216,0.81c0.048,0.205,0.084,0.354,0.108,0.45
		c0,0.024,0,0.048,0,0.072s0,0.048,0,0.072c0,0.024,0,0.048,0,0.072c0,0.024,0,0.049,0,0.072c0,0.264,0.018,0.576,0.054,0.936
		s0.102,0.78,0.198,1.26c0.264-0.144,0.635-0.372,1.116-0.684c0.48-0.312,1.056-0.696,1.728-1.152
		c0.384-0.264,0.774-0.462,1.17-0.594s0.798-0.198,1.206-0.198c1.032,0,1.938,0.342,2.718,1.026
		c0.779,0.684,1.434,1.723,1.962,3.114c0.336,0.936,0.594,1.854,0.774,2.754s0.27,1.77,0.27,2.61
		C22.032,18.349,21.708,19.62,21.06,20.772z"/>
	<path d="M33.408,2.43c-0.144,0.229-0.373,0.499-0.684,0.81c-0.288,0.288-0.54,0.504-0.756,0.648
		c-0.216,0.144-0.396,0.216-0.54,0.216c-0.024,0-0.157-0.072-0.396-0.216c-0.24-0.144-0.564-0.36-0.972-0.648
		c-0.408-0.312-0.786-0.54-1.134-0.684c-0.348-0.144-0.654-0.216-0.918-0.216c-0.24,0-0.462,0.096-0.666,0.288
		c-0.205,0.192-0.391,0.492-0.558,0.9c-0.121,0.312-0.21,0.618-0.27,0.918c-0.06,0.3-0.09,0.606-0.09,0.918
		c0,0.936,0.204,1.638,0.612,2.106c0.408,0.468,1.02,0.702,1.836,0.702c0.048,0,0.126-0.006,0.234-0.018
		c0.108-0.012,0.222-0.03,0.342-0.054c0.023,0,0.054,0,0.09,0s0.066,0,0.09,0c0.096,0,0.192-0.005,0.288-0.018
		c0.096-0.012,0.18-0.018,0.252-0.018c0.024,0,0.042,0,0.054,0c0.012,0,0.03,0,0.054,0c0.12,0.024,0.234,0.054,0.342,0.09
		s0.21,0.09,0.306,0.162c0,0.024,0,0.042,0,0.054c0,0.013,0,0.03,0,0.054c0,0.312-0.132,0.642-0.396,0.99
		c-0.265,0.348-0.648,0.702-1.152,1.062c-0.144,0-0.318,0.018-0.522,0.054c-0.204,0.036-0.438,0.078-0.702,0.126
		c-0.168,0.048-0.288,0.373-0.36,0.972c-0.072,0.6-0.108,1.464-0.108,2.592l-0.756,7.236c0,0.96-0.054,1.878-0.162,2.754
		s-0.258,1.722-0.45,2.538c-0.168,0.72-0.336,1.296-0.504,1.728c-0.168,0.433-0.348,0.708-0.54,0.828
		c-0.024-0.024-0.042-0.078-0.054-0.162c-0.013-0.084-0.018-0.187-0.018-0.306c0-0.049,0-0.097,0-0.145s0.012-0.096,0.036-0.144
		c0-0.049,0-0.097,0-0.145s0-0.096,0-0.144c0.048-0.336,0.078-0.589,0.09-0.756c0.012-0.168,0.018-0.265,0.018-0.288
		c0-0.168-0.048-0.643-0.144-1.422c-0.096-0.78-0.24-1.891-0.432-3.33l-0.72-5.22c-0.024-0.192-0.048-0.39-0.072-0.594
		c-0.024-0.204-0.036-0.402-0.036-0.594c0-0.167,0.006-0.36,0.018-0.576c0.012-0.216,0.03-0.48,0.054-0.792
		c0.023-0.312,0.042-0.587,0.054-0.828c0.012-0.24,0.018-0.444,0.018-0.612c0-0.671-0.102-1.248-0.306-1.728
		c-0.205-0.479-0.499-0.864-0.882-1.152c0-0.12,0.054-0.257,0.162-0.414c0.108-0.156,0.282-0.33,0.522-0.522
		c0.264-0.192,0.456-0.456,0.576-0.792c0.12-0.336,0.18-0.732,0.18-1.188c0-0.096,0-0.18,0-0.252c0-0.072,0-0.144,0-0.216
		c0-0.192,0.006-0.348,0.018-0.468c0.012-0.12,0.03-0.228,0.054-0.324c0.12-0.408,0.324-0.846,0.612-1.314
		c0.288-0.468,0.66-0.942,1.116-1.422l1.512-1.512c0.264-0.552,0.696-0.966,1.296-1.242c0.6-0.275,1.38-0.414,2.34-0.414
		c0.167,0,0.366,0.054,0.594,0.162s0.498,0.258,0.81,0.45C33,1.093,33.234,1.267,33.39,1.422c0.156,0.156,0.234,0.294,0.234,0.414
		C33.624,2.004,33.552,2.203,33.408,2.43z"/>
</g>
</svg>
