<?xml version="1.0" encoding="utf-8"?>
<!-- Generator: Adobe Illustrator 16.0.0, SVG Export Plug-In . SVG Version: 6.00 Build 0)  -->
<!DOCTYPE svg PUBLIC "-//W3C//DTD SVG 1.1//EN" "http://www.w3.org/Graphics/SVG/1.1/DTD/svg11.dtd">
<svg version="1.1" id="Layer_1" xmlns="http://www.w3.org/2000/svg" xmlns:xlink="http://www.w3.org/1999/xlink" x="0px" y="0px"
	 width="29.838px" height="26px" viewBox="1.892 1.651 29.838 26" enable-background="new 1.892 1.651 29.838 26"
	 xml:space="preserve">
<g>
	<path fill="#222222" d="M20.583,20.082c-0.574,1.022-1.438,1.94-2.589,2.75c-1,0.683-2.051,1.187-3.146,1.516
		c-1.098,0.331-2.232,0.498-3.403,0.498c-0.064,0-0.155-0.007-0.271-0.019c-0.117-0.013-0.25-0.026-0.399-0.05
		c-0.128-0.019-0.256-0.037-0.384-0.049c-0.127-0.01-0.224-0.017-0.288-0.017c-0.406,0-0.827-0.112-1.262-0.338
		c-0.437-0.224-0.9-0.546-1.389-0.974c-0.021-0.018-0.224-0.225-0.607-0.62c-0.384-0.393-0.958-0.997-1.725-1.808
		c-0.405-0.423-0.763-0.748-1.07-0.971c-0.31-0.225-0.56-0.337-0.751-0.337c-0.022,0-0.08,0.019-0.176,0.049
		c-0.096,0.032-0.208,0.067-0.335,0.111c-0.021,0.023-0.042,0.032-0.064,0.032c-0.086,0.021-0.17,0.05-0.256,0.079
		c-0.085,0.031-0.16,0.052-0.224,0.052c-0.085-0.067-0.149-0.147-0.192-0.242c-0.043-0.094-0.064-0.219-0.064-0.368
		C2.221,19.166,2.503,19,2.833,18.883c0.33-0.117,0.698-0.188,1.103-0.208c0.958-0.167,1.656-0.296,2.093-0.384
		c0.436-0.086,0.57-0.128,0.399-0.128c0.468,0,0.926,0.111,1.374,0.336c0.447,0.225,0.883,0.547,1.31,0.974
		c0.234,0.279,0.517,0.62,0.846,1.023c0.331,0.406,0.729,0.873,1.198,1.408c0.384,0.423,0.767,0.749,1.151,0.972
		c0.383,0.225,0.777,0.336,1.182,0.336c0.618,0,1.214-0.111,1.789-0.337c0.574-0.223,1.128-0.548,1.662-0.976
		c0.533-0.449,0.932-0.935,1.198-1.458c0.265-0.522,0.397-1.083,0.397-1.682c0-0.724-0.1-1.466-0.303-2.224
		c-0.202-0.758-0.506-1.542-0.91-2.352c-0.49-1.004-1.044-1.758-1.661-2.257c-0.617-0.501-1.288-0.753-2.013-0.753
		c-0.49,0-0.97,0.097-1.438,0.288c-0.469,0.194-0.926,0.48-1.374,0.866c-0.17,0.151-0.41,0.406-0.719,0.767
		c-0.309,0.363-0.687,0.823-1.133,1.378c-0.277,0.361-0.539,0.641-0.784,0.833c-0.244,0.191-0.463,0.286-0.654,0.286
		c-0.021,0-0.053-0.016-0.095-0.047c-0.043-0.033-0.085-0.069-0.127-0.112c-0.043-0.022-0.08-0.05-0.111-0.082
		c-0.033-0.029-0.07-0.048-0.112-0.048c-0.021,0.064-0.091,0.16-0.208,0.287c-0.117,0.129-0.282,0.301-0.495,0.513
		c-0.724,0.748-1.39,1.309-1.997,1.682c-0.608,0.379-1.176,0.562-1.709,0.562c-0.148,0-0.287-0.049-0.415-0.142
		c-0.128-0.099-0.255-0.252-0.383-0.467c0.064-0.106,0.165-0.18,0.303-0.223c0.139-0.044,0.314-0.063,0.528-0.063
		c0.234,0,0.415-0.013,0.543-0.033c0.127-0.022,0.202-0.043,0.224-0.064c0.234-0.15,0.416-0.39,0.542-0.722
		c0.128-0.331,0.192-0.752,0.192-1.266c0-0.169-0.037-0.425-0.112-0.766c-0.075-0.343-0.186-0.779-0.336-1.312
		c-0.191-0.686-0.335-1.333-0.431-1.954c-0.095-0.615-0.143-1.223-0.143-1.819c0-0.405,0.233-0.918,0.703-1.537
		c0.468-0.618,1.161-1.354,2.077-2.208C6.856,4.963,7.573,4.355,8.139,3.95c0.564-0.405,0.984-0.607,1.262-0.607
		c0.065,0.085,0.113,0.169,0.144,0.254c0.033,0.085,0.048,0.181,0.048,0.288c-0.255,0.213-0.506,0.422-0.75,0.623
		C8.597,4.712,8.357,4.92,8.123,5.132C7.654,5.536,7.292,5.878,7.037,6.154C6.781,6.43,6.642,6.644,6.622,6.793
		c-0.043,0.276-0.075,0.5-0.097,0.671C6.503,7.635,6.493,7.763,6.493,7.847c0,0.342,0.038,0.79,0.112,1.343
		c0.075,0.555,0.186,1.202,0.336,1.947c0.127,0.617,0.224,1.193,0.288,1.725c0.064,0.533,0.096,1.012,0.096,1.438
		c0,0.021,0,0.044,0,0.063c0,0.021,0,0.043,0,0.062c0,0.021,0,0.045,0,0.064c0,0.021,0,0.043,0,0.064
		c0.085-0.044,0.181-0.149,0.287-0.319c0.107-0.169,0.235-0.404,0.383-0.702c0.17-0.296,0.293-0.555,0.368-0.768
		c0.075-0.211,0.112-0.36,0.112-0.447v-1.468L7.899,7.591C7.877,7.549,7.868,7.513,7.868,7.48c0-0.03,0-0.067,0-0.111
		c0-0.254,0.154-0.58,0.462-0.975C8.639,6,9.092,5.538,9.688,5.007c0.15-0.15,0.458-0.385,0.926-0.705
		c0.468-0.317,1.097-0.713,1.885-1.18c0.788-0.491,1.405-0.858,1.852-1.102c0.448-0.245,0.715-0.369,0.799-0.369
		c0.234,0,0.527,0.08,0.879,0.24c0.352,0.161,0.762,0.399,1.229,0.721c0.491,0.298,0.905,0.526,1.247,0.686
		c0.338,0.162,0.614,0.241,0.83,0.241c0.064,0,0.164-0.004,0.304-0.018c0.138-0.012,0.282-0.025,0.431-0.048
		c0.146,0,0.293-0.005,0.431-0.017c0.138-0.012,0.24-0.018,0.303-0.018c0.042,0.085,0.069,0.167,0.08,0.241
		c0.011,0.075,0.015,0.167,0.015,0.271c0,0.341-0.127,0.672-0.383,0.99c-0.254,0.317-0.629,0.628-1.117,0.926
		c-0.556,0.34-1.113,0.603-1.681,0.784c-0.562,0.181-1.123,0.271-1.676,0.271c-0.213-0.255-0.458-0.526-0.733-0.814
		c-0.277-0.286-0.576-0.603-0.896-0.943c-0.256-0.213-0.521-0.367-0.799-0.463c-0.276-0.097-0.563-0.146-0.861-0.146
		c-0.597,0-1.039,0.144-1.326,0.431c-0.287,0.288-0.431,0.721-0.431,1.292c0,0.087,0.017,0.214,0.048,0.384
		c0.032,0.17,0.09,0.375,0.175,0.609c0.086,0.298,0.149,0.536,0.192,0.719c0.042,0.182,0.074,0.315,0.095,0.4
		c0,0.021,0,0.042,0,0.064c0,0.02,0,0.042,0,0.064c0,0.02,0,0.042,0,0.062s0,0.043,0,0.063c0,0.235,0.016,0.512,0.047,0.831
		s0.09,0.692,0.176,1.121c0.234-0.129,0.563-0.331,0.99-0.609c0.425-0.277,0.937-0.617,1.535-1.021
		c0.339-0.235,0.685-0.41,1.037-0.529c0.352-0.117,0.708-0.174,1.071-0.174c0.914,0,1.719,0.304,2.412,0.909
		c0.691,0.609,1.273,1.531,1.74,2.763c0.297,0.831,0.525,1.645,0.687,2.445c0.159,0.797,0.241,1.572,0.241,2.314
		C21.446,17.933,21.157,19.061,20.583,20.082z"/>
	<path fill="#222222" d="M31.54,3.806c-0.129,0.204-0.331,0.443-0.607,0.721c-0.256,0.253-0.48,0.447-0.672,0.574
		c-0.193,0.129-0.353,0.192-0.479,0.192c-0.02,0-0.139-0.063-0.351-0.192c-0.213-0.129-0.502-0.319-0.865-0.574
		c-0.362-0.278-0.696-0.479-1.007-0.609c-0.309-0.128-0.58-0.193-0.814-0.193c-0.211,0-0.409,0.087-0.592,0.256
		c-0.18,0.169-0.347,0.437-0.494,0.797c-0.106,0.277-0.187,0.548-0.242,0.815c-0.051,0.268-0.079,0.538-0.079,0.814
		c0,0.833,0.182,1.455,0.545,1.869c0.36,0.416,0.905,0.623,1.629,0.623c0.042,0,0.11-0.004,0.206-0.017
		c0.095-0.011,0.197-0.024,0.305-0.047c0.019,0,0.046,0,0.079,0c0.03,0,0.058,0,0.08,0c0.086,0,0.168-0.006,0.253-0.018
		c0.087-0.012,0.161-0.018,0.225-0.018c0.022,0,0.038,0,0.049,0s0.025,0,0.049,0c0.106,0.021,0.205,0.048,0.305,0.08
		c0.095,0.032,0.186,0.081,0.271,0.144c0,0.021,0,0.038,0,0.05c0,0.011,0,0.024,0,0.047c0,0.276-0.116,0.57-0.352,0.879
		c-0.234,0.31-0.573,0.621-1.02,0.942c-0.129,0-0.284,0.018-0.464,0.048c-0.182,0.031-0.388,0.069-0.623,0.111
		c-0.149,0.044-0.255,0.332-0.317,0.863c-0.062,0.533-0.096,1.3-0.096,2.3l-0.668,6.424c0,0.851-0.049,1.665-0.146,2.443
		c-0.095,0.777-0.23,1.528-0.397,2.252c-0.15,0.639-0.298,1.151-0.447,1.534c-0.149,0.385-0.311,0.627-0.479,0.734
		c-0.021-0.021-0.036-0.069-0.049-0.145c-0.013-0.072-0.016-0.165-0.016-0.271c0-0.044,0-0.089,0-0.131
		c0-0.043,0.011-0.085,0.028-0.127c0-0.044,0-0.088,0-0.131c0-0.042,0-0.084,0-0.128c0.045-0.298,0.069-0.522,0.083-0.671
		c0.011-0.148,0.015-0.236,0.015-0.256c0-0.148-0.041-0.571-0.126-1.261c-0.087-0.692-0.214-1.681-0.384-2.956l-0.641-4.632
		c-0.021-0.17-0.043-0.347-0.064-0.527c-0.019-0.182-0.03-0.356-0.03-0.526c0-0.148,0.005-0.321,0.018-0.513
		c0.012-0.19,0.023-0.425,0.049-0.702c0.02-0.276,0.038-0.521,0.049-0.734s0.015-0.393,0.015-0.542c0-0.597-0.09-1.106-0.271-1.534
		c-0.182-0.426-0.441-0.767-0.782-1.023c0-0.106,0.049-0.228,0.144-0.366c0.095-0.138,0.248-0.292,0.463-0.461
		c0.235-0.171,0.405-0.405,0.511-0.703c0.108-0.299,0.16-0.65,0.16-1.054c0-0.085,0-0.159,0-0.224c0-0.063,0-0.128,0-0.191
		c0-0.169,0.005-0.31,0.018-0.416c0.013-0.106,0.026-0.204,0.049-0.288c0.104-0.362,0.286-0.751,0.542-1.165
		c0.256-0.415,0.586-0.835,0.99-1.262l1.341-1.344c0.235-0.489,0.616-0.857,1.149-1.103c0.535-0.242,1.228-0.366,2.08-0.366
		c0.148,0,0.323,0.047,0.526,0.143c0.201,0.094,0.439,0.229,0.718,0.397c0.271,0.18,0.48,0.333,0.619,0.471
		c0.138,0.139,0.206,0.261,0.206,0.367C31.732,3.428,31.667,3.604,31.54,3.806z"/>
</g>
</svg>
