<?xml version="1.0" encoding="utf-8"?>
<!-- Generator: Adobe Illustrator 16.0.0, SVG Export Plug-In . SVG Version: 6.00 Build 0)  -->
<!DOCTYPE svg PUBLIC "-//W3C//DTD SVG 1.1//EN" "http://www.w3.org/Graphics/SVG/1.1/DTD/svg11.dtd">
<svg version="1.1" id="Layer_1" xmlns="http://www.w3.org/2000/svg" xmlns:xlink="http://www.w3.org/1999/xlink" x="0px" y="0px"
	 width="33.625px" height="29.305px" viewBox="0 0 33.625 29.305" enable-background="new 0 0 33.625 29.305" xml:space="preserve">
<g>
	<path fill="#222222" d="M21.061,20.772c-0.648,1.151-1.621,2.186-2.916,3.098c-1.128,0.769-2.311,1.338-3.546,1.71
		c-1.236,0.372-2.514,0.559-3.834,0.559c-0.072,0-0.174-0.007-0.306-0.019c-0.132-0.014-0.282-0.03-0.45-0.056
		c-0.144-0.022-0.288-0.041-0.432-0.055c-0.144-0.012-0.252-0.018-0.324-0.018c-0.457,0-0.931-0.126-1.422-0.38
		c-0.492-0.252-1.014-0.616-1.566-1.098c-0.024-0.02-0.252-0.254-0.684-0.698s-1.08-1.124-1.944-2.037
		C3.18,21.3,2.778,20.934,2.43,20.682c-0.348-0.252-0.63-0.378-0.846-0.378c-0.024,0-0.09,0.019-0.198,0.054
		c-0.108,0.036-0.234,0.078-0.378,0.126C0.984,20.508,0.96,20.52,0.936,20.52c-0.096,0.023-0.192,0.056-0.288,0.09
		c-0.096,0.036-0.18,0.056-0.252,0.056C0.3,20.592,0.228,20.502,0.18,20.394c-0.048-0.106-0.072-0.246-0.072-0.414
		c0.264-0.239,0.582-0.426,0.954-0.559c0.372-0.132,0.786-0.21,1.242-0.233c1.08-0.19,1.866-0.335,2.358-0.433
		c0.492-0.096,0.642-0.145,0.45-0.145c0.527,0,1.044,0.126,1.548,0.379c0.504,0.252,0.996,0.617,1.476,1.098
		C8.4,20.401,8.718,20.785,9.09,21.24c0.372,0.457,0.822,0.983,1.35,1.585c0.432,0.479,0.864,0.846,1.296,1.098
		c0.432,0.252,0.875,0.378,1.332,0.378c0.696,0,1.368-0.126,2.016-0.379c0.648-0.252,1.271-0.617,1.872-1.1
		c0.601-0.506,1.049-1.053,1.351-1.643c0.299-0.59,0.448-1.221,0.448-1.894c0-0.817-0.112-1.652-0.342-2.506
		c-0.228-0.854-0.569-1.738-1.024-2.651c-0.553-1.13-1.177-1.979-1.873-2.542c-0.696-0.564-1.452-0.848-2.268-0.848
		c-0.552,0-1.092,0.108-1.62,0.324c-0.528,0.218-1.044,0.541-1.548,0.975c-0.192,0.169-0.462,0.458-0.81,0.865
		c-0.348,0.409-0.774,0.927-1.278,1.552c-0.312,0.409-0.606,0.722-0.882,0.938c-0.276,0.216-0.522,0.323-0.738,0.323
		c-0.024,0-0.06-0.018-0.108-0.054c-0.048-0.036-0.096-0.078-0.144-0.126c-0.048-0.023-0.09-0.055-0.126-0.091
		c-0.036-0.035-0.078-0.054-0.126-0.054c-0.024,0.071-0.103,0.181-0.234,0.323c-0.132,0.146-0.318,0.338-0.558,0.577
		c-0.816,0.843-1.566,1.474-2.25,1.895C2.142,18.61,1.5,18.818,0.9,18.818c-0.168,0-0.324-0.054-0.468-0.161
		C0.288,18.548,0.144,18.374,0,18.133c0.072-0.119,0.186-0.203,0.342-0.252c0.156-0.048,0.354-0.071,0.594-0.071
		c0.264,0,0.468-0.013,0.612-0.036C1.692,17.749,1.776,17.725,1.8,17.7c0.264-0.168,0.468-0.438,0.612-0.812
		c0.144-0.373,0.216-0.849,0.216-1.426c0-0.191-0.042-0.479-0.126-0.864c-0.084-0.386-0.21-0.877-0.378-1.479
		c-0.216-0.771-0.378-1.502-0.486-2.2C1.53,10.223,1.476,9.538,1.476,8.865c0-0.457,0.264-1.034,0.792-1.731
		c0.528-0.696,1.308-1.526,2.34-2.488c0.984-0.912,1.793-1.597,2.43-2.053c0.636-0.456,1.11-0.684,1.422-0.684
		C8.532,2.004,8.586,2.1,8.622,2.196C8.658,2.292,8.676,2.4,8.676,2.52C8.388,2.76,8.106,2.995,7.83,3.222
		C7.554,3.451,7.284,3.685,7.02,3.924C6.492,4.38,6.084,4.765,5.796,5.076s-0.444,0.552-0.468,0.72
		C5.28,6.108,5.244,6.36,5.22,6.552C5.196,6.745,5.184,6.889,5.184,6.984c0,0.385,0.042,0.889,0.126,1.513
		c0.084,0.625,0.21,1.355,0.378,2.195c0.144,0.696,0.252,1.345,0.324,1.943c0.072,0.601,0.108,1.141,0.108,1.62
		c0,0.023,0,0.049,0,0.072s0,0.048,0,0.071s0,0.049,0,0.072s0,0.048,0,0.071c0.096-0.048,0.204-0.168,0.324-0.359
		c0.12-0.191,0.264-0.456,0.432-0.792c0.191-0.335,0.33-0.624,0.414-0.864c0.084-0.239,0.126-0.407,0.126-0.504v-1.655L6.768,6.696
		C6.744,6.648,6.732,6.606,6.732,6.57c0-0.035,0-0.077,0-0.126c0-0.287,0.174-0.653,0.522-1.098s0.858-0.966,1.53-1.565
		C8.952,3.613,9.3,3.348,9.828,2.988c0.528-0.359,1.236-0.804,2.124-1.331c0.888-0.553,1.584-0.967,2.088-1.242S14.844,0,14.94,0
		c0.264,0,0.594,0.09,0.99,0.271s0.858,0.449,1.386,0.811c0.553,0.336,1.02,0.594,1.404,0.773c0.383,0.181,0.694,0.271,0.936,0.271
		c0.072,0,0.186-0.005,0.342-0.019c0.156-0.013,0.318-0.029,0.486-0.055c0.166,0,0.33-0.006,0.486-0.018
		c0.155-0.013,0.27-0.019,0.342-0.019c0.047,0.096,0.078,0.188,0.09,0.271c0.012,0.084,0.018,0.188,0.018,0.306
		c0,0.385-0.145,0.757-0.432,1.116s-0.709,0.708-1.26,1.044c-0.625,0.384-1.254,0.679-1.892,0.882
		c-0.635,0.204-1.266,0.307-1.889,0.307c-0.24-0.288-0.517-0.594-0.828-0.918c-0.312-0.323-0.648-0.679-1.008-1.062
		c-0.288-0.24-0.588-0.414-0.9-0.521C12.9,3.33,12.576,3.276,12.24,3.276c-0.672,0-1.17,0.162-1.494,0.486
		c-0.324,0.323-0.486,0.811-0.486,1.457c0,0.097,0.018,0.24,0.054,0.433c0.036,0.191,0.102,0.421,0.198,0.685
		c0.096,0.336,0.167,0.605,0.216,0.811c0.048,0.205,0.084,0.354,0.108,0.45c0,0.023,0,0.048,0,0.071s0,0.048,0,0.072
		c0,0.023,0,0.048,0,0.071s0,0.049,0,0.071c0,0.265,0.018,0.576,0.054,0.937c0.036,0.36,0.102,0.78,0.198,1.261
		c0.264-0.145,0.635-0.372,1.116-0.685c0.48-0.312,1.056-0.695,1.728-1.151c0.384-0.265,0.774-0.462,1.17-0.595
		c0.396-0.132,0.798-0.197,1.206-0.197c1.031,0,1.938,0.342,2.717,1.025c0.779,0.685,1.436,1.724,1.963,3.113
		c0.336,0.937,0.594,1.854,0.773,2.755c0.18,0.899,0.271,1.771,0.271,2.609C22.033,18.349,21.708,19.62,21.061,20.772z"/>
	<path fill="#222222" d="M33.408,2.43c-0.145,0.229-0.373,0.499-0.684,0.811c-0.289,0.287-0.541,0.504-0.757,0.647
		c-0.217,0.145-0.396,0.216-0.54,0.216c-0.023,0-0.156-0.071-0.396-0.216c-0.24-0.145-0.564-0.36-0.974-0.647
		c-0.408-0.312-0.785-0.54-1.135-0.685c-0.348-0.145-0.652-0.217-0.918-0.217c-0.238,0-0.461,0.097-0.666,0.288
		c-0.203,0.191-0.391,0.492-0.557,0.899c-0.121,0.312-0.211,0.618-0.271,0.918c-0.06,0.301-0.091,0.605-0.091,0.918
		c0,0.937,0.205,1.639,0.613,2.105c0.407,0.469,1.021,0.702,1.836,0.702c0.047,0,0.125-0.006,0.233-0.019
		c0.107-0.012,0.222-0.029,0.342-0.054c0.022,0,0.054,0,0.091,0c0.034,0,0.065,0,0.09,0c0.097,0,0.19-0.006,0.287-0.019
		s0.181-0.019,0.252-0.019c0.024,0,0.043,0,0.056,0c0.012,0,0.028,0,0.053,0c0.121,0.023,0.233,0.055,0.344,0.09
		c0.107,0.036,0.209,0.091,0.305,0.162c0,0.023,0,0.042,0,0.055s0,0.029,0,0.054c0,0.312-0.131,0.643-0.396,0.99
		c-0.264,0.349-0.646,0.701-1.15,1.062c-0.145,0-0.318,0.019-0.521,0.054c-0.205,0.036-0.438,0.078-0.703,0.126
		c-0.168,0.049-0.287,0.373-0.358,0.973c-0.071,0.601-0.108,1.464-0.108,2.592l-0.756,7.236c0,0.96-0.054,1.878-0.162,2.754
		c-0.107,0.876-0.259,1.723-0.449,2.538c-0.168,0.72-0.336,1.296-0.504,1.729c-0.168,0.434-0.349,0.708-0.541,0.828
		c-0.023-0.024-0.041-0.078-0.054-0.162c-0.014-0.084-0.018-0.188-0.018-0.307c0-0.049,0-0.098,0-0.146s0.012-0.097,0.034-0.145
		c0-0.049,0-0.098,0-0.146s0-0.096,0-0.145c0.05-0.336,0.078-0.589,0.091-0.756c0.012-0.168,0.018-0.266,0.018-0.288
		c0-0.168-0.047-0.644-0.143-1.422c-0.097-0.779-0.24-1.892-0.433-3.33l-0.721-5.221c-0.023-0.191-0.049-0.39-0.072-0.594
		c-0.022-0.204-0.035-0.401-0.035-0.594c0-0.167,0.006-0.36,0.019-0.576s0.028-0.479,0.054-0.792
		c0.022-0.312,0.043-0.587,0.055-0.828c0.012-0.24,0.018-0.443,0.018-0.611c0-0.672-0.102-1.248-0.307-1.729
		c-0.204-0.479-0.498-0.864-0.881-1.152c0-0.119,0.055-0.257,0.162-0.413c0.106-0.156,0.28-0.33,0.521-0.521
		c0.265-0.192,0.457-0.456,0.575-0.792c0.121-0.337,0.181-0.732,0.181-1.188c0-0.096,0-0.18,0-0.252c0-0.071,0-0.144,0-0.216
		c0-0.191,0.006-0.349,0.019-0.468c0.014-0.12,0.03-0.229,0.055-0.324c0.119-0.408,0.324-0.847,0.611-1.313
		c0.289-0.467,0.66-0.941,1.117-1.422l1.512-1.513c0.264-0.552,0.694-0.966,1.295-1.242c0.602-0.274,1.381-0.413,2.342-0.413
		c0.166,0,0.365,0.054,0.594,0.161c0.229,0.108,0.498,0.259,0.811,0.45C33,1.093,33.234,1.267,33.391,1.422
		c0.155,0.156,0.233,0.294,0.233,0.414C33.625,2.004,33.552,2.203,33.408,2.43z"/>
</g>
</svg>
