<?xml version="1.0" encoding="utf-8"?>
<!-- Generator: Adobe Illustrator 16.0.0, SVG Export Plug-In . SVG Version: 6.00 Build 0)  -->
<!DOCTYPE svg PUBLIC "-//W3C//DTD SVG 1.1//EN" "http://www.w3.org/Graphics/SVG/1.1/DTD/svg11.dtd">
<svg version="1.1" id="Layer_1" xmlns="http://www.w3.org/2000/svg" xmlns:xlink="http://www.w3.org/1999/xlink" x="0px" y="0px"
	 width="38.503px" height="26px" viewBox="-0.627 -0.423 38.503 26" enable-background="new -0.627 -0.423 38.503 26"
	 xml:space="preserve">
<g>
	<path fill="#222222" d="M13.999,12.785h8.521v10.758c-3.123,1.355-6.223,2.034-9.302,2.034c-4.202,0-7.561-1.229-10.075-3.683
		c-2.514-2.449-3.77-5.475-3.77-9.071c0-3.792,1.302-6.95,3.905-9.467c2.606-2.52,5.871-3.779,9.794-3.779
		c1.43,0,2.786,0.155,4.07,0.463c1.284,0.309,2.906,0.875,4.869,1.699v3.706C18.984,3.692,15.979,2.811,13,2.811
		c-2.774,0-5.111,0.945-7.014,2.834c-1.902,1.889-2.852,4.209-2.852,6.958c0,2.884,0.951,5.237,2.852,7.067
		c1.901,1.828,4.349,2.74,7.34,2.74c1.453,0,3.192-0.33,5.214-0.999l0.346-0.108v-5.286h-4.889L13.999,12.785L13.999,12.785z"/>
	<path fill="#222222" d="M26.555,24.088v-3.56c0.932,0.655,1.886,1.186,2.86,1.591c0.977,0.404,1.799,0.609,2.465,0.609
		c0.692,0,1.282-0.171,1.781-0.511c0.5-0.338,0.746-0.744,0.746-1.216c0-0.489-0.157-0.888-0.481-1.209
		c-0.321-0.323-1.015-0.788-2.082-1.393c-2.132-1.185-3.528-2.202-4.189-3.042c-0.66-0.84-0.99-1.758-0.99-2.753
		c0-1.283,0.5-2.331,1.498-3.142c1-0.811,2.287-1.22,3.861-1.22c1.636,0,3.312,0.46,5.033,1.383v3.268
		c-1.963-1.185-3.567-1.781-4.814-1.781c-0.642,0-1.16,0.137-1.554,0.41c-0.394,0.272-0.59,0.63-0.59,1.083
		c0,0.389,0.178,0.756,0.537,1.11c0.355,0.351,0.979,0.775,1.877,1.27l1.185,0.673c2.784,1.57,4.179,3.316,4.179,5.23
		c0,1.37-0.539,2.492-1.609,3.369c-1.069,0.879-2.448,1.317-4.133,1.317c-0.993,0-1.876-0.109-2.651-0.32
		C28.707,25.047,27.73,24.658,26.555,24.088z"/>
</g>
</svg>
