<?xml version="1.0" encoding="utf-8"?>
<!-- Generator: Adobe Illustrator 16.0.0, SVG Export Plug-In . SVG Version: 6.00 Build 0)  -->
<!DOCTYPE svg PUBLIC "-//W3C//DTD SVG 1.1 Tiny//EN" "http://www.w3.org/Graphics/SVG/1.1/DTD/svg11-tiny.dtd">
<svg version="1.1" baseProfile="tiny" id="Layer_1" xmlns="http://www.w3.org/2000/svg" xmlns:xlink="http://www.w3.org/1999/xlink"
	 x="0px" y="0px" width="37.248px" height="25.154px" viewBox="0 0 37.248 25.154" xml:space="preserve">
<g>
	<path d="M14.15,12.779h8.244v10.406c-3.023,1.312-6.023,1.969-9,1.969c-4.066,0-7.315-1.187-9.747-3.56S0,16.295,0,12.814
		c0-3.668,1.26-6.721,3.779-9.158S9.457,0,13.254,0c1.383,0,2.695,0.149,3.938,0.448s2.812,0.847,4.711,1.644v3.586
		c-2.93-1.699-5.836-2.549-8.719-2.549c-2.684,0-4.945,0.914-6.785,2.742s-2.76,4.072-2.76,6.732c0,2.789,0.92,5.068,2.76,6.838
		s4.207,2.654,7.102,2.654c1.406,0,3.088-0.322,5.045-0.967l0.334-0.105v-5.115H14.15V12.779z"/>
	<path d="M26.297,23.713v-3.445c0.902,0.633,1.825,1.146,2.769,1.538s1.737,0.589,2.382,0.589c0.668,0,1.242-0.164,1.723-0.492
		s0.721-0.721,0.721-1.178c0-0.469-0.155-0.858-0.466-1.169s-0.981-0.759-2.013-1.345c-2.062-1.148-3.413-2.13-4.052-2.944
		s-0.958-1.702-0.958-2.663c0-1.242,0.483-2.256,1.45-3.041s2.212-1.178,3.735-1.178c1.582,0,3.205,0.445,4.869,1.336v3.164
		c-1.898-1.148-3.451-1.723-4.658-1.723c-0.621,0-1.122,0.132-1.503,0.396c-0.381,0.264-0.571,0.613-0.571,1.047
		c0,0.376,0.172,0.734,0.518,1.074c0.345,0.34,0.951,0.75,1.819,1.23l1.143,0.65c2.696,1.523,4.044,3.21,4.044,5.061
		c0,1.324-0.519,2.411-1.556,3.26s-2.37,1.274-3.999,1.274c-0.961,0-1.816-0.103-2.566-0.308S27.434,24.264,26.297,23.713z"/>
</g>
</svg>
