<?xml version="1.0" encoding="utf-8"?>
<!-- Generator: Adobe Illustrator 16.0.0, SVG Export Plug-In . SVG Version: 6.00 Build 0)  -->
<!DOCTYPE svg PUBLIC "-//W3C//DTD SVG 1.1//EN" "http://www.w3.org/Graphics/SVG/1.1/DTD/svg11.dtd">
<svg version="1.1" id="Layer_1" xmlns="http://www.w3.org/2000/svg" xmlns:xlink="http://www.w3.org/1999/xlink" x="0px" y="0px"
	 width="37.248px" height="25.154px" viewBox="0 0 37.248 25.154" enable-background="new 0 0 37.248 25.154" xml:space="preserve">
<g>
	<path fill="#222222" d="M14.15,12.779h8.244v10.406c-3.021,1.312-6.021,1.969-9,1.969c-4.066,0-7.315-1.188-9.747-3.562
		C1.215,19.221,0,16.295,0,12.814c0-3.668,1.26-6.723,3.779-9.158C6.298,1.219,9.457,0,13.254,0c1.383,0,2.695,0.149,3.938,0.448
		c1.243,0.299,2.812,0.847,4.711,1.644v3.586c-2.93-1.697-5.836-2.549-8.719-2.549c-2.684,0-4.945,0.914-6.785,2.742
		s-2.76,4.072-2.76,6.732c0,2.789,0.92,5.066,2.76,6.838c1.84,1.77,4.207,2.652,7.102,2.652c1.406,0,3.088-0.32,5.045-0.967
		l0.334-0.104v-5.115h-4.73V12.779z"/>
	<path fill="#222222" d="M26.297,23.713v-3.443c0.902,0.633,1.825,1.146,2.769,1.538c0.944,0.392,1.738,0.589,2.384,0.589
		c0.668,0,1.241-0.164,1.723-0.492s0.722-0.721,0.722-1.178c0-0.471-0.154-0.858-0.467-1.169c-0.311-0.312-0.98-0.761-2.013-1.347
		c-2.062-1.146-3.413-2.13-4.054-2.942c-0.639-0.814-0.957-1.702-0.957-2.663c0-1.242,0.482-2.256,1.449-3.041
		s2.213-1.18,3.735-1.18c1.582,0,3.205,0.445,4.869,1.338v3.162c-1.897-1.146-3.451-1.723-4.658-1.723
		c-0.62,0-1.122,0.132-1.503,0.396c-0.381,0.264-0.57,0.611-0.57,1.047c0,0.376,0.172,0.732,0.519,1.074
		c0.345,0.34,0.95,0.75,1.817,1.229l1.145,0.65c2.695,1.521,4.044,3.21,4.044,5.061c0,1.324-0.521,2.411-1.558,3.26
		c-1.035,0.851-2.368,1.274-3.998,1.274c-0.961,0-1.815-0.104-2.565-0.309C28.378,24.641,27.435,24.264,26.297,23.713z"/>
</g>
</svg>
