<?xml version="1.0" encoding="utf-8"?>
<!-- Generator: Adobe Illustrator 16.0.0, SVG Export Plug-In . SVG Version: 6.00 Build 0)  -->
<!DOCTYPE svg PUBLIC "-//W3C//DTD SVG 1.1//EN" "http://www.w3.org/Graphics/SVG/1.1/DTD/svg11.dtd">
<svg version="1.1" id="Layer_1" xmlns="http://www.w3.org/2000/svg" xmlns:xlink="http://www.w3.org/1999/xlink" x="0px" y="0px"
	 width="48.061px" height="26.062px" viewBox="0 0 48.061 26.062" enable-background="new 0 0 48.061 26.062" xml:space="preserve">
<g>
	<path fill="#222222" d="M13.068,26.063c-1.968,0-3.756-0.33-5.363-0.988c-1.607-0.66-2.981-1.572-4.122-2.736
		s-2.021-2.531-2.646-4.104C0.312,16.662,0,14.952,0,13.104v-0.071c0-1.751,0.319-3.421,0.961-5.005s1.541-2.97,2.7-4.157
		C4.82,2.682,6.198,1.74,7.794,1.044C9.39,0.348,11.136,0,13.032,0c1.104,0,2.105,0.078,3.006,0.233
		c0.899,0.156,1.732,0.378,2.502,0.666c0.769,0.288,1.494,0.643,2.178,1.062c0.685,0.42,1.351,0.906,1.998,1.458l-2.808,3.349
		c-0.479-0.408-0.973-0.78-1.477-1.116S17.4,5.034,16.848,4.806c-0.554-0.229-1.158-0.408-1.818-0.54
		c-0.659-0.132-1.386-0.198-2.178-0.198c-1.151,0-2.228,0.241-3.223,0.723C8.634,5.271,7.77,5.915,7.038,6.719
		C6.306,7.525,5.729,8.469,5.31,9.551c-0.42,1.082-0.63,2.225-0.63,3.428v0.071c0,1.3,0.202,2.501,0.609,3.607
		c0.406,1.105,0.986,2.057,1.741,2.85s1.652,1.419,2.693,1.876s2.208,0.686,3.501,0.686c1.196,0,2.315-0.175,3.357-0.524
		c1.041-0.351,1.944-0.813,2.711-1.394v-4.741H12.85v-3.853h10.73V22.14c-0.625,0.527-1.313,1.031-2.07,1.512
		c-0.756,0.479-1.571,0.899-2.447,1.261c-0.876,0.358-1.817,0.644-2.826,0.846C15.228,25.962,14.171,26.063,13.068,26.063z"/>
	<path fill="#222222" d="M37.872,26.063c-1.439,0-2.777-0.258-4.015-0.772c-1.235-0.517-2.304-1.218-3.204-2.105
		c-0.899-0.888-1.603-1.932-2.105-3.133c-0.504-1.199-0.756-2.472-0.756-3.815v-0.071c0-1.368,0.258-2.651,0.773-3.853
		c0.517-1.2,1.225-2.25,2.124-3.149s1.969-1.614,3.204-2.143c1.235-0.527,2.586-0.792,4.05-0.792s2.812,0.258,4.051,0.773
		c1.235,0.517,2.304,1.225,3.204,2.124c0.899,0.899,1.602,1.943,2.105,3.132s0.756,2.467,0.756,3.834v0.072
		c0,1.344-0.259,2.615-0.773,3.815c-0.518,1.2-1.225,2.25-2.124,3.149s-1.976,1.614-3.223,2.143
		C40.692,25.8,39.336,26.063,37.872,26.063z M37.944,22.284c0.883,0,1.676-0.162,2.378-0.486c0.703-0.323,1.307-0.762,1.808-1.313
		c0.5-0.552,0.883-1.193,1.146-1.926c0.263-0.73,0.395-1.506,0.395-2.322v-0.071c0-0.84-0.144-1.632-0.429-2.376
		c-0.286-0.743-0.687-1.393-1.199-1.944c-0.514-0.552-1.121-0.989-1.825-1.312c-0.703-0.324-1.483-0.486-2.343-0.486
		c-0.858,0-1.641,0.162-2.345,0.486c-0.703,0.323-1.306,0.756-1.807,1.296s-0.884,1.183-1.146,1.926
		c-0.263,0.744-0.394,1.523-0.394,2.34v0.072c0,0.84,0.144,1.626,0.429,2.357c0.286,0.731,0.686,1.38,1.198,1.943
		c0.514,0.564,1.121,1.009,1.824,1.332C36.339,22.122,37.109,22.284,37.944,22.284z"/>
</g>
</svg>
