<?xml version="1.0" encoding="utf-8"?>
<!-- Generator: Adobe Illustrator 16.0.0, SVG Export Plug-In . SVG Version: 6.00 Build 0)  -->
<!DOCTYPE svg PUBLIC "-//W3C//DTD SVG 1.1//EN" "http://www.w3.org/Graphics/SVG/1.1/DTD/svg11.dtd">
<svg version="1.1" id="Layer_1" xmlns="http://www.w3.org/2000/svg" xmlns:xlink="http://www.w3.org/1999/xlink" x="0px" y="0px"
	 width="47.943px" height="26px" viewBox="0.058 0.032 47.943 26" enable-background="new 0.058 0.032 47.943 26"
	 xml:space="preserve">
<g>
	<path fill="#222222" d="M13.093,26.031c-1.963,0-3.746-0.33-5.35-0.984c-1.604-0.659-2.975-1.569-4.112-2.73
		c-1.139-1.162-2.017-2.524-2.64-4.094c-0.622-1.569-0.933-3.275-0.933-5.119v-0.07c0-1.747,0.317-3.413,0.959-4.994
		C1.656,6.46,2.553,5.078,3.71,3.893c1.156-1.186,2.531-2.126,4.123-2.82c1.592-0.694,3.335-1.041,5.226-1.041
		c1.101,0,2.1,0.078,2.999,0.233c0.896,0.156,1.728,0.377,2.497,0.664c0.767,0.288,1.491,0.642,2.172,1.06
		c0.683,0.419,1.348,0.904,1.994,1.456l-2.801,3.341c-0.478-0.407-0.971-0.779-1.473-1.114c-0.502-0.336-1.029-0.616-1.58-0.844
		c-0.552-0.229-1.155-0.407-1.813-0.54c-0.656-0.132-1.383-0.199-2.172-0.199c-1.147,0-2.222,0.241-3.214,0.722
		C8.671,5.289,7.809,5.932,7.079,6.734C6.348,7.538,5.771,8.48,5.355,9.559c-0.42,1.08-0.628,2.221-0.628,3.419v0.07
		c0,1.299,0.202,2.496,0.608,3.6c0.404,1.104,0.983,2.052,1.736,2.843c0.754,0.791,1.649,1.416,2.687,1.873
		c1.038,0.454,2.203,0.683,3.493,0.683c1.194,0,2.31-0.173,3.35-0.521c1.038-0.35,1.939-0.81,2.704-1.39v-4.73h-6.427v-3.843h10.706
		v10.559c-0.624,0.525-1.31,1.027-2.065,1.509c-0.754,0.477-1.567,0.896-2.442,1.257c-0.875,0.357-1.811,0.644-2.819,0.844
		C15.249,25.93,14.194,26.031,13.093,26.031z"/>
	<path fill="#222222" d="M37.84,26.031c-1.437,0-2.771-0.257-4.006-0.77c-1.232-0.517-2.298-1.215-3.196-2.101
		c-0.896-0.885-1.6-1.929-2.1-3.126c-0.503-1.195-0.754-2.465-0.754-3.807v-0.07c0-1.364,0.257-2.645,0.771-3.843
		c0.517-1.197,1.223-2.245,2.119-3.142c0.896-0.896,1.963-1.61,3.194-2.138c1.234-0.525,2.582-0.79,4.041-0.79
		c1.461,0,2.807,0.257,4.042,0.771c1.23,0.517,2.298,1.222,3.195,2.119c0.897,0.897,1.599,1.939,2.101,3.124
		c0.501,1.187,0.754,2.462,0.754,3.826v0.071c0,1.34-0.258,2.609-0.771,3.807c-0.518,1.197-1.223,2.244-2.12,3.141
		c-0.896,0.896-1.971,1.61-3.216,2.139C40.651,25.77,39.299,26.031,37.84,26.031z M37.91,22.262c0.88,0,1.674-0.161,2.372-0.485
		c0.7-0.321,1.304-0.76,1.805-1.308c0.498-0.552,0.879-1.192,1.143-1.921c0.263-0.729,0.395-1.505,0.395-2.317v-0.07
		c0-0.837-0.145-1.629-0.429-2.371c-0.285-0.742-0.687-1.39-1.196-1.939c-0.515-0.551-1.119-0.987-1.82-1.309
		c-0.702-0.322-1.481-0.485-2.339-0.485c-0.856,0-1.638,0.161-2.339,0.485c-0.699,0.323-1.303,0.754-1.803,1.292
		c-0.499,0.539-0.881,1.181-1.144,1.921c-0.263,0.743-0.393,1.52-0.393,2.336v0.07c0,0.838,0.144,1.621,0.429,2.352
		c0.285,0.729,0.686,1.376,1.195,1.938c0.513,0.562,1.117,1.007,1.819,1.328C36.311,22.101,37.077,22.262,37.91,22.262z"/>
</g>
</svg>
