<?xml version="1.0" encoding="utf-8"?>
<!-- Generator: Adobe Illustrator 16.0.0, SVG Export Plug-In . SVG Version: 6.00 Build 0)  -->
<!DOCTYPE svg PUBLIC "-//W3C//DTD SVG 1.1//EN" "http://www.w3.org/Graphics/SVG/1.1/DTD/svg11.dtd">
<svg version="1.1" id="Layer_1" xmlns="http://www.w3.org/2000/svg" xmlns:xlink="http://www.w3.org/1999/xlink" x="0px" y="0px"
	 width="48.06px" height="26.063px" viewBox="0 0 48.06 26.063" enable-background="new 0 0 48.06 26.063" xml:space="preserve">
<g>
	<path d="M13.068,26.063c-1.968,0-3.756-0.33-5.364-0.989c-1.608-0.66-2.982-1.572-4.122-2.736c-1.14-1.164-2.022-2.532-2.646-4.104
		C0.312,16.662,0,14.952,0,13.104v-0.072c0-1.751,0.32-3.42,0.961-5.004c0.641-1.584,1.541-2.97,2.7-4.158
		C4.82,2.682,6.198,1.74,7.794,1.044C9.39,0.348,11.136,0,13.032,0c1.104,0,2.106,0.078,3.006,0.234
		c0.9,0.156,1.733,0.378,2.502,0.666c0.768,0.288,1.494,0.642,2.178,1.062c0.684,0.42,1.35,0.906,1.998,1.458l-2.808,3.348
		c-0.48-0.408-0.972-0.78-1.476-1.116c-0.504-0.336-1.032-0.618-1.584-0.846c-0.553-0.228-1.158-0.408-1.818-0.54
		c-0.66-0.131-1.386-0.198-2.178-0.198c-1.152,0-2.227,0.241-3.222,0.722c-0.996,0.481-1.86,1.125-2.592,1.93
		C6.306,7.525,5.729,8.469,5.31,9.551c-0.42,1.082-0.63,2.224-0.63,3.427v0.072c0,1.299,0.203,2.501,0.61,3.607
		c0.407,1.106,0.987,2.057,1.742,2.85c0.754,0.793,1.652,1.419,2.693,1.876c1.041,0.457,2.208,0.685,3.501,0.685
		c1.197,0,2.316-0.175,3.358-0.525c1.041-0.35,1.945-0.814,2.711-1.393v-4.742h-6.444v-3.852H23.58V22.14
		c-0.625,0.528-1.314,1.032-2.07,1.512c-0.756,0.48-1.572,0.9-2.448,1.26c-0.876,0.359-1.818,0.643-2.826,0.846
		C15.228,25.962,14.171,26.063,13.068,26.063z"/>
	<path d="M37.872,26.063c-1.44,0-2.778-0.258-4.014-0.773c-1.236-0.516-2.304-1.218-3.204-2.106c-0.9-0.887-1.602-1.931-2.106-3.132
		c-0.504-1.2-0.756-2.472-0.756-3.816v-0.072c0-1.368,0.258-2.652,0.774-3.852s1.224-2.25,2.124-3.15
		c0.9-0.9,1.968-1.614,3.204-2.142c1.236-0.528,2.586-0.792,4.05-0.792c1.463,0,2.813,0.258,4.05,0.774
		c1.236,0.516,2.304,1.224,3.204,2.124s1.602,1.944,2.106,3.132s0.756,2.466,0.756,3.834v0.072c0,1.344-0.258,2.616-0.774,3.816
		c-0.517,1.2-1.224,2.25-2.124,3.15s-1.975,1.614-3.222,2.142C40.692,25.8,39.336,26.063,37.872,26.063z M37.944,22.284
		c0.882,0,1.675-0.162,2.378-0.486s1.306-0.762,1.807-1.314c0.5-0.552,0.882-1.194,1.145-1.926c0.262-0.731,0.394-1.505,0.394-2.322
		v-0.072c0-0.84-0.143-1.632-0.429-2.376c-0.286-0.743-0.686-1.392-1.199-1.944c-0.513-0.552-1.121-0.99-1.825-1.314
		c-0.704-0.324-1.484-0.486-2.343-0.486c-0.859,0-1.64,0.162-2.344,0.486c-0.704,0.324-1.306,0.756-1.807,1.296
		c-0.501,0.54-0.883,1.183-1.145,1.926c-0.262,0.744-0.393,1.524-0.393,2.34v0.072c0,0.84,0.143,1.626,0.429,2.358
		c0.286,0.732,0.685,1.38,1.198,1.944c0.513,0.564,1.121,1.008,1.825,1.332S37.109,22.284,37.944,22.284z"/>
</g>
</svg>
