<?xml version="1.0" encoding="utf-8"?>
<!-- Generator: Adobe Illustrator 16.0.0, SVG Export Plug-In . SVG Version: 6.00 Build 0)  -->
<!DOCTYPE svg PUBLIC "-//W3C//DTD SVG 1.1//EN" "http://www.w3.org/Graphics/SVG/1.1/DTD/svg11.dtd">
<svg version="1.1" id="Layer_1" xmlns="http://www.w3.org/2000/svg" xmlns:xlink="http://www.w3.org/1999/xlink" x="0px" y="0px"
	 width="39.45px" height="26px" viewBox="-2.356 -1.552 39.45 26" enable-background="new -2.356 -1.552 39.45 26"
	 xml:space="preserve">
<g>
	<path fill="#222222" d="M23.688,13.495c-1.31,0.688-2.033,1.111-2.169,1.271c-0.245,0.33-0.366,1.15-0.366,2.461v2.052
		c0,0.877,0.203,1.641,0.613,2.297c0.189,0.301,0.394,0.615,0.612,0.943c0,0.574-1.513,1.066-4.537,1.477
		c-2.289,0.305-4.169,0.452-5.642,0.452c-4.17,0-7.577-1.038-10.22-3.112c-2.891-2.266-4.335-5.431-4.335-9.499
		c0-4.122,1.539-7.425,4.619-9.908c2.889-2.32,6.432-3.48,10.63-3.48c0.954,0,2.057,0.149,3.312,0.451
		c1.088,0.268,2.181,0.542,3.27,0.817c0.138,0.028,0.329-0.013,0.572-0.124c0.246-0.108,0.424-0.162,0.531-0.162
		c0.246,0,0.368,0.136,0.368,0.408c0,0.572-0.07,1.424-0.207,2.554c-0.133,1.128-0.204,1.979-0.204,2.555
		c0,0.27-0.137,0.382-0.408,0.324c-0.216-0.023-0.462-0.324-0.735-0.899c-0.161-0.405-0.325-0.813-0.489-1.222
		c-0.599-1.119-1.553-1.977-2.861-2.579c-1.172-0.518-2.454-0.777-3.844-0.777c-3.134,0-5.668,1.242-7.603,3.724
		c-1.827,2.295-2.74,5.04-2.74,8.231c0,3.249,0.982,5.966,2.944,8.151c1.963,2.186,4.552,3.277,7.767,3.277
		c2.181,0,3.884-0.438,5.11-1.314c0.218-0.683,0.329-2.229,0.329-4.637c0.025-0.438,0.039-0.819,0.039-1.149
		c0-0.986-0.164-1.6-0.49-1.848c-0.192-0.165-0.654-0.26-1.39-0.288c-0.845-0.025-1.581-0.176-2.208-0.45
		c-0.244-0.11-0.367-0.312-0.367-0.616c0-0.213,0.11-0.327,0.328-0.327c0.462,0,1.164,0.026,2.105,0.081
		c0.939,0.055,1.641,0.082,2.104,0.082c0.626,0,1.553-0.027,2.778-0.082c1.228-0.055,2.142-0.081,2.74-0.081
		c0.246,0,0.368,0.136,0.368,0.41C24.013,13.208,23.904,13.386,23.688,13.495z"/>
	<path fill="#222222" d="M37.094,9.159c0,0.324-0.163,0.829-0.491,1.513c-0.326,0.681-0.628,1.018-0.897,1.018
		c-0.113,0-0.368-0.184-0.78-0.552c-0.406-0.365-0.82-0.548-1.227-0.548c-0.845,0-1.585,0.354-2.205,1.062
		c-0.629,0.709-0.946,1.472-0.963,2.293c-0.018,0.817-0.033,2.775-0.063,5.886c0,0.877,0.104,1.556,0.309,2.045
		c0.204,0.494,0.878,0.846,2.021,1.065c1.063,0.19,1.595,0.435,1.595,0.732c0,0.305-0.11,0.45-0.326,0.45
		c-0.545,0-1.357-0.026-2.433-0.081c-1.079-0.054-1.888-0.081-2.436-0.081c-0.465,0-1.157,0.027-2.086,0.081
		c-0.925,0.055-1.621,0.081-2.084,0.081c-0.218,0-0.326-0.149-0.326-0.45c0-0.213,0.3-0.448,0.898-0.692
		c0.709-0.326,1.09-0.516,1.144-0.571c0.708-0.517,1.063-2.793,1.063-6.83V12.88c0.025-1.389-0.49-2.084-1.553-2.084
		c-0.789,0-1.187-0.213-1.187-0.654c0-0.191,0.342-0.395,1.021-0.613c1.583-0.354,3.011-0.923,4.293-1.716
		c0.078-0.054,0.189-0.119,0.327-0.204l0.164,0.163c0,0.981-0.069,2.085-0.205,3.311c2.532-2.125,4.141-3.188,4.824-3.188
		C36.563,7.892,37.094,8.314,37.094,9.159z"/>
</g>
</svg>
