<?xml version="1.0" encoding="utf-8"?>
<!-- Generator: Adobe Illustrator 16.0.0, SVG Export Plug-In . SVG Version: 6.00 Build 0)  -->
<!DOCTYPE svg PUBLIC "-//W3C//DTD SVG 1.1 Tiny//EN" "http://www.w3.org/Graphics/SVG/1.1/DTD/svg11-tiny.dtd">
<svg version="1.1" baseProfile="tiny" id="Layer_1" xmlns="http://www.w3.org/2000/svg" xmlns:xlink="http://www.w3.org/1999/xlink"
	 x="0px" y="0px" width="34.74px" height="22.896px" viewBox="0 0 34.74 22.896" xml:space="preserve">
<g>
	<path d="M22.932,13.251c-1.152,0.603-1.788,0.976-1.908,1.12c-0.216,0.289-0.324,1.012-0.324,2.167v1.807
		c0,0.771,0.18,1.444,0.54,2.022c0.167,0.266,0.348,0.542,0.54,0.831c0,0.506-1.332,0.939-3.996,1.301
		c-2.016,0.265-3.672,0.397-4.968,0.397c-3.672,0-6.672-0.914-9-2.741C1.272,18.161,0,15.373,0,11.791
		c0-3.63,1.356-6.538,4.068-8.726C6.612,1.022,9.732,0,13.428,0c0.84,0,1.812,0.132,2.916,0.396c0.959,0.239,1.92,0.479,2.88,0.72
		c0.12,0.024,0.288-0.012,0.504-0.108c0.216-0.096,0.372-0.144,0.468-0.144c0.216,0,0.324,0.12,0.324,0.359
		c0,0.504-0.06,1.255-0.18,2.25c-0.121,0.996-0.18,1.746-0.18,2.25c0,0.24-0.121,0.337-0.36,0.288
		c-0.192-0.023-0.409-0.288-0.648-0.792C19.008,4.86,18.864,4.5,18.72,4.14C18.192,3.156,17.352,2.4,16.2,1.872
		c-1.032-0.456-2.16-0.684-3.384-0.684c-2.76,0-4.992,1.094-6.696,3.281c-1.608,2.02-2.412,4.437-2.412,7.249
		c0,2.86,0.864,5.253,2.592,7.176c1.728,1.924,4.008,2.886,6.84,2.886c1.92,0,3.42-0.386,4.5-1.157
		c0.192-0.602,0.288-1.963,0.288-4.083c0.023-0.386,0.036-0.723,0.036-1.013c0-0.867-0.144-1.408-0.432-1.626
		c-0.168-0.144-0.576-0.229-1.224-0.253c-0.744-0.023-1.392-0.156-1.944-0.397c-0.216-0.096-0.324-0.276-0.324-0.542
		c0-0.192,0.096-0.289,0.288-0.289c0.408,0,1.026,0.024,1.854,0.072s1.446,0.072,1.854,0.072c0.552,0,1.368-0.024,2.448-0.072
		c1.08-0.048,1.884-0.072,2.412-0.072c0.216,0,0.324,0.12,0.324,0.361C23.22,12.998,23.124,13.154,22.932,13.251z"/>
	<path d="M34.74,9.432c0,0.288-0.144,0.732-0.432,1.332c-0.288,0.601-0.552,0.9-0.792,0.9c-0.096,0-0.324-0.162-0.684-0.486
		c-0.36-0.324-0.72-0.485-1.08-0.485c-0.744,0-1.393,0.312-1.944,0.936c-0.552,0.624-0.834,1.296-0.846,2.016
		c-0.013,0.721-0.031,2.448-0.054,5.185c0,0.769,0.09,1.368,0.27,1.8s0.774,0.744,1.782,0.937c0.936,0.168,1.404,0.384,1.404,0.647
		c0,0.265-0.096,0.396-0.288,0.396c-0.48,0-1.194-0.024-2.142-0.072c-0.948-0.048-1.662-0.072-2.142-0.072
		c-0.409,0-1.021,0.024-1.836,0.072s-1.428,0.072-1.836,0.072c-0.192,0-0.288-0.132-0.288-0.396c0-0.191,0.264-0.396,0.792-0.612
		c0.624-0.288,0.96-0.455,1.008-0.504c0.624-0.455,0.936-2.46,0.936-6.012v-2.376c0.023-1.224-0.432-1.836-1.368-1.836
		c-0.696,0-1.044-0.191-1.044-0.576c0-0.168,0.3-0.348,0.9-0.54c1.392-0.312,2.652-0.815,3.78-1.512
		c0.072-0.048,0.167-0.108,0.288-0.18l0.144,0.144c0,0.864-0.06,1.836-0.18,2.916c2.232-1.872,3.647-2.808,4.248-2.808
		C34.272,8.316,34.74,8.688,34.74,9.432z"/>
</g>
</svg>
