<?xml version="1.0" encoding="utf-8"?>
<!-- Generator: Adobe Illustrator 16.0.0, SVG Export Plug-In . SVG Version: 6.00 Build 0)  -->
<!DOCTYPE svg PUBLIC "-//W3C//DTD SVG 1.1//EN" "http://www.w3.org/Graphics/SVG/1.1/DTD/svg11.dtd">
<svg version="1.1" id="Layer_1" xmlns="http://www.w3.org/2000/svg" xmlns:xlink="http://www.w3.org/1999/xlink" x="0px" y="0px"
	 width="34.74px" height="22.896px" viewBox="0 0 34.74 22.896" enable-background="new 0 0 34.74 22.896" xml:space="preserve">
<g>
	<path fill="#222222" d="M22.933,13.251c-1.152,0.604-1.789,0.978-1.908,1.12c-0.217,0.289-0.323,1.012-0.323,2.167v1.807
		c0,0.771,0.18,1.444,0.54,2.022c0.167,0.266,0.348,0.542,0.539,0.831c0,0.506-1.331,0.939-3.995,1.301
		c-2.016,0.267-3.672,0.397-4.968,0.397c-3.672,0-6.672-0.914-9-2.741C1.272,18.161,0,15.373,0,11.791
		c0-3.63,1.356-6.538,4.068-8.726C6.612,1.022,9.732,0,13.428,0c0.84,0,1.812,0.132,2.916,0.396c0.959,0.237,1.92,0.479,2.879,0.72
		c0.121,0.024,0.289-0.012,0.504-0.108c0.217-0.096,0.373-0.144,0.469-0.144c0.216,0,0.324,0.12,0.324,0.359
		c0,0.504-0.062,1.255-0.182,2.25c-0.119,0.994-0.18,1.744-0.18,2.25c0,0.238-0.121,0.337-0.36,0.286
		c-0.19-0.021-0.407-0.286-0.647-0.792C19.008,4.86,18.864,4.5,18.72,4.14c-0.527-0.984-1.368-1.74-2.52-2.27
		c-1.032-0.456-2.16-0.684-3.384-0.684c-2.76,0-4.992,1.094-6.696,3.279c-1.608,2.021-2.412,4.438-2.412,7.249
		c0,2.86,0.864,5.254,2.592,7.178s4.008,2.886,6.84,2.886c1.92,0,3.42-0.386,4.5-1.157c0.192-0.602,0.289-1.963,0.289-4.083
		c0.022-0.386,0.035-0.723,0.035-1.013c0-0.867-0.144-1.408-0.432-1.626c-0.168-0.146-0.576-0.229-1.224-0.253
		c-0.744-0.023-1.392-0.156-1.944-0.397c-0.216-0.096-0.324-0.274-0.324-0.542c0-0.19,0.096-0.289,0.288-0.289
		c0.408,0,1.026,0.024,1.854,0.072c0.828,0.048,1.446,0.072,1.854,0.072c0.552,0,1.367-0.024,2.447-0.072s1.885-0.072,2.412-0.072
		c0.217,0,0.324,0.12,0.324,0.361C23.22,12.998,23.124,13.154,22.933,13.251z"/>
	<path fill="#222222" d="M34.74,9.432c0,0.286-0.144,0.73-0.433,1.332c-0.287,0.601-0.553,0.898-0.791,0.898
		c-0.098,0-0.324-0.162-0.686-0.486c-0.359-0.322-0.721-0.483-1.08-0.483c-0.744,0-1.395,0.312-1.943,0.936
		c-0.553,0.624-0.834,1.296-0.847,2.018c-0.013,0.721-0.03,2.446-0.054,5.185c0,0.771,0.09,1.368,0.271,1.8
		c0.18,0.434,0.772,0.744,1.78,0.938c0.937,0.168,1.403,0.384,1.403,0.646c0,0.267-0.096,0.396-0.287,0.396
		c-0.479,0-1.194-0.024-2.143-0.072c-0.949-0.048-1.662-0.072-2.143-0.072c-0.409,0-1.021,0.024-1.836,0.072
		s-1.428,0.072-1.836,0.072c-0.191,0-0.288-0.132-0.288-0.396c0-0.189,0.265-0.396,0.792-0.61c0.624-0.288,0.96-0.455,1.008-0.504
		c0.624-0.455,0.936-2.46,0.936-6.014V12.71c0.023-1.224-0.432-1.836-1.366-1.836c-0.696,0-1.046-0.189-1.046-0.576
		c0-0.168,0.302-0.348,0.9-0.54c1.393-0.312,2.652-0.813,3.78-1.512c0.071-0.048,0.167-0.106,0.288-0.18l0.145,0.144
		c0,0.864-0.061,1.836-0.181,2.916c2.231-1.872,3.647-2.808,4.248-2.808C34.272,8.316,34.74,8.688,34.74,9.432z"/>
</g>
</svg>
