<?xml version="1.0" encoding="utf-8"?>
<!-- Generator: Adobe Illustrator 16.0.0, SVG Export Plug-In . SVG Version: 6.00 Build 0)  -->
<!DOCTYPE svg PUBLIC "-//W3C//DTD SVG 1.1 Tiny//EN" "http://www.w3.org/Graphics/SVG/1.1/DTD/svg11-tiny.dtd">
<svg version="1.1" baseProfile="tiny" id="Layer_1" xmlns="http://www.w3.org/2000/svg" xmlns:xlink="http://www.w3.org/1999/xlink"
	 x="0px" y="0px" width="34.744px" height="22.294px" viewBox="0 0 34.744 22.294" xml:space="preserve">
<g>
	<path d="M20.576,15.788c-0.396,0.66-1.013,1.563-1.85,2.708c-1.607,2.246-2.609,3.368-3.006,3.368l-0.594,0.265
		c-0.551-0.066-0.997-0.104-1.338-0.115s-0.666-0.017-0.974-0.017h0.033c-0.551-0.11-1.041-0.182-1.47-0.215
		c-0.43-0.033-0.908-0.066-1.437-0.1c-0.528-0.032-1.057-0.049-1.585-0.049c-0.287,0-0.573,0-0.859,0
		c-0.264,0-0.507,0.011-0.727,0.033l-6.275,0.627c-0.154,0-0.319-0.22-0.495-0.66c0.484-0.463,0.902-0.958,1.255-1.486
		c0.748-1.079,1.238-2.108,1.47-3.088c0.231-0.979,0.347-1.977,0.347-2.989c0-0.771-0.033-1.558-0.099-2.361
		c-0.066-0.804-0.099-1.635-0.099-2.494V6.97C2.829,6.771,2.664,6.672,2.378,6.672l-0.43,0.1c-0.771,0-1.156-0.198-1.156-0.595
		c0-0.176,0.044-0.319,0.132-0.43c0.087-0.109,0.198-0.165,0.33-0.165c0.044,0,0.121,0.022,0.231,0.066
		c0.308,0,0.76-0.253,1.354-0.76c0.748-0.683,1.375-1.167,1.882-1.453C5.207,3.171,5.686,2.979,6.16,2.857
		c0.473-0.121,0.952-0.182,1.437-0.182L7.86,2.808c0.33,0,0.715-0.253,1.156-0.76c0.573-0.682,0.969-1.111,1.189-1.288
		c0.33-0.33,0.842-0.539,1.536-0.627C12.435,0.045,13.167,0,13.938,0c0.572,0,1.123,0.012,1.651,0.033
		c0.528,0.022,0.969,0.056,1.321,0.1c0.11,0.021,0.22,0.033,0.33,0.033c0.154,0,0.297,0,0.429,0c0.264,0,0.528-0.006,0.793-0.017
		c0.264-0.011,0.473-0.038,0.627-0.083c0.528,0,0.969,0.144,1.321,0.43c-0.11,0.264-0.264,0.562-0.462,0.892
		c-0.198,0.33-0.429,0.705-0.693,1.123C18.682,3.392,18.264,3.876,18,3.964c-1.102-0.22-1.982-0.401-2.643-0.545
		c-0.66-0.144-1.184-0.265-1.569-0.363c-0.385-0.1-0.666-0.165-0.842-0.198c-0.177-0.033-0.342-0.05-0.496-0.05
		c-0.154,0-0.259,0.182-0.314,0.545s-0.083,0.864-0.083,1.503c0,0.396,0.022,0.848,0.066,1.354c0.043,0.507,0.077,1.035,0.099,1.585
		c0.043,0.793,0.121,1.277,0.231,1.453c0.198-0.793,0.804-1.453,1.816-1.981c0.836-0.484,1.629-0.727,2.378-0.727
		c0.352,0,0.776,0.082,1.272,0.248c0.495,0.165,0.974,0.412,1.437,0.742c0.462,0.331,0.864,0.749,1.206,1.256
		c0.341,0.507,0.534,1.111,0.578,1.816c0,0.198,0,0.407,0,0.627c0,0.177,0.005,0.413,0.017,0.71
		c0.011,0.298,0.017,0.645,0.017,1.041s0,0.892,0,1.486C21.17,14.687,20.972,15.127,20.576,15.788z M17.983,12.65
		c-0.055-0.793-0.171-1.53-0.347-2.213c-0.111-0.551-0.353-0.947-0.727-1.189c-0.375-0.242-0.727-0.363-1.057-0.363
		c-0.661,0-1.25,0.148-1.767,0.446c-0.518,0.297-1.052,0.688-1.602,1.172h-0.033c-0.044,0.045-0.083,0.336-0.116,0.876
		c-0.033,0.539-0.049,1.304-0.049,2.295c0,0.265,0,0.551,0,0.858c0,0.287,0.011,0.562,0.033,0.826
		c-0.044-0.021-0.209,0.055-0.495,0.231c-0.287,0.176-0.606,0.374-0.958,0.594c-0.353,0.221-0.683,0.425-0.991,0.611
		c-0.309,0.188-0.518,0.292-0.627,0.313c-0.22,0-0.396-0.33-0.528-0.99c-0.044-0.22-0.078-0.43-0.099-0.628
		c-0.022-0.198-0.033-0.363-0.033-0.495c0.088-0.991,0.143-1.899,0.165-2.725c0.022-0.826,0.033-1.668,0.033-2.527V8.225
		c-0.044-0.44-0.072-0.897-0.083-1.371C8.691,6.381,8.686,5.945,8.686,5.549c0-1.255-0.11-1.882-0.33-1.882
		c-0.837,0-1.415,0.182-1.734,0.545c-0.32,0.363-0.479,0.93-0.479,1.7c0,0.947,0.033,2.004,0.099,3.171
		c0.066,1.167,0.099,2.257,0.099,3.27c0,0.089,0.005,0.271,0.016,0.545c0.011,0.275,0.017,0.59,0.017,0.941
		c0,0.375,0.005,0.766,0.017,1.173c0.011,0.407,0.017,0.798,0.017,1.172c0,0.287,0,0.562,0,0.826c0,0.242-0.011,0.462-0.033,0.66
		c0,0.265,0.027,0.484,0.083,0.661c0.055,0.176,0.126,0.33,0.215,0.462c0.044,0,0.077,0.006,0.099,0.017
		c0.021,0.012,0.055,0.017,0.099,0.017l3.732-0.595c0.528,0,1.09,0.028,1.685,0.083c0.594,0.055,1.178,0.127,1.75,0.215
		c0.572,0.088,1.111,0.22,1.618,0.396c0.506,0.177,0.936,0.386,1.288,0.628h0.496c0.418-1.541,0.627-2.994,0.627-4.359
		C18.066,14.291,18.038,13.442,17.983,12.65z"/>
	<path d="M32.895,18c0.087,0.111,0.214,0.265,0.379,0.463c0.166,0.198,0.341,0.392,0.529,0.578c0.187,0.188,0.363,0.369,0.528,0.545
		c0.165,0.177,0.302,0.33,0.413,0.462c-0.11,0.133-0.204,0.237-0.281,0.314s-0.138,0.148-0.182,0.214
		c-0.044,0.066-0.104,0.139-0.182,0.215c-0.077,0.078-0.17,0.171-0.281,0.281c-0.33,0.353-0.561,0.616-0.693,0.792
		c-0.132,0.177-0.319,0.265-0.562,0.265c-0.375,0-0.71-0.132-1.007-0.396c-0.297-0.264-0.573-0.556-0.826-0.875
		c-0.253-0.319-0.462-0.611-0.627-0.875c-0.165-0.265-0.292-0.396-0.38-0.396c-0.198,0-0.452,0.144-0.76,0.43
		c-0.309,0.286-0.528,0.561-0.66,0.825c-0.044,0.11-0.078,0.242-0.099,0.396c-0.022,0.154-0.05,0.297-0.083,0.43
		c-0.033,0.132-0.088,0.247-0.165,0.347c-0.077,0.099-0.204,0.148-0.38,0.148s-0.396-0.1-0.66-0.298
		c-0.265-0.197-0.601-0.418-1.007-0.66c-0.408-0.242-0.887-0.468-1.437-0.677s-1.2-0.314-1.949-0.314
		c-0.088,0-0.22-0.099-0.396-0.297c-0.177-0.198-0.264-0.374-0.264-0.528s0.083-0.27,0.248-0.347s0.314-0.171,0.446-0.281
		c0.132-0.132,0.253-0.23,0.363-0.297c0.11-0.066,0.204-0.143,0.281-0.231c0.077-0.088,0.137-0.198,0.182-0.33
		c0.044-0.132,0.066-0.33,0.066-0.595v-6.077c-0.022-0.109-0.11-0.241-0.264-0.396c-0.154-0.153-0.325-0.313-0.512-0.479
		c-0.188-0.165-0.353-0.324-0.496-0.479c-0.144-0.154-0.214-0.286-0.214-0.396c0-0.132,0.087-0.319,0.264-0.562
		c0.176-0.242,0.396-0.528,0.66-0.858c0.198-0.286,0.474-0.557,0.826-0.81c0.352-0.253,0.616-0.38,0.792-0.38
		c0.088,0,0.292,0.104,0.611,0.313c0.319,0.21,0.661,0.446,1.024,0.711c0.363,0.264,0.688,0.539,0.974,0.825s0.43,0.474,0.43,0.562
		c0,0.177-0.055,0.319-0.165,0.43c-0.111,0.11-0.226,0.226-0.347,0.347s-0.237,0.27-0.347,0.445
		c-0.11,0.177-0.165,0.375-0.165,0.595v6.539c0,0.177,0.083,0.32,0.248,0.43c0.165,0.11,0.347,0.221,0.545,0.33
		c0.176,0.11,0.385,0.231,0.627,0.363c0.242,0.133,0.43,0.198,0.562,0.198c0.044,0,0.126-0.061,0.248-0.182
		c0.121-0.12,0.248-0.258,0.38-0.413c0.132-0.153,0.242-0.308,0.33-0.462c0.088-0.153,0.132-0.286,0.132-0.396v-6.474
		c0-0.109-0.066-0.264-0.198-0.462c-0.132-0.198-0.342-0.43-0.628-0.693c-0.154-0.133-0.336-0.248-0.545-0.347
		c-0.209-0.1-0.313-0.27-0.313-0.513c0-0.132,0.093-0.274,0.281-0.429c0.187-0.154,0.49-0.451,0.908-0.892
		c0.374-0.353,0.671-0.611,0.892-0.776c0.22-0.165,0.429-0.248,0.627-0.248c0.132,0,0.308,0.1,0.529,0.298
		c0.22,0.197,0.473,0.429,0.759,0.693c0.286,0.264,0.595,0.54,0.925,0.825c0.331,0.287,0.671,0.518,1.024,0.693
		c0,0.243-0.022,0.425-0.066,0.546c-0.044,0.121-0.144,0.28-0.297,0.479c-0.22,0.264-0.396,0.462-0.528,0.595
		c-0.132,0.132-0.198,0.275-0.198,0.429v6.54L32.895,18z"/>
</g>
</svg>
