<?xml version="1.0" encoding="utf-8"?>
<!-- Generator: Adobe Illustrator 16.0.0, SVG Export Plug-In . SVG Version: 6.00 Build 0)  -->
<!DOCTYPE svg PUBLIC "-//W3C//DTD SVG 1.1//EN" "http://www.w3.org/Graphics/SVG/1.1/DTD/svg11.dtd">
<svg version="1.1" id="Layer_1" xmlns="http://www.w3.org/2000/svg" xmlns:xlink="http://www.w3.org/1999/xlink" x="0px" y="0px"
	 width="40.519px" height="26px" viewBox="-5.777 -1.854 40.519 26" enable-background="new -5.777 -1.854 40.519 26"
	 xml:space="preserve">
<g>
	<path fill="#222222" d="M18.22,16.559c-0.461,0.772-1.182,1.824-2.158,3.159c-1.874,2.622-3.042,3.93-3.504,3.93l-0.692,0.311
		c-0.645-0.076-1.163-0.12-1.562-0.137c-0.4-0.015-0.777-0.021-1.135-0.021h0.039c-0.646-0.127-1.214-0.213-1.715-0.251
		c-0.501-0.038-1.061-0.076-1.679-0.115c-0.613-0.037-1.231-0.058-1.85-0.058c-0.333,0-0.667,0-1.001,0
		c-0.309,0-0.59,0.014-0.848,0.04l-7.317,0.729c-0.18,0-0.372-0.256-0.576-0.77c0.562-0.54,1.051-1.12,1.462-1.734
		c0.873-1.258,1.444-2.458,1.715-3.602c0.272-1.143,0.405-2.307,0.405-3.484c0-0.898-0.038-1.815-0.115-2.754
		c-0.076-0.938-0.113-1.906-0.113-2.91V6.274c-0.054-0.231-0.247-0.348-0.58-0.348l-0.5,0.117c-0.899,0-1.351-0.229-1.351-0.695
		c0-0.205,0.051-0.371,0.153-0.5c0.103-0.127,0.229-0.192,0.386-0.192c0.051,0,0.143,0.026,0.271,0.077
		c0.357,0,0.886-0.294,1.58-0.885c0.871-0.798,1.603-1.362,2.194-1.695c0.564-0.309,1.123-0.532,1.676-0.674
		c0.552-0.142,1.11-0.213,1.677-0.213L3.39,1.422c0.384,0,0.833-0.295,1.348-0.887C5.406-0.259,5.869-0.76,6.125-0.967
		C6.51-1.352,7.107-1.596,7.917-1.698c0.811-0.103,1.664-0.155,2.562-0.155c0.666,0,1.311,0.015,1.924,0.04
		c0.617,0.025,1.132,0.065,1.542,0.116c0.13,0.024,0.258,0.039,0.387,0.039c0.18,0,0.347,0,0.5,0c0.309,0,0.614-0.007,0.926-0.021
		c0.308-0.012,0.551-0.044,0.729-0.097c0.616,0,1.132,0.168,1.542,0.501c-0.129,0.308-0.309,0.655-0.539,1.041
		c-0.229,0.384-0.501,0.822-0.81,1.31c-0.667,1.028-1.155,1.592-1.464,1.694c-1.286-0.255-2.313-0.467-3.084-0.635
		c-0.771-0.168-1.381-0.31-1.828-0.423C9.854,1.594,9.527,1.518,9.322,1.48C9.115,1.441,8.923,1.422,8.744,1.422
		c-0.182,0-0.303,0.211-0.367,0.635C8.313,2.479,8.281,3.063,8.281,3.81c0,0.461,0.025,0.989,0.077,1.58
		c0.051,0.59,0.089,1.207,0.114,1.849c0.05,0.925,0.141,1.49,0.272,1.694c0.229-0.925,0.938-1.694,2.116-2.31
		c0.978-0.564,1.898-0.849,2.774-0.849c0.41,0,0.905,0.097,1.482,0.291c0.576,0.191,1.136,0.48,1.677,0.866
		c0.538,0.384,1.007,0.873,1.406,1.464c0.396,0.59,0.62,1.294,0.674,2.118c0,0.229,0,0.474,0,0.731c0,0.208,0.006,0.481,0.02,0.828
		c0.015,0.349,0.022,0.754,0.022,1.215c0,0.46,0,1.04,0,1.731C18.914,15.275,18.682,15.791,18.22,16.559z M15.196,12.9
		c-0.062-0.926-0.198-1.784-0.403-2.583c-0.129-0.642-0.412-1.104-0.85-1.386c-0.437-0.283-0.847-0.424-1.231-0.424
		c-0.771,0-1.458,0.174-2.063,0.521c-0.603,0.346-1.227,0.802-1.866,1.368H8.744c-0.053,0.052-0.099,0.392-0.138,1.021
		c-0.039,0.629-0.056,1.521-0.056,2.677c0,0.312,0,0.646,0,1c0,0.335,0.013,0.655,0.038,0.964c-0.051-0.022-0.243,0.064-0.577,0.272
		c-0.334,0.206-0.708,0.437-1.117,0.69c-0.411,0.26-0.795,0.497-1.155,0.711C5.38,17.955,5.135,18.076,5.011,18.1
		c-0.257,0-0.462-0.386-0.616-1.154c-0.052-0.257-0.091-0.502-0.115-0.731c-0.023-0.23-0.038-0.425-0.038-0.575
		c0.105-1.155,0.167-2.217,0.194-3.18c0.022-0.965,0.037-1.947,0.037-2.949V7.74c-0.056-0.514-0.089-1.047-0.101-1.6
		c-0.016-0.551-0.02-1.06-0.02-1.522c0-1.462-0.128-2.195-0.386-2.195c-0.975,0-1.648,0.213-2.021,0.637
		C1.573,3.481,1.387,4.143,1.387,5.042c0,1.104,0.038,2.336,0.115,3.698c0.076,1.361,0.114,2.633,0.114,3.812
		c0,0.104,0.005,0.316,0.02,0.637c0.013,0.319,0.021,0.688,0.021,1.097c0,0.438,0.005,0.896,0.021,1.369
		c0.01,0.476,0.02,0.932,0.02,1.367c0,0.333,0,0.653,0,0.963c0,0.283-0.015,0.538-0.039,0.771c0,0.309,0.029,0.563,0.096,0.769
		c0.063,0.205,0.146,0.389,0.251,0.542c0.051,0,0.09,0.009,0.116,0.021c0.023,0.02,0.062,0.022,0.113,0.022l4.356-0.692
		c0.616,0,1.27,0.031,1.964,0.096c0.691,0.064,1.375,0.149,2.041,0.251c0.667,0.104,1.296,0.257,1.887,0.464
		c0.592,0.207,1.093,0.448,1.501,0.73h0.58c0.488-1.796,0.731-3.492,0.731-5.083C15.292,14.814,15.261,13.824,15.196,12.9z"/>
	<path fill="#222222" d="M32.589,19.141c0.103,0.129,0.249,0.311,0.439,0.539c0.195,0.229,0.397,0.455,0.618,0.673
		c0.22,0.223,0.423,0.435,0.613,0.64c0.192,0.204,0.353,0.384,0.481,0.535c-0.131,0.156-0.239,0.277-0.329,0.368
		c-0.09,0.089-0.159,0.171-0.211,0.248c-0.054,0.076-0.122,0.162-0.214,0.249c-0.09,0.093-0.198,0.2-0.327,0.329
		c-0.386,0.41-0.653,0.72-0.811,0.926c-0.151,0.205-0.371,0.311-0.651,0.311c-0.439,0-0.831-0.156-1.178-0.463
		c-0.347-0.311-0.668-0.647-0.966-1.02c-0.292-0.373-0.536-0.716-0.728-1.022c-0.19-0.312-0.34-0.461-0.441-0.461
		c-0.232,0-0.528,0.167-0.887,0.501c-0.36,0.335-0.617,0.654-0.771,0.963c-0.053,0.127-0.092,0.281-0.115,0.461
		c-0.023,0.183-0.061,0.351-0.099,0.504c-0.038,0.151-0.104,0.287-0.19,0.4c-0.092,0.115-0.237,0.174-0.441,0.174
		c-0.206,0-0.463-0.115-0.771-0.348c-0.31-0.229-0.699-0.483-1.175-0.771c-0.477-0.282-1.033-0.546-1.677-0.789
		s-1.398-0.366-2.274-0.366c-0.103,0-0.254-0.115-0.46-0.347c-0.206-0.23-0.311-0.436-0.311-0.616c0-0.178,0.099-0.312,0.29-0.403
		c0.193-0.089,0.367-0.197,0.52-0.328c0.154-0.15,0.295-0.267,0.426-0.346c0.128-0.076,0.235-0.168,0.325-0.271
		c0.092-0.104,0.158-0.23,0.214-0.385c0.051-0.152,0.074-0.386,0.074-0.694v-7.086c-0.023-0.126-0.129-0.282-0.311-0.462
		c-0.179-0.179-0.377-0.365-0.597-0.559c-0.221-0.192-0.411-0.377-0.579-0.56c-0.162-0.181-0.245-0.334-0.245-0.462
		c0-0.154,0.102-0.372,0.311-0.656c0.204-0.282,0.46-0.615,0.771-1c0.229-0.333,0.551-0.649,0.963-0.945
		c0.41-0.294,0.719-0.443,0.924-0.443c0.104,0,0.34,0.121,0.714,0.364c0.371,0.246,0.771,0.52,1.193,0.83
		c0.424,0.308,0.803,0.628,1.137,0.962c0.332,0.333,0.502,0.553,0.502,0.656c0,0.205-0.062,0.372-0.192,0.5
		c-0.129,0.129-0.262,0.263-0.402,0.405c-0.144,0.141-0.276,0.315-0.404,0.519c-0.129,0.207-0.191,0.438-0.191,0.694v7.626
		c0,0.207,0.098,0.375,0.289,0.502c0.19,0.128,0.404,0.258,0.638,0.385c0.204,0.129,0.445,0.272,0.729,0.423
		c0.283,0.157,0.503,0.233,0.655,0.233c0.053,0,0.145-0.071,0.289-0.214c0.144-0.142,0.291-0.301,0.44-0.48
		c0.157-0.179,0.283-0.357,0.388-0.538c0.104-0.18,0.152-0.336,0.152-0.461v-7.553c0-0.126-0.074-0.307-0.229-0.539
		c-0.151-0.23-0.397-0.5-0.731-0.808c-0.18-0.156-0.393-0.291-0.635-0.405c-0.244-0.116-0.366-0.316-0.366-0.599
		c0-0.154,0.108-0.319,0.327-0.5c0.219-0.18,0.571-0.526,1.062-1.041c0.437-0.412,0.781-0.712,1.04-0.905
		c0.257-0.193,0.501-0.29,0.729-0.29c0.153,0,0.359,0.117,0.616,0.349c0.258,0.229,0.552,0.499,0.884,0.808
		c0.336,0.309,0.695,0.63,1.08,0.962c0.386,0.333,0.782,0.604,1.193,0.81c0,0.283-0.022,0.495-0.075,0.637
		c-0.052,0.141-0.168,0.326-0.347,0.559c-0.258,0.308-0.464,0.54-0.615,0.694c-0.153,0.154-0.229,0.32-0.229,0.499v7.63
		L32.589,19.141z"/>
</g>
</svg>
