<?xml version="1.0" encoding="utf-8"?>
<!-- Generator: Adobe Illustrator 16.0.0, SVG Export Plug-In . SVG Version: 6.00 Build 0)  -->
<!DOCTYPE svg PUBLIC "-//W3C//DTD SVG 1.1 Tiny//EN" "http://www.w3.org/Graphics/SVG/1.1/DTD/svg11-tiny.dtd">
<svg version="1.1" baseProfile="tiny" id="Layer_1" xmlns="http://www.w3.org/2000/svg" xmlns:xlink="http://www.w3.org/1999/xlink"
	 x="0px" y="0px" width="40.522px" height="26px" viewBox="-5.778 -1.853 40.522 26" xml:space="preserve">
<g>
	<path d="M18.221,16.559c-0.461,0.771-1.181,1.823-2.158,3.159c-1.874,2.62-3.042,3.928-3.505,3.928l-0.693,0.31
		c-0.643-0.077-1.163-0.122-1.561-0.135C9.906,23.807,9.527,23.8,9.168,23.8h0.039c-0.643-0.127-1.214-0.212-1.715-0.25
		c-0.501-0.039-1.059-0.078-1.676-0.116c-0.616-0.038-1.233-0.058-1.849-0.058c-0.334,0-0.668,0-1.001,0
		c-0.308,0-0.591,0.013-0.848,0.039L-5.2,24.147c-0.18,0-0.373-0.258-0.578-0.771c0.564-0.539,1.052-1.118,1.463-1.733
		c0.873-1.258,1.444-2.457,1.715-3.601c0.27-1.142,0.404-2.306,0.404-3.486c0-0.899-0.038-1.817-0.115-2.753
		c-0.077-0.938-0.116-1.907-0.116-2.91V6.275c-0.051-0.232-0.244-0.348-0.578-0.348l-0.501,0.117c-0.9,0-1.349-0.23-1.349-0.694
		c0-0.205,0.051-0.372,0.154-0.501c0.102-0.127,0.231-0.192,0.385-0.192c0.051,0,0.142,0.026,0.27,0.077
		c0.359,0,0.887-0.295,1.579-0.886c0.873-0.797,1.604-1.361,2.195-1.695c0.567-0.308,1.125-0.532,1.678-0.674
		c0.551-0.141,1.11-0.212,1.676-0.212L3.39,1.422c0.385,0,0.834-0.295,1.349-0.887C5.407-0.26,5.868-0.76,6.125-0.967
		C6.51-1.352,7.107-1.595,7.917-1.698c0.81-0.103,1.663-0.155,2.562-0.155c0.667,0,1.31,0.014,1.926,0.039
		c0.616,0.025,1.13,0.065,1.541,0.116c0.128,0.024,0.256,0.039,0.385,0.039c0.179,0,0.346,0,0.5,0c0.308,0,0.615-0.007,0.925-0.02
		c0.308-0.012,0.551-0.044,0.731-0.097c0.616,0,1.13,0.168,1.542,0.501c-0.129,0.308-0.309,0.656-0.539,1.041
		c-0.231,0.384-0.501,0.822-0.809,1.309c-0.667,1.028-1.155,1.592-1.463,1.695c-1.286-0.256-2.312-0.467-3.083-0.635
		c-0.77-0.168-1.381-0.31-1.83-0.423C9.854,1.594,9.527,1.519,9.322,1.48C9.115,1.441,8.923,1.422,8.744,1.422
		c-0.18,0-0.302,0.212-0.367,0.635C8.313,2.48,8.281,3.064,8.281,3.81c0,0.462,0.025,0.989,0.077,1.579
		c0.05,0.591,0.089,1.207,0.115,1.849c0.05,0.925,0.141,1.49,0.27,1.694c0.23-0.925,0.937-1.694,2.118-2.31
		c0.975-0.564,1.899-0.848,2.773-0.848c0.41,0,0.905,0.096,1.483,0.29c0.577,0.192,1.136,0.48,1.676,0.866
		c0.538,0.385,1.007,0.873,1.406,1.464c0.398,0.591,0.623,1.295,0.674,2.118c0,0.23,0,0.474,0,0.731
		c0,0.207,0.007,0.481,0.021,0.828c0.013,0.348,0.02,0.753,0.02,1.214s0,1.04,0,1.732C18.913,15.276,18.682,15.79,18.221,16.559z
		 M15.197,12.9c-0.064-0.925-0.2-1.784-0.405-2.581c-0.129-0.643-0.412-1.104-0.848-1.387c-0.438-0.282-0.848-0.423-1.233-0.423
		c-0.771,0-1.458,0.173-2.061,0.521c-0.604,0.346-1.227,0.802-1.868,1.367H8.744c-0.051,0.052-0.097,0.392-0.136,1.021
		c-0.039,0.629-0.057,1.521-0.057,2.677c0,0.309,0,0.643,0,1c0,0.335,0.012,0.656,0.038,0.964c-0.051-0.025-0.244,0.063-0.577,0.269
		c-0.334,0.206-0.707,0.438-1.117,0.693c-0.412,0.258-0.796,0.496-1.156,0.712c-0.361,0.22-0.604,0.342-0.731,0.366
		c-0.257,0-0.462-0.385-0.616-1.154c-0.051-0.257-0.09-0.502-0.115-0.733c-0.026-0.229-0.039-0.424-0.039-0.576
		c0.103-1.157,0.167-2.216,0.193-3.179c0.025-0.963,0.039-1.945,0.039-2.947v-1.77C4.418,7.226,4.385,6.693,4.373,6.14
		C4.359,5.588,4.354,5.08,4.354,4.618c0-1.463-0.128-2.195-0.385-2.195c-0.976,0-1.65,0.212-2.022,0.636
		C1.573,3.482,1.388,4.144,1.388,5.042c0,1.104,0.038,2.337,0.116,3.698c0.077,1.361,0.115,2.632,0.115,3.813
		c0,0.104,0.006,0.315,0.019,0.636c0.013,0.32,0.02,0.688,0.02,1.097c0,0.438,0.006,0.895,0.02,1.369
		c0.012,0.474,0.02,0.931,0.02,1.367c0,0.334,0,0.655,0,0.963c0,0.283-0.013,0.539-0.039,0.771c0,0.309,0.031,0.563,0.097,0.77
		c0.064,0.205,0.147,0.385,0.251,0.54c0.051,0,0.09,0.007,0.115,0.02c0.025,0.015,0.064,0.02,0.116,0.02l4.353-0.694
		c0.616,0,1.271,0.033,1.965,0.097c0.692,0.064,1.374,0.148,2.041,0.251c0.667,0.103,1.295,0.258,1.887,0.462
		c0.59,0.207,1.091,0.45,1.501,0.732h0.579c0.487-1.797,0.732-3.491,0.732-5.084C15.292,14.814,15.261,13.824,15.197,12.9z"/>
	<path d="M32.588,19.14c0.101,0.129,0.249,0.309,0.442,0.54c0.193,0.229,0.397,0.456,0.617,0.674
		c0.218,0.219,0.423,0.431,0.615,0.636c0.192,0.206,0.352,0.385,0.481,0.537c-0.129,0.156-0.238,0.278-0.328,0.367
		c-0.09,0.09-0.16,0.173-0.212,0.25c-0.051,0.077-0.122,0.162-0.213,0.251c-0.089,0.091-0.198,0.198-0.328,0.328
		c-0.385,0.41-0.653,0.718-0.808,0.923c-0.153,0.207-0.372,0.31-0.654,0.31c-0.438,0-0.829-0.155-1.176-0.463
		c-0.346-0.308-0.667-0.648-0.964-1.021c-0.293-0.371-0.537-0.713-0.73-1.021c-0.191-0.31-0.34-0.462-0.442-0.462
		c-0.232,0-0.528,0.168-0.887,0.502c-0.361,0.334-0.616,0.655-0.769,0.963c-0.053,0.127-0.092,0.282-0.116,0.461
		c-0.025,0.18-0.06,0.348-0.098,0.502c-0.038,0.153-0.103,0.287-0.192,0.404c-0.09,0.115-0.237,0.172-0.442,0.172
		c-0.206,0-0.462-0.115-0.771-0.346s-0.7-0.487-1.174-0.77c-0.477-0.283-1.034-0.547-1.677-0.791
		c-0.642-0.243-1.398-0.366-2.273-0.366c-0.103,0-0.255-0.114-0.461-0.347c-0.206-0.23-0.309-0.435-0.309-0.615
		c0-0.18,0.098-0.314,0.289-0.405c0.193-0.089,0.367-0.198,0.521-0.328c0.153-0.152,0.294-0.267,0.423-0.346
		c0.129-0.076,0.238-0.167,0.328-0.27s0.159-0.229,0.212-0.385c0.051-0.153,0.077-0.385,0.077-0.693v-7.087
		c-0.026-0.127-0.129-0.281-0.309-0.462c-0.179-0.178-0.378-0.365-0.597-0.559c-0.219-0.192-0.412-0.377-0.579-0.559
		c-0.167-0.18-0.249-0.334-0.249-0.462c0-0.154,0.102-0.372,0.309-0.656c0.205-0.282,0.461-0.615,0.77-1
		c0.23-0.333,0.552-0.649,0.963-0.945c0.411-0.295,0.719-0.443,0.924-0.443c0.103,0,0.34,0.122,0.713,0.365
		c0.371,0.245,0.77,0.52,1.193,0.829c0.424,0.308,0.803,0.628,1.137,0.962c0.333,0.333,0.501,0.553,0.501,0.656
		c0,0.206-0.063,0.372-0.192,0.501s-0.263,0.264-0.404,0.405c-0.142,0.141-0.276,0.315-0.405,0.519
		c-0.128,0.207-0.191,0.438-0.191,0.694v7.626c0,0.206,0.096,0.373,0.289,0.501c0.191,0.129,0.404,0.259,0.636,0.386
		c0.205,0.128,0.448,0.27,0.731,0.422c0.282,0.156,0.501,0.232,0.654,0.232c0.052,0,0.147-0.071,0.289-0.213
		c0.142-0.14,0.29-0.301,0.443-0.481c0.155-0.178,0.282-0.359,0.385-0.539c0.103-0.179,0.154-0.334,0.154-0.461v-7.551
		c0-0.127-0.076-0.308-0.231-0.539c-0.152-0.231-0.398-0.501-0.731-0.808c-0.18-0.155-0.392-0.29-0.635-0.404
		c-0.244-0.117-0.366-0.316-0.366-0.599c0-0.154,0.108-0.319,0.327-0.5c0.219-0.18,0.571-0.526,1.06-1.041
		c0.437-0.412,0.783-0.712,1.04-0.905s0.5-0.29,0.731-0.29c0.154,0,0.359,0.117,0.617,0.348c0.257,0.229,0.552,0.5,0.884,0.808
		c0.335,0.308,0.695,0.63,1.08,0.962c0.386,0.334,0.782,0.604,1.193,0.809c0,0.283-0.024,0.495-0.076,0.637
		c-0.051,0.141-0.167,0.326-0.346,0.559c-0.257,0.307-0.463,0.539-0.616,0.693c-0.154,0.154-0.23,0.321-0.23,0.5v7.628L32.588,19.14
		z"/>
</g>
</svg>
