<?xml version="1.0" encoding="utf-8"?>
<!-- Generator: Adobe Illustrator 16.0.0, SVG Export Plug-In . SVG Version: 6.00 Build 0)  -->
<!DOCTYPE svg PUBLIC "-//W3C//DTD SVG 1.1//EN" "http://www.w3.org/Graphics/SVG/1.1/DTD/svg11.dtd">
<svg version="1.1" id="Layer_1" xmlns="http://www.w3.org/2000/svg" xmlns:xlink="http://www.w3.org/1999/xlink" x="0px" y="0px"
	 width="40.52px" height="26px" viewBox="-5.778 -1.853 40.52 26" enable-background="new -5.778 -1.853 40.52 26"
	 xml:space="preserve">
<g>
	<path fill="#222222" d="M18.221,16.559c-0.462,0.771-1.182,1.823-2.158,3.159c-1.874,2.62-3.042,3.929-3.505,3.929l-0.692,0.311
		c-0.644-0.077-1.163-0.122-1.562-0.137C9.905,23.807,9.527,23.8,9.168,23.8h0.039c-0.644-0.127-1.214-0.212-1.715-0.25
		c-0.501-0.039-1.06-0.077-1.677-0.116c-0.615-0.037-1.232-0.058-1.85-0.058c-0.334,0-0.668,0-1.001,0
		c-0.308,0-0.591,0.013-0.848,0.039L-5.2,24.146c-0.18,0-0.373-0.258-0.577-0.771c0.563-0.539,1.052-1.118,1.463-1.732
		c0.873-1.259,1.443-2.457,1.715-3.602c0.271-1.143,0.404-2.307,0.404-3.484c0-0.899-0.038-1.817-0.115-2.755
		s-0.115-1.907-0.115-2.91V6.275C-2.478,6.043-2.67,5.927-3.004,5.927l-0.501,0.117c-0.899,0-1.35-0.23-1.35-0.694
		c0-0.205,0.051-0.372,0.153-0.501c0.103-0.127,0.23-0.192,0.386-0.192c0.051,0,0.143,0.026,0.271,0.077
		c0.358,0,0.887-0.295,1.579-0.886c0.872-0.797,1.604-1.361,2.194-1.695c0.566-0.308,1.125-0.532,1.678-0.674
		c0.552-0.141,1.11-0.212,1.677-0.212L3.39,1.422c0.385,0,0.834-0.295,1.349-0.887C5.407-0.26,5.868-0.76,6.125-0.967
		C6.51-1.352,7.107-1.595,7.917-1.698c0.811-0.103,1.663-0.155,2.562-0.155c0.667,0,1.311,0.014,1.926,0.039
		c0.616,0.025,1.131,0.065,1.541,0.116c0.129,0.024,0.257,0.039,0.386,0.039c0.18,0,0.347,0,0.5,0c0.309,0,0.614-0.007,0.925-0.02
		c0.309-0.012,0.552-0.044,0.73-0.097c0.616,0,1.131,0.168,1.542,0.501C17.9-0.967,17.72-0.619,17.49-0.234
		c-0.231,0.384-0.502,0.822-0.81,1.309c-0.667,1.028-1.155,1.592-1.464,1.695c-1.285-0.256-2.312-0.467-3.083-0.635
		c-0.77-0.168-1.381-0.31-1.829-0.423C9.854,1.594,9.527,1.519,9.322,1.48C9.115,1.441,8.923,1.422,8.744,1.422
		c-0.181,0-0.303,0.212-0.367,0.635C8.313,2.48,8.281,3.064,8.281,3.81c0,0.462,0.025,0.989,0.077,1.579
		c0.05,0.591,0.089,1.207,0.115,1.849c0.05,0.925,0.141,1.49,0.271,1.694c0.229-0.925,0.938-1.694,2.117-2.31
		c0.976-0.564,1.898-0.848,2.772-0.848c0.41,0,0.905,0.096,1.483,0.29c0.576,0.192,1.136,0.48,1.676,0.866
		c0.538,0.385,1.007,0.873,1.406,1.464c0.397,0.591,0.622,1.295,0.674,2.118c0,0.23,0,0.474,0,0.731
		c0,0.207,0.007,0.481,0.021,0.828c0.014,0.348,0.021,0.753,0.021,1.214s0,1.04,0,1.732C18.913,15.275,18.682,15.79,18.221,16.559z
		 M15.197,12.9c-0.063-0.925-0.199-1.784-0.404-2.581c-0.129-0.643-0.412-1.104-0.849-1.387c-0.438-0.282-0.848-0.423-1.232-0.423
		c-0.771,0-1.458,0.173-2.062,0.521c-0.604,0.346-1.228,0.802-1.867,1.367H8.744c-0.052,0.052-0.098,0.392-0.137,1.021
		S8.55,12.939,8.55,14.095c0,0.311,0,0.645,0,1c0,0.335,0.013,0.656,0.038,0.964c-0.051-0.023-0.243,0.063-0.576,0.271
		c-0.335,0.206-0.707,0.438-1.117,0.692c-0.412,0.259-0.796,0.496-1.156,0.711c-0.36,0.222-0.604,0.344-0.73,0.367
		c-0.257,0-0.462-0.386-0.615-1.154c-0.052-0.258-0.091-0.502-0.115-0.732c-0.025-0.229-0.039-0.424-0.039-0.576
		c0.104-1.156,0.167-2.216,0.193-3.179C4.456,11.494,4.47,10.512,4.47,9.51V7.74c-0.053-0.514-0.086-1.047-0.098-1.6
		c-0.015-0.552-0.02-1.06-0.02-1.522c0-1.463-0.128-2.195-0.386-2.195c-0.976,0-1.649,0.212-2.021,0.636
		C1.573,3.482,1.388,4.144,1.388,5.042c0,1.104,0.037,2.337,0.115,3.698c0.077,1.361,0.115,2.632,0.115,3.812
		c0,0.104,0.006,0.315,0.02,0.636c0.013,0.32,0.021,0.688,0.021,1.097c0,0.438,0.006,0.896,0.021,1.369
		C1.691,16.128,1.7,16.585,1.7,17.02c0,0.334,0,0.655,0,0.963c0,0.283-0.014,0.539-0.039,0.771c0,0.309,0.03,0.562,0.097,0.77
		c0.063,0.205,0.146,0.387,0.251,0.541c0.052,0,0.091,0.008,0.115,0.021c0.024,0.017,0.063,0.021,0.115,0.021l4.354-0.693
		c0.616,0,1.271,0.033,1.966,0.097c0.691,0.064,1.374,0.148,2.041,0.251c0.667,0.104,1.295,0.258,1.887,0.463
		c0.591,0.207,1.092,0.449,1.501,0.731h0.579c0.487-1.797,0.731-3.491,0.731-5.084C15.292,14.814,15.261,13.824,15.197,12.9z"/>
	<path fill="#222222" d="M32.588,19.141c0.102,0.129,0.249,0.31,0.441,0.539c0.193,0.229,0.396,0.456,0.617,0.674
		c0.219,0.221,0.423,0.433,0.615,0.638c0.191,0.204,0.352,0.385,0.48,0.536c-0.13,0.156-0.238,0.277-0.328,0.367
		s-0.16,0.172-0.212,0.25c-0.052,0.076-0.122,0.162-0.213,0.25c-0.09,0.092-0.198,0.198-0.328,0.328
		c-0.386,0.41-0.653,0.719-0.809,0.924c-0.152,0.207-0.372,0.311-0.653,0.311c-0.438,0-0.829-0.155-1.177-0.463
		c-0.347-0.309-0.667-0.648-0.964-1.021c-0.293-0.371-0.537-0.714-0.729-1.021c-0.19-0.312-0.34-0.462-0.441-0.462
		c-0.232,0-0.528,0.168-0.888,0.502c-0.36,0.334-0.616,0.654-0.77,0.963c-0.053,0.127-0.092,0.281-0.115,0.461
		c-0.025,0.18-0.061,0.35-0.099,0.502s-0.104,0.287-0.191,0.402c-0.091,0.115-0.237,0.174-0.442,0.174s-0.462-0.115-0.771-0.348
		c-0.309-0.229-0.699-0.485-1.174-0.77c-0.478-0.283-1.034-0.547-1.677-0.791c-0.643-0.243-1.398-0.366-2.273-0.366
		c-0.104,0-0.255-0.114-0.461-0.347c-0.206-0.23-0.31-0.436-0.31-0.615c0-0.179,0.099-0.314,0.289-0.404
		c0.193-0.09,0.367-0.197,0.521-0.328c0.153-0.151,0.295-0.268,0.424-0.346c0.129-0.076,0.237-0.168,0.327-0.271
		c0.091-0.103,0.159-0.229,0.213-0.386c0.051-0.152,0.076-0.385,0.076-0.692v-7.087c-0.025-0.127-0.129-0.281-0.31-0.462
		c-0.179-0.178-0.378-0.365-0.597-0.559c-0.22-0.192-0.412-0.377-0.579-0.559c-0.167-0.18-0.249-0.334-0.249-0.462
		c0-0.154,0.103-0.372,0.31-0.656c0.205-0.282,0.461-0.615,0.771-1c0.229-0.333,0.552-0.649,0.963-0.945
		c0.411-0.295,0.72-0.443,0.924-0.443c0.104,0,0.341,0.122,0.714,0.365c0.37,0.245,0.771,0.52,1.192,0.829
		c0.424,0.308,0.803,0.628,1.138,0.962c0.332,0.333,0.501,0.553,0.501,0.656c0,0.206-0.062,0.372-0.192,0.501
		C26.024,9.6,25.89,9.735,25.749,9.876c-0.143,0.141-0.275,0.315-0.404,0.519c-0.129,0.207-0.191,0.438-0.191,0.694v7.626
		c0,0.206,0.097,0.373,0.289,0.501c0.19,0.129,0.404,0.259,0.637,0.386c0.205,0.129,0.447,0.271,0.73,0.422
		c0.281,0.156,0.501,0.232,0.653,0.232c0.053,0,0.146-0.07,0.289-0.213c0.143-0.141,0.29-0.301,0.442-0.48
		c0.155-0.179,0.282-0.358,0.386-0.539c0.104-0.18,0.153-0.334,0.153-0.461v-7.552c0-0.127-0.075-0.308-0.23-0.539
		c-0.151-0.231-0.397-0.501-0.73-0.808c-0.181-0.155-0.393-0.29-0.635-0.404c-0.244-0.117-0.366-0.316-0.366-0.599
		c0-0.154,0.107-0.319,0.327-0.5c0.219-0.18,0.57-0.526,1.061-1.041c0.438-0.412,0.782-0.712,1.04-0.905
		c0.257-0.193,0.5-0.29,0.73-0.29c0.153,0,0.358,0.117,0.616,0.348c0.258,0.229,0.553,0.5,0.885,0.808
		c0.335,0.308,0.694,0.63,1.079,0.962c0.387,0.334,0.782,0.604,1.193,0.809c0,0.283-0.023,0.495-0.076,0.637
		c-0.051,0.141-0.167,0.326-0.346,0.559c-0.258,0.307-0.464,0.539-0.616,0.693c-0.153,0.154-0.229,0.321-0.229,0.5v7.628
		L32.588,19.141z"/>
</g>
</svg>
