<?xml version="1.0" encoding="utf-8"?>
<!-- Generator: Adobe Illustrator 16.0.0, SVG Export Plug-In . SVG Version: 6.00 Build 0)  -->
<!DOCTYPE svg PUBLIC "-//W3C//DTD SVG 1.1 Tiny//EN" "http://www.w3.org/Graphics/SVG/1.1/DTD/svg11-tiny.dtd">
<svg version="1.1" baseProfile="tiny" id="Layer_1" xmlns="http://www.w3.org/2000/svg" xmlns:xlink="http://www.w3.org/1999/xlink"
	 x="0px" y="0px" width="39.186px" height="26.218px" viewBox="0 0 39.186 26.218" xml:space="preserve">
<g>
	<path d="M20.37,0.01c0.336-0.056,0.518,0.112,0.546,0.504c0.028,0.504,0.154,0.798,0.378,0.882
		c-0.532,3.416-1.078,6.818-1.638,10.206c-0.561,3.977-0.84,7.434-0.84,10.374c0,1.289,0.042,2.52,0.126,3.696
		c-0.196,0.363-0.406,0.546-0.63,0.546s-0.462-0.183-0.714-0.546c0-0.225,0.014-2.198,0.042-5.922c0-2.352,0.126-4.312,0.378-5.88
		c-1.708-0.363-3.99-0.63-6.846-0.798c-3.78-0.252-6.132-0.434-7.056-0.546c-0.364,1.176-0.63,2.534-0.798,4.074
		c-0.28,2.325-0.462,3.71-0.546,4.158C2.66,20.73,2.534,20.8,2.394,20.968S2.128,21.22,2.016,21.22c-0.056,0-0.126-0.027-0.21-0.084
		v-8.19c-0.112-0.112-0.477-0.252-1.092-0.42C0.238,12.387,0,12.176,0,11.896c0-0.168,0.056-0.364,0.168-0.588
		c1.064-0.363,1.848-1.134,2.352-2.31c0.056-0.111,0.378-1.26,0.966-3.444c0.363-1.372,0.896-2.352,1.596-2.94
		C5.894,2.923,6.3,3.314,6.3,3.79c0,0.364-0.393,1.05-1.176,2.058C4.34,6.856,4.004,7.654,4.116,8.242
		c0.027,0.112,0.042,0.225,0.042,0.336c0,0.141-0.063,0.336-0.189,0.588C3.843,9.418,3.78,9.628,3.78,9.796s0.063,0.35,0.189,0.546
		c0.126,0.196,0.273,0.378,0.441,0.546c1.26,0,3.115,0.147,5.565,0.441c2.45,0.294,4.249,0.441,5.397,0.441
		c1.064,0,2.03-0.084,2.898-0.252C18.382,7.626,19.082,3.79,20.37,0.01z"/>
	<path d="M25.032,14.962c0.98-1.959,2.436-3.549,4.368-4.767c1.932-1.218,3.877-1.827,5.838-1.827c1.4,0,2.646,0.322,3.738,0.966
		c0.14,0.308,0.21,0.588,0.21,0.84c0,0.42-0.322,0.875-0.966,1.365c-0.645,0.49-0.98,0.974-1.008,1.449
		c-0.477,1.288-0.938,2.59-1.386,3.906c-0.477,1.512-0.714,2.884-0.714,4.116c0,0.645,0.056,1.274,0.168,1.89
		c0.447,0.084,0.987-0.133,1.617-0.651c0.63-0.518,1.197-0.777,1.701-0.777c0.056,0.168,0.084,0.336,0.084,0.504
		c0,0.588-0.364,1.205-1.092,1.848c-0.588,0.448-1.176,0.896-1.764,1.344c-0.141,0.027-0.294,0.042-0.462,0.042
		c-0.756,0-1.442-0.378-2.058-1.134c0-1.484,0.182-3.262,0.546-5.334c0.28-1.652,0.574-3.29,0.882-4.914
		c-0.84,0.588-2.632,2.17-5.376,4.746c-2.184,2.072-4.089,3.444-5.712,4.116c-0.224-0.448-0.336-0.966-0.336-1.554
		c0-0.756,0.238-1.792,0.714-3.108C24.612,16.348,24.948,15.327,25.032,14.962z M35.28,10.972c-0.057-0.56-0.351-0.84-0.882-0.84
		c-0.42,0-1.037,0.196-1.848,0.588c-0.616,0.28-1.218,0.561-1.806,0.84c-1.344,0.924-2.499,2.1-3.465,3.528
		c-0.966,1.428-1.589,2.884-1.869,4.368c1.456-0.924,3.164-2.295,5.124-4.116C33.614,12.484,35.196,11.029,35.28,10.972z"/>
</g>
</svg>
