<?xml version="1.0" encoding="utf-8"?>
<!-- Generator: Adobe Illustrator 16.0.0, SVG Export Plug-In . SVG Version: 6.00 Build 0)  -->
<!DOCTYPE svg PUBLIC "-//W3C//DTD SVG 1.1//EN" "http://www.w3.org/Graphics/SVG/1.1/DTD/svg11.dtd">
<svg version="1.1" id="Layer_1" xmlns="http://www.w3.org/2000/svg" xmlns:xlink="http://www.w3.org/1999/xlink" x="0px" y="0px"
	 width="38.856px" height="26px" viewBox="0.164 0.109 38.856 26" enable-background="new 0.164 0.109 38.856 26"
	 xml:space="preserve">
<g>
	<path fill="#222222" d="M20.364,0.119c0.333-0.055,0.514,0.111,0.542,0.5c0.024,0.5,0.149,0.792,0.374,0.875
		c-0.527,3.388-1.068,6.761-1.626,10.121c-0.556,3.944-0.833,7.372-0.833,10.287c0,1.278,0.042,2.499,0.125,3.665
		c-0.192,0.359-0.4,0.542-0.625,0.542c-0.222,0-0.458-0.183-0.708-0.542c0-0.225,0.014-2.18,0.042-5.873
		c0-2.334,0.125-4.276,0.375-5.83c-1.694-0.362-3.957-0.625-6.789-0.792c-3.749-0.25-6.081-0.43-6.997-0.542
		c-0.36,1.167-0.626,2.513-0.792,4.04c-0.275,2.306-0.458,3.679-0.541,4.123c-0.108-0.027-0.233,0.042-0.373,0.209
		c-0.138,0.166-0.263,0.25-0.375,0.25c-0.055,0-0.125-0.027-0.208-0.084v-8.122c-0.111-0.111-0.473-0.25-1.083-0.417
		c-0.473-0.138-0.708-0.347-0.708-0.625c0-0.167,0.055-0.361,0.167-0.583c1.053-0.36,1.833-1.125,2.332-2.291
		c0.058-0.11,0.375-1.25,0.958-3.415c0.36-1.36,0.889-2.333,1.585-2.916c0.803,0.306,1.206,0.694,1.206,1.166
		c0,0.361-0.389,1.041-1.166,2.041c-0.777,1-1.11,1.791-0.999,2.374C4.27,8.394,4.287,8.505,4.287,8.616
		c0,0.14-0.063,0.333-0.188,0.583c-0.125,0.25-0.188,0.458-0.188,0.625s0.063,0.347,0.188,0.541
		c0.125,0.195,0.271,0.375,0.438,0.542c1.249,0,3.086,0.146,5.516,0.437c2.43,0.292,4.213,0.438,5.352,0.438
		c1.053,0,2.011-0.083,2.872-0.25C18.392,7.672,19.087,3.868,20.364,0.119z"/>
	<path fill="#222222" d="M24.987,14.947c0.971-1.943,2.416-3.52,4.329-4.729c1.919-1.208,3.845-1.812,5.789-1.812
		c1.389,0,2.625,0.319,3.707,0.958c0.142,0.305,0.208,0.583,0.208,0.833c0,0.417-0.319,0.868-0.957,1.354
		c-0.64,0.486-0.972,0.965-1,1.437c-0.476,1.277-0.931,2.57-1.374,3.874c-0.476,1.5-0.711,2.859-0.711,4.078
		c0,0.642,0.059,1.266,0.167,1.877c0.443,0.084,0.979-0.132,1.604-0.643c0.625-0.517,1.188-0.771,1.688-0.771
		c0.055,0.167,0.083,0.334,0.083,0.5c0,0.583-0.361,1.195-1.083,1.832c-0.583,0.445-1.166,0.89-1.75,1.333
		c-0.142,0.027-0.292,0.043-0.46,0.043c-0.749,0-1.428-0.376-2.04-1.126c0-1.472,0.18-3.234,0.541-5.289
		c0.278-1.639,0.569-3.262,0.875-4.873c-0.833,0.583-2.61,2.151-5.331,4.706c-2.166,2.056-4.055,3.416-5.665,4.082
		c-0.222-0.444-0.333-0.958-0.333-1.541c0-0.749,0.236-1.777,0.708-3.082C24.57,16.321,24.904,15.309,24.987,14.947z M35.149,10.99
		c-0.057-0.556-0.348-0.833-0.875-0.833c-0.416,0-1.028,0.195-1.832,0.583c-0.611,0.277-1.207,0.557-1.79,0.833
		c-1.336,0.917-2.479,2.082-3.439,3.498c-0.957,1.417-1.575,2.86-1.851,4.333c1.444-0.916,3.138-2.276,5.081-4.083
		C33.496,12.489,35.066,11.046,35.149,10.99z"/>
</g>
</svg>
