<?xml version="1.0" encoding="utf-8"?>
<!-- Generator: Adobe Illustrator 16.0.0, SVG Export Plug-In . SVG Version: 6.00 Build 0)  -->
<!DOCTYPE svg PUBLIC "-//W3C//DTD SVG 1.1//EN" "http://www.w3.org/Graphics/SVG/1.1/DTD/svg11.dtd">
<svg version="1.1" id="Layer_1" xmlns="http://www.w3.org/2000/svg" xmlns:xlink="http://www.w3.org/1999/xlink" x="0px" y="0px"
	 width="39.186px" height="26.218px" viewBox="0 0 39.186 26.218" enable-background="new 0 0 39.186 26.218" xml:space="preserve">
<g>
	<path fill="#222222" d="M20.37,0.01c0.336-0.056,0.518,0.112,0.546,0.504c0.026,0.504,0.152,0.798,0.378,0.882
		c-0.532,3.416-1.078,6.818-1.64,10.206c-0.561,3.978-0.84,7.435-0.84,10.374c0,1.289,0.042,2.52,0.126,3.695
		c-0.194,0.363-0.404,0.547-0.63,0.547c-0.224,0-0.462-0.184-0.714-0.547c0-0.226,0.014-2.197,0.042-5.922
		c0-2.353,0.126-4.312,0.378-5.879c-1.708-0.365-3.99-0.63-6.846-0.798c-3.78-0.252-6.132-0.434-7.056-0.546
		c-0.363,1.177-0.63,2.534-0.798,4.074c-0.278,2.325-0.462,3.71-0.546,4.157C2.66,20.73,2.534,20.8,2.394,20.968
		c-0.14,0.168-0.266,0.252-0.378,0.252c-0.056,0-0.126-0.027-0.21-0.084v-8.19c-0.112-0.112-0.477-0.252-1.092-0.42
		C0.238,12.387,0,12.176,0,11.896c0-0.168,0.056-0.364,0.168-0.588c1.062-0.363,1.848-1.134,2.352-2.31
		c0.058-0.111,0.378-1.26,0.966-3.444c0.363-1.372,0.896-2.352,1.598-2.94C5.894,2.923,6.3,3.314,6.3,3.79
		c0,0.364-0.393,1.05-1.176,2.058C4.34,6.856,4.004,7.654,4.116,8.242c0.025,0.112,0.042,0.225,0.042,0.336
		c0,0.141-0.063,0.336-0.189,0.588S3.78,9.628,3.78,9.796s0.063,0.35,0.189,0.546c0.126,0.196,0.273,0.378,0.441,0.546
		c1.26,0,3.113,0.147,5.563,0.441s4.249,0.441,5.397,0.441c1.062,0,2.028-0.084,2.896-0.252C18.382,7.626,19.082,3.79,20.37,0.01z"
		/>
	<path fill="#222222" d="M25.032,14.962c0.979-1.959,2.436-3.549,4.366-4.769c1.934-1.218,3.877-1.827,5.838-1.827
		c1.4,0,2.646,0.322,3.738,0.966c0.142,0.308,0.21,0.588,0.21,0.84c0,0.42-0.322,0.875-0.966,1.365
		c-0.645,0.49-0.979,0.974-1.008,1.449c-0.479,1.288-0.938,2.591-1.386,3.906c-0.479,1.513-0.716,2.884-0.716,4.114
		c0,0.646,0.058,1.275,0.168,1.892c0.447,0.084,0.987-0.133,1.617-0.649c0.63-0.52,1.197-0.777,1.701-0.777
		c0.056,0.168,0.084,0.336,0.084,0.504c0,0.588-0.364,1.205-1.092,1.848c-0.588,0.448-1.176,0.896-1.764,1.344
		c-0.143,0.027-0.295,0.043-0.464,0.043c-0.756,0-1.44-0.379-2.058-1.135c0-1.484,0.182-3.262,0.546-5.334
		c0.28-1.652,0.574-3.289,0.882-4.914c-0.84,0.588-2.632,2.17-5.376,4.746c-2.184,2.072-4.089,3.444-5.712,4.116
		c-0.224-0.448-0.336-0.966-0.336-1.554c0-0.756,0.238-1.793,0.714-3.108C24.612,16.348,24.948,15.328,25.032,14.962z M35.28,10.972
		c-0.057-0.56-0.351-0.84-0.882-0.84c-0.42,0-1.037,0.196-1.848,0.588c-0.616,0.28-1.218,0.562-1.806,0.84
		c-1.346,0.924-2.499,2.1-3.467,3.527c-0.966,1.429-1.589,2.885-1.867,4.369c1.456-0.924,3.164-2.295,5.124-4.117
		C33.614,12.484,35.196,11.029,35.28,10.972z"/>
</g>
</svg>
