<?xml version="1.0" encoding="utf-8"?>
<!-- Generator: Adobe Illustrator 16.0.0, SVG Export Plug-In . SVG Version: 6.00 Build 0)  -->
<!DOCTYPE svg PUBLIC "-//W3C//DTD SVG 1.1//EN" "http://www.w3.org/Graphics/SVG/1.1/DTD/svg11.dtd">
<svg version="1.1" id="Layer_1" xmlns="http://www.w3.org/2000/svg" xmlns:xlink="http://www.w3.org/1999/xlink" x="0px" y="0px"
	 width="19.036px" height="26px" viewBox="-0.122 -0.167 19.036 26" enable-background="new -0.122 -0.167 19.036 26"
	 xml:space="preserve">
<g>
	<path fill="#222222" d="M7.171,25.832H0.607c-0.438,0-0.729-0.362-0.729-0.766v-0.802c0-0.4,0.292-0.767,0.729-0.767h1.823V3.735
		H0.607c-0.438,0-0.729-0.365-0.729-0.766V2.167c0-0.401,0.292-0.766,0.729-0.766h6.563c0.437,0,0.729,0.365,0.729,0.766V2.97
		c0,0.401-0.292,0.766-0.729,0.766H5.347v19.763h1.824c0.437,0,0.729,0.365,0.729,0.766v0.804C7.9,25.467,7.608,25.832,7.171,25.832
		z"/>
	<path fill="#222222" d="M18.584,2.386c-0.11,0.364-0.438,0.51-0.838,0.401c-0.366-0.109-1.095-0.401-1.569-0.401
		c-0.766,0-1.276,0.401-1.276,1.714v4.157h2.808c0.4,0,0.729,0.363,0.729,0.766v0.803c0,0.401-0.328,0.766-0.729,0.766H14.9v14.512
		c0,0.401-0.363,0.73-0.766,0.73h-1.313c-0.364,0-0.766-0.329-0.766-0.73V10.59h-2.005c-0.438,0-0.73-0.365-0.73-0.766V9.022
		c0-0.401,0.292-0.766,0.73-0.766h2.005V3.991c0.002-3.027,1.68-4.157,3.975-4.157c0.584,0,1.861,0.328,2.443,0.583
		c0.4,0.182,0.511,0.583,0.4,0.984L18.584,2.386z"/>
</g>
</svg>
