<?xml version="1.0" encoding="utf-8"?>
<!-- Generator: Adobe Illustrator 16.0.0, SVG Export Plug-In . SVG Version: 6.00 Build 0)  -->
<!DOCTYPE svg PUBLIC "-//W3C//DTD SVG 1.1//EN" "http://www.w3.org/Graphics/SVG/1.1/DTD/svg11.dtd">
<svg version="1.1" id="Layer_1" xmlns="http://www.w3.org/2000/svg" xmlns:xlink="http://www.w3.org/1999/xlink" x="0px" y="0px"
	 width="18.793px" height="25.665px" viewBox="0 0 18.793 25.665" enable-background="new 0 0 18.793 25.665" xml:space="preserve">
<g>
	<path fill="#222222" d="M7.199,25.665H0.72c-0.432,0-0.72-0.358-0.72-0.756v-0.791c0-0.396,0.288-0.757,0.72-0.757h1.8V3.852h-1.8
		C0.288,3.852,0,3.492,0,3.096V2.304c0-0.396,0.288-0.756,0.72-0.756h6.479c0.432,0,0.72,0.36,0.72,0.756v0.792
		c0,0.396-0.288,0.756-0.72,0.756h-1.8v19.51h1.8c0.432,0,0.72,0.36,0.72,0.756v0.793C7.919,25.305,7.631,25.665,7.199,25.665z"/>
	<path fill="#222222" d="M18.466,2.52c-0.108,0.36-0.432,0.504-0.827,0.396c-0.361-0.108-1.08-0.396-1.549-0.396
		c-0.756,0-1.26,0.396-1.26,1.692v4.104h2.771c0.396,0,0.719,0.359,0.719,0.756v0.792c0,0.396-0.323,0.756-0.719,0.756H14.83v14.326
		c0,0.396-0.359,0.721-0.756,0.721h-1.297c-0.359,0-0.756-0.324-0.756-0.721V10.619h-1.979c-0.432,0-0.72-0.36-0.72-0.756V9.071
		c0-0.396,0.288-0.756,0.72-0.756h1.979V4.104C12.023,1.116,13.68,0,15.945,0c0.576,0,1.837,0.324,2.412,0.576
		c0.396,0.18,0.504,0.576,0.396,0.972L18.466,2.52z"/>
</g>
</svg>
