<?xml version="1.0" encoding="utf-8"?>
<!-- Generator: Adobe Illustrator 16.0.0, SVG Export Plug-In . SVG Version: 6.00 Build 0)  -->
<!DOCTYPE svg PUBLIC "-//W3C//DTD SVG 1.1//EN" "http://www.w3.org/Graphics/SVG/1.1/DTD/svg11.dtd">
<svg version="1.1" id="Layer_1" xmlns="http://www.w3.org/2000/svg" xmlns:xlink="http://www.w3.org/1999/xlink" x="0px" y="0px"
	 width="25.164px" height="25.2px" viewBox="0 0 25.164 25.2" enable-background="new 0 0 25.164 25.2" xml:space="preserve">
<g>
	<path d="M0,25.2V0h3.744v25.2H0z"/>
	<path d="M21.42,25.2V14.532c0-1.915-0.339-3.256-1.017-4.022c-0.678-0.766-1.623-1.149-2.835-1.149
		c-1.236,0-2.188,0.419-2.854,1.257c-0.666,0.838-0.999,2.024-0.999,3.556V25.2H9.972V6.323h3.744l-0.036,1.8
		c0.48-0.703,1.146-1.249,1.998-1.637c0.852-0.388,1.77-0.582,2.754-0.582c2.208,0,3.882,0.708,5.022,2.124
		c1.14,1.416,1.71,3.528,1.71,6.336V25.2H21.42z"/>
</g>
</svg>
