<?xml version="1.0" encoding="utf-8"?>
<!-- Generator: Adobe Illustrator 16.0.0, SVG Export Plug-In . SVG Version: 6.00 Build 0)  -->
<!DOCTYPE svg PUBLIC "-//W3C//DTD SVG 1.1//EN" "http://www.w3.org/Graphics/SVG/1.1/DTD/svg11.dtd">
<svg version="1.1" id="Layer_1" xmlns="http://www.w3.org/2000/svg" xmlns:xlink="http://www.w3.org/1999/xlink" x="0px" y="0px"
	 width="25.963px" height="26px" viewBox="-0.399 -0.4 25.963 26" enable-background="new -0.399 -0.4 25.963 26"
	 xml:space="preserve">
<g>
	<path fill="#222222" d="M-0.399,25.6v-26h3.863v26H-0.399z"/>
	<path fill="#222222" d="M21.7,25.6V14.593c0-1.976-0.35-3.359-1.05-4.15c-0.699-0.79-1.674-1.186-2.924-1.186
		c-1.275,0-2.258,0.433-2.945,1.297c-0.687,0.865-1.03,2.088-1.03,3.669V25.6H9.889V6.124h3.863l-0.037,1.857
		c0.495-0.726,1.183-1.289,2.062-1.689c0.878-0.4,1.827-0.601,2.841-0.601c2.279,0,4.006,0.731,5.183,2.192
		c1.175,1.461,1.764,3.64,1.764,6.537V25.6H21.7z"/>
</g>
</svg>
