<?xml version="1.0" encoding="utf-8"?>
<!-- Generator: Adobe Illustrator 16.0.0, SVG Export Plug-In . SVG Version: 6.00 Build 0)  -->
<!DOCTYPE svg PUBLIC "-//W3C//DTD SVG 1.1 Tiny//EN" "http://www.w3.org/Graphics/SVG/1.1/DTD/svg11-tiny.dtd">
<svg version="1.1" baseProfile="tiny" id="Layer_1" xmlns="http://www.w3.org/2000/svg" xmlns:xlink="http://www.w3.org/1999/xlink"
	 x="0px" y="0px" width="32px" height="24.161px" viewBox="0 0 32 24.161" xml:space="preserve">
<g>
	<path fill="#FFFFFF" d="M32,14.61c-0.156-1.025-0.231-2.072-0.485-3.074c-0.8-3.168-2.705-5.378-5.954-6.102
		c-3.637-0.808-6.862-0.022-9.06,3.214c-2.032,2.995-2.113,6.318-1.097,9.686c1.975,6.542,9.463,7.04,13.137,4.126
		C31.062,20.46,31.888,17.715,32,14.61z M5.965,23.608c0,0.002,0,0.003,0,0.004c1.73,0,3.46,0.012,5.189-0.014
		c0.255-0.003,0.648-0.114,0.741-0.297c0.484-0.954-0.063-1.822-1.096-1.824c-2.2-0.005-2.942-0.743-2.947-2.971
		c-0.009-2.833,0-5.667,0.001-8.5c0.001-1.76-0.021-3.52,0.012-5.279c0.033-1.742,0.799-2.488,2.537-2.55
		c0.298-0.011,0.597-0.01,0.895-0.001c0.769,0.023,0.669-0.539,0.639-0.997c-0.032-0.47,0.284-1.176-0.634-1.176
		C7.782,0,4.263-0.004,0.744,0.013c-0.198,0-0.504,0.126-0.576,0.28c-0.47,0.99,0.09,1.877,1.149,1.886
		C3.502,2.195,4.286,2.972,4.29,5.155c0.006,4.235,0.01,8.471-0.003,12.706c-0.008,2.778-0.5,3.675-3.418,3.62
		c-1.113-0.021-0.64,0.829-0.74,1.355c-0.111,0.581,0.143,0.792,0.735,0.782C2.563,23.59,4.265,23.608,5.965,23.608z"/>
	<path fill-rule="evenodd" d="M32,14.61c-0.112,3.104-0.938,5.85-3.459,7.851c-3.674,2.914-11.162,2.417-13.137-4.126
		c-1.017-3.368-0.936-6.691,1.097-9.686c2.197-3.236,5.423-4.021,9.06-3.214c3.249,0.723,5.154,2.933,5.954,6.102
		C31.769,12.538,31.844,13.585,32,14.61z M18.329,14.375c0.235,1.655,0.356,3.051,0.647,4.411c0.451,2.109,1.954,3.397,3.943,3.541
		c2.184,0.159,3.776-0.741,4.504-2.88c1.086-3.188,1.084-6.457-0.02-9.646c-0.677-1.956-2.126-2.856-4.093-2.864
		c-1.951-0.007-3.42,0.903-4.059,2.879C18.759,11.352,18.596,12.995,18.329,14.375z"/>
	<path fill-rule="evenodd" d="M5.965,23.608c-1.7,0-3.401-0.018-5.101,0.01c-0.593,0.01-0.847-0.202-0.735-0.782
		c0.101-0.526-0.373-1.376,0.74-1.355c2.918,0.055,3.41-0.842,3.418-3.62C4.3,13.626,4.296,9.391,4.29,5.155
		c-0.004-2.183-0.788-2.96-2.973-2.977C0.258,2.17-0.302,1.283,0.168,0.293c0.072-0.154,0.378-0.28,0.576-0.28
		C4.263-0.004,7.782,0,11.302,0.002c0.918,0,0.602,0.707,0.634,1.176c0.03,0.458,0.13,1.021-0.639,0.997
		c-0.298-0.009-0.597-0.009-0.895,0.001C8.664,2.24,7.898,2.985,7.865,4.728c-0.032,1.759-0.011,3.52-0.012,5.279
		c-0.001,2.833-0.01,5.667-0.001,8.5c0.005,2.228,0.747,2.966,2.947,2.971c1.032,0.002,1.58,0.87,1.096,1.824
		c-0.093,0.183-0.486,0.294-0.741,0.297c-1.729,0.025-3.459,0.014-5.189,0.014C5.965,23.611,5.965,23.61,5.965,23.608z"/>
	<path fill-rule="evenodd" fill="#FFFFFF" d="M18.329,14.375c0.267-1.38,0.43-3.023,0.924-4.56c0.639-1.976,2.107-2.886,4.059-2.879
		c1.967,0.008,3.416,0.909,4.093,2.864c1.104,3.188,1.105,6.458,0.02,9.646c-0.728,2.139-2.32,3.039-4.504,2.88
		c-1.989-0.143-3.492-1.431-3.943-3.541C18.686,17.426,18.564,16.03,18.329,14.375z"/>
</g>
</svg>
