<?xml version="1.0" encoding="utf-8"?>
<!-- Generator: Adobe Illustrator 16.0.0, SVG Export Plug-In . SVG Version: 6.00 Build 0)  -->
<!DOCTYPE svg PUBLIC "-//W3C//DTD SVG 1.1 Tiny//EN" "http://www.w3.org/Graphics/SVG/1.1/DTD/svg11-tiny.dtd">
<svg version="1.1" baseProfile="tiny" id="Layer_1" xmlns="http://www.w3.org/2000/svg" xmlns:xlink="http://www.w3.org/1999/xlink"
	 x="0px" y="0px" width="32px" height="24.161px" viewBox="0 0 32 24.161" xml:space="preserve">
<g>
	<path fill="#FFFFFF" d="M5.965,23.608c0,0.002,0,0.003,0,0.004c1.73,0,3.46,0.012,5.189-0.014c0.255-0.004,0.648-0.114,0.741-0.297
		c0.484-0.954-0.063-1.822-1.096-1.824c-2.2-0.005-2.942-0.743-2.947-2.971c-0.009-2.834,0-5.668,0.001-8.5
		c0.001-1.76-0.021-3.52,0.012-5.279c0.033-1.742,0.799-2.488,2.537-2.55c0.298-0.011,0.597-0.01,0.895-0.001
		c0.769,0.023,0.669-0.539,0.639-0.997c-0.032-0.47,0.284-1.176-0.634-1.176C7.782,0,4.263-0.004,0.744,0.013
		c-0.198,0-0.504,0.126-0.576,0.28c-0.47,0.99,0.09,1.877,1.149,1.886C3.502,2.195,4.286,2.972,4.29,5.155
		c0.006,4.235,0.01,8.47-0.003,12.706c-0.008,2.778-0.5,3.675-3.418,3.62c-1.113-0.021-0.64,0.829-0.74,1.355
		c-0.111,0.58,0.143,0.791,0.735,0.781C2.563,23.59,4.265,23.608,5.965,23.608z"/>
	<path d="M32,14.61c-0.111,3.104-0.938,5.85-3.459,7.852c-3.674,2.914-11.162,2.416-13.137-4.127
		c-1.017-3.367-0.936-6.69,1.097-9.686c2.197-3.236,5.423-4.021,9.06-3.214c3.25,0.723,5.154,2.933,5.955,6.102
		C31.77,12.538,31.844,13.584,32,14.61z M18.329,14.375c0.235,1.654,0.356,3.051,0.647,4.41c0.45,2.109,1.953,3.397,3.942,3.541
		c2.185,0.159,3.776-0.74,4.504-2.879c1.086-3.189,1.084-6.457-0.021-9.647c-0.676-1.956-2.125-2.856-4.092-2.864
		c-1.951-0.007-3.42,0.903-4.06,2.879C18.759,11.352,18.596,12.995,18.329,14.375z"/>
	<path d="M5.965,23.608c-1.7,0-3.401-0.018-5.101,0.01c-0.593,0.01-0.847-0.201-0.735-0.781c0.101-0.526-0.373-1.377,0.74-1.355
		c2.918,0.055,3.41-0.842,3.418-3.62C4.3,13.625,4.296,9.391,4.29,5.155c-0.004-2.183-0.788-2.96-2.973-2.978
		C0.258,2.17-0.302,1.283,0.168,0.293c0.072-0.154,0.378-0.28,0.576-0.28C4.263-0.004,7.782,0,11.302,0.002
		c0.918,0,0.602,0.707,0.634,1.176c0.03,0.458,0.13,1.021-0.639,0.997c-0.298-0.009-0.597-0.009-0.895,0.001
		C8.664,2.24,7.898,2.985,7.865,4.728c-0.032,1.759-0.011,3.52-0.012,5.279c-0.001,2.833-0.01,5.667-0.001,8.5
		c0.005,2.229,0.747,2.967,2.947,2.972c1.032,0.002,1.58,0.87,1.096,1.823c-0.093,0.184-0.486,0.295-0.741,0.298
		c-1.729,0.024-3.459,0.014-5.189,0.014C5.965,23.611,5.965,23.61,5.965,23.608z"/>
</g>
</svg>
