<?xml version="1.0" encoding="utf-8"?>
<!-- Generator: Adobe Illustrator 16.0.0, SVG Export Plug-In . SVG Version: 6.00 Build 0)  -->
<!DOCTYPE svg PUBLIC "-//W3C//DTD SVG 1.1//EN" "http://www.w3.org/Graphics/SVG/1.1/DTD/svg11.dtd">
<svg version="1.1" id="Layer_1" xmlns="http://www.w3.org/2000/svg" xmlns:xlink="http://www.w3.org/1999/xlink" x="0px" y="0px"
	 width="34.435px" height="26px" viewBox="-1.217 -0.919 34.435 26" enable-background="new -1.217 -0.919 34.435 26"
	 xml:space="preserve">
<g>
	<path fill="#222222" d="M5.201,24.485c0,0.002,0,0.003,0,0.005c1.862,0,3.723,0.012,5.584-0.016
		c0.275-0.004,0.697-0.122,0.797-0.319c0.521-1.026-0.068-1.961-1.18-1.963c-2.367-0.005-3.166-0.8-3.171-3.196
		c-0.01-3.05,0-6.1,0.001-9.147C7.234,7.954,7.21,6.06,7.246,4.167c0.035-1.875,0.86-2.677,2.73-2.744
		c0.321-0.012,0.643-0.011,0.963-0.001c0.828,0.025,0.72-0.58,0.688-1.072c-0.035-0.506,0.306-1.266-0.683-1.266
		C7.157-0.919,3.37-0.923-0.417-0.905c-0.213,0-0.542,0.136-0.62,0.301C-1.542,0.461-0.94,1.416,0.2,1.426
		c2.351,0.017,3.195,0.853,3.199,3.202C3.405,9.186,3.41,13.743,3.396,18.3c-0.009,2.99-0.538,3.955-3.678,3.896
		c-1.198-0.022-0.689,0.893-0.796,1.459c-0.12,0.624,0.154,0.852,0.791,0.841C1.541,24.466,3.372,24.485,5.201,24.485z"/>
	<path fill="#222222" d="M33.218,14.802c-0.12,3.34-1.009,6.295-3.723,8.449c-3.953,3.136-12.012,2.6-14.137-4.441
		c-1.094-3.623-1.007-7.196,1.181-10.422c2.364-3.482,5.836-4.327,9.749-3.458c3.497,0.778,5.547,3.156,6.408,6.566
		C32.97,12.573,33.05,13.699,33.218,14.802z M18.506,14.55c0.254,1.776,0.384,3.283,0.697,4.745
		c0.481,2.268,2.102,3.654,4.239,3.811c2.354,0.169,4.061-0.796,4.847-3.099c1.168-3.431,1.166-6.947-0.023-10.383
		c-0.727-2.105-2.286-3.073-4.403-3.082c-2.1-0.008-3.68,0.972-4.369,3.098C18.969,11.296,18.793,13.064,18.506,14.55z"/>
	<path fill="#222222" d="M5.201,24.485c-1.829,0-3.66-0.019-5.489,0.011c-0.638,0.011-0.912-0.217-0.791-0.841
		c0.108-0.563-0.402-1.481,0.796-1.456c3.14,0.061,3.669-0.906,3.678-3.896C3.41,13.743,3.405,9.187,3.399,4.628
		C3.395,2.279,2.551,1.442,0.2,1.422c-1.14-0.006-1.742-0.96-1.236-2.026c0.078-0.166,0.407-0.301,0.62-0.301
		C3.37-0.923,7.157-0.919,10.944-0.917c0.988,0,0.648,0.761,0.683,1.266c0.032,0.492,0.14,1.099-0.688,1.072
		c-0.32-0.009-0.642-0.009-0.963,0.001c-1.87,0.069-2.695,0.871-2.73,2.747C7.211,6.061,7.234,7.957,7.233,9.849
		c-0.001,3.049-0.011,6.099-0.001,9.146c0.005,2.398,0.804,3.195,3.171,3.2c1.111,0.003,1.701,0.937,1.18,1.959
		c-0.1,0.201-0.522,0.321-0.797,0.324c-1.861,0.022-3.722,0.017-5.584,0.017C5.201,24.488,5.201,24.487,5.201,24.485z"/>
</g>
</svg>
