<?xml version="1.0" encoding="utf-8"?>
<!-- Generator: Adobe Illustrator 16.0.0, SVG Export Plug-In . SVG Version: 6.00 Build 0)  -->
<!DOCTYPE svg PUBLIC "-//W3C//DTD SVG 1.1//EN" "http://www.w3.org/Graphics/SVG/1.1/DTD/svg11.dtd">
<svg version="1.1" id="Layer_1" xmlns="http://www.w3.org/2000/svg" xmlns:xlink="http://www.w3.org/1999/xlink" x="0px" y="0px"
	 width="12.96px" height="27.936px" viewBox="0 0 12.96 27.936" enable-background="new 0 0 12.96 27.936" xml:space="preserve">
<g>
	<path fill="#222222" d="M12.96,0.359c0,0.24-0.36,0.457-1.08,0.648c-0.889,0.24-1.381,0.396-1.478,0.468
		C9.708,2.004,9.3,3.972,9.18,7.38c-0.048,3.288-0.097,6.588-0.144,9.897c-0.121,3.865-0.541,6.444-1.262,7.74
		c-1.08,1.944-3.228,2.916-6.444,2.916C0.444,27.936,0,27.672,0,27.144c0-0.336,0.126-0.72,0.378-1.149
		c0.252-0.435,0.534-0.648,0.846-0.648c0.24,0,0.594,0.036,1.062,0.108c0.468,0.069,0.822,0.105,1.062,0.105
		c1.344,0,2.232-0.588,2.664-1.764c0.192-0.576,0.324-1.729,0.396-3.456c0.024-0.432,0.072-3.312,0.144-8.64l0.072-5.616
		c0-2.232-0.121-3.612-0.36-4.143c-0.192-0.405-0.852-0.707-1.98-0.897C3.251,0.876,2.736,0.647,2.736,0.359
		C2.736,0.12,2.82,0,2.988,0c0.144,0,0.336,0.018,0.576,0.054C3.804,0.09,3.96,0.107,4.032,0.107c0.36,0.024,1.62,0.036,3.78,0.036
		s3.42-0.012,3.779-0.036c0.097,0,0.265-0.018,0.505-0.054C12.335,0.018,12.528,0,12.671,0C12.864,0,12.96,0.12,12.96,0.359z"/>
</g>
</svg>
