<?xml version="1.0" encoding="utf-8"?>
<!-- Generator: Adobe Illustrator 16.0.0, SVG Export Plug-In . SVG Version: 6.00 Build 0)  -->
<!DOCTYPE svg PUBLIC "-//W3C//DTD SVG 1.1//EN" "http://www.w3.org/Graphics/SVG/1.1/DTD/svg11.dtd">
<svg version="1.1" id="Layer_1" xmlns="http://www.w3.org/2000/svg" xmlns:xlink="http://www.w3.org/1999/xlink" x="0px" y="0px"
	 width="12.064px" height="26px" viewBox="0.448 0.967 12.064 26" enable-background="new 0.448 0.967 12.064 26"
	 xml:space="preserve">
<g>
	<path fill="#222222" d="M12.512,1.3c0,0.224-0.336,0.425-1.006,0.604c-0.827,0.224-1.285,0.368-1.376,0.436
		C9.485,2.832,9.105,4.663,8.994,7.836c-0.045,3.061-0.09,6.132-0.134,9.211c-0.113,3.599-0.504,5.999-1.176,7.205
		c-1.005,1.81-3.004,2.714-5.998,2.714c-0.825,0.003-1.238-0.242-1.238-0.734c0-0.312,0.117-0.67,0.352-1.068
		c0.234-0.405,0.497-0.604,0.788-0.604c0.223,0,0.553,0.033,0.988,0.101c0.436,0.063,0.765,0.098,0.989,0.098
		c1.25,0,2.078-0.548,2.479-1.642c0.179-0.537,0.301-1.61,0.369-3.218c0.022-0.401,0.067-3.083,0.134-8.042L6.614,6.63
		c0-2.078-0.113-3.362-0.335-3.857C6.1,2.396,5.486,2.115,4.436,1.938C3.475,1.782,2.995,1.568,2.995,1.3
		c0-0.222,0.078-0.333,0.234-0.333c0.134,0,0.313,0.017,0.536,0.05C3.989,1.05,4.134,1.066,4.202,1.066
		C4.537,1.088,5.709,1.099,7.72,1.099c2.011,0,3.183-0.011,3.518-0.034c0.09,0,0.246-0.017,0.47-0.05
		c0.223-0.033,0.402-0.049,0.535-0.049C12.423,0.967,12.512,1.078,12.512,1.3z"/>
</g>
</svg>
