<?xml version="1.0" encoding="utf-8"?>
<!-- Generator: Adobe Illustrator 16.0.0, SVG Export Plug-In . SVG Version: 6.00 Build 0)  -->
<!DOCTYPE svg PUBLIC "-//W3C//DTD SVG 1.1 Tiny//EN" "http://www.w3.org/Graphics/SVG/1.1/DTD/svg11-tiny.dtd">
<svg version="1.1" baseProfile="tiny" id="Layer_1" xmlns="http://www.w3.org/2000/svg" xmlns:xlink="http://www.w3.org/1999/xlink"
	 x="0px" y="0px" width="12.96px" height="27.936px" viewBox="0 0 12.96 27.936" xml:space="preserve">
<g>
	<path d="M12.96,0.359c0,0.24-0.36,0.457-1.08,0.648c-0.888,0.24-1.38,0.396-1.476,0.468C9.708,2.004,9.3,3.972,9.18,7.38
		c-0.048,3.288-0.096,6.588-0.144,9.899c-0.12,3.865-0.54,6.444-1.26,7.74c-1.08,1.944-3.228,2.916-6.444,2.916
		C0.444,27.936,0,27.672,0,27.144c0-0.336,0.126-0.72,0.378-1.151c0.252-0.433,0.534-0.648,0.846-0.648
		c0.24,0,0.594,0.036,1.062,0.108c0.468,0.071,0.822,0.107,1.062,0.107c1.344,0,2.232-0.588,2.664-1.764
		c0.192-0.576,0.324-1.729,0.396-3.456c0.024-0.432,0.072-3.312,0.144-8.64l0.072-5.616c0-2.232-0.121-3.612-0.36-4.141
		c-0.192-0.407-0.852-0.707-1.98-0.899C3.251,0.876,2.736,0.647,2.736,0.359C2.736,0.12,2.82,0,2.988,0
		c0.144,0,0.336,0.018,0.576,0.054C3.804,0.09,3.96,0.107,4.032,0.107c0.36,0.024,1.62,0.036,3.78,0.036
		c2.16,0,3.42-0.012,3.78-0.036c0.096,0,0.264-0.018,0.504-0.054C12.335,0.018,12.528,0,12.672,0C12.864,0,12.96,0.12,12.96,0.359z"
		/>
</g>
</svg>
