<?xml version="1.0" encoding="utf-8"?>
<!-- Generator: Adobe Illustrator 16.0.0, SVG Export Plug-In . SVG Version: 6.00 Build 0)  -->
<!DOCTYPE svg PUBLIC "-//W3C//DTD SVG 1.1 Tiny//EN" "http://www.w3.org/Graphics/SVG/1.1/DTD/svg11-tiny.dtd">
<svg version="1.1" baseProfile="tiny" id="Layer_1" xmlns="http://www.w3.org/2000/svg" xmlns:xlink="http://www.w3.org/1999/xlink"
	 x="0px" y="0px" width="30.287px" height="26.859px" viewBox="0 0 30.287 26.859" xml:space="preserve">
<g>
	<path d="M12.375,1.811H9.352v16.33c0,3.199-0.677,5.452-2.03,6.759s-2.921,1.96-4.702,1.96c-0.855,0-1.729-0.17-2.619-0.51v-0.967
		c0.281,0.047,0.592,0.07,0.932,0.07c1.477,0,2.669-0.56,3.577-1.679s1.362-2.634,1.362-4.544V1.811H2.918V0h9.457V1.811z"/>
	<path d="M30.287,14.045c0,1.453-0.366,2.792-1.099,4.017s-1.731,2.188-2.997,2.892s-2.666,1.055-4.201,1.055
		c-1.102,0-2.162-0.199-3.182-0.598s-1.913-0.967-2.681-1.705s-1.362-1.594-1.784-2.566s-0.633-2.004-0.633-3.094
		c0-1.453,0.369-2.792,1.107-4.017s1.737-2.188,2.997-2.892s2.651-1.055,4.175-1.055c1.535,0,2.936,0.352,4.201,1.055
		s2.265,1.667,2.997,2.892S30.287,12.592,30.287,14.045z M26.578,14.045c0-1.324-0.182-2.479-0.545-3.463s-0.888-1.734-1.573-2.25
		s-1.509-0.773-2.47-0.773c-0.938,0-1.749,0.258-2.435,0.773s-1.213,1.266-1.582,2.25s-0.554,2.139-0.554,3.463
		c0,2.027,0.41,3.615,1.23,4.764s1.934,1.723,3.34,1.723c0.961,0,1.784-0.258,2.47-0.773s1.21-1.266,1.573-2.25
		S26.578,15.369,26.578,14.045z"/>
</g>
</svg>
