<?xml version="1.0" encoding="utf-8"?>
<!-- Generator: Adobe Illustrator 16.0.0, SVG Export Plug-In . SVG Version: 6.00 Build 0)  -->
<!DOCTYPE svg PUBLIC "-//W3C//DTD SVG 1.1//EN" "http://www.w3.org/Graphics/SVG/1.1/DTD/svg11.dtd">
<svg version="1.1" id="Layer_1" xmlns="http://www.w3.org/2000/svg" xmlns:xlink="http://www.w3.org/1999/xlink" x="0px" y="0px"
	 width="29.316px" height="26px" viewBox="0.486 0.43 29.316 26" enable-background="new 0.486 0.43 29.316 26"
	 xml:space="preserve">
<g>
	<path fill="#222222" d="M12.464,2.183H9.538V17.99c0,3.095-0.656,5.275-1.965,6.543c-1.31,1.265-2.827,1.896-4.551,1.896
		c-0.828,0-1.674-0.164-2.536-0.493v-0.938c0.272,0.048,0.573,0.068,0.902,0.068c1.43,0,2.583-0.542,3.462-1.625
		c0.879-1.084,1.318-2.55,1.318-4.398V2.183H3.31V0.43h9.154V2.183z"/>
	<path fill="#222222" d="M29.802,14.025c0,1.406-0.354,2.702-1.063,3.891c-0.71,1.186-1.676,2.117-2.901,2.799
		c-1.228,0.682-2.581,1.021-4.066,1.021c-1.066,0-2.093-0.19-3.08-0.579c-0.989-0.384-1.851-0.936-2.597-1.65
		c-0.744-0.714-1.318-1.543-1.727-2.481c-0.409-0.943-0.613-1.94-0.613-2.997c0-1.406,0.357-2.703,1.072-3.888
		s1.683-2.118,2.902-2.799c1.221-0.682,2.565-1.024,4.042-1.024c1.486,0,2.842,0.343,4.067,1.024
		c1.224,0.678,2.191,1.613,2.899,2.799C29.445,11.323,29.802,12.618,29.802,14.025z M26.212,14.025c0-1.279-0.177-2.399-0.527-3.352
		c-0.352-0.95-0.859-1.676-1.523-2.178c-0.663-0.499-1.46-0.746-2.391-0.746c-0.908,0-1.692,0.25-2.356,0.746
		c-0.666,0.501-1.177,1.228-1.531,2.178c-0.357,0.953-0.539,2.073-0.539,3.352c0,1.962,0.397,3.499,1.189,4.613
		c0.794,1.11,1.874,1.668,3.233,1.668c0.932,0,1.726-0.25,2.393-0.749c0.666-0.498,1.171-1.225,1.521-2.178
		C26.035,16.426,26.212,15.306,26.212,14.025z"/>
</g>
</svg>
