<?xml version="1.0" encoding="utf-8"?>
<!-- Generator: Adobe Illustrator 16.0.0, SVG Export Plug-In . SVG Version: 6.00 Build 0)  -->
<!DOCTYPE svg PUBLIC "-//W3C//DTD SVG 1.1//EN" "http://www.w3.org/Graphics/SVG/1.1/DTD/svg11.dtd">
<svg version="1.1" id="Layer_1" xmlns="http://www.w3.org/2000/svg" xmlns:xlink="http://www.w3.org/1999/xlink" x="0px" y="0px"
	 width="30.287px" height="26.859px" viewBox="0 0 30.287 26.859" enable-background="new 0 0 30.287 26.859" xml:space="preserve">
<g>
	<path fill="#222222" d="M12.375,1.811H9.352v16.33c0,3.197-0.677,5.45-2.03,6.759c-1.353,1.307-2.921,1.96-4.702,1.96
		c-0.855,0-1.729-0.17-2.619-0.51v-0.969c0.281,0.049,0.592,0.07,0.932,0.07c1.477,0,2.669-0.56,3.577-1.679
		c0.908-1.119,1.362-2.634,1.362-4.544V1.811H2.918V0h9.457V1.811z"/>
	<path fill="#222222" d="M30.287,14.045c0,1.453-0.366,2.792-1.099,4.019c-0.733,1.225-1.731,2.188-2.998,2.892
		s-2.666,1.055-4.2,1.055c-1.103,0-2.162-0.197-3.183-0.598c-1.021-0.397-1.912-0.967-2.682-1.705
		c-0.768-0.738-1.362-1.594-1.784-2.564c-0.422-0.974-0.633-2.005-0.633-3.096c0-1.453,0.369-2.792,1.107-4.017
		c0.738-1.225,1.738-2.188,2.998-2.892c1.261-0.704,2.65-1.057,4.176-1.057c1.535,0,2.936,0.354,4.201,1.057
		c1.265,0.701,2.265,1.667,2.996,2.892C29.919,11.254,30.287,12.592,30.287,14.045z M26.578,14.045c0-1.322-0.183-2.479-0.545-3.463
		c-0.363-0.982-0.888-1.732-1.573-2.25c-0.686-0.516-1.509-0.771-2.47-0.771c-0.938,0-1.749,0.258-2.435,0.771
		c-0.688,0.517-1.215,1.268-1.582,2.25c-0.369,0.984-0.556,2.141-0.556,3.463c0,2.027,0.41,3.615,1.229,4.766
		c0.82,1.147,1.935,1.723,3.34,1.723c0.962,0,1.783-0.258,2.471-0.773c0.688-0.515,1.21-1.266,1.572-2.25
		C26.396,16.525,26.578,15.369,26.578,14.045z"/>
</g>
</svg>
