<?xml version="1.0" encoding="utf-8"?>
<!-- Generator: Adobe Illustrator 16.0.0, SVG Export Plug-In . SVG Version: 6.00 Build 0)  -->
<!DOCTYPE svg PUBLIC "-//W3C//DTD SVG 1.1//EN" "http://www.w3.org/Graphics/SVG/1.1/DTD/svg11.dtd">
<svg version="1.1" id="Layer_1" xmlns="http://www.w3.org/2000/svg" xmlns:xlink="http://www.w3.org/1999/xlink" x="0px" y="0px"
	 width="26.896px" height="26px" viewBox="379.542 289.921 26.896 26" enable-background="new 379.542 289.921 26.896 26"
	 xml:space="preserve">
<g>
	<path fill="#222222" d="M379.542,315.21c3.051-0.223,3.349-0.261,3.349-2.194v-18.93c0-2.827,0-3.348-3.349-3.496v-0.669h11.27
		v0.669c-1.934,0.074-3.05,0.262-3.459,0.707c-0.297,0.335-0.335,1.304-0.335,2.863v7.922c0,0.558,0.038,0.708,0.781,0.708h0.747
		c1.004,0,1.599-1.042,2.9-2.492l4.426-4.944c1.339-1.489,2.044-2.492,2.044-3.126c0-1.041-1.004-1.562-3.013-1.633v-0.67h9.486
		v0.67c-3.569,0.147-6.809,3.792-11.941,10.116c1.269,1.822,2.79,3.828,4.541,5.987l2.862,3.495c2.566,3.122,4.129,5.02,6.437,5.02
		h0.149v0.708H394.35v-0.708c2.158-0.073,3.05-0.073,3.05-0.969c0-0.708-0.743-1.673-1.896-3.161l-3.68-4.8
		c-1.268-1.637-1.565-2.604-3.165-2.604h-0.26c-1.079,0-1.376,0.034-1.376,0.967v7.55c0,2.492,0.335,2.939,3.793,3.014v0.707h-11.27
		L379.542,315.21L379.542,315.21z"/>
</g>
</svg>
