<?xml version="1.0" encoding="utf-8"?>
<!-- Generator: Adobe Illustrator 16.0.0, SVG Export Plug-In . SVG Version: 6.00 Build 0)  -->
<!DOCTYPE svg PUBLIC "-//W3C//DTD SVG 1.1//EN" "http://www.w3.org/Graphics/SVG/1.1/DTD/svg11.dtd">
<svg version="1.1" id="Layer_1" xmlns="http://www.w3.org/2000/svg" xmlns:xlink="http://www.w3.org/1999/xlink" x="0px" y="0px"
	 width="26.028px" height="25.163px" viewBox="379.975 290.339 26.028 25.163"
	 enable-background="new 379.975 290.339 26.028 25.163" xml:space="preserve">
<g>
	<path fill="#222222" d="M379.975,314.815c2.952-0.215,3.24-0.252,3.24-2.123V294.37c0-2.736,0-3.24-3.24-3.383v-0.648h10.907v0.648
		c-1.872,0.072-2.952,0.252-3.348,0.684c-0.288,0.324-0.324,1.262-0.324,2.771v7.668c0,0.539,0.036,0.684,0.756,0.684h0.722
		c0.972,0,1.548-1.008,2.808-2.412l4.283-4.785c1.296-1.441,1.979-2.412,1.979-3.025c0-1.008-0.972-1.512-2.916-1.581v-0.648h9.181
		v0.648c-3.455,0.143-6.589,3.67-11.557,9.791c1.227,1.764,2.7,3.706,4.394,5.795l2.771,3.383c2.484,3.022,3.996,4.858,6.229,4.858
		h0.145v0.685h-11.699v-0.685c2.088-0.071,2.952-0.071,2.952-0.938c0-0.684-0.72-1.619-1.836-3.059l-3.562-4.646
		c-1.226-1.584-1.514-2.52-3.062-2.52h-0.252c-1.044,0-1.332,0.034-1.332,0.936v7.308c0,2.412,0.324,2.844,3.672,2.916v0.684
		h-10.907L379.975,314.815L379.975,314.815z"/>
</g>
</svg>
