<?xml version="1.0" encoding="utf-8"?>
<!-- Generator: Adobe Illustrator 16.0.0, SVG Export Plug-In . SVG Version: 6.00 Build 0)  -->
<!DOCTYPE svg PUBLIC "-//W3C//DTD SVG 1.1 Tiny//EN" "http://www.w3.org/Graphics/SVG/1.1/DTD/svg11-tiny.dtd">
<svg version="1.1" baseProfile="tiny" id="Layer_1" xmlns="http://www.w3.org/2000/svg" xmlns:xlink="http://www.w3.org/1999/xlink"
	 x="0px" y="0px" width="26.025px" height="25.161px" viewBox="379.976 290.339 26.025 25.161" xml:space="preserve">
<g>
	<path d="M379.976,314.816c2.952-0.216,3.24-0.252,3.24-2.124v-18.322c0-2.736,0-3.24-3.24-3.383v-0.648h10.907v0.648
		c-1.872,0.072-2.952,0.252-3.348,0.684c-0.288,0.324-0.324,1.26-0.324,2.772v7.667c0,0.54,0.036,0.684,0.756,0.684h0.72
		c0.972,0,1.548-1.008,2.808-2.412l4.283-4.787c1.296-1.44,1.98-2.412,1.98-3.024c0-1.008-0.972-1.512-2.916-1.583v-0.648h9.179
		v0.648c-3.455,0.144-6.587,3.671-11.555,9.791c1.225,1.764,2.7,3.708,4.392,5.795l2.771,3.383c2.484,3.024,3.996,4.859,6.228,4.859
		h0.145v0.684h-11.699v-0.684c2.088-0.072,2.952-0.072,2.952-0.936c0-0.684-0.72-1.62-1.836-3.06l-3.563-4.644
		c-1.224-1.584-1.512-2.52-3.06-2.52h-0.252c-1.044,0-1.332,0.036-1.332,0.936v7.307c0,2.412,0.324,2.844,3.672,2.916v0.684h-10.907
		V314.816z"/>
</g>
</svg>
