<?xml version="1.0" encoding="utf-8"?>
<!-- Generator: Adobe Illustrator 16.0.0, SVG Export Plug-In . SVG Version: 6.00 Build 0)  -->
<!DOCTYPE svg PUBLIC "-//W3C//DTD SVG 1.1//EN" "http://www.w3.org/Graphics/SVG/1.1/DTD/svg11.dtd">
<svg version="1.1" id="Layer_1" xmlns="http://www.w3.org/2000/svg" xmlns:xlink="http://www.w3.org/1999/xlink" x="0px" y="0px"
	 width="31.422px" height="30px" viewBox="1.047 0.999 31.422 30" enable-background="new 1.047 0.999 31.422 30"
	 xml:space="preserve">
<g>
	<path fill="#222222" d="M2.633,23.949h10.664v1.349H1.047V0.999h1.586V23.949z"/>
	<path fill="#222222" d="M21.23,27.626c1.046,1.249,2.733,2.025,4.388,2.025c1.991,0,4.555-1.453,4.555-5.94v-2.194
		c-1.215,1.281-3.272,2.194-5.027,2.194c-4.252,0-6.176-4.252-6.176-7.965c0-4.118,1.688-8.673,6.547-8.673
		c1.99,0,3.34,0.877,4.859,2.059l0.473-2.059h1.621c-0.811,3.07-0.777,6.276-0.777,9.414v7.423c0,5.265-3.646,7.089-6.378,7.089
		c-1.856,0-3.949-1.078-5.198-2.397L21.23,27.626z M30.107,11.022c-1.047-1.485-2.769-2.598-4.659-2.598
		c-3.679,0-4.894,3.982-4.894,7.02c0,5.636,3.273,6.918,4.726,6.918c1.821,0,3.88-1.147,4.825-2.733L30.107,11.022L30.107,11.022z"
		/>
</g>
</svg>
