<?xml version="1.0" encoding="utf-8"?>
<!-- Generator: Adobe Illustrator 16.0.0, SVG Export Plug-In . SVG Version: 6.00 Build 0)  -->
<!DOCTYPE svg PUBLIC "-//W3C//DTD SVG 1.1//EN" "http://www.w3.org/Graphics/SVG/1.1/DTD/svg11.dtd">
<svg version="1.1" id="Layer_1" xmlns="http://www.w3.org/2000/svg" xmlns:xlink="http://www.w3.org/1999/xlink" x="0px" y="0px"
	 width="33.516px" height="32px" viewBox="0 0 33.516 32" enable-background="new 0 0 33.516 32" xml:space="preserve">
<g>
	<path fill="#222222" d="M1.692,24.479h11.374v1.438H0V0h1.692V24.479z"/>
	<path fill="#222222" d="M21.528,28.4c1.115,1.332,2.915,2.16,4.679,2.16c2.124,0,4.859-1.549,4.859-6.336v-2.34
		c-1.296,1.367-3.491,2.34-5.363,2.34c-4.535,0-6.587-4.535-6.587-8.495c0-4.392,1.8-9.251,6.983-9.251
		c2.123,0,3.562,0.936,5.183,2.196l0.504-2.196h1.729c-0.864,3.275-0.828,6.695-0.828,10.042v7.918c0,5.615-3.889,7.56-6.804,7.56
		c-1.979,0-4.212-1.151-5.544-2.556L21.528,28.4z M30.995,10.691c-1.116-1.584-2.952-2.771-4.968-2.771
		c-3.924,0-5.22,4.247-5.22,7.487c0,6.012,3.491,7.379,5.04,7.379c1.942,0,4.139-1.224,5.146-2.915L30.995,10.691L30.995,10.691z"/>
</g>
</svg>
