<?xml version="1.0" encoding="utf-8"?>
<!-- Generator: Adobe Illustrator 16.0.0, SVG Export Plug-In . SVG Version: 6.00 Build 0)  -->
<!DOCTYPE svg PUBLIC "-//W3C//DTD SVG 1.1 Tiny//EN" "http://www.w3.org/Graphics/SVG/1.1/DTD/svg11-tiny.dtd">
<svg version="1.1" baseProfile="tiny" id="Layer_1" xmlns="http://www.w3.org/2000/svg" xmlns:xlink="http://www.w3.org/1999/xlink"
	 x="0px" y="0px" width="33.515px" height="32px" viewBox="0 0 33.515 32" xml:space="preserve">
<g>
	<path d="M1.692,24.478h11.374v1.439H0V0h1.692V24.478z"/>
	<path d="M21.528,28.4c1.115,1.332,2.915,2.16,4.679,2.16c2.124,0,4.859-1.548,4.859-6.335v-2.34
		c-1.296,1.367-3.491,2.34-5.363,2.34c-4.535,0-6.587-4.536-6.587-8.495c0-4.392,1.8-9.251,6.983-9.251
		c2.123,0,3.563,0.936,5.183,2.196l0.504-2.196h1.729c-0.864,3.275-0.828,6.695-0.828,10.042v7.919c0,5.615-3.888,7.559-6.803,7.559
		c-1.98,0-4.212-1.151-5.544-2.556L21.528,28.4z M30.995,10.691c-1.116-1.584-2.952-2.771-4.968-2.771
		c-3.924,0-5.22,4.247-5.22,7.487c0,6.012,3.492,7.379,5.04,7.379c1.943,0,4.139-1.224,5.147-2.915V10.691z"/>
</g>
</svg>
