<?xml version="1.0" encoding="utf-8"?>
<!-- Generator: Adobe Illustrator 16.0.0, SVG Export Plug-In . SVG Version: 6.00 Build 0)  -->
<!DOCTYPE svg PUBLIC "-//W3C//DTD SVG 1.1//EN" "http://www.w3.org/Graphics/SVG/1.1/DTD/svg11.dtd">
<svg version="1.1" id="Layer_1" xmlns="http://www.w3.org/2000/svg" xmlns:xlink="http://www.w3.org/1999/xlink" x="0px" y="0px"
	 width="35.464px" height="24.09px" viewBox="0 0 35.464 24.09" enable-background="new 0 0 35.464 24.09" xml:space="preserve">
<g>
	<path fill="#222222" d="M19.011,16.813l-1.907,6.697H0.07v-1.293l2.698-0.324c0.457-0.059,0.757-0.155,0.901-0.29
		c0.144-0.136,0.215-0.388,0.215-0.756V2.663c0-0.381-0.073-0.636-0.22-0.765S3.22,1.679,2.769,1.626L0,1.301V0h12.059v1.301
		L8.824,1.626C8.355,1.679,8.045,1.77,7.893,1.898S7.664,2.282,7.664,2.663v17.569c0,0.416,0.108,0.681,0.325,0.791
		c0.375,0.24,1.131,0.36,2.268,0.36h1.661c0.932,0,1.699-0.102,2.303-0.303c0.604-0.203,1.143-0.533,1.617-0.99
		c0.223-0.223,0.486-0.547,0.791-0.975c0.428-0.709,0.765-1.478,1.011-2.304L19.011,16.813L19.011,16.813z"/>
	<path fill="#222222" d="M35.464,19.125c0,0.94-0.293,1.791-0.881,2.549c-0.586,0.757-1.398,1.35-2.439,1.775
		c-1.04,0.428-2.202,0.641-3.486,0.641c-1.185,0-2.264-0.192-3.236-0.58c-0.973-0.387-1.812-0.946-2.516-1.684
		c-0.703-0.734-1.24-1.609-1.613-2.627c-0.371-1.017-0.559-2.148-0.559-3.396c0-1.986,0.387-3.804,1.161-5.454
		c0.772-1.648,1.833-2.951,3.179-3.906s2.815-1.433,4.41-1.433c1.025,0,1.945,0.198,2.758,0.593
		c0.812,0.396,1.452,0.954,1.922,1.675c0.41,0.604,0.698,1.296,0.865,2.079c0.167,0.781,0.251,1.817,0.251,3.106H24.012
		c-0.048,0.357-0.07,0.801-0.07,1.329c0,1.479,0.263,2.766,0.787,3.861c0.522,1.098,1.272,1.939,2.25,2.53
		c0.976,0.589,2.122,0.884,3.44,0.884c1.822,0,3.504-0.718,5.045-2.152V19.125z M32.009,10.907c0-1.172-0.307-2.106-0.922-2.804
		s-1.437-1.046-2.461-1.046c-0.687,0-1.318,0.16-1.898,0.479c-0.58,0.32-1.078,0.783-1.494,1.389
		c-0.416,0.607-0.738,1.341-0.967,2.202h7.708L32.009,10.907z"/>
</g>
</svg>
