<?xml version="1.0" encoding="utf-8"?>
<!-- Generator: Adobe Illustrator 16.0.0, SVG Export Plug-In . SVG Version: 6.00 Build 0)  -->
<!DOCTYPE svg PUBLIC "-//W3C//DTD SVG 1.1//EN" "http://www.w3.org/Graphics/SVG/1.1/DTD/svg11.dtd">
<svg version="1.1" id="Layer_1" xmlns="http://www.w3.org/2000/svg" xmlns:xlink="http://www.w3.org/1999/xlink" x="0px" y="0px"
	 width="38.277px" height="26px" viewBox="-1.406 -0.955 38.277 26" enable-background="new -1.406 -0.955 38.277 26"
	 xml:space="preserve">
<g>
	<path fill="#222222" d="M19.113,17.19l-2.059,7.229H-1.331v-1.396l2.912-0.35c0.493-0.063,0.817-0.167,0.972-0.312
		c0.156-0.147,0.232-0.419,0.232-0.815V1.919c0-0.411-0.079-0.687-0.237-0.826C2.39,0.954,2.069,0.857,1.583,0.8l-2.989-0.351
		v-1.404h13.016v1.404L8.118,0.8C7.611,0.857,7.277,0.955,7.113,1.093C6.949,1.231,6.866,1.508,6.866,1.919v18.963
		c0,0.449,0.117,0.734,0.351,0.854c0.405,0.26,1.22,0.388,2.447,0.388h1.793c1.006,0,1.834-0.109,2.486-0.326
		c0.652-0.22,1.233-0.576,1.745-1.069c0.241-0.24,0.525-0.59,0.854-1.052c0.462-0.765,0.826-1.596,1.091-2.487L19.113,17.19
		L19.113,17.19z"/>
	<path fill="#222222" d="M36.871,19.687c0,1.014-0.316,1.933-0.951,2.751c-0.632,0.817-1.509,1.456-2.633,1.916
		c-1.122,0.462-2.377,0.691-3.763,0.691c-1.278,0-2.443-0.207-3.493-0.626c-1.05-0.417-1.955-1.021-2.715-1.817
		c-0.759-0.792-1.339-1.736-1.741-2.835c-0.4-1.099-0.603-2.319-0.603-3.666c0-2.144,0.417-4.105,1.253-5.886
		c0.834-1.779,1.979-3.186,3.431-4.216s3.039-1.546,4.76-1.546c1.106,0,2.1,0.214,2.977,0.64c0.877,0.427,1.567,1.03,2.074,1.808
		c0.442,0.652,0.754,1.399,0.934,2.244c0.181,0.843,0.271,1.961,0.271,3.353H24.51c-0.052,0.386-0.076,0.864-0.076,1.435
		c0,1.597,0.284,2.985,0.85,4.166c0.564,1.187,1.373,2.094,2.429,2.732c1.053,0.635,2.29,0.953,3.713,0.953
		c1.967,0,3.782-0.774,5.445-2.322V19.687z M33.141,10.817c0-1.265-0.331-2.273-0.995-3.026c-0.664-0.754-1.551-1.129-2.655-1.129
		c-0.742,0-1.423,0.172-2.05,0.517c-0.626,0.345-1.163,0.845-1.612,1.499c-0.449,0.656-0.797,1.448-1.043,2.377h8.318L33.141,10.817
		z"/>
</g>
</svg>
