<?xml version="1.0" encoding="utf-8"?>
<!-- Generator: Adobe Illustrator 16.0.0, SVG Export Plug-In . SVG Version: 6.00 Build 0)  -->
<!DOCTYPE svg PUBLIC "-//W3C//DTD SVG 1.1//EN" "http://www.w3.org/Graphics/SVG/1.1/DTD/svg11.dtd">
<svg version="1.1" id="Layer_1" xmlns="http://www.w3.org/2000/svg" xmlns:xlink="http://www.w3.org/1999/xlink" x="0px" y="0px"
	 width="55.008px" height="30.396px" viewBox="10.331 2.855 55.008 30.396" enable-background="new 10.331 2.855 55.008 30.396"
	 xml:space="preserve">
<g>
	<path fill="#222222" d="M10.445,30.418c0.07-0.576,0.197-1.146,0.379-1.712c0.182-0.565,0.419-1.097,0.712-1.592
		s0.662-0.903,1.106-1.229c0.344-0.262,0.728-0.447,1.152-0.561c0.424-0.11,0.848-0.206,1.273-0.288
		c0.424-0.08,0.838-0.172,1.242-0.271c0.404-0.102,0.758-0.269,1.061-0.5c0.303-0.231,0.55-0.557,0.743-0.97
		c0.192-0.414,0.288-0.985,0.288-1.713c0-0.564-0.106-1.102-0.318-1.604c-0.212-0.505-0.5-0.949-0.864-1.334
		c-0.363-0.385-0.793-0.687-1.288-0.909c-0.495-0.222-1.025-0.333-1.591-0.333c-0.263,0-0.506,0.055-0.727,0.166
		c-0.222,0.111-0.435,0.237-0.637,0.379c-0.202,0.141-0.404,0.269-0.606,0.379c-0.202,0.111-0.414,0.167-0.636,0.167
		c-0.162,0-0.258-0.046-0.288-0.137c-0.03-0.091-0.045-0.207-0.045-0.35c0-0.384,0.101-0.776,0.303-1.182
		c0.202-0.404,0.455-0.783,0.757-1.136c0.303-0.354,0.631-0.672,0.985-0.955c0.353-0.282,0.692-0.505,1.015-0.667
		c0.04-0.02,0.117-0.045,0.228-0.076c0.11-0.03,0.186-0.055,0.227-0.075c0.061,0,0.187-0.01,0.379-0.031
		c0.192-0.019,0.394-0.034,0.606-0.045c0.212-0.01,0.409-0.025,0.591-0.045c0.182-0.021,0.313-0.029,0.394-0.029l0.152-0.151
		c0.202-1.354,0.581-2.5,1.136-3.44c0.555-0.938,1.232-1.757,2.03-2.455c0.798-0.695,1.701-1.326,2.712-1.894
		c1.01-0.565,2.081-1.151,3.212-1.758c0.465-0.242,0.869-0.464,1.212-0.667c0.344-0.201,0.748-0.384,1.212-0.545
		c0.183,0.344,0.47,0.667,0.863,0.969c0.394,0.303,0.792,0.611,1.196,0.925c0.404,0.314,0.759,0.647,1.062,1
		c0.303,0.354,0.475,0.754,0.516,1.197v2.122l0.303-0.151c0.707-0.605,1.303-1.116,1.787-1.529c0.486-0.415,0.98-0.844,1.486-1.288
		c0.504-0.444,0.93-0.818,1.271-1.122c0.344-0.303,0.691-0.605,1.046-0.909c0.353-0.302,0.713-0.605,1.075-0.909h0.212
		c0.121,0,0.289,0.102,0.501,0.304c0.212,0.201,0.443,0.455,0.697,0.759c0.25,0.302,0.523,0.636,0.815,1
		c0.294,0.363,0.593,0.696,0.896,1c0.304,0.302,0.602,0.556,0.895,0.757c0.293,0.202,0.571,0.303,0.834,0.303
		c0.02,0,0.044-0.004,0.075-0.015c0.028-0.011,0.056-0.016,0.076-0.016c0.04,0,0.12-0.021,0.241-0.061
		c0.121-0.041,0.192-0.071,0.211-0.091l1.818-1.667c0.062-0.021,0.112-0.03,0.153-0.03c0.161,0,0.28,0.087,0.362,0.258
		c0.08,0.171,0.121,0.338,0.121,0.5c0,0.021-0.01,0.081-0.028,0.182l-2.272,2.425c-0.242,0.263-0.425,0.596-0.545,1
		c-0.121,0.402-0.193,0.776-0.213,1.121c-0.021,0.282-0.051,0.696-0.09,1.241c-0.041,0.546-0.077,1.106-0.105,1.683
		c-0.03,0.577-0.056,1.105-0.076,1.591s-0.029,0.799-0.029,0.938c0,0.041,0,0.202,0,0.485c0,0.263-0.007,0.57-0.018,0.924
		c-0.01,0.354-0.015,0.712-0.015,1.076s0,0.647,0,0.849c0,0.122,0,0.345,0,0.667c0,0.323,0.005,0.661,0.015,1.016
		c0.011,0.354,0.018,0.691,0.018,1.016c0,0.303,0,0.517,0,0.636c0.182,0.225,0.373,0.409,0.575,0.562
		c0.2,0.152,0.442,0.229,0.728,0.229c0.242,0,0.448-0.07,0.62-0.213c0.171-0.141,0.333-0.303,0.485-0.483
		c0.152-0.182,0.308-0.345,0.47-0.485c0.161-0.142,0.363-0.212,0.606-0.212c0.16,0,0.252,0.045,0.271,0.137
		c0.02,0.091,0.03,0.197,0.03,0.317v0.304c-0.103,0.103-0.263,0.272-0.484,0.515c-0.224,0.242-0.466,0.502-0.727,0.772
		c-0.265,0.273-0.513,0.53-0.743,0.772c-0.232,0.242-0.391,0.415-0.471,0.516c-0.162,0.162-0.344,0.379-0.545,0.652
		c-0.201,0.271-0.42,0.54-0.651,0.803s-0.459,0.49-0.683,0.682c-0.223,0.192-0.435,0.288-0.637,0.288h-0.06l-3.031-2.425
		c-0.042-0.04-0.122-0.115-0.241-0.228c-0.123-0.111-0.193-0.188-0.213-0.228v-0.063v-0.09c0.182-2.264,0.358-4.46,0.53-6.591
		c0.171-2.131,0.257-4.338,0.257-6.621c0-0.121,0-0.283,0-0.484s-0.005-0.398-0.016-0.592c-0.012-0.19-0.016-0.357-0.016-0.5V10.13
		l-2.879-2.879h-0.303c-0.102,0.971-0.157,1.859-0.166,2.667c-0.012,0.809-0.018,1.688-0.018,2.637c0,0.121,0,0.272,0,0.454
		c0,0.183,0.006,0.358,0.018,0.53c0.01,0.172,0.016,0.33,0.016,0.47c0,0.121,0,0.192,0,0.213l0.151,0.15H38.4
		c0.102,0,0.152,0.081,0.152,0.242c0,0.142,0,0.223,0,0.243v0.272l-1.213,2.575c-0.04,0.081-0.117,0.132-0.229,0.151
		c-0.111,0.021-0.228,0.041-0.348,0.061c-0.123,0.021-0.232,0.045-0.334,0.075c-0.102,0.031-0.15,0.087-0.15,0.167v4.061
		l1.664-1.332h0.185c0.281,0,0.424,0.131,0.424,0.394c0,0.182-0.061,0.344-0.183,0.484c-0.121,0.142-0.264,0.272-0.426,0.395
		c-0.16,0.121-0.326,0.237-0.498,0.348c-0.172,0.111-0.309,0.229-0.41,0.35l-6.363,5.001c-0.121,0.101-0.217,0.156-0.288,0.166
		c-0.071,0.011-0.178,0.016-0.317,0.016c-0.041,0-0.096-0.005-0.168-0.016c-0.069-0.01-0.116-0.016-0.135-0.016
		c-0.121-0.081-0.345-0.237-0.668-0.47c-0.324-0.23-0.662-0.479-1.016-0.743c-0.353-0.262-0.687-0.505-1-0.727
		c-0.313-0.223-0.532-0.384-0.653-0.485c-0.121-0.101-0.207-0.172-0.258-0.212c-0.05-0.04-0.076-0.121-0.076-0.242
		c0-0.02,0.005-0.045,0.015-0.075c0.01-0.03,0.015-0.057,0.015-0.075c0.384-0.305,0.701-0.615,0.955-0.939
		c0.252-0.323,0.439-0.718,0.561-1.183c0-0.161,0.01-0.449,0.03-0.863s0.035-0.854,0.045-1.318c0.01-0.464,0.025-0.908,0.046-1.333
		c0.02-0.424,0.03-0.718,0.03-0.879V18.13c0-0.041,0-0.131,0-0.272s-0.051-0.212-0.151-0.212h-3.091c0-0.061,0.005-0.177,0.015-0.35
		c0.011-0.171,0.026-0.288,0.046-0.348c0.02-0.183,0.066-0.414,0.136-0.697c0.071-0.283,0.136-0.561,0.197-0.833
		c0.06-0.272,0.116-0.511,0.167-0.712c0.05-0.202,0.085-0.312,0.106-0.333l0.151-0.15c0.02,0,0.125-0.012,0.318-0.031
		c0.192-0.021,0.424-0.045,0.697-0.075c0.273-0.031,0.49-0.046,0.652-0.046c0.061,0,0.207,0.006,0.439,0.016
		c0.231,0.012,0.389,0.016,0.47,0.016V9.219c0-0.12-0.087-0.308-0.258-0.561c-0.171-0.252-0.369-0.505-0.591-0.757
		c-0.222-0.253-0.445-0.476-0.667-0.667c-0.223-0.192-0.374-0.289-0.455-0.289c-0.182,0-0.318,0.061-0.41,0.183
		c-0.091,0.121-0.208,0.263-0.348,0.424c-0.404,0.466-0.697,0.97-0.879,1.516c-0.182,0.545-0.308,1.111-0.378,1.697
		c-0.071,0.586-0.106,1.182-0.106,1.787c0,0.587,0,1.143,0,1.667c0,0.142,0,0.444,0,0.909c0,0.464,0,1,0,1.605s0,1.263,0,1.971
		c0,0.687,0,1.333,0,1.938s0,1.142,0,1.605s0,0.769,0,0.909s-0.016,0.378-0.046,0.712c-0.03,0.333-0.061,0.682-0.091,1.046
		c-0.03,0.363-0.061,0.712-0.091,1.045c-0.03,0.333-0.056,0.562-0.076,0.683c-0.182,0.506-0.409,0.989-0.682,1.454
		c-0.272,0.466-0.601,0.868-0.985,1.213c-0.384,0.344-0.813,0.621-1.288,0.833c-0.475,0.213-0.995,0.317-1.561,0.317
		c-0.465,0-0.914-0.056-1.349-0.167c-0.436-0.109-0.864-0.237-1.288-0.379c-0.425-0.142-0.854-0.267-1.288-0.378
		c-0.436-0.111-0.884-0.167-1.349-0.167c-0.444,0-0.808,0.086-1.091,0.258s-0.51,0.399-0.682,0.683
		c-0.172,0.282-0.303,0.605-0.394,0.97c-0.091,0.364-0.147,0.737-0.167,1.121c-0.04,0.121-0.131,0.182-0.272,0.182s-0.232,0-0.273,0
		c-0.243,0-0.394-0.028-0.455-0.091c-0.061-0.061-0.091-0.212-0.091-0.454C10.339,31.533,10.375,30.993,10.445,30.418z M19.4,26.205
		c0.161,0.012,0.303,0.017,0.424,0.017c0.748,0,1.318-0.151,1.712-0.455s0.682-0.696,0.864-1.183
		c0.182-0.484,0.292-1.024,0.333-1.621c0.041-0.596,0.061-1.187,0.061-1.771c0-0.143,0-0.436,0-0.88c0-0.442,0-0.959,0-1.545
		c0-0.585,0-1.212,0-1.878c0-0.688,0-1.323,0-1.91c0-0.585,0-1.102,0-1.545c0-0.444,0-0.737,0-0.878c0-0.102,0.01-0.288,0.03-0.562
		c0.021-0.272,0.045-0.57,0.076-0.894c0.03-0.323,0.066-0.632,0.106-0.926c0.041-0.292,0.071-0.509,0.091-0.65
		c0.041-0.323,0.136-0.626,0.288-0.909c0.152-0.282,0.323-0.55,0.515-0.803c0.192-0.252,0.379-0.51,0.561-0.772
		c0.182-0.262,0.333-0.546,0.455-0.849h-0.151h-0.151c-0.041,0.02-0.116,0.045-0.228,0.076c-0.111,0.03-0.187,0.056-0.227,0.075
		c-0.97,0.707-1.636,1.531-2,2.471c-0.364,0.938-0.556,1.983-0.576,3.136c0,0.182,0,0.626,0,1.333c0,0.688,0,1.436,0,2.243
		s0,1.556,0,2.243c0,0.687,0,1.122,0,1.303c0,0.161-0.011,0.429-0.031,0.803c-0.02,0.374-0.035,0.77-0.045,1.183
		c-0.01,0.413-0.025,0.809-0.046,1.182c-0.02,0.374-0.03,0.631-0.03,0.771c-0.102,0.526-0.283,1.026-0.545,1.5
		c-0.263,0.477-0.636,0.834-1.121,1.076c-0.222,0.103-0.374,0.151-0.454,0.151c-0.081,0-0.182,0.102-0.304,0.304
		C19.107,26.14,19.237,26.196,19.4,26.205z M31.779,22.417c0.029,0.294,0.09,0.572,0.182,0.834c0.09,0.264,0.23,0.489,0.424,0.683
		c0.192,0.19,0.449,0.288,0.773,0.288c0.142,0,0.318-0.046,0.529-0.138c0.213-0.091,0.414-0.201,0.606-0.333
		c0.192-0.131,0.364-0.276,0.515-0.438c0.151-0.161,0.237-0.313,0.258-0.455c0-0.161,0.011-0.443,0.031-0.849
		c0.02-0.403,0.034-0.828,0.045-1.271c0.012-0.444,0.024-0.868,0.047-1.273c0.02-0.403,0.029-0.687,0.029-0.849v-0.091v-0.061
		c-0.021-0.04-0.046-0.116-0.076-0.228c-0.029-0.111-0.056-0.188-0.076-0.228c-0.102,0-0.262-0.01-0.484-0.029
		c-0.223-0.021-0.464-0.035-0.727-0.045c-0.263-0.012-0.51-0.026-0.742-0.046s-0.391-0.03-0.471-0.03h-0.365
		c-0.06,0-0.141,0-0.241,0c-0.082,0-0.132,0.052-0.151,0.151c0,0.121-0.011,0.35-0.029,0.683c-0.021,0.333-0.043,0.687-0.062,1.06
		c-0.021,0.374-0.035,0.729-0.045,1.062c-0.011,0.333-0.017,0.561-0.017,0.682v0.182C31.732,21.877,31.749,22.124,31.779,22.417z
		 M32.006,13.766c0,0.282,0.01,0.435,0.03,0.455l0.303,0.15h2.728c0.102,0,0.172-0.061,0.211-0.182
		c0.041-0.122,0.072-0.264,0.092-0.424c0.02-0.162,0.025-0.318,0.016-0.471c-0.01-0.15-0.016-0.247-0.016-0.288
		c0-0.12,0.006-0.419,0.016-0.894s0.025-0.985,0.047-1.531c0.02-0.545,0.041-1.056,0.06-1.531c0.021-0.474,0.03-0.771,0.03-0.894
		V8.069V8.009L35.37,7.857c-0.041,0-0.097,0.021-0.166,0.061c-0.071,0.04-0.117,0.07-0.138,0.091
		c-0.101,0.081-0.281,0.232-0.545,0.455C34.26,8.686,33.98,8.919,33.689,9.16c-0.295,0.243-0.565,0.47-0.818,0.683
		c-0.254,0.213-0.432,0.358-0.531,0.439c-0.162,0.162-0.248,0.303-0.258,0.425c-0.01,0.121-0.025,0.333-0.045,0.636
		c0,0.041-0.005,0.132-0.016,0.272c-0.01,0.143-0.016,0.304-0.016,0.485c0,0.181,0,0.374,0,0.575c0,0.183,0,0.323,0,0.425
		C32.006,13.26,32.006,13.484,32.006,13.766z"/>
	<path fill="#222222" d="M51.732,31.842c-0.142-0.011-0.231-0.015-0.271-0.015c-0.242,0-0.454,0.065-0.637,0.196
		c-0.184,0.132-0.35,0.276-0.5,0.438c-0.151,0.162-0.309,0.31-0.471,0.439c-0.16,0.13-0.354,0.199-0.576,0.199
		c-0.322,0-0.484-0.162-0.484-0.485c0-0.161,0.04-0.298,0.123-0.408c0.08-0.112,0.176-0.212,0.287-0.304
		c0.109-0.091,0.217-0.182,0.316-0.272c0.104-0.091,0.174-0.218,0.213-0.379l3.334-3.484c0.021-0.021,0.065-0.092,0.137-0.212
		c0.07-0.121,0.125-0.201,0.166-0.242v-0.062c0-0.141-0.081-0.271-0.241-0.395c-0.162-0.12-0.354-0.232-0.576-0.333
		c-0.222-0.102-0.444-0.188-0.667-0.258c-0.224-0.07-0.385-0.126-0.484-0.167l-1.818-0.605c-0.1-0.02-0.156-0.086-0.166-0.196
		c-0.01-0.111-0.016-0.196-0.016-0.259c0-0.343,0.07-0.666,0.213-0.969c0.141-0.304,0.23-0.637,0.271-1v-2.788
		c0-0.909,0-1.738,0-2.485c0-0.748-0.052-1.565-0.152-2.455c0-0.021-0.021-0.086-0.06-0.196c-0.042-0.111-0.071-0.196-0.092-0.257
		c-0.021-0.021-0.052-0.082-0.09-0.183c-0.04-0.101-0.087-0.212-0.138-0.333s-0.101-0.232-0.15-0.333
		c-0.053-0.101-0.075-0.172-0.075-0.212l-0.03-0.061c0-0.142,0.094-0.278,0.286-0.41c0.193-0.131,0.41-0.242,0.653-0.333
		c0.24-0.091,0.479-0.172,0.712-0.243c0.229-0.071,0.397-0.126,0.5-0.167c0.442-0.222,0.849-0.444,1.211-0.667
		c0.364-0.222,0.707-0.45,1.031-0.682c0.323-0.232,0.647-0.475,0.97-0.729c0.322-0.252,0.666-0.52,1.03-0.803
		c0.142-0.102,0.293-0.151,0.454-0.151h0.152c0.08,0.04,0.236,0.106,0.469,0.196c0.231,0.091,0.479,0.182,0.744,0.272
		c0.262,0.092,0.504,0.183,0.727,0.273c0.222,0.09,0.385,0.146,0.484,0.167c0.08,0.04,0.207,0.081,0.379,0.121
		c0.172,0.041,0.344,0.086,0.515,0.137c0.172,0.05,0.333,0.097,0.483,0.136c0.152,0.041,0.248,0.061,0.289,0.061
		c0.061,0,0.268,0.021,0.621,0.061s0.768,0.086,1.242,0.137c0.477,0.051,0.944,0.101,1.41,0.15c0.464,0.051,0.837,0.087,1.121,0.106
		c0.201,0.041,0.378,0.056,0.529,0.046c0.152-0.011,0.228,0.126,0.228,0.409c0,0.122-0.028,0.354-0.09,0.696
		c-0.06,0.344-0.146,0.702-0.259,1.076c-0.11,0.374-0.252,0.707-0.424,1s-0.368,0.44-0.592,0.44c-0.343,0-0.666-0.055-0.969-0.167
		c-0.304-0.111-0.615-0.167-0.939-0.167c-0.061,0-0.131,0-0.211,0c-0.082,0-0.133,0.052-0.151,0.151v1.213
		c0,1.191,0.015,2.389,0.046,3.591c0.029,1.202,0.217,2.379,0.561,3.528c0.101,0.324,0.276,0.708,0.529,1.152
		s0.506,0.884,0.758,1.318c0.254,0.435,0.479,0.839,0.684,1.212c0.199,0.374,0.303,0.642,0.303,0.803
		c0,0.223-0.117,0.409-0.35,0.562c-0.231,0.151-0.42,0.287-0.561,0.408c-0.062,0.062-0.146,0.138-0.259,0.229
		s-0.222,0.188-0.333,0.288s-0.213,0.186-0.303,0.258c-0.092,0.07-0.146,0.115-0.168,0.136c-0.08,0.081-0.268,0.269-0.561,0.562
		c-0.294,0.293-0.611,0.61-0.953,0.955c-0.345,0.344-0.662,0.666-0.957,0.97c-0.293,0.303-0.479,0.485-0.561,0.545
		c-0.1,0.102-0.241,0.228-0.424,0.379c-0.182,0.151-0.295,0.229-0.334,0.229c-0.018,0-0.08,0.005-0.182,0.015
		c-0.102,0.011-0.172,0.016-0.211,0.016c-0.386,0-0.729-0.056-1.031-0.166c-0.303-0.111-0.637-0.219-1-0.317
		c-0.162-0.041-0.449-0.106-0.862-0.197c-0.414-0.092-0.86-0.182-1.333-0.273c-0.477-0.09-0.92-0.177-1.334-0.257
		c-0.414-0.081-0.703-0.142-0.863-0.182C51.966,31.858,51.875,31.852,51.732,31.842z M55.338,23.827
		c0.305,0.12,0.646,0.182,1.031,0.182c0.121,0,0.263-0.029,0.425-0.092c0.16-0.06,0.312-0.141,0.454-0.242
		c0.141-0.102,0.264-0.217,0.363-0.349c0.102-0.131,0.15-0.268,0.15-0.408v-8.637c0-0.021-0.176-0.091-0.529-0.213
		c-0.354-0.121-0.754-0.257-1.195-0.408c-0.446-0.152-0.875-0.288-1.289-0.41c-0.414-0.121-0.671-0.182-0.771-0.182
		c-0.041,0-0.076,0.021-0.105,0.061c-0.03,0.04-0.046,0.071-0.046,0.09v8.638c0,0.08,0.005,0.191,0.016,0.333s0.03,0.287,0.06,0.438
		c0.031,0.151,0.076,0.298,0.138,0.439c0.062,0.141,0.142,0.242,0.243,0.303C54.682,23.554,55.036,23.705,55.338,23.827z
		 M59.582,29.433c0.021,0,0.076,0.011,0.168,0.029c0.09,0.021,0.186,0.041,0.288,0.062c0.101,0.02,0.196,0.035,0.287,0.045
		c0.091,0.011,0.146,0.016,0.166,0.016c0.142,0,0.228-0.021,0.259-0.061c0.029-0.04,0.046-0.111,0.046-0.212
		c0-0.162-0.144-0.505-0.425-1.03c-0.283-0.525-0.602-1.076-0.955-1.651s-0.682-1.086-0.984-1.529
		c-0.302-0.444-0.476-0.667-0.515-0.667h-0.153c-0.08,0.061-0.236,0.187-0.468,0.379c-0.233,0.191-0.38,0.317-0.44,0.379
		c-0.101,0.102-0.271,0.271-0.515,0.515c-0.241,0.242-0.5,0.5-0.772,0.772c-0.271,0.272-0.536,0.529-0.787,0.772
		c-0.254,0.242-0.42,0.414-0.5,0.516c-0.021,0.041-0.053,0.097-0.092,0.167c-0.041,0.07-0.061,0.115-0.061,0.137v0.091
		c0,0.102,0.039,0.177,0.122,0.229c0.08,0.05,0.176,0.09,0.287,0.119c0.11,0.031,0.228,0.047,0.349,0.047
		c0.122,0,0.223-0.011,0.303-0.03l4.242,0.909h0.15V29.433z"/>
</g>
</svg>
