<?xml version="1.0" encoding="utf-8"?>
<!-- Generator: Adobe Illustrator 16.0.0, SVG Export Plug-In . SVG Version: 6.00 Build 0)  -->
<!DOCTYPE svg PUBLIC "-//W3C//DTD SVG 1.1//EN" "http://www.w3.org/Graphics/SVG/1.1/DTD/svg11.dtd">
<svg version="1.1" id="Layer_1" xmlns="http://www.w3.org/2000/svg" xmlns:xlink="http://www.w3.org/1999/xlink" x="0px" y="0px"
	 width="65.339px" height="36.108px" viewBox="0 0 65.339 36.108" enable-background="new 0 0 65.339 36.108" xml:space="preserve">
<g>
	<path d="M0.126,32.742c0.083-0.684,0.234-1.363,0.45-2.034c0.216-0.672,0.498-1.302,0.846-1.89
		c0.348-0.588,0.786-1.074,1.314-1.458c0.408-0.312,0.864-0.534,1.368-0.666c0.504-0.131,1.008-0.246,1.512-0.342
		c0.504-0.096,0.996-0.204,1.476-0.324c0.48-0.12,0.9-0.318,1.26-0.594c0.36-0.276,0.654-0.66,0.882-1.152
		c0.228-0.491,0.342-1.17,0.342-2.034c0-0.672-0.126-1.308-0.378-1.908c-0.252-0.6-0.594-1.127-1.026-1.584
		c-0.432-0.456-0.942-0.815-1.53-1.08c-0.588-0.264-1.218-0.396-1.89-0.396c-0.312,0-0.601,0.066-0.864,0.198
		c-0.264,0.132-0.516,0.282-0.756,0.45c-0.24,0.168-0.48,0.319-0.72,0.45c-0.24,0.132-0.492,0.198-0.756,0.198
		c-0.192,0-0.306-0.054-0.342-0.162C1.278,18.306,1.26,18.168,1.26,18c0-0.456,0.12-0.924,0.36-1.404c0.24-0.48,0.54-0.93,0.9-1.35
		c0.36-0.42,0.75-0.798,1.17-1.134c0.419-0.335,0.822-0.6,1.206-0.792c0.047-0.023,0.138-0.054,0.27-0.09
		c0.131-0.036,0.221-0.066,0.27-0.09c0.072,0,0.222-0.012,0.45-0.036c0.228-0.023,0.468-0.042,0.72-0.054
		c0.252-0.012,0.486-0.03,0.702-0.054c0.216-0.024,0.372-0.036,0.468-0.036l0.18-0.18c0.24-1.607,0.69-2.97,1.35-4.086
		c0.66-1.116,1.464-2.088,2.412-2.916c0.948-0.828,2.021-1.578,3.222-2.25c1.2-0.671,2.472-1.368,3.816-2.088
		c0.552-0.288,1.032-0.552,1.44-0.792c0.408-0.24,0.888-0.456,1.44-0.648c0.216,0.408,0.558,0.792,1.025,1.152
		c0.468,0.36,0.941,0.726,1.422,1.098c0.48,0.373,0.9,0.769,1.261,1.188c0.359,0.42,0.563,0.895,0.611,1.422v2.52l0.36-0.18
		c0.84-0.72,1.548-1.326,2.124-1.818c0.576-0.492,1.164-1.001,1.764-1.53c0.6-0.528,1.104-0.972,1.512-1.332s0.822-0.72,1.242-1.08
		s0.847-0.72,1.278-1.08h0.252c0.144,0,0.342,0.121,0.594,0.36s0.528,0.54,0.828,0.9c0.3,0.36,0.624,0.756,0.972,1.188
		c0.348,0.432,0.702,0.828,1.062,1.188c0.36,0.36,0.714,0.66,1.062,0.9c0.348,0.24,0.679,0.36,0.99,0.36
		c0.023,0,0.054-0.005,0.09-0.018c0.036-0.012,0.066-0.018,0.091-0.018c0.047,0,0.144-0.024,0.287-0.072
		c0.145-0.048,0.229-0.084,0.252-0.108l2.16-1.98c0.072-0.024,0.132-0.036,0.181-0.036c0.191,0,0.335,0.103,0.432,0.306
		c0.096,0.204,0.144,0.402,0.144,0.594c0,0.024-0.012,0.096-0.035,0.216l-2.7,2.88c-0.288,0.312-0.504,0.708-0.648,1.188
		c-0.144,0.48-0.229,0.924-0.252,1.332c-0.024,0.336-0.06,0.828-0.107,1.476c-0.049,0.648-0.091,1.314-0.126,1.998
		c-0.036,0.684-0.066,1.314-0.091,1.89c-0.023,0.576-0.035,0.949-0.035,1.116c0,0.048,0,0.24,0,0.576
		c0,0.312-0.007,0.678-0.019,1.098c-0.013,0.42-0.018,0.846-0.018,1.278c0,0.432,0,0.768,0,1.008c0,0.144,0,0.408,0,0.792
		c0,0.384,0.005,0.786,0.018,1.206c0.012,0.42,0.019,0.822,0.019,1.206c0,0.36,0,0.612,0,0.756c0.216,0.265,0.443,0.486,0.684,0.666
		c0.239,0.18,0.527,0.27,0.864,0.27c0.288,0,0.533-0.084,0.737-0.252c0.204-0.167,0.396-0.36,0.576-0.576
		c0.181-0.216,0.366-0.408,0.559-0.576c0.191-0.168,0.432-0.252,0.72-0.252c0.191,0,0.3,0.054,0.324,0.162
		c0.023,0.108,0.036,0.234,0.036,0.378v0.36c-0.121,0.12-0.312,0.324-0.576,0.612c-0.265,0.288-0.553,0.594-0.864,0.918
		c-0.312,0.324-0.606,0.63-0.882,0.918c-0.276,0.288-0.463,0.492-0.559,0.612c-0.192,0.192-0.408,0.45-0.647,0.774
		c-0.24,0.324-0.498,0.642-0.774,0.954s-0.546,0.582-0.81,0.81c-0.265,0.228-0.517,0.342-0.756,0.342h-0.072l-3.6-2.88
		c-0.049-0.048-0.145-0.138-0.288-0.27c-0.145-0.132-0.229-0.222-0.252-0.27v-0.072V26.46c0.216-2.688,0.426-5.298,0.63-7.83
		c0.203-2.532,0.306-5.153,0.306-7.866c0-0.144,0-0.336,0-0.576c0-0.24-0.006-0.474-0.018-0.702
		c-0.013-0.228-0.019-0.426-0.019-0.594V8.64l-3.42-3.42h-0.359c-0.121,1.152-0.187,2.208-0.198,3.168
		c-0.013,0.96-0.019,2.004-0.019,3.132c0,0.144,0,0.324,0,0.54c0,0.216,0.006,0.426,0.019,0.63c0.012,0.204,0.018,0.391,0.018,0.558
		c0,0.144,0,0.229,0,0.252l0.181,0.18h2.159c0.12,0,0.181,0.096,0.181,0.288c0,0.168,0,0.265,0,0.288v0.324l-1.44,3.06
		c-0.048,0.096-0.139,0.156-0.27,0.18c-0.133,0.024-0.271,0.048-0.414,0.072c-0.145,0.024-0.276,0.054-0.396,0.09
		s-0.18,0.103-0.18,0.198v4.824l1.979-1.584h0.217c0.335,0,0.504,0.156,0.504,0.468c0,0.216-0.072,0.408-0.217,0.576
		c-0.144,0.168-0.312,0.324-0.504,0.468s-0.39,0.282-0.594,0.414s-0.366,0.27-0.486,0.414l-7.56,5.94
		c-0.144,0.12-0.258,0.186-0.342,0.198c-0.085,0.012-0.211,0.018-0.378,0.018c-0.049,0-0.114-0.006-0.198-0.018
		c-0.084-0.012-0.139-0.018-0.162-0.018c-0.144-0.096-0.408-0.282-0.792-0.558c-0.384-0.275-0.786-0.57-1.206-0.882
		c-0.42-0.312-0.816-0.6-1.188-0.864S19.26,27.12,19.116,27c-0.144-0.12-0.246-0.204-0.306-0.252c-0.06-0.048-0.09-0.144-0.09-0.288
		c0-0.023,0.006-0.054,0.018-0.09c0.012-0.036,0.018-0.066,0.018-0.09c0.456-0.36,0.833-0.731,1.134-1.116
		c0.3-0.384,0.522-0.852,0.666-1.404c0-0.191,0.012-0.534,0.036-1.026c0.023-0.492,0.042-1.014,0.054-1.566
		c0.012-0.552,0.03-1.08,0.054-1.584s0.036-0.852,0.036-1.044v-0.396c0-0.048,0-0.156,0-0.324c0-0.167-0.06-0.252-0.18-0.252h-3.672
		c0-0.072,0.006-0.209,0.018-0.414c0.012-0.204,0.03-0.342,0.054-0.414c0.024-0.216,0.078-0.491,0.162-0.828
		c0.084-0.336,0.162-0.666,0.234-0.99c0.072-0.324,0.138-0.606,0.198-0.846c0.06-0.24,0.102-0.372,0.126-0.396l0.18-0.18
		c0.023,0,0.149-0.012,0.378-0.036c0.228-0.023,0.504-0.054,0.828-0.09c0.324-0.036,0.582-0.054,0.774-0.054
		c0.072,0,0.246,0.006,0.522,0.018c0.275,0.013,0.462,0.018,0.558,0.018V7.56c0-0.144-0.103-0.366-0.306-0.666
		c-0.204-0.3-0.438-0.6-0.702-0.9c-0.264-0.3-0.528-0.564-0.792-0.792c-0.264-0.228-0.444-0.342-0.54-0.342
		c-0.216,0-0.378,0.072-0.486,0.216s-0.247,0.312-0.414,0.504c-0.48,0.552-0.828,1.152-1.044,1.8s-0.366,1.32-0.45,2.016
		c-0.084,0.696-0.126,1.404-0.126,2.124c0,0.696,0,1.356,0,1.98c0,0.168,0,0.528,0,1.08c0,0.552,0,1.188,0,1.908
		c0,0.72,0,1.5,0,2.34c0,0.816,0,1.584,0,2.304c0,0.72,0,1.356,0,1.908c0,0.552,0,0.912,0,1.08s-0.018,0.45-0.054,0.846
		c-0.036,0.396-0.072,0.81-0.108,1.242c-0.036,0.432-0.072,0.846-0.108,1.242c-0.036,0.396-0.066,0.666-0.09,0.81
		c-0.216,0.601-0.486,1.176-0.81,1.728c-0.324,0.552-0.714,1.032-1.17,1.44c-0.456,0.408-0.966,0.738-1.53,0.99
		s-1.182,0.378-1.854,0.378c-0.552,0-1.086-0.066-1.602-0.198c-0.517-0.132-1.026-0.283-1.53-0.45
		c-0.504-0.168-1.014-0.318-1.53-0.45C5.153,31.566,4.62,31.5,4.068,31.5c-0.528,0-0.96,0.102-1.296,0.306
		c-0.336,0.204-0.606,0.474-0.81,0.81c-0.204,0.335-0.36,0.72-0.468,1.152S1.319,34.644,1.296,35.1
		c-0.048,0.144-0.156,0.216-0.324,0.216s-0.276,0-0.324,0c-0.288,0-0.468-0.036-0.54-0.108C0.036,35.136,0,34.956,0,34.668
		C0,34.068,0.042,33.426,0.126,32.742z M10.764,27.738c0.192,0.013,0.36,0.018,0.504,0.018c0.888,0,1.566-0.18,2.034-0.54
		c0.468-0.36,0.81-0.828,1.026-1.404c0.216-0.576,0.348-1.218,0.396-1.926c0.048-0.708,0.072-1.409,0.072-2.106
		c0-0.167,0-0.516,0-1.044c0-0.527,0-1.14,0-1.836c0-0.696,0-1.44,0-2.232c0-0.815,0-1.572,0-2.268c0-0.696,0-1.308,0-1.836
		c0-0.528,0-0.876,0-1.044c0-0.12,0.012-0.342,0.036-0.666c0.024-0.324,0.054-0.678,0.09-1.062c0.036-0.384,0.078-0.75,0.126-1.098
		c0.048-0.348,0.084-0.605,0.108-0.774c0.048-0.384,0.162-0.744,0.342-1.08c0.18-0.335,0.384-0.653,0.612-0.954
		c0.228-0.3,0.45-0.605,0.666-0.918c0.216-0.312,0.396-0.648,0.54-1.008h-0.18h-0.18c-0.048,0.024-0.138,0.054-0.27,0.09
		c-0.132,0.036-0.222,0.066-0.27,0.09c-1.152,0.84-1.944,1.818-2.376,2.934c-0.432,1.116-0.66,2.358-0.684,3.726
		c0,0.216,0,0.744,0,1.584c0,0.816,0,1.705,0,2.664c0,0.96,0,1.849,0,2.664c0,0.816,0,1.332,0,1.548c0,0.192-0.013,0.51-0.036,0.954
		c-0.024,0.444-0.042,0.913-0.054,1.404c-0.012,0.492-0.03,0.96-0.054,1.404c-0.024,0.444-0.036,0.75-0.036,0.918
		c-0.121,0.625-0.336,1.218-0.648,1.782c-0.312,0.564-0.756,0.99-1.332,1.278c-0.264,0.12-0.444,0.18-0.54,0.18
		c-0.096,0-0.216,0.12-0.36,0.36C10.416,27.66,10.571,27.726,10.764,27.738z M25.47,23.238c0.035,0.348,0.107,0.679,0.216,0.99
		c0.107,0.312,0.275,0.582,0.504,0.81c0.228,0.228,0.533,0.342,0.918,0.342c0.168,0,0.378-0.054,0.63-0.162
		c0.252-0.108,0.491-0.239,0.72-0.396c0.229-0.156,0.433-0.33,0.612-0.522c0.18-0.191,0.282-0.372,0.306-0.54
		c0-0.191,0.012-0.527,0.036-1.008c0.023-0.48,0.042-0.984,0.054-1.512c0.013-0.527,0.03-1.031,0.055-1.512
		c0.023-0.48,0.036-0.816,0.036-1.008v-0.108V18.54c-0.024-0.048-0.055-0.138-0.091-0.27c-0.035-0.132-0.066-0.222-0.09-0.27
		c-0.12,0-0.312-0.012-0.576-0.036c-0.264-0.023-0.552-0.042-0.863-0.054c-0.312-0.012-0.606-0.03-0.882-0.054
		c-0.276-0.023-0.463-0.036-0.559-0.036h-0.432c-0.072,0-0.168,0-0.288,0c-0.097,0-0.156,0.061-0.18,0.18
		c0,0.144-0.013,0.414-0.036,0.81c-0.024,0.396-0.049,0.816-0.072,1.26c-0.024,0.444-0.042,0.864-0.054,1.26
		c-0.013,0.396-0.019,0.666-0.019,0.81v0.216C25.416,22.596,25.434,22.89,25.47,23.238z M25.74,12.96
		c0,0.336,0.012,0.517,0.036,0.54l0.36,0.18h3.239c0.12,0,0.204-0.072,0.252-0.216s0.084-0.312,0.108-0.504
		c0.023-0.192,0.029-0.378,0.018-0.558c-0.012-0.18-0.018-0.293-0.018-0.342c0-0.144,0.006-0.498,0.018-1.062
		c0.012-0.563,0.03-1.17,0.055-1.818c0.023-0.648,0.048-1.254,0.071-1.818c0.024-0.563,0.036-0.918,0.036-1.062V6.192V6.12
		l-0.18-0.18c-0.049,0-0.114,0.024-0.198,0.072c-0.084,0.048-0.139,0.084-0.162,0.108c-0.12,0.096-0.336,0.276-0.647,0.54
		c-0.312,0.264-0.643,0.54-0.99,0.828c-0.349,0.288-0.672,0.558-0.972,0.81c-0.301,0.252-0.511,0.426-0.63,0.522
		c-0.192,0.192-0.295,0.36-0.307,0.504c-0.012,0.144-0.03,0.396-0.054,0.756c0,0.048-0.006,0.156-0.019,0.324
		c-0.012,0.168-0.018,0.36-0.018,0.576s0,0.444,0,0.684c0,0.216,0,0.384,0,0.504C25.74,12.36,25.74,12.624,25.74,12.96z"/>
	<path d="M49.175,34.434c-0.168-0.013-0.276-0.018-0.324-0.018c-0.287,0-0.539,0.078-0.756,0.234
		c-0.216,0.156-0.414,0.33-0.594,0.522c-0.18,0.192-0.366,0.366-0.558,0.522c-0.192,0.156-0.421,0.234-0.685,0.234
		c-0.384,0-0.576-0.192-0.576-0.576c0-0.192,0.048-0.354,0.145-0.486c0.096-0.132,0.21-0.252,0.342-0.36s0.258-0.216,0.378-0.324
		c0.12-0.108,0.204-0.258,0.252-0.45l3.96-4.14c0.023-0.023,0.078-0.108,0.162-0.252s0.149-0.239,0.198-0.288V28.98
		c0-0.167-0.097-0.324-0.288-0.468c-0.192-0.144-0.42-0.276-0.684-0.396c-0.265-0.12-0.528-0.222-0.792-0.306
		c-0.265-0.084-0.457-0.15-0.576-0.198l-2.16-0.72c-0.12-0.024-0.187-0.102-0.198-0.234s-0.018-0.234-0.018-0.306
		c0-0.408,0.084-0.792,0.252-1.152c0.167-0.36,0.275-0.756,0.324-1.188V20.7c0-1.08,0-2.064,0-2.952c0-0.888-0.061-1.86-0.181-2.916
		c0-0.024-0.024-0.102-0.071-0.234c-0.049-0.132-0.085-0.234-0.108-0.306c-0.024-0.023-0.061-0.096-0.108-0.216
		s-0.102-0.252-0.162-0.396c-0.06-0.144-0.12-0.276-0.18-0.396c-0.061-0.12-0.09-0.204-0.09-0.252l-0.036-0.072
		c0-0.167,0.113-0.33,0.342-0.486c0.229-0.156,0.486-0.288,0.774-0.396s0.569-0.204,0.846-0.288c0.275-0.084,0.474-0.15,0.594-0.198
		c0.528-0.264,1.009-0.527,1.44-0.792c0.432-0.264,0.84-0.534,1.224-0.81c0.384-0.275,0.769-0.563,1.152-0.864
		c0.384-0.3,0.792-0.618,1.224-0.954c0.168-0.12,0.348-0.18,0.54-0.18h0.181c0.096,0.048,0.281,0.126,0.558,0.234
		c0.275,0.108,0.57,0.216,0.882,0.324c0.312,0.108,0.6,0.216,0.864,0.324c0.264,0.108,0.456,0.174,0.576,0.198
		c0.096,0.048,0.246,0.096,0.45,0.144c0.203,0.048,0.407,0.103,0.611,0.162c0.204,0.06,0.396,0.114,0.576,0.162
		c0.18,0.048,0.294,0.072,0.342,0.072c0.072,0,0.318,0.024,0.738,0.072c0.42,0.048,0.912,0.102,1.476,0.162
		c0.564,0.06,1.122,0.12,1.675,0.18c0.552,0.06,0.995,0.103,1.332,0.126c0.239,0.048,0.449,0.066,0.63,0.054
		c0.18-0.012,0.27,0.15,0.27,0.486c0,0.144-0.036,0.42-0.107,0.828c-0.072,0.408-0.175,0.834-0.307,1.278
		c-0.132,0.444-0.3,0.84-0.504,1.188c-0.204,0.348-0.438,0.522-0.702,0.522c-0.408,0-0.792-0.065-1.151-0.198
		c-0.36-0.132-0.732-0.198-1.116-0.198c-0.072,0-0.156,0-0.252,0c-0.097,0-0.156,0.061-0.18,0.18v1.44
		c0,1.417,0.018,2.838,0.054,4.266c0.036,1.428,0.258,2.826,0.666,4.194c0.119,0.384,0.329,0.84,0.63,1.368
		c0.3,0.528,0.6,1.05,0.9,1.566c0.3,0.517,0.569,0.996,0.81,1.44c0.239,0.444,0.36,0.762,0.36,0.954
		c0,0.264-0.139,0.486-0.414,0.666c-0.276,0.18-0.499,0.342-0.666,0.486c-0.072,0.072-0.175,0.162-0.307,0.27
		s-0.264,0.222-0.396,0.342c-0.133,0.12-0.252,0.221-0.36,0.306c-0.107,0.084-0.174,0.138-0.198,0.162
		c-0.096,0.096-0.318,0.318-0.666,0.666c-0.348,0.348-0.726,0.726-1.134,1.134s-0.786,0.792-1.134,1.152
		c-0.349,0.36-0.57,0.576-0.666,0.648c-0.12,0.12-0.288,0.27-0.504,0.45c-0.216,0.18-0.349,0.27-0.396,0.27
		c-0.023,0-0.096,0.006-0.216,0.018c-0.12,0.012-0.204,0.018-0.252,0.018c-0.456,0-0.864-0.066-1.224-0.198
		c-0.36-0.132-0.756-0.258-1.188-0.378c-0.192-0.048-0.534-0.126-1.025-0.234c-0.492-0.108-1.021-0.216-1.584-0.324
		c-0.564-0.108-1.093-0.21-1.584-0.306c-0.492-0.096-0.835-0.168-1.026-0.216C49.452,34.452,49.343,34.446,49.175,34.434z
		 M53.459,24.912c0.36,0.144,0.768,0.216,1.224,0.216c0.145,0,0.312-0.036,0.505-0.108c0.191-0.072,0.371-0.167,0.54-0.288
		c0.167-0.12,0.312-0.258,0.432-0.414c0.12-0.156,0.18-0.318,0.18-0.486v-10.26c0-0.023-0.21-0.108-0.63-0.252
		s-0.895-0.306-1.422-0.486c-0.528-0.18-1.038-0.342-1.53-0.486s-0.798-0.216-0.918-0.216c-0.048,0-0.09,0.024-0.126,0.072
		c-0.036,0.048-0.054,0.084-0.054,0.108v10.26c0,0.096,0.006,0.229,0.018,0.396c0.012,0.168,0.036,0.342,0.072,0.522
		c0.036,0.18,0.09,0.354,0.162,0.522s0.168,0.288,0.288,0.36C52.679,24.588,53.099,24.768,53.459,24.912z M58.5,31.572
		c0.023,0,0.09,0.012,0.198,0.036c0.107,0.024,0.222,0.048,0.342,0.072c0.12,0.023,0.234,0.042,0.342,0.054
		c0.108,0.012,0.174,0.018,0.198,0.018c0.168,0,0.27-0.024,0.306-0.072c0.036-0.048,0.055-0.132,0.055-0.252
		c0-0.192-0.169-0.6-0.504-1.224c-0.337-0.624-0.715-1.278-1.135-1.962c-0.42-0.684-0.81-1.29-1.17-1.818
		c-0.359-0.527-0.564-0.792-0.611-0.792h-0.181c-0.096,0.072-0.282,0.222-0.558,0.45c-0.276,0.229-0.45,0.378-0.522,0.45
		c-0.12,0.121-0.323,0.324-0.611,0.612s-0.595,0.594-0.918,0.918c-0.324,0.324-0.637,0.63-0.937,0.918s-0.498,0.492-0.594,0.612
		c-0.024,0.048-0.061,0.114-0.108,0.198s-0.071,0.138-0.071,0.162v0.108c0,0.12,0.047,0.21,0.144,0.27
		c0.096,0.06,0.21,0.108,0.342,0.144c0.132,0.036,0.271,0.054,0.414,0.054c0.145,0,0.264-0.012,0.36-0.036l5.04,1.08H58.5z"/>
</g>
</svg>
