<?xml version="1.0" encoding="utf-8"?>
<!-- Generator: Adobe Illustrator 16.0.0, SVG Export Plug-In . SVG Version: 6.00 Build 0)  -->
<!DOCTYPE svg PUBLIC "-//W3C//DTD SVG 1.1 Tiny//EN" "http://www.w3.org/Graphics/SVG/1.1/DTD/svg11-tiny.dtd">
<svg version="1.1" baseProfile="tiny" id="Layer_1" xmlns="http://www.w3.org/2000/svg" xmlns:xlink="http://www.w3.org/1999/xlink"
	 x="0px" y="0px" width="55px" height="30.394px" viewBox="10.339 2.857 55 30.394" xml:space="preserve">
<g>
	<path d="M10.445,30.418c0.07-0.576,0.197-1.147,0.379-1.712c0.182-0.566,0.419-1.097,0.712-1.592
		c0.293-0.495,0.662-0.903,1.106-1.228c0.344-0.262,0.728-0.448,1.152-0.561c0.424-0.11,0.848-0.206,1.273-0.288
		c0.424-0.08,0.838-0.172,1.242-0.272c0.404-0.101,0.758-0.268,1.061-0.5c0.303-0.231,0.55-0.556,0.743-0.969
		c0.192-0.414,0.288-0.986,0.288-1.713c0-0.565-0.106-1.102-0.318-1.605c-0.212-0.505-0.5-0.949-0.864-1.334
		c-0.363-0.384-0.793-0.686-1.288-0.909c-0.495-0.222-1.025-0.333-1.591-0.333c-0.263,0-0.506,0.055-0.727,0.166
		c-0.222,0.111-0.435,0.237-0.637,0.379c-0.202,0.141-0.404,0.269-0.606,0.379c-0.202,0.111-0.414,0.167-0.636,0.167
		c-0.162,0-0.258-0.046-0.288-0.137c-0.03-0.091-0.045-0.207-0.045-0.349c0-0.384,0.101-0.777,0.303-1.182
		c0.202-0.404,0.455-0.783,0.757-1.136c0.303-0.354,0.631-0.672,0.985-0.955c0.353-0.282,0.692-0.505,1.015-0.667
		c0.04-0.019,0.117-0.045,0.228-0.076c0.11-0.03,0.186-0.055,0.227-0.075c0.061,0,0.187-0.01,0.379-0.031
		c0.192-0.019,0.394-0.035,0.606-0.045c0.212-0.01,0.409-0.026,0.591-0.045c0.182-0.021,0.313-0.03,0.394-0.03l0.152-0.151
		c0.202-1.353,0.581-2.5,1.136-3.44c0.555-0.938,1.232-1.757,2.03-2.455c0.798-0.696,1.701-1.327,2.712-1.894
		c1.01-0.565,2.081-1.151,3.212-1.758c0.465-0.242,0.869-0.464,1.212-0.667c0.344-0.201,0.748-0.384,1.212-0.545
		c0.182,0.344,0.47,0.667,0.863,0.969c0.394,0.303,0.792,0.611,1.197,0.925c0.404,0.314,0.758,0.647,1.062,1
		c0.302,0.354,0.474,0.754,0.515,1.197v2.122l0.303-0.151c0.707-0.606,1.303-1.116,1.788-1.53c0.485-0.415,0.98-0.843,1.485-1.288
		c0.505-0.444,0.93-0.818,1.272-1.122c0.344-0.302,0.692-0.605,1.046-0.909c0.353-0.302,0.713-0.605,1.075-0.909h0.212
		c0.121,0,0.289,0.102,0.501,0.304c0.212,0.201,0.443,0.455,0.697,0.758c0.251,0.302,0.524,0.636,0.816,1
		c0.294,0.364,0.593,0.697,0.895,1c0.304,0.302,0.602,0.556,0.895,0.757c0.293,0.202,0.571,0.303,0.834,0.303
		c0.019,0,0.044-0.004,0.075-0.015c0.029-0.01,0.056-0.015,0.076-0.015c0.04,0,0.121-0.021,0.241-0.061
		c0.122-0.041,0.193-0.071,0.212-0.091l1.818-1.667c0.061-0.02,0.112-0.03,0.153-0.03c0.161,0,0.281,0.087,0.363,0.258
		c0.08,0.171,0.121,0.338,0.121,0.5c0,0.021-0.01,0.081-0.029,0.182l-2.272,2.424c-0.243,0.263-0.425,0.596-0.545,1
		c-0.122,0.403-0.193,0.777-0.213,1.121c-0.021,0.283-0.051,0.697-0.09,1.242c-0.041,0.546-0.077,1.106-0.106,1.682
		c-0.03,0.577-0.055,1.106-0.076,1.591c-0.02,0.485-0.029,0.799-0.029,0.939c0,0.041,0,0.202,0,0.485
		c0,0.263-0.007,0.57-0.017,0.924c-0.011,0.354-0.015,0.712-0.015,1.076s0,0.647,0,0.849c0,0.122,0,0.344,0,0.667
		s0.004,0.661,0.015,1.015c0.01,0.354,0.017,0.692,0.017,1.016c0,0.303,0,0.516,0,0.636c0.182,0.224,0.373,0.409,0.575,0.561
		c0.201,0.152,0.443,0.229,0.728,0.229c0.242,0,0.448-0.071,0.62-0.213c0.171-0.141,0.333-0.303,0.485-0.484s0.308-0.344,0.47-0.485
		c0.161-0.142,0.363-0.212,0.606-0.212c0.16,0,0.252,0.045,0.272,0.137c0.02,0.091,0.03,0.197,0.03,0.317v0.304
		c-0.102,0.102-0.263,0.272-0.484,0.515c-0.224,0.242-0.466,0.501-0.727,0.772c-0.264,0.273-0.512,0.53-0.743,0.772
		c-0.232,0.243-0.39,0.415-0.471,0.516c-0.162,0.162-0.344,0.379-0.545,0.652c-0.201,0.271-0.419,0.54-0.651,0.803
		s-0.459,0.49-0.682,0.682s-0.435,0.288-0.637,0.288h-0.06l-3.031-2.425c-0.042-0.04-0.122-0.115-0.242-0.227
		c-0.122-0.112-0.192-0.188-0.212-0.228V25.22v-0.09c0.182-2.264,0.358-4.46,0.53-6.591c0.171-2.131,0.257-4.338,0.257-6.621
		c0-0.121,0-0.283,0-0.485c0-0.201-0.005-0.398-0.015-0.591c-0.012-0.191-0.017-0.358-0.017-0.5V10.13l-2.878-2.879h-0.303
		c-0.102,0.97-0.157,1.859-0.166,2.667c-0.012,0.808-0.017,1.687-0.017,2.636c0,0.122,0,0.273,0,0.455s0.005,0.358,0.017,0.53
		c0.01,0.172,0.015,0.33,0.015,0.47c0,0.121,0,0.192,0,0.212l0.152,0.151h1.817c0.102,0,0.152,0.081,0.152,0.242
		c0,0.142,0,0.223,0,0.243v0.273l-1.212,2.575c-0.04,0.081-0.117,0.132-0.228,0.151c-0.112,0.021-0.228,0.041-0.349,0.061
		c-0.122,0.021-0.232,0.045-0.333,0.075c-0.102,0.031-0.151,0.087-0.151,0.167v4.061l1.665-1.333h0.184
		c0.281,0,0.424,0.131,0.424,0.394c0,0.182-0.061,0.344-0.183,0.484c-0.121,0.142-0.263,0.273-0.425,0.395
		c-0.161,0.121-0.327,0.237-0.499,0.348c-0.172,0.111-0.309,0.229-0.41,0.349l-6.363,5.001c-0.121,0.101-0.217,0.156-0.288,0.166
		c-0.072,0.011-0.178,0.016-0.318,0.016c-0.041,0-0.096-0.005-0.167-0.016c-0.07-0.01-0.117-0.015-0.136-0.015
		c-0.121-0.081-0.344-0.238-0.667-0.47c-0.324-0.231-0.662-0.48-1.016-0.743c-0.353-0.262-0.687-0.505-1-0.727
		c-0.313-0.223-0.532-0.384-0.653-0.485c-0.121-0.101-0.207-0.172-0.258-0.212c-0.05-0.04-0.076-0.121-0.076-0.242
		c0-0.02,0.005-0.045,0.015-0.076c0.01-0.03,0.015-0.056,0.015-0.075c0.384-0.304,0.701-0.615,0.955-0.939
		c0.252-0.323,0.439-0.718,0.561-1.183c0-0.161,0.01-0.449,0.03-0.863c0.02-0.414,0.035-0.854,0.045-1.318
		c0.01-0.464,0.025-0.909,0.046-1.333c0.02-0.424,0.03-0.718,0.03-0.879V18.13c0-0.041,0-0.131,0-0.273
		c0-0.141-0.051-0.212-0.151-0.212h-3.091c0-0.06,0.005-0.176,0.015-0.349c0.011-0.171,0.026-0.288,0.046-0.348
		c0.02-0.183,0.066-0.414,0.136-0.697c0.071-0.283,0.136-0.561,0.197-0.833c0.06-0.273,0.116-0.511,0.167-0.712
		c0.05-0.202,0.085-0.313,0.106-0.333l0.151-0.151c0.02,0,0.125-0.011,0.318-0.031c0.192-0.02,0.424-0.045,0.697-0.075
		c0.273-0.031,0.49-0.046,0.652-0.046c0.061,0,0.207,0.006,0.439,0.016c0.231,0.011,0.389,0.015,0.47,0.015V9.22
		c0-0.121-0.087-0.308-0.258-0.561c-0.171-0.252-0.369-0.505-0.591-0.757c-0.222-0.253-0.445-0.475-0.667-0.667
		c-0.223-0.192-0.374-0.289-0.455-0.289c-0.182,0-0.318,0.061-0.41,0.183c-0.091,0.121-0.208,0.262-0.348,0.424
		c-0.404,0.465-0.697,0.969-0.879,1.515c-0.182,0.545-0.308,1.111-0.378,1.697c-0.071,0.586-0.106,1.182-0.106,1.788
		c0,0.586,0,1.142,0,1.667c0,0.141,0,0.444,0,0.909c0,0.464,0,1,0,1.605c0,0.606,0,1.263,0,1.971c0,0.686,0,1.333,0,1.938
		c0,0.606,0,1.142,0,1.606s0,0.768,0,0.909s-0.016,0.378-0.046,0.712c-0.03,0.333-0.061,0.682-0.091,1.046
		c-0.03,0.363-0.061,0.712-0.091,1.045s-0.056,0.561-0.076,0.682c-0.182,0.506-0.409,0.99-0.682,1.454
		c-0.272,0.466-0.601,0.869-0.985,1.213s-0.813,0.621-1.288,0.833c-0.475,0.213-0.995,0.318-1.561,0.318
		c-0.465,0-0.914-0.056-1.349-0.167c-0.436-0.11-0.864-0.238-1.288-0.379c-0.425-0.142-0.854-0.267-1.288-0.378
		c-0.436-0.111-0.884-0.167-1.349-0.167c-0.444,0-0.808,0.086-1.091,0.258s-0.51,0.399-0.682,0.682s-0.303,0.606-0.394,0.97
		c-0.091,0.364-0.147,0.737-0.167,1.121c-0.04,0.121-0.131,0.182-0.272,0.182s-0.232,0-0.273,0c-0.243,0-0.394-0.029-0.455-0.091
		c-0.061-0.061-0.091-0.212-0.091-0.454C10.339,31.533,10.375,30.993,10.445,30.418z M19.4,26.205
		c0.161,0.012,0.303,0.016,0.424,0.016c0.748,0,1.318-0.151,1.712-0.455c0.394-0.303,0.682-0.696,0.864-1.182
		c0.182-0.485,0.292-1.025,0.333-1.621s0.061-1.187,0.061-1.772c0-0.142,0-0.435,0-0.88c0-0.442,0-0.959,0-1.545
		c0-0.585,0-1.212,0-1.878c0-0.687,0-1.323,0-1.91c0-0.585,0-1.101,0-1.545c0-0.444,0-0.737,0-0.878c0-0.101,0.01-0.288,0.03-0.561
		c0.021-0.273,0.045-0.57,0.076-0.894c0.03-0.323,0.066-0.631,0.106-0.925c0.041-0.292,0.071-0.509,0.091-0.651
		c0.041-0.323,0.136-0.626,0.288-0.909c0.152-0.282,0.323-0.55,0.515-0.803c0.192-0.252,0.379-0.509,0.561-0.772
		c0.182-0.262,0.333-0.546,0.455-0.849h-0.151h-0.151c-0.041,0.02-0.116,0.045-0.228,0.076c-0.111,0.031-0.187,0.056-0.227,0.076
		c-0.97,0.707-1.636,1.531-2,2.47c-0.364,0.939-0.556,1.984-0.576,3.136c0,0.182,0,0.626,0,1.333c0,0.688,0,1.436,0,2.243
		c0,0.808,0,1.556,0,2.243s0,1.122,0,1.303c0,0.161-0.011,0.429-0.031,0.803c-0.02,0.374-0.035,0.769-0.045,1.182
		c-0.01,0.414-0.025,0.809-0.046,1.182c-0.02,0.374-0.03,0.631-0.03,0.772c-0.102,0.526-0.283,1.026-0.545,1.5
		c-0.263,0.476-0.636,0.834-1.121,1.076c-0.222,0.102-0.374,0.151-0.454,0.151c-0.081,0-0.182,0.102-0.304,0.304
		C19.107,26.14,19.237,26.196,19.4,26.205z M31.779,22.417c0.029,0.294,0.09,0.572,0.182,0.834c0.09,0.263,0.231,0.489,0.424,0.682
		c0.192,0.191,0.449,0.288,0.773,0.288c0.142,0,0.318-0.045,0.53-0.137c0.212-0.091,0.413-0.201,0.606-0.333
		c0.192-0.131,0.364-0.277,0.515-0.439c0.151-0.161,0.237-0.313,0.258-0.455c0-0.161,0.01-0.443,0.03-0.848
		c0.02-0.404,0.035-0.829,0.045-1.272c0.012-0.444,0.025-0.868,0.047-1.273c0.02-0.404,0.03-0.687,0.03-0.849v-0.091v-0.06
		c-0.021-0.04-0.046-0.117-0.077-0.228c-0.028-0.111-0.055-0.187-0.075-0.227c-0.102,0-0.263-0.01-0.485-0.03
		c-0.222-0.02-0.464-0.035-0.726-0.045c-0.263-0.011-0.511-0.026-0.743-0.046c-0.232-0.019-0.39-0.03-0.471-0.03h-0.364
		c-0.06,0-0.141,0-0.242,0c-0.082,0-0.131,0.052-0.151,0.152c0,0.121-0.011,0.349-0.03,0.682c-0.021,0.333-0.042,0.687-0.061,1.06
		c-0.02,0.374-0.035,0.728-0.045,1.062c-0.011,0.333-0.016,0.561-0.016,0.682v0.182C31.733,21.877,31.749,22.124,31.779,22.417z
		 M32.006,13.766c0,0.283,0.01,0.435,0.03,0.455l0.303,0.151h2.727c0.102,0,0.172-0.061,0.212-0.182
		c0.041-0.122,0.071-0.263,0.091-0.424c0.02-0.162,0.025-0.318,0.016-0.47c-0.01-0.151-0.016-0.247-0.016-0.288
		c0-0.121,0.006-0.419,0.016-0.894c0.01-0.475,0.025-0.985,0.046-1.531c0.02-0.545,0.041-1.056,0.06-1.531
		c0.021-0.474,0.031-0.772,0.031-0.894V8.069v-0.06l-0.152-0.152c-0.041,0-0.096,0.021-0.166,0.061
		c-0.071,0.04-0.117,0.07-0.137,0.091c-0.101,0.081-0.282,0.232-0.545,0.455c-0.262,0.222-0.541,0.455-0.833,0.696
		c-0.294,0.243-0.565,0.47-0.818,0.683c-0.254,0.212-0.431,0.358-0.531,0.439c-0.162,0.162-0.248,0.303-0.258,0.425
		c-0.01,0.121-0.025,0.333-0.045,0.636c0,0.041-0.005,0.131-0.016,0.272c-0.01,0.143-0.015,0.304-0.015,0.485s0,0.374,0,0.576
		c0,0.182,0,0.323,0,0.424C32.006,13.26,32.006,13.484,32.006,13.766z"/>
	<path d="M51.733,31.842c-0.142-0.011-0.232-0.015-0.272-0.015c-0.242,0-0.454,0.065-0.637,0.196
		c-0.183,0.132-0.349,0.277-0.5,0.439s-0.309,0.309-0.47,0.439S49.5,33.1,49.277,33.1c-0.322,0-0.484-0.162-0.484-0.485
		c0-0.161,0.04-0.298,0.123-0.408c0.08-0.112,0.176-0.212,0.287-0.304c0.11-0.091,0.217-0.182,0.317-0.272
		c0.103-0.091,0.173-0.218,0.212-0.379l3.335-3.485c0.02-0.02,0.065-0.091,0.136-0.212c0.071-0.121,0.125-0.201,0.166-0.242v-0.061
		c0-0.141-0.081-0.272-0.241-0.395c-0.162-0.12-0.354-0.232-0.576-0.333s-0.445-0.187-0.667-0.258
		c-0.224-0.07-0.385-0.126-0.485-0.167l-1.818-0.605c-0.1-0.02-0.156-0.086-0.166-0.196c-0.01-0.112-0.016-0.197-0.016-0.259
		c0-0.343,0.071-0.666,0.213-0.969c0.141-0.304,0.231-0.637,0.272-1v-2.788c0-0.909,0-1.738,0-2.485
		c0-0.748-0.052-1.566-0.152-2.455c0-0.021-0.021-0.086-0.06-0.197c-0.042-0.111-0.071-0.196-0.092-0.257
		c-0.02-0.02-0.051-0.082-0.09-0.182c-0.04-0.101-0.086-0.212-0.137-0.333c-0.051-0.121-0.101-0.233-0.151-0.333
		c-0.052-0.101-0.075-0.172-0.075-0.212l-0.031-0.061c0-0.141,0.095-0.278,0.287-0.41c0.193-0.131,0.41-0.242,0.653-0.333
		c0.241-0.091,0.479-0.172,0.712-0.243c0.23-0.071,0.398-0.126,0.5-0.167c0.443-0.222,0.849-0.444,1.211-0.667
		c0.364-0.222,0.707-0.45,1.031-0.682c0.323-0.232,0.647-0.474,0.97-0.728c0.322-0.252,0.666-0.52,1.03-0.803
		c0.142-0.101,0.293-0.151,0.454-0.151h0.152c0.081,0.04,0.237,0.106,0.47,0.196c0.231,0.091,0.479,0.182,0.743,0.273
		c0.262,0.091,0.505,0.182,0.727,0.273c0.222,0.09,0.385,0.146,0.484,0.167c0.081,0.04,0.208,0.081,0.379,0.121
		c0.172,0.041,0.344,0.086,0.515,0.137c0.172,0.05,0.333,0.096,0.484,0.136c0.152,0.041,0.248,0.06,0.288,0.06
		c0.061,0,0.268,0.021,0.621,0.061c0.354,0.04,0.768,0.086,1.243,0.136c0.476,0.051,0.944,0.101,1.41,0.151
		c0.464,0.051,0.837,0.087,1.121,0.106c0.201,0.041,0.378,0.056,0.53,0.046c0.151-0.011,0.227,0.126,0.227,0.409
		c0,0.122-0.029,0.354-0.09,0.697c-0.06,0.343-0.146,0.702-0.259,1.076c-0.11,0.374-0.251,0.707-0.424,1
		c-0.171,0.293-0.368,0.44-0.591,0.44c-0.343,0-0.667-0.055-0.969-0.167c-0.304-0.111-0.616-0.167-0.939-0.167
		c-0.061,0-0.132,0-0.212,0c-0.082,0-0.132,0.052-0.151,0.152v1.212c0,1.192,0.015,2.389,0.046,3.591
		c0.029,1.202,0.217,2.379,0.561,3.529c0.1,0.324,0.276,0.708,0.529,1.152s0.506,0.884,0.758,1.318
		c0.253,0.435,0.479,0.839,0.683,1.212c0.2,0.374,0.303,0.642,0.303,0.803c0,0.223-0.117,0.409-0.349,0.561
		c-0.232,0.152-0.42,0.288-0.561,0.409c-0.062,0.062-0.147,0.137-0.259,0.228s-0.222,0.188-0.333,0.288
		c-0.112,0.101-0.213,0.186-0.303,0.258c-0.091,0.07-0.146,0.115-0.167,0.136c-0.081,0.081-0.268,0.268-0.561,0.561
		c-0.294,0.293-0.611,0.611-0.954,0.955c-0.344,0.344-0.662,0.666-0.956,0.97c-0.293,0.303-0.479,0.485-0.561,0.545
		c-0.1,0.102-0.241,0.228-0.424,0.379c-0.182,0.151-0.294,0.228-0.333,0.228c-0.019,0-0.081,0.005-0.182,0.015
		c-0.102,0.011-0.172,0.016-0.212,0.016c-0.385,0-0.728-0.056-1.031-0.166c-0.302-0.112-0.636-0.219-0.999-0.318
		c-0.162-0.041-0.45-0.106-0.863-0.197c-0.414-0.092-0.86-0.182-1.333-0.273c-0.476-0.09-0.92-0.177-1.334-0.257
		c-0.414-0.081-0.703-0.142-0.863-0.182C51.966,31.858,51.875,31.852,51.733,31.842z M55.338,23.827
		c0.304,0.12,0.647,0.182,1.031,0.182c0.121,0,0.263-0.03,0.425-0.092c0.16-0.06,0.312-0.141,0.454-0.242
		c0.141-0.102,0.264-0.217,0.363-0.349c0.102-0.131,0.151-0.268,0.151-0.408v-8.637c0-0.02-0.176-0.091-0.529-0.213
		c-0.354-0.121-0.754-0.257-1.196-0.408c-0.446-0.152-0.875-0.288-1.289-0.41c-0.414-0.121-0.671-0.182-0.772-0.182
		c-0.04,0-0.076,0.021-0.105,0.061c-0.03,0.04-0.046,0.071-0.046,0.09v8.637c0,0.08,0.005,0.192,0.016,0.333
		c0.01,0.142,0.03,0.287,0.06,0.439c0.031,0.151,0.076,0.298,0.137,0.439c0.061,0.141,0.142,0.242,0.243,0.303
		C54.682,23.554,55.036,23.705,55.338,23.827z M59.582,29.433c0.021,0,0.076,0.011,0.168,0.03c0.09,0.021,0.186,0.041,0.288,0.061
		c0.1,0.02,0.196,0.035,0.287,0.045c0.091,0.011,0.146,0.016,0.166,0.016c0.142,0,0.228-0.021,0.259-0.061
		c0.029-0.04,0.046-0.111,0.046-0.212c0-0.162-0.143-0.505-0.425-1.03c-0.283-0.525-0.602-1.076-0.955-1.651
		c-0.354-0.576-0.682-1.086-0.984-1.53s-0.476-0.667-0.515-0.667h-0.153c-0.08,0.061-0.236,0.187-0.468,0.379
		c-0.234,0.192-0.38,0.318-0.441,0.379c-0.1,0.102-0.271,0.272-0.514,0.515c-0.242,0.242-0.5,0.5-0.772,0.772
		c-0.272,0.273-0.537,0.53-0.788,0.773c-0.253,0.242-0.42,0.414-0.5,0.515c-0.021,0.041-0.052,0.097-0.092,0.167
		c-0.04,0.071-0.06,0.116-0.06,0.137v0.091c0,0.101,0.039,0.177,0.122,0.228c0.08,0.05,0.176,0.09,0.287,0.12
		c0.111,0.031,0.228,0.046,0.349,0.046c0.122,0,0.222-0.01,0.303-0.03l4.242,0.909H59.582z"/>
</g>
</svg>
