<?xml version="1.0" encoding="utf-8"?>
<!-- Generator: Adobe Illustrator 16.0.0, SVG Export Plug-In . SVG Version: 6.00 Build 0)  -->
<!DOCTYPE svg PUBLIC "-//W3C//DTD SVG 1.1//EN" "http://www.w3.org/Graphics/SVG/1.1/DTD/svg11.dtd">
<svg version="1.1" id="Layer_1" xmlns="http://www.w3.org/2000/svg" xmlns:xlink="http://www.w3.org/1999/xlink" x="0px" y="0px"
	 width="54.292px" height="30px" viewBox="10.688 3.053 54.292 30" enable-background="new 10.688 3.053 54.292 30"
	 xml:space="preserve">
<g>
	<path fill="#222222" d="M10.801,30.257c0.069-0.568,0.195-1.13,0.375-1.689c0.179-0.557,0.414-1.082,0.703-1.571
		c0.289-0.488,0.653-0.892,1.091-1.213c0.339-0.259,0.719-0.44,1.137-0.554c0.418-0.108,0.837-0.203,1.256-0.284
		c0.418-0.079,0.827-0.17,1.226-0.267c0.398-0.102,0.748-0.267,1.047-0.494c0.299-0.229,0.543-0.55,0.733-0.958
		c0.189-0.408,0.284-0.972,0.284-1.69c0-0.557-0.104-1.087-0.314-1.583c-0.209-0.498-0.493-0.937-0.853-1.316
		c-0.358-0.381-0.783-0.679-1.271-0.897c-0.489-0.219-1.012-0.328-1.571-0.328c-0.259,0-0.499,0.054-0.718,0.163
		c-0.219,0.11-0.429,0.234-0.628,0.374c-0.199,0.14-0.399,0.266-0.598,0.374c-0.2,0.11-0.409,0.165-0.628,0.165
		c-0.16,0-0.255-0.045-0.285-0.135c-0.029-0.09-0.044-0.204-0.044-0.346c0-0.379,0.1-0.766,0.299-1.167
		c0.2-0.398,0.449-0.772,0.747-1.12c0.299-0.351,0.623-0.664,0.972-0.943c0.349-0.278,0.683-0.498,1.002-0.658
		c0.04-0.02,0.116-0.044,0.225-0.075c0.108-0.03,0.184-0.054,0.224-0.074c0.06,0,0.185-0.009,0.374-0.031
		c0.189-0.018,0.389-0.033,0.598-0.044c0.209-0.009,0.404-0.024,0.584-0.044c0.179-0.021,0.309-0.028,0.388-0.028l0.15-0.149
		c0.2-1.337,0.574-2.467,1.121-3.396c0.548-0.925,1.216-1.734,2.004-2.423c0.788-0.685,1.678-1.308,2.677-1.869
		c0.997-0.558,2.054-1.136,3.17-1.735c0.459-0.239,0.858-0.458,1.196-0.659c0.339-0.198,0.738-0.378,1.196-0.538
		c0.18,0.339,0.463,0.658,0.852,0.956c0.389,0.299,0.782,0.604,1.181,0.913c0.399,0.31,0.749,0.639,1.048,0.987
		c0.3,0.35,0.47,0.744,0.51,1.182v2.094l0.299-0.149c0.698-0.596,1.286-1.102,1.764-1.508c0.48-0.41,0.967-0.833,1.468-1.271
		c0.497-0.439,0.917-0.808,1.254-1.108c0.339-0.299,0.681-0.597,1.032-0.897c0.349-0.298,0.703-0.598,1.061-0.897h0.21
		c0.119,0,0.285,0.101,0.494,0.3c0.209,0.198,0.437,0.449,0.688,0.75c0.246,0.297,0.517,0.627,0.805,0.987
		c0.29,0.357,0.585,0.686,0.884,0.987c0.301,0.298,0.595,0.548,0.884,0.747c0.289,0.2,0.563,0.299,0.823,0.299
		c0.02,0,0.043-0.004,0.074-0.015c0.026-0.011,0.056-0.016,0.075-0.016c0.039,0,0.117-0.021,0.237-0.06
		c0.119-0.04,0.189-0.07,0.208-0.089l1.794-1.646c0.062-0.021,0.111-0.03,0.151-0.03c0.159,0,0.277,0.086,0.358,0.254
		c0.079,0.169,0.119,0.333,0.119,0.494c0,0.021-0.01,0.08-0.028,0.179l-2.242,2.394c-0.239,0.259-0.42,0.588-0.538,0.987
		c-0.119,0.396-0.19,0.765-0.21,1.106c-0.021,0.277-0.051,0.686-0.089,1.224c-0.04,0.539-0.076,1.092-0.104,1.662
		s-0.055,1.09-0.075,1.57c-0.019,0.48-0.027,0.789-0.027,0.925c0,0.04,0,0.199,0,0.479c0,0.26-0.007,0.563-0.019,0.912
		c-0.01,0.35-0.015,0.703-0.015,1.062s0,0.639,0,0.837c0,0.121,0,0.342,0,0.658c0,0.319,0.005,0.653,0.015,1.004
		c0.012,0.349,0.019,0.682,0.019,1.002c0,0.3,0,0.512,0,0.628c0.18,0.223,0.368,0.403,0.567,0.555
		c0.196,0.15,0.436,0.226,0.718,0.226c0.239,0,0.442-0.068,0.612-0.21c0.169-0.139,0.329-0.299,0.479-0.476
		c0.15-0.181,0.305-0.342,0.464-0.479c0.159-0.14,0.359-0.209,0.598-0.209c0.158,0,0.249,0.044,0.269,0.135
		c0.019,0.091,0.029,0.195,0.029,0.313v0.3c-0.101,0.102-0.259,0.269-0.478,0.509c-0.221,0.238-0.46,0.495-0.719,0.762
		c-0.26,0.27-0.505,0.523-0.732,0.762c-0.229,0.238-0.385,0.41-0.464,0.51c-0.16,0.159-0.34,0.374-0.538,0.644
		c-0.198,0.267-0.415,0.533-0.643,0.792c-0.229,0.26-0.453,0.484-0.674,0.673c-0.221,0.19-0.431,0.284-0.63,0.284H42.43
		l-2.992-2.393c-0.041-0.04-0.12-0.114-0.237-0.225c-0.121-0.11-0.19-0.187-0.211-0.226V25.13v-0.089
		c0.181-2.234,0.354-4.402,0.523-6.506c0.169-2.103,0.254-4.281,0.254-6.535c0-0.119,0-0.278,0-0.477
		c0-0.198-0.005-0.393-0.017-0.584c-0.012-0.188-0.016-0.353-0.016-0.494v-0.213l-2.841-2.841h-0.299
		c-0.101,0.959-0.155,1.835-0.164,2.632c-0.012,0.799-0.018,1.667-0.018,2.604c0,0.118,0,0.268,0,0.447
		c0,0.182,0.006,0.354,0.018,0.523c0.01,0.17,0.016,0.326,0.016,0.464c0,0.12,0,0.19,0,0.211l0.149,0.147h1.797
		c0.101,0,0.149,0.08,0.149,0.239c0,0.14,0,0.22,0,0.24v0.268l-1.196,2.542c-0.04,0.08-0.115,0.13-0.227,0.149
		c-0.109,0.02-0.225,0.04-0.344,0.06c-0.121,0.021-0.229,0.044-0.329,0.074c-0.101,0.03-0.148,0.086-0.148,0.165v4.007l1.643-1.313
		h0.183c0.277,0,0.418,0.129,0.418,0.389c0,0.18-0.06,0.339-0.18,0.479s-0.262,0.268-0.421,0.389
		c-0.157,0.12-0.321,0.234-0.492,0.344c-0.17,0.109-0.305,0.227-0.403,0.346l-6.281,4.936c-0.119,0.1-0.214,0.154-0.284,0.164
		c-0.069,0.011-0.175,0.016-0.312,0.016c-0.04,0-0.094-0.005-0.165-0.016c-0.068-0.01-0.115-0.017-0.133-0.017
		c-0.12-0.079-0.342-0.233-0.66-0.463c-0.319-0.227-0.653-0.473-1.003-0.733c-0.349-0.259-0.678-0.499-0.987-0.718
		c-0.309-0.22-0.525-0.379-0.645-0.479c-0.119-0.1-0.204-0.17-0.254-0.21c-0.049-0.039-0.075-0.119-0.075-0.238
		c0-0.02,0.005-0.045,0.015-0.073c0.01-0.03,0.015-0.058,0.015-0.074c0.379-0.302,0.692-0.607,0.943-0.928
		c0.249-0.318,0.433-0.708,0.554-1.167c0-0.159,0.009-0.443,0.029-0.853c0.02-0.408,0.035-0.842,0.044-1.301
		c0.01-0.458,0.024-0.896,0.045-1.315c0.02-0.419,0.03-0.709,0.03-0.867v-0.331c0-0.04,0-0.129,0-0.268
		c0-0.141-0.051-0.21-0.149-0.21H24.72c0-0.061,0.005-0.175,0.015-0.346c0.011-0.169,0.025-0.284,0.045-0.343
		c0.02-0.181,0.065-0.409,0.135-0.688c0.07-0.279,0.134-0.554,0.194-0.822c0.059-0.268,0.114-0.504,0.165-0.703
		c0.05-0.199,0.084-0.308,0.104-0.329l0.149-0.147c0.02,0,0.124-0.013,0.314-0.031c0.189-0.021,0.418-0.044,0.688-0.074
		c0.27-0.031,0.484-0.045,0.644-0.045c0.06,0,0.204,0.006,0.433,0.016c0.228,0.012,0.384,0.016,0.463,0.016V9.333
		c0-0.117-0.085-0.303-0.254-0.553c-0.169-0.249-0.365-0.498-0.584-0.747c-0.219-0.25-0.439-0.471-0.658-0.659
		c-0.22-0.19-0.369-0.285-0.449-0.285c-0.18,0-0.314,0.06-0.405,0.18c-0.089,0.12-0.205,0.26-0.344,0.418
		c-0.398,0.46-0.688,0.958-0.867,1.497c-0.18,0.538-0.304,1.097-0.373,1.675c-0.07,0.579-0.104,1.167-0.104,1.763
		c0,0.58,0,1.128,0,1.645c0,0.141,0,0.438,0,0.897c0,0.458,0,0.987,0,1.585c0,0.597,0,1.246,0,1.944c0,0.679,0,1.316,0,1.913
		s0,1.127,0,1.584s0,0.76,0,0.897s-0.016,0.373-0.045,0.703c-0.03,0.328-0.06,0.672-0.09,1.032c-0.029,0.358-0.06,0.702-0.089,1.031
		c-0.03,0.328-0.056,0.555-0.075,0.675c-0.18,0.499-0.403,0.975-0.673,1.435c-0.269,0.46-0.593,0.856-0.972,1.197
		c-0.379,0.339-0.802,0.613-1.271,0.822c-0.469,0.21-0.982,0.312-1.541,0.312c-0.458,0-0.902-0.056-1.331-0.165
		c-0.43-0.107-0.853-0.233-1.271-0.374c-0.419-0.14-0.843-0.263-1.271-0.373c-0.431-0.11-0.873-0.165-1.332-0.165
		c-0.438,0-0.797,0.085-1.077,0.255c-0.28,0.17-0.504,0.394-0.673,0.675c-0.169,0.277-0.299,0.597-0.389,0.957
		c-0.089,0.359-0.145,0.728-0.165,1.106c-0.04,0.119-0.129,0.179-0.269,0.179s-0.229,0-0.27,0c-0.24,0-0.389-0.026-0.449-0.089
		c-0.061-0.061-0.09-0.21-0.09-0.448C10.697,31.357,10.732,30.825,10.801,30.257z M19.64,26.098
		c0.159,0.012,0.299,0.018,0.419,0.018c0.738,0,1.301-0.149,1.689-0.449c0.389-0.301,0.673-0.688,0.853-1.168
		c0.18-0.478,0.289-1.01,0.329-1.6c0.041-0.588,0.061-1.172,0.061-1.748c0-0.142,0-0.431,0-0.868c0-0.437,0-0.946,0-1.525
		c0-0.577,0-1.195,0-1.853c0-0.68,0-1.307,0-1.886c0-0.578,0-1.088,0-1.525c0-0.438,0-0.728,0-0.867c0-0.101,0.01-0.284,0.03-0.555
		c0.021-0.268,0.044-0.562,0.075-0.882c0.03-0.319,0.065-0.625,0.104-0.915c0.041-0.288,0.07-0.502,0.09-0.641
		c0.041-0.319,0.134-0.618,0.284-0.897c0.15-0.279,0.319-0.543,0.508-0.792c0.189-0.249,0.374-0.504,0.554-0.763
		c0.18-0.258,0.329-0.539,0.449-0.837h-0.149h-0.149c-0.04,0.02-0.114,0.044-0.225,0.075c-0.11,0.029-0.185,0.055-0.224,0.073
		c-0.958,0.698-1.615,1.511-1.974,2.439c-0.36,0.925-0.549,1.957-0.569,3.095c0,0.179,0,0.618,0,1.315c0,0.68,0,1.417,0,2.214
		c0,0.796,0,1.536,0,2.214c0,0.678,0,1.107,0,1.285c0,0.159-0.011,0.424-0.031,0.793s-0.034,0.76-0.044,1.168
		c-0.01,0.407-0.024,0.798-0.045,1.166c-0.02,0.369-0.029,0.623-0.029,0.761c-0.101,0.52-0.279,1.013-0.538,1.48
		c-0.26,0.472-0.628,0.823-1.106,1.062c-0.22,0.102-0.37,0.149-0.448,0.149c-0.08,0-0.18,0.1-0.3,0.3
		C19.351,26.035,19.479,26.09,19.64,26.098z M31.858,22.36c0.028,0.29,0.088,0.564,0.179,0.823c0.089,0.261,0.228,0.482,0.419,0.675
		c0.189,0.187,0.443,0.284,0.763,0.284c0.14,0,0.314-0.047,0.522-0.137c0.21-0.09,0.409-0.199,0.598-0.329
		c0.189-0.129,0.359-0.271,0.509-0.432c0.148-0.159,0.233-0.31,0.255-0.449c0-0.159,0.011-0.438,0.03-0.839
		c0.02-0.396,0.033-0.816,0.045-1.254c0.012-0.438,0.023-0.856,0.046-1.257c0.02-0.396,0.028-0.678,0.028-0.838v-0.089v-0.061
		c-0.021-0.04-0.046-0.114-0.074-0.225c-0.029-0.11-0.056-0.187-0.075-0.226c-0.102,0-0.259-0.01-0.479-0.028
		c-0.22-0.021-0.457-0.035-0.717-0.044c-0.26-0.013-0.503-0.026-0.732-0.046c-0.229-0.021-0.386-0.029-0.465-0.029h-0.36
		c-0.06,0-0.14,0-0.238,0c-0.081,0-0.13,0.051-0.149,0.148c0,0.119-0.011,0.346-0.028,0.674c-0.021,0.329-0.043,0.678-0.062,1.046
		c-0.02,0.369-0.034,0.721-0.044,1.049c-0.011,0.329-0.017,0.554-0.017,0.673v0.18C31.812,21.827,31.828,22.071,31.858,22.36z
		 M32.082,13.822c0,0.278,0.01,0.429,0.029,0.449l0.299,0.147h2.692c0.102,0,0.17-0.06,0.208-0.179
		c0.041-0.121,0.071-0.261,0.092-0.418c0.021-0.16,0.024-0.314,0.017-0.465c-0.011-0.147-0.017-0.244-0.017-0.284
		c0-0.119,0.006-0.414,0.017-0.882c0.009-0.468,0.023-0.972,0.046-1.511c0.02-0.538,0.04-1.042,0.059-1.511
		c0.021-0.467,0.03-0.761,0.03-0.882V8.199v-0.06L35.402,7.99c-0.041,0-0.096,0.02-0.164,0.06c-0.07,0.04-0.115,0.069-0.136,0.09
		c-0.101,0.08-0.277,0.229-0.538,0.449c-0.258,0.22-0.534,0.449-0.821,0.687c-0.291,0.24-0.558,0.463-0.808,0.674
		c-0.25,0.211-0.426,0.354-0.524,0.434c-0.16,0.16-0.244,0.299-0.254,0.419c-0.01,0.12-0.025,0.329-0.045,0.627
		c0,0.041-0.005,0.131-0.016,0.269c-0.009,0.141-0.016,0.299-0.016,0.479c0,0.178,0,0.369,0,0.566c0,0.181,0,0.319,0,0.42
		C32.082,13.322,32.082,13.544,32.082,13.822z"/>
	<path fill="#222222" d="M51.552,31.662c-0.141-0.011-0.229-0.015-0.269-0.015c-0.238,0-0.448,0.065-0.628,0.194
		c-0.182,0.13-0.345,0.271-0.493,0.432c-0.149,0.16-0.305,0.307-0.465,0.434c-0.158,0.128-0.35,0.197-0.568,0.197
		c-0.318,0-0.479-0.16-0.479-0.479c0-0.159,0.039-0.294,0.121-0.403c0.079-0.11,0.174-0.209,0.284-0.3
		c0.107-0.089,0.214-0.179,0.312-0.269c0.103-0.09,0.172-0.215,0.21-0.374l3.291-3.438c0.021-0.021,0.063-0.092,0.135-0.21
		c0.069-0.119,0.124-0.198,0.164-0.238v-0.062c0-0.139-0.08-0.267-0.238-0.389c-0.16-0.119-0.35-0.229-0.568-0.329
		c-0.219-0.101-0.438-0.186-0.658-0.254c-0.221-0.069-0.38-0.125-0.479-0.165l-1.794-0.598c-0.099-0.02-0.153-0.085-0.163-0.194
		c-0.01-0.108-0.017-0.192-0.017-0.255c0-0.339,0.069-0.657,0.21-0.956c0.14-0.3,0.228-0.629,0.268-0.987v-2.752
		c0-0.897,0-1.716,0-2.453c0-0.738-0.051-1.544-0.15-2.423c0-0.02-0.02-0.084-0.059-0.193c-0.041-0.11-0.07-0.193-0.091-0.253
		c-0.02-0.021-0.051-0.081-0.088-0.181c-0.04-0.099-0.086-0.209-0.136-0.329c-0.052-0.12-0.101-0.229-0.148-0.329
		c-0.053-0.099-0.074-0.169-0.074-0.209l-0.03-0.06c0-0.141,0.093-0.274,0.282-0.405c0.191-0.129,0.405-0.239,0.645-0.329
		c0.237-0.09,0.473-0.169,0.703-0.24c0.227-0.071,0.393-0.125,0.493-0.165c0.437-0.219,0.838-0.438,1.195-0.658
		c0.359-0.219,0.698-0.444,1.018-0.673c0.319-0.229,0.64-0.469,0.957-0.72c0.318-0.249,0.658-0.513,1.018-0.792
		c0.14-0.102,0.289-0.149,0.448-0.149h0.15c0.078,0.04,0.232,0.105,0.462,0.194c0.228,0.089,0.473,0.179,0.734,0.268
		c0.259,0.092,0.498,0.181,0.718,0.27c0.219,0.089,0.38,0.144,0.478,0.165c0.079,0.04,0.205,0.08,0.374,0.119
		c0.17,0.041,0.34,0.085,0.508,0.135c0.17,0.049,0.329,0.095,0.478,0.134c0.149,0.041,0.245,0.061,0.285,0.061
		c0.06,0,0.265,0.021,0.613,0.06c0.348,0.04,0.758,0.085,1.225,0.136c0.472,0.05,0.933,0.099,1.393,0.147
		c0.457,0.05,0.825,0.086,1.106,0.105c0.198,0.041,0.373,0.055,0.521,0.045c0.15-0.011,0.226,0.125,0.226,0.404
		c0,0.121-0.027,0.349-0.089,0.687c-0.06,0.34-0.145,0.693-0.257,1.062c-0.107,0.369-0.248,0.698-0.418,0.987
		c-0.17,0.29-0.362,0.435-0.584,0.435c-0.339,0-0.657-0.055-0.956-0.165c-0.3-0.11-0.607-0.165-0.928-0.165c-0.06,0-0.129,0-0.208,0
		c-0.081,0-0.131,0.051-0.148,0.148v1.198c0,1.175,0.015,2.357,0.045,3.544c0.028,1.187,0.214,2.349,0.555,3.481
		c0.1,0.32,0.271,0.699,0.521,1.138c0.249,0.438,0.5,0.872,0.749,1.301c0.25,0.43,0.472,0.828,0.675,1.196
		c0.196,0.369,0.299,0.634,0.299,0.792c0,0.221-0.116,0.404-0.346,0.555c-0.229,0.149-0.414,0.283-0.554,0.403
		c-0.061,0.062-0.144,0.137-0.256,0.226c-0.111,0.09-0.22,0.186-0.328,0.285c-0.109,0.098-0.211,0.183-0.3,0.254
		c-0.091,0.069-0.144,0.114-0.166,0.134c-0.079,0.08-0.265,0.267-0.554,0.556c-0.29,0.289-0.603,0.602-0.94,0.942
		c-0.34,0.34-0.653,0.657-0.944,0.957c-0.289,0.299-0.473,0.479-0.554,0.538c-0.098,0.101-0.238,0.225-0.418,0.374
		s-0.291,0.227-0.33,0.227c-0.018,0-0.079,0.005-0.179,0.015c-0.102,0.011-0.171,0.016-0.209,0.016c-0.381,0-0.72-0.056-1.018-0.164
		c-0.3-0.109-0.629-0.216-0.986-0.312c-0.16-0.041-0.443-0.105-0.852-0.194c-0.408-0.091-0.849-0.18-1.315-0.271
		c-0.471-0.089-0.908-0.174-1.316-0.253c-0.409-0.08-0.694-0.14-0.853-0.18C51.782,31.678,51.692,31.673,51.552,31.662z
		 M55.11,23.752c0.301,0.118,0.638,0.18,1.018,0.18c0.119,0,0.26-0.028,0.419-0.091c0.158-0.059,0.308-0.139,0.448-0.239
		c0.139-0.101,0.261-0.214,0.358-0.344c0.101-0.13,0.148-0.265,0.148-0.403V14.33c0-0.021-0.174-0.09-0.521-0.21
		C56.63,14,56.236,13.866,55.8,13.717c-0.44-0.15-0.863-0.284-1.271-0.405c-0.409-0.12-0.662-0.179-0.762-0.179
		c-0.041,0-0.075,0.02-0.104,0.06c-0.029,0.04-0.045,0.07-0.045,0.089v8.526c0,0.079,0.005,0.188,0.016,0.329
		c0.012,0.14,0.029,0.283,0.06,0.432c0.03,0.149,0.075,0.294,0.136,0.434c0.061,0.139,0.14,0.239,0.24,0.299
		C54.463,23.483,54.812,23.632,55.11,23.752z M59.299,29.285c0.021,0,0.075,0.011,0.166,0.028c0.089,0.021,0.184,0.04,0.284,0.062
		c0.1,0.02,0.194,0.035,0.283,0.045c0.09,0.01,0.144,0.015,0.164,0.015c0.14,0,0.225-0.02,0.256-0.06
		c0.028-0.039,0.045-0.109,0.045-0.209c0-0.16-0.142-0.498-0.419-1.017c-0.28-0.519-0.594-1.062-0.943-1.63
		c-0.349-0.567-0.672-1.072-0.971-1.509c-0.298-0.438-0.47-0.658-0.509-0.658h-0.151c-0.078,0.06-0.232,0.184-0.461,0.374
		c-0.23,0.188-0.375,0.312-0.435,0.374c-0.1,0.101-0.268,0.267-0.509,0.508c-0.237,0.239-0.493,0.493-0.762,0.763
		c-0.268,0.268-0.528,0.521-0.776,0.761c-0.251,0.239-0.415,0.409-0.493,0.511c-0.021,0.04-0.053,0.095-0.092,0.164
		c-0.04,0.068-0.06,0.113-0.06,0.136v0.089c0,0.102,0.038,0.175,0.12,0.227c0.079,0.05,0.174,0.089,0.283,0.117
		c0.109,0.03,0.225,0.047,0.345,0.047s0.22-0.012,0.299-0.03l4.187,0.897h0.148V29.285z"/>
</g>
</svg>
