<?xml version="1.0" encoding="utf-8"?>
<!-- Generator: Adobe Illustrator 16.0.0, SVG Export Plug-In . SVG Version: 6.00 Build 0)  -->
<!DOCTYPE svg PUBLIC "-//W3C//DTD SVG 1.1//EN" "http://www.w3.org/Graphics/SVG/1.1/DTD/svg11.dtd">
<svg version="1.1" id="Layer_1" xmlns="http://www.w3.org/2000/svg" xmlns:xlink="http://www.w3.org/1999/xlink" x="0px" y="0px"
	 width="36.684px" height="21.672px" viewBox="0 0 36.684 21.672" enable-background="new 0 0 36.684 21.672" xml:space="preserve">
<g>
	<path fill="#222222" d="M0,21.275l1.655-1.694V1.695L0,0l4.528,0.005l6.427,10.88L17.32,0h3.956L19.62,1.695v17.887l1.655,1.695
		h-5.688l1.691-1.695V3.528l-6.803,11.484L3.564,3.384v16.197l1.692,1.694H0z"/>
	<path fill="#222222" d="M25.596,10.476v-3.6c0.528-0.396,1.2-0.698,2.016-0.909c0.816-0.211,1.645-0.315,2.484-0.315
		c1.392,0,2.58,0.374,3.564,1.121c0.983,0.748,1.476,1.676,1.476,2.785v10.163l1.548,1.557h-3.888v-2.629l-4.752,2.701
		c-0.433,0.215-0.816,0.323-1.152,0.323c-0.84,0-1.565-0.418-2.178-1.255s-0.918-1.865-0.918-3.085c0-1.506,0.558-2.772,1.674-3.802
		c1.116-1.028,2.454-1.542,4.014-1.542h3.312V9.414c0-0.725-0.264-1.317-0.792-1.776s-1.165-0.689-1.908-0.689
		c-0.384,0-0.72,0.073-1.008,0.218s-0.576,0.363-0.864,0.654L25.596,10.476z M26.316,17.33c0,0.859,0.15,1.493,0.451,1.898
		s0.668,0.608,1.103,0.608c0.433,0,0.854-0.103,1.264-0.308l3.663-2.164v-4.225H30.24c-1.152,0-2.095,0.387-2.826,1.164
		C26.682,15.08,26.316,16.089,26.316,17.33z"/>
</g>
</svg>
