<?xml version="1.0" encoding="utf-8"?>
<!-- Generator: Adobe Illustrator 16.0.0, SVG Export Plug-In . SVG Version: 6.00 Build 0)  -->
<!DOCTYPE svg PUBLIC "-//W3C//DTD SVG 1.1//EN" "http://www.w3.org/Graphics/SVG/1.1/DTD/svg11.dtd">
<svg version="1.1" id="Layer_1" xmlns="http://www.w3.org/2000/svg" xmlns:xlink="http://www.w3.org/1999/xlink" x="0px" y="0px"
	 width="44.008px" height="26px" viewBox="-3.662 -2.164 44.008 26" enable-background="new -3.662 -2.164 44.008 26"
	 xml:space="preserve">
<g>
	<path fill="#222222" d="M-3.662,23.359l1.985-2.032V-0.13l-1.985-2.033l5.431,0.006l7.711,13.052l7.635-13.058h4.746L19.875-0.13
		v21.458l1.985,2.034h-6.823l2.028-2.034V2.069L8.904,15.846L0.613,1.896v19.431l2.03,2.032H-3.662z"/>
	<path fill="#222222" d="M27.044,10.404V6.085c0.634-0.475,1.439-0.837,2.418-1.091c0.979-0.253,1.975-0.378,2.98-0.378
		c1.67,0,3.096,0.449,4.276,1.345c1.179,0.897,1.771,2.011,1.771,3.341v12.191l1.856,1.868h-4.664v-3.154l-5.7,3.24
		c-0.521,0.258-0.979,0.388-1.383,0.388c-1.008,0-1.877-0.501-2.612-1.505c-0.736-1.004-1.102-2.237-1.102-3.701
		c0-1.807,0.669-3.326,2.008-4.561c1.34-1.233,2.944-1.85,4.815-1.85h3.974V9.13c0-0.87-0.316-1.58-0.95-2.13
		c-0.634-0.55-1.397-0.826-2.289-0.826c-0.46,0-0.863,0.087-1.209,0.261c-0.346,0.174-0.691,0.435-1.037,0.784L27.044,10.404z
		 M27.907,18.627c0,1.03,0.181,1.791,0.541,2.277c0.361,0.484,0.802,0.729,1.324,0.729c0.52,0,1.024-0.124,1.516-0.37l4.395-2.595
		v-5.069h-3.066c-1.383,0-2.515,0.464-3.391,1.396C28.347,15.928,27.907,17.138,27.907,18.627z"/>
</g>
</svg>
