<?xml version="1.0" encoding="utf-8"?>
<!-- Generator: Adobe Illustrator 16.0.0, SVG Export Plug-In . SVG Version: 6.00 Build 0)  -->
<!DOCTYPE svg PUBLIC "-//W3C//DTD SVG 1.1//EN" "http://www.w3.org/Graphics/SVG/1.1/DTD/svg11.dtd">
<svg version="1.1" id="Layer_1" xmlns="http://www.w3.org/2000/svg" xmlns:xlink="http://www.w3.org/1999/xlink" x="0px" y="0px"
	 width="61.197px" height="25.989px" viewBox="0 0 61.197 25.989" enable-background="new 0 0 61.197 25.989" xml:space="preserve">
<g>
	<path d="M6.335,23.505h3.275v2.484H0v-2.484h3.096V2.484H0V0h8.387l6.659,17.746h0.072L21.85,0h7.919v2.484h-3.096v21.021h3.096
		v2.484h-9.503v-2.484h3.167V3.744h-0.072l-7.559,19.978h-1.764L6.407,3.744H6.335V23.505z"/>
	<path d="M38.051,11.699c1.152-1.296,3.384-2.7,5.255-2.7c2.052,0,3.708,1.188,4.607,2.987c1.98-1.943,3.564-2.987,6.191-2.987
		c3.384,0,4.752,3.096,4.752,5.975v8.603h2.34v2.412h-7.955v-2.412h2.52V14.65c0-1.944-0.828-3.06-2.88-3.06
		c-1.584,0-3.671,1.656-4.427,2.808v9.179h2.375v2.412h-7.919v-2.412h2.448V14.65c0-1.944-0.828-3.06-2.88-3.06
		c-1.583,0-3.671,1.656-4.427,2.808v9.179h2.52v2.412h-8.243v-2.412h2.627V11.771h-2.627V9.359h5.723V11.699z"/>
</g>
</svg>
