<?xml version="1.0" encoding="utf-8"?>
<!-- Generator: Adobe Illustrator 16.0.0, SVG Export Plug-In . SVG Version: 6.00 Build 0)  -->
<!DOCTYPE svg PUBLIC "-//W3C//DTD SVG 1.1 Tiny//EN" "http://www.w3.org/Graphics/SVG/1.1/DTD/svg11-tiny.dtd">
<svg version="1.1" baseProfile="tiny" id="Layer_1" xmlns="http://www.w3.org/2000/svg" xmlns:xlink="http://www.w3.org/1999/xlink"
	 x="0px" y="0px" width="50px" height="21.233px" viewBox="11.196 2.377 50 21.233" xml:space="preserve">
<g>
	<path d="M16.372,21.582h2.676v2.029h-7.852v-2.029h2.53V4.407h-2.53V2.377h6.853l5.44,14.5h0.059l5.5-14.5h6.471v2.029h-2.53
		v17.175h2.53v2.029h-7.765v-2.029h2.588V5.437h-0.06l-6.176,16.323h-1.441L16.431,5.437h-0.059V21.582z"/>
	<path d="M42.285,11.936c0.941-1.059,2.766-2.206,4.294-2.206c1.677,0,3.03,0.971,3.765,2.44c1.618-1.587,2.912-2.44,5.059-2.44
		c2.764,0,3.882,2.529,3.882,4.882v7.029h1.912v1.97h-6.499v-1.97h2.059v-7.294c0-1.588-0.676-2.5-2.354-2.5
		c-1.294,0-3,1.353-3.617,2.294v7.5h1.94v1.97h-6.47v-1.97h2v-7.294c0-1.588-0.677-2.5-2.353-2.5c-1.294,0-2.999,1.353-3.618,2.294
		v7.5h2.06v1.97h-6.735v-1.97h2.147v-9.646h-2.147v-1.971h4.676V11.936z"/>
</g>
</svg>
