<?xml version="1.0" encoding="utf-8"?>
<!-- Generator: Adobe Illustrator 16.0.0, SVG Export Plug-In . SVG Version: 6.00 Build 0)  -->
<!DOCTYPE svg PUBLIC "-//W3C//DTD SVG 1.1//EN" "http://www.w3.org/Graphics/SVG/1.1/DTD/svg11.dtd">
<svg version="1.1" id="Layer_1" xmlns="http://www.w3.org/2000/svg" xmlns:xlink="http://www.w3.org/1999/xlink" x="0px" y="0px"
	 width="50.001px" height="21.233px" viewBox="11.196 2.377 50.001 21.233" enable-background="new 11.196 2.377 50.001 21.233"
	 xml:space="preserve">
<g>
	<path fill="#222222" d="M16.372,21.582h2.676v2.028h-7.852v-2.028h2.53V4.407h-2.53v-2.03h6.853l5.44,14.5h0.059l5.5-14.5h6.472
		v2.029h-2.531v17.175h2.531v2.028h-7.766v-2.028h2.588V5.437h-0.06L24.106,21.76h-1.441L16.431,5.437h-0.059V21.582z"/>
	<path fill="#222222" d="M42.285,11.936c0.941-1.059,2.766-2.206,4.294-2.206c1.677,0,3.03,0.972,3.765,2.44
		c1.618-1.587,2.912-2.44,5.059-2.44c2.765,0,3.883,2.529,3.883,4.882v7.029h1.912v1.97h-6.499v-1.97h2.059v-7.294
		c0-1.588-0.676-2.5-2.354-2.5c-1.293,0-3,1.354-3.616,2.294v7.5h1.94v1.97h-6.471v-1.97h2v-7.294c0-1.588-0.677-2.5-2.354-2.5
		c-1.293,0-2.998,1.354-3.617,2.294v7.5h2.061v1.97h-6.736v-1.97h2.147v-9.646h-2.147v-1.972h4.677L42.285,11.936L42.285,11.936z"/>
</g>
</svg>
