<?xml version="1.0" encoding="utf-8"?>
<!-- Generator: Adobe Illustrator 16.0.0, SVG Export Plug-In . SVG Version: 6.00 Build 0)  -->
<!DOCTYPE svg PUBLIC "-//W3C//DTD SVG 1.1//EN" "http://www.w3.org/Graphics/SVG/1.1/DTD/svg11.dtd">
<svg version="1.1" id="Layer_1" xmlns="http://www.w3.org/2000/svg" xmlns:xlink="http://www.w3.org/1999/xlink" x="0px" y="0px"
	 width="51.808px" height="22px" viewBox="10.293 1.993 51.808 22" enable-background="new 10.293 1.993 51.808 22"
	 xml:space="preserve">
<g>
	<path fill="#222222" d="M15.656,21.892h2.772v2.101h-8.135v-2.101h2.621V4.097h-2.621V1.993h7.101l5.636,15.024h0.061L28.79,1.993
		h6.706v2.103h-2.622v17.795h2.622v2.101h-8.047v-2.101h2.682V5.164h-0.062l-6.399,16.913h-1.493L15.717,5.164h-0.061V21.892z"/>
	<path fill="#222222" d="M42.506,11.898c0.974-1.097,2.864-2.286,4.447-2.286c1.738,0,3.14,1.008,3.901,2.529
		c1.676-1.645,3.018-2.529,5.241-2.529c2.866,0,4.023,2.621,4.023,5.059v7.283h1.981v2.04h-6.733v-2.04h2.134v-7.558
		c0-1.646-0.701-2.591-2.44-2.591c-1.339,0-3.107,1.404-3.746,2.378v7.771h2.01v2.04H46.62v-2.04h2.072v-7.558
		c0-1.646-0.7-2.591-2.438-2.591c-1.34,0-3.106,1.404-3.747,2.378v7.771h2.136v2.04h-6.98v-2.04h2.226v-9.994h-2.226V9.915h4.846
		L42.506,11.898L42.506,11.898z"/>
</g>
</svg>
