<?xml version="1.0" encoding="utf-8"?>
<!-- Generator: Adobe Illustrator 16.0.0, SVG Export Plug-In . SVG Version: 6.00 Build 0)  -->
<!DOCTYPE svg PUBLIC "-//W3C//DTD SVG 1.1//EN" "http://www.w3.org/Graphics/SVG/1.1/DTD/svg11.dtd">
<svg version="1.1" id="Layer_1" xmlns="http://www.w3.org/2000/svg" xmlns:xlink="http://www.w3.org/1999/xlink" x="0px" y="0px"
	 width="42.117px" height="26px" viewBox="-0.738 -0.455 42.117 26" enable-background="new -0.738 -0.455 42.117 26"
	 xml:space="preserve">
<g>
	<path fill="#222222" d="M1.501-0.455h4.474l4.663,16.711c0.485,1.79,0.672,2.5,1.009,4.475c0.41-2.163,0.595-2.871,0.931-4.177
		l4.813-17.009h4.512l2.201,25.589h-3.06L19.554,6.371c-0.112-1.641-0.188-4.364-0.188-4.364c-0.259,1.269-0.707,3.022-1.005,4.028
		l-5.483,19.099h-2.611L5.194,6.968C4.672,5.029,4.298,3.759,3.926,1.969c0,0-0.188,3.395-0.298,4.961L2.21,25.134h-2.947
		L1.501-0.455z"/>
	<path fill="#222222" d="M39.814,21.366l1.119,1.865c-1.642,1.492-3.88,2.313-6.266,2.313c-5.149,0-8.244-3.73-8.244-9.885
		c0-3.133,0.633-5.186,2.238-7.013c1.491-1.752,3.32-2.611,5.556-2.611c2.016,0,3.806,0.708,5.036,2.052
		c1.604,1.641,2.051,3.394,2.126,7.833v0.411h-11.6v0.447c0,1.752,0.224,3.097,0.856,4.064c1.046,1.604,2.761,2.276,4.628,2.276
		C37.053,23.12,38.508,22.559,39.814,21.366z M29.78,14.129h8.503c-0.035-2.015-0.296-3.246-0.856-4.141
		c-0.634-1.008-1.939-1.641-3.356-1.641C31.421,8.348,29.929,10.288,29.78,14.129z"/>
</g>
</svg>
