<?xml version="1.0" encoding="utf-8"?>
<!-- Generator: Adobe Illustrator 16.0.0, SVG Export Plug-In . SVG Version: 6.00 Build 0)  -->
<!DOCTYPE svg PUBLIC "-//W3C//DTD SVG 1.1//EN" "http://www.w3.org/Graphics/SVG/1.1/DTD/svg11.dtd">
<svg version="1.1" id="Layer_1" xmlns="http://www.w3.org/2000/svg" xmlns:xlink="http://www.w3.org/1999/xlink" x="0px" y="0px"
	 width="40.643px" height="25.089px" viewBox="0 0 40.643 25.089" enable-background="new 0 0 40.643 25.089" xml:space="preserve">
<g>
	<path fill="#222222" d="M2.16,0h4.318l4.5,16.126c0.468,1.728,0.648,2.412,0.973,4.318c0.396-2.087,0.575-2.771,0.899-4.031
		L17.494,0h4.354l2.124,24.693h-2.952L19.581,6.587c-0.108-1.583-0.181-4.211-0.181-4.211C19.15,3.6,18.718,5.292,18.43,6.263
		l-5.291,18.43h-2.52L5.724,7.163C5.22,5.292,4.859,4.067,4.5,2.34c0,0-0.181,3.275-0.288,4.787L2.844,24.693H0L2.16,0z"/>
	<path fill="#222222" d="M39.131,21.057l1.08,1.8c-1.584,1.439-3.744,2.232-6.047,2.232c-4.968,0-7.955-3.6-7.955-9.539
		c0-3.023,0.611-5.003,2.16-6.767c1.439-1.691,3.204-2.52,5.362-2.52c1.944,0,3.672,0.684,4.859,1.98
		c1.548,1.583,1.979,3.275,2.052,7.559v0.396H29.448v0.432c0,1.691,0.216,2.988,0.827,3.922c1.009,1.549,2.664,2.197,4.465,2.197
		C36.467,22.75,37.871,22.208,39.131,21.057z M29.448,14.074h8.206c-0.035-1.944-0.287-3.132-0.827-3.996
		c-0.612-0.972-1.872-1.583-3.239-1.583C31.032,8.495,29.592,10.367,29.448,14.074z"/>
</g>
</svg>
