<?xml version="1.0" encoding="utf-8"?>
<!-- Generator: Adobe Illustrator 16.0.0, SVG Export Plug-In . SVG Version: 6.00 Build 0)  -->
<!DOCTYPE svg PUBLIC "-//W3C//DTD SVG 1.1//EN" "http://www.w3.org/Graphics/SVG/1.1/DTD/svg11.dtd">
<svg version="1.1" id="Layer_1" xmlns="http://www.w3.org/2000/svg" xmlns:xlink="http://www.w3.org/1999/xlink" x="0px" y="0px"
	 width="40.643px" height="25.089px" viewBox="0 0 40.643 25.089" enable-background="new 0 0 40.643 25.089" xml:space="preserve">
<g>
	<path d="M2.16,0h4.319l4.5,16.126c0.468,1.728,0.648,2.412,0.972,4.319c0.396-2.087,0.576-2.771,0.9-4.031L17.494,0h4.355
		l2.124,24.693h-2.952l-1.44-18.106c-0.108-1.583-0.18-4.211-0.18-4.211C19.15,3.6,18.718,5.292,18.43,6.263l-5.291,18.43h-2.52
		L5.724,7.163C5.22,5.292,4.859,4.067,4.5,2.34c0,0-0.18,3.275-0.288,4.787L2.844,24.693H0L2.16,0z"/>
	<path d="M39.131,21.057l1.08,1.8c-1.584,1.44-3.744,2.232-6.047,2.232c-4.967,0-7.955-3.6-7.955-9.539
		c0-3.023,0.612-5.003,2.16-6.767c1.44-1.691,3.204-2.52,5.363-2.52c1.944,0,3.672,0.684,4.859,1.98
		c1.548,1.583,1.98,3.275,2.052,7.559v0.396H29.448v0.432c0,1.692,0.216,2.988,0.828,3.923c1.008,1.548,2.664,2.196,4.464,2.196
		C36.467,22.749,37.871,22.209,39.131,21.057z M29.448,14.074h8.207c-0.036-1.944-0.288-3.132-0.828-3.996
		c-0.612-0.972-1.872-1.583-3.239-1.583C31.032,8.495,29.592,10.367,29.448,14.074z"/>
</g>
</svg>
