<?xml version="1.0" encoding="utf-8"?>
<!-- Generator: Adobe Illustrator 16.0.0, SVG Export Plug-In . SVG Version: 6.00 Build 0)  -->
<!DOCTYPE svg PUBLIC "-//W3C//DTD SVG 1.1//EN" "http://www.w3.org/Graphics/SVG/1.1/DTD/svg11.dtd">
<svg version="1.1" id="Layer_1" xmlns="http://www.w3.org/2000/svg" xmlns:xlink="http://www.w3.org/1999/xlink" x="0px" y="0px"
	 width="45.181px" height="30.712px" viewBox="0 0 45.181 30.712" enable-background="new 0 0 45.181 30.712" xml:space="preserve">
<g>
	<path d="M31.464,28.692c0.12,0.265,0.144,0.54,0.072,0.828c-0.072,0.312-0.252,0.48-0.54,0.504c-0.84,0-1.68,0-2.52,0
		c-1.008-0.048-1.596-0.419-1.764-1.116c-0.024-0.096-0.072-0.864-0.144-2.304c-0.072-0.984-0.312-1.715-0.72-2.196
		c-0.168-1.752-0.432-4.284-0.792-7.596c-0.121-0.144-0.204-0.456-0.252-0.936c-0.024-0.384-0.168-0.648-0.432-0.792l-0.396,0.18
		c-1.728,3.408-4.32,8.484-7.776,15.228c-0.288,0.167-0.54,0.239-0.756,0.216c-0.216-0.36-0.552-1.032-1.008-2.016
		c-0.384-0.864-0.769-1.523-1.152-1.98c-0.864-1.944-1.776-3.708-2.736-5.292c-0.696-1.416-1.836-3.528-3.42-6.336
		c-0.264,0-0.408,0.144-0.432,0.432c-0.049,0.36-0.132,0.588-0.252,0.684c-0.072,1.488-0.336,3.72-0.792,6.696
		c-0.192,1.464-0.48,3.672-0.864,6.624c-0.336,0.408-0.852,0.612-1.548,0.612c-0.265,0-0.72-0.047-1.368-0.144
		c-0.648-0.096-1.128-0.12-1.44-0.072C0.144,29.724,0,29.472,0,29.16c0-0.144,0.048-0.384,0.144-0.72
		c0.096-0.336,0.144-0.588,0.144-0.756c0-0.144-0.012-0.264-0.036-0.36c0.336-1.512,0.648-3.384,0.936-5.616
		c0.432-3.24,0.684-5.076,0.756-5.508c0.168-0.408,0.276-1.152,0.324-2.232c0.048-0.984,0.204-1.716,0.468-2.196
		c0-0.671,0.126-1.733,0.378-3.186c0.252-1.452,0.378-2.562,0.378-3.33c0-0.552-0.048-1.067-0.144-1.548
		c0.288-0.24,0.456-0.923,0.504-2.052C3.875,0.672,4.188,0.18,4.788,0.18C6.636,4.02,10.26,10.908,15.66,20.844
		c0.768-0.768,1.536-1.956,2.304-3.564c0.912-1.944,1.572-3.204,1.98-3.78c0.744-1.776,1.896-3.936,3.456-6.48
		c0.192-0.456,0.756-1.56,1.692-3.312c0.72-1.368,1.188-2.52,1.404-3.456C26.688,0.084,26.856,0,27,0
		c0.216,0,0.372,0.216,0.468,0.648c0.072,0.336,0.144,0.672,0.216,1.008c0.24,2.016,0.768,5.676,1.584,10.98
		c0.696,4.608,1.164,8.268,1.404,10.98c0.168,0.552,0.312,1.404,0.432,2.556C31.248,27.468,31.368,28.309,31.464,28.692z"/>
	<path d="M45.181,12.6c0,0.744,0,1.5,0,2.268c-0.024,0.96-0.348,1.548-0.972,1.764c-0.264,0-0.69-0.042-1.278-0.126
		c-0.588-0.083-1.026-0.126-1.314-0.126c-0.601,0-1.044,0.144-1.332,0.432c0,0.6-0.024,1.512-0.072,2.736
		c-0.048,1.224-0.072,2.137-0.072,2.736c0,2.544,0.408,4.56,1.224,6.048c0.408,0.121,0.972,0.612,1.692,1.476
		c0,0.36-0.204,0.564-0.612,0.612c-0.696,0.048-1.056,0.084-1.08,0.108c-0.192,0-0.408,0-0.648,0c-0.264,0-0.678,0.018-1.242,0.054
		c-0.564,0.036-0.979,0.054-1.242,0.054c-0.648,0-1.176-0.108-1.584-0.324c-1.104-1.224-1.704-2.916-1.8-5.076
		c0.239-2.328,0.36-5.135,0.36-8.424c-0.192-0.216-0.558-0.324-1.098-0.324s-0.882-0.126-1.026-0.378s-0.216-0.558-0.216-0.918
		c0-0.216,0.042-0.563,0.126-1.044c0.083-0.479,0.126-0.828,0.126-1.044c0-0.192-0.013-0.36-0.036-0.504
		c0.192-0.144,0.492-0.216,0.9-0.216h0.324c0.479,0,0.84-0.108,1.08-0.324c0.072-0.336,0.108-0.684,0.108-1.044
		c0-0.456-0.06-1.032-0.18-1.728c-0.144-0.864-0.229-1.392-0.252-1.584c0.096-0.648,0.336-1.044,0.72-1.188
		c0.167,0.048,0.348,0.072,0.54,0.072c0.36,0,0.9-0.12,1.62-0.36c0.72-0.24,1.224-0.36,1.512-0.36c0.671,0,1.104,0.43,1.296,1.289
		c-0.168,0.597-0.264,1.409-0.288,2.435c0,1.193-0.036,2.005-0.108,2.435c0.24,0.238,0.66,0.358,1.26,0.358
		c0.912-0.02,1.379-0.03,1.404-0.03c0.12,0.021,0.348,0,0.684-0.06c0.336-0.06,0.588-0.09,0.756-0.09
		C44.796,12.204,45.037,12.336,45.181,12.6z"/>
</g>
</svg>
