<?xml version="1.0" encoding="utf-8"?>
<!-- Generator: Adobe Illustrator 16.0.0, SVG Export Plug-In . SVG Version: 6.00 Build 0)  -->
<!DOCTYPE svg PUBLIC "-//W3C//DTD SVG 1.1//EN" "http://www.w3.org/Graphics/SVG/1.1/DTD/svg11.dtd">
<svg version="1.1" id="Layer_1" xmlns="http://www.w3.org/2000/svg" xmlns:xlink="http://www.w3.org/1999/xlink" x="0px" y="0px"
	 width="38.25px" height="26px" viewBox="3.466 2.355 38.25 26" enable-background="new 3.466 2.355 38.25 26" xml:space="preserve"
	>
<g>
	<path fill="#222222" d="M30.103,26.646c0.102,0.226,0.122,0.458,0.062,0.701c-0.062,0.265-0.214,0.407-0.457,0.427
		c-0.712,0-1.423,0-2.135,0c-0.854-0.04-1.352-0.354-1.493-0.943c-0.021-0.082-0.061-0.732-0.123-1.952
		c-0.06-0.832-0.264-1.452-0.609-1.857c-0.142-1.483-0.366-3.628-0.67-6.432c-0.103-0.122-0.173-0.387-0.214-0.793
		c-0.021-0.324-0.142-0.548-0.366-0.67l-0.335,0.152c-1.464,2.885-3.658,7.183-6.583,12.893c-0.244,0.141-0.457,0.202-0.641,0.182
		c-0.183-0.304-0.467-0.873-0.853-1.706c-0.326-0.73-0.652-1.29-0.975-1.677c-0.731-1.646-1.504-3.138-2.316-4.479
		c-0.588-1.198-1.554-2.986-2.895-5.364c-0.224,0-0.345,0.122-0.367,0.366c-0.041,0.304-0.111,0.498-0.213,0.579
		c-0.061,1.26-0.285,3.15-0.671,5.669c-0.162,1.239-0.406,3.109-0.73,5.607c-0.285,0.346-0.722,0.518-1.312,0.518
		c-0.224,0-0.609-0.04-1.157-0.122c-0.548-0.081-0.955-0.102-1.219-0.06c-0.243-0.162-0.365-0.376-0.365-0.64
		c0-0.123,0.041-0.326,0.123-0.61c0.082-0.285,0.123-0.498,0.123-0.641c0-0.122-0.011-0.223-0.031-0.303
		c0.284-1.281,0.548-2.866,0.793-4.756c0.366-2.743,0.58-4.297,0.64-4.663c0.143-0.345,0.234-0.975,0.274-1.89
		c0.041-0.833,0.173-1.453,0.396-1.859c0-0.568,0.107-1.467,0.321-2.697c0.213-1.229,0.32-2.169,0.32-2.819
		c0-0.467-0.042-0.903-0.123-1.311c0.244-0.203,0.386-0.781,0.427-1.737c0.018-0.833,0.283-1.25,0.791-1.25
		c1.564,3.25,4.632,9.082,9.204,17.494c0.651-0.65,1.3-1.655,1.951-3.018c0.772-1.646,1.331-2.712,1.676-3.2
		c0.63-1.503,1.605-3.332,2.926-5.486c0.162-0.386,0.641-1.321,1.432-2.804c0.61-1.158,1.006-2.133,1.189-2.926
		c0.162-0.142,0.305-0.213,0.427-0.213c0.183,0,0.315,0.183,0.396,0.549c0.061,0.284,0.122,0.569,0.184,0.854
		c0.202,1.707,0.65,4.805,1.341,9.294c0.589,3.902,0.985,7,1.188,9.296c0.143,0.468,0.265,1.188,0.367,2.164
		C29.92,25.608,30.022,26.321,30.103,26.646z"/>
	<path fill="#222222" d="M41.715,13.023c0,0.629,0,1.27,0,1.92c-0.02,0.813-0.295,1.31-0.823,1.493
		c-0.224,0-0.584-0.035-1.081-0.106c-0.499-0.07-0.869-0.107-1.112-0.107c-0.509,0-0.884,0.123-1.128,0.367
		c0,0.509-0.02,1.281-0.061,2.315c-0.041,1.036-0.061,1.811-0.061,2.316c0,2.154,0.345,3.86,1.037,5.121
		c0.345,0.103,0.822,0.518,1.432,1.25c0,0.304-0.173,0.476-0.519,0.518c-0.589,0.039-0.894,0.07-0.913,0.091
		c-0.163,0-0.346,0-0.55,0c-0.223,0-0.573,0.015-1.051,0.046c-0.477,0.03-0.828,0.045-1.052,0.045c-0.548,0-0.995-0.091-1.341-0.273
		c-0.934-1.036-1.442-2.468-1.523-4.297c0.202-1.971,0.305-4.348,0.305-7.132c-0.162-0.184-0.474-0.274-0.931-0.274
		s-0.746-0.107-0.868-0.32c-0.122-0.214-0.183-0.473-0.183-0.777c0-0.183,0.036-0.477,0.106-0.884
		c0.07-0.405,0.107-0.701,0.107-0.884c0-0.162-0.012-0.305-0.031-0.426c0.162-0.122,0.417-0.183,0.762-0.183h0.274
		c0.406,0,0.711-0.091,0.914-0.274c0.061-0.284,0.091-0.579,0.091-0.884c0-0.386-0.051-0.874-0.152-1.463
		c-0.122-0.731-0.193-1.178-0.214-1.341c0.082-0.548,0.285-0.884,0.61-1.006c0.142,0.041,0.295,0.061,0.457,0.061
		c0.305,0,0.762-0.102,1.371-0.305c0.61-0.204,1.037-0.305,1.28-0.305c0.568,0,0.935,0.364,1.098,1.091
		c-0.143,0.505-0.224,1.192-0.244,2.061c0,1.01-0.029,1.698-0.091,2.062c0.203,0.202,0.559,0.303,1.067,0.303
		c0.771-0.016,1.167-0.025,1.188-0.025c0.103,0.018,0.296,0,0.58-0.051c0.284-0.051,0.498-0.076,0.64-0.076
		C41.39,12.688,41.594,12.799,41.715,13.023z"/>
</g>
</svg>
