<?xml version="1.0" encoding="utf-8"?>
<!-- Generator: Adobe Illustrator 16.0.0, SVG Export Plug-In . SVG Version: 6.00 Build 0)  -->
<!DOCTYPE svg PUBLIC "-//W3C//DTD SVG 1.1//EN" "http://www.w3.org/Graphics/SVG/1.1/DTD/svg11.dtd">
<svg version="1.1" id="Layer_1" xmlns="http://www.w3.org/2000/svg" xmlns:xlink="http://www.w3.org/1999/xlink" x="0px" y="0px"
	 width="30.057px" height="23.396px" viewBox="0 0 30.057 23.396" enable-background="new 0 0 30.057 23.396" xml:space="preserve">
<g>
	<path fill="#222222" d="M20.589,23.397v-1.008c2.916-0.288,3.061-0.468,3.023-4.284L23.505,3.419h-0.144l-8.783,19.726h-0.72
		L5.795,3.923H5.723l-0.54,10.259c-0.145,2.952-0.145,4.536-0.108,5.976c0.072,1.728,0.937,1.979,3.312,2.231v1.008H0v-1.008
		c2.087-0.252,2.809-0.647,3.061-2.16c0.18-1.26,0.396-2.844,0.684-6.587l0.504-7.486c0.324-4.681,0.145-4.824-3.132-5.147V0h5.903
		l8.207,17.998L23.541,0h6.119v1.008c-3.167,0.288-3.419,0.36-3.312,4.067l0.359,13.029c0.108,3.816,0.216,3.996,3.349,4.284v1.008
		H20.589z"/>
</g>
</svg>
