<?xml version="1.0" encoding="utf-8"?>
<!-- Generator: Adobe Illustrator 16.0.0, SVG Export Plug-In . SVG Version: 6.00 Build 0)  -->
<!DOCTYPE svg PUBLIC "-//W3C//DTD SVG 1.1//EN" "http://www.w3.org/Graphics/SVG/1.1/DTD/svg11.dtd">
<svg version="1.1" id="Layer_1" xmlns="http://www.w3.org/2000/svg" xmlns:xlink="http://www.w3.org/1999/xlink" x="0px" y="0px"
	 width="33.399px" height="26px" viewBox="-1.671 -1.302 33.399 26" enable-background="new -1.671 -1.302 33.399 26"
	 xml:space="preserve">
<g>
	<path fill="#222222" d="M21.207,24.698v-1.119c3.241-0.32,3.401-0.521,3.359-4.761l-0.118-16.32h-0.161l-9.759,21.921h-0.801
		L4.768,3.058H4.688l-0.6,11.401c-0.161,3.279-0.161,5.039-0.119,6.641c0.079,1.919,1.041,2.199,3.68,2.479v1.119h-9.319v-1.119
		c2.319-0.28,3.121-0.72,3.401-2.4c0.201-1.401,0.44-3.161,0.761-7.32l0.56-8.319c0.36-5.201,0.16-5.361-3.48-5.72v-1.121h6.559
		l9.12,20l9.24-20h6.8v1.12c-3.52,0.32-3.8,0.4-3.682,4.52l0.399,14.479c0.12,4.239,0.24,4.44,3.722,4.761v1.119L21.207,24.698
		L21.207,24.698z"/>
</g>
</svg>
