<?xml version="1.0" encoding="utf-8"?>
<!-- Generator: Adobe Illustrator 16.0.0, SVG Export Plug-In . SVG Version: 6.00 Build 0)  -->
<!DOCTYPE svg PUBLIC "-//W3C//DTD SVG 1.1 Tiny//EN" "http://www.w3.org/Graphics/SVG/1.1/DTD/svg11-tiny.dtd">
<svg version="1.1" baseProfile="tiny" id="Layer_1" xmlns="http://www.w3.org/2000/svg" xmlns:xlink="http://www.w3.org/1999/xlink"
	 x="0px" y="0px" width="30.463px" height="25.154px" viewBox="0 0 30.463 25.154" xml:space="preserve">
<g>
	<path d="M1.688,8.191c-0.035-0.234-0.076-0.48-0.123-0.738c0,0.105,0.018,0.023,0.053-0.246s0.082-0.732,0.141-1.389
		C1.852,5.689,1.919,5.575,1.96,5.476s0.079-0.19,0.114-0.272C1.969,5.074,1.89,4.966,1.837,4.878s-0.079-0.161-0.079-0.22
		c0.094-0.715,0.182-1.395,0.264-2.039c0.012-0.176,0.114-0.375,0.308-0.598s0.46-0.463,0.8-0.721
		c0.27-0.223,0.533-0.41,0.791-0.562s0.504-0.275,0.738-0.369c0.316-0.105,0.504-0.193,0.562-0.264S5.344,0,5.414,0
		c0.188,0,0.331,0.094,0.431,0.281S5.994,0.75,5.994,1.125c0,0.199-0.05,0.475-0.149,0.826S5.695,2.561,5.695,2.725
		c0,0.07,0.009,0.34,0.026,0.809s0.044,1.143,0.079,2.021c0.012,0.633,0.103,1.307,0.272,2.021s0.39,1.459,0.66,2.232
		c0.363,1.008,0.756,1.761,1.179,2.259c0.422,0.498,0.885,0.747,1.39,0.747c0.398,0,0.926-0.258,1.583-0.773
		c0.656-0.516,1.431-1.289,2.321-2.32c0.68-0.797,1.287-1.541,1.82-2.232s0.965-1.324,1.293-1.898
		c0.305-0.516,0.662-0.979,1.073-1.389c0.41-0.41,0.879-0.785,1.407-1.125c0.164-0.094,0.299-0.17,0.404-0.229
		S19.392,2.76,19.45,2.76c0.208,0,0.367,0.158,0.477,0.475c0.11,0.316,0.165,0.785,0.165,1.406c-0.07,0.574-0.129,1.143-0.176,1.705
		c-0.105,0.879-0.26,1.793-0.465,2.742s-0.471,1.934-0.799,2.953c-0.164,0.516-0.305,0.967-0.421,1.354
		c-0.117,0.387-0.199,0.715-0.246,0.984c-0.023,0.152-0.056,0.343-0.097,0.571s-0.085,0.495-0.132,0.8
		c-0.116,0.293-0.245,0.586-0.386,0.879c-0.117,0.234-0.214,0.516-0.29,0.844s-0.144,0.709-0.201,1.143
		c0,0.082-0.006,0.188-0.018,0.316s-0.023,0.264-0.035,0.404c-0.27,1.195-0.545,2.355-0.825,3.48
		c-0.023,0.105-0.076,0.24-0.158,0.404c-0.152,0.047-0.325,0.146-0.518,0.299c-0.193,0.152-0.396,0.363-0.605,0.633
		c-0.211,0.234-0.387,0.407-0.527,0.519s-0.245,0.167-0.315,0.167c-0.094,0-0.17-0.029-0.229-0.088s-0.088-0.158-0.088-0.299
		c0.012-0.094,0.029-0.17,0.053-0.229c0.164-0.398,0.308-0.973,0.431-1.723s0.237-1.676,0.343-2.777
		c0.012-0.234,0.105-0.867,0.281-1.898s0.434-2.461,0.773-4.289c0.047-0.293,0.108-0.653,0.185-1.081s0.173-0.917,0.29-1.468
		c0.082-0.281,0.149-0.524,0.202-0.729s0.079-0.354,0.079-0.448c0-0.117-0.021-0.202-0.062-0.255s-0.103-0.079-0.185-0.079
		c-0.07,0-0.199,0.091-0.388,0.272c-0.188,0.182-0.422,0.454-0.703,0.817c-0.164,0.199-0.332,0.41-0.502,0.633
		s-0.349,0.439-0.536,0.65c-0.317,0.328-0.61,0.639-0.88,0.932l-1.302,1.301c-0.117,0.07-0.261,0.158-0.431,0.264
		c-0.171,0.105-0.373,0.229-0.607,0.369c-0.223,0.352-0.578,0.653-1.064,0.905s-0.936,0.378-1.346,0.378
		c-0.492,0-0.965-0.155-1.416-0.466s-0.888-0.788-1.31-1.433c-0.188-0.316-0.373-0.633-0.555-0.949s-0.378-0.633-0.589-0.949
		l-0.088,0.018c-0.059,0.07-0.167,0.545-0.325,1.424s-0.36,2.168-0.606,3.867c-0.27,1.746-0.475,3.117-0.615,4.113
		s-0.211,1.641-0.211,1.934c-0.023,0.398-0.097,0.706-0.22,0.923s-0.313,0.343-0.571,0.378c-0.129,0.012-0.311,0.044-0.545,0.097
		s-0.516,0.12-0.844,0.202c-0.059-0.012-0.111-0.032-0.158-0.062s-0.07-0.073-0.07-0.132l0.105-0.65L0,23.643
		c0.07-0.363,0.141-0.715,0.211-1.055c0.047-0.703,0.088-1.365,0.123-1.986c0.012-0.129,0.056-0.346,0.132-0.65
		s0.114-0.533,0.114-0.686c0-0.082-0.018-0.202-0.053-0.36s-0.053-0.278-0.053-0.36c0-0.645,0.103-1.6,0.308-2.865
		s0.308-2.227,0.308-2.883c-0.035-0.27-0.076-0.539-0.123-0.809c0.059-0.422,0.152-0.949,0.281-1.582S1.523,9.035,1.688,8.191z"/>
	<path d="M19.688,20.373l0.105-0.123l0.053-0.176c0.316-0.434,0.873-0.999,1.67-1.696s1.348-1.263,1.652-1.696
		c0.117-0.188,0.252-0.322,0.404-0.404s0.305-0.123,0.457-0.123c0.41,0,0.756,0.103,1.037,0.308s0.469,0.513,0.562,0.923
		c0.082,0.363,0.158,0.729,0.229,1.099s0.129,0.741,0.176,1.116c0.082,0.234,0.182,0.589,0.299,1.063s0.205,0.747,0.264,0.817
		c0.059,0.117,0.146,0.202,0.264,0.255s0.264,0.079,0.439,0.079c0.211,0,0.428-0.038,0.65-0.114s0.451-0.208,0.686-0.396
		c0.176-0.152,0.36-0.308,0.554-0.466s0.384-0.313,0.571-0.466l0.703,1.617c-0.188,0.188-0.437,0.401-0.747,0.642
		s-0.683,0.519-1.116,0.835c-0.48,0.352-0.891,0.612-1.23,0.782s-0.598,0.255-0.773,0.255c-1.066,0-1.758-0.123-2.074-0.369
		s-0.668-0.932-1.055-2.057c-0.047-0.094-0.117-0.205-0.211-0.334s-0.199-0.281-0.316-0.457c-0.141-0.27-0.264-0.472-0.369-0.606
		s-0.193-0.202-0.264-0.202c-0.188,0-0.439,0.126-0.756,0.378s-0.703,0.63-1.16,1.134c-0.059-0.152-0.132-0.334-0.22-0.545
		s-0.179-0.457-0.272-0.738c-0.023-0.07-0.053-0.135-0.088-0.193S19.734,20.408,19.688,20.373z"/>
	<path d="M27.035,6.504c0.293,0,0.507,0.059,0.642,0.176s0.202,0.287,0.202,0.51c-0.07,0.328-0.129,0.604-0.176,0.826
		c-0.117,0.422-0.22,0.768-0.308,1.037s-0.155,0.463-0.202,0.58c-0.105,0.258-0.249,0.483-0.431,0.677s-0.401,0.366-0.659,0.519
		c-0.27,0.188-0.495,0.319-0.677,0.396s-0.308,0.108-0.378,0.097c-0.199-0.023-0.39-0.044-0.571-0.062s-0.36-0.026-0.536-0.026
		c-0.152-0.082-0.272-0.24-0.36-0.475s-0.132-0.551-0.132-0.949c0-0.352,0.214-0.794,0.642-1.327s0.806-0.817,1.134-0.853
		c0.199-0.246,0.434-0.527,0.703-0.844c0.117-0.082,0.27-0.149,0.457-0.202S26.789,6.504,27.035,6.504z"/>
</g>
</svg>
