<?xml version="1.0" encoding="utf-8"?>
<!-- Generator: Adobe Illustrator 16.0.0, SVG Export Plug-In . SVG Version: 6.00 Build 0)  -->
<!DOCTYPE svg PUBLIC "-//W3C//DTD SVG 1.1//EN" "http://www.w3.org/Graphics/SVG/1.1/DTD/svg11.dtd">
<svg version="1.1" id="Layer_1" xmlns="http://www.w3.org/2000/svg" xmlns:xlink="http://www.w3.org/1999/xlink" x="0px" y="0px"
	 width="30.463px" height="25.154px" viewBox="0 0 30.463 25.154" enable-background="new 0 0 30.463 25.154" xml:space="preserve">
<g>
	<path fill="#222222" d="M1.688,8.191c-0.035-0.234-0.076-0.48-0.123-0.738c0,0.105,0.018,0.023,0.053-0.246
		C1.653,6.938,1.7,6.475,1.759,5.818c0.093-0.129,0.16-0.243,0.201-0.342c0.041-0.1,0.079-0.19,0.114-0.272
		C1.969,5.074,1.89,4.966,1.837,4.878C1.784,4.79,1.758,4.717,1.758,4.658C1.852,3.943,1.94,3.263,2.022,2.619
		C2.034,2.443,2.136,2.244,2.33,2.021C2.524,1.798,2.79,1.558,3.13,1.3C3.4,1.077,3.663,0.89,3.921,0.738
		c0.258-0.152,0.504-0.275,0.738-0.369c0.316-0.104,0.504-0.193,0.562-0.264C5.279,0.034,5.344,0,5.414,0
		c0.188,0,0.331,0.094,0.431,0.281c0.1,0.187,0.149,0.469,0.149,0.844c0,0.199-0.05,0.476-0.149,0.826
		c-0.099,0.351-0.15,0.61-0.15,0.774c0,0.069,0.009,0.34,0.026,0.809C5.738,4.003,5.765,4.677,5.8,5.555
		c0.012,0.633,0.103,1.307,0.272,2.021c0.169,0.714,0.39,1.459,0.66,2.232c0.363,1.008,0.756,1.761,1.179,2.259
		c0.422,0.498,0.885,0.747,1.39,0.747c0.398,0,0.926-0.258,1.583-0.773c0.656-0.516,1.431-1.289,2.321-2.319
		c0.68-0.798,1.287-1.541,1.82-2.232c0.533-0.691,0.965-1.324,1.292-1.898c0.306-0.516,0.662-0.979,1.074-1.389
		c0.409-0.41,0.879-0.785,1.406-1.125c0.164-0.094,0.299-0.17,0.404-0.229c0.105-0.06,0.189-0.089,0.248-0.089
		c0.208,0,0.367,0.158,0.477,0.476c0.11,0.315,0.165,0.785,0.165,1.406c-0.069,0.573-0.129,1.143-0.176,1.705
		c-0.104,0.879-0.261,1.793-0.465,2.741c-0.205,0.949-0.472,1.935-0.8,2.953c-0.164,0.517-0.305,0.967-0.42,1.354
		c-0.117,0.387-0.199,0.715-0.246,0.983c-0.023,0.152-0.057,0.344-0.098,0.571s-0.084,0.495-0.132,0.8
		c-0.116,0.293-0.245,0.586-0.386,0.879c-0.117,0.234-0.215,0.517-0.29,0.845c-0.076,0.327-0.144,0.709-0.201,1.143
		c0,0.082-0.006,0.188-0.019,0.316c-0.012,0.128-0.022,0.264-0.034,0.403c-0.271,1.195-0.546,2.355-0.825,3.48
		c-0.023,0.104-0.076,0.24-0.158,0.403c-0.152,0.048-0.325,0.146-0.518,0.3c-0.193,0.151-0.396,0.362-0.605,0.633
		c-0.211,0.233-0.387,0.407-0.527,0.519c-0.14,0.112-0.245,0.167-0.315,0.167c-0.094,0-0.17-0.028-0.229-0.088
		c-0.059-0.059-0.088-0.158-0.088-0.299c0.012-0.094,0.029-0.17,0.053-0.229c0.164-0.398,0.308-0.974,0.431-1.724
		s0.237-1.676,0.343-2.776c0.012-0.234,0.105-0.867,0.281-1.898c0.176-1.031,0.434-2.461,0.773-4.289
		c0.047-0.293,0.108-0.653,0.185-1.081s0.173-0.917,0.29-1.468c0.082-0.281,0.148-0.524,0.202-0.729
		c0.053-0.205,0.079-0.354,0.079-0.447c0-0.117-0.021-0.202-0.062-0.255c-0.041-0.054-0.103-0.079-0.185-0.079
		c-0.07,0-0.199,0.091-0.388,0.271c-0.188,0.183-0.422,0.454-0.703,0.817c-0.164,0.199-0.332,0.41-0.502,0.633
		s-0.349,0.438-0.536,0.65c-0.317,0.327-0.61,0.639-0.88,0.932L11.64,14.08c-0.117,0.07-0.261,0.158-0.431,0.264
		c-0.171,0.105-0.373,0.229-0.607,0.369c-0.223,0.353-0.578,0.653-1.064,0.905c-0.486,0.252-0.936,0.378-1.346,0.378
		c-0.492,0-0.965-0.155-1.416-0.466c-0.451-0.312-0.888-0.788-1.31-1.433c-0.188-0.316-0.373-0.634-0.555-0.949
		c-0.182-0.316-0.378-0.633-0.589-0.949l-0.088,0.018c-0.059,0.07-0.167,0.546-0.325,1.425c-0.158,0.879-0.36,2.168-0.606,3.866
		c-0.27,1.746-0.475,3.117-0.615,4.113s-0.211,1.642-0.211,1.935c-0.023,0.397-0.097,0.705-0.22,0.923
		c-0.123,0.217-0.313,0.343-0.571,0.378c-0.129,0.012-0.311,0.044-0.545,0.097s-0.516,0.12-0.844,0.202
		c-0.059-0.012-0.111-0.032-0.158-0.062c-0.047-0.029-0.07-0.072-0.07-0.132l0.105-0.649L0,23.643
		c0.07-0.363,0.141-0.716,0.211-1.056c0.047-0.703,0.088-1.364,0.123-1.985c0.012-0.129,0.056-0.347,0.132-0.65
		c0.076-0.304,0.114-0.533,0.114-0.686c0-0.082-0.018-0.202-0.053-0.36c-0.035-0.158-0.053-0.278-0.053-0.36
		c0-0.645,0.103-1.6,0.308-2.864c0.205-1.266,0.308-2.228,0.308-2.884c-0.035-0.27-0.076-0.539-0.123-0.809
		c0.059-0.422,0.152-0.949,0.281-1.582S1.523,9.035,1.688,8.191z"/>
	<path fill="#222222" d="M19.688,20.373l0.104-0.123l0.054-0.176c0.315-0.434,0.873-0.999,1.67-1.696
		c0.797-0.696,1.348-1.263,1.651-1.695c0.117-0.188,0.252-0.322,0.403-0.404c0.152-0.082,0.306-0.123,0.457-0.123
		c0.41,0,0.757,0.103,1.037,0.308c0.281,0.205,0.47,0.514,0.562,0.923c0.082,0.363,0.158,0.729,0.229,1.1
		c0.072,0.37,0.129,0.741,0.177,1.116c0.082,0.233,0.182,0.589,0.299,1.062c0.117,0.475,0.205,0.747,0.265,0.817
		c0.059,0.117,0.146,0.202,0.264,0.255c0.117,0.053,0.264,0.079,0.438,0.079c0.211,0,0.429-0.038,0.65-0.114s0.45-0.208,0.686-0.396
		c0.177-0.152,0.36-0.309,0.554-0.467c0.194-0.157,0.385-0.312,0.571-0.466l0.703,1.617c-0.188,0.188-0.437,0.401-0.747,0.642
		c-0.311,0.241-0.683,0.52-1.115,0.835c-0.48,0.353-0.892,0.612-1.23,0.782c-0.34,0.17-0.598,0.255-0.773,0.255
		c-1.066,0-1.758-0.123-2.074-0.369c-0.315-0.245-0.668-0.932-1.055-2.057c-0.047-0.094-0.117-0.205-0.211-0.334
		s-0.199-0.281-0.316-0.457c-0.141-0.27-0.264-0.472-0.369-0.605c-0.104-0.135-0.192-0.202-0.264-0.202
		c-0.188,0-0.438,0.126-0.756,0.378c-0.316,0.252-0.703,0.63-1.16,1.134c-0.059-0.152-0.132-0.334-0.22-0.545
		s-0.179-0.457-0.272-0.738c-0.022-0.069-0.053-0.135-0.088-0.192C19.776,20.457,19.733,20.408,19.688,20.373z"/>
	<path fill="#222222" d="M27.035,6.504c0.293,0,0.507,0.06,0.642,0.177c0.135,0.116,0.202,0.286,0.202,0.51
		c-0.069,0.328-0.129,0.604-0.176,0.826c-0.117,0.422-0.22,0.768-0.308,1.036c-0.088,0.27-0.155,0.464-0.203,0.58
		c-0.104,0.259-0.248,0.483-0.43,0.678c-0.183,0.193-0.402,0.365-0.66,0.519c-0.27,0.188-0.494,0.319-0.677,0.396
		c-0.182,0.076-0.308,0.107-0.378,0.097c-0.199-0.023-0.39-0.044-0.57-0.062c-0.182-0.018-0.36-0.025-0.537-0.025
		c-0.151-0.082-0.271-0.24-0.359-0.476c-0.088-0.234-0.132-0.551-0.132-0.948c0-0.353,0.214-0.794,0.642-1.327
		s0.807-0.817,1.135-0.854c0.198-0.246,0.434-0.526,0.703-0.844c0.116-0.082,0.27-0.148,0.456-0.202
		C26.571,6.531,26.789,6.504,27.035,6.504z"/>
</g>
</svg>
