<?xml version="1.0" encoding="utf-8"?>
<!-- Generator: Adobe Illustrator 16.0.0, SVG Export Plug-In . SVG Version: 6.00 Build 0)  -->
<!DOCTYPE svg PUBLIC "-//W3C//DTD SVG 1.1//EN" "http://www.w3.org/Graphics/SVG/1.1/DTD/svg11.dtd">
<svg version="1.1" id="Layer_1" xmlns="http://www.w3.org/2000/svg" xmlns:xlink="http://www.w3.org/1999/xlink" x="0px" y="0px"
	 width="31.483px" height="26px" viewBox="-0.511 -0.422 31.483 26" enable-background="new -0.511 -0.422 31.483 26"
	 xml:space="preserve">
<g>
	<path fill="#222222" d="M1.234,8.044C1.197,7.802,1.155,7.548,1.106,7.281c0,0.109,0.019,0.024,0.055-0.254
		c0.036-0.277,0.085-0.756,0.146-1.435C1.403,5.458,1.473,5.34,1.515,5.238c0.042-0.104,0.082-0.197,0.118-0.282
		C1.524,4.823,1.443,4.71,1.388,4.619C1.333,4.529,1.306,4.453,1.306,4.392c0.097-0.739,0.188-1.441,0.273-2.107
		c0.013-0.182,0.117-0.388,0.318-0.618c0.2-0.231,0.475-0.479,0.827-0.746c0.279-0.23,0.551-0.423,0.817-0.58
		c0.267-0.158,0.521-0.285,0.763-0.382c0.327-0.107,0.521-0.2,0.581-0.272c0.06-0.074,0.127-0.109,0.2-0.109
		c0.194,0,0.342,0.097,0.445,0.291C5.633,0.061,5.685,0.353,5.685,0.74c0,0.206-0.052,0.493-0.154,0.854
		c-0.103,0.362-0.155,0.631-0.155,0.8c0,0.071,0.01,0.352,0.027,0.836C5.419,3.715,5.448,4.411,5.483,5.32
		C5.496,5.974,5.59,6.67,5.765,7.408s0.403,1.508,0.682,2.308c0.375,1.042,0.781,1.82,1.219,2.334
		c0.436,0.515,0.915,0.772,1.437,0.772c0.412,0,0.957-0.266,1.636-0.799c0.678-0.533,1.479-1.332,2.399-2.396
		c0.703-0.826,1.33-1.593,1.881-2.307c0.551-0.715,0.998-1.369,1.335-1.962c0.316-0.533,0.685-1.011,1.11-1.435
		c0.422-0.424,0.908-0.812,1.452-1.163c0.17-0.097,0.311-0.175,0.418-0.236c0.108-0.062,0.195-0.093,0.257-0.093
		c0.215,0,0.378,0.163,0.492,0.492c0.114,0.325,0.171,0.812,0.171,1.454c-0.07,0.591-0.134,1.181-0.182,1.762
		c-0.107,0.908-0.271,1.853-0.48,2.832c-0.212,0.981-0.488,2-0.828,3.052c-0.169,0.535-0.314,1-0.434,1.4
		c-0.121,0.399-0.205,0.739-0.254,1.016c-0.023,0.157-0.059,0.356-0.102,0.59c-0.042,0.234-0.087,0.512-0.136,0.827
		c-0.12,0.303-0.254,0.605-0.399,0.908c-0.121,0.242-0.222,0.535-0.3,0.874c-0.078,0.337-0.147,0.732-0.207,1.181
		c0,0.085-0.007,0.195-0.02,0.327c-0.013,0.133-0.023,0.272-0.035,0.416c-0.28,1.235-0.564,2.435-0.854,3.598
		c-0.023,0.106-0.078,0.248-0.163,0.415c-0.157,0.051-0.335,0.151-0.535,0.312c-0.2,0.155-0.41,0.373-0.625,0.653
		c-0.218,0.24-0.4,0.421-0.544,0.536c-0.145,0.116-0.253,0.173-0.326,0.173c-0.097,0-0.176-0.028-0.237-0.091
		c-0.061-0.061-0.091-0.163-0.091-0.309c0.012-0.097,0.03-0.176,0.055-0.236c0.169-0.412,0.318-1.008,0.445-1.782
		c0.127-0.775,0.245-1.732,0.354-2.869c0.013-0.242,0.109-0.896,0.291-1.962c0.182-1.065,0.449-2.543,0.799-4.433
		c0.049-0.303,0.112-0.675,0.191-1.118c0.08-0.442,0.178-0.948,0.299-1.517c0.085-0.291,0.154-0.542,0.209-0.754
		c0.055-0.212,0.082-0.365,0.082-0.461c0-0.121-0.022-0.209-0.064-0.264c-0.042-0.056-0.106-0.082-0.19-0.082
		c-0.073,0-0.206,0.094-0.401,0.279c-0.194,0.19-0.436,0.47-0.727,0.845c-0.169,0.206-0.343,0.424-0.519,0.654
		s-0.361,0.452-0.554,0.672c-0.328,0.337-0.63,0.66-0.909,0.963l-1.344,1.346c-0.121,0.072-0.27,0.163-0.445,0.272
		c-0.177,0.108-0.386,0.237-0.627,0.381c-0.23,0.365-0.598,0.676-1.1,0.936C8.845,15.98,8.38,16.11,7.956,16.11
		c-0.508,0-0.997-0.16-1.463-0.481c-0.466-0.322-0.917-0.814-1.354-1.48c-0.194-0.327-0.385-0.656-0.573-0.98
		c-0.188-0.328-0.391-0.654-0.609-0.981l-0.091,0.018c-0.061,0.073-0.173,0.565-0.336,1.474c-0.164,0.908-0.372,2.24-0.626,3.994
		c-0.279,1.805-0.491,3.222-0.636,4.252c-0.145,1.029-0.218,1.697-0.218,2c-0.024,0.41-0.101,0.728-0.228,0.954
		c-0.127,0.224-0.324,0.354-0.59,0.391c-0.133,0.012-0.322,0.045-0.563,0.1s-0.533,0.124-0.873,0.209
		c-0.061-0.012-0.114-0.033-0.163-0.064c-0.049-0.029-0.072-0.074-0.072-0.137l0.108-0.67l-0.18-0.692
		c0.072-0.375,0.146-0.741,0.218-1.092c0.048-0.727,0.091-1.409,0.127-2.051c0.013-0.134,0.058-0.359,0.136-0.673
		c0.079-0.313,0.118-0.551,0.118-0.708c0-0.085-0.019-0.209-0.055-0.373c-0.036-0.163-0.055-0.287-0.055-0.372
		c0-0.666,0.106-1.653,0.319-2.959c0.211-1.31,0.318-2.304,0.318-2.982c-0.036-0.278-0.079-0.557-0.127-0.835
		c0.061-0.436,0.158-0.981,0.291-1.635C0.912,9.68,1.063,8.916,1.234,8.044z"/>
	<path fill="#222222" d="M19.838,20.635l0.107-0.128l0.057-0.182c0.324-0.447,0.9-1.032,1.726-1.753
		c0.823-0.719,1.393-1.305,1.706-1.751c0.121-0.194,0.26-0.333,0.415-0.418c0.158-0.085,0.317-0.127,0.473-0.127
		c0.424,0,0.783,0.105,1.072,0.317c0.29,0.212,0.486,0.532,0.581,0.955c0.085,0.375,0.163,0.753,0.236,1.137
		c0.074,0.383,0.133,0.766,0.184,1.153c0.085,0.24,0.188,0.609,0.309,1.098c0.121,0.491,0.212,0.771,0.274,0.845
		c0.061,0.121,0.15,0.209,0.272,0.264c0.121,0.054,0.272,0.081,0.452,0.081c0.219,0,0.444-0.039,0.673-0.118
		c0.228-0.078,0.464-0.215,0.708-0.408c0.184-0.157,0.373-0.32,0.573-0.483c0.2-0.162,0.398-0.322,0.59-0.481l0.727,1.671
		c-0.193,0.195-0.452,0.415-0.772,0.663c-0.321,0.25-0.705,0.538-1.151,0.863c-0.496,0.365-0.922,0.633-1.271,0.809
		c-0.352,0.176-0.618,0.264-0.8,0.264c-1.101,0-1.816-0.128-2.144-0.382c-0.325-0.252-0.69-0.963-1.09-2.126
		c-0.049-0.097-0.121-0.212-0.218-0.345c-0.098-0.134-0.206-0.291-0.327-0.473c-0.146-0.278-0.272-0.487-0.382-0.625
		c-0.106-0.14-0.197-0.209-0.272-0.209c-0.193,0-0.452,0.131-0.781,0.391c-0.327,0.261-0.727,0.651-1.199,1.172
		c-0.061-0.157-0.136-0.345-0.227-0.562c-0.091-0.219-0.185-0.473-0.282-0.764c-0.021-0.07-0.054-0.139-0.091-0.197
		C19.929,20.721,19.885,20.671,19.838,20.635z"/>
	<path fill="#222222" d="M27.431,6.3c0.303,0,0.524,0.062,0.663,0.184c0.14,0.119,0.209,0.295,0.209,0.527
		c-0.071,0.339-0.133,0.624-0.182,0.854C28,8.301,27.895,8.657,27.804,8.935c-0.091,0.278-0.161,0.479-0.21,0.599
		c-0.108,0.269-0.257,0.5-0.444,0.701c-0.189,0.199-0.416,0.376-0.683,0.536c-0.279,0.195-0.511,0.33-0.7,0.41
		c-0.188,0.078-0.317,0.11-0.391,0.1c-0.205-0.024-0.402-0.045-0.588-0.064c-0.189-0.019-0.373-0.025-0.556-0.025
		c-0.156-0.085-0.28-0.249-0.371-0.493c-0.091-0.241-0.137-0.569-0.137-0.979c0-0.365,0.222-0.821,0.663-1.372
		c0.442-0.551,0.834-0.845,1.173-0.883c0.205-0.254,0.449-0.543,0.727-0.872c0.12-0.084,0.28-0.152,0.472-0.209
		C26.951,6.328,27.177,6.3,27.431,6.3z"/>
</g>
</svg>
