<?xml version="1.0" encoding="utf-8"?>
<!-- Generator: Adobe Illustrator 16.0.0, SVG Export Plug-In . SVG Version: 6.00 Build 0)  -->
<!DOCTYPE svg PUBLIC "-//W3C//DTD SVG 1.1//EN" "http://www.w3.org/Graphics/SVG/1.1/DTD/svg11.dtd">
<svg version="1.1" id="Layer_1" xmlns="http://www.w3.org/2000/svg" xmlns:xlink="http://www.w3.org/1999/xlink" x="0px" y="0px"
	 width="40.798px" height="30px" viewBox="1.506 1.107 40.798 30" enable-background="new 1.506 1.107 40.798 30"
	 xml:space="preserve">
<g>
	<path fill="#222222" d="M21.149,13.778c-0.167-3.15-0.369-6.939-0.334-9.755h-0.1c-0.771,2.649-1.709,5.464-2.85,8.582
		l-3.988,10.961h-2.212L8.009,12.806C6.936,9.622,6.031,6.705,5.394,4.023H5.328c-0.066,2.815-0.234,6.604-0.436,9.99l-0.605,9.687
		H1.506L3.08,1.107h3.722l3.856,10.927c0.938,2.783,1.709,5.262,2.279,7.609h0.1c0.57-2.278,1.375-4.759,2.381-7.609l4.021-10.927
		h3.721l1.409,22.592h-2.851L21.149,13.778z"/>
	<path fill="#222222" d="M30.27,7.476l3.553,9.586c0.368,1.073,0.771,2.348,1.039,3.319h0.066c0.302-0.974,0.638-2.214,1.039-3.387
		l3.219-9.521h3.118L37.88,19.039c-2.112,5.564-3.553,8.414-5.565,10.157c-1.441,1.274-2.883,1.776-3.62,1.911l-0.738-2.48
		c0.738-0.235,1.711-0.704,2.581-1.442c0.806-0.637,1.811-1.777,2.481-3.285c0.135-0.302,0.234-0.537,0.234-0.704
		s-0.066-0.401-0.201-0.771L27.051,7.476H30.27z"/>
</g>
</svg>
