<?xml version="1.0" encoding="utf-8"?>
<!-- Generator: Adobe Illustrator 16.0.0, SVG Export Plug-In . SVG Version: 6.00 Build 0)  -->
<!DOCTYPE svg PUBLIC "-//W3C//DTD SVG 1.1 Tiny//EN" "http://www.w3.org/Graphics/SVG/1.1/DTD/svg11-tiny.dtd">
<svg version="1.1" baseProfile="tiny" id="Layer_1" xmlns="http://www.w3.org/2000/svg" xmlns:xlink="http://www.w3.org/1999/xlink"
	 x="0px" y="0px" width="43.81px" height="32.216px" viewBox="0 0 43.81 32.216" xml:space="preserve">
<g>
	<path d="M21.093,13.606c-0.18-3.383-0.396-7.451-0.36-10.475h-0.108c-0.828,2.844-1.836,5.867-3.06,9.215l-4.283,11.771h-2.376
		L6.983,12.562C5.831,9.143,4.859,6.011,4.175,3.131H4.104c-0.072,3.023-0.252,7.091-0.468,10.727L2.987,24.261H0L1.691,0h3.996
		l4.14,11.734c1.008,2.988,1.836,5.651,2.448,8.171h0.108c0.612-2.448,1.476-5.111,2.556-8.171L19.257,0h3.996l1.512,24.261h-3.06
		L21.093,13.606z"/>
	<path d="M30.887,6.839l3.816,10.295c0.396,1.152,0.828,2.52,1.116,3.563h0.072c0.324-1.044,0.684-2.376,1.116-3.636l3.456-10.223
		h3.348l-4.751,12.418c-2.268,5.975-3.816,9.035-5.976,10.907c-1.548,1.368-3.095,1.908-3.887,2.052l-0.792-2.664
		c0.792-0.252,1.836-0.756,2.771-1.548c0.864-0.684,1.944-1.908,2.664-3.528c0.144-0.324,0.252-0.576,0.252-0.756
		c0-0.18-0.072-0.432-0.216-0.828L27.431,6.839H30.887z"/>
</g>
</svg>
