<?xml version="1.0" encoding="utf-8"?>
<!-- Generator: Adobe Illustrator 16.0.0, SVG Export Plug-In . SVG Version: 6.00 Build 0)  -->
<!DOCTYPE svg PUBLIC "-//W3C//DTD SVG 1.1//EN" "http://www.w3.org/Graphics/SVG/1.1/DTD/svg11.dtd">
<svg version="1.1" id="Layer_1" xmlns="http://www.w3.org/2000/svg" xmlns:xlink="http://www.w3.org/1999/xlink" x="0px" y="0px"
	 width="43.811px" height="32.215px" viewBox="0 0 43.811 32.215" enable-background="new 0 0 43.811 32.215" xml:space="preserve">
<g>
	<path fill="#222222" d="M21.093,13.606c-0.18-3.383-0.396-7.451-0.359-10.475h-0.108c-0.828,2.844-1.836,5.867-3.06,9.215
		l-4.283,11.771h-2.376L6.983,12.562C5.831,9.143,4.859,6.011,4.175,3.131h-0.07c-0.072,3.023-0.252,7.091-0.468,10.727L2.987,24.26
		H0L1.691,0h3.996l4.14,11.734c1.008,2.988,1.836,5.651,2.448,8.171h0.107c0.612-2.447,1.477-5.111,2.557-8.171L19.257,0h3.996
		l1.513,24.26h-3.061L21.093,13.606z"/>
	<path fill="#222222" d="M30.887,6.839l3.815,10.294c0.396,1.152,0.828,2.521,1.116,3.564h0.072
		c0.323-1.045,0.684-2.377,1.115-3.637l3.456-10.223h3.349L39.06,19.256c-2.269,5.975-3.816,9.035-5.977,10.906
		c-1.548,1.369-3.095,1.908-3.887,2.053l-0.792-2.664c0.792-0.252,1.836-0.756,2.771-1.549c0.864-0.684,1.944-1.908,2.664-3.527
		c0.145-0.324,0.252-0.576,0.252-0.756s-0.071-0.432-0.216-0.828L27.431,6.839H30.887z"/>
</g>
</svg>
