<?xml version="1.0" encoding="utf-8"?>
<!-- Generator: Adobe Illustrator 16.0.0, SVG Export Plug-In . SVG Version: 6.00 Build 0)  -->
<!DOCTYPE svg PUBLIC "-//W3C//DTD SVG 1.1//EN" "http://www.w3.org/Graphics/SVG/1.1/DTD/svg11.dtd">
<svg version="1.1" id="Layer_1" xmlns="http://www.w3.org/2000/svg" xmlns:xlink="http://www.w3.org/1999/xlink" x="0px" y="0px"
	 width="39.49px" height="34.879px" viewBox="0 0 39.49 34.879" enable-background="new 0 0 39.49 34.879" xml:space="preserve">
<g>
	<path fill="#222222" d="M2.952,28.004H0V0h4.68l11.158,22.064h0.072V0h2.952v28.004H15.91L3.023,2.556H2.952V28.004z"/>
	<path fill="#222222" d="M39.49,9.935h-1.044c-0.793,0-1.297,0.036-2.016,0.432c0.827,1.224,1.223,2.627,1.223,4.104
		c0,3.852-2.844,6.839-6.694,6.839c-1.151,0-2.159-0.217-3.203-0.612c-0.612,0.504-1.69,1.151-1.69,2.124
		c0,2.52,13.246-0.648,13.246,6.875c0,1.476-0.469,5.183-8.424,5.183c-6.479,0-8.494-2.521-8.494-4.967
		c0-2.052,1.799-3.167,3.455-3.888c-1.188-0.469-2.483-1.332-2.483-2.771c0-1.764,1.368-2.304,2.483-3.635
		c-1.439-1.692-2.195-2.88-2.195-5.22c0-4.031,3.022-6.839,7.02-6.839c1.583,0,3.023,0.468,4.319,1.404
		c1.296-0.972,2.808-1.692,4.499-1.512L39.49,9.935L39.49,9.935z M28.836,26.781c-1.512,0.287-3.744,1.188-3.744,2.986
		c0,2.736,4.032,2.881,5.938,2.881c2.017,0,5.58-0.396,5.58-3.133c0-2.086-3.312-2.34-4.823-2.447L28.836,26.781z M30.743,9.683
		c-2.699,0-4.393,2.268-4.393,4.823c0,2.484,1.549,4.68,4.141,4.68c2.88,0,4.464-1.979,4.464-4.714
		C34.955,11.878,33.551,9.683,30.743,9.683z"/>
</g>
</svg>
