<?xml version="1.0" encoding="utf-8"?>
<!-- Generator: Adobe Illustrator 16.0.0, SVG Export Plug-In . SVG Version: 6.00 Build 0)  -->
<!DOCTYPE svg PUBLIC "-//W3C//DTD SVG 1.1//EN" "http://www.w3.org/Graphics/SVG/1.1/DTD/svg11.dtd">
<svg version="1.1" id="Layer_1" xmlns="http://www.w3.org/2000/svg" xmlns:xlink="http://www.w3.org/1999/xlink" x="0px" y="0px"
	 width="33.967px" height="30px" viewBox="2.763 2.44 33.967 30" enable-background="new 2.763 2.44 33.967 30"
	 xml:space="preserve">
<g>
	<path fill="#222222" d="M5.302,26.526H2.763V2.44h4.025l9.597,18.977h0.062V2.44h2.539v24.086h-2.539L5.363,4.639H5.302V26.526z"/>
	<path fill="#222222" d="M36.728,10.985H35.83c-0.682,0-1.115,0.031-1.733,0.372c0.71,1.052,1.052,2.259,1.052,3.53
		c0,3.312-2.446,5.882-5.758,5.882c-0.99,0-1.857-0.187-2.756-0.526c-0.526,0.434-1.453,0.99-1.453,1.827
		c0,2.167,11.393-0.558,11.393,5.913c0,1.27-0.403,4.457-7.245,4.457c-5.572,0-7.306-2.167-7.306-4.271
		c0-1.765,1.547-2.724,2.972-3.344c-1.021-0.403-2.136-1.146-2.136-2.384c0-1.517,1.177-1.981,2.136-3.126
		c-1.237-1.456-1.889-2.477-1.889-4.49c0-3.467,2.6-5.882,6.038-5.882c1.362,0,2.6,0.402,3.716,1.208
		c1.114-0.836,2.414-1.456,3.869-1.3L36.728,10.985L36.728,10.985z M27.564,25.475c-1.301,0.247-3.221,1.021-3.221,2.568
		c0,2.353,3.468,2.478,5.107,2.478c1.734,0,4.8-0.341,4.8-2.694c0-1.794-2.849-2.014-4.148-2.104L27.564,25.475z M29.205,10.769
		c-2.322,0-3.778,1.951-3.778,4.148c0,2.137,1.332,4.025,3.562,4.025c2.477,0,3.839-1.702,3.839-4.054
		C32.827,12.656,31.619,10.769,29.205,10.769z"/>
</g>
</svg>
