<?xml version="1.0" encoding="utf-8"?>
<!-- Generator: Adobe Illustrator 16.0.0, SVG Export Plug-In . SVG Version: 6.00 Build 0)  -->
<!DOCTYPE svg PUBLIC "-//W3C//DTD SVG 1.1//EN" "http://www.w3.org/Graphics/SVG/1.1/DTD/svg11.dtd">
<svg version="1.1" id="Layer_1" xmlns="http://www.w3.org/2000/svg" xmlns:xlink="http://www.w3.org/1999/xlink" x="0px" y="0px"
	 width="39.49px" height="34.879px" viewBox="0 0 39.49 34.879" enable-background="new 0 0 39.49 34.879" xml:space="preserve">
<g>
	<path d="M2.952,28.004H0V0h4.68l11.158,22.065h0.072V0h2.952v28.004H15.91L3.023,2.556H2.952V28.004z"/>
	<path d="M39.49,9.935h-1.044c-0.792,0-1.296,0.036-2.016,0.432c0.828,1.224,1.224,2.627,1.224,4.104
		c0,3.852-2.844,6.839-6.695,6.839c-1.151,0-2.159-0.216-3.203-0.612c-0.612,0.504-1.691,1.152-1.691,2.124
		c0,2.52,13.246-0.648,13.246,6.875c0,1.476-0.468,5.183-8.423,5.183c-6.479,0-8.495-2.52-8.495-4.967
		c0-2.052,1.8-3.167,3.455-3.888c-1.188-0.468-2.483-1.332-2.483-2.771c0-1.764,1.368-2.304,2.483-3.635
		c-1.439-1.692-2.195-2.88-2.195-5.22c0-4.031,3.023-6.839,7.02-6.839c1.583,0,3.023,0.468,4.319,1.404
		c1.296-0.972,2.808-1.692,4.499-1.512V9.935z M28.836,26.781c-1.512,0.288-3.744,1.188-3.744,2.987c0,2.736,4.032,2.88,5.939,2.88
		c2.016,0,5.579-0.396,5.579-3.132c0-2.087-3.312-2.34-4.823-2.448L28.836,26.781z M30.743,9.683c-2.699,0-4.392,2.268-4.392,4.823
		c0,2.484,1.548,4.68,4.14,4.68c2.88,0,4.464-1.98,4.464-4.715C34.955,11.878,33.551,9.683,30.743,9.683z"/>
</g>
</svg>
