<?xml version="1.0" encoding="utf-8"?>
<!-- Generator: Adobe Illustrator 16.0.0, SVG Export Plug-In . SVG Version: 6.00 Build 0)  -->
<!DOCTYPE svg PUBLIC "-//W3C//DTD SVG 1.1 Tiny//EN" "http://www.w3.org/Graphics/SVG/1.1/DTD/svg11-tiny.dtd">
<svg version="1.1" baseProfile="tiny" id="Layer_1" xmlns="http://www.w3.org/2000/svg" xmlns:xlink="http://www.w3.org/1999/xlink"
	 x="0px" y="0px" width="43.734px" height="34.225px" viewBox="0 0 43.734 34.225" xml:space="preserve">
<g>
	<path d="M0,0h4.036l13.19,21.779V0h2.566v26.648h-2.566L2.584,2.32v24.328H0V0z"/>
	<path d="M28.441,19.107c-0.832-0.727-1.436-1.477-1.811-2.25s-0.562-1.682-0.562-2.725c0-1.945,0.688-3.56,2.065-4.843
		s3.243-1.925,5.599-1.925c0.973,0,1.893,0.129,2.76,0.387s1.682,0.65,2.443,1.178c1.266-0.75,2.865-1.143,4.799-1.178v2.25
		L42.82,9.984c-1.102,0-1.963,0.141-2.584,0.422c0.621,1.055,0.932,2.221,0.932,3.498c0,1.992-0.686,3.645-2.057,4.957
		s-3.234,1.969-5.59,1.969c-0.727,0-1.57-0.082-2.531-0.246c-0.457-0.082-0.791-0.123-1.002-0.123c-0.539,0-0.964,0.135-1.274,0.404
		s-0.466,0.586-0.466,0.949c0,0.434,0.264,0.785,0.791,1.055c0.246,0.117,1.037,0.199,2.373,0.246
		c3.234,0.117,5.622,0.428,7.163,0.932s2.619,1.184,3.234,2.039s0.923,1.787,0.923,2.795c0,1.02-0.331,1.951-0.993,2.795
		s-1.646,1.479-2.953,1.907s-2.687,0.642-4.14,0.642c-2.027,0-3.879-0.275-5.555-0.826c-1.277-0.434-2.259-1.081-2.944-1.942
		s-1.028-1.761-1.028-2.698c0-0.727,0.19-1.421,0.571-2.083s0.952-1.298,1.714-1.907c-0.609-0.398-1.031-0.782-1.266-1.151
		s-0.352-0.788-0.352-1.257c0-0.621,0.202-1.192,0.606-1.714S27.48,19.611,28.441,19.107z M29.619,25.576
		c-0.809,0.457-1.415,0.938-1.819,1.441s-0.606,1.025-0.606,1.564c0,0.738,0.422,1.389,1.266,1.951
		c1.301,0.879,3.17,1.318,5.607,1.318s4.178-0.357,5.221-1.072c0.738-0.504,1.107-1.148,1.107-1.934c0-0.938-0.667-1.662-2-2.171
		C37.061,26.165,34.136,25.799,29.619,25.576z M33.609,18.492c1.594,0,2.871-0.454,3.832-1.362s1.441-1.983,1.441-3.226
		c0-1.184-0.451-2.197-1.354-3.041s-2.162-1.266-3.779-1.266c-1.711,0-3.029,0.419-3.955,1.257s-1.389,1.89-1.389,3.155
		s0.472,2.329,1.415,3.19S32.027,18.492,33.609,18.492z"/>
</g>
</svg>
