<?xml version="1.0" encoding="utf-8"?>
<!-- Generator: Adobe Illustrator 16.0.0, SVG Export Plug-In . SVG Version: 6.00 Build 0)  -->
<!DOCTYPE svg PUBLIC "-//W3C//DTD SVG 1.1//EN" "http://www.w3.org/Graphics/SVG/1.1/DTD/svg11.dtd">
<svg version="1.1" id="Layer_1" xmlns="http://www.w3.org/2000/svg" xmlns:xlink="http://www.w3.org/1999/xlink" x="0px" y="0px"
	 width="43.27px" height="28.004px" viewBox="0 0 43.27 28.004" enable-background="new 0 0 43.27 28.004" xml:space="preserve">
<g>
	<path fill="#222222" d="M16.846,10.115c0.684,1.404,0.937,2.448,0.937,3.996c0,1.728-0.469,2.808-1.188,4.284l-3.312,6.623
		c-0.864,1.728-2.305,2.987-4.392,2.987c-2.088,0-3.528-1.26-4.392-2.987l-3.312-6.623C0.468,16.918,0,15.838,0,14.11
		c0-1.548,0.252-2.592,0.936-3.996l3.601-7.163C5.399,1.26,6.875,0,8.891,0c2.017,0,3.491,1.26,4.355,2.952L16.846,10.115z
		 M10.115,4.679C9.827,4.104,9.647,3.6,8.891,3.6S7.955,4.104,7.667,4.68l-3.239,6.515C3.888,12.238,3.6,12.922,3.6,14.11
		c0,0.936,0.216,1.583,0.612,2.375l3.456,6.84c0.252,0.504,0.504,1.08,1.224,1.08s0.972-0.576,1.225-1.08l3.455-6.84
		c0.396-0.791,0.612-1.439,0.612-2.375c0-1.188-0.288-1.872-0.828-2.916L10.115,4.679z"/>
	<path fill="#222222" d="M26.352,16.63c0-2.124,0.396-3.167,2.052-4.536L30.96,9.97c1.62-1.332,2.448-1.368,4.463-1.368h5.471
		c1.152,0,2.376,0.252,2.376,1.728c0,1.512-1.368,1.728-2.376,1.728h-6.083c-0.684,0-1.368,0.36-1.979,0.864l-2.087,1.764
		c-0.54,0.433-0.937,0.793-0.937,1.477v4.283c0,0.684,0.396,1.044,0.937,1.476l2.087,1.765c0.611,0.504,1.296,0.863,1.979,0.863
		h6.083c1.008,0,2.376,0.217,2.376,1.729c0,1.476-1.224,1.728-2.376,1.728h-5.471c-2.016,0-2.844-0.036-4.463-1.368l-2.557-2.123
		c-1.655-1.369-2.052-2.412-2.052-4.535V16.63z"/>
</g>
</svg>
