<?xml version="1.0" encoding="utf-8"?>
<!-- Generator: Adobe Illustrator 16.0.0, SVG Export Plug-In . SVG Version: 6.00 Build 0)  -->
<!DOCTYPE svg PUBLIC "-//W3C//DTD SVG 1.1 Tiny//EN" "http://www.w3.org/Graphics/SVG/1.1/DTD/svg11-tiny.dtd">
<svg version="1.1" baseProfile="tiny" id="Layer_1" xmlns="http://www.w3.org/2000/svg" xmlns:xlink="http://www.w3.org/1999/xlink"
	 x="0px" y="0px" width="43.27px" height="28.004px" viewBox="0 0 43.27 28.004" xml:space="preserve">
<g>
	<path d="M16.846,10.115c0.684,1.404,0.936,2.448,0.936,3.996c0,1.728-0.468,2.808-1.188,4.283l-3.312,6.623
		c-0.864,1.728-2.304,2.988-4.391,2.988c-2.088,0-3.528-1.26-4.392-2.988l-3.312-6.623C0.468,16.918,0,15.838,0,14.11
		c0-1.548,0.252-2.592,0.936-3.996l3.6-7.163C5.399,1.26,6.875,0,8.891,0c2.016,0,3.491,1.26,4.355,2.952L16.846,10.115z
		 M10.115,4.679C9.827,4.104,9.647,3.6,8.891,3.6s-0.936,0.504-1.224,1.08l-3.239,6.515C3.888,12.238,3.6,12.922,3.6,14.11
		c0,0.936,0.216,1.583,0.612,2.375l3.456,6.839c0.252,0.504,0.504,1.08,1.224,1.08c0.72,0,0.972-0.576,1.224-1.08l3.456-6.839
		c0.396-0.792,0.612-1.44,0.612-2.375c0-1.188-0.288-1.872-0.828-2.916L10.115,4.679z"/>
	<path d="M26.352,16.63c0-2.124,0.396-3.167,2.052-4.536l2.556-2.124c1.62-1.332,2.448-1.368,4.463-1.368h5.471
		c1.152,0,2.376,0.252,2.376,1.728c0,1.512-1.368,1.728-2.376,1.728h-6.083c-0.684,0-1.368,0.36-1.98,0.864l-2.087,1.764
		c-0.54,0.432-0.936,0.792-0.936,1.476v4.283c0,0.684,0.396,1.044,0.936,1.476l2.087,1.764c0.612,0.504,1.296,0.864,1.98,0.864
		h6.083c1.008,0,2.376,0.216,2.376,1.728c0,1.476-1.224,1.728-2.376,1.728h-5.471c-2.016,0-2.844-0.036-4.463-1.368l-2.556-2.124
		c-1.656-1.368-2.052-2.412-2.052-4.535V16.63z"/>
</g>
</svg>
