<?xml version="1.0" encoding="utf-8"?>
<!-- Generator: Adobe Illustrator 16.0.0, SVG Export Plug-In . SVG Version: 6.00 Build 0)  -->
<!DOCTYPE svg PUBLIC "-//W3C//DTD SVG 1.1//EN" "http://www.w3.org/Graphics/SVG/1.1/DTD/svg11.dtd">
<svg version="1.1" id="Layer_1" xmlns="http://www.w3.org/2000/svg" xmlns:xlink="http://www.w3.org/1999/xlink" x="0px" y="0px"
	 width="40.169px" height="26px" viewBox="1.551 1.003 40.169 26" enable-background="new 1.551 1.003 40.169 26"
	 xml:space="preserve">
<g>
	<path fill="#222222" d="M17.189,10.394c0.634,1.303,0.87,2.272,0.87,3.709c0,1.604-0.436,2.607-1.103,3.977l-3.074,6.148
		c-0.803,1.604-2.141,2.773-4.078,2.773c-1.938,0-3.275-1.17-4.077-2.773L2.652,18.08c-0.667-1.371-1.102-2.374-1.102-3.978
		c0-1.437,0.234-2.406,0.869-3.709l3.343-6.65c0.8-1.57,2.17-2.74,4.042-2.74c1.873,0,3.241,1.169,4.043,2.741L17.189,10.394z
		 M10.941,5.347c-0.267-0.534-0.435-1.001-1.137-1.001S8.935,4.813,8.668,5.348l-3.007,6.048C5.159,12.364,4.892,13,4.892,14.102
		c0,0.87,0.2,1.47,0.568,2.205l3.208,6.351c0.234,0.468,0.468,1.002,1.136,1.002s0.903-0.534,1.138-1.002l3.207-6.351
		c0.368-0.734,0.568-1.335,0.568-2.205c0-1.103-0.267-1.738-0.769-2.707L10.941,5.347z"/>
	<path fill="#222222" d="M26.014,16.441c0-1.972,0.368-2.94,1.904-4.211l2.374-1.971c1.504-1.237,2.272-1.27,4.143-1.27h5.079
		c1.069,0,2.206,0.234,2.206,1.604c0,1.403-1.271,1.604-2.206,1.604h-5.647c-0.635,0-1.27,0.334-1.837,0.802l-1.937,1.637
		c-0.502,0.402-0.871,0.736-0.871,1.372v3.975c0,0.636,0.368,0.971,0.871,1.371l1.937,1.639c0.567,0.468,1.203,0.801,1.837,0.801
		h5.647c0.936,0,2.206,0.202,2.206,1.605c0,1.37-1.137,1.604-2.206,1.604h-5.079c-1.871,0-2.64-0.034-4.143-1.271l-2.375-1.971
		c-1.535-1.271-1.904-2.239-1.904-4.211L26.014,16.441L26.014,16.441z"/>
</g>
</svg>
