<?xml version="1.0" encoding="utf-8"?>
<!-- Generator: Adobe Illustrator 16.0.0, SVG Export Plug-In . SVG Version: 6.00 Build 0)  -->
<!DOCTYPE svg PUBLIC "-//W3C//DTD SVG 1.1 Tiny//EN" "http://www.w3.org/Graphics/SVG/1.1/DTD/svg11-tiny.dtd">
<svg version="1.1" baseProfile="tiny" id="Layer_1" xmlns="http://www.w3.org/2000/svg" xmlns:xlink="http://www.w3.org/1999/xlink"
	 x="0px" y="0px" width="30.779px" height="26.568px" viewBox="356.372 158.436 30.779 26.568" xml:space="preserve">
<g>
	<path d="M372.608,172.116c0,8.592-2.772,12.888-8.316,12.888c-5.28,0-7.92-4.235-7.92-12.708c0-8.664,2.808-12.996,8.424-12.996
		C370.004,159.3,372.608,163.572,372.608,172.116z M369.404,172.368c0-3.936-0.456-6.792-1.368-8.568
		c-0.72-1.392-1.896-2.088-3.528-2.088c-1.752,0-2.988,0.756-3.708,2.268c-0.816,1.728-1.224,4.428-1.224,8.1
		c0,3.72,0.468,6.528,1.404,8.424c0.695,1.392,1.859,2.088,3.491,2.088c1.776,0,3.012-0.756,3.708-2.268
		C368.996,178.572,369.404,175.92,369.404,172.368z"/>
	<path d="M387.151,159.696l-0.036,0.216l-0.607,1.476c-0.049,0.144-0.144,0.216-0.286,0.216c-0.072,0-0.18-0.036-0.322-0.108
		c-1.026-0.504-1.957-0.756-2.792-0.756c-0.883,0-1.492,0.348-1.825,1.044c-0.215,0.432-0.322,1.32-0.322,2.664v2.772h5.187
		c0.262,0,0.394,0.084,0.394,0.252c0,0.048-0.024,0.12-0.072,0.216l-0.465,1.44c-0.072,0.216-0.215,0.324-0.429,0.324h-4.614v12.816
		h2.524c0.285,0,0.428,0.144,0.428,0.432v1.368c0,0.288-0.145,0.432-0.433,0.432h-7.271c-0.288,0-0.433-0.144-0.433-0.432V182.7
		c0-0.288,0.145-0.432,0.433-0.432h2.016v-12.816h-2.376c-0.288,0-0.432-0.132-0.432-0.396v-1.404c0-0.288,0.144-0.432,0.432-0.432
		h2.376v-2.808c0-1.944,0.312-3.336,0.936-4.176c0.912-1.2,2.256-1.8,4.032-1.8c0.84,0,1.71,0.144,2.61,0.432
		C386.701,159.156,387.151,159.432,387.151,159.696z"/>
</g>
</svg>
