<?xml version="1.0" encoding="utf-8"?>
<!-- Generator: Adobe Illustrator 16.0.0, SVG Export Plug-In . SVG Version: 6.00 Build 0)  -->
<!DOCTYPE svg PUBLIC "-//W3C//DTD SVG 1.1//EN" "http://www.w3.org/Graphics/SVG/1.1/DTD/svg11.dtd">
<svg version="1.1" id="Layer_1" xmlns="http://www.w3.org/2000/svg" xmlns:xlink="http://www.w3.org/1999/xlink" x="0px" y="0px"
	 width="30.119px" height="26px" viewBox="356.702 158.719 30.119 26" enable-background="new 356.702 158.719 30.119 26"
	 xml:space="preserve">
<g>
	<path fill="#222222" d="M372.59,172.108c0,8.408-2.713,12.611-8.138,12.611c-5.167,0-7.75-4.144-7.75-12.436
		c0-8.479,2.747-12.717,8.243-12.717C370.042,159.567,372.59,163.747,372.59,172.108z M369.455,172.355
		c0-3.853-0.446-6.646-1.339-8.385c-0.704-1.362-1.856-2.043-3.453-2.043c-1.714,0-2.924,0.739-3.628,2.22
		c-0.798,1.691-1.198,4.334-1.198,7.927c0,3.64,0.458,6.388,1.373,8.243c0.68,1.363,1.819,2.043,3.416,2.043
		c1.738,0,2.949-0.739,3.629-2.219C369.055,178.425,369.455,175.83,369.455,172.355z"/>
	<path fill="#222222" d="M386.821,159.953l-0.035,0.212l-0.595,1.445c-0.048,0.142-0.14,0.211-0.279,0.211
		c-0.069,0-0.176-0.035-0.313-0.105c-1.005-0.493-1.915-0.739-2.732-0.739c-0.866,0-1.46,0.34-1.786,1.021
		c-0.21,0.422-0.315,1.291-0.315,2.607v2.712h5.077c0.257,0,0.386,0.082,0.386,0.246c0,0.047-0.024,0.117-0.071,0.211l-0.455,1.409
		c-0.07,0.211-0.21,0.317-0.419,0.317h-4.516v12.541h2.471c0.278,0,0.418,0.141,0.418,0.423v1.338c0,0.282-0.142,0.424-0.423,0.424
		h-7.116c-0.281,0-0.423-0.142-0.423-0.424v-1.338c0-0.282,0.142-0.423,0.423-0.423h1.973v-12.541h-2.325
		c-0.279,0-0.422-0.13-0.422-0.389v-1.374c0-0.28,0.142-0.423,0.422-0.423h2.325v-2.748c0-1.902,0.306-3.264,0.918-4.087
		c0.893-1.174,2.207-1.762,3.945-1.762c0.822,0,1.674,0.142,2.553,0.424C386.381,159.426,386.821,159.696,386.821,159.953z"/>
</g>
</svg>
