<?xml version="1.0" encoding="utf-8"?>
<!-- Generator: Adobe Illustrator 16.0.0, SVG Export Plug-In . SVG Version: 6.00 Build 0)  -->
<!DOCTYPE svg PUBLIC "-//W3C//DTD SVG 1.1//EN" "http://www.w3.org/Graphics/SVG/1.1/DTD/svg11.dtd">
<svg version="1.1" id="Layer_1" xmlns="http://www.w3.org/2000/svg" xmlns:xlink="http://www.w3.org/1999/xlink" x="0px" y="0px"
	 width="27.312px" height="26px" viewBox="-0.174 -0.166 27.312 26" enable-background="new -0.174 -0.166 27.312 26"
	 xml:space="preserve">
<g>
	<path fill="#222222" d="M0.829,7.364C1.497,5.748,2.434,4.38,3.637,3.262C4.84,2.144,6.28,1.293,7.958,0.71
		c1.678-0.583,3.513-0.875,5.506-0.875c2.018,0,3.865,0.292,5.542,0.875c1.677,0.583,3.118,1.435,4.321,2.552
		c1.204,1.119,2.139,2.486,2.808,4.103s1.003,3.458,1.003,5.524c0,2.068-0.334,3.908-1.003,5.524
		c-0.669,1.618-1.604,2.984-2.808,4.103c-1.202,1.119-2.645,1.951-4.321,2.497c-1.678,0.548-3.524,0.821-5.542,0.821
		c-1.993,0-3.829-0.273-5.506-0.821c-1.677-0.546-3.117-1.378-4.321-2.497c-1.203-1.117-2.14-2.486-2.808-4.103
		c-0.668-1.616-1.003-3.458-1.003-5.524C-0.174,10.823,0.161,8.981,0.829,7.364z M22.798,7.656
		c-0.511-1.471-1.221-2.687-2.133-3.646c-0.912-0.96-1.982-1.671-3.209-2.133c-1.228-0.462-2.559-0.693-3.993-0.693
		c-1.41,0-2.729,0.232-3.957,0.693C8.28,2.338,7.21,3.049,6.299,4.01C5.387,4.97,4.676,6.186,4.166,7.656
		c-0.511,1.47-0.766,3.215-0.766,5.232c0,2.019,0.255,3.762,0.766,5.233c0.51,1.471,1.222,2.686,2.133,3.646
		C7.21,22.729,8.28,23.439,9.507,23.9c1.228,0.463,2.546,0.692,3.957,0.692c1.434,0,2.765-0.23,3.993-0.692
		c1.227-0.461,2.297-1.171,3.209-2.133c0.912-0.959,1.622-2.174,2.133-3.646s0.766-3.215,0.766-5.233
		C23.564,10.871,23.309,9.126,22.798,7.656z"/>
</g>
</svg>
