<?xml version="1.0" encoding="utf-8"?>
<!-- Generator: Adobe Illustrator 16.0.0, SVG Export Plug-In . SVG Version: 6.00 Build 0)  -->
<!DOCTYPE svg PUBLIC "-//W3C//DTD SVG 1.1//EN" "http://www.w3.org/Graphics/SVG/1.1/DTD/svg11.dtd">
<svg version="1.1" id="Layer_1" xmlns="http://www.w3.org/2000/svg" xmlns:xlink="http://www.w3.org/1999/xlink" x="0px" y="0px"
	 width="26.964px" height="25.668px" viewBox="0 0 26.964 25.668" enable-background="new 0 0 26.964 25.668" xml:space="preserve">
<g>
	<path fill="#222222" d="M0.99,7.434c0.66-1.596,1.584-2.946,2.772-4.05C4.95,2.28,6.372,1.44,8.028,0.864
		C9.684,0.288,11.496,0,13.464,0c1.993,0,3.816,0.288,5.472,0.864c1.655,0.576,3.078,1.417,4.267,2.52
		c1.188,1.104,2.111,2.454,2.771,4.05s0.99,3.414,0.99,5.454c0,2.042-0.33,3.858-0.99,5.454c-0.66,1.598-1.584,2.946-2.771,4.051
		c-1.188,1.104-2.611,1.926-4.267,2.465c-1.656,0.541-3.479,0.811-5.472,0.811c-1.968,0-3.78-0.27-5.436-0.811
		c-1.656-0.539-3.078-1.361-4.266-2.465c-1.188-1.104-2.112-2.455-2.772-4.051C0.33,16.746,0,14.928,0,12.888
		C0,10.848,0.33,9.03,0.99,7.434z M22.68,7.722c-0.505-1.452-1.206-2.652-2.106-3.6c-0.9-0.948-1.957-1.65-3.168-2.106
		c-1.212-0.456-2.525-0.684-3.942-0.684c-1.392,0-2.694,0.229-3.906,0.684C8.346,2.472,7.29,3.174,6.39,4.122
		c-0.9,0.948-1.602,2.148-2.106,3.6c-0.504,1.452-0.756,3.174-0.756,5.166c0,1.993,0.252,3.713,0.756,5.167
		c0.504,1.452,1.206,2.651,2.106,3.6c0.9,0.949,1.956,1.65,3.168,2.105c1.212,0.457,2.514,0.684,3.906,0.684
		c1.417,0,2.73-0.228,3.942-0.684c1.211-0.455,2.268-1.156,3.168-2.105c0.9-0.948,1.602-2.147,2.106-3.6
		c0.504-1.453,0.756-3.174,0.756-5.167C23.436,10.896,23.184,9.174,22.68,7.722z"/>
</g>
</svg>
