<?xml version="1.0" encoding="utf-8"?>
<!-- Generator: Adobe Illustrator 16.0.0, SVG Export Plug-In . SVG Version: 6.00 Build 0)  -->
<!DOCTYPE svg PUBLIC "-//W3C//DTD SVG 1.1//EN" "http://www.w3.org/Graphics/SVG/1.1/DTD/svg11.dtd">
<svg version="1.1" id="Layer_1" xmlns="http://www.w3.org/2000/svg" xmlns:xlink="http://www.w3.org/1999/xlink" x="0px" y="0px"
	 width="37.934px" height="25.295px" viewBox="0 0 37.934 25.295" enable-background="new 0 0 37.934 25.295" xml:space="preserve">
<g>
	<path fill="#222222" d="M0,1.16V0.035c2.354,0.082,4.219,0.123,5.59,0.123c0.914,0,1.887-0.013,2.918-0.04l2.76-0.099
		C11.572,0.007,11.854,0,12.111,0c1.863,0,3.328,0.205,4.396,0.615c1.067,0.41,1.897,1.062,2.496,1.96
		c0.598,0.897,0.896,1.919,0.896,3.067c0,1.031-0.249,2.057-0.747,3.076c-0.498,1.019-1.222,1.884-2.171,2.593
		s-1.938,1.216-2.971,1.521c-0.703,0.211-1.5,0.315-2.391,0.315c-0.75,0-1.56-0.082-2.427-0.246l-0.368-1.301
		c1.043,0.246,1.862,0.369,2.461,0.369c0.879,0,1.714-0.214,2.505-0.643c0.791-0.429,1.405-1.074,1.846-1.937
		c0.439-0.863,0.659-1.817,0.659-2.862c0-1.009-0.214-1.922-0.643-2.738c-0.428-0.815-1.077-1.435-1.95-1.857
		c-0.873-0.422-1.932-0.634-3.174-0.634c-1.112,0-2.309,0.199-3.586,0.598C6.838,3.14,6.785,5.083,6.785,7.729v8.853
		c0,1.592,0.018,3.144,0.053,4.653c0.035,1.113,0.12,1.774,0.255,1.986c0.135,0.211,0.352,0.365,0.65,0.465s1.146,0.162,2.54,0.185
		v1.125c-2.168-0.082-3.763-0.123-4.781-0.123c-0.398,0-2.232,0.041-5.502,0.123v-1.125c1.375-0.022,2.215-0.085,2.518-0.185
		s0.513-0.236,0.63-0.412c0.141-0.234,0.228-0.803,0.263-1.705c0.015-0.245,0.044-1.907,0.088-4.987V8.449
		c0-1.592-0.019-3.15-0.054-4.672C3.41,2.665,3.325,2.006,3.19,1.801C3.056,1.596,2.839,1.444,2.54,1.345
		C2.241,1.246,1.395,1.184,0,1.16z"/>
	<path fill="#222222" d="M24.609,12.955l-0.932-0.246c0.012-0.27,0.018-0.639,0.018-1.107c0-0.492-0.006-0.885-0.018-1.178
		c1.49-0.973,2.711-1.629,3.662-1.969c0.728-0.246,1.543-0.369,2.447-0.369c1.337,0,2.464,0.252,3.379,0.756
		c0.915,0.504,1.596,1.225,2.042,2.162c0.305,0.656,0.458,1.553,0.458,2.688l-0.088,3.218v5.237c0,0.562,0.047,0.968,0.141,1.213
		c0.07,0.177,0.182,0.306,0.334,0.388c0.117,0.069,0.363,0.117,0.738,0.142l1.143,0.104v1.002c-0.961-0.082-1.805-0.123-2.531-0.123
		c-0.702,0-1.641,0.041-2.812,0.123l0.088-3.095c-2.391,1.806-3.809,2.822-4.254,3.051s-1.008,0.343-1.688,0.343
		c-1.418,0-2.521-0.378-3.312-1.134s-1.188-1.762-1.188-3.016c0-0.809,0.139-1.547,0.413-2.215c0.275-0.668,0.606-1.197,0.993-1.591
		c0.387-0.393,0.779-0.683,1.178-0.87c0.681-0.316,1.784-0.656,3.313-1.02c1.529-0.364,3.044-0.633,4.544-0.809
		c0.012-1.113-0.123-1.98-0.404-2.603c-0.28-0.622-0.756-1.131-1.424-1.529c-0.668-0.398-1.481-0.598-2.443-0.598
		c-0.69,0-1.298,0.094-1.818,0.281c-0.521,0.187-0.841,0.346-0.958,0.475l-0.316,0.633C24.996,12.006,24.762,12.557,24.609,12.955z
		 M32.678,15.715c-1.523,0.259-2.824,0.545-3.902,0.861c-1.077,0.315-1.84,0.646-2.284,0.983c-0.271,0.199-0.505,0.498-0.703,0.896
		c-0.306,0.586-0.457,1.236-0.457,1.951c0,0.867,0.239,1.544,0.721,2.029c0.481,0.486,1.148,0.729,2.004,0.729
		c0.785,0,1.562-0.226,2.329-0.677s1.532-1.129,2.294-2.03L32.678,15.715L32.678,15.715z"/>
</g>
</svg>
