<?xml version="1.0" encoding="utf-8"?>
<!-- Generator: Adobe Illustrator 16.0.0, SVG Export Plug-In . SVG Version: 6.00 Build 0)  -->
<!DOCTYPE svg PUBLIC "-//W3C//DTD SVG 1.1 Tiny//EN" "http://www.w3.org/Graphics/SVG/1.1/DTD/svg11-tiny.dtd">
<svg version="1.1" baseProfile="tiny" id="Layer_1" xmlns="http://www.w3.org/2000/svg" xmlns:xlink="http://www.w3.org/1999/xlink"
	 x="0px" y="0px" width="37.934px" height="25.295px" viewBox="0 0 37.934 25.295" xml:space="preserve">
<g>
	<path d="M0,1.16V0.035c2.355,0.082,4.219,0.123,5.59,0.123c0.914,0,1.887-0.013,2.918-0.04l2.76-0.099
		C11.572,0.007,11.854,0,12.111,0c1.863,0,3.328,0.205,4.395,0.615s1.898,1.063,2.496,1.96s0.896,1.919,0.896,3.067
		c0,1.031-0.249,2.057-0.747,3.076s-1.222,1.884-2.171,2.593s-1.939,1.216-2.971,1.521c-0.703,0.211-1.5,0.316-2.391,0.316
		c-0.75,0-1.559-0.082-2.426-0.246l-0.369-1.301c1.043,0.246,1.863,0.369,2.461,0.369c0.879,0,1.714-0.214,2.505-0.643
		c0.791-0.429,1.406-1.074,1.846-1.937c0.439-0.863,0.659-1.817,0.659-2.862c0-1.009-0.214-1.922-0.642-2.738
		c-0.428-0.815-1.078-1.435-1.951-1.857c-0.873-0.422-1.931-0.634-3.173-0.634c-1.113,0-2.309,0.199-3.586,0.598
		C6.838,3.14,6.785,5.083,6.785,7.729v8.853c0,1.592,0.018,3.144,0.053,4.654c0.035,1.113,0.12,1.774,0.255,1.985
		c0.135,0.211,0.352,0.366,0.65,0.466c0.299,0.099,1.146,0.161,2.54,0.184v1.125c-2.168-0.082-3.762-0.123-4.781-0.123
		c-0.398,0-2.232,0.041-5.502,0.123v-1.125c1.375-0.023,2.215-0.085,2.518-0.184c0.303-0.1,0.513-0.237,0.63-0.413
		c0.14-0.234,0.227-0.802,0.262-1.704c0.015-0.246,0.044-1.908,0.088-4.988V8.449c0-1.592-0.018-3.15-0.053-4.672
		C3.41,2.665,3.325,2.006,3.19,1.801C3.056,1.596,2.839,1.444,2.54,1.345S1.395,1.184,0,1.16z"/>
	<path d="M24.609,12.955l-0.932-0.246c0.012-0.27,0.018-0.639,0.018-1.107c0-0.492-0.006-0.885-0.018-1.178
		c1.49-0.973,2.711-1.629,3.662-1.969c0.728-0.246,1.543-0.369,2.447-0.369c1.337,0,2.464,0.252,3.379,0.756
		s1.596,1.225,2.042,2.162c0.305,0.656,0.458,1.553,0.458,2.689l-0.088,3.217v5.238c0,0.562,0.047,0.967,0.141,1.213
		c0.07,0.176,0.182,0.305,0.334,0.387c0.117,0.07,0.363,0.117,0.738,0.141l1.143,0.105v1.002c-0.961-0.082-1.805-0.123-2.531-0.123
		c-0.703,0-1.641,0.041-2.812,0.123l0.088-3.094c-2.391,1.805-3.809,2.821-4.254,3.05s-1.008,0.343-1.688,0.343
		c-1.418,0-2.522-0.378-3.313-1.134s-1.187-1.761-1.187-3.015c0-0.809,0.138-1.547,0.413-2.215s0.606-1.198,0.993-1.591
		s0.779-0.683,1.178-0.87c0.68-0.316,1.784-0.656,3.313-1.02s3.044-0.633,4.544-0.809c0.012-1.113-0.123-1.98-0.404-2.602
		s-0.756-1.131-1.424-1.529s-1.482-0.598-2.443-0.598c-0.691,0-1.298,0.094-1.819,0.281s-0.841,0.346-0.958,0.475l-0.316,0.633
		C24.996,12.006,24.762,12.557,24.609,12.955z M32.678,15.715c-1.523,0.258-2.824,0.545-3.902,0.861s-1.84,0.645-2.285,0.984
		c-0.27,0.199-0.504,0.498-0.703,0.896c-0.305,0.586-0.457,1.236-0.457,1.951c0,0.867,0.24,1.544,0.721,2.03
		s1.148,0.729,2.004,0.729c0.785,0,1.562-0.226,2.329-0.677s1.532-1.128,2.294-2.03V15.715z"/>
</g>
</svg>
