<?xml version="1.0" encoding="utf-8"?>
<!-- Generator: Adobe Illustrator 16.0.0, SVG Export Plug-In . SVG Version: 6.00 Build 0)  -->
<!DOCTYPE svg PUBLIC "-//W3C//DTD SVG 1.1//EN" "http://www.w3.org/Graphics/SVG/1.1/DTD/svg11.dtd">
<svg version="1.1" id="Layer_1" xmlns="http://www.w3.org/2000/svg" xmlns:xlink="http://www.w3.org/1999/xlink" x="0px" y="0px"
	 width="38.99px" height="26px" viewBox="-0.529 -0.353 38.99 26" enable-background="new -0.529 -0.353 38.99 26"
	 xml:space="preserve">
<g>
	<path fill="#222222" d="M-0.529,0.84v-1.156C1.891-0.232,3.808-0.19,5.217-0.19c0.94,0,1.939-0.014,3-0.041l2.837-0.102
		c0.312-0.013,0.602-0.02,0.866-0.02c1.915,0,3.421,0.211,4.519,0.632c1.097,0.421,1.949,1.091,2.565,2.015
		c0.614,0.922,0.921,1.973,0.921,3.152c0,1.06-0.257,2.115-0.768,3.162c-0.512,1.047-1.256,1.937-2.231,2.666
		c-0.975,0.729-1.992,1.25-3.054,1.563c-0.723,0.217-1.542,0.324-2.457,0.324c-0.771,0-1.604-0.084-2.496-0.253l-0.377-1.337
		c1.072,0.253,1.913,0.379,2.53,0.379c0.903,0,1.761-0.22,2.575-0.66c0.813-0.441,1.443-1.104,1.897-1.991
		c0.452-0.887,0.678-1.868,0.678-2.942c0-1.037-0.22-1.976-0.662-2.814c-0.44-0.837-1.106-1.475-2.004-1.909
		c-0.897-0.434-1.986-0.652-3.263-0.652c-1.142,0-2.373,0.205-3.686,0.615C6.5,2.875,6.446,4.872,6.446,7.592v9.1
		c0,1.637,0.018,3.231,0.054,4.783c0.036,1.145,0.123,1.823,0.262,2.042c0.139,0.217,0.361,0.374,0.668,0.478
		c0.306,0.103,1.178,0.167,2.611,0.189v1.156c-2.228-0.084-3.869-0.126-4.915-0.126c-0.409,0-2.294,0.042-5.655,0.126v-1.156
		c1.414-0.022,2.277-0.087,2.588-0.189c0.311-0.104,0.528-0.243,0.647-0.424c0.146-0.24,0.235-0.825,0.271-1.752
		c0.015-0.252,0.045-1.961,0.09-5.127V8.332c0-1.637-0.02-3.238-0.056-4.802C2.977,2.387,2.889,1.709,2.75,1.499
		c-0.137-0.21-0.36-0.367-0.667-0.468C1.775,0.928,0.905,0.865-0.529,0.84z"/>
	<path fill="#222222" d="M24.766,12.964l-0.958-0.253c0.013-0.278,0.019-0.657,0.019-1.138c0-0.506-0.006-0.91-0.019-1.211
		c1.532-1,2.787-1.674,3.765-2.023c0.748-0.253,1.586-0.379,2.516-0.379c1.374,0,2.532,0.259,3.473,0.777
		c0.94,0.519,1.641,1.259,2.1,2.222c0.312,0.675,0.471,1.597,0.471,2.764l-0.091,3.308v5.383c0,0.577,0.048,0.995,0.145,1.247
		c0.072,0.182,0.187,0.314,0.344,0.398c0.12,0.071,0.373,0.12,0.759,0.146l1.174,0.107v1.029c-0.987-0.084-1.854-0.126-2.602-0.126
		c-0.721,0-1.687,0.042-2.89,0.126l0.09-3.181c-2.457,1.856-3.914,2.901-4.372,3.136c-0.458,0.235-1.036,0.353-1.735,0.353
		c-1.458,0-2.591-0.389-3.404-1.165c-0.812-0.777-1.222-1.812-1.222-3.1c0-0.833,0.144-1.591,0.425-2.277
		c0.283-0.687,0.623-1.23,1.021-1.636c0.397-0.403,0.802-0.702,1.211-0.895c0.701-0.324,1.834-0.674,3.406-1.048
		c1.571-0.374,3.129-0.651,4.67-0.832c0.013-1.145-0.126-2.035-0.415-2.675c-0.287-0.639-0.777-1.162-1.464-1.572
		c-0.687-0.409-1.521-0.614-2.511-0.614c-0.709,0-1.335,0.096-1.868,0.289c-0.536,0.192-0.864,0.356-0.985,0.488l-0.325,0.65
		C25.164,11.988,24.923,12.555,24.766,12.964z M33.06,15.801c-1.565,0.266-2.902,0.56-4.011,0.885
		c-1.106,0.324-1.892,0.664-2.347,1.011c-0.279,0.204-0.521,0.512-0.723,0.921c-0.315,0.602-0.47,1.27-0.47,2.005
		c0,0.891,0.244,1.588,0.74,2.085c0.495,0.5,1.181,0.75,2.06,0.75c0.808,0,1.606-0.231,2.395-0.695s1.575-1.16,2.357-2.087
		L33.06,15.801L33.06,15.801z"/>
</g>
</svg>
