<?xml version="1.0" encoding="utf-8"?>
<!-- Generator: Adobe Illustrator 16.0.0, SVG Export Plug-In . SVG Version: 6.00 Build 0)  -->
<!DOCTYPE svg PUBLIC "-//W3C//DTD SVG 1.1//EN" "http://www.w3.org/Graphics/SVG/1.1/DTD/svg11.dtd">
<svg version="1.1" id="Layer_1" xmlns="http://www.w3.org/2000/svg" xmlns:xlink="http://www.w3.org/1999/xlink" x="0px" y="0px"
	 width="33.802px" height="24.333px" viewBox="0 0 33.802 24.333" enable-background="new 0 0 33.802 24.333" xml:space="preserve">
<g>
	<path d="M7.703,12.707H6.659v5.507l0.36,3.635l3.275,0.576v1.116H0v-1.116l2.916-0.576l0.359-3.635V5.292L2.916,1.656L0,1.08V0
		h10.835c4.427,0,6.263,2.484,6.263,5.615C17.098,9.467,14.29,12.707,7.703,12.707z M8.351,1.512H6.659v9.503
		c0.756,0.144,0.864,0.18,1.691,0.18c3.276,0.036,5.328-1.908,5.328-5.075C13.714,3.312,12.095,1.512,8.351,1.512z"/>
	<path d="M25.739,24.333c-4.607,0-7.739-3.276-7.739-8.639c0-5.183,2.808-9.035,8.135-9.035c4.607,0,7.667,3.096,7.667,8.711
		C33.802,20.841,30.526,24.333,25.739,24.333z M25.955,8.171c-2.88,0-4.464,2.268-4.464,7.271c0,4.896,1.548,7.343,4.355,7.343
		c2.88,0,4.5-2.376,4.5-7.379C30.347,10.619,28.799,8.171,25.955,8.171z"/>
</g>
</svg>
