<?xml version="1.0" encoding="utf-8"?>
<!-- Generator: Adobe Illustrator 16.0.0, SVG Export Plug-In . SVG Version: 6.00 Build 0)  -->
<!DOCTYPE svg PUBLIC "-//W3C//DTD SVG 1.1//EN" "http://www.w3.org/Graphics/SVG/1.1/DTD/svg11.dtd">
<svg version="1.1" id="Layer_1" xmlns="http://www.w3.org/2000/svg" xmlns:xlink="http://www.w3.org/1999/xlink" x="0px" y="0px"
	 width="33.801px" height="24.333px" viewBox="0 0 33.801 24.333" enable-background="new 0 0 33.801 24.333" xml:space="preserve">
<g>
	<path fill="#222222" d="M7.703,12.708H6.659v5.506l0.36,3.636l3.275,0.575v1.117H0v-1.117l2.916-0.575l0.359-3.636V5.292
		L2.916,1.656L0,1.08V0h10.835c4.427,0,6.263,2.484,6.263,5.615C17.098,9.467,14.29,12.708,7.703,12.708z M8.351,1.512H6.659v9.503
		c0.756,0.144,0.864,0.18,1.691,0.18c3.276,0.036,5.328-1.908,5.328-5.075C13.714,3.312,12.095,1.512,8.351,1.512z"/>
	<path fill="#222222" d="M25.739,24.333c-4.607,0-7.738-3.275-7.738-8.639c0-5.183,2.808-9.035,8.135-9.035
		c4.607,0,7.666,3.096,7.666,8.71C33.801,20.84,30.526,24.333,25.739,24.333z M25.956,8.171c-2.881,0-4.465,2.268-4.465,7.271
		c0,4.896,1.549,7.344,4.355,7.344c2.88,0,4.5-2.377,4.5-7.379C30.347,10.619,28.799,8.171,25.956,8.171z"/>
</g>
</svg>
