<?xml version="1.0" encoding="utf-8"?>
<!-- Generator: Adobe Illustrator 16.0.0, SVG Export Plug-In . SVG Version: 6.00 Build 0)  -->
<!DOCTYPE svg PUBLIC "-//W3C//DTD SVG 1.1//EN" "http://www.w3.org/Graphics/SVG/1.1/DTD/svg11.dtd">
<svg version="1.1" id="Layer_1" xmlns="http://www.w3.org/2000/svg" xmlns:xlink="http://www.w3.org/1999/xlink" x="0px" y="0px"
	 width="36.118px" height="26px" viewBox="-1.158 -0.833 36.118 26" enable-background="new -1.158 -0.833 36.118 26"
	 xml:space="preserve">
<g>
	<path fill="#222222" d="M7.073,12.745H5.958v5.883l0.384,3.887l3.5,0.613v1.193h-11v-1.193l3.116-0.613l0.384-3.887V4.821
		L1.958,0.936L-1.158,0.32v-1.154h11.578c4.73,0,6.692,2.654,6.692,6C17.112,9.282,14.111,12.745,7.073,12.745z M7.765,0.782H5.958
		v10.154c0.808,0.154,0.923,0.192,1.807,0.192c3.5,0.039,5.693-2.039,5.693-5.423C13.496,2.705,11.766,0.782,7.765,0.782z"/>
	<path fill="#222222" d="M26.344,25.167c-4.922,0-8.268-3.499-8.268-9.23c0-5.539,3-9.654,8.693-9.654
		c4.922,0,8.19,3.308,8.19,9.308C34.959,21.435,31.459,25.167,26.344,25.167z M26.576,7.897c-3.078,0-4.771,2.424-4.771,7.77
		c0,5.231,1.655,7.847,4.653,7.847c3.078,0,4.808-2.54,4.808-7.885C31.27,10.513,29.614,7.897,26.576,7.897z"/>
</g>
</svg>
