<?xml version="1.0" encoding="utf-8"?>
<!-- Generator: Adobe Illustrator 16.0.0, SVG Export Plug-In . SVG Version: 6.00 Build 0)  -->
<!DOCTYPE svg PUBLIC "-//W3C//DTD SVG 1.1//EN" "http://www.w3.org/Graphics/SVG/1.1/DTD/svg11.dtd">
<svg version="1.1" id="Layer_1" xmlns="http://www.w3.org/2000/svg" xmlns:xlink="http://www.w3.org/1999/xlink" x="0px" y="0px"
	 width="31.251px" height="26px" viewBox="-0.093 -0.077 31.251 26" enable-background="new -0.093 -0.077 31.251 26"
	 xml:space="preserve">
<g>
	<path fill="#222222" d="M-0.093,0.249L0.45,0.176c1.775-0.145,4.382-0.253,5.975-0.253c3.404,0,5.614,0.58,7.387,1.847
		c1.847,1.34,2.861,3.512,2.861,6.12c0,2.825-1.157,5.105-3.332,6.518c-1.847,1.231-3.947,1.699-7.352,1.699
		c-0.797,0-1.447,0-2.497-0.07v9.885h-3.585V0.249z M3.492,13.104c1.157,0,1.774,0,2.497,0c4.635,0,6.953-1.666,6.953-5.07
		c0-3.367-2.281-5.105-6.59-5.105c-0.796,0-1.484,0-2.86,0.072L3.492,13.104L3.492,13.104z"/>
	<path fill="#222222" d="M21.237,9.446c2.1-0.869,4.635-1.376,6.879-1.376c1.196,0,2.03,0.146,3.042,0.472v2.825
		c-0.979-0.398-1.811-0.58-2.896-0.58c-1.269,0-2.39,0.253-3.659,0.797v14.339h-3.367L21.237,9.446L21.237,9.446z"/>
</g>
</svg>
