<?xml version="1.0" encoding="utf-8"?>
<!-- Generator: Adobe Illustrator 16.0.0, SVG Export Plug-In . SVG Version: 6.00 Build 0)  -->
<!DOCTYPE svg PUBLIC "-//W3C//DTD SVG 1.1//EN" "http://www.w3.org/Graphics/SVG/1.1/DTD/svg11.dtd">
<svg version="1.1" id="Layer_1" xmlns="http://www.w3.org/2000/svg" xmlns:xlink="http://www.w3.org/1999/xlink" x="0px" y="0px"
	 width="31.066px" height="25.844px" viewBox="0 0 31.066 25.844" enable-background="new 0 0 31.066 25.844" xml:space="preserve">
<g>
	<path fill="#222222" d="M0,0.324l0.54-0.072C2.304,0.108,4.896,0,6.479,0c3.384,0,5.58,0.576,7.343,1.836
		c1.836,1.332,2.844,3.491,2.844,6.083c0,2.808-1.151,5.075-3.312,6.479c-1.836,1.224-3.924,1.69-7.308,1.69
		c-0.792,0-1.439,0-2.483-0.071v9.827H0V0.324z M3.563,13.103c1.151,0,1.764,0,2.483,0c4.607,0,6.911-1.656,6.911-5.04
		c0-3.347-2.268-5.075-6.551-5.075c-0.792,0-1.476,0-2.844,0.072V13.103z"/>
	<path fill="#222222" d="M21.203,9.467c2.088-0.864,4.607-1.368,6.839-1.368c1.188,0,2.017,0.145,3.023,0.469v2.808
		c-0.973-0.396-1.8-0.576-2.879-0.576c-1.261,0-2.376,0.252-3.637,0.792v14.254h-3.348L21.203,9.467L21.203,9.467z"/>
</g>
</svg>
