<?xml version="1.0" encoding="utf-8"?>
<!-- Generator: Adobe Illustrator 16.0.0, SVG Export Plug-In . SVG Version: 6.00 Build 0)  -->
<!DOCTYPE svg PUBLIC "-//W3C//DTD SVG 1.1 Tiny//EN" "http://www.w3.org/Graphics/SVG/1.1/DTD/svg11-tiny.dtd">
<svg version="1.1" baseProfile="tiny" id="Layer_1" xmlns="http://www.w3.org/2000/svg" xmlns:xlink="http://www.w3.org/1999/xlink"
	 x="0px" y="0px" width="26.731px" height="36.425px" viewBox="371.774 257.22 26.731 36.425" xml:space="preserve">
<g>
	<path d="M398.506,272.021c0,3.75-0.875,6.892-2.623,9.425c-1.25,1.817-2.891,3.259-4.922,4.325
		c-1.299,0.684-2.183,1.025-2.648,1.025l-1.773,0.3l2.873,1.175c1.398,0.85,2.465,1.466,3.197,1.85
		c0.733,0.383,1.475,0.625,2.224,0.725c0.116,0,0.241,0.008,0.375,0.025c0.133,0.016,0.241,0.025,0.324,0.025
		c0.533,0,1.058-0.138,1.574-0.414l0.55-0.311l0.55,1.199c-0.55,0.5-1.017,0.875-1.399,1.124c-1.216,0.766-2.474,1.149-3.772,1.149
		c-1.565,0-3.072-0.492-4.521-1.475c-0.783-0.533-1.849-1.492-3.198-2.875c-1.133-1.15-1.957-1.817-2.473-2
		c-3.698-1.233-6.454-3.083-8.27-5.55c-1.865-2.533-2.798-5.75-2.798-9.65c0-4.083,1.182-7.533,3.547-10.35
		c2.532-3.017,5.847-4.525,9.943-4.525c4.08,0,7.336,1.45,9.769,4.35C397.348,264.321,398.506,267.804,398.506,272.021z
		 M393.659,271.96c0-2.298-0.226-4.338-0.675-6.121c-0.55-2.182-1.399-3.864-2.548-5.046c-1.35-1.382-3.09-2.074-5.222-2.074
		c-3.147,0-5.455,1.391-6.92,4.172c-1.149,2.198-1.725,5.088-1.725,8.669c0,2.482,0.217,4.638,0.65,6.47
		c0.532,2.282,1.39,4.064,2.573,5.346c1.365,1.483,3.139,2.224,5.321,2.224c2.364,0,4.229-0.716,5.596-2.148
		c1.149-1.199,1.957-2.923,2.424-5.171C393.484,276.599,393.659,274.492,393.659,271.96z"/>
</g>
</svg>
