<?xml version="1.0" encoding="utf-8"?>
<!-- Generator: Adobe Illustrator 16.0.0, SVG Export Plug-In . SVG Version: 6.00 Build 0)  -->
<!DOCTYPE svg PUBLIC "-//W3C//DTD SVG 1.1//EN" "http://www.w3.org/Graphics/SVG/1.1/DTD/svg11.dtd">
<svg version="1.1" id="Layer_1" xmlns="http://www.w3.org/2000/svg" xmlns:xlink="http://www.w3.org/1999/xlink" x="0px" y="0px"
	 width="26.729px" height="36.425px" viewBox="371.777 257.218 26.729 36.425"
	 enable-background="new 371.777 257.218 26.729 36.425" xml:space="preserve">
<g>
	<path fill="#222222" d="M398.506,272.021c0,3.75-0.875,6.893-2.623,9.425c-1.25,1.817-2.891,3.259-4.922,4.325
		c-1.299,0.684-2.183,1.025-2.647,1.025l-1.773,0.3l2.873,1.175c1.397,0.85,2.465,1.466,3.197,1.85
		c0.732,0.383,1.475,0.625,2.224,0.726c0.116,0,0.241,0.008,0.375,0.024c0.133,0.016,0.241,0.025,0.324,0.025
		c0.533,0,1.058-0.139,1.574-0.414l0.55-0.311l0.55,1.199c-0.55,0.5-1.017,0.875-1.399,1.123c-1.216,0.766-2.474,1.149-3.771,1.149
		c-1.565,0-3.072-0.492-4.521-1.476c-0.782-0.533-1.849-1.492-3.197-2.875c-1.134-1.149-1.957-1.816-2.474-2
		c-3.697-1.232-6.454-3.082-8.27-5.549c-1.865-2.533-2.798-5.75-2.798-9.65c0-4.084,1.182-7.533,3.547-10.35
		c2.532-3.018,5.847-4.525,9.942-4.525c4.08,0,7.336,1.449,9.77,4.35C397.348,264.322,398.506,267.804,398.506,272.021z
		 M393.659,271.96c0-2.299-0.227-4.338-0.675-6.121c-0.551-2.182-1.399-3.864-2.549-5.047c-1.35-1.381-3.09-2.074-5.222-2.074
		c-3.146,0-5.455,1.392-6.92,4.173c-1.149,2.198-1.725,5.088-1.725,8.669c0,2.482,0.217,4.639,0.649,6.471
		c0.532,2.281,1.391,4.062,2.573,5.346c1.365,1.482,3.139,2.224,5.321,2.224c2.363,0,4.229-0.716,5.596-2.147
		c1.149-1.199,1.957-2.924,2.424-5.172C393.485,276.599,393.659,274.492,393.659,271.96z"/>
</g>
</svg>
