<?xml version="1.0" encoding="utf-8"?>
<!-- Generator: Adobe Illustrator 16.0.0, SVG Export Plug-In . SVG Version: 6.00 Build 0)  -->
<!DOCTYPE svg PUBLIC "-//W3C//DTD SVG 1.1//EN" "http://www.w3.org/Graphics/SVG/1.1/DTD/svg11.dtd">
<svg version="1.1" id="Layer_1" xmlns="http://www.w3.org/2000/svg" xmlns:xlink="http://www.w3.org/1999/xlink" x="0px" y="0px"
	 width="22.013px" height="30px" viewBox="374.136 260.429 22.013 30" enable-background="new 374.136 260.429 22.013 30"
	 xml:space="preserve">
<g>
	<path fill="#222222" d="M396.149,272.623c0,3.088-0.721,5.677-2.16,7.762c-1.029,1.497-2.381,2.684-4.054,3.562
		c-1.07,0.562-1.798,0.845-2.18,0.845l-1.461,0.246l2.366,0.968c1.15,0.7,2.03,1.207,2.634,1.523
		c0.603,0.315,1.214,0.515,1.831,0.599c0.096,0,0.198,0.006,0.309,0.02c0.109,0.013,0.199,0.021,0.268,0.021
		c0.438,0,0.871-0.114,1.296-0.341l0.453-0.256l0.453,0.987c-0.453,0.412-0.838,0.721-1.152,0.925
		c-1.002,0.631-2.038,0.946-3.105,0.946c-1.29,0-2.53-0.405-3.725-1.216c-0.643-0.439-1.522-1.229-2.632-2.368
		c-0.935-0.945-1.612-1.495-2.038-1.647c-3.044-1.014-5.315-2.538-6.811-4.569c-1.536-2.087-2.305-4.736-2.305-7.948
		c0-3.363,0.974-6.203,2.921-8.523c2.086-2.485,4.815-3.728,8.188-3.728c3.359,0,6.041,1.193,8.047,3.583
		C395.195,266.281,396.149,269.149,396.149,272.623z M392.156,272.573c0-1.894-0.187-3.573-0.556-5.042
		c-0.454-1.797-1.152-3.183-2.1-4.156c-1.111-1.138-2.545-1.708-4.301-1.708c-2.591,0-4.492,1.146-5.699,3.437
		c-0.946,1.811-1.42,4.19-1.42,7.14c0,2.044,0.179,3.82,0.534,5.329c0.438,1.879,1.146,3.346,2.119,4.402
		c1.124,1.222,2.585,1.833,4.383,1.833c1.945,0,3.482-0.591,4.608-1.769c0.946-0.987,1.611-2.408,1.996-4.259
		C392.014,276.393,392.156,274.657,392.156,272.573z"/>
</g>
</svg>
