<?xml version="1.0" encoding="utf-8"?>
<!-- Generator: Adobe Illustrator 16.0.0, SVG Export Plug-In . SVG Version: 6.00 Build 0)  -->
<!DOCTYPE svg PUBLIC "-//W3C//DTD SVG 1.1//EN" "http://www.w3.org/Graphics/SVG/1.1/DTD/svg11.dtd">
<svg version="1.1" id="Layer_1" xmlns="http://www.w3.org/2000/svg" xmlns:xlink="http://www.w3.org/1999/xlink" x="0px" y="0px"
	 width="40.553px" height="24.943px" viewBox="0 0 40.553 24.943" enable-background="new 0 0 40.553 24.943" xml:space="preserve">
<g>
	<path fill="#222222" d="M3.357,21.393V3.059H0V0h9.932c2.074,0,3.721,0.161,4.939,0.483c1.218,0.322,2.227,1.002,3.022,2.039
		s1.195,2.329,1.195,3.875c0,3.233-1.68,5.267-5.04,6.099l4.319,8.896h2.987v3.059H16.06l-5.566-11.426H7.049v8.367h3.129v3.059H0
		v-3.059L3.357,21.393L3.357,21.393z M7.049,9.967h2.883c1.396,0,2.423-0.091,3.085-0.271s1.204-0.551,1.626-1.107
		c0.422-0.556,0.633-1.304,0.633-2.24c0-0.798-0.214-1.472-0.642-2.021s-0.955-0.899-1.582-1.046
		c-0.627-0.147-1.585-0.22-2.874-0.22H7.049V9.967z"/>
	<path fill="#222222" d="M22.658,15.943c0-2.625,0.866-4.778,2.602-6.46c1.735-1.683,3.85-2.522,6.346-2.522
		c2.449,0,4.554,0.829,6.312,2.487s2.637,3.823,2.637,6.495s-0.876,4.84-2.628,6.504s-3.858,2.496-6.319,2.496
		c-2.53,0-4.654-0.844-6.372-2.531C23.518,20.725,22.658,18.568,22.658,15.943z M26.191,15.935c0,1.68,0.524,3.056,1.573,4.129
		s2.329,1.609,3.841,1.609c1.535,0,2.821-0.542,3.858-1.627s1.556-2.456,1.556-4.111c0-1.668-0.526-3.041-1.582-4.121
		c-1.055-1.079-2.332-1.619-3.832-1.619c-1.569,0-2.864,0.552-3.885,1.654C26.701,12.952,26.191,14.314,26.191,15.935z"/>
</g>
</svg>
