<?xml version="1.0" encoding="utf-8"?>
<!-- Generator: Adobe Illustrator 16.0.0, SVG Export Plug-In . SVG Version: 6.00 Build 0)  -->
<!DOCTYPE svg PUBLIC "-//W3C//DTD SVG 1.1 Tiny//EN" "http://www.w3.org/Graphics/SVG/1.1/DTD/svg11-tiny.dtd">
<svg version="1.1" baseProfile="tiny" id="Layer_1" xmlns="http://www.w3.org/2000/svg" xmlns:xlink="http://www.w3.org/1999/xlink"
	 x="0px" y="0px" width="40.553px" height="24.943px" viewBox="0 0 40.553 24.943" xml:space="preserve">
<g>
	<path d="M3.357,21.393V3.059H0V0h9.932c2.074,0,3.721,0.161,4.939,0.483s2.227,1.002,3.023,2.039s1.195,2.329,1.195,3.875
		c0,3.234-1.68,5.267-5.04,6.099l4.319,8.896h2.988v3.059h-5.296l-5.567-11.426H7.049v8.367h3.129v3.059H0v-3.059H3.357z
		 M7.049,9.967h2.883c1.395,0,2.423-0.091,3.085-0.272s1.204-0.551,1.626-1.107s0.633-1.304,0.633-2.241
		c0-0.797-0.214-1.471-0.642-2.021s-0.955-0.899-1.582-1.046s-1.585-0.22-2.874-0.22H7.049V9.967z"/>
	<path d="M22.658,15.943c0-2.625,0.867-4.778,2.602-6.46s3.85-2.522,6.346-2.522c2.449,0,4.553,0.829,6.311,2.487
		s2.637,3.823,2.637,6.495s-0.876,4.84-2.628,6.504s-3.858,2.496-6.319,2.496c-2.531,0-4.655-0.844-6.372-2.531
		S22.658,18.568,22.658,15.943z M26.191,15.935c0,1.68,0.524,3.056,1.573,4.129c1.049,1.073,2.329,1.61,3.841,1.61
		c1.535,0,2.821-0.542,3.858-1.627s1.556-2.456,1.556-4.112c0-1.668-0.527-3.041-1.582-4.121c-1.055-1.079-2.332-1.619-3.832-1.619
		c-1.57,0-2.865,0.552-3.885,1.654C26.701,12.952,26.191,14.314,26.191,15.935z"/>
</g>
</svg>
