<?xml version="1.0" encoding="utf-8"?>
<!-- Generator: Adobe Illustrator 16.0.0, SVG Export Plug-In . SVG Version: 6.00 Build 0)  -->
<!DOCTYPE svg PUBLIC "-//W3C//DTD SVG 1.1//EN" "http://www.w3.org/Graphics/SVG/1.1/DTD/svg11.dtd">
<svg version="1.1" id="Layer_1" xmlns="http://www.w3.org/2000/svg" xmlns:xlink="http://www.w3.org/1999/xlink" x="0px" y="0px"
	 width="42.273px" height="26px" viewBox="-0.859 -0.529 42.273 26" enable-background="new -0.859 -0.529 42.273 26"
	 xml:space="preserve">
<g>
	<path fill="#222222" d="M2.64,21.771V2.66h-3.499v-3.189H9.493c2.162,0,3.878,0.168,5.149,0.504
		c1.27,0.336,2.321,1.044,3.149,2.125s1.246,2.428,1.246,4.039c0,3.369-1.751,5.49-5.253,6.357l4.502,9.273H21.4v3.188h-5.519
		l-5.801-11.91H6.489v8.722H9.75v3.188H-0.859V21.77L2.64,21.771L2.64,21.771z M6.489,9.861h3.005c1.456,0,2.526-0.095,3.216-0.282
		c0.69-0.187,1.255-0.574,1.695-1.154c0.44-0.579,0.66-1.359,0.66-2.334c0-0.833-0.223-1.535-0.669-2.107
		c-0.446-0.572-0.995-0.936-1.649-1.09c-0.653-0.154-1.652-0.229-2.996-0.229H6.489V9.861z"/>
	<path fill="#222222" d="M22.759,16.091c0-2.736,0.902-4.981,2.712-6.734c1.809-1.755,4.013-2.629,6.614-2.629
		c2.554,0,4.748,0.864,6.58,2.593s2.749,3.985,2.749,6.771c0,2.784-0.913,5.045-2.739,6.779s-4.022,2.602-6.588,2.602
		c-2.636,0-4.85-0.88-6.642-2.639C23.656,21.075,22.759,18.826,22.759,16.091z M26.441,16.082c0,1.751,0.547,3.186,1.641,4.304
		c1.093,1.119,2.428,1.677,4.003,1.677c1.601,0,2.941-0.564,4.022-1.695c1.081-1.132,1.621-2.561,1.621-4.285
		c0-1.738-0.548-3.169-1.648-4.295c-1.1-1.125-2.432-1.688-3.995-1.688c-1.635,0-2.984,0.575-4.049,1.724
		C26.974,12.972,26.441,14.392,26.441,16.082z"/>
</g>
</svg>
