<?xml version="1.0" encoding="utf-8"?>
<!-- Generator: Adobe Illustrator 16.0.0, SVG Export Plug-In . SVG Version: 6.00 Build 0)  -->
<!DOCTYPE svg PUBLIC "-//W3C//DTD SVG 1.1//EN" "http://www.w3.org/Graphics/SVG/1.1/DTD/svg11.dtd">
<svg version="1.1" id="Layer_1" xmlns="http://www.w3.org/2000/svg" xmlns:xlink="http://www.w3.org/1999/xlink" x="0px" y="0px"
	 width="32.823px" height="26px" viewBox="0.129 0.103 32.823 26" enable-background="new 0.129 0.103 32.823 26"
	 xml:space="preserve">
<g>
	<path fill="#222222" d="M0.129,19.674h0.822c0.607,2.678,2.606,5.286,5.571,5.286c2.749,0,4.893-1.93,4.893-4.751
		c0-6.643-10.572-4.679-10.572-13.105C0.844,2.496,4.13,0.103,8.486,0.103c1.464,0,2.929,0.322,4.358,0.536l0.571,4.571h-0.821
		c-0.393-2.5-2.036-3.964-4.608-3.964c-2.713,0-4.285,1.963-4.285,4.571c0,6.643,11,4.821,11,13.036c0,4.643-4.178,7.25-8.393,7.25
		c-1.857,0-3.785-0.43-5.463-1.216L0.129,19.674z"/>
	<path fill="#222222" d="M32.953,24.174c-0.999,0.93-2.106,1.929-3.533,1.929c-1.466,0-2.144-1.357-2.214-2.644
		c-1.678,1.536-3.287,2.644-5.5,2.644c-2.286,0-3.858-1.571-3.858-3.465c0.144-2.856,1.607-3.393,9.323-6.035v-2.357
		c0-2-1.179-3.072-3.464-3.072c-1.572,0-2.644,0.893-2.714,2.5c0,1-1.144,1.5-2,1.5c-0.535,0-0.644-0.465-0.644-0.715
		c0-1.893,1.607-2.786,4.108-4.07c1.251-0.644,1.856-1.144,3.213-1.144c1.607,0,4.359,1.035,4.359,3v9.893
		c0,1.464,0.5,2.036,1.286,2.036c0.464,0,1-0.215,1.321-0.607L32.953,24.174z M27.167,17.637c-1.821,0.716-6.466,1.537-6.466,4.215
		c0,1.394,1.143,2.572,2.538,2.572c1.676,0,2.749-1.036,3.928-2.072V17.637z"/>
</g>
</svg>
