<?xml version="1.0" encoding="utf-8"?>
<!-- Generator: Adobe Illustrator 16.0.0, SVG Export Plug-In . SVG Version: 6.00 Build 0)  -->
<!DOCTYPE svg PUBLIC "-//W3C//DTD SVG 1.1//EN" "http://www.w3.org/Graphics/SVG/1.1/DTD/svg11.dtd">
<svg version="1.1" id="Layer_1" xmlns="http://www.w3.org/2000/svg" xmlns:xlink="http://www.w3.org/1999/xlink" x="0px" y="0px"
	 width="33.083px" height="26.205px" viewBox="0 0 33.083 26.205" enable-background="new 0 0 33.083 26.205" xml:space="preserve">
<g>
	<path fill="#222222" d="M0,19.726h0.828c0.612,2.699,2.627,5.327,5.615,5.327c2.771,0,4.931-1.944,4.931-4.788
		c0-6.695-10.655-4.715-10.655-13.209C0.72,2.412,4.032,0,8.423,0c1.476,0,2.952,0.324,4.392,0.54l0.576,4.607h-0.828
		c-0.396-2.52-2.052-3.995-4.644-3.995C5.184,1.152,3.6,3.131,3.6,5.759c0,6.695,11.086,4.859,11.086,13.139
		c0,4.679-4.211,7.307-8.459,7.307c-1.872,0-3.815-0.432-5.507-1.225L0,19.726z"/>
	<path fill="#222222" d="M33.083,24.261c-1.008,0.937-2.123,1.944-3.562,1.944c-1.477,0-2.16-1.368-2.232-2.664
		c-1.69,1.548-3.312,2.664-5.543,2.664c-2.304,0-3.888-1.584-3.888-3.492c0.144-2.879,1.62-3.419,9.396-6.083v-2.376
		c0-2.016-1.188-3.096-3.491-3.096c-1.585,0-2.664,0.9-2.735,2.52c0,1.009-1.152,1.513-2.016,1.513c-0.54,0-0.648-0.469-0.648-0.721
		c0-1.908,1.62-2.808,4.141-4.103c1.26-0.648,1.871-1.152,3.238-1.152c1.62,0,4.393,1.043,4.393,3.023v9.971
		c0,1.476,0.504,2.052,1.296,2.052c0.468,0,1.008-0.216,1.332-0.611L33.083,24.261z M27.25,17.673
		c-1.836,0.721-6.516,1.549-6.516,4.248c0,1.404,1.151,2.592,2.557,2.592c1.69,0,2.771-1.044,3.959-2.088V17.673z"/>
</g>
</svg>
