<?xml version="1.0" encoding="utf-8"?>
<!-- Generator: Adobe Illustrator 16.0.0, SVG Export Plug-In . SVG Version: 6.00 Build 0)  -->
<!DOCTYPE svg PUBLIC "-//W3C//DTD SVG 1.1//EN" "http://www.w3.org/Graphics/SVG/1.1/DTD/svg11.dtd">
<svg version="1.1" id="Layer_1" xmlns="http://www.w3.org/2000/svg" xmlns:xlink="http://www.w3.org/1999/xlink" x="0px" y="0px"
	 width="32.219px" height="24.912px" viewBox="0 0 32.219 24.912" enable-background="new 0 0 32.219 24.912" xml:space="preserve">
<g>
	<path fill="#222222" d="M1.8,24.804H0.107v-6.479H1.8v2.821c1.104,0.739,1.968,1.228,2.592,1.465
		c0.624,0.238,1.344,0.357,2.16,0.357c1.439,0,2.604-0.347,3.492-1.042c0.888-0.694,1.332-1.604,1.332-2.731
		c0-1.03-0.396-1.965-1.188-2.803c-0.792-0.84-2.244-1.81-4.354-2.912c-2.112-1.104-3.613-2.168-4.5-3.199
		C0.443,9.25,0,7.992,0,6.506C0,4.71,0.671,3.224,2.016,2.049C3.36,0.875,5.052,0.288,7.092,0.288c1.728,0,3.155,0.348,4.284,1.044
		V0h1.654v6.156h-1.654V3.6c-0.938-0.624-1.682-1.044-2.232-1.26C8.591,2.124,7.944,2.016,7.2,2.016
		c-1.225,0-2.202,0.341-2.935,1.024S3.168,4.616,3.168,5.718c0,0.911,0.358,1.725,1.08,2.444c0.72,0.719,2.207,1.726,4.464,3.02
		c2.255,1.293,3.785,2.438,4.59,3.432c0.804,0.994,1.206,2.223,1.206,3.684c0,1.87-0.685,3.439-2.052,4.709
		c-1.368,1.27-3.073,1.905-5.112,1.905c-2.017,0-3.864-0.528-5.544-1.584V24.804z"/>
	<path fill="#222222" d="M32.219,23.112c-1.151,0.701-2.105,1.176-2.861,1.426c-0.757,0.249-1.675,0.375-2.754,0.375
		c-2.545,0-4.555-0.75-6.029-2.25c-1.478-1.5-2.215-3.521-2.215-6.066c0-2.615,0.815-4.752,2.447-6.408s3.744-2.484,6.336-2.484
		c0.96,0,1.758,0.108,2.396,0.324c0.636,0.216,1.434,0.661,2.394,1.332l-1.943,2.16c-0.647-0.682-1.115-1.138-1.403-1.37
		s-0.841-0.603-1.656-1.114c-0.96,0-1.698,0.133-2.214,0.397c-0.517,0.265-1.206,0.933-2.07,2.003
		c-0.862,1.071-1.296,2.509-1.296,4.313c0,2.021,0.601,3.753,1.801,5.197c1.199,1.444,2.641,2.165,4.319,2.165
		c0.6,0,1.164-0.081,1.692-0.244c0.526-0.163,1.308-0.501,2.34-1.016L32.219,23.112z"/>
</g>
</svg>
