<?xml version="1.0" encoding="utf-8"?>
<!-- Generator: Adobe Illustrator 16.0.0, SVG Export Plug-In . SVG Version: 6.00 Build 0)  -->
<!DOCTYPE svg PUBLIC "-//W3C//DTD SVG 1.1//EN" "http://www.w3.org/Graphics/SVG/1.1/DTD/svg11.dtd">
<svg version="1.1" id="Layer_1" xmlns="http://www.w3.org/2000/svg" xmlns:xlink="http://www.w3.org/1999/xlink" x="0px" y="0px"
	 width="33.625px" height="26px" viewBox="-0.703 -0.543 33.625 26" enable-background="new -0.703 -0.543 33.625 26"
	 xml:space="preserve">
<g>
	<path fill="#222222" d="M1.175,25.343h-1.767v-6.762h1.767v2.943c1.152,0.771,2.054,1.282,2.706,1.529
		c0.651,0.248,1.402,0.373,2.254,0.373c1.502,0,2.718-0.362,3.645-1.088c0.927-0.725,1.39-1.675,1.39-2.851
		c0-1.074-0.413-2.051-1.24-2.925c-0.827-0.877-2.342-1.889-4.544-3.039c-2.204-1.152-3.771-2.262-4.696-3.338
		c-0.93-1.077-1.392-2.389-1.392-3.94c0-1.874,0.7-3.425,2.104-4.651C2.804,0.37,4.569-0.243,6.698-0.243
		c1.804,0,3.293,0.363,4.471,1.089v-1.39h1.726v6.425h-1.726V3.214C10.19,2.562,9.414,2.124,8.84,1.898
		C8.263,1.673,7.587,1.561,6.812,1.561c-1.279,0-2.298,0.356-3.063,1.069C2.983,3.342,2.604,4.274,2.604,5.424
		c0,0.951,0.374,1.8,1.127,2.551c0.751,0.75,2.303,1.802,4.659,3.152c2.354,1.35,3.95,2.544,4.79,3.582
		c0.839,1.038,1.259,2.32,1.259,3.845c0,1.952-0.714,3.59-2.141,4.914c-1.428,1.325-3.208,1.988-5.335,1.988
		c-2.104,0-4.032-0.551-5.786-1.652V25.343z"/>
	<path fill="#222222" d="M32.922,23.577c-1.201,0.731-2.197,1.228-2.986,1.488c-0.789,0.26-1.747,0.391-2.874,0.391
		c-2.656,0-4.754-0.782-6.291-2.348c-1.542-1.565-2.312-3.675-2.312-6.331c0-2.729,0.851-4.959,2.554-6.688
		c1.704-1.728,3.907-2.592,6.612-2.592c1.003,0,1.834,0.113,2.501,0.338c0.663,0.226,1.496,0.69,2.499,1.39l-2.028,2.254
		c-0.676-0.712-1.164-1.188-1.465-1.43c-0.3-0.242-0.877-0.629-1.728-1.163c-1.002,0-1.772,0.139-2.311,0.415
		c-0.54,0.277-1.258,0.974-2.161,2.09c-0.898,1.118-1.352,2.619-1.352,4.501c0,2.108,0.627,3.917,1.88,5.423
		c1.251,1.509,2.756,2.261,4.507,2.261c0.625,0,1.215-0.085,1.766-0.255c0.55-0.17,1.365-0.522,2.442-1.06L32.922,23.577z"/>
</g>
</svg>
