<?xml version="1.0" encoding="utf-8"?>
<!-- Generator: Adobe Illustrator 16.0.0, SVG Export Plug-In . SVG Version: 6.00 Build 0)  -->
<!DOCTYPE svg PUBLIC "-//W3C//DTD SVG 1.1//EN" "http://www.w3.org/Graphics/SVG/1.1/DTD/svg11.dtd">
<svg version="1.1" id="Layer_1" xmlns="http://www.w3.org/2000/svg" xmlns:xlink="http://www.w3.org/1999/xlink" x="0px" y="0px"
	 width="33.42px" height="26px" viewBox="-0.655 -0.51 33.42 26" enable-background="new -0.655 -0.51 33.42 26"
	 xml:space="preserve">
<g>
	<path fill="#222222" d="M-0.168,17.06c1.875,4.945,5.582,7.755,9.104,7.755c3.071,0,4.757-2.21,4.757-4.607
		c0-1.013-0.337-2.362-1.386-3.409c-2.771-2.735-7.455-2.136-10.603-5.281c-1.237-1.237-2.099-2.999-2.099-5.246
		C-0.393,2.563,2.192-0.51,5.976-0.51c2.773,0,4.794,1.498,5.92,1.498c0.824,0,1.722-0.524,2.21-1.423h0.374l0.374,7.118h-0.336
		c-0.488-0.824-1.312-2.398-2.773-3.859C10.022,1.1,7.998,0.089,6.05,0.089c-1.685,0-4.271,0.824-4.271,4.046
		c0,1.05,0.413,2.21,1.237,3.035c2.81,2.811,8.091,2.137,11.613,5.658c1.161,1.162,1.837,2.923,1.837,4.945
		c0,4.833-3.035,7.68-7.455,7.68c-2.923,0-4.532-1.423-6.332-1.423c-1.537,0-2.361,0.936-2.997,1.46h-0.337v-8.43H-0.168z"/>
	<path fill="#222222" d="M25.497,12.752c0.786-2.172,2.398-3.859,4.347-3.859c1.497,0,2.922,1.237,2.922,2.81
		c0,1.124-0.673,2.21-1.91,2.21c-1.197,0-1.537-1.086-1.537-1.76c0-0.262,0.15-0.824,0.15-1.274c0-0.487-0.15-0.898-0.824-0.898
		c-1.386,0-3.146,2.959-3.146,7.305v5.731c0,1.124,0.451,1.387,1.312,1.387h2.174v0.636h-9.292v-0.636h1.537
		c0.861,0,1.312-0.263,1.312-1.387v-9.702c0-3.409-1.274-3.446-3.146-3.446V9.194l6.105-0.264v3.822H25.497z"/>
</g>
</svg>
