<?xml version="1.0" encoding="utf-8"?>
<!-- Generator: Adobe Illustrator 16.0.0, SVG Export Plug-In . SVG Version: 6.00 Build 0)  -->
<!DOCTYPE svg PUBLIC "-//W3C//DTD SVG 1.1//EN" "http://www.w3.org/Graphics/SVG/1.1/DTD/svg11.dtd">
<svg version="1.1" id="Layer_1" xmlns="http://www.w3.org/2000/svg" xmlns:xlink="http://www.w3.org/1999/xlink" x="0px" y="0px"
	 width="32.109px" height="24.98px" viewBox="0 0 32.109 24.98" enable-background="new 0 0 32.109 24.98" xml:space="preserve">
<g>
	<path fill="#222222" d="M0.468,16.882c1.8,4.751,5.363,7.451,8.747,7.451c2.951,0,4.571-2.124,4.571-4.428
		c0-0.973-0.324-2.269-1.332-3.275c-2.663-2.628-7.163-2.052-10.188-5.075c-1.188-1.188-2.016-2.88-2.016-5.04
		C0.252,2.952,2.735,0,6.371,0c2.664,0,4.606,1.439,5.688,1.439c0.792,0,1.655-0.504,2.123-1.367h0.36l0.359,6.839h-0.323
		c-0.469-0.792-1.261-2.305-2.664-3.708c-1.655-1.656-3.601-2.628-5.472-2.628c-1.619,0-4.104,0.792-4.104,3.888
		c0,1.008,0.396,2.124,1.188,2.916c2.7,2.7,7.775,2.052,11.158,5.436c1.116,1.116,1.766,2.809,1.766,4.751
		c0,4.644-2.916,7.379-7.163,7.379c-2.809,0-4.355-1.367-6.084-1.367c-1.477,0-2.269,0.899-2.879,1.403H0v-8.099H0.468z"/>
	<path fill="#222222" d="M25.127,12.742c0.756-2.087,2.304-3.708,4.176-3.708c1.439,0,2.808,1.188,2.808,2.699
		c0,1.08-0.646,2.124-1.836,2.124c-1.15,0-1.476-1.044-1.476-1.691c0-0.252,0.144-0.792,0.144-1.225
		c0-0.468-0.144-0.863-0.792-0.863c-1.331,0-3.022,2.844-3.022,7.019v5.507c0,1.08,0.433,1.332,1.26,1.332h2.088v0.612h-8.927
		v-0.612h1.476c0.828,0,1.261-0.252,1.261-1.332v-9.322c0-3.275-1.225-3.312-3.023-3.312V9.323l5.867-0.253v3.672H25.127z"/>
</g>
</svg>
