<?xml version="1.0" encoding="utf-8"?>
<!-- Generator: Adobe Illustrator 16.0.0, SVG Export Plug-In . SVG Version: 6.00 Build 0)  -->
<!DOCTYPE svg PUBLIC "-//W3C//DTD SVG 1.1//EN" "http://www.w3.org/Graphics/SVG/1.1/DTD/svg11.dtd">
<svg version="1.1" id="Layer_1" xmlns="http://www.w3.org/2000/svg" xmlns:xlink="http://www.w3.org/1999/xlink" x="0px" y="0px"
	 width="32.11px" height="24.981px" viewBox="0 0 32.11 24.981" enable-background="new 0 0 32.11 24.981" xml:space="preserve">
<g>
	<path d="M0.468,16.882c1.8,4.751,5.363,7.451,8.747,7.451c2.951,0,4.571-2.124,4.571-4.428c0-0.972-0.324-2.268-1.332-3.275
		c-2.663-2.628-7.163-2.052-10.187-5.075c-1.188-1.188-2.016-2.88-2.016-5.04C0.252,2.952,2.735,0,6.371,0
		c2.664,0,4.607,1.44,5.688,1.44c0.792,0,1.655-0.504,2.123-1.368h0.36l0.36,6.839h-0.324c-0.468-0.792-1.26-2.304-2.664-3.708
		c-1.655-1.656-3.6-2.628-5.471-2.628c-1.62,0-4.104,0.792-4.104,3.888c0,1.008,0.396,2.124,1.188,2.916
		c2.7,2.7,7.775,2.052,11.158,5.436c1.116,1.116,1.765,2.808,1.765,4.751c0,4.643-2.916,7.379-7.163,7.379
		c-2.808,0-4.355-1.368-6.084-1.368c-1.476,0-2.268,0.9-2.879,1.404H0v-8.099H0.468z"/>
	<path d="M25.127,12.742c0.756-2.087,2.304-3.708,4.176-3.708c1.439,0,2.808,1.188,2.808,2.7c0,1.08-0.647,2.124-1.836,2.124
		c-1.151,0-1.476-1.044-1.476-1.692c0-0.252,0.144-0.792,0.144-1.224c0-0.468-0.144-0.864-0.792-0.864
		c-1.331,0-3.023,2.844-3.023,7.019v5.507c0,1.08,0.433,1.332,1.26,1.332h2.088v0.612h-8.927v-0.612h1.476
		c0.828,0,1.26-0.252,1.26-1.332v-9.323c0-3.275-1.224-3.312-3.023-3.312V9.323l5.867-0.252V12.742z"/>
</g>
</svg>
