<?xml version="1.0" encoding="utf-8"?>
<!-- Generator: Adobe Illustrator 16.0.0, SVG Export Plug-In . SVG Version: 6.00 Build 0)  -->
<!DOCTYPE svg PUBLIC "-//W3C//DTD SVG 1.1//EN" "http://www.w3.org/Graphics/SVG/1.1/DTD/svg11.dtd">
<svg version="1.1" id="Layer_1" xmlns="http://www.w3.org/2000/svg" xmlns:xlink="http://www.w3.org/1999/xlink" x="0px" y="0px"
	 width="42.699px" height="26px" viewBox="0.467 0.284 42.699 26" enable-background="new 0.467 0.284 42.699 26"
	 xml:space="preserve">
<g>
	<path fill="#222222" d="M0.643,18.252c0.118-0.425,0.299-0.805,0.545-1.146c0.247-0.342,0.552-0.61,0.916-0.81
		c0.365-0.2,0.793-0.3,1.286-0.3c0.47,0,0.899,0.135,1.286,0.403c0.388,0.271,0.582,0.665,0.582,1.181
		c0,0.635-0.229,1.122-0.687,1.462c-0.458,0.342-0.98,0.522-1.568,0.548c-0.117,0.328-0.193,0.657-0.229,0.986
		c-0.035,0.328-0.052,0.657-0.052,0.986c0,0.799,0.193,1.474,0.581,2.025c0.387,0.551,0.88,0.993,1.48,1.321
		c0.599,0.328,1.262,0.57,1.99,0.723c0.729,0.152,1.421,0.227,2.079,0.227c1.175,0,2.19-0.211,3.048-0.632
		c0.856-0.423,1.59-0.992,2.202-1.709c0.611-0.717,1.11-1.533,1.497-2.448c0.388-0.916,0.693-1.879,0.916-2.89
		c0.223-1.01,0.382-2.025,0.476-3.047c0.094-1.022,0.165-1.978,0.212-2.871c0.07-1.621,0.293-3.159,0.669-4.615
		c0.375-1.456,0.933-2.73,1.673-3.823c0.74-1.092,1.667-1.955,2.783-2.589c1.116-0.634,2.448-0.952,3.998-0.952
		c0.658,0,1.298,0.065,1.921,0.194c0.622,0.129,1.168,0.346,1.638,0.652c0.469,0.305,0.852,0.687,1.146,1.145
		c0.293,0.458,0.44,1.027,0.44,1.708c0,0.564-0.112,1.039-0.336,1.427c-0.225,0.387-0.516,0.692-0.88,0.916
		c-0.365,0.224-0.788,0.388-1.268,0.494c-0.482,0.105-0.981,0.158-1.498,0.158c0.33-0.54,0.582-1.068,0.758-1.584
		s0.264-1.104,0.264-1.762c0-0.893-0.24-1.603-0.723-2.131c-0.481-0.529-1.108-0.792-1.884-0.792c-0.916,0-1.673,0.224-2.273,0.669
		c-0.597,0.446-1.097,1.051-1.495,1.815c-0.399,0.763-0.705,1.655-0.916,2.677c-0.212,1.021-0.388,2.103-0.529,3.242
		c-0.141,1.14-0.259,2.306-0.352,3.505c-0.094,1.197-0.211,2.372-0.353,3.522c-0.117,1.011-0.388,2.103-0.81,3.276
		c-0.423,1.174-1.069,2.272-1.938,3.294c-0.869,1.021-2.002,1.874-3.4,2.555c-1.397,0.68-3.131,1.021-5.196,1.021
		c-1.01,0-2.008-0.136-2.995-0.405c-0.986-0.271-1.861-0.688-2.625-1.251s-1.38-1.269-1.85-2.114
		c-0.47-0.845-0.705-1.832-0.705-2.958C0.467,19.109,0.525,18.674,0.643,18.252z"/>
	<path fill="#222222" d="M26.115,19.66c0.328-0.422,0.803-1.021,1.426-1.797c0.623-0.774,1.332-1.536,2.131-2.289
		c0.799-0.751,1.657-1.408,2.573-1.973c0.915-0.565,1.831-0.846,2.747-0.846c0.775,0,1.362,0.217,1.762,0.651
		c0.399,0.436,0.599,0.97,0.599,1.603c0,0.799-0.252,1.615-0.758,2.449c-0.505,0.835-1.062,1.667-1.672,2.503
		c-0.612,0.834-1.168,1.632-1.675,2.396c-0.506,0.762-0.756,1.474-0.756,2.131c0,0.282,0.069,0.51,0.211,0.688
		c0.142,0.176,0.377,0.264,0.706,0.264c0.328,0,0.875-0.251,1.638-0.756c0.763-0.507,1.791-1.44,3.082-2.801
		c1.01-1.081,1.937-2.132,2.784-3.153c0.845-1.022,1.479-1.791,1.901-2.308l0.352,0.176c-0.611,0.729-1.362,1.632-2.255,2.713
		c-0.893,1.08-1.844,2.148-2.854,3.204c-1.221,1.292-2.26,2.21-3.117,2.75s-1.744,0.811-2.66,0.811c-0.892,0-1.551-0.247-1.973-0.74
		c-0.424-0.495-0.634-1.057-0.634-1.692c0-0.797,0.252-1.621,0.758-2.466c0.505-0.846,1.061-1.673,1.673-2.483
		c0.611-0.811,1.167-1.58,1.674-2.308c0.505-0.729,0.756-1.362,0.756-1.903c0-0.258-0.082-0.468-0.246-0.633
		c-0.164-0.164-0.411-0.246-0.74-0.246c-0.469,0-1.023,0.217-1.656,0.651c-0.632,0.434-1.303,0.998-2.008,1.69
		c-0.706,0.693-1.422,1.481-2.148,2.361c-0.727,0.881-1.415,1.761-2.061,2.642c-0.646,0.882-1.228,1.732-1.743,2.555
		c-0.517,0.822-0.929,1.527-1.233,2.112l-3.558,0.106c1.245-2.067,2.495-4.116,3.751-6.148c1.258-2.03,2.496-4.116,3.718-6.253
		l4.016-0.142l-4.58,6.414L26.115,19.66z"/>
</g>
</svg>
