<?xml version="1.0" encoding="utf-8"?>
<!-- Generator: Adobe Illustrator 16.0.0, SVG Export Plug-In . SVG Version: 6.00 Build 0)  -->
<!DOCTYPE svg PUBLIC "-//W3C//DTD SVG 1.1//EN" "http://www.w3.org/Graphics/SVG/1.1/DTD/svg11.dtd">
<svg version="1.1" id="Layer_1" xmlns="http://www.w3.org/2000/svg" xmlns:xlink="http://www.w3.org/1999/xlink" x="0px" y="0px"
	 width="43.632px" height="26.568px" viewBox="0 0 43.632 26.568" enable-background="new 0 0 43.632 26.568" xml:space="preserve">
<g>
	<path fill="#222222" d="M0.18,18.36c0.121-0.433,0.306-0.822,0.558-1.17c0.252-0.349,0.564-0.624,0.936-0.828
		c0.373-0.204,0.81-0.306,1.314-0.306c0.48,0,0.918,0.138,1.314,0.413c0.396,0.276,0.594,0.679,0.594,1.206
		c0,0.648-0.234,1.146-0.702,1.494c-0.468,0.349-1.002,0.534-1.602,0.559c-0.12,0.336-0.198,0.672-0.234,1.008
		s-0.054,0.672-0.054,1.008c0,0.816,0.198,1.506,0.594,2.07c0.396,0.563,0.9,1.015,1.512,1.35c0.612,0.336,1.29,0.583,2.034,0.738
		c0.744,0.156,1.452,0.233,2.124,0.233c1.2,0,2.238-0.216,3.114-0.647c0.875-0.432,1.625-1.014,2.25-1.746
		c0.624-0.732,1.134-1.566,1.53-2.502s0.708-1.92,0.936-2.952s0.39-2.07,0.486-3.114c0.096-1.044,0.168-2.021,0.216-2.934
		c0.072-1.656,0.3-3.228,0.684-4.716c0.384-1.488,0.954-2.79,1.71-3.906c0.756-1.116,1.704-1.998,2.843-2.646
		C23.478,0.324,24.839,0,26.423,0c0.673,0,1.326,0.066,1.963,0.198c0.636,0.132,1.193,0.354,1.674,0.666
		c0.479,0.312,0.87,0.702,1.17,1.17s0.45,1.05,0.45,1.746c0,0.576-0.114,1.062-0.343,1.458c-0.229,0.396-0.527,0.708-0.899,0.936
		c-0.373,0.229-0.806,0.396-1.296,0.504C28.65,6.786,28.14,6.84,27.612,6.84c0.337-0.552,0.595-1.092,0.774-1.62
		c0.18-0.527,0.27-1.128,0.27-1.8c0-0.912-0.246-1.638-0.738-2.178s-1.133-0.81-1.926-0.81c-0.936,0-1.709,0.229-2.322,0.684
		c-0.611,0.456-1.121,1.074-1.529,1.854c-0.408,0.78-0.72,1.692-0.936,2.736c-0.216,1.044-0.396,2.148-0.54,3.312
		c-0.144,1.165-0.265,2.357-0.36,3.582c-0.096,1.224-0.216,2.424-0.36,3.6c-0.12,1.032-0.396,2.148-0.828,3.348
		c-0.432,1.2-1.092,2.322-1.98,3.366c-0.888,1.044-2.046,1.915-3.474,2.61c-1.428,0.695-3.199,1.044-5.31,1.044
		c-1.032,0-2.052-0.139-3.06-0.414c-1.008-0.276-1.902-0.702-2.682-1.278C1.83,24.3,1.2,23.58,0.72,22.716
		C0.24,21.852,0,20.844,0,19.692C0,19.236,0.06,18.792,0.18,18.36z"/>
	<path fill="#222222" d="M26.208,19.8c0.336-0.432,0.821-1.044,1.457-1.836c0.637-0.792,1.362-1.571,2.179-2.34
		c0.815-0.768,1.692-1.439,2.628-2.016s1.872-0.864,2.808-0.864c0.792,0,1.392,0.222,1.8,0.666s0.612,0.99,0.612,1.638
		c0,0.816-0.258,1.65-0.774,2.502c-0.516,0.853-1.086,1.704-1.709,2.557c-0.625,0.853-1.194,1.668-1.711,2.448
		c-0.517,0.779-0.773,1.506-0.773,2.178c0,0.288,0.072,0.521,0.216,0.702c0.144,0.18,0.384,0.27,0.72,0.27s0.895-0.257,1.674-0.773
		c0.78-0.517,1.83-1.471,3.15-2.862c1.032-1.104,1.98-2.178,2.844-3.222c0.864-1.045,1.512-1.83,1.944-2.358l0.36,0.18
		c-0.625,0.745-1.393,1.668-2.305,2.772c-0.912,1.104-1.884,2.195-2.916,3.275c-1.248,1.32-2.31,2.257-3.186,2.809
		s-1.782,0.828-2.719,0.828c-0.911,0-1.584-0.252-2.016-0.756c-0.432-0.505-0.647-1.08-0.647-1.729c0-0.815,0.257-1.656,0.774-2.52
		c0.516-0.864,1.084-1.71,1.709-2.538s1.193-1.614,1.711-2.358c0.516-0.744,0.773-1.392,0.773-1.944
		c0-0.264-0.084-0.479-0.252-0.647s-0.42-0.252-0.756-0.252c-0.48,0-1.045,0.222-1.692,0.666c-0.647,0.443-1.332,1.02-2.052,1.728
		c-0.721,0.708-1.453,1.513-2.196,2.412c-0.743,0.9-1.446,1.8-2.106,2.7c-0.659,0.9-1.254,1.77-1.781,2.61
		c-0.527,0.84-0.948,1.561-1.26,2.159l-3.636,0.108c1.272-2.112,2.55-4.206,3.833-6.282c1.285-2.075,2.551-4.206,3.799-6.39
		l4.104-0.145l-4.68,6.553L26.208,19.8z"/>
</g>
</svg>
