<?xml version="1.0" encoding="utf-8"?>
<!-- Generator: Adobe Illustrator 16.0.0, SVG Export Plug-In . SVG Version: 6.00 Build 0)  -->
<!DOCTYPE svg PUBLIC "-//W3C//DTD SVG 1.1 Tiny//EN" "http://www.w3.org/Graphics/SVG/1.1/DTD/svg11-tiny.dtd">
<svg version="1.1" baseProfile="tiny" id="Layer_1" xmlns="http://www.w3.org/2000/svg" xmlns:xlink="http://www.w3.org/1999/xlink"
	 x="0px" y="0px" width="30.706px" height="30.74px" viewBox="0 0 30.706 30.74" xml:space="preserve">
<g>
	<path d="M12.13,4.715c-0.18-2.699-1.8-4.139-4.715-4.139c-2.808,0-4.68,1.44-4.68,3.6c0,1.835,1.26,3.096,4.967,4.859
		c2.628,1.26,5.832,2.808,5.832,6.551c0,3.599-3.023,6.227-7.127,6.227c-1.008,0-1.908-0.108-3.204-0.36
		c-0.54-0.108-0.9-0.18-1.116-0.18c-0.324,0-0.756,0.144-0.9,0.288H0.792L0,17.098l0.54-0.18c1.008,2.916,2.916,4.319,5.795,4.319
		c3.096,0,5.184-1.764,5.184-4.391c0-2.016-1.116-3.168-4.967-5.111c-3.6-1.836-5.868-3.276-5.868-6.407C0.684,2.16,3.312,0,7.127,0
		c0.9,0,1.692,0.108,2.916,0.36c0.756,0.144,1.116,0.216,1.44,0.216c0.216,0,0.504-0.072,0.72-0.144h0.288l0.144,4.319L12.13,4.715z
		"/>
	<path d="M17.783,11.519c0-1.872-0.468-2.483-1.908-2.52V8.423l3.923-0.792l0.324-0.036v2.7c2.591-1.98,3.995-2.664,5.471-2.664
		c2.7,0,5.111,3.239,5.111,6.803c0,4.139-3.132,7.307-7.235,7.307c-1.116,0-2.016-0.216-3.347-0.756l-0.036,4.104
		c0,4.536,0,4.967,1.548,4.967h1.44v0.684c-1.296-0.036-2.592-0.108-3.924-0.108c-1.368,0-2.916,0.072-3.959,0.108v-0.684h1.08
		c1.08,0,1.512-0.504,1.512-1.764V11.519z M20.123,17.962c0,1.656,1.835,3.132,3.887,3.132c2.7,0,4.572-2.232,4.572-5.399
		c0-3.6-2.052-6.299-4.788-6.299c-1.332,0-2.484,0.576-3.671,1.872V17.962z"/>
</g>
</svg>
