<?xml version="1.0" encoding="utf-8"?>
<!-- Generator: Adobe Illustrator 16.0.0, SVG Export Plug-In . SVG Version: 6.00 Build 0)  -->
<!DOCTYPE svg PUBLIC "-//W3C//DTD SVG 1.1//EN" "http://www.w3.org/Graphics/SVG/1.1/DTD/svg11.dtd">
<svg version="1.1" id="Layer_1" xmlns="http://www.w3.org/2000/svg" xmlns:xlink="http://www.w3.org/1999/xlink" x="0px" y="0px"
	 width="29.965px" height="30px" viewBox="0.37 0.371 29.965 30" enable-background="new 0.37 0.371 29.965 30"
	 xml:space="preserve">
<g>
	<path fill="#222222" d="M12.208,4.972c-0.175-2.634-1.756-4.039-4.601-4.039c-2.74,0-4.567,1.405-4.567,3.513
		c0,1.791,1.23,3.021,4.848,4.742c2.564,1.229,5.691,2.74,5.691,6.393c0,3.512-2.951,6.078-6.955,6.078
		c-0.984,0-1.862-0.104-3.127-0.351c-0.527-0.105-0.878-0.178-1.089-0.178c-0.316,0-0.738,0.143-0.878,0.282H1.143L0.37,17.057
		l0.527-0.176c0.984,2.846,2.846,4.215,5.655,4.215c3.021,0,5.059-1.721,5.059-4.284c0-1.969-1.089-3.094-4.847-4.99
		C3.251,10.03,1.038,8.625,1.038,5.569c0-3.091,2.565-5.199,6.288-5.199c0.878,0,1.651,0.105,2.846,0.351
		c0.738,0.141,1.089,0.211,1.405,0.211c0.211,0,0.492-0.071,0.703-0.141h0.281l0.14,4.214L12.208,4.972z"/>
	<path fill="#222222" d="M17.725,11.612c0-1.827-0.457-2.423-1.862-2.459V8.59l3.829-0.773l0.316-0.035v2.635
		c2.527-1.933,3.898-2.6,5.339-2.6c2.635,0,4.988,3.161,4.988,6.639c0,4.04-3.058,7.131-7.06,7.131c-1.091,0-1.97-0.212-3.268-0.738
		l-0.036,4.005c0,4.427,0,4.847,1.512,4.847h1.404v0.669c-1.266-0.035-2.529-0.105-3.829-0.105c-1.334,0-2.846,0.07-3.864,0.105
		v-0.669h1.054c1.055,0,1.476-0.491,1.476-1.721V11.612z M20.008,17.899c0,1.616,1.792,3.057,3.793,3.057
		c2.637,0,4.462-2.178,4.462-5.269c0-3.513-2.003-6.147-4.671-6.147c-1.301,0-2.425,0.562-3.584,1.827V17.899z"/>
</g>
</svg>
