<?xml version="1.0" encoding="utf-8"?>
<!-- Generator: Adobe Illustrator 16.0.0, SVG Export Plug-In . SVG Version: 6.00 Build 0)  -->
<!DOCTYPE svg PUBLIC "-//W3C//DTD SVG 1.1 Tiny//EN" "http://www.w3.org/Graphics/SVG/1.1/DTD/svg11-tiny.dtd">
<svg version="1.1" baseProfile="tiny" id="Layer_1" xmlns="http://www.w3.org/2000/svg" xmlns:xlink="http://www.w3.org/1999/xlink"
	 x="0px" y="0px" width="44.547px" height="25.272px" viewBox="378.212 191.164 44.547 25.272" xml:space="preserve">
<g>
	<path d="M411.152,203.026c-0.648,0.756-1.429,1.338-2.341,1.746c-1.104,0.552-2.292,0.936-3.563,1.152
		c-0.265,0.336-0.294,0.679-0.09,1.026c0.203,0.348,0.39,0.69,0.558,1.026c0.24,0.288,0.433,0.576,0.576,0.864
		s0.336,0.576,0.576,0.864c0.336,0.408,0.695,0.78,1.08,1.116c0.384,0.336,0.756,0.679,1.116,1.026
		c0.359,0.348,0.701,0.708,1.025,1.08c0.324,0.373,0.618,0.787,0.882,1.242c0,0.504-0.204,0.936-0.611,1.296
		c-0.409,0.36-0.816,0.684-1.225,0.972h-0.216c-0.456-0.336-0.888-0.678-1.296-1.026s-0.816-0.726-1.224-1.134
		c-0.409-0.576-0.799-1.14-1.17-1.692c-0.373-0.552-0.823-1.056-1.351-1.512c-0.048-0.12-0.103-0.234-0.162-0.342
		s-0.114-0.222-0.162-0.342c-0.12-0.12-0.233-0.216-0.342-0.288c-0.107-0.072-0.187-0.167-0.233-0.288
		c-0.169-0.288-0.349-0.606-0.54-0.954c-0.192-0.348-0.414-0.653-0.666-0.918c-0.252-0.264-0.54-0.45-0.864-0.558
		c-0.324-0.108-0.702-0.065-1.134,0.126c-0.169,0.072-0.36,0.079-0.576,0.018c-0.216-0.06-0.444-0.066-0.685-0.018
		c-0.216,0.072-0.396,0.192-0.54,0.36c-0.144,0.168-0.246,0.354-0.306,0.558c-0.061,0.205-0.066,0.414-0.018,0.63
		c0.048,0.216,0.144,0.396,0.288,0.54c0.575,0.504,0.972,1.14,1.188,1.908c0.216,0.769,0.204,1.5-0.036,2.196
		c-0.12,0.288-0.252,0.588-0.396,0.9c-0.145,0.312-0.36,0.588-0.648,0.828c-0.84,0.504-1.752,0.779-2.736,0.828
		c-0.984,0.048-1.968,0.072-2.951,0.072c-0.337,0-0.673,0.012-1.009,0.036s-0.647-0.024-0.936-0.144
		c-0.48-0.192-0.936-0.336-1.368-0.432c-0.432-0.096-0.852-0.265-1.26-0.504c-0.288-0.216-0.558-0.378-0.811-0.486
		c-0.252-0.108-0.521-0.246-0.81-0.414c-0.504-0.408-0.888-0.87-1.152-1.386c-0.264-0.516-0.372-1.085-0.323-1.71
		c0.048-0.456,0.203-0.876,0.468-1.26c0.264-0.383,0.563-0.72,0.899-1.008c0.528-0.336,1.062-0.606,1.603-0.81
		c0.54-0.204,1.073-0.39,1.602-0.558c0.624-0.239,1.272-0.401,1.944-0.486c0.672-0.084,1.355-0.149,2.052-0.198
		c0.24-0.072,0.468-0.167,0.685-0.288c0.216-0.12,0.3-0.3,0.252-0.54c-0.072-0.408-0.252-0.78-0.54-1.116
		c-0.288-0.336-0.576-0.648-0.864-0.936c-0.049-0.12-0.103-0.216-0.162-0.288c-0.061-0.072-0.114-0.167-0.162-0.288
		c-0.456-0.552-0.899-1.092-1.332-1.62c-0.432-0.528-0.708-1.164-0.828-1.908c0-0.048-0.03-0.102-0.09-0.162
		c-0.06-0.06-0.114-0.126-0.162-0.198c-0.12-0.36-0.12-0.66,0-0.9c0.096-0.216,0.168-0.438,0.217-0.666
		c0.047-0.228,0.095-0.45,0.144-0.666c0.048-0.216,0.126-0.426,0.234-0.63c0.107-0.204,0.257-0.39,0.449-0.558
		c0.288-0.168,0.552-0.366,0.792-0.594c0.24-0.228,0.505-0.366,0.792-0.414c0.576-0.072,1.122-0.023,1.639,0.144
		c0.516,0.168,1.002,0.42,1.458,0.756c0.167-0.12,0.371-0.144,0.611-0.072c0.24,0.072,0.456,0.168,0.648,0.288
		c0.216,0.288,0.468,0.57,0.756,0.846s0.552,0.57,0.792,0.882c0.239,0.312,0.444,0.636,0.612,0.972
		c0.167,0.336,0.252,0.696,0.252,1.08c0.72,0.216,1.247,0.601,1.584,1.152c0.239,0.456,0.491,0.87,0.756,1.242
		c0.264,0.373,0.504,0.798,0.72,1.278c0.24,0.216,0.469,0.444,0.685,0.684c0.071,0.048,0.119,0.12,0.144,0.216
		c0.023,0.096,0.06,0.168,0.108,0.216c0.119,0.072,0.216,0.144,0.288,0.216c0.071,0.072,0.167,0.084,0.288,0.036
		c0.216-0.12,0.414-0.138,0.594-0.054c0.18,0.084,0.354,0.102,0.521,0.054c0.192-0.048,0.391-0.108,0.595-0.18
		c0.203-0.072,0.39-0.168,0.558-0.288c0.144-0.144,0.264-0.252,0.36-0.324c0.552-0.288,1.115-0.563,1.691-0.828
		s1.068-0.684,1.477-1.26c0.479-0.696,0.714-1.398,0.702-2.106c-0.013-0.708-0.162-1.41-0.45-2.106
		c-0.288-0.696-0.685-1.284-1.188-1.764c-0.504-0.479-1.068-0.923-1.691-1.332c-0.217-0.12-0.457-0.192-0.721-0.216
		c-0.264-0.023-0.516-0.06-0.756-0.108c-0.12-0.048-0.216-0.108-0.288-0.18c-0.071-0.072-0.168-0.131-0.288-0.18
		c-0.504-0.167-1.025-0.324-1.565-0.468s-1.039-0.324-1.494-0.54c-0.48-0.24-0.96-0.354-1.44-0.342s-0.96-0.066-1.439-0.234
		c-0.12,0-0.234,0.006-0.342,0.018c-0.108,0.013-0.223,0.042-0.343,0.09c-0.048,0-0.107-0.006-0.18-0.018
		c-0.072-0.012-0.168-0.042-0.288-0.09c-0.504-0.047-0.99-0.065-1.458-0.054c-0.468,0.012-0.931-0.006-1.386-0.054
		c-0.337-0.072-0.679-0.162-1.026-0.27s-0.726-0.138-1.134-0.09c-0.12,0.048-0.216,0.084-0.288,0.108
		c-0.072,0.024-0.168,0.06-0.288,0.108c-0.336,0.072-0.66,0.103-0.972,0.09c-0.312-0.012-0.637,0.042-0.972,0.162
		c-0.409,0.049-0.811,0.049-1.206,0c-0.396-0.047-0.799-0.012-1.206,0.108c-0.288,0.048-0.57,0.102-0.847,0.162
		c-0.275,0.061-0.558,0.114-0.846,0.162c-0.12,0.072-0.258,0.139-0.414,0.198c-0.156,0.06-0.294,0.114-0.414,0.162
		c-0.6,0.144-1.2,0.349-1.8,0.612c-0.601,0.264-1.146,0.588-1.638,0.972c-0.492,0.384-0.9,0.834-1.225,1.35
		c-0.323,0.517-0.521,1.098-0.594,1.746c-0.048,0.576,0.054,1.146,0.306,1.71c0.252,0.564,0.498,1.098,0.738,1.602
		c0.168,0.24,0.342,0.444,0.522,0.612c0.18,0.168,0.39,0.349,0.63,0.54c0.504,0.336,1.02,0.576,1.548,0.72
		c0.527,0.144,1.08,0.252,1.656,0.324c0.048,0.049,0.119,0.061,0.216,0.036c0.096-0.023,0.203-0.036,0.324-0.036
		c0.239,0.049,0.455,0.114,0.647,0.198c0.192,0.084,0.396,0.126,0.612,0.126c0.12,0,0.258-0.048,0.414-0.144
		c0.155-0.096,0.293-0.12,0.414-0.072v0.216h-0.36c-0.456,0.24-0.931,0.391-1.422,0.45c-0.492,0.06-0.967,0.174-1.422,0.342
		c-0.408-0.167-0.846-0.258-1.314-0.27c-0.468-0.012-0.906-0.114-1.313-0.306h-0.468c-0.528-0.167-0.997-0.432-1.404-0.792
		c-0.408-0.36-0.816-0.744-1.225-1.152c-0.408-0.408-0.672-0.833-0.792-1.278c-0.12-0.444-0.239-0.93-0.359-1.458
		c-0.12-0.552-0.09-1.11,0.09-1.674c0.18-0.563,0.378-1.109,0.594-1.638c0.12-0.168,0.275-0.342,0.468-0.522
		c0.192-0.18,0.348-0.39,0.469-0.63c0.288-0.335,0.605-0.653,0.954-0.954c0.348-0.3,0.749-0.51,1.206-0.63
		c0.047-0.047,0.102-0.126,0.161-0.234s0.126-0.186,0.198-0.234c0.336-0.216,0.678-0.378,1.026-0.486
		c0.348-0.108,0.726-0.138,1.134-0.09c0.456-0.335,0.96-0.54,1.512-0.612s1.116-0.167,1.692-0.288c0.12,0,0.216-0.06,0.288-0.18
		s0.167-0.18,0.288-0.18c0.216,0,0.455,0.03,0.72,0.09c0.264,0.06,0.516,0.114,0.756,0.162c0.408,0,0.811-0.042,1.206-0.126
		c0.396-0.084,0.798-0.126,1.206-0.126c0.12,0,0.252,0.054,0.396,0.162c0.144,0.108,0.275,0.138,0.396,0.09
		c0.408-0.048,0.828-0.09,1.26-0.126c0.433-0.036,0.852,0.042,1.261,0.234c0.047,0,0.119-0.005,0.216-0.018
		c0.096-0.012,0.167-0.042,0.216-0.09c0.239-0.048,0.479-0.03,0.72,0.054s0.504,0.066,0.792-0.054
		c0.336-0.048,0.696-0.036,1.08,0.036c0.384,0.072,0.744,0.168,1.08,0.288c0.288,0.12,0.6,0.162,0.936,0.126
		c0.336-0.036,0.672,0.006,1.009,0.126c0.119,0.048,0.252,0.102,0.396,0.162c0.145,0.061,0.275,0.114,0.396,0.162
		c0.576,0.121,1.146,0.222,1.71,0.306c0.563,0.084,1.098,0.294,1.602,0.63c0.192,0.048,0.366,0.084,0.522,0.108
		c0.155,0.024,0.329,0.061,0.521,0.108c0.12,0.049,0.216,0.103,0.288,0.162c0.072,0.061,0.168,0.126,0.288,0.198
		c0.744,0.168,1.422,0.462,2.034,0.882c0.612,0.42,1.14,0.924,1.584,1.512c0.443,0.588,0.798,1.23,1.062,1.926
		c0.265,0.696,0.408,1.417,0.433,2.16C412.232,201.364,411.8,202.27,411.152,203.026z M396.518,209.722
		c-0.204-0.348-0.449-0.666-0.737-0.954c-0.145-0.072-0.288-0.167-0.433-0.288c-0.144-0.12-0.294-0.222-0.449-0.306
		c-0.157-0.083-0.324-0.138-0.505-0.162c-0.18-0.024-0.366,0-0.558,0.072c-0.048,0-0.108-0.012-0.18-0.036
		c-0.072-0.023-0.168-0.012-0.288,0.036c-0.049,0-0.103-0.018-0.162-0.054c-0.061-0.036-0.114-0.054-0.162-0.054
		c-0.12,0.048-0.216,0.084-0.288,0.108c-0.072,0.024-0.168,0.072-0.288,0.144c-0.288,0.048-0.558,0.103-0.81,0.162
		c-0.252,0.06-0.522,0.15-0.811,0.27h-0.54c-0.48,0.192-0.936,0.366-1.367,0.522c-0.433,0.156-0.816,0.402-1.152,0.738
		c-0.12,0.192-0.258,0.373-0.414,0.54c-0.156,0.168-0.21,0.373-0.162,0.612c0.048,0.24,0.108,0.48,0.18,0.72
		c0.072,0.24,0.204,0.42,0.396,0.54c0.312,0.264,0.642,0.456,0.99,0.576c0.348,0.12,0.702,0.222,1.062,0.306
		c0.36,0.084,0.726,0.157,1.099,0.216c0.371,0.06,0.726,0.15,1.062,0.27c0.12,0.048,0.216,0.126,0.288,0.234s0.132,0.222,0.18,0.342
		c0.12,0.048,0.24,0.103,0.36,0.162c0.12,0.06,0.264,0.006,0.432-0.162c0.24-0.24,0.522-0.383,0.847-0.432
		c0.323-0.048,0.653-0.132,0.989-0.252c0.624-0.12,1.08-0.468,1.368-1.044c0.288-0.576,0.408-1.14,0.36-1.692
		C396.824,210.448,396.722,210.07,396.518,209.722z M399.65,205.24c-0.133-0.312-0.318-0.576-0.559-0.792
		c-0.048-0.12-0.107-0.252-0.18-0.396c-0.072-0.144-0.168-0.275-0.288-0.396c-0.792-0.815-1.507-1.667-2.142-2.556
		c-0.637-0.888-1.327-1.788-2.07-2.7c-0.12-0.167-0.312-0.252-0.576-0.252c-0.48,0-0.828,0.204-1.044,0.612
		c-0.216,0.409-0.324,0.816-0.324,1.224c0,0.168,0.042,0.336,0.126,0.504c0.084,0.168,0.149,0.349,0.198,0.54
		c0.408,0.84,0.888,1.638,1.44,2.394c0.552,0.756,1.14,1.519,1.764,2.286c0.264,0.121,0.54,0.24,0.828,0.36
		c0.288,0.121,0.576,0.21,0.864,0.27c0.287,0.06,0.581,0.072,0.882,0.036c0.3-0.036,0.594-0.149,0.882-0.342
		C399.716,205.816,399.781,205.552,399.65,205.24z"/>
	<path d="M421.25,208.48c-0.444,0.072-0.906,0.084-1.387,0.036h-1.008h-1.044c-0.048,0-0.084-0.024-0.107-0.072
		c-0.024-0.048-0.061-0.072-0.108-0.072c-0.337,0.12-0.672,0.229-1.008,0.324c-0.337,0.096-0.648,0.265-0.937,0.504
		c-0.192,0.12-0.342,0.288-0.45,0.504c-0.107,0.216-0.078,0.456,0.091,0.72c0.048,0.072,0.144,0.139,0.288,0.198
		c0.144,0.06,0.239,0.114,0.287,0.162c0.288,0.576,0.624,1.11,1.009,1.602c0.383,0.492,0.888,0.834,1.512,1.026
		c0.288-0.192,0.6-0.33,0.936-0.414c0.336-0.084,0.672-0.102,1.009-0.054c0,0.409-0.157,0.762-0.469,1.062
		c-0.312,0.3-0.611,0.594-0.899,0.882c-0.192,0.12-0.366,0.234-0.522,0.342s-0.33,0.186-0.521,0.234
		c-0.337,0.048-0.643,0.12-0.918,0.216c-0.276,0.095-0.582,0.144-0.918,0.144c-0.337,0-0.666-0.079-0.99-0.234
		s-0.594-0.354-0.811-0.594c-0.24-0.216-0.426-0.462-0.558-0.738c-0.132-0.275-0.246-0.563-0.342-0.864
		c-0.097-0.3-0.187-0.606-0.271-0.918c-0.084-0.312-0.197-0.612-0.342-0.9c-0.048-0.12-0.06-0.234-0.036-0.342
		s0.036-0.222,0.036-0.342c0.192-0.504,0.444-0.972,0.756-1.404c0.312-0.432,0.636-0.875,0.973-1.332
		c0.167-0.288,0.342-0.558,0.521-0.81s0.39-0.51,0.63-0.774c0.12-0.072,0.234-0.144,0.342-0.216
		c0.108-0.072,0.222-0.084,0.343-0.036c0.119,0.048,0.252,0.121,0.396,0.216c0.145,0.096,0.275,0.144,0.396,0.144
		c0.455-0.048,0.894,0.024,1.313,0.216c0.42,0.192,0.858,0.229,1.314,0.108c0.407-0.048,0.81-0.03,1.206,0.054
		c0.396,0.084,0.797,0.186,1.206,0.306c0.167,0.049,0.329,0.175,0.485,0.378c0.156,0.204,0.138,0.414-0.054,0.63
		C422.144,208.372,421.693,208.408,421.25,208.48z"/>
</g>
</svg>
