<?xml version="1.0" encoding="utf-8"?>
<!-- Generator: Adobe Illustrator 16.0.0, SVG Export Plug-In . SVG Version: 6.00 Build 0)  -->
<!DOCTYPE svg PUBLIC "-//W3C//DTD SVG 1.1//EN" "http://www.w3.org/Graphics/SVG/1.1/DTD/svg11.dtd">
<svg version="1.1" id="Layer_1" xmlns="http://www.w3.org/2000/svg" xmlns:xlink="http://www.w3.org/1999/xlink" x="0px" y="0px"
	 width="49.351px" height="28px" viewBox="375.809 189.797 49.351 28" enable-background="new 375.809 189.797 49.351 28"
	 xml:space="preserve">
<g>
	<path fill="#222222" d="M412.303,202.943c-0.719,0.838-1.585,1.483-2.596,1.935c-1.223,0.612-2.539,1.037-3.945,1.275
		c-0.293,0.372-0.326,0.753-0.1,1.137c0.225,0.385,0.432,0.764,0.617,1.136c0.267,0.319,0.481,0.638,0.639,0.957
		c0.157,0.318,0.372,0.638,0.639,0.957c0.372,0.451,0.769,0.863,1.196,1.235c0.425,0.373,0.837,0.753,1.236,1.136
		c0.396,0.387,0.774,0.784,1.134,1.196c0.359,0.414,0.685,0.872,0.977,1.377c0,0.558-0.226,1.037-0.675,1.436
		c-0.453,0.398-0.904,0.758-1.358,1.077h-0.239c-0.505-0.372-0.983-0.752-1.436-1.136c-0.452-0.387-0.904-0.805-1.355-1.257
		c-0.453-0.638-0.888-1.264-1.299-1.874c-0.412-0.611-0.909-1.171-1.496-1.675c-0.053-0.133-0.113-0.26-0.179-0.38
		c-0.065-0.119-0.127-0.246-0.18-0.379c-0.134-0.133-0.257-0.24-0.379-0.318c-0.118-0.08-0.207-0.186-0.259-0.319
		c-0.188-0.319-0.386-0.671-0.597-1.058c-0.213-0.386-0.458-0.723-0.738-1.017c-0.28-0.293-0.597-0.497-0.956-0.618
		c-0.359-0.12-0.778-0.072-1.256,0.139c-0.189,0.08-0.399,0.088-0.639,0.021c-0.239-0.066-0.492-0.072-0.761-0.021
		c-0.239,0.08-0.438,0.214-0.598,0.399c-0.159,0.187-0.273,0.393-0.339,0.618c-0.068,0.227-0.073,0.458-0.02,0.698
		c0.053,0.239,0.159,0.438,0.317,0.599c0.637,0.559,1.078,1.263,1.316,2.113c0.237,0.851,0.226,1.661-0.04,2.433
		c-0.134,0.319-0.279,0.651-0.438,0.996c-0.162,0.346-0.399,0.651-0.718,0.918c-0.931,0.558-1.941,0.862-3.032,0.916
		c-1.088,0.054-2.18,0.08-3.268,0.08c-0.374,0-0.747,0.013-1.119,0.04c-0.372,0.025-0.715-0.027-1.036-0.161
		c-0.532-0.211-1.038-0.372-1.516-0.479c-0.479-0.106-0.944-0.294-1.396-0.558c-0.319-0.24-0.62-0.419-0.9-0.539
		c-0.279-0.119-0.576-0.272-0.896-0.459c-0.559-0.451-0.984-0.963-1.276-1.535s-0.412-1.202-0.358-1.895
		c0.054-0.505,0.225-0.97,0.521-1.396c0.292-0.425,0.622-0.798,0.994-1.117c0.585-0.372,1.177-0.671,1.777-0.897
		c0.599-0.227,1.187-0.432,1.774-0.619c0.691-0.264,1.409-0.443,2.154-0.538c0.744-0.093,1.499-0.164,2.272-0.22
		c0.267-0.078,0.519-0.185,0.76-0.317c0.24-0.133,0.333-0.333,0.28-0.599c-0.08-0.452-0.28-0.863-0.599-1.236
		c-0.319-0.372-0.639-0.718-0.957-1.037c-0.055-0.134-0.116-0.239-0.18-0.319c-0.068-0.079-0.127-0.186-0.18-0.319
		c-0.506-0.611-0.995-1.21-1.476-1.794c-0.479-0.584-0.784-1.289-0.918-2.113c0-0.054-0.032-0.114-0.1-0.179
		c-0.065-0.068-0.126-0.14-0.179-0.22c-0.134-0.398-0.134-0.731,0-0.996c0.106-0.24,0.186-0.486,0.239-0.738
		c0.055-0.253,0.107-0.499,0.162-0.737c0.053-0.24,0.139-0.473,0.258-0.698c0.118-0.226,0.286-0.433,0.497-0.619
		c0.319-0.186,0.613-0.405,0.877-0.657c0.267-0.254,0.56-0.406,0.878-0.459c0.638-0.08,1.242-0.025,1.817,0.159
		c0.571,0.187,1.109,0.465,1.615,0.839c0.185-0.134,0.411-0.16,0.675-0.08c0.266,0.08,0.505,0.186,0.719,0.318
		c0.238,0.319,0.518,0.631,0.837,0.938c0.319,0.305,0.611,0.631,0.877,0.977c0.266,0.347,0.492,0.704,0.679,1.078
		c0.185,0.372,0.279,0.77,0.279,1.195c0.797,0.24,1.381,0.666,1.755,1.276c0.264,0.505,0.543,0.964,0.837,1.376
		c0.292,0.412,0.559,0.884,0.797,1.415c0.267,0.239,0.521,0.491,0.761,0.759c0.077,0.053,0.131,0.132,0.159,0.238
		c0.026,0.106,0.068,0.187,0.12,0.239c0.132,0.08,0.239,0.16,0.319,0.24c0.077,0.079,0.185,0.093,0.319,0.039
		c0.239-0.132,0.456-0.152,0.657-0.06c0.199,0.093,0.392,0.113,0.577,0.06c0.213-0.053,0.435-0.119,0.661-0.199
		c0.223-0.08,0.432-0.186,0.617-0.319c0.159-0.16,0.292-0.278,0.399-0.358c0.611-0.318,1.233-0.622,1.871-0.917
		c0.639-0.294,1.184-0.758,1.639-1.396c0.529-0.771,0.79-1.548,0.775-2.332s-0.178-1.562-0.497-2.333
		c-0.318-0.77-0.76-1.422-1.316-1.954c-0.558-0.531-1.182-1.022-1.871-1.475c-0.242-0.134-0.507-0.214-0.801-0.24
		c-0.292-0.025-0.571-0.067-0.838-0.119c-0.133-0.053-0.238-0.119-0.318-0.2c-0.077-0.079-0.187-0.146-0.319-0.199
		c-0.559-0.185-1.134-0.359-1.732-0.52c-0.598-0.16-1.15-0.357-1.655-0.598c-0.532-0.266-1.063-0.392-1.596-0.379
		c-0.529,0.013-1.063-0.072-1.592-0.259c-0.134,0-0.26,0.007-0.379,0.021c-0.12,0.015-0.249,0.047-0.382,0.1
		c-0.053,0-0.117-0.006-0.199-0.021c-0.08-0.014-0.186-0.047-0.319-0.1c-0.558-0.053-1.097-0.071-1.615-0.061
		c-0.518,0.015-1.03-0.006-1.535-0.06c-0.373-0.08-0.752-0.18-1.137-0.301c-0.384-0.119-0.804-0.152-1.256-0.1
		c-0.133,0.054-0.239,0.094-0.319,0.119c-0.08,0.026-0.186,0.067-0.319,0.119c-0.372,0.08-0.731,0.116-1.076,0.101
		c-0.346-0.014-0.705,0.047-1.076,0.179c-0.453,0.055-0.9,0.055-1.336,0c-0.439-0.052-0.887-0.013-1.336,0.12
		c-0.319,0.053-0.632,0.113-0.94,0.18c-0.303,0.066-0.618,0.125-0.937,0.179c-0.134,0.079-0.286,0.154-0.459,0.219
		c-0.173,0.067-0.326,0.126-0.459,0.179c-0.664,0.161-1.329,0.389-1.994,0.679c-0.665,0.292-1.269,0.651-1.813,1.076
		c-0.546,0.426-0.998,0.924-1.359,1.497c-0.355,0.572-0.576,1.216-0.657,1.934c-0.054,0.638,0.06,1.269,0.338,1.896
		c0.279,0.623,0.552,1.216,0.818,1.773c0.186,0.267,0.379,0.493,0.579,0.679c0.198,0.187,0.432,0.387,0.697,0.599
		c0.559,0.372,1.13,0.637,1.715,0.797c0.584,0.16,1.196,0.279,1.835,0.359c0.053,0.054,0.132,0.067,0.239,0.04
		c0.105-0.026,0.225-0.04,0.358-0.04c0.264,0.054,0.505,0.125,0.716,0.219c0.213,0.093,0.438,0.14,0.678,0.14
		c0.134,0,0.286-0.054,0.459-0.16c0.172-0.106,0.324-0.134,0.459-0.079v0.239h-0.399c-0.505,0.266-1.031,0.434-1.575,0.498
		c-0.545,0.067-1.071,0.192-1.575,0.379c-0.452-0.185-0.937-0.285-1.456-0.3c-0.519-0.013-1.002-0.125-1.453-0.339h-0.518
		c-0.586-0.185-1.105-0.479-1.556-0.877c-0.453-0.399-0.905-0.824-1.357-1.276c-0.453-0.452-0.746-0.923-0.878-1.415
		c-0.132-0.491-0.265-1.031-0.397-1.615c-0.133-0.612-0.1-1.229,0.1-1.855c0.199-0.622,0.419-1.227,0.658-1.814
		c0.133-0.186,0.305-0.378,0.521-0.577c0.211-0.2,0.385-0.433,0.519-0.699c0.319-0.371,0.669-0.723,1.058-1.056
		c0.385-0.333,0.829-0.566,1.336-0.699c0.052-0.052,0.112-0.14,0.177-0.257c0.066-0.12,0.141-0.208,0.219-0.26
		c0.372-0.239,0.753-0.419,1.137-0.538c0.386-0.119,0.805-0.153,1.257-0.101c0.505-0.371,1.063-0.599,1.675-0.677
		c0.613-0.079,1.236-0.186,1.874-0.318c0.134,0,0.239-0.068,0.319-0.2c0.08-0.133,0.186-0.2,0.319-0.2
		c0.239,0,0.504,0.033,0.797,0.1c0.292,0.067,0.571,0.127,0.838,0.18c0.452,0,0.899-0.047,1.336-0.14
		c0.439-0.093,0.884-0.14,1.336-0.14c0.133,0,0.279,0.06,0.439,0.18c0.159,0.119,0.303,0.152,0.438,0.1
		c0.452-0.053,0.917-0.1,1.396-0.14c0.481-0.04,0.945,0.047,1.398,0.26c0.052,0,0.13-0.007,0.239-0.021
		c0.105-0.014,0.185-0.047,0.239-0.1c0.265-0.054,0.529-0.034,0.797,0.061c0.268,0.093,0.559,0.072,0.877-0.061
		c0.373-0.054,0.771-0.04,1.197,0.04c0.425,0.08,0.824,0.186,1.196,0.318c0.319,0.134,0.664,0.18,1.038,0.14
		c0.372-0.04,0.745,0.007,1.118,0.14c0.132,0.054,0.279,0.113,0.438,0.18c0.163,0.067,0.306,0.126,0.439,0.18
		c0.639,0.133,1.27,0.246,1.895,0.339c0.622,0.093,1.216,0.325,1.774,0.697c0.213,0.054,0.405,0.094,0.578,0.12
		c0.171,0.025,0.365,0.067,0.577,0.118c0.133,0.056,0.239,0.116,0.319,0.18c0.08,0.069,0.186,0.14,0.318,0.22
		c0.825,0.186,1.575,0.512,2.254,0.977c0.679,0.466,1.263,1.023,1.755,1.676c0.491,0.651,0.884,1.362,1.176,2.134
		c0.295,0.77,0.452,1.57,0.481,2.393C413.499,201.103,413.02,202.106,412.303,202.943z M396.09,210.361
		c-0.224-0.386-0.495-0.737-0.814-1.057c-0.162-0.08-0.319-0.186-0.481-0.319c-0.159-0.133-0.325-0.247-0.495-0.34
		c-0.175-0.092-0.359-0.152-0.562-0.179c-0.199-0.025-0.404,0-0.618,0.079c-0.053,0-0.12-0.013-0.199-0.04
		c-0.08-0.024-0.186-0.013-0.318,0.04c-0.055,0-0.116-0.021-0.18-0.06c-0.069-0.04-0.127-0.061-0.18-0.061
		c-0.134,0.054-0.239,0.094-0.319,0.119c-0.08,0.026-0.187,0.08-0.319,0.16c-0.319,0.053-0.617,0.114-0.896,0.18
		c-0.279,0.067-0.579,0.165-0.9,0.3h-0.599c-0.529,0.212-1.036,0.404-1.512,0.577c-0.481,0.173-0.904,0.445-1.276,0.817
		c-0.134,0.213-0.286,0.413-0.459,0.598c-0.173,0.187-0.232,0.414-0.18,0.679s0.12,0.53,0.199,0.797
		c0.08,0.267,0.226,0.466,0.439,0.599c0.345,0.293,0.71,0.505,1.097,0.639c0.385,0.132,0.777,0.245,1.176,0.338
		c0.399,0.094,0.806,0.175,1.22,0.24c0.408,0.067,0.804,0.166,1.176,0.3c0.133,0.053,0.239,0.14,0.318,0.259
		c0.08,0.119,0.146,0.247,0.199,0.379c0.134,0.054,0.267,0.114,0.399,0.18c0.133,0.066,0.292,0.006,0.479-0.18
		c0.266-0.266,0.578-0.425,0.939-0.479c0.356-0.053,0.722-0.146,1.094-0.279c0.691-0.132,1.197-0.519,1.516-1.156
		c0.319-0.638,0.452-1.263,0.399-1.874C396.43,211.165,396.316,210.746,396.09,210.361z M399.561,205.395
		c-0.149-0.345-0.353-0.638-0.621-0.877c-0.053-0.133-0.117-0.28-0.199-0.439c-0.08-0.159-0.186-0.304-0.319-0.438
		c-0.877-0.903-1.669-1.847-2.372-2.832c-0.707-0.984-1.47-1.98-2.293-2.991c-0.134-0.185-0.347-0.279-0.639-0.279
		c-0.53,0-0.918,0.227-1.156,0.678c-0.239,0.453-0.359,0.904-0.359,1.356c0,0.187,0.047,0.372,0.14,0.56
		c0.093,0.186,0.165,0.386,0.22,0.597c0.452,0.932,0.983,1.815,1.596,2.653c0.611,0.838,1.262,1.683,1.953,2.532
		c0.292,0.134,0.599,0.266,0.918,0.398c0.319,0.134,0.638,0.232,0.956,0.299c0.317,0.067,0.643,0.08,0.979,0.04
		c0.332-0.04,0.657-0.164,0.977-0.378C399.633,206.034,399.705,205.741,399.561,205.395z"/>
	<path fill="#222222" d="M423.488,208.985c-0.492,0.079-1.004,0.093-1.536,0.04h-1.116h-1.159c-0.053,0-0.093-0.026-0.116-0.08
		c-0.027-0.053-0.069-0.079-0.12-0.079c-0.373,0.133-0.744,0.254-1.116,0.358c-0.374,0.106-0.717,0.294-1.038,0.56
		c-0.213,0.132-0.381,0.317-0.498,0.558c-0.119,0.239-0.087,0.506,0.101,0.798c0.053,0.08,0.158,0.154,0.318,0.219
		c0.159,0.067,0.266,0.126,0.318,0.18c0.319,0.638,0.691,1.229,1.117,1.775c0.425,0.545,0.983,0.924,1.675,1.136
		c0.319-0.212,0.667-0.365,1.039-0.458c0.372-0.094,0.744-0.114,1.117-0.061c0,0.453-0.174,0.845-0.52,1.176
		c-0.346,0.333-0.677,0.659-0.996,0.978c-0.211,0.132-0.405,0.259-0.576,0.379c-0.174,0.119-0.366,0.207-0.578,0.259
		c-0.373,0.054-0.712,0.133-1.017,0.24c-0.306,0.104-0.646,0.16-1.018,0.16c-0.373,0-0.737-0.088-1.097-0.26
		c-0.356-0.171-0.657-0.392-0.897-0.658c-0.267-0.24-0.472-0.512-0.619-0.817c-0.147-0.304-0.271-0.623-0.38-0.956
		c-0.107-0.333-0.206-0.671-0.3-1.018c-0.093-0.346-0.219-0.677-0.38-0.996c-0.054-0.133-0.066-0.259-0.038-0.38
		c0.024-0.119,0.038-0.245,0.038-0.379c0.213-0.558,0.491-1.077,0.839-1.556c0.345-0.478,0.704-0.969,1.077-1.475
		c0.186-0.318,0.379-0.618,0.578-0.897s0.433-0.565,0.699-0.856c0.132-0.08,0.257-0.16,0.378-0.24
		c0.119-0.079,0.246-0.094,0.38-0.04c0.132,0.054,0.279,0.134,0.439,0.24c0.159,0.105,0.303,0.16,0.438,0.16
		c0.504-0.055,0.991,0.025,1.455,0.238c0.465,0.212,0.948,0.254,1.453,0.119c0.451-0.053,0.899-0.032,1.337,0.061
		c0.438,0.094,0.882,0.207,1.336,0.34c0.185,0.054,0.364,0.193,0.537,0.419c0.171,0.225,0.152,0.459-0.062,0.697
		C424.479,208.865,423.979,208.905,423.488,208.985z"/>
</g>
</svg>
