<?xml version="1.0" encoding="utf-8"?>
<!-- Generator: Adobe Illustrator 16.0.0, SVG Export Plug-In . SVG Version: 6.00 Build 0)  -->
<!DOCTYPE svg PUBLIC "-//W3C//DTD SVG 1.1//EN" "http://www.w3.org/Graphics/SVG/1.1/DTD/svg11.dtd">
<svg version="1.1" id="Layer_1" xmlns="http://www.w3.org/2000/svg" xmlns:xlink="http://www.w3.org/1999/xlink" x="0px" y="0px"
	 width="44.547px" height="25.271px" viewBox="378.211 191.164 44.547 25.271"
	 enable-background="new 378.211 191.164 44.547 25.271" xml:space="preserve">
<g>
	<path fill="#222222" d="M411.152,203.026c-0.648,0.757-1.43,1.339-2.342,1.746c-1.104,0.553-2.292,0.937-3.562,1.152
		c-0.265,0.336-0.294,0.679-0.09,1.026c0.203,0.348,0.39,0.689,0.558,1.025c0.24,0.288,0.434,0.576,0.576,0.864
		s0.336,0.576,0.576,0.864c0.336,0.407,0.695,0.779,1.08,1.115c0.384,0.337,0.756,0.68,1.116,1.026
		c0.358,0.348,0.7,0.708,1.024,1.08c0.324,0.373,0.618,0.787,0.882,1.242c0,0.504-0.204,0.936-0.61,1.296
		c-0.409,0.36-0.816,0.684-1.226,0.972h-0.216c-0.456-0.336-0.888-0.678-1.296-1.025c-0.408-0.349-0.816-0.727-1.224-1.135
		c-0.409-0.575-0.8-1.14-1.171-1.691c-0.372-0.552-0.822-1.057-1.351-1.512c-0.048-0.12-0.103-0.234-0.162-0.343
		c-0.059-0.107-0.114-0.222-0.162-0.342c-0.12-0.12-0.232-0.216-0.342-0.288c-0.106-0.072-0.187-0.167-0.233-0.288
		c-0.169-0.288-0.349-0.605-0.539-0.954c-0.192-0.348-0.414-0.652-0.666-0.918c-0.253-0.264-0.54-0.449-0.864-0.558
		s-0.702-0.065-1.134,0.126c-0.17,0.072-0.36,0.079-0.576,0.018c-0.216-0.06-0.444-0.065-0.686-0.018
		c-0.216,0.072-0.396,0.192-0.54,0.36c-0.144,0.168-0.246,0.354-0.306,0.558c-0.061,0.205-0.066,0.414-0.018,0.63
		c0.048,0.216,0.144,0.396,0.287,0.54c0.575,0.504,0.973,1.14,1.188,1.908s0.204,1.5-0.036,2.196
		c-0.12,0.288-0.252,0.588-0.396,0.899c-0.146,0.312-0.36,0.588-0.648,0.828c-0.84,0.504-1.752,0.779-2.736,0.828
		c-0.983,0.048-1.968,0.072-2.95,0.072c-0.338,0-0.674,0.012-1.01,0.036c-0.336,0.023-0.646-0.024-0.936-0.145
		c-0.48-0.191-0.937-0.336-1.368-0.432c-0.432-0.097-0.852-0.266-1.26-0.504c-0.288-0.217-0.559-0.378-0.812-0.486
		c-0.252-0.108-0.521-0.246-0.81-0.414c-0.504-0.408-0.888-0.87-1.152-1.386c-0.264-0.517-0.372-1.085-0.323-1.71
		c0.049-0.456,0.203-0.876,0.469-1.26c0.264-0.384,0.562-0.721,0.898-1.009c0.528-0.336,1.062-0.605,1.604-0.81
		c0.54-0.204,1.072-0.39,1.602-0.559c0.624-0.238,1.272-0.4,1.944-0.485c0.672-0.084,1.354-0.149,2.052-0.198
		c0.24-0.072,0.468-0.167,0.686-0.288c0.216-0.12,0.3-0.3,0.252-0.54c-0.072-0.408-0.252-0.779-0.54-1.116
		c-0.288-0.336-0.576-0.647-0.864-0.936c-0.049-0.12-0.104-0.216-0.162-0.288c-0.061-0.072-0.114-0.167-0.162-0.288
		c-0.456-0.552-0.898-1.092-1.332-1.62c-0.432-0.527-0.708-1.164-0.828-1.908c0-0.048-0.029-0.102-0.09-0.161
		c-0.06-0.061-0.114-0.126-0.162-0.198c-0.12-0.36-0.12-0.66,0-0.9c0.097-0.216,0.168-0.438,0.217-0.666
		c0.048-0.228,0.096-0.45,0.145-0.666c0.048-0.216,0.126-0.426,0.234-0.63c0.106-0.204,0.257-0.39,0.448-0.558
		c0.288-0.168,0.553-0.366,0.792-0.594c0.24-0.229,0.505-0.366,0.792-0.414c0.576-0.072,1.122-0.023,1.64,0.144
		c0.516,0.168,1.002,0.42,1.458,0.756c0.167-0.12,0.371-0.144,0.61-0.072c0.24,0.072,0.456,0.168,0.648,0.288
		c0.216,0.288,0.468,0.57,0.756,0.847c0.288,0.275,0.552,0.569,0.792,0.882c0.239,0.312,0.444,0.636,0.612,0.972
		c0.167,0.336,0.252,0.696,0.252,1.08c0.72,0.216,1.247,0.601,1.584,1.152c0.239,0.456,0.491,0.87,0.756,1.242
		c0.264,0.372,0.504,0.798,0.72,1.277c0.24,0.216,0.47,0.444,0.686,0.685c0.07,0.048,0.119,0.119,0.144,0.216
		c0.023,0.096,0.061,0.168,0.108,0.216c0.119,0.072,0.216,0.144,0.288,0.216c0.07,0.072,0.167,0.084,0.288,0.036
		c0.216-0.12,0.413-0.138,0.594-0.054c0.18,0.084,0.354,0.102,0.521,0.054c0.192-0.048,0.392-0.108,0.596-0.18
		c0.202-0.072,0.39-0.168,0.558-0.288c0.144-0.145,0.264-0.252,0.36-0.324c0.552-0.288,1.114-0.562,1.69-0.828
		c0.576-0.265,1.068-0.684,1.478-1.26c0.479-0.696,0.714-1.398,0.701-2.106s-0.161-1.409-0.449-2.105s-0.686-1.284-1.188-1.765
		c-0.504-0.479-1.067-0.923-1.69-1.331c-0.218-0.12-0.457-0.192-0.722-0.217c-0.264-0.022-0.516-0.06-0.756-0.107
		c-0.12-0.048-0.216-0.108-0.288-0.181c-0.07-0.071-0.168-0.131-0.288-0.18c-0.504-0.167-1.024-0.324-1.564-0.468
		c-0.54-0.145-1.039-0.324-1.494-0.54c-0.48-0.24-0.96-0.354-1.44-0.342c-0.479,0.012-0.96-0.066-1.438-0.234
		c-0.12,0-0.234,0.006-0.342,0.019c-0.108,0.013-0.224,0.042-0.344,0.09c-0.048,0-0.106-0.006-0.18-0.019
		c-0.072-0.012-0.168-0.042-0.288-0.09c-0.504-0.047-0.99-0.064-1.458-0.054c-0.468,0.012-0.931-0.006-1.386-0.054
		c-0.337-0.072-0.679-0.162-1.026-0.271c-0.347-0.108-0.726-0.138-1.134-0.09c-0.12,0.048-0.216,0.084-0.288,0.107
		c-0.072,0.024-0.168,0.061-0.288,0.108c-0.336,0.072-0.66,0.104-0.972,0.09c-0.312-0.012-0.637,0.042-0.972,0.162
		c-0.409,0.049-0.812,0.049-1.206,0c-0.396-0.047-0.8-0.012-1.206,0.108c-0.288,0.048-0.57,0.102-0.848,0.162
		c-0.274,0.061-0.558,0.113-0.846,0.161c-0.12,0.072-0.258,0.14-0.414,0.198c-0.156,0.061-0.294,0.114-0.414,0.162
		c-0.6,0.145-1.2,0.35-1.8,0.612c-0.601,0.264-1.146,0.588-1.638,0.972s-0.9,0.834-1.226,1.351
		c-0.322,0.517-0.521,1.098-0.594,1.745c-0.048,0.576,0.054,1.146,0.306,1.711c0.252,0.563,0.498,1.098,0.738,1.602
		c0.168,0.24,0.342,0.444,0.522,0.612c0.18,0.168,0.39,0.349,0.63,0.54c0.504,0.336,1.02,0.575,1.548,0.72
		c0.527,0.144,1.08,0.252,1.656,0.324c0.048,0.049,0.119,0.061,0.216,0.036c0.096-0.023,0.203-0.036,0.324-0.036
		c0.238,0.049,0.455,0.113,0.646,0.197c0.192,0.084,0.396,0.126,0.612,0.126c0.12,0,0.258-0.048,0.414-0.144
		c0.155-0.096,0.293-0.12,0.414-0.072v0.216h-0.36c-0.456,0.24-0.931,0.392-1.422,0.45c-0.492,0.061-0.967,0.174-1.422,0.342
		c-0.408-0.167-0.846-0.258-1.314-0.27c-0.468-0.012-0.905-0.114-1.312-0.306h-0.468c-0.528-0.167-0.997-0.433-1.404-0.792
		c-0.408-0.36-0.816-0.744-1.225-1.152s-0.673-0.833-0.792-1.278c-0.12-0.443-0.239-0.93-0.359-1.458
		c-0.12-0.552-0.09-1.109,0.09-1.674c0.18-0.562,0.378-1.108,0.594-1.638c0.12-0.168,0.275-0.342,0.469-0.522
		c0.191-0.18,0.348-0.39,0.469-0.63c0.288-0.335,0.604-0.653,0.954-0.954c0.348-0.3,0.749-0.51,1.206-0.63
		c0.047-0.047,0.102-0.126,0.161-0.233c0.059-0.108,0.126-0.187,0.197-0.234c0.336-0.216,0.679-0.378,1.026-0.486
		c0.348-0.107,0.726-0.138,1.134-0.09c0.456-0.335,0.96-0.54,1.512-0.612c0.553-0.071,1.116-0.167,1.692-0.287
		c0.12,0,0.216-0.061,0.288-0.181s0.167-0.18,0.288-0.18c0.216,0,0.455,0.03,0.72,0.09c0.264,0.06,0.516,0.114,0.756,0.162
		c0.408,0,0.812-0.042,1.206-0.126c0.396-0.084,0.798-0.126,1.206-0.126c0.12,0,0.252,0.054,0.396,0.162
		c0.144,0.107,0.274,0.138,0.396,0.09c0.408-0.048,0.828-0.09,1.26-0.126c0.434-0.036,0.853,0.042,1.262,0.234
		c0.047,0,0.118-0.006,0.216-0.019c0.096-0.012,0.167-0.042,0.216-0.09c0.239-0.048,0.479-0.03,0.72,0.054s0.504,0.066,0.792-0.054
		c0.336-0.048,0.696-0.036,1.08,0.036s0.744,0.168,1.08,0.288c0.288,0.12,0.6,0.162,0.937,0.126
		c0.336-0.036,0.672,0.006,1.009,0.126c0.119,0.048,0.252,0.102,0.396,0.162c0.146,0.061,0.275,0.113,0.396,0.162
		c0.576,0.12,1.146,0.222,1.71,0.306c0.562,0.084,1.098,0.294,1.602,0.63c0.192,0.048,0.366,0.084,0.522,0.108
		c0.155,0.023,0.329,0.061,0.521,0.107c0.12,0.049,0.216,0.104,0.288,0.162c0.072,0.062,0.168,0.126,0.288,0.198
		c0.744,0.168,1.422,0.462,2.034,0.882s1.14,0.924,1.584,1.512c0.443,0.588,0.798,1.23,1.062,1.926
		c0.266,0.696,0.408,1.418,0.434,2.16C412.232,201.365,411.8,202.27,411.152,203.026z M396.518,209.722
		c-0.203-0.348-0.448-0.666-0.736-0.954c-0.146-0.072-0.288-0.167-0.434-0.288c-0.144-0.12-0.294-0.222-0.448-0.306
		c-0.157-0.083-0.324-0.138-0.506-0.162c-0.18-0.023-0.365,0-0.558,0.072c-0.048,0-0.108-0.012-0.18-0.036
		c-0.072-0.023-0.168-0.012-0.288,0.036c-0.049,0-0.104-0.019-0.162-0.054c-0.062-0.036-0.114-0.055-0.162-0.055
		c-0.12,0.048-0.216,0.084-0.288,0.108c-0.072,0.023-0.168,0.072-0.288,0.144c-0.288,0.048-0.558,0.104-0.81,0.162
		c-0.252,0.061-0.522,0.15-0.812,0.271h-0.54c-0.479,0.191-0.936,0.365-1.366,0.521c-0.434,0.156-0.816,0.402-1.152,0.738
		c-0.12,0.192-0.258,0.373-0.414,0.54c-0.156,0.168-0.21,0.373-0.162,0.612s0.108,0.479,0.18,0.72c0.072,0.24,0.204,0.42,0.396,0.54
		c0.312,0.264,0.642,0.456,0.99,0.576c0.348,0.119,0.702,0.222,1.062,0.306c0.36,0.084,0.727,0.157,1.1,0.216
		c0.37,0.061,0.726,0.15,1.062,0.271c0.12,0.048,0.216,0.126,0.288,0.233c0.072,0.108,0.132,0.223,0.18,0.342
		c0.12,0.049,0.24,0.104,0.36,0.162c0.12,0.061,0.264,0.006,0.432-0.162c0.24-0.239,0.522-0.383,0.848-0.432
		c0.322-0.048,0.652-0.132,0.988-0.252c0.624-0.12,1.08-0.468,1.368-1.044s0.408-1.14,0.36-1.692
		C396.824,210.448,396.722,210.07,396.518,209.722z M399.65,205.24c-0.134-0.312-0.318-0.576-0.56-0.792
		c-0.048-0.12-0.106-0.253-0.18-0.396c-0.072-0.144-0.168-0.275-0.288-0.396c-0.792-0.815-1.507-1.667-2.142-2.557
		c-0.638-0.888-1.327-1.788-2.07-2.7c-0.12-0.167-0.312-0.252-0.576-0.252c-0.479,0-0.828,0.204-1.044,0.612
		c-0.216,0.409-0.324,0.816-0.324,1.224c0,0.168,0.042,0.336,0.126,0.505c0.084,0.168,0.149,0.349,0.198,0.539
		c0.408,0.841,0.888,1.639,1.44,2.395c0.552,0.756,1.14,1.519,1.764,2.286c0.264,0.121,0.54,0.24,0.828,0.359
		c0.288,0.121,0.576,0.21,0.864,0.271c0.286,0.06,0.58,0.072,0.882,0.036c0.3-0.036,0.594-0.149,0.882-0.342
		C399.716,205.816,399.781,205.552,399.65,205.24z"/>
	<path fill="#222222" d="M421.25,208.48c-0.444,0.072-0.906,0.084-1.387,0.036h-1.008h-1.045c-0.048,0-0.084-0.023-0.106-0.072
		c-0.024-0.048-0.062-0.071-0.108-0.071c-0.337,0.12-0.672,0.229-1.008,0.323c-0.337,0.097-0.647,0.266-0.937,0.505
		c-0.192,0.119-0.343,0.287-0.45,0.504c-0.107,0.216-0.078,0.456,0.091,0.72c0.048,0.072,0.144,0.139,0.288,0.198
		c0.144,0.06,0.239,0.113,0.287,0.162c0.288,0.575,0.624,1.109,1.009,1.602c0.383,0.492,0.888,0.834,1.512,1.026
		c0.288-0.192,0.601-0.33,0.937-0.414s0.672-0.103,1.009-0.055c0,0.409-0.157,0.763-0.469,1.062c-0.312,0.3-0.611,0.594-0.899,0.882
		c-0.191,0.12-0.366,0.234-0.521,0.342c-0.156,0.108-0.33,0.187-0.521,0.234c-0.337,0.048-0.643,0.12-0.918,0.216
		c-0.276,0.095-0.582,0.145-0.918,0.145c-0.337,0-0.666-0.079-0.99-0.234c-0.323-0.155-0.594-0.354-0.811-0.594
		c-0.24-0.217-0.426-0.462-0.559-0.738c-0.132-0.275-0.245-0.563-0.342-0.864c-0.097-0.3-0.187-0.605-0.271-0.918
		c-0.084-0.312-0.197-0.611-0.343-0.899c-0.048-0.12-0.06-0.234-0.035-0.343c0.023-0.107,0.035-0.222,0.035-0.342
		c0.192-0.504,0.444-0.972,0.757-1.404c0.312-0.432,0.636-0.875,0.973-1.331c0.167-0.288,0.342-0.559,0.521-0.811
		c0.18-0.252,0.391-0.51,0.631-0.773c0.119-0.072,0.233-0.145,0.342-0.217c0.107-0.071,0.222-0.084,0.343-0.036
		c0.119,0.049,0.252,0.121,0.396,0.217s0.274,0.144,0.396,0.144c0.455-0.048,0.895,0.024,1.313,0.216
		c0.42,0.192,0.857,0.229,1.313,0.108c0.407-0.048,0.811-0.03,1.206,0.054c0.396,0.084,0.797,0.187,1.206,0.307
		c0.167,0.049,0.329,0.175,0.485,0.378c0.155,0.203,0.138,0.414-0.055,0.63C422.144,208.372,421.693,208.408,421.25,208.48z"/>
</g>
</svg>
