<?xml version="1.0" encoding="utf-8"?>
<!-- Generator: Adobe Illustrator 16.0.0, SVG Export Plug-In . SVG Version: 6.00 Build 0)  -->
<!DOCTYPE svg PUBLIC "-//W3C//DTD SVG 1.1//EN" "http://www.w3.org/Graphics/SVG/1.1/DTD/svg11.dtd">
<svg version="1.1" id="Layer_1" xmlns="http://www.w3.org/2000/svg" xmlns:xlink="http://www.w3.org/1999/xlink" x="0px" y="0px"
	 width="29.16px" height="26px" viewBox="0.036 0.032 29.16 26" enable-background="new 0.036 0.032 29.16 26" xml:space="preserve"
	>
<g>
	<path fill="#222222" d="M15.37,19.244c0,1.964-0.766,3.587-2.298,4.867s-3.483,1.921-5.854,1.921c-2.61,0-5.003-0.79-7.183-2.37
		l1.652-2.334c2.035,1.461,3.891,2.189,5.566,2.189c1.341,0,2.418-0.358,3.232-1.077c0.812-0.718,1.221-1.676,1.221-2.873
		c0-1.314-0.731-2.621-2.191-3.914c-0.357-0.359-1.832-1.532-4.417-3.519c-2.585-1.916-3.878-3.927-3.878-6.033
		c0-1.748,0.718-3.196,2.155-4.345c1.436-1.149,3.255-1.724,5.458-1.724c2.298,0,4.381,0.754,6.249,2.263l-1.904,2.046
		c-1.53-1.196-3.015-1.795-4.453-1.795c-1.125,0-2.041,0.307-2.747,0.916C5.273,4.072,4.92,4.868,4.92,5.849
		c0,1.148,0.707,2.298,2.119,3.448c0.263,0.215,1.58,1.222,3.95,3.015c1.628,1.223,2.764,2.348,3.412,3.376
		C15.047,16.719,15.37,17.904,15.37,19.244z"/>
	<path fill="#222222" d="M29.196,24.883c-1.293,0.767-2.598,1.147-3.914,1.147c-1.892,0-3.305-0.707-4.237-2.123
		c-0.527-0.792-0.79-2.351-0.79-4.678V9.512h-2.516V7.645h2.516V3.299l3.196-1.041v5.386h4.704v1.868h-4.704v9.505
		c0,1.848,0.179,3.101,0.538,3.761c0.357,0.66,1.028,0.99,2.011,0.99c0.812,0,1.616-0.216,2.406-0.646L29.196,24.883z"/>
</g>
</svg>
