<?xml version="1.0" encoding="utf-8"?>
<!-- Generator: Adobe Illustrator 16.0.0, SVG Export Plug-In . SVG Version: 6.00 Build 0)  -->
<!DOCTYPE svg PUBLIC "-//W3C//DTD SVG 1.1//EN" "http://www.w3.org/Graphics/SVG/1.1/DTD/svg11.dtd">
<svg version="1.1" id="Layer_1" xmlns="http://www.w3.org/2000/svg" xmlns:xlink="http://www.w3.org/1999/xlink" x="0px" y="0px"
	 width="29.232px" height="26.062px" viewBox="0 0 29.232 26.062" enable-background="new 0 0 29.232 26.062" xml:space="preserve">
<g>
	<path fill="#222222" d="M15.372,19.26c0,1.968-0.768,3.595-2.304,4.878c-1.536,1.284-3.492,1.926-5.868,1.926
		c-2.616,0-5.016-0.792-7.2-2.376l1.656-2.34c2.04,1.465,3.9,2.196,5.58,2.196c1.344,0,2.424-0.36,3.24-1.08
		c0.815-0.72,1.224-1.68,1.224-2.88c0-1.319-0.732-2.628-2.196-3.924c-0.359-0.36-1.836-1.536-4.428-3.528
		c-2.592-1.92-3.888-3.937-3.888-6.048c0-1.752,0.72-3.204,2.16-4.356C4.788,0.576,6.611,0,8.82,0c2.304,0,4.392,0.756,6.264,2.268
		L13.176,4.32c-1.535-1.199-3.023-1.8-4.464-1.8c-1.128,0-2.046,0.308-2.754,0.918C5.25,4.05,4.896,4.848,4.896,5.832
		c0,1.15,0.708,2.304,2.124,3.456c0.264,0.216,1.584,1.224,3.96,3.022c1.632,1.226,2.771,2.354,3.42,3.385
		C15.048,16.728,15.372,17.916,15.372,19.26z"/>
	<path fill="#222222" d="M29.232,24.912c-1.296,0.768-2.604,1.15-3.924,1.15c-1.896,0-3.312-0.709-4.248-2.128
		c-0.528-0.794-0.792-2.356-0.792-4.689V9.504h-2.521V7.632h2.521V3.275l3.204-1.044v5.4h4.716v1.872h-4.716v9.528
		c0,1.853,0.18,3.108,0.54,3.771c0.359,0.661,1.031,0.992,2.016,0.992c0.814,0,1.62-0.216,2.412-0.648L29.232,24.912z"/>
</g>
</svg>
