<?xml version="1.0" encoding="utf-8"?>
<!-- Generator: Adobe Illustrator 16.0.0, SVG Export Plug-In . SVG Version: 6.00 Build 0)  -->
<!DOCTYPE svg PUBLIC "-//W3C//DTD SVG 1.1//EN" "http://www.w3.org/Graphics/SVG/1.1/DTD/svg11.dtd">
<svg version="1.1" id="Layer_1" xmlns="http://www.w3.org/2000/svg" xmlns:xlink="http://www.w3.org/1999/xlink" x="0px" y="0px"
	 width="46.509px" height="26px" viewBox="-1.296 -0.725 46.509 26" enable-background="new -1.296 -0.725 46.509 26"
	 xml:space="preserve">
<g>
	<path fill="#222222" d="M5.832,25.083c-1.525,0-3.126-0.267-4.612-0.607c-0.839-0.192-1.716-0.307-2.516-0.61v-5.605h1.372
		l1.869,4.729c0.915,0.152,1.868,0.189,2.783,0.189c2.744,0,5.413-0.874,5.413-4.078c0-2.363-1.411-3.279-3.278-4.46l-3.737-2.402
		c-2.477-1.563-4.23-3.088-4.23-6.252c0-4.269,3.203-6.71,7.281-6.71c2.478,0,4.612,0.572,7.014,1.03v5.413h-1.411l-1.83-4.574
		C9.225,1.029,8.5,0.991,7.738,0.991c-2.592,0-5.642,0.496-5.642,3.698c0,2.248,1.487,3.087,3.241,4.192l4.003,2.555
		c1.296,0.839,2.593,1.562,3.468,2.858c0.763,1.145,1.144,2.479,1.144,3.851C13.952,22.872,10.14,25.083,5.832,25.083z"/>
	<path fill="#222222" d="M42.963,8.881L36.37,25.275h-1.716l-4.347-12.809l-4.802,12.809h-1.678L17.652,8.692L15.25,7.625V6.671
		h8.919v0.953l-2.896,1.068l3.201,9.225c0.306,0.839,0.686,1.831,0.8,2.708l5.225-13.954h1.144l4.004,11.513
		c0.267,0.801,0.495,1.64,0.762,2.441l4.041-11.741l-2.821-1.259V6.672h7.585v0.953L42.963,8.881z"/>
</g>
</svg>
