<?xml version="1.0" encoding="utf-8"?>
<!-- Generator: Adobe Illustrator 16.0.0, SVG Export Plug-In . SVG Version: 6.00 Build 0)  -->
<!DOCTYPE svg PUBLIC "-//W3C//DTD SVG 1.1//EN" "http://www.w3.org/Graphics/SVG/1.1/DTD/svg11.dtd">
<svg version="1.1" id="Layer_1" xmlns="http://www.w3.org/2000/svg" xmlns:xlink="http://www.w3.org/1999/xlink" x="0px" y="0px"
	 width="43.917px" height="24.55px" viewBox="0 0 43.917 24.55" enable-background="new 0 0 43.917 24.55" xml:space="preserve">
<g>
	<path fill="#222222" d="M6.731,24.369c-1.44,0-2.952-0.252-4.355-0.574C1.584,23.613,0.756,23.505,0,23.218v-5.293h1.296
		L3.06,22.39c0.864,0.145,1.764,0.18,2.628,0.18c2.591,0,5.111-0.826,5.111-3.852c0-2.231-1.332-3.096-3.096-4.211l-3.528-2.268
		C1.836,10.763,0.18,9.323,0.18,6.336C0.18,2.305,3.204,0,7.055,0c2.34,0,4.355,0.54,6.623,0.973v5.111h-1.332l-1.728-4.319
		C9.935,1.656,9.251,1.62,8.531,1.62c-2.447,0-5.327,0.468-5.327,3.492c0,2.123,1.404,2.915,3.06,3.959l3.78,2.412
		c1.224,0.792,2.448,1.476,3.275,2.699c0.72,1.08,1.08,2.34,1.08,3.636C14.398,22.281,10.799,24.369,6.731,24.369z"/>
	<path fill="#222222" d="M41.792,9.071L35.566,24.55h-1.62l-4.104-12.095L25.307,24.55h-1.584L17.892,8.892l-2.268-1.008v-0.9h8.422
		v0.9l-2.735,1.008l3.022,8.711c0.289,0.792,0.648,1.729,0.756,2.557l4.933-13.176h1.08l3.78,10.871
		c0.252,0.756,0.468,1.548,0.72,2.305l3.815-11.087l-2.664-1.188v-0.9h7.162v0.9L41.792,9.071z"/>
</g>
</svg>
