<?xml version="1.0" encoding="utf-8"?>
<!-- Generator: Adobe Illustrator 16.0.0, SVG Export Plug-In . SVG Version: 6.00 Build 0)  -->
<!DOCTYPE svg PUBLIC "-//W3C//DTD SVG 1.1//EN" "http://www.w3.org/Graphics/SVG/1.1/DTD/svg11.dtd">
<svg version="1.1" id="Layer_1" xmlns="http://www.w3.org/2000/svg" xmlns:xlink="http://www.w3.org/1999/xlink" x="0px" y="0px"
	 width="14.902px" height="25.917px" viewBox="0 0 14.902 25.917" enable-background="new 0 0 14.902 25.917" xml:space="preserve">
<g>
	<path fill="#222222" d="M1.368,21.705c1.332,0.937,3.348,1.836,5.292,1.836c2.916,0,4.931-1.764,4.931-4.535
		c0-6.335-10.979-3.744-10.979-12.456C0.612,2.699,3.744,0,8.171,0c2.448,0,4.645,0.756,6.623,1.943l-1.188,2.268
		c-1.477-0.972-2.952-1.836-5.292-1.836c-2.16,0-4.607,1.368-4.607,4.355c0,5.471,11.194,4.211,11.194,12.021
		c0,3.709-2.591,7.164-8.063,7.164c-2.698,0-4.751-0.685-6.839-1.979L1.368,21.705z"/>
</g>
</svg>
