<?xml version="1.0" encoding="utf-8"?>
<!-- Generator: Adobe Illustrator 16.0.0, SVG Export Plug-In . SVG Version: 6.00 Build 0)  -->
<!DOCTYPE svg PUBLIC "-//W3C//DTD SVG 1.1//EN" "http://www.w3.org/Graphics/SVG/1.1/DTD/svg11.dtd">
<svg version="1.1" id="Layer_1" xmlns="http://www.w3.org/2000/svg" xmlns:xlink="http://www.w3.org/1999/xlink" x="0px" y="0px"
	 width="22.658px" height="26px" viewBox="-0.95 -1.091 22.658 26" enable-background="new -0.95 -1.091 22.658 26"
	 xml:space="preserve">
<g>
	<path fill="#222222" d="M-0.72-1.091h22.218l0.21,6.677h-0.939c-0.46-2.098-1.044-3.463-1.754-4.097
		c-0.71-0.633-2.205-0.95-4.479-0.95h-2.188v20.109c0,1.515,0.236,2.452,0.708,2.814c0.476,0.364,1.51,0.602,3.11,0.717v0.729H4.71
		v-0.729c1.663-0.127,2.7-0.401,3.109-0.821c0.41-0.42,0.614-1.479,0.614-3.17V0.54H6.226c-2.175,0-3.656,0.313-4.442,0.94
		C0.999,2.107,0.406,3.477,0.009,5.587H-0.95L-0.72-1.091z"/>
</g>
</svg>
