<?xml version="1.0" encoding="utf-8"?>
<!-- Generator: Adobe Illustrator 16.0.0, SVG Export Plug-In . SVG Version: 6.00 Build 0)  -->
<!DOCTYPE svg PUBLIC "-//W3C//DTD SVG 1.1 Tiny//EN" "http://www.w3.org/Graphics/SVG/1.1/DTD/svg11-tiny.dtd">
<svg version="1.1" baseProfile="tiny" id="Layer_1" xmlns="http://www.w3.org/2000/svg" xmlns:xlink="http://www.w3.org/1999/xlink"
	 x="0px" y="0px" width="35.134px" height="25.557px" viewBox="0 0 35.134 25.557" xml:space="preserve">
<g>
	<path d="M7.379,3.959H0V1.296h17.962v2.664h-7.415v21.597H7.379V3.959z"/>
	<path d="M20.304,0h3.168v10.871h0.072c0.504-0.9,1.296-1.692,2.268-2.232c0.936-0.54,2.052-0.9,3.24-0.9
		c2.34,0,6.083,1.44,6.083,7.451v10.367h-3.168V15.55c0-2.808-1.044-5.183-4.031-5.183c-2.052,0-3.671,1.439-4.248,3.167
		c-0.18,0.432-0.216,0.9-0.216,1.512v10.511h-3.168V0z"/>
</g>
</svg>
