<?xml version="1.0" encoding="utf-8"?>
<!-- Generator: Adobe Illustrator 16.0.0, SVG Export Plug-In . SVG Version: 6.00 Build 0)  -->
<!DOCTYPE svg PUBLIC "-//W3C//DTD SVG 1.1//EN" "http://www.w3.org/Graphics/SVG/1.1/DTD/svg11.dtd">
<svg version="1.1" id="Layer_1" xmlns="http://www.w3.org/2000/svg" xmlns:xlink="http://www.w3.org/1999/xlink" x="0px" y="0px"
	 width="35.744px" height="26px" viewBox="-0.305 -0.221 35.744 26" enable-background="new -0.305 -0.221 35.744 26"
	 xml:space="preserve">
<g>
	<path fill="#222222" d="M7.202,3.806h-7.507V1.097h18.273v2.71h-7.543v21.971H7.202V3.806z"/>
	<path fill="#222222" d="M20.353-0.221h3.223v11.06h0.071c0.513-0.916,1.319-1.722,2.309-2.271c0.953-0.549,2.087-0.914,3.295-0.914
		c2.383,0,6.189,1.463,6.189,7.579v10.547h-3.223V15.598c0-2.856-1.063-5.272-4.102-5.272c-2.088,0-3.733,1.462-4.321,3.222
		c-0.183,0.439-0.219,0.914-0.219,1.538v10.693h-3.223V-0.221z"/>
</g>
</svg>
