<?xml version="1.0" encoding="utf-8"?>
<!-- Generator: Adobe Illustrator 16.0.0, SVG Export Plug-In . SVG Version: 6.00 Build 0)  -->
<!DOCTYPE svg PUBLIC "-//W3C//DTD SVG 1.1//EN" "http://www.w3.org/Graphics/SVG/1.1/DTD/svg11.dtd">
<svg version="1.1" id="Layer_1" xmlns="http://www.w3.org/2000/svg" xmlns:xlink="http://www.w3.org/1999/xlink" x="0px" y="0px"
	 width="35.133px" height="25.557px" viewBox="0 0 35.133 25.557" enable-background="new 0 0 35.133 25.557" xml:space="preserve">
<g>
	<path fill="#222222" d="M7.379,3.959H0V1.296h17.962V3.96h-7.415v21.597H7.379V3.959z"/>
	<path fill="#222222" d="M20.304,0h3.168v10.871h0.071c0.504-0.9,1.297-1.692,2.269-2.232c0.937-0.54,2.052-0.899,3.239-0.899
		c2.341,0,6.084,1.439,6.084,7.45v10.367h-3.168V15.55c0-2.808-1.045-5.183-4.031-5.183c-2.053,0-3.671,1.438-4.248,3.167
		c-0.18,0.432-0.216,0.899-0.216,1.512v10.511h-3.168V0z"/>
</g>
</svg>
