<?xml version="1.0" encoding="utf-8"?>
<!-- Generator: Adobe Illustrator 16.0.0, SVG Export Plug-In . SVG Version: 6.00 Build 0)  -->
<!DOCTYPE svg PUBLIC "-//W3C//DTD SVG 1.1 Tiny//EN" "http://www.w3.org/Graphics/SVG/1.1/DTD/svg11-tiny.dtd">
<svg version="1.1" baseProfile="tiny" id="Layer_1" xmlns="http://www.w3.org/2000/svg" xmlns:xlink="http://www.w3.org/1999/xlink"
	 x="0px" y="0px" width="20.76px" height="23.818px" viewBox="0 0 20.76 23.818" xml:space="preserve">
<g>
	<path d="M0.211,0h20.355l0.193,6.117h-0.861c-0.422-1.922-0.958-3.173-1.608-3.753s-2.019-0.87-4.104-0.87h-2.004v18.422
		c0,1.387,0.217,2.247,0.65,2.579c0.434,0.333,1.383,0.551,2.848,0.656v0.668H5.186V23.15c1.523-0.116,2.473-0.367,2.848-0.752
		c0.375-0.385,0.562-1.353,0.562-2.904v-18H6.574c-1.992,0-3.349,0.287-4.069,0.861S1.242,4.184,0.879,6.117H0L0.211,0z"/>
</g>
</svg>
