<?xml version="1.0" encoding="utf-8"?>
<!-- Generator: Adobe Illustrator 16.0.0, SVG Export Plug-In . SVG Version: 6.00 Build 0)  -->
<!DOCTYPE svg PUBLIC "-//W3C//DTD SVG 1.1//EN" "http://www.w3.org/Graphics/SVG/1.1/DTD/svg11.dtd">
<svg version="1.1" id="Layer_1" xmlns="http://www.w3.org/2000/svg" xmlns:xlink="http://www.w3.org/1999/xlink" x="0px" y="0px"
	 width="20.76px" height="23.818px" viewBox="0 0 20.76 23.818" enable-background="new 0 0 20.76 23.818" xml:space="preserve">
<g>
	<path fill="#222222" d="M0.211,0h20.354l0.193,6.117h-0.861c-0.422-1.922-0.957-3.173-1.607-3.753s-2.02-0.87-4.104-0.87h-2.004
		v18.422c0,1.387,0.217,2.247,0.649,2.579c0.435,0.333,1.383,0.551,2.849,0.656v0.668H5.186V23.15
		c1.523-0.116,2.473-0.367,2.848-0.752s0.562-1.354,0.562-2.904v-18H6.574c-1.992,0-3.349,0.287-4.069,0.861
		c-0.72,0.574-1.263,1.829-1.626,3.762H0L0.211,0z"/>
</g>
</svg>
