<?xml version="1.0" encoding="utf-8"?>
<!-- Generator: Adobe Illustrator 16.0.0, SVG Export Plug-In . SVG Version: 6.00 Build 0)  -->
<!DOCTYPE svg PUBLIC "-//W3C//DTD SVG 1.1//EN" "http://www.w3.org/Graphics/SVG/1.1/DTD/svg11.dtd">
<svg version="1.1" id="Layer_1" xmlns="http://www.w3.org/2000/svg" xmlns:xlink="http://www.w3.org/1999/xlink" x="0px" y="0px"
	 width="29.375px" height="24.225px" viewBox="0 0 29.375 24.225" enable-background="new 0 0 29.375 24.225" xml:space="preserve">
<g>
	<path fill="#222222" d="M19.617,0v3.636h-6.911c-0.396,0-0.468,0-0.828-0.108c0.108,0.36,0.108,0.433,0.108,0.828v19.259H7.595
		V4.355c0-0.396,0-0.468,0.108-0.828c-0.36,0.108-0.432,0.108-0.828,0.108H0V0H19.617z"/>
	<path fill="#222222" d="M27.753,11.303c-1.547-0.936-2.52-1.26-3.742-1.26c-1.188,0-2.16,0.792-2.16,1.764
		c0,0.756,0.576,1.26,2.124,1.908l2.304,0.936c2.053,0.864,3.096,2.341,3.096,4.428c0,3.096-2.627,5.146-6.586,5.146
		c-2.412,0-4.535-0.828-6.047-2.304l1.619-2.664c1.477,1.224,2.879,1.836,4.176,1.836c1.367,0,2.483-0.828,2.483-1.836
		c0-0.9-0.504-1.368-2.088-1.979c-4.067-1.619-5.183-2.771-5.183-5.292c0-3.023,2.338-5.003,6.01-5.003
		c1.836,0,3.384,0.433,5.22,1.404L27.753,11.303z"/>
</g>
</svg>
