<?xml version="1.0" encoding="utf-8"?>
<!-- Generator: Adobe Illustrator 16.0.0, SVG Export Plug-In . SVG Version: 6.00 Build 0)  -->
<!DOCTYPE svg PUBLIC "-//W3C//DTD SVG 1.1//EN" "http://www.w3.org/Graphics/SVG/1.1/DTD/svg11.dtd">
<svg version="1.1" id="Layer_1" xmlns="http://www.w3.org/2000/svg" xmlns:xlink="http://www.w3.org/1999/xlink" x="0px" y="0px"
	 width="29.374px" height="24.225px" viewBox="0 0 29.374 24.225" enable-background="new 0 0 29.374 24.225" xml:space="preserve">
<g>
	<path d="M19.617,0v3.636h-6.911c-0.396,0-0.468,0-0.828-0.108c0.108,0.36,0.108,0.432,0.108,0.828v19.258H7.595V4.355
		c0-0.396,0-0.468,0.108-0.828c-0.36,0.108-0.432,0.108-0.828,0.108H0V0H19.617z"/>
	<path d="M27.754,11.303c-1.547-0.936-2.52-1.26-3.743-1.26c-1.188,0-2.16,0.792-2.16,1.764c0,0.756,0.576,1.26,2.124,1.908
		l2.304,0.936c2.052,0.864,3.096,2.34,3.096,4.427c0,3.096-2.628,5.147-6.587,5.147c-2.412,0-4.535-0.828-6.047-2.304l1.62-2.664
		c1.476,1.224,2.879,1.836,4.175,1.836c1.368,0,2.484-0.828,2.484-1.836c0-0.9-0.504-1.368-2.088-1.979
		c-4.067-1.62-5.183-2.772-5.183-5.292c0-3.024,2.339-5.003,6.011-5.003c1.835,0,3.383,0.432,5.219,1.404L27.754,11.303z"/>
</g>
</svg>
