<?xml version="1.0" encoding="utf-8"?>
<!-- Generator: Adobe Illustrator 16.0.0, SVG Export Plug-In . SVG Version: 6.00 Build 0)  -->
<!DOCTYPE svg PUBLIC "-//W3C//DTD SVG 1.1//EN" "http://www.w3.org/Graphics/SVG/1.1/DTD/svg11.dtd">
<svg version="1.1" id="Layer_1" xmlns="http://www.w3.org/2000/svg" xmlns:xlink="http://www.w3.org/1999/xlink" x="0px" y="0px"
	 width="31.528px" height="26px" viewBox="-1.077 -0.887 31.528 26" enable-background="new -1.077 -0.887 31.528 26"
	 xml:space="preserve">
<g>
	<path fill="#222222" d="M19.979-0.887v3.902h-7.417c-0.425,0-0.503,0-0.889-0.117c0.116,0.387,0.116,0.466,0.116,0.889v20.671
		H7.075V3.786c0-0.425,0-0.502,0.116-0.889C6.805,3.014,6.728,3.014,6.302,3.014h-7.379v-3.901H19.979z"/>
	<path fill="#222222" d="M28.711,11.243c-1.661-1.004-2.706-1.352-4.016-1.352c-1.275,0-2.318,0.85-2.318,1.893
		c0,0.812,0.617,1.353,2.278,2.048l2.474,1.004c2.203,0.928,3.322,2.514,3.322,4.754c0,3.322-2.819,5.522-7.068,5.522
		c-2.589,0-4.867-0.889-6.49-2.473l1.738-2.859c1.585,1.313,3.09,1.971,4.481,1.971c1.468,0,2.664-0.889,2.664-1.971
		c0-0.966-0.54-1.468-2.24-2.124c-4.364-1.737-5.562-2.974-5.562-5.68c0-3.244,2.509-5.37,6.45-5.37
		c1.972,0,3.632,0.465,5.603,1.507L28.711,11.243z"/>
</g>
</svg>
