<?xml version="1.0" encoding="utf-8"?>
<!-- Generator: Adobe Illustrator 16.0.0, SVG Export Plug-In . SVG Version: 6.00 Build 0)  -->
<!DOCTYPE svg PUBLIC "-//W3C//DTD SVG 1.1//EN" "http://www.w3.org/Graphics/SVG/1.1/DTD/svg11.dtd">
<svg version="1.1" id="Layer_1" xmlns="http://www.w3.org/2000/svg" xmlns:xlink="http://www.w3.org/1999/xlink" x="0px" y="0px"
	 width="37.288px" height="26px" viewBox="249.768 280.737 37.288 26" enable-background="new 249.768 280.737 37.288 26"
	 xml:space="preserve">
<g>
	<path fill="#222222" d="M266.955,306.564h-0.299h-0.3h-0.385l-0.426-0.043c-0.599-0.043-1.026-0.043-1.326-0.043
		c-0.513-0.043-1.453-0.043-2.437-0.043c-2.778,0-3.762,0.043-6.114,0.302l0.556-1.668c1.113,0,1.625-0.086,1.925-0.258
		c0.342-0.128,0.556-0.386,0.727-0.685c0.086-0.172,0.171-0.384,0.214-0.555c0.086-0.299,0.129-0.643,0.129-0.983
		c0-0.385,0.043-1.069,0.043-2.097l0.256-16.547h-2.695c-0.34,0-0.855,0.042-1.623,0.086c-0.771,0.042-1.24,0.042-1.456,0.085
		c-0.897,0.041-1.41,0.214-1.752,0.427c-0.516,0.385-0.728,1.025-0.728,2.267c0,0.299,0,0.47,0.086,0.854h-1.582
		c0.17-0.897,0.213-1.112,0.299-2.522c0.086-0.856,0.128-1.626,0.171-2.308c0.086-0.9,0.086-1.283,0.086-1.711v-0.342h0.173
		c0.04,0.173,0.04,0.213,0.17,0.299c0.214,0.128,0.513,0.214,0.812,0.3c0.299,0.043,0.642,0.085,1.026,0.127
		c1.069,0.044,2.908,0.085,4.702,0.085h10.221c1.239,0,3.035-0.085,3.976-0.171c0.556-0.043,0.898-0.129,1.154-0.256
		c0.216-0.129,0.343-0.258,0.471-0.428h0.171l-0.043,0.385c-0.04,0.299-0.083,0.642-0.126,1.068c-0.257,2.096-0.3,2.993-0.3,4.918
		v0.513h-1.455c0.085-0.642,0.128-0.897,0.128-1.41c0-0.814-0.17-1.283-0.556-1.625c-0.428-0.386-1.026-0.556-2.994-0.556
		l-4.36-0.045l-0.343,19.882v0.043c0,0.514,0.043,0.683,0.257,0.813c0.259,0.17,0.428,0.17,1.71,0.17c1.368,0,1.539,0,2.437-0.083
		L266.955,306.564z"/>
	<path fill="#222222" d="M284.018,306.521l-0.77-0.043c-1.24-0.085-2.693-0.085-4.062-0.085c-2.224,0-3.59,0.044-5.47,0.258
		l0.513-1.625l0.299-0.043c1.24-0.172,1.498-0.513,1.539-2.224l0.129-9.192v-0.127c0-1.412-0.342-1.882-1.411-1.882
		c-0.47,0-0.812,0.042-1.411,0.257l0.429-1.453c0.725-0.129,0.897-0.173,2.008-0.429l2.267-0.514
		c1.154-0.257,1.496-0.385,2.437-0.685l-1.026,3.978l0.173,0.043c1.41-2.181,3.164-3.292,5.258-3.292
		c1.326,0,2.138,0.427,2.138,1.198c0,0.342-0.17,0.812-0.426,1.154c-0.558,0.812-1.282,1.24-2.01,1.24
		c-0.342,0-1.154-0.172-1.709-0.343l-0.3-0.084c-0.384-0.129-0.6-0.172-0.856-0.172c-0.556,0-1.025,0.299-1.753,1.154l-0.173,10.774
		c0,0.427,0.129,0.513,1.239,0.513h0.728c0.94,0,1.538-0.042,1.837-0.085c0.173,0,0.471,0,0.814-0.041L284.018,306.521z"/>
</g>
</svg>
