<?xml version="1.0" encoding="utf-8"?>
<!-- Generator: Adobe Illustrator 16.0.0, SVG Export Plug-In . SVG Version: 6.00 Build 0)  -->
<!DOCTYPE svg PUBLIC "-//W3C//DTD SVG 1.1//EN" "http://www.w3.org/Graphics/SVG/1.1/DTD/svg11.dtd">
<svg version="1.1" id="Layer_1" xmlns="http://www.w3.org/2000/svg" xmlns:xlink="http://www.w3.org/1999/xlink" x="0px" y="0px"
	 width="33.314px" height="30px" viewBox="1.61 1.45 33.314 30" enable-background="new 1.61 1.45 33.314 30" xml:space="preserve">
<g>
	<path fill="#222222" d="M11.326,3.682v21.466H8.7V3.682H1.61V1.45h16.805v2.232H11.326z"/>
	<path fill="#222222" d="M34.894,9.787c-0.984,0-2.035,0.164-2.625,0.459c0.491,0.589,1.181,1.903,1.181,3.478
		c0,3.381-2.79,5.975-6.237,5.975c-1.379,0-2.101-0.198-3.02-0.461c-0.92,0.263-1.346,0.821-1.346,1.577
		c0,0.788,0.558,1.247,1.41,1.247c8.073,0,10.668,1.444,10.668,4.792c0,2.495-2.461,4.596-7.779,4.596
		c-4.792,0-7.352-1.313-7.352-4.137c0-1.707,1.051-2.526,2.889-3.479c-1.312-0.394-2.134-1.411-2.134-2.43
		c0-1.476,0.985-2.101,2.299-2.92c-1.609-1.214-2.331-2.887-2.331-4.76c0-3.61,2.824-5.974,6.466-5.974
		c1.84,0,3.118,0.394,4.236,1.182c1.016-0.722,2.396-1.378,3.675-1.51V9.787L34.894,9.787z M26.788,24.426
		c-3.708,0-4.759,1.642-4.759,2.856c0,1.28,0.786,2.133,5.514,2.133c2.822,0,5.12-0.787,5.151-2.462
		C32.663,25.279,30.955,24.426,26.788,24.426z M26.886,9.787c-2.691,0-4.136,1.707-4.136,3.937c0,2.264,1.771,3.938,4.398,3.938
		c2.69,0,4.07-1.773,4.07-3.807C31.219,11.363,29.774,9.787,26.886,9.787z"/>
</g>
</svg>
