<?xml version="1.0" encoding="utf-8"?>
<!-- Generator: Adobe Illustrator 16.0.0, SVG Export Plug-In . SVG Version: 6.00 Build 0)  -->
<!DOCTYPE svg PUBLIC "-//W3C//DTD SVG 1.1//EN" "http://www.w3.org/Graphics/SVG/1.1/DTD/svg11.dtd">
<svg version="1.1" id="Layer_1" xmlns="http://www.w3.org/2000/svg" xmlns:xlink="http://www.w3.org/1999/xlink" x="0px" y="0px"
	 width="36.539px" height="32.9px" viewBox="0 0 36.539 32.9" enable-background="new 0 0 36.539 32.9" xml:space="preserve">
<g>
	<path fill="#222222" d="M10.655,2.448v23.541h-2.88V2.448H0V0h18.429v2.448H10.655z"/>
	<path fill="#222222" d="M36.501,9.143c-1.08,0-2.231,0.18-2.879,0.504c0.539,0.647,1.295,2.087,1.295,3.814
		c0,3.708-3.06,6.552-6.84,6.552c-1.512,0-2.304-0.217-3.312-0.505c-1.009,0.288-1.476,0.9-1.476,1.729
		c0,0.864,0.611,1.368,1.547,1.368c8.854,0,11.699,1.584,11.699,5.255c0,2.736-2.699,5.04-8.531,5.04
		c-5.256,0-8.062-1.44-8.062-4.536c0-1.872,1.152-2.771,3.168-3.815c-1.439-0.432-2.34-1.548-2.34-2.664
		c0-1.619,1.08-2.304,2.52-3.203c-1.764-1.332-2.556-3.167-2.556-5.22c0-3.959,3.097-6.551,7.091-6.551
		c2.018,0,3.42,0.432,4.645,1.296c1.115-0.792,2.628-1.512,4.031-1.656V9.143z M27.611,25.197c-4.066,0-5.219,1.8-5.219,3.132
		c0,1.404,0.863,2.339,6.047,2.339c3.096,0,5.615-0.863,5.65-2.699C34.054,26.133,32.182,25.197,27.611,25.197z M27.719,9.143
		c-2.952,0-4.535,1.872-4.535,4.318c0,2.483,1.942,4.319,4.823,4.319c2.951,0,4.463-1.944,4.463-4.175
		C32.47,10.871,30.886,9.143,27.719,9.143z"/>
</g>
</svg>
