<?xml version="1.0" encoding="utf-8"?>
<!-- Generator: Adobe Illustrator 16.0.0, SVG Export Plug-In . SVG Version: 6.00 Build 0)  -->
<!DOCTYPE svg PUBLIC "-//W3C//DTD SVG 1.1//EN" "http://www.w3.org/Graphics/SVG/1.1/DTD/svg11.dtd">
<svg version="1.1" id="Layer_1" xmlns="http://www.w3.org/2000/svg" xmlns:xlink="http://www.w3.org/1999/xlink" x="0px" y="0px"
	 width="45.322px" height="27.715px" viewBox="0 0 45.322 27.715" enable-background="new 0 0 45.322 27.715" xml:space="preserve">
<g>
	<path fill="#222222" d="M13.175,17.278c0,3.456,0,6.299,0.181,7.811c0.107,1.045,0.324,1.836,1.403,1.979
		c0.505,0.072,1.297,0.144,1.619,0.144c0.218,0,0.288,0.108,0.288,0.217c0,0.18-0.18,0.287-0.575,0.287
		c-1.979,0-4.248-0.107-4.428-0.107s-2.448,0.107-3.526,0.107c-0.396,0-0.576-0.071-0.576-0.287c0-0.108,0.071-0.217,0.288-0.217
		c0.323,0,0.756-0.071,1.08-0.144c0.72-0.144,0.898-0.937,1.044-1.979c0.18-1.512,0.18-4.354,0.18-7.811V2.052L4.824,2.124
		C2.592,2.16,1.729,2.412,1.152,3.275C0.757,3.887,0.648,4.139,0.54,4.391c-0.106,0.288-0.216,0.36-0.358,0.36
		C0.072,4.751,0,4.643,0,4.427c0-0.36,0.722-3.456,0.792-3.744C0.864,0.468,1.009,0,1.152,0c0.252,0,0.612,0.36,1.584,0.432
		C3.78,0.54,5.147,0.612,5.58,0.612h13.498c1.151,0,1.979-0.072,2.556-0.18c0.54-0.072,0.864-0.18,1.009-0.18
		c0.18,0,0.18,0.216,0.18,0.432c0,1.08-0.107,3.564-0.107,3.959c0,0.324-0.107,0.468-0.252,0.468c-0.181,0-0.252-0.108-0.288-0.612
		l-0.035-0.396c-0.108-1.08-0.973-1.908-4.429-1.98l-4.535-0.072L13.175,17.278L13.175,17.278z"/>
	<path fill="#222222" d="M31.859,5.183c0.396-1.008,0.54-1.188,0.756-1.188c0.324,0,0.433,0.432,0.756,1.116
		c0.576,1.296,5.651,13.931,7.596,18.574c1.151,2.735,2.017,3.131,2.699,3.347c0.468,0.145,0.938,0.18,1.26,0.18
		c0.182,0,0.396,0.072,0.396,0.252c0,0.181-0.36,0.252-0.72,0.252c-0.47,0-2.809,0-5.004-0.071
		c-0.611-0.036-1.116-0.036-1.116-0.216c0-0.145,0.072-0.145,0.217-0.217c0.18-0.071,0.504-0.323,0.288-0.828l-2.844-7.02
		c-0.072-0.144-0.108-0.18-0.288-0.18h-7.309c-0.144,0-0.252,0.072-0.322,0.252l-1.801,4.896c-0.287,0.756-0.469,1.512-0.469,2.051
		c0,0.613,0.54,0.828,1.08,0.828h0.288c0.252,0,0.324,0.108,0.324,0.252c0,0.181-0.181,0.252-0.468,0.252
		c-0.757,0-2.484-0.107-2.845-0.107c-0.323,0-1.908,0.107-3.204,0.107c-0.396,0-0.61-0.071-0.61-0.252
		c0-0.144,0.144-0.252,0.288-0.252c0.216,0,0.684-0.035,0.936-0.071c1.439-0.181,2.052-1.261,2.663-2.808L31.859,5.183z
		 M35.388,17.926c0.144,0,0.144-0.072,0.106-0.217l-3.132-8.386c-0.18-0.468-0.359-0.468-0.54,0l-2.951,8.386
		c-0.036,0.145,0,0.217,0.108,0.217H35.388z"/>
</g>
</svg>
