<?xml version="1.0" encoding="utf-8"?>
<!-- Generator: Adobe Illustrator 16.0.0, SVG Export Plug-In . SVG Version: 6.00 Build 0)  -->
<!DOCTYPE svg PUBLIC "-//W3C//DTD SVG 1.1//EN" "http://www.w3.org/Graphics/SVG/1.1/DTD/svg11.dtd">
<svg version="1.1" id="Layer_1" xmlns="http://www.w3.org/2000/svg" xmlns:xlink="http://www.w3.org/1999/xlink" x="0px" y="0px"
	 width="42.516px" height="26px" viewBox="1.403 0.858 42.516 26" enable-background="new 1.403 0.858 42.516 26"
	 xml:space="preserve">
<g>
	<path fill="#222222" d="M13.762,17.065c0,3.243,0,5.91,0.17,7.328c0.1,0.98,0.304,1.723,1.315,1.857
		c0.475,0.067,1.217,0.134,1.519,0.134c0.205,0,0.27,0.103,0.27,0.205c0,0.168-0.168,0.268-0.54,0.268c-1.856,0-3.985-0.1-4.154-0.1
		c-0.168,0-2.296,0.1-3.307,0.1c-0.372,0-0.541-0.066-0.541-0.268c0-0.103,0.066-0.205,0.271-0.205c0.302,0,0.709-0.066,1.013-0.134
		c0.675-0.136,0.842-0.88,0.979-1.857c0.168-1.418,0.168-4.085,0.168-7.328V2.783l-5,0.068c-2.094,0.034-2.903,0.27-3.444,1.08
		C2.113,4.504,2.011,4.741,1.909,4.977C1.81,5.248,1.707,5.315,1.574,5.315c-0.104,0-0.171-0.102-0.171-0.304
		c0-0.338,0.678-3.242,0.743-3.512c0.068-0.202,0.203-0.641,0.338-0.641c0.236,0,0.574,0.337,1.486,0.405
		c0.979,0.102,2.262,0.168,2.668,0.168H19.3c1.08,0,1.857-0.067,2.397-0.168c0.507-0.068,0.811-0.169,0.947-0.169
		c0.168,0,0.168,0.203,0.168,0.405c0,1.013-0.101,3.343-0.101,3.714c0,0.304-0.1,0.439-0.236,0.439c-0.169,0-0.236-0.101-0.27-0.574
		l-0.032-0.372c-0.102-1.013-0.914-1.79-4.156-1.857l-4.254-0.068L13.762,17.065L13.762,17.065z"/>
	<path fill="#222222" d="M31.29,5.72c0.371-0.946,0.507-1.115,0.709-1.115c0.304,0,0.406,0.405,0.709,1.047
		c0.541,1.216,5.302,13.068,7.126,17.425c1.08,2.565,1.893,2.938,2.531,3.14c0.439,0.136,0.881,0.168,1.183,0.168
		c0.171,0,0.371,0.068,0.371,0.236c0,0.17-0.338,0.236-0.675,0.236c-0.441,0-2.636,0-4.694-0.066
		c-0.573-0.033-1.047-0.033-1.047-0.201c0-0.137,0.067-0.137,0.203-0.205c0.169-0.066,0.473-0.303,0.271-0.776l-2.668-6.585
		c-0.067-0.135-0.102-0.17-0.27-0.17h-6.857c-0.135,0-0.236,0.068-0.302,0.236l-1.689,4.594c-0.27,0.709-0.44,1.418-0.44,1.924
		c0,0.575,0.507,0.777,1.014,0.777h0.271c0.236,0,0.304,0.101,0.304,0.236c0,0.17-0.171,0.236-0.438,0.236
		c-0.711,0-2.331-0.102-2.67-0.102c-0.303,0-1.79,0.102-3.006,0.102c-0.371,0-0.571-0.066-0.571-0.236
		c0-0.136,0.134-0.236,0.27-0.236c0.203,0,0.641-0.033,0.877-0.066c1.351-0.171,1.925-1.184,2.498-2.635L31.29,5.72z M34.6,17.674
		c0.135,0,0.135-0.067,0.099-0.203l-2.938-7.867c-0.169-0.439-0.337-0.439-0.507,0l-2.769,7.867c-0.033,0.136,0,0.203,0.102,0.203
		H34.6z"/>
</g>
</svg>
