<?xml version="1.0" encoding="utf-8"?>
<!-- Generator: Adobe Illustrator 16.0.0, SVG Export Plug-In . SVG Version: 6.00 Build 0)  -->
<!DOCTYPE svg PUBLIC "-//W3C//DTD SVG 1.1 Tiny//EN" "http://www.w3.org/Graphics/SVG/1.1/DTD/svg11-tiny.dtd">
<svg version="1.1" baseProfile="tiny" id="Layer_1" xmlns="http://www.w3.org/2000/svg" xmlns:xlink="http://www.w3.org/1999/xlink"
	 x="0px" y="0px" width="45.322px" height="27.716px" viewBox="0 0 45.322 27.716" xml:space="preserve">
<g>
	<path d="M13.175,17.278c0,3.456,0,6.299,0.18,7.811c0.108,1.044,0.324,1.835,1.404,1.979c0.504,0.072,1.296,0.144,1.619,0.144
		c0.217,0,0.288,0.108,0.288,0.216c0,0.18-0.18,0.288-0.575,0.288c-1.98,0-4.248-0.108-4.428-0.108s-2.448,0.108-3.527,0.108
		c-0.396,0-0.576-0.072-0.576-0.288c0-0.108,0.072-0.216,0.288-0.216c0.324,0,0.756-0.072,1.08-0.144
		c0.72-0.144,0.899-0.936,1.044-1.979c0.18-1.512,0.18-4.355,0.18-7.811V2.052L4.824,2.124C2.592,2.16,1.729,2.412,1.152,3.275
		C0.757,3.887,0.648,4.139,0.54,4.391c-0.107,0.288-0.216,0.36-0.359,0.36C0.072,4.751,0,4.643,0,4.427
		c0-0.36,0.721-3.456,0.792-3.744C0.864,0.468,1.009,0,1.152,0c0.252,0,0.612,0.36,1.584,0.432C3.78,0.54,5.147,0.612,5.58,0.612
		h13.498c1.151,0,1.979-0.072,2.556-0.18c0.54-0.072,0.864-0.18,1.008-0.18c0.18,0,0.18,0.216,0.18,0.432
		c0,1.08-0.107,3.564-0.107,3.959c0,0.324-0.108,0.468-0.252,0.468c-0.181,0-0.252-0.108-0.288-0.612l-0.036-0.396
		c-0.108-1.08-0.972-1.908-4.428-1.98l-4.535-0.072V17.278z"/>
	<path d="M31.859,5.183c0.396-1.008,0.54-1.188,0.756-1.188c0.324,0,0.433,0.432,0.756,1.116c0.576,1.296,5.651,13.93,7.596,18.574
		c1.151,2.735,2.016,3.131,2.699,3.347c0.468,0.144,0.937,0.18,1.26,0.18c0.181,0,0.396,0.072,0.396,0.252
		c0,0.18-0.36,0.252-0.72,0.252c-0.469,0-2.808,0-5.004-0.072c-0.611-0.036-1.116-0.036-1.116-0.216
		c0-0.144,0.072-0.144,0.217-0.216c0.18-0.072,0.504-0.324,0.288-0.828l-2.844-7.02c-0.072-0.144-0.108-0.18-0.288-0.18h-7.308
		c-0.144,0-0.252,0.072-0.323,0.252l-1.8,4.896c-0.288,0.756-0.469,1.512-0.469,2.052c0,0.612,0.54,0.828,1.08,0.828h0.288
		c0.252,0,0.324,0.108,0.324,0.252c0,0.18-0.18,0.252-0.468,0.252c-0.756,0-2.484-0.108-2.844-0.108
		c-0.324,0-1.908,0.108-3.204,0.108c-0.396,0-0.611-0.072-0.611-0.252c0-0.144,0.144-0.252,0.288-0.252
		c0.216,0,0.684-0.036,0.936-0.072c1.439-0.18,2.052-1.26,2.663-2.808L31.859,5.183z M35.388,17.926
		c0.144,0,0.144-0.072,0.107-0.216l-3.132-8.387c-0.18-0.468-0.359-0.468-0.54,0l-2.951,8.387c-0.036,0.144,0,0.216,0.108,0.216
		H35.388z"/>
</g>
</svg>
