<?xml version="1.0" encoding="utf-8"?>
<!-- Generator: Adobe Illustrator 16.0.0, SVG Export Plug-In . SVG Version: 6.00 Build 0)  -->
<!DOCTYPE svg PUBLIC "-//W3C//DTD SVG 1.1 Tiny//EN" "http://www.w3.org/Graphics/SVG/1.1/DTD/svg11-tiny.dtd">
<svg version="1.1" baseProfile="tiny" id="Layer_1" xmlns="http://www.w3.org/2000/svg" xmlns:xlink="http://www.w3.org/1999/xlink"
	 x="0px" y="0px" width="31.391px" height="21.885px" viewBox="252.716 282.795 31.391 21.885" xml:space="preserve">
<g>
	<path d="M267.186,304.536h-0.252h-0.252h-0.324l-0.36-0.036c-0.504-0.036-0.864-0.036-1.116-0.036
		c-0.432-0.036-1.224-0.036-2.052-0.036c-2.339,0-3.167,0.036-5.147,0.252l0.468-1.404c0.936,0,1.368-0.072,1.62-0.216
		c0.288-0.108,0.468-0.324,0.612-0.576c0.072-0.144,0.144-0.324,0.18-0.468c0.072-0.252,0.108-0.54,0.108-0.828
		c0-0.324,0.036-0.9,0.036-1.764l0.216-13.931h-2.268c-0.288,0-0.72,0.036-1.368,0.072s-1.044,0.036-1.224,0.072
		c-0.756,0.036-1.188,0.18-1.476,0.36c-0.432,0.324-0.612,0.864-0.612,1.908c0,0.252,0,0.396,0.072,0.72h-1.332
		c0.144-0.756,0.18-0.936,0.252-2.124c0.072-0.72,0.108-1.368,0.144-1.944c0.072-0.756,0.072-1.08,0.072-1.44v-0.288h0.144
		c0.036,0.144,0.036,0.18,0.144,0.252c0.18,0.108,0.432,0.18,0.684,0.252c0.252,0.036,0.54,0.072,0.864,0.108
		c0.9,0.036,2.448,0.072,3.959,0.072h8.603c1.044,0,2.556-0.072,3.348-0.144c0.468-0.036,0.756-0.108,0.972-0.216
		c0.18-0.108,0.288-0.216,0.396-0.36h0.144l-0.036,0.324c-0.036,0.252-0.072,0.54-0.108,0.9c-0.216,1.764-0.252,2.52-0.252,4.14
		v0.432h-1.224c0.072-0.54,0.108-0.756,0.108-1.188c0-0.684-0.144-1.08-0.468-1.368c-0.36-0.324-0.864-0.468-2.52-0.468
		l-3.671-0.036l-0.288,16.738v0.036c0,0.432,0.036,0.576,0.216,0.684c0.216,0.144,0.36,0.144,1.439,0.144
		c1.152,0,1.296,0,2.052-0.072L267.186,304.536z"/>
	<path d="M281.551,304.5l-0.648-0.036c-1.044-0.072-2.268-0.072-3.419-0.072c-1.872,0-3.024,0.036-4.607,0.216l0.432-1.368
		l0.252-0.036c1.044-0.144,1.26-0.432,1.296-1.872l0.108-7.739v-0.108c0-1.188-0.288-1.584-1.188-1.584
		c-0.396,0-0.684,0.036-1.188,0.216l0.36-1.224c0.612-0.108,0.756-0.144,1.692-0.36l1.908-0.432c0.972-0.216,1.26-0.324,2.052-0.576
		l-0.864,3.348l0.144,0.036c1.188-1.836,2.664-2.772,4.427-2.772c1.116,0,1.8,0.36,1.8,1.008c0,0.288-0.144,0.684-0.36,0.972
		c-0.468,0.684-1.08,1.044-1.692,1.044c-0.288,0-0.972-0.144-1.44-0.288l-0.252-0.072c-0.324-0.108-0.504-0.144-0.72-0.144
		c-0.468,0-0.864,0.252-1.476,0.972l-0.144,9.071c0,0.36,0.108,0.432,1.043,0.432h0.612c0.792,0,1.295-0.036,1.547-0.072
		c0.144,0,0.396,0,0.684-0.036L281.551,304.5z"/>
</g>
</svg>
