<?xml version="1.0" encoding="utf-8"?>
<!-- Generator: Adobe Illustrator 16.0.0, SVG Export Plug-In . SVG Version: 6.00 Build 0)  -->
<!DOCTYPE svg PUBLIC "-//W3C//DTD SVG 1.1//EN" "http://www.w3.org/Graphics/SVG/1.1/DTD/svg11.dtd">
<svg version="1.1" id="Layer_1" xmlns="http://www.w3.org/2000/svg" xmlns:xlink="http://www.w3.org/1999/xlink" x="0px" y="0px"
	 width="31.393px" height="21.888px" viewBox="252.715 282.793 31.393 21.888"
	 enable-background="new 252.715 282.793 31.393 21.888" xml:space="preserve">
<g>
	<path fill="#222222" d="M267.186,304.536h-0.252h-0.252h-0.324l-0.359-0.036c-0.504-0.036-0.864-0.036-1.116-0.036
		c-0.432-0.036-1.224-0.036-2.052-0.036c-2.339,0-3.167,0.036-5.147,0.253l0.468-1.404c0.937,0,1.368-0.072,1.62-0.217
		c0.288-0.107,0.468-0.324,0.612-0.576c0.072-0.144,0.144-0.323,0.18-0.467c0.072-0.252,0.108-0.541,0.108-0.828
		c0-0.324,0.036-0.9,0.036-1.765l0.216-13.931h-2.269c-0.287,0-0.72,0.035-1.367,0.072c-0.648,0.035-1.044,0.035-1.225,0.072
		c-0.756,0.035-1.188,0.18-1.476,0.359c-0.433,0.324-0.612,0.863-0.612,1.908c0,0.252,0,0.396,0.072,0.72h-1.332
		c0.144-0.756,0.18-0.937,0.252-2.124c0.072-0.721,0.108-1.368,0.144-1.943c0.072-0.757,0.072-1.08,0.072-1.44v-0.288h0.145
		c0.035,0.145,0.035,0.18,0.144,0.252c0.18,0.107,0.432,0.18,0.684,0.252c0.252,0.036,0.54,0.072,0.864,0.107
		c0.9,0.037,2.448,0.072,3.959,0.072h8.604c1.044,0,2.556-0.072,3.348-0.144c0.468-0.036,0.756-0.108,0.972-0.216
		c0.181-0.108,0.288-0.217,0.396-0.36h0.144l-0.036,0.324c-0.035,0.252-0.071,0.54-0.107,0.899
		c-0.216,1.765-0.252,2.521-0.252,4.141v0.432h-1.225c0.072-0.54,0.108-0.756,0.108-1.188c0-0.685-0.144-1.08-0.468-1.368
		c-0.36-0.324-0.864-0.468-2.521-0.468l-3.671-0.037l-0.288,16.738v0.037c0,0.432,0.036,0.575,0.216,0.684
		c0.217,0.144,0.36,0.144,1.439,0.144c1.152,0,1.296,0,2.052-0.071L267.186,304.536z"/>
	<path fill="#222222" d="M281.551,304.5l-0.648-0.036c-1.044-0.072-2.268-0.072-3.419-0.072c-1.872,0-3.023,0.037-4.606,0.217
		l0.432-1.368l0.252-0.036c1.044-0.145,1.26-0.432,1.296-1.872l0.108-7.739v-0.107c0-1.188-0.288-1.584-1.188-1.584
		c-0.396,0-0.684,0.035-1.188,0.216l0.36-1.224c0.611-0.108,0.756-0.145,1.691-0.36l1.908-0.433c0.972-0.216,1.26-0.324,2.052-0.576
		l-0.864,3.349l0.145,0.036c1.188-1.836,2.664-2.772,4.427-2.772c1.116,0,1.8,0.36,1.8,1.009c0,0.287-0.144,0.684-0.359,0.972
		c-0.469,0.684-1.08,1.044-1.692,1.044c-0.288,0-0.972-0.145-1.439-0.288l-0.253-0.072c-0.323-0.108-0.504-0.144-0.72-0.144
		c-0.468,0-0.864,0.252-1.476,0.972l-0.145,9.071c0,0.359,0.108,0.432,1.043,0.432h0.612c0.792,0,1.295-0.036,1.547-0.072
		c0.145,0,0.396,0,0.685-0.035L281.551,304.5z"/>
</g>
</svg>
