<?xml version="1.0" encoding="utf-8"?>
<!-- Generator: Adobe Illustrator 16.0.0, SVG Export Plug-In . SVG Version: 6.00 Build 0)  -->
<!DOCTYPE svg PUBLIC "-//W3C//DTD SVG 1.1//EN" "http://www.w3.org/Graphics/SVG/1.1/DTD/svg11.dtd">
<svg version="1.1" id="Layer_1" xmlns="http://www.w3.org/2000/svg" xmlns:xlink="http://www.w3.org/1999/xlink" x="0px" y="0px"
	 width="50.379px" height="17.457px" viewBox="0 0 50.379 17.457" enable-background="new 0 0 50.379 17.457" xml:space="preserve">
<g>
	<path fill="#222222" d="M1.477,1.336l0.598-0.809H17.42v0.527c-3.738,0.152-6.627,0.814-8.666,1.986
		c-1.242,0.704-2.232,1.659-2.97,2.866C4.987,7.16,4.594,8.514,4.606,9.967c0.012,1.453,0.428,2.723,1.248,3.807
		s1.922,1.783,3.305,2.101l0.738,0.142l1.143-0.193c1.535-0.34,3.006-1.172,4.412-2.496c2.719-2.543,4.254-6.141,4.605-10.793
		l0.123-2.004l4.412-0.51l-0.246,0.932C23.76,3.494,23.467,6.377,23.467,9.6c-0.012,1.733,0.094,3.28,0.316,4.641
		c0.094,0.68,0.287,1.389,0.58,2.127l0.229,0.562h-4.447l-0.334-0.757c-0.176-0.434-0.27-0.885-0.281-1.354l-0.018-1.159
		l-0.721,0.791c-1.559,1.534-3.703,2.36-6.434,2.479H11.25l-0.721,0.157c-1.16,0.258-2.273,0.381-3.34,0.369
		c-1.125,0.022-2.174-0.192-3.146-0.649c-1.207-0.505-2.156-1.283-2.848-2.339C0.387,13.307-0.011,11.936,0,10.354
		c-0.012-1.335,0.293-2.589,0.914-3.762c1.172-2.262,3.188-3.85,6.047-4.764l1.072-0.299l-7.4,0.791L1.477,1.336z"/>
	<path fill="#222222" d="M31.377,0.527l0.264,0.475c0.305,0.645,0.476,1.389,0.51,2.232v0.58l0.476-0.527
		c1.664-1.746,3.996-2.666,6.996-2.76h0.791l1.582-0.387C42.463,0.047,42.991,0,43.577,0c2.108,0.035,3.778,0.674,5.01,1.916
		c1.172,1.184,1.771,2.871,1.793,5.062c0,1.582-0.299,2.954-0.896,4.113c-0.691,1.359-1.683,2.414-2.971,3.164
		c-0.82,0.492-1.718,0.896-2.689,1.213l-1.775,0.546l8.104-0.984l-0.721,0.896l-0.649,1.002H34.277l0.105-0.526l1.213-0.07
		c1.09-0.07,2.086-0.234,2.988-0.492c3.234-0.902,5.42-2.637,6.557-5.203c0.422-0.926,0.633-1.945,0.633-3.059
		c-0.012-1.348-0.34-2.549-0.983-3.604c-0.703-1.148-1.67-1.922-2.899-2.32l-0.845-0.211L40.15,1.582
		c-1.125,0.234-2.228,0.785-3.305,1.652c-3.06,2.402-4.781,5.842-5.169,10.318l-0.157,2.566l-0.035,0.809l-4.377,0.511l0.264-0.879
		l0.369-1.354c0.176-0.797,0.311-1.718,0.404-2.761l0.088-1.424l0.192-3.498l0.035-1.371c0-1.641-0.205-3.094-0.614-4.359
		l-0.511-1.266L31.377,0.527L31.377,0.527z"/>
</g>
</svg>
