<?xml version="1.0" encoding="utf-8"?>
<!-- Generator: Adobe Illustrator 16.0.0, SVG Export Plug-In . SVG Version: 6.00 Build 0)  -->
<!DOCTYPE svg PUBLIC "-//W3C//DTD SVG 1.1//EN" "http://www.w3.org/Graphics/SVG/1.1/DTD/svg11.dtd">
<svg version="1.1" id="Layer_1" xmlns="http://www.w3.org/2000/svg" xmlns:xlink="http://www.w3.org/1999/xlink" x="0px" y="0px"
	 width="50.379px" height="17.457px" viewBox="0 0 50.379 17.457" enable-background="new 0 0 50.379 17.457" xml:space="preserve">
<g>
	<path d="M1.477,1.336l0.598-0.809H17.42v0.527c-3.738,0.152-6.627,0.814-8.666,1.986C7.512,3.744,6.522,4.699,5.784,5.906
		C4.987,7.16,4.594,8.514,4.606,9.967s0.428,2.722,1.248,3.806s1.922,1.784,3.305,2.101l0.738,0.141l1.143-0.193
		c1.535-0.34,3.006-1.172,4.412-2.496c2.719-2.543,4.254-6.141,4.605-10.793l0.123-2.004l4.412-0.51l-0.246,0.932
		c-0.586,2.543-0.879,5.426-0.879,8.648c-0.012,1.734,0.094,3.281,0.316,4.641c0.094,0.68,0.287,1.389,0.58,2.127l0.229,0.562
		h-4.447l-0.334-0.756c-0.176-0.434-0.27-0.885-0.281-1.354l-0.018-1.16l-0.721,0.791c-1.559,1.535-3.703,2.361-6.434,2.479H11.25
		l-0.721,0.158c-1.16,0.258-2.273,0.381-3.34,0.369c-1.125,0.023-2.174-0.193-3.146-0.65c-1.207-0.504-2.156-1.283-2.848-2.338
		C0.387,13.307-0.011,11.936,0,10.354c-0.012-1.336,0.293-2.59,0.914-3.762c1.172-2.262,3.188-3.85,6.047-4.764l1.072-0.299
		l-7.4,0.791L1.477,1.336z"/>
	<path d="M31.377,0.527l0.264,0.475c0.305,0.645,0.475,1.389,0.51,2.232v0.58l0.475-0.527c1.664-1.746,3.996-2.666,6.996-2.76h0.791
		l1.582-0.387C42.463,0.047,42.991,0,43.577,0c2.109,0.035,3.779,0.674,5.01,1.916c1.172,1.184,1.77,2.871,1.793,5.062
		c0,1.582-0.299,2.953-0.896,4.113c-0.691,1.359-1.682,2.414-2.971,3.164c-0.82,0.492-1.717,0.896-2.689,1.213l-1.775,0.545
		l8.104-0.984l-0.721,0.896l-0.65,1.002H34.278l0.105-0.527l1.213-0.07c1.09-0.07,2.086-0.234,2.988-0.492
		c3.234-0.902,5.42-2.637,6.557-5.203c0.422-0.926,0.633-1.945,0.633-3.059c-0.012-1.348-0.34-2.549-0.984-3.604
		c-0.703-1.148-1.67-1.922-2.9-2.32l-0.844-0.211l-0.896,0.141c-1.125,0.234-2.227,0.785-3.305,1.652
		c-3.059,2.402-4.781,5.842-5.168,10.318l-0.158,2.566l-0.035,0.809l-4.377,0.51l0.264-0.879l0.369-1.354
		c0.176-0.797,0.311-1.717,0.404-2.76l0.088-1.424l0.193-3.498l0.035-1.371c0-1.641-0.205-3.094-0.615-4.359l-0.51-1.266H31.377z"/>
</g>
</svg>
