<?xml version="1.0" encoding="utf-8"?>
<!-- Generator: Adobe Illustrator 16.0.0, SVG Export Plug-In . SVG Version: 6.00 Build 0)  -->
<!DOCTYPE svg PUBLIC "-//W3C//DTD SVG 1.1//EN" "http://www.w3.org/Graphics/SVG/1.1/DTD/svg11.dtd">
<svg version="1.1" id="Layer_1" xmlns="http://www.w3.org/2000/svg" xmlns:xlink="http://www.w3.org/1999/xlink" x="0px" y="0px"
	 width="51.956px" height="18px" viewBox="-0.788 -0.271 51.956 18" enable-background="new -0.788 -0.271 51.956 18"
	 xml:space="preserve">
<g>
	<path fill="#222222" d="M0.733,1.104l0.62-0.831h15.823v0.541c-3.854,0.158-6.834,0.839-8.936,2.048
		C6.957,3.588,5.938,4.572,5.177,5.821C4.355,7.113,3.951,8.51,3.959,10.005c0.014,1.499,0.444,2.809,1.288,3.925
		c0.848,1.116,1.982,1.837,3.41,2.171l0.76,0.141l1.178-0.193c1.583-0.352,3.099-1.213,4.549-2.575
		c2.804-2.624,4.386-6.333,4.751-11.128l0.127-2.066l4.549-0.527l-0.255,0.962c-0.606,2.62-0.905,5.591-0.905,8.914
		c-0.013,1.789,0.097,3.385,0.325,4.786c0.097,0.703,0.294,1.433,0.598,2.197l0.237,0.571h-4.588l-0.343-0.773
		c-0.18-0.448-0.277-0.914-0.29-1.397l-0.018-1.195l-0.743,0.817c-1.609,1.582-3.819,2.426-6.637,2.549h-1.143l-0.743,0.167
		c-1.196,0.264-2.343,0.396-3.446,0.378c-1.156,0.026-2.241-0.193-3.244-0.668C2.136,16.54,1.16,15.74,0.443,14.65
		c-0.831-1.204-1.244-2.614-1.23-4.245C-0.8,9.029-0.488,7.737,0.153,6.524c1.208-2.33,3.288-3.969,6.237-4.91l1.107-0.308
		L-0.137,2.12L0.733,1.104z"/>
	<path fill="#222222" d="M31.565,0.274l0.272,0.488c0.316,0.664,0.492,1.433,0.527,2.303v0.598l0.492-0.545
		c1.714-1.802,4.123-2.747,7.218-2.844h0.809l1.635-0.4c0.483-0.097,1.028-0.145,1.635-0.145c2.172,0.035,3.895,0.694,5.16,1.973
		c1.213,1.222,1.828,2.963,1.854,5.222c0,1.63-0.308,3.046-0.923,4.241c-0.721,1.402-1.74,2.492-3.067,3.266
		c-0.844,0.501-1.776,0.923-2.77,1.248l-1.837,0.562l8.359-1.011l-0.747,0.923l-0.668,1.028H34.562l0.106-0.536l1.248-0.079
		c1.125-0.07,2.153-0.237,3.085-0.501c3.332-0.932,5.591-2.725,6.761-5.366c0.431-0.958,0.65-2.009,0.65-3.156
		c-0.009-1.389-0.352-2.628-1.012-3.718c-0.729-1.182-1.723-1.982-2.988-2.391l-0.87-0.22L40.62,1.359
		c-1.161,0.242-2.304,0.809-3.411,1.706c-3.156,2.475-4.932,6.021-5.336,10.636l-0.158,2.646l-0.035,0.835l-4.514,0.527l0.272-0.905
		l0.378-1.397c0.185-0.817,0.32-1.767,0.417-2.848l0.093-1.468l0.197-3.604l0.035-1.415c0-1.692-0.211-3.191-0.633-4.497
		L27.398,0.27L31.565,0.274L31.565,0.274z"/>
</g>
</svg>
