<?xml version="1.0" encoding="utf-8"?>
<!-- Generator: Adobe Illustrator 16.0.0, SVG Export Plug-In . SVG Version: 6.00 Build 0)  -->
<!DOCTYPE svg PUBLIC "-//W3C//DTD SVG 1.1//EN" "http://www.w3.org/Graphics/SVG/1.1/DTD/svg11.dtd">
<svg version="1.1" id="Layer_1" xmlns="http://www.w3.org/2000/svg" xmlns:xlink="http://www.w3.org/1999/xlink" x="0px" y="0px"
	 width="39.021px" height="35.492px" viewBox="0 0 39.021 35.492" enable-background="new 0 0 39.021 35.492" xml:space="preserve">
<g>
	<path fill="#222222" d="M18.718,0c0.072,0.468,0.144,0.936,0.324,1.332c0.54,1.188,1.691,1.764,4.176,1.943l-0.036,0.792
		c-1.404,0.145-2.556,0.145-2.916,0.792c-0.18,0.36-0.18,1.008-0.216,1.944c0,4.823,0.036,9.646,0.108,14.47
		c0.647,0.54,1.512,1.225,2.411,1.225c1.188,0,1.801-1.008,1.979-1.261l0.756,0.468c-0.72,1.26-1.332,1.549-2.375,2.484
		c-1.044,0.973-1.368,1.943-1.512,2.52l-0.685-0.035c-0.107-0.324-0.288-0.864-0.863-1.439c-0.54-0.505-1.261-0.9-1.872-1.296
		c-1.008-0.612-1.584-0.899-2.16-0.899c-0.252,0-0.648,0.107-0.685,0.145c-0.396,0.145-1.224,0.574-2.231,1.079
		c-1.8,0.937-2.375,1.296-3.996,2.483c-0.432-0.433-0.828-0.828-1.295-1.26c-0.216-0.217-0.432-0.434-0.685-0.648
		c-0.287-0.252-0.611-0.504-0.936-0.756c-0.648-0.432-1.404-1.008-2.196-1.008c-1.62,0-2.23,1.801-2.627,2.987L0.288,25.88
		c0.107-0.539,0.288-1.619,1.26-2.771c0.864-1.044,1.764-1.44,3.022-1.907c0-3.456,0.036-6.912,0-10.367
		c0-1.62-0.035-3.24-0.071-4.859c0-0.324-0.036-0.648-0.036-0.972C4.428,4.571,4.428,4.14,4.032,3.815C3.78,3.6,3.528,3.6,3.419,3.6
		c-0.216,0-0.433,0.072-0.612,0.144C1.907,4.068,1.367,4.753,0.791,5.436L0,4.932C1.404,3.204,1.944,3.023,2.988,2.34
		c1.404-0.936,1.908-1.656,2.341-2.268h0.756c0.144,0.863,0.288,1.403,0.972,1.979c0.937,0.792,2.16,0.972,3.312,1.116v0.827
		C9.179,4.176,8.531,4.248,8.135,4.752c-0.18,0.252-0.288,0.575-0.288,1.26c-0.036,3.563-0.072,7.091-0.036,10.654
		c0.036,1.583,0.072,3.132,0.108,4.716c0.576,0.396,1.188,0.791,1.8,1.26c0.612,0.468,1.26,1.044,1.944,1.008
		c0.216,0,0.468-0.072,0.54-0.107c0.504-0.145,1.188-0.504,2.195-1.045l2.375-1.295c0.036-3.312,0.072-6.624,0.036-9.936
		c0-1.764-0.036-3.563-0.072-5.327c0-0.396-0.035-0.9-0.252-1.224c-0.359-0.576-1.26-0.54-2.52-0.54V3.348
		c0.18,0,0.936-0.072,1.584-0.288C16.702,2.7,17.206,2.016,18.034,0H18.718z"/>
	<path fill="#222222" d="M39.022,0.36c-0.432,0.863-1.655,3.383-2.556,3.888c-0.072,0.035-0.145,0.071-0.324,0.107h-4.318
		c-0.217,0.036-0.36,0.072-0.505,0.252c-0.288,0.288-0.72,1.188-1.26,2.124c-0.324,0.611-0.647,1.224-0.972,1.871
		c0.576,0.792,0.828,1.116,1.62,2.628h3.671v1.44H30.67c-0.036,1.8-0.108,3.563-0.216,5.327c-0.108,1.333-0.217,2.627-0.324,3.959
		c-0.108,1.871-0.252,3.707-0.432,5.543c-0.288,2.664-0.612,5.328-0.937,7.99h-0.828c-0.107-1.834-0.252-3.671-0.396-5.507
		c-0.145-1.438-0.252-2.916-0.324-4.354c-0.036-0.756-0.072-1.549-0.072-2.305V12.671H24.91v-0.469
		c0.396-0.287,0.756-0.575,1.115-0.899c1.225-1.188,2.305-3.312,3.097-4.787c0.576-1.08,1.188-2.196,1.8-3.276
		c0.288-0.539,0.576-1.079,0.899-1.583c0.181-0.217,0.288-0.288,0.721-0.396h4.932c0.324-0.504,0.252-0.359,0.504-0.899h1.044V0.36z
		"/>
</g>
</svg>
