<?xml version="1.0" encoding="utf-8"?>
<!-- Generator: Adobe Illustrator 16.0.0, SVG Export Plug-In . SVG Version: 6.00 Build 0)  -->
<!DOCTYPE svg PUBLIC "-//W3C//DTD SVG 1.1//EN" "http://www.w3.org/Graphics/SVG/1.1/DTD/svg11.dtd">
<svg version="1.1" id="Layer_1" xmlns="http://www.w3.org/2000/svg" xmlns:xlink="http://www.w3.org/1999/xlink" x="0px" y="0px"
	 width="32.987px" height="30px" viewBox="3.018 2.745 32.987 30" enable-background="new 3.018 2.745 32.987 30"
	 xml:space="preserve">
<g>
	<path fill="#222222" d="M18.84,2.745c0.061,0.396,0.123,0.791,0.274,1.126c0.457,1.004,1.429,1.491,3.53,1.643l-0.029,0.669
		c-1.188,0.123-2.162,0.123-2.466,0.669c-0.152,0.304-0.152,0.852-0.183,1.644c0,4.077,0.031,8.154,0.092,12.232
		c0.547,0.456,1.277,1.035,2.038,1.035c1.004,0,1.521-0.852,1.672-1.066l0.64,0.396c-0.608,1.064-1.126,1.309-2.007,2.1
		c-0.884,0.822-1.157,1.643-1.279,2.13l-0.578-0.029c-0.091-0.274-0.244-0.73-0.73-1.217c-0.457-0.426-1.066-0.761-1.583-1.095
		c-0.852-0.518-1.339-0.761-1.826-0.761c-0.213,0-0.547,0.09-0.579,0.123c-0.335,0.122-1.035,0.484-1.886,0.911
		c-1.521,0.793-2.008,1.097-3.378,2.1c-0.365-0.365-0.699-0.7-1.094-1.065c-0.183-0.184-0.365-0.367-0.579-0.548
		c-0.243-0.213-0.517-0.426-0.792-0.639c-0.547-0.365-1.186-0.852-1.855-0.852c-1.37,0-1.886,1.521-2.221,2.525l-0.76-0.155
		c0.091-0.455,0.244-1.368,1.065-2.342c0.731-0.883,1.492-1.218,2.555-1.612c0-2.921,0.03-5.843,0-8.763
		c0-1.37-0.03-2.739-0.061-4.107c0-0.274-0.03-0.548-0.03-0.822C6.761,6.608,6.761,6.245,6.426,5.97
		C6.213,5.788,6,5.788,5.908,5.788c-0.183,0-0.366,0.061-0.517,0.122C4.63,6.183,4.174,6.762,3.686,7.34L3.018,6.914
		C4.205,5.453,4.661,5.3,5.544,4.723c1.187-0.792,1.613-1.4,1.979-1.917h0.639c0.122,0.73,0.244,1.187,0.822,1.673
		c0.792,0.669,1.825,0.822,2.799,0.944v0.699c-1.005,0.153-1.554,0.214-1.889,0.641C9.742,6.975,9.652,7.248,9.652,7.827
		c-0.031,3.012-0.061,5.994-0.031,9.006c0.031,1.338,0.061,2.647,0.091,3.986c0.487,0.334,1.005,0.669,1.521,1.065
		c0.518,0.395,1.066,0.882,1.644,0.853c0.183,0,0.396-0.062,0.457-0.091c0.426-0.122,1.005-0.427,1.856-0.884l2.007-1.095
		c0.031-2.799,0.061-5.599,0.031-8.399c0-1.491-0.031-3.012-0.061-4.503c0-0.334-0.03-0.761-0.213-1.035
		c-0.304-0.486-1.065-0.457-2.131-0.457v-0.7c0.153,0,0.792-0.061,1.339-0.243c0.975-0.304,1.401-0.883,2.101-2.587H18.84z"/>
	<path fill="#222222" d="M36.005,3.049c-0.366,0.73-1.399,2.86-2.161,3.287c-0.061,0.03-0.122,0.06-0.273,0.09h-3.65
		c-0.184,0.031-0.305,0.061-0.427,0.213c-0.244,0.243-0.608,1.004-1.065,1.795c-0.273,0.516-0.547,1.035-0.822,1.582
		c0.487,0.669,0.7,0.943,1.37,2.222h3.103v1.217h-3.134c-0.031,1.521-0.091,3.012-0.183,4.503c-0.091,1.127-0.184,2.221-0.274,3.347
		c-0.091,1.582-0.213,3.134-0.364,4.686c-0.244,2.252-0.518,4.504-0.792,6.754h-0.7c-0.091-1.551-0.213-3.103-0.335-4.654
		c-0.122-1.216-0.213-2.465-0.274-3.682c-0.03-0.639-0.061-1.309-0.061-1.948v-9.004h-1.886V13.06
		c0.335-0.243,0.639-0.486,0.942-0.76c1.035-1.004,1.948-2.799,2.618-4.046c0.487-0.913,1.005-1.856,1.521-2.769
		c0.243-0.456,0.486-0.913,0.76-1.338c0.153-0.184,0.244-0.244,0.609-0.335h4.17c0.273-0.426,0.213-0.304,0.426-0.76h0.883V3.049z"
		/>
</g>
</svg>
