<?xml version="1.0" encoding="utf-8"?>
<!-- Generator: Adobe Illustrator 16.0.0, SVG Export Plug-In . SVG Version: 6.00 Build 0)  -->
<!DOCTYPE svg PUBLIC "-//W3C//DTD SVG 1.1 Tiny//EN" "http://www.w3.org/Graphics/SVG/1.1/DTD/svg11-tiny.dtd">
<svg version="1.1" baseProfile="tiny" id="Layer_1" xmlns="http://www.w3.org/2000/svg" xmlns:xlink="http://www.w3.org/1999/xlink"
	 x="0px" y="0px" width="39.022px" height="35.491px" viewBox="0 0 39.022 35.491" xml:space="preserve">
<g>
	<path d="M18.718,0c0.072,0.468,0.144,0.936,0.324,1.332c0.54,1.188,1.692,1.764,4.176,1.943l-0.036,0.792
		c-1.404,0.145-2.556,0.145-2.916,0.792c-0.18,0.36-0.18,1.008-0.216,1.944c0,4.823,0.036,9.646,0.108,14.47
		c0.648,0.54,1.512,1.224,2.412,1.224c1.188,0,1.8-1.008,1.979-1.26l0.756,0.468c-0.72,1.26-1.332,1.548-2.375,2.484
		c-1.044,0.972-1.368,1.943-1.512,2.52l-0.684-0.036c-0.108-0.324-0.288-0.864-0.864-1.439c-0.54-0.505-1.26-0.9-1.872-1.296
		c-1.008-0.612-1.584-0.9-2.16-0.9c-0.252,0-0.648,0.108-0.684,0.145c-0.396,0.144-1.224,0.575-2.232,1.079
		c-1.8,0.937-2.375,1.296-3.996,2.484c-0.432-0.433-0.828-0.828-1.295-1.26c-0.216-0.217-0.432-0.433-0.684-0.648
		c-0.288-0.252-0.612-0.504-0.936-0.756c-0.648-0.432-1.404-1.008-2.196-1.008c-1.62,0-2.231,1.8-2.627,2.987l-0.9-0.18
		c0.108-0.54,0.288-1.62,1.26-2.771c0.864-1.044,1.764-1.44,3.023-1.908c0-3.455,0.036-6.911,0-10.366
		c0-1.62-0.036-3.24-0.072-4.859c0-0.324-0.036-0.648-0.036-0.972C4.428,4.571,4.428,4.14,4.032,3.815C3.78,3.6,3.528,3.6,3.419,3.6
		c-0.216,0-0.432,0.072-0.612,0.144c-0.9,0.324-1.44,1.009-2.016,1.692L0,4.932C1.404,3.204,1.944,3.023,2.988,2.34
		c1.404-0.936,1.908-1.656,2.34-2.268h0.756c0.144,0.863,0.288,1.403,0.972,1.979c0.936,0.792,2.16,0.972,3.312,1.116v0.827
		C9.179,4.176,8.531,4.248,8.135,4.752c-0.18,0.252-0.288,0.575-0.288,1.26c-0.036,3.563-0.072,7.091-0.036,10.654
		c0.036,1.584,0.072,3.132,0.108,4.716c0.576,0.396,1.188,0.791,1.8,1.26c0.612,0.468,1.26,1.044,1.944,1.008
		c0.216,0,0.468-0.072,0.54-0.108c0.504-0.144,1.188-0.504,2.196-1.044l2.375-1.296c0.036-3.312,0.072-6.623,0.036-9.935
		c0-1.764-0.036-3.563-0.072-5.327c0-0.396-0.036-0.9-0.252-1.224c-0.36-0.576-1.26-0.54-2.52-0.54V3.348
		c0.18,0,0.936-0.072,1.584-0.288C16.702,2.7,17.206,2.016,18.034,0H18.718z"/>
	<path d="M39.022,0.36c-0.432,0.863-1.656,3.383-2.556,3.888c-0.072,0.035-0.144,0.071-0.324,0.107h-4.319
		c-0.216,0.036-0.36,0.072-0.504,0.252c-0.288,0.288-0.72,1.188-1.26,2.124c-0.324,0.611-0.648,1.224-0.972,1.871
		c0.576,0.792,0.828,1.116,1.62,2.628h3.671v1.44h-3.708c-0.036,1.8-0.108,3.563-0.216,5.327c-0.108,1.332-0.216,2.628-0.324,3.959
		c-0.108,1.872-0.252,3.708-0.432,5.544c-0.288,2.663-0.612,5.327-0.936,7.99h-0.828c-0.108-1.835-0.252-3.671-0.396-5.507
		c-0.144-1.439-0.252-2.916-0.324-4.355c-0.036-0.756-0.072-1.548-0.072-2.304V12.671h-2.232v-0.469
		c0.396-0.287,0.756-0.575,1.116-0.899c1.224-1.188,2.304-3.312,3.096-4.787c0.576-1.08,1.188-2.196,1.8-3.276
		c0.288-0.539,0.576-1.079,0.9-1.583c0.18-0.217,0.288-0.288,0.72-0.396h4.932c0.324-0.504,0.252-0.359,0.504-0.899H39.022z"/>
</g>
</svg>
