<?xml version="1.0" encoding="utf-8"?>
<!-- Generator: Adobe Illustrator 16.0.0, SVG Export Plug-In . SVG Version: 6.00 Build 0)  -->
<!DOCTYPE svg PUBLIC "-//W3C//DTD SVG 1.1//EN" "http://www.w3.org/Graphics/SVG/1.1/DTD/svg11.dtd">
<svg version="1.1" id="Layer_1" xmlns="http://www.w3.org/2000/svg" xmlns:xlink="http://www.w3.org/1999/xlink" x="0px" y="0px"
	 width="38.405px" height="26px" viewBox="-3.143 -2.128 38.405 26" enable-background="new -3.143 -2.128 38.405 26"
	 xml:space="preserve">
<g>
	<path fill="#222222" d="M2.448-2.064H8.04v0.799c-1.779,0-2.796,0.049-3.048,0.146C4.612-1.006,4.423-0.825,4.423-0.573
		c0,0.253,0.339,1.531,1.02,3.836c0.68,2.306,1.485,5.007,2.417,8.103c0.932,3.096,1.454,4.799,1.567,5.106
		c0.434-0.897,0.784-1.722,1.051-2.48c0.267-0.757,0.848-2.558,1.745-5.402c1.065-3.405,1.726-5.559,1.985-6.462
		c0.26-0.904,0.389-1.518,0.389-1.839c0-0.421-0.158-0.768-0.474-1.041c-0.316-0.272-0.704-0.41-1.167-0.41h-2.375v-0.903h12.484
		v0.757c-0.952,0-1.744,0.077-2.375,0.23c-0.629,0.154-0.945,0.525-0.945,1.115c0,0.196,0.07,0.516,0.2,0.957
		c0.134,0.441,0.54,1.657,1.222,3.647s1.411,4.183,2.195,6.579l1.955,5.822h0.084l2.102-6.895c1.811-6.053,2.714-9.451,2.714-10.193
		c0-0.49-0.191-0.817-0.577-0.978c-0.385-0.16-0.922-0.241-1.608-0.241h-2.123v-0.863h9.354v0.736c-1.22,0-2.056,0.034-2.511,0.105
		c-0.458,0.071-0.809,0.249-1.051,0.535c-0.245,0.288-0.456,0.795-0.624,1.523c-0.17,0.729-0.411,1.678-0.722,2.849
		c-0.316,1.17-0.616,2.252-0.895,3.248c-0.28,0.995-0.596,2.039-0.945,3.131c-0.351,1.093-0.661,2.061-0.925,2.9
		c-0.939,2.942-1.941,6.601-3.006,10.973h-0.777c-0.491-1.64-1.019-3.357-1.586-5.15c-0.567-1.794-1.269-3.956-2.103-6.483
		c-0.833-2.531-1.618-4.85-2.346-6.959c-0.729-2.109-1.345-3.801-1.849-5.075c-0.14,0.42-0.603,1.838-1.387,4.256
		c-0.785,2.418-1.625,5.048-2.522,7.895c-0.896,2.844-1.639,5.244-2.227,7.198c-0.589,1.956-0.98,3.353-1.177,4.193H7.917
		l-0.738-2.882c-0.014-0.056-0.613-2.066-1.797-6.032C4.199,10.87,3.123,7.344,2.156,4.262C1.188,1.18,0.598-0.503,0.388-0.783
		C0.177-1.077-0.727-1.224-2.323-1.224h-0.82v-0.757c0.323,0,1.274-0.015,2.859-0.042C1.3-2.05,2.21-2.064,2.448-2.064z"/>
</g>
</svg>
