<?xml version="1.0" encoding="utf-8"?>
<!-- Generator: Adobe Illustrator 16.0.0, SVG Export Plug-In . SVG Version: 6.00 Build 0)  -->
<!DOCTYPE svg PUBLIC "-//W3C//DTD SVG 1.1//EN" "http://www.w3.org/Graphics/SVG/1.1/DTD/svg11.dtd">
<svg version="1.1" id="Layer_1" xmlns="http://www.w3.org/2000/svg" xmlns:xlink="http://www.w3.org/1999/xlink" x="0px" y="0px"
	 width="32.115px" height="21.744px" viewBox="0 0 32.115 21.744" enable-background="new 0 0 32.115 21.744" xml:space="preserve">
<g>
	<path d="M4.676,0.053h4.676v0.668c-1.488,0-2.338,0.041-2.549,0.123C6.486,0.938,6.328,1.09,6.328,1.301s0.284,1.28,0.853,3.208
		s1.242,4.187,2.021,6.776s1.216,4.014,1.31,4.271c0.363-0.75,0.656-1.441,0.879-2.074s0.709-2.139,1.459-4.518
		c0.891-2.848,1.444-4.649,1.661-5.405s0.325-1.269,0.325-1.538c0-0.352-0.132-0.642-0.396-0.87s-0.589-0.343-0.976-0.343h-1.986
		V0.053h10.441v0.633c-0.797,0-1.459,0.064-1.986,0.193s-0.791,0.439-0.791,0.932c0,0.164,0.057,0.431,0.168,0.8
		s0.451,1.386,1.02,3.05s1.18,3.498,1.836,5.502l1.635,4.869h0.07l1.758-5.766c1.512-5.062,2.268-7.904,2.268-8.525
		c0-0.41-0.16-0.683-0.482-0.817s-0.771-0.202-1.346-0.202h-1.775V0h7.822v0.615c-1.02,0-1.719,0.029-2.1,0.088
		s-0.674,0.208-0.879,0.448s-0.379,0.665-0.52,1.274s-0.342,1.403-0.605,2.382s-0.514,1.884-0.748,2.716s-0.498,1.705-0.791,2.619
		s-0.551,1.723-0.773,2.426c-0.785,2.461-1.623,5.52-2.514,9.176h-0.65c-0.41-1.371-0.852-2.807-1.326-4.307
		s-1.061-3.308-1.758-5.423S18.099,7.96,17.49,6.196s-1.125-3.179-1.546-4.245c-0.117,0.352-0.504,1.538-1.16,3.56
		s-1.359,4.222-2.109,6.601s-1.371,4.386-1.863,6.021s-0.82,2.804-0.984,3.507h-0.58L8.631,19.23
		c-0.012-0.047-0.513-1.729-1.503-5.045S5.238,7.922,4.43,5.344S3.129,1.359,2.953,1.125C2.777,0.879,2.021,0.756,0.686,0.756H0
		V0.123c0.27,0,1.066-0.012,2.391-0.035S4.477,0.053,4.676,0.053z"/>
</g>
</svg>
