<?xml version="1.0" encoding="utf-8"?>
<!-- Generator: Adobe Illustrator 16.0.0, SVG Export Plug-In . SVG Version: 6.00 Build 0)  -->
<!DOCTYPE svg PUBLIC "-//W3C//DTD SVG 1.1//EN" "http://www.w3.org/Graphics/SVG/1.1/DTD/svg11.dtd">
<svg version="1.1" id="Layer_1" xmlns="http://www.w3.org/2000/svg" xmlns:xlink="http://www.w3.org/1999/xlink" x="0px" y="0px"
	 width="32.115px" height="21.744px" viewBox="0 0 32.115 21.744" enable-background="new 0 0 32.115 21.744" xml:space="preserve">
<g>
	<path fill="#222222" d="M4.676,0.053h4.676v0.668c-1.488,0-2.338,0.041-2.549,0.123C6.486,0.938,6.328,1.09,6.328,1.301
		c0,0.211,0.284,1.28,0.853,3.208c0.569,1.928,1.242,4.187,2.021,6.776c0.779,2.589,1.216,4.014,1.31,4.271
		c0.363-0.75,0.656-1.44,0.879-2.074c0.223-0.633,0.709-2.139,1.459-4.518c0.891-2.848,1.444-4.649,1.661-5.405
		c0.217-0.756,0.325-1.269,0.325-1.538c0-0.352-0.132-0.642-0.396-0.87s-0.589-0.343-0.976-0.343h-1.986V0.053h10.441v0.633
		c-0.797,0-1.459,0.064-1.986,0.193s-0.791,0.439-0.791,0.932c0,0.164,0.058,0.431,0.168,0.8c0.111,0.369,0.451,1.386,1.021,3.05
		s1.18,3.498,1.836,5.502l1.635,4.869h0.07l1.758-5.766c1.513-5.062,2.269-7.904,2.269-8.525c0-0.41-0.16-0.683-0.482-0.817
		c-0.322-0.134-0.771-0.202-1.346-0.202h-1.775V0h7.822v0.615c-1.02,0-1.719,0.029-2.1,0.088c-0.382,0.059-0.675,0.208-0.879,0.448
		c-0.205,0.24-0.38,0.665-0.521,1.274c-0.142,0.609-0.343,1.403-0.604,2.382c-0.264,0.979-0.515,1.884-0.748,2.716
		c-0.234,0.832-0.498,1.705-0.791,2.619s-0.552,1.723-0.773,2.425c-0.785,2.461-1.623,5.521-2.514,9.177h-0.65
		c-0.41-1.371-0.852-2.808-1.326-4.308s-1.061-3.308-1.758-5.422c-0.697-2.116-1.354-4.055-1.962-5.819
		c-0.609-1.764-1.125-3.179-1.546-4.245c-0.117,0.352-0.504,1.538-1.16,3.56c-0.656,2.022-1.359,4.222-2.109,6.602
		c-0.75,2.379-1.371,4.386-1.863,6.021c-0.492,1.636-0.82,2.804-0.984,3.507h-0.58l-0.617-2.41
		c-0.012-0.047-0.513-1.729-1.503-5.045c-0.99-3.315-1.89-6.263-2.698-8.841C3.622,2.766,3.129,1.359,2.953,1.125
		C2.777,0.879,2.021,0.756,0.686,0.756H0V0.123c0.27,0,1.066-0.012,2.391-0.035C3.716,0.065,4.477,0.053,4.676,0.053z"/>
</g>
</svg>
