<?xml version="1.0" encoding="utf-8"?>
<!-- Generator: Adobe Illustrator 16.0.0, SVG Export Plug-In . SVG Version: 6.00 Build 0)  -->
<!DOCTYPE svg PUBLIC "-//W3C//DTD SVG 1.1//EN" "http://www.w3.org/Graphics/SVG/1.1/DTD/svg11.dtd">
<svg version="1.1" id="Layer_1" xmlns="http://www.w3.org/2000/svg" xmlns:xlink="http://www.w3.org/1999/xlink" x="0px" y="0px"
	 width="44.899px" height="26px" viewBox="302.385 307.477 44.899 26" enable-background="new 302.385 307.477 44.899 26"
	 xml:space="preserve">
<g>
	<path fill="#222222" d="M332.292,308.061c-0.062,0.572-0.163,3.485-0.311,8.746c-0.073,2.812-0.305,5.215-0.694,7.212
		c-0.39,1.996-0.998,3.858-1.825,5.587c-1.451,0.412-2.758,0.936-3.926,1.57c-1.011,0.561-2.112,1.327-3.305,2.301
		c-2.581-1.278-5.058-2.35-7.432-3.214c-1.034,1.071-2.051,2.142-3.049,3.214c-0.938-0.487-2.106-0.974-3.506-1.461
		c-1.68-0.56-3.158-0.961-4.437-1.205c0.232-1.631,0.347-3.743,0.347-6.335c0-6.695-0.2-11.017-0.602-12.964
		c-0.158-0.73-0.347-1.266-0.567-1.606c-0.12-0.171-0.322-0.378-0.602-0.621c1.485-0.341,2.452-0.584,2.902-0.73
		c0.463-0.134,1.418-0.493,2.869-1.077c-0.063,0.986-0.092,1.729-0.092,2.228c0,0.538,0.043,1.345,0.126,2.429
		c1.156-1.011,1.893-1.698,2.211-2.062c0.327-0.326,0.968-1.09,1.917-2.28c2.094,0.107,3.688,0.43,4.782,0.968
		c0.9,0.463,1.493,1.105,1.771,1.936c0.1,0.241,0.22,0.631,0.367,1.168c0.913-0.913,1.491-1.523,1.735-1.827
		c0.326-0.339,0.949-1.133,1.862-2.372c1.399,0.354,3.378,0.529,5.934,0.529C329.887,308.188,331.062,308.146,332.292,308.061z
		 M314.873,329.807c0.194-0.986,0.292-1.887,0.292-2.702l-0.021-3.122l0.037-5.771c0-2.532-0.354-4.18-1.06-4.948
		c-0.659-0.708-1.693-1.062-3.104-1.062c-0.949,0-1.893,0.196-2.832,0.585v0.729l0.128,8.838c0,1.46-0.055,3.049-0.162,4.765
		L314.873,329.807z M319.219,312.425c0.121,1.813,0.183,3.244,0.183,4.29v0.804v6.189c0,0.499-0.007,1.017-0.019,1.552
		c0,0.39,0,0.792,0,1.205c0,0.195,0.012,0.603,0.036,1.224l5.807,2.429c0.938-1.607,1.57-3.445,1.898-5.515
		c0.402-2.665,0.603-5.55,0.603-8.654c0-1.059-0.042-2.197-0.127-3.414c-1.437-0.085-3.726-0.128-6.865-0.128
		C320.478,312.406,319.974,312.412,319.219,312.425z"/>
	<path fill="#222222" d="M340.909,317.153l2.869-3.269l3.506,3.269l-3.067,3.305l-3.031-2.976c-0.098,0.109-0.19,0.219-0.276,0.328
		v0.438v1.388v5.733c0,1.606,0.086,2.556,0.256,2.848c0.185,0.305,0.521,0.57,1.016,0.796c0.493,0.226,0.995,0.337,1.506,0.337
		c0.461,0,0.936-0.135,1.425-0.402l0.381,0.457c-1.314,1.277-2.556,2.55-3.725,3.815c-1.729-0.693-3.024-1.437-3.889-2.228
		c-0.536-0.499-0.844-1.14-0.931-1.919c-0.036-0.29-0.055-0.991-0.055-2.1v-5.149c-0.024-1.569-0.091-2.487-0.201-2.756
		c-0.097-0.292-0.268-0.54-0.511-0.739c-0.241-0.199-0.487-0.301-0.73-0.301c-0.219,0-0.486,0.114-0.801,0.347l-0.367-0.456
		c1.363-1.315,2.714-2.689,4.053-4.127C339.529,315.097,340.385,316.216,340.909,317.153z"/>
</g>
</svg>
