<?xml version="1.0" encoding="utf-8"?>
<!-- Generator: Adobe Illustrator 16.0.0, SVG Export Plug-In . SVG Version: 6.00 Build 0)  -->
<!DOCTYPE svg PUBLIC "-//W3C//DTD SVG 1.1//EN" "http://www.w3.org/Graphics/SVG/1.1/DTD/svg11.dtd">
<svg version="1.1" id="Layer_1" xmlns="http://www.w3.org/2000/svg" xmlns:xlink="http://www.w3.org/1999/xlink" x="0px" y="0px"
	 width="43.226px" height="25.031px" viewBox="303.221 307.961 43.226 25.031"
	 enable-background="new 303.221 307.961 43.226 25.031" xml:space="preserve">
<g>
	<path fill="#222222" d="M332.014,308.523c-0.059,0.551-0.157,3.356-0.299,8.42c-0.07,2.707-0.293,5.021-0.668,6.943
		c-0.375,1.922-0.961,3.715-1.758,5.379c-1.396,0.397-2.654,0.901-3.779,1.512c-0.973,0.539-2.033,1.277-3.182,2.215
		c-2.484-1.23-4.869-2.262-7.154-3.094c-0.996,1.031-1.975,2.062-2.936,3.094c-0.902-0.469-2.027-0.938-3.375-1.406
		c-1.617-0.539-3.041-0.926-4.271-1.16c0.223-1.57,0.334-3.604,0.334-6.1c0-6.445-0.193-10.605-0.58-12.48
		c-0.152-0.703-0.334-1.219-0.545-1.547c-0.117-0.164-0.311-0.363-0.58-0.598c1.43-0.328,2.361-0.562,2.795-0.703
		c0.445-0.129,1.365-0.475,2.761-1.037c-0.06,0.949-0.088,1.664-0.088,2.145c0,0.517,0.041,1.295,0.122,2.338
		c1.113-0.973,1.822-1.635,2.128-1.985c0.315-0.315,0.932-1.049,1.846-2.196c2.016,0.104,3.551,0.415,4.604,0.932
		c0.867,0.445,1.437,1.065,1.705,1.863c0.095,0.233,0.211,0.608,0.353,1.125c0.879-0.879,1.436-1.466,1.67-1.759
		c0.315-0.327,0.914-1.09,1.793-2.284c1.348,0.34,3.252,0.51,5.713,0.51C329.699,308.646,330.83,308.605,332.014,308.523z
		 M315.244,329.459c0.188-0.949,0.281-1.816,0.281-2.602l-0.019-3.006l0.035-5.556c0-2.438-0.34-4.024-1.02-4.764
		c-0.634-0.681-1.63-1.021-2.988-1.021c-0.914,0-1.822,0.188-2.726,0.562v0.703l0.123,8.508c0,1.406-0.053,2.936-0.157,4.588
		L315.244,329.459z M319.428,312.725c0.117,1.746,0.176,3.123,0.176,4.131v0.773v5.959c0,0.48-0.006,0.979-0.018,1.494
		c0,0.375,0,0.762,0,1.16c0,0.188,0.012,0.58,0.035,1.178l5.59,2.338c0.902-1.547,1.512-3.316,1.828-5.309
		c0.387-2.566,0.58-5.344,0.58-8.332c0-1.02-0.041-2.115-0.123-3.287c-1.383-0.082-3.586-0.123-6.609-0.123
		C320.641,312.707,320.155,312.713,319.428,312.725z"/>
	<path fill="#222222" d="M340.311,317.277l2.761-3.146l3.375,3.146l-2.953,3.182l-2.918-2.865c-0.094,0.105-0.183,0.211-0.265,0.316
		v0.422v1.336v5.52c0,1.547,0.082,2.461,0.246,2.742c0.177,0.293,0.501,0.549,0.977,0.766c0.475,0.217,0.958,0.324,1.45,0.324
		c0.444,0,0.901-0.129,1.371-0.387l0.368,0.439c-1.266,1.23-2.461,2.455-3.586,3.674c-1.664-0.668-2.912-1.383-3.744-2.145
		c-0.516-0.48-0.813-1.097-0.896-1.847c-0.035-0.28-0.053-0.954-0.053-2.021v-4.957c-0.023-1.512-0.088-2.396-0.193-2.654
		c-0.094-0.281-0.258-0.52-0.492-0.712c-0.233-0.192-0.469-0.29-0.703-0.29c-0.211,0-0.469,0.111-0.772,0.334l-0.353-0.439
		c1.312-1.266,2.613-2.59,3.902-3.973C338.981,315.297,339.807,316.375,340.311,317.277z"/>
</g>
</svg>
