<?xml version="1.0" encoding="utf-8"?>
<!-- Generator: Adobe Illustrator 16.0.0, SVG Export Plug-In . SVG Version: 6.00 Build 0)  -->
<!DOCTYPE svg PUBLIC "-//W3C//DTD SVG 1.1 Tiny//EN" "http://www.w3.org/Graphics/SVG/1.1/DTD/svg11-tiny.dtd">
<svg version="1.1" baseProfile="tiny" id="Layer_1" xmlns="http://www.w3.org/2000/svg" xmlns:xlink="http://www.w3.org/1999/xlink"
	 x="0px" y="0px" width="43.225px" height="25.031px" viewBox="303.221 307.961 43.225 25.031" xml:space="preserve">
<g>
	<path d="M332.014,308.523c-0.059,0.551-0.158,3.357-0.299,8.42c-0.07,2.707-0.293,5.021-0.668,6.943s-0.961,3.715-1.758,5.379
		c-1.395,0.398-2.654,0.902-3.779,1.512c-0.973,0.539-2.033,1.277-3.182,2.215c-2.484-1.23-4.869-2.262-7.154-3.094
		c-0.996,1.031-1.975,2.062-2.936,3.094c-0.902-0.469-2.027-0.938-3.375-1.406c-1.617-0.539-3.041-0.926-4.271-1.16
		c0.223-1.57,0.334-3.604,0.334-6.1c0-6.445-0.193-10.605-0.58-12.48c-0.152-0.703-0.334-1.219-0.545-1.547
		c-0.117-0.164-0.311-0.363-0.58-0.598c1.43-0.328,2.361-0.562,2.795-0.703c0.445-0.129,1.365-0.475,2.76-1.037
		c-0.059,0.949-0.088,1.664-0.088,2.145c0,0.516,0.041,1.295,0.123,2.338c1.113-0.973,1.822-1.635,2.127-1.986
		c0.316-0.316,0.932-1.049,1.846-2.197c2.016,0.105,3.551,0.416,4.605,0.932c0.867,0.445,1.436,1.066,1.705,1.863
		c0.094,0.234,0.211,0.609,0.352,1.125c0.879-0.879,1.436-1.465,1.67-1.758c0.316-0.328,0.914-1.09,1.793-2.285
		c1.348,0.34,3.252,0.51,5.713,0.51C329.699,308.646,330.83,308.605,332.014,308.523z M315.244,329.459
		c0.188-0.949,0.281-1.816,0.281-2.602l-0.018-3.006l0.035-5.555c0-2.438-0.34-4.025-1.02-4.764c-0.633-0.68-1.629-1.02-2.988-1.02
		c-0.914,0-1.822,0.188-2.725,0.562v0.703l0.123,8.508c0,1.406-0.053,2.936-0.158,4.588L315.244,329.459z M319.428,312.725
		c0.117,1.746,0.176,3.123,0.176,4.131v0.773v5.959c0,0.48-0.006,0.979-0.018,1.494c0,0.375,0,0.762,0,1.16
		c0,0.188,0.012,0.58,0.035,1.178l5.59,2.338c0.902-1.547,1.512-3.316,1.828-5.309c0.387-2.566,0.58-5.344,0.58-8.332
		c0-1.02-0.041-2.115-0.123-3.287c-1.383-0.082-3.586-0.123-6.609-0.123C320.641,312.707,320.154,312.713,319.428,312.725z"/>
	<path d="M340.311,317.277l2.76-3.146l3.375,3.146l-2.953,3.182l-2.918-2.865c-0.094,0.105-0.182,0.211-0.264,0.316v0.422v1.336
		v5.52c0,1.547,0.082,2.461,0.246,2.742c0.176,0.293,0.501,0.548,0.976,0.765s0.958,0.325,1.45,0.325
		c0.445,0,0.902-0.129,1.371-0.387l0.369,0.439c-1.266,1.23-2.461,2.455-3.586,3.674c-1.664-0.668-2.912-1.383-3.744-2.145
		c-0.516-0.48-0.814-1.096-0.896-1.846c-0.035-0.281-0.053-0.955-0.053-2.021v-4.957c-0.023-1.512-0.088-2.396-0.193-2.654
		c-0.094-0.281-0.258-0.519-0.492-0.712s-0.469-0.29-0.703-0.29c-0.211,0-0.469,0.111-0.773,0.334l-0.352-0.439
		c1.312-1.266,2.613-2.59,3.902-3.973C338.98,315.297,339.807,316.375,340.311,317.277z"/>
</g>
</svg>
