<?xml version="1.0" encoding="utf-8"?>
<!-- Generator: Adobe Illustrator 16.0.0, SVG Export Plug-In . SVG Version: 6.00 Build 0)  -->
<!DOCTYPE svg PUBLIC "-//W3C//DTD SVG 1.1 Tiny//EN" "http://www.w3.org/Graphics/SVG/1.1/DTD/svg11-tiny.dtd">
<svg version="1.1" baseProfile="tiny" id="Layer_1" xmlns="http://www.w3.org/2000/svg" xmlns:xlink="http://www.w3.org/1999/xlink"
	 x="0px" y="0px" width="43.704px" height="31.608px" viewBox="281.248 240.22 43.704 31.608" xml:space="preserve">
<g>
	<path d="M304.036,267.652l0.972-0.936c-2.064-0.912-4.392-1.848-6.984-2.808c0.469-0.552,0.748-0.996,0.837-1.332
		c0.09-0.336,0.135-1.104,0.135-2.304c0-0.432-0.013-1.134-0.036-2.106s-0.035-1.698-0.035-2.178
		c-1.354,0.672-2.482,1.32-3.385,1.944c-0.784,0.576-1.949,1.559-3.492,2.951c1.679,1.367,2.805,2.303,3.381,2.807l1.31-1.496
		l0.349,0.289l-4.932,5.458l-0.396-0.252l0.828-0.972c-1.464-1.56-3.396-2.952-5.796-4.176c-1.992-1.032-3.384-1.548-4.176-1.548
		c-0.576,0-0.864,0.24-0.864,0.72c0,0.432,0.432,0.948,1.296,1.548c1.152,0.816,2.592,1.176,4.32,1.08v0.504
		c-0.432,0.144-0.9,0.216-1.404,0.216c-1.32,0-2.436-0.372-3.348-1.116c-0.913-0.744-1.368-1.607-1.368-2.592
		c0-0.552,0.252-1.044,0.756-1.476c0.744-0.624,1.488-1.26,2.232-1.908c1.272,0.144,1.992,0.216,2.16,0.216
		c1.56,0,2.934-0.474,4.122-1.422s1.782-2.01,1.782-3.186c0-2.568-2.724-4.944-8.172-7.128l-1.332,1.764l-0.468-0.216
		c1.824-2.496,4.416-5.088,7.776-7.776l0.324,0.288l-1.116,0.936c2.832,1.608,4.824,3.145,5.976,4.608
		c0.984-0.983,1.98-1.998,2.988-3.042c1.008-1.044,1.788-1.974,2.34-2.79l0.396,0.252l-0.72,0.972
		c0.744,0.504,1.692,0.9,2.844,1.188c-0.336,0.648-0.504,1.536-0.504,2.664c1.968-1.607,3.672-3.299,5.112-5.076l0.432,0.252
		l-0.792,0.972c1.584,0.864,3.084,1.561,4.5,2.088c-0.552,1.08-0.876,1.83-0.972,2.25c-0.097,0.42-0.145,1.338-0.145,2.754
		c0,1.464,0.091,3.372,0.271,5.724c0.18,2.353,0.27,3.913,0.27,4.68c0,1.536-0.852,3.216-2.556,5.04
		c-0.576,0.625-2.052,1.944-4.428,3.96L304.036,267.652z M285.856,244.612l-0.9,0.936c3,1.368,5.088,2.736,6.264,4.104
		c0.887,1.057,1.416,2.4,1.584,4.032h0.072c0.216-0.912,0.324-1.524,0.324-1.836c0-1.512-0.828-2.988-2.484-4.428
		C289.3,246.172,287.68,245.236,285.856,244.612z M298.996,252.496v-6.552c0-0.696-0.552-1.104-1.656-1.224l-1.8,1.728
		c0.36,0.648,0.54,1.512,0.54,2.592c0,1.944-0.984,3.96-2.952,6.048c-1.656,1.776-3.348,3.012-5.076,3.708l2.052,1.008
		C292.864,257.5,295.828,255.064,298.996,252.496z M298.996,255.052v-1.584c-2.664,1.705-5.46,3.9-8.388,6.588l1.008,0.576
		C293.583,258.784,296.044,256.924,298.996,255.052z M302.524,245.944v14.76c0,0.384,0.444,0.768,1.332,1.152
		c0.264-0.72,0.396-2.34,0.396-4.86c0-0.912-0.06-2.592-0.18-5.04c-0.12-2.448-0.18-3.66-0.18-3.636c0-1.416,0.12-2.651,0.36-3.708
		l-0.072-0.072C303.771,244.972,303.22,245.44,302.524,245.944z M304.252,262.036l2.916,1.512c0.312-0.335,0.498-0.66,0.558-0.972
		s0.091-1.044,0.091-2.196c0-0.624-0.061-2.196-0.181-4.716s-0.18-4.104-0.18-4.752c0-0.936,0.06-1.62,0.18-2.052
		c0.12-0.432,0.456-1.236,1.008-2.412c-1.248-0.6-2.532-1.344-3.852-2.232c-0.264,1.224-0.396,2.101-0.396,2.628
		c0,0.36,0.096,1.65,0.288,3.87c0.192,2.22,0.288,3.714,0.288,4.482C304.972,257.477,304.732,259.756,304.252,262.036z"/>
	<path d="M312.929,270.388l4.212-3.672c-1.44-1.008-2.628-1.715-3.564-2.124c0.815-1.104,1.225-3.324,1.225-6.66
		c0-4.416-0.192-6.924-0.576-7.524c1.56-1.2,2.964-2.364,4.212-3.492l1.188-1.08l0.288,0.36l-0.936,0.756
		c2.327,0.984,4.319,1.512,5.976,1.584c-0.552,1.128-0.828,2.88-0.828,5.256c0,2.497,0.108,4.878,0.324,7.146
		s0.324,3.906,0.324,4.914c0,1.056-0.175,1.866-0.522,2.43c-0.348,0.563-1.002,1.122-1.962,1.674l-1.872,1.08
		c-0.912,0.527-1.728,0.792-2.447,0.792c-1.272,0-2.545-0.636-3.816-1.908l-0.936,0.756L312.929,270.388z M321.677,268.192
		c0-1.296-0.097-2.64-0.288-4.032c-0.24,0.192-1.044,0.756-2.412,1.692c-0.984,0.671-1.656,1.224-2.017,1.656
		c1.032,1.248,2.305,1.872,3.816,1.872c0.384,0,0.63-0.078,0.738-0.234C321.622,268.99,321.677,268.672,321.677,268.192z
		 M318.148,250.336v7.92c0,1.584-0.132,2.94-0.396,4.068c0.888,0.504,1.812,1.14,2.772,1.908l0.828-0.612
		c-0.216-2.352-0.324-4.716-0.324-7.092c0-2.184,0.36-3.864,1.08-5.04C320.8,251.224,319.48,250.84,318.148,250.336z"/>
</g>
</svg>
