<?xml version="1.0" encoding="utf-8"?>
<!-- Generator: Adobe Illustrator 16.0.0, SVG Export Plug-In . SVG Version: 6.00 Build 0)  -->
<!DOCTYPE svg PUBLIC "-//W3C//DTD SVG 1.1//EN" "http://www.w3.org/Graphics/SVG/1.1/DTD/svg11.dtd">
<svg version="1.1" id="Layer_1" xmlns="http://www.w3.org/2000/svg" xmlns:xlink="http://www.w3.org/1999/xlink" x="0px" y="0px"
	 width="43.705px" height="31.607px" viewBox="281.249 240.221 43.705 31.607"
	 enable-background="new 281.249 240.221 43.705 31.607" xml:space="preserve">
<g>
	<path fill="#222222" d="M304.036,267.652l0.973-0.936c-2.064-0.912-4.393-1.848-6.984-2.808c0.469-0.553,0.748-0.996,0.837-1.332
		c0.091-0.336,0.136-1.104,0.136-2.305c0-0.432-0.014-1.134-0.037-2.105c-0.022-0.973-0.035-1.698-0.035-2.178
		c-1.354,0.672-2.481,1.319-3.385,1.943c-0.783,0.576-1.949,1.56-3.492,2.951c1.68,1.367,2.806,2.303,3.382,2.807l1.31-1.496
		l0.35,0.289l-4.933,5.458l-0.396-0.252l0.828-0.972c-1.465-1.56-3.396-2.952-5.797-4.176c-1.992-1.032-3.383-1.548-4.176-1.548
		c-0.576,0-0.863,0.239-0.863,0.72c0,0.432,0.432,0.948,1.295,1.548c1.152,0.816,2.593,1.176,4.32,1.08v0.504
		c-0.432,0.145-0.9,0.216-1.404,0.216c-1.319,0-2.436-0.372-3.348-1.116c-0.912-0.743-1.367-1.606-1.367-2.592
		c0-0.552,0.252-1.044,0.756-1.476c0.744-0.624,1.488-1.26,2.231-1.908c1.272,0.145,1.992,0.216,2.16,0.216
		c1.56,0,2.935-0.474,4.122-1.422s1.781-2.01,1.781-3.186c0-2.568-2.723-4.944-8.172-7.128l-1.332,1.764l-0.467-0.216
		c1.823-2.496,4.416-5.088,7.775-7.776l0.324,0.288l-1.116,0.936c2.832,1.608,4.824,3.146,5.976,4.608
		c0.984-0.983,1.98-1.998,2.988-3.042s1.788-1.974,2.34-2.79l0.396,0.252l-0.721,0.972c0.744,0.505,1.692,0.9,2.845,1.188
		c-0.337,0.648-0.505,1.536-0.505,2.664c1.969-1.607,3.672-3.299,5.113-5.076l0.432,0.252l-0.793,0.972
		c1.584,0.864,3.084,1.562,4.5,2.089c-0.551,1.079-0.875,1.829-0.971,2.25c-0.098,0.42-0.145,1.338-0.145,2.754
		c0,1.464,0.09,3.372,0.27,5.724c0.18,2.354,0.27,3.913,0.27,4.68c0,1.536-0.852,3.217-2.555,5.04
		c-0.576,0.625-2.053,1.944-4.428,3.96L304.036,267.652z M285.856,244.612l-0.9,0.937c3,1.368,5.088,2.736,6.265,4.104
		c0.887,1.058,1.415,2.4,1.584,4.032h0.071c0.217-0.912,0.324-1.523,0.324-1.836c0-1.512-0.828-2.988-2.484-4.428
		C289.299,246.172,287.68,245.236,285.856,244.612z M298.997,252.496v-6.553c0-0.695-0.553-1.104-1.656-1.224l-1.801,1.729
		c0.36,0.647,0.541,1.512,0.541,2.592c0,1.943-0.984,3.96-2.953,6.048c-1.655,1.776-3.348,3.012-5.075,3.708l2.052,1.008
		C292.864,257.5,295.829,255.064,298.997,252.496z M298.997,255.052v-1.584c-2.664,1.705-5.461,3.9-8.389,6.588l1.008,0.576
		C293.583,258.784,296.043,256.924,298.997,255.052z M302.524,245.944v14.761c0,0.384,0.443,0.768,1.332,1.151
		c0.264-0.72,0.396-2.34,0.396-4.859c0-0.912-0.061-2.592-0.181-5.04s-0.18-3.66-0.18-3.636c0-1.416,0.12-2.651,0.36-3.708
		l-0.072-0.072C303.771,244.972,303.22,245.44,302.524,245.944z M304.252,262.036l2.916,1.512c0.312-0.335,0.498-0.66,0.557-0.972
		c0.061-0.312,0.092-1.044,0.092-2.196c0-0.624-0.061-2.196-0.182-4.716c-0.119-2.521-0.18-4.104-0.18-4.752
		c0-0.937,0.061-1.62,0.18-2.053c0.121-0.432,0.457-1.235,1.008-2.411c-1.246-0.601-2.531-1.345-3.852-2.232
		c-0.264,1.224-0.396,2.101-0.396,2.628c0,0.36,0.097,1.65,0.288,3.87s0.288,3.714,0.288,4.481
		C304.972,257.477,304.732,259.756,304.252,262.036z"/>
	<path fill="#222222" d="M312.928,270.388l4.213-3.672c-1.439-1.008-2.629-1.715-3.564-2.124c0.814-1.104,1.225-3.324,1.225-6.66
		c0-4.416-0.191-6.924-0.576-7.523c1.561-1.2,2.965-2.364,4.213-3.492l1.188-1.08l0.289,0.359l-0.938,0.757
		c2.328,0.983,4.32,1.512,5.977,1.584c-0.551,1.128-0.828,2.88-0.828,5.256c0,2.497,0.109,4.878,0.324,7.146
		c0.217,2.269,0.324,3.906,0.324,4.914c0,1.057-0.176,1.866-0.521,2.431c-0.348,0.562-1.002,1.121-1.963,1.674l-1.871,1.08
		c-0.912,0.526-1.729,0.792-2.447,0.792c-1.271,0-2.545-0.637-3.816-1.908l-0.936,0.756L312.928,270.388z M321.676,268.192
		c0-1.296-0.096-2.64-0.287-4.031c-0.24,0.191-1.045,0.756-2.412,1.691c-0.984,0.671-1.656,1.225-2.018,1.656
		c1.033,1.248,2.305,1.872,3.816,1.872c0.385,0,0.631-0.078,0.738-0.234C321.622,268.99,321.676,268.672,321.676,268.192z
		 M318.149,250.336v7.92c0,1.584-0.133,2.94-0.396,4.068c0.887,0.504,1.812,1.14,2.771,1.907l0.828-0.611
		c-0.217-2.353-0.324-4.717-0.324-7.093c0-2.184,0.359-3.863,1.08-5.04C320.799,251.224,319.481,250.84,318.149,250.336z"/>
</g>
</svg>
