<?xml version="1.0" encoding="utf-8"?>
<!-- Generator: Adobe Illustrator 16.0.0, SVG Export Plug-In . SVG Version: 6.00 Build 0)  -->
<!DOCTYPE svg PUBLIC "-//W3C//DTD SVG 1.1//EN" "http://www.w3.org/Graphics/SVG/1.1/DTD/svg11.dtd">
<svg version="1.1" id="Layer_1" xmlns="http://www.w3.org/2000/svg" xmlns:xlink="http://www.w3.org/1999/xlink" x="0px" y="0px"
	 width="41.48px" height="30px" viewBox="282.362 241.025 41.48 30" enable-background="new 282.362 241.025 41.48 30"
	 xml:space="preserve">
<g>
	<path fill="#222222" d="M303.988,267.06l0.924-0.889c-1.96-0.865-4.169-1.754-6.629-2.665c0.445-0.524,0.71-0.945,0.795-1.265
		c0.086-0.318,0.129-1.047,0.129-2.187c0-0.411-0.014-1.076-0.035-1.999s-0.033-1.611-0.033-2.066
		c-1.286,0.638-2.355,1.252-3.213,1.845c-0.743,0.546-1.85,1.479-3.314,2.8c1.596,1.298,2.663,2.187,3.21,2.664l1.244-1.42
		l0.331,0.274l-4.681,5.181l-0.377-0.239l0.786-0.923c-1.391-1.48-3.223-2.802-5.502-3.964c-1.891-0.979-3.21-1.469-3.963-1.469
		c-0.547,0-0.819,0.228-0.819,0.684c0,0.41,0.41,0.899,1.229,1.469c1.093,0.774,2.46,1.117,4.1,1.025v0.478
		c-0.41,0.139-0.854,0.206-1.333,0.206c-1.252,0-2.312-0.354-3.177-1.06c-0.865-0.705-1.298-1.524-1.298-2.46
		c0-0.524,0.239-0.99,0.718-1.401c0.706-0.592,1.412-1.195,2.118-1.811c1.206,0.138,1.891,0.205,2.05,0.205
		c1.48,0,2.785-0.45,3.911-1.349c1.127-0.9,1.69-1.909,1.69-3.024c0-2.438-2.584-4.693-7.756-6.766l-1.264,1.674l-0.443-0.204
		c1.729-2.369,4.191-4.829,7.38-7.38l0.308,0.272l-1.061,0.889c2.688,1.525,4.579,2.985,5.672,4.373
		c0.935-0.933,1.88-1.896,2.837-2.887c0.956-0.991,1.695-1.874,2.221-2.647l0.376,0.239l-0.685,0.922
		c0.706,0.479,1.605,0.854,2.699,1.127c-0.319,0.615-0.479,1.458-0.479,2.528c1.869-1.524,3.484-3.131,4.853-4.816l0.409,0.239
		l-0.752,0.922c1.503,0.82,2.927,1.482,4.271,1.982c-0.522,1.024-0.83,1.736-0.921,2.136c-0.093,0.398-0.139,1.27-0.139,2.613
		c0,1.39,0.087,3.201,0.257,5.433c0.171,2.234,0.256,3.714,0.256,4.442c0,1.458-0.808,3.053-2.425,4.783
		c-0.547,0.594-1.947,1.845-4.202,3.759L303.988,267.06z M286.734,245.193l-0.854,0.889c2.848,1.299,4.829,2.598,5.946,3.896
		c0.842,1.004,1.343,2.278,1.504,3.827h0.066c0.206-0.865,0.308-1.446,0.308-1.742c0-1.436-0.786-2.836-2.357-4.203
		C290.002,246.674,288.466,245.786,286.734,245.193z M299.206,252.676v-6.219c0-0.66-0.524-1.049-1.572-1.162l-1.709,1.641
		c0.342,0.615,0.514,1.435,0.514,2.46c0,1.845-0.935,3.759-2.803,5.74c-1.57,1.686-3.177,2.859-4.816,3.52l1.947,0.957
		C293.386,257.425,296.199,255.113,299.206,252.676z M299.206,255.101v-1.504c-2.528,1.618-5.183,3.702-7.962,6.254l0.957,0.546
		C294.067,258.643,296.402,256.878,299.206,255.101z M302.554,246.458v14.009c0,0.364,0.42,0.729,1.265,1.093
		c0.25-0.684,0.375-2.221,0.375-4.612c0-0.865-0.059-2.46-0.171-4.783c-0.114-2.323-0.171-3.474-0.171-3.45
		c0-1.344,0.113-2.517,0.341-3.52l-0.068-0.068C303.736,245.535,303.214,245.979,302.554,246.458z M304.193,261.73l2.768,1.435
		c0.297-0.318,0.473-0.626,0.528-0.923c0.059-0.295,0.088-0.99,0.088-2.084c0-0.593-0.059-2.084-0.173-4.476
		c-0.113-2.393-0.171-3.895-0.171-4.51c0-0.89,0.058-1.538,0.171-1.948c0.114-0.411,0.434-1.173,0.956-2.289
		c-1.182-0.569-2.401-1.276-3.655-2.118c-0.251,1.162-0.375,1.994-0.375,2.495c0,0.341,0.092,1.565,0.272,3.672
		c0.182,2.107,0.274,3.525,0.274,4.253C304.877,257.403,304.648,259.565,304.193,261.73z"/>
	<path fill="#222222" d="M312.428,269.657l3.998-3.485c-1.365-0.957-2.495-1.628-3.382-2.017c0.771-1.047,1.162-3.153,1.162-6.319
		c0-4.191-0.181-6.572-0.547-7.141c1.482-1.14,2.814-2.244,3.999-3.314l1.128-1.025l0.273,0.341l-0.89,0.719
		c2.209,0.934,4.1,1.435,5.673,1.503c-0.523,1.071-0.786,2.733-0.786,4.988c0,2.37,0.104,4.63,0.308,6.783
		c0.206,2.153,0.308,3.707,0.308,4.664c0,1.003-0.168,1.77-0.495,2.307c-0.33,0.534-0.951,1.063-1.862,1.589l-1.776,1.024
		c-0.865,0.5-1.641,0.752-2.322,0.752c-1.206,0-2.416-0.604-3.621-1.812l-0.89,0.719L312.428,269.657z M320.73,267.573
		c0-1.23-0.091-2.507-0.272-3.826c-0.228,0.182-0.992,0.717-2.29,1.605c-0.933,0.637-1.57,1.162-1.914,1.57
		c0.98,1.185,2.187,1.777,3.622,1.777c0.365,0,0.599-0.074,0.699-0.222C320.679,268.33,320.73,268.028,320.73,267.573z
		 M317.384,250.626v7.517c0,1.503-0.127,2.79-0.377,3.861c0.842,0.478,1.721,1.081,2.631,1.81l0.785-0.58
		c-0.206-2.232-0.308-4.477-0.308-6.731c0-2.072,0.341-3.667,1.025-4.783C319.897,251.469,318.647,251.103,317.384,250.626z"/>
</g>
</svg>
