<?xml version="1.0" encoding="utf-8"?>
<!-- Generator: Adobe Illustrator 16.0.0, SVG Export Plug-In . SVG Version: 6.00 Build 0)  -->
<!DOCTYPE svg PUBLIC "-//W3C//DTD SVG 1.1//EN" "http://www.w3.org/Graphics/SVG/1.1/DTD/svg11.dtd">
<svg version="1.1" id="Layer_1" xmlns="http://www.w3.org/2000/svg" xmlns:xlink="http://www.w3.org/1999/xlink" x="0px" y="0px"
	 width="38.188px" height="30px" viewBox="18.323 8.535 38.188 30" enable-background="new 18.323 8.535 38.188 30"
	 xml:space="preserve">
<g>
	<path fill="#222222" d="M56.511,29.759c-0.229,1.109-0.602,2.216-1.118,3.327c-0.515,1.108-1.157,2.103-1.922,2.982
		c-0.767,0.879-1.625,1.51-2.58,1.893c-0.957,0.381-2.009,0.574-3.155,0.574c-1.875,0-3.951-0.24-6.225-0.717
		c-2.276-0.479-4.656-1.006-7.141-1.577c-2.487-0.574-5.059-1.119-7.717-1.635c-2.657-0.518-5.305-0.814-7.944-0.891
		c-0.192-0.038-0.316-0.144-0.373-0.314c-0.057-0.172,0.066-0.259,0.373-0.259c0.994,0,1.873-0.326,2.638-0.975
		c0.612-0.497,1.5-1.242,2.668-2.237c1.165-0.996,2.495-2.133,3.985-3.413c1.491-1.281,3.068-2.646,4.733-4.102
		c1.664-1.453,3.27-2.896,4.817-4.331c1.549-1.432,2.992-2.811,4.331-4.129c1.338-1.32,2.41-2.475,3.212-3.469
		c0.306-0.383,0.46-0.652,0.46-0.804c0-0.305-0.383-0.459-1.149-0.459c-1.949,0-3.985,0.048-6.107,0.143
		c-2.123,0.096-3.969,0.239-5.534,0.43c-1.072,0.115-2.027,0.307-2.867,0.573c-0.843,0.269-1.493,0.613-1.951,1.033
		c-0.345,0.345-0.518,0.308-0.518-0.114c0.306-0.65,0.575-1.146,0.803-1.491c0.23-0.345,0.593-0.555,1.089-0.632
		c1.301-0.114,2.821-0.199,4.562-0.257c1.739-0.058,3.487-0.105,5.249-0.143c1.033,0,2.188-0.019,3.471-0.058
		c1.281-0.037,2.493-0.066,3.644-0.086c1.146-0.02,2.159-0.038,3.039-0.058c0.88-0.017,1.434-0.029,1.664-0.029
		c0.381,0,0.562,0.096,0.546,0.289c-0.021,0.191-0.162,0.305-0.431,0.342c-0.192,0.04-0.401,0.144-0.632,0.316
		c-0.229,0.173-0.439,0.354-0.63,0.546c-0.88,0.726-1.922,1.635-3.127,2.725c-1.206,1.088-2.523,2.275-3.957,3.555
		c-1.434,1.281-2.926,2.63-4.475,4.046c-1.549,1.415-3.068,2.839-4.561,4.271c-1.492,1.435-2.933,2.82-4.33,4.159
		c-1.396,1.338-2.648,2.581-3.758,3.729c-0.193,0.266-0.286,0.46-0.286,0.574c0,0.229,0.172,0.401,0.515,0.514
		c0.841,0.23,2.035,0.525,3.585,0.89s3.271,0.719,5.163,1.063c1.892,0.342,3.852,0.629,5.879,0.859s3.938,0.344,5.735,0.344
		c2.985,0,5.25-0.612,6.798-1.835c1.55-1.223,2.572-2.984,3.069-5.279c0.076-0.229,0.172-0.343,0.286-0.343
		C56.453,29.301,56.511,29.454,56.511,29.759z"/>
</g>
</svg>
