<?xml version="1.0" encoding="utf-8"?>
<!-- Generator: Adobe Illustrator 16.0.0, SVG Export Plug-In . SVG Version: 6.00 Build 0)  -->
<!DOCTYPE svg PUBLIC "-//W3C//DTD SVG 1.1 Tiny//EN" "http://www.w3.org/Graphics/SVG/1.1/DTD/svg11-tiny.dtd">
<svg version="1.1" baseProfile="tiny" id="Layer_1" xmlns="http://www.w3.org/2000/svg" xmlns:xlink="http://www.w3.org/1999/xlink"
	 x="0px" y="0px" width="45px" height="35.352px" viewBox="14.917 5.859 45 35.352" xml:space="preserve">
<g>
	<path d="M59.917,30.869c-0.271,1.308-0.71,2.613-1.318,3.921c-0.608,1.306-1.363,2.478-2.265,3.514
		c-0.902,1.036-1.915,1.78-3.041,2.23c-1.127,0.45-2.366,0.677-3.718,0.677c-2.209,0-4.654-0.282-7.334-0.845
		c-2.682-0.564-5.486-1.184-8.415-1.858c-2.93-0.677-5.96-1.319-9.092-1.927c-3.133-0.609-6.252-0.959-9.362-1.049
		c-0.226-0.044-0.372-0.168-0.439-0.371s0.078-0.304,0.439-0.304c1.171,0,2.207-0.383,3.109-1.149
		c0.721-0.586,1.768-1.464,3.144-2.636c1.373-1.173,2.94-2.512,4.697-4.022c1.757-1.51,3.616-3.119,5.576-4.833
		c1.961-1.713,3.854-3.414,5.678-5.104c1.825-1.689,3.525-3.312,5.104-4.867c1.577-1.554,2.839-2.917,3.785-4.089
		c0.359-0.45,0.541-0.767,0.541-0.947c0-0.359-0.452-0.541-1.353-0.541c-2.297,0-4.697,0.057-7.198,0.169
		c-2.501,0.112-4.676,0.281-6.522,0.507c-1.262,0.135-2.389,0.361-3.379,0.675c-0.992,0.316-1.758,0.721-2.298,1.217
		C25.85,9.645,25.647,9.6,25.647,9.104c0.36-0.767,0.676-1.352,0.946-1.757c0.271-0.406,0.698-0.653,1.284-0.744
		c1.531-0.135,3.322-0.237,5.374-0.304c2.049-0.067,4.11-0.124,6.185-0.168c1.217,0,2.578-0.022,4.09-0.068
		c1.509-0.044,2.939-0.078,4.292-0.102c1.352-0.022,2.545-0.044,3.582-0.067c1.037-0.021,1.69-0.034,1.961-0.034
		c0.45,0,0.663,0.113,0.643,0.338c-0.023,0.226-0.192,0.361-0.508,0.405c-0.226,0.046-0.473,0.169-0.744,0.372
		c-0.27,0.203-0.518,0.417-0.742,0.642c-1.038,0.857-2.265,1.927-3.685,3.211s-2.974,2.682-4.664,4.191
		c-1.689,1.51-3.446,3.098-5.272,4.765c-1.824,1.668-3.615,3.346-5.373,5.036c-1.758,1.689-3.458,3.323-5.104,4.9
		c-1.645,1.578-3.12,3.042-4.427,4.394c-0.226,0.315-0.338,0.541-0.338,0.677c0,0.27,0.203,0.473,0.608,0.607
		c0.99,0.271,2.399,0.619,4.224,1.048c1.825,0.427,3.853,0.846,6.083,1.251s4.54,0.743,6.928,1.014
		c2.389,0.271,4.641,0.405,6.759,0.405c3.516,0,6.187-0.721,8.011-2.163c1.825-1.44,3.03-3.515,3.616-6.219
		c0.09-0.271,0.202-0.405,0.338-0.405S59.917,30.51,59.917,30.869z"/>
</g>
</svg>
