<?xml version="1.0" encoding="utf-8"?>
<!-- Generator: Adobe Illustrator 16.0.0, SVG Export Plug-In . SVG Version: 6.00 Build 0)  -->
<!DOCTYPE svg PUBLIC "-//W3C//DTD SVG 1.1//EN" "http://www.w3.org/Graphics/SVG/1.1/DTD/svg11.dtd">
<svg version="1.1" id="Layer_1" xmlns="http://www.w3.org/2000/svg" xmlns:xlink="http://www.w3.org/1999/xlink" x="0px" y="0px"
	 width="45px" height="35.352px" viewBox="14.917 5.86 45 35.352" enable-background="new 14.917 5.86 45 35.352"
	 xml:space="preserve">
<g>
	<path fill="#222222" d="M59.917,30.869c-0.271,1.308-0.71,2.612-1.317,3.921c-0.608,1.306-1.363,2.478-2.266,3.514
		s-1.915,1.78-3.041,2.23c-1.127,0.449-2.366,0.677-3.718,0.677c-2.209,0-4.654-0.282-7.334-0.845
		c-2.683-0.564-5.486-1.185-8.415-1.858c-2.93-0.677-5.96-1.319-9.092-1.927c-3.133-0.609-6.252-0.959-9.362-1.049
		c-0.226-0.045-0.372-0.168-0.439-0.371s0.078-0.305,0.439-0.305c1.171,0,2.207-0.383,3.109-1.148
		c0.721-0.586,1.768-1.464,3.144-2.636c1.373-1.174,2.939-2.513,4.697-4.022c1.757-1.51,3.615-3.119,5.576-4.833
		c1.961-1.713,3.854-3.414,5.678-5.104c1.824-1.688,3.525-3.312,5.104-4.866c1.577-1.555,2.84-2.917,3.785-4.089
		c0.359-0.45,0.541-0.768,0.541-0.947c0-0.359-0.451-0.541-1.354-0.541c-2.297,0-4.696,0.057-7.197,0.169s-4.676,0.281-6.521,0.507
		c-1.263,0.135-2.39,0.361-3.379,0.675c-0.992,0.316-1.759,0.722-2.299,1.217C25.85,9.645,25.646,9.6,25.646,9.104
		c0.36-0.767,0.677-1.352,0.946-1.757c0.271-0.406,0.698-0.653,1.284-0.744c1.531-0.135,3.322-0.236,5.374-0.304
		c2.049-0.067,4.11-0.124,6.185-0.168c1.217,0,2.578-0.022,4.09-0.068c1.51-0.044,2.939-0.078,4.293-0.102
		c1.352-0.022,2.545-0.044,3.582-0.067c1.037-0.021,1.689-0.034,1.961-0.034c0.449,0,0.662,0.113,0.643,0.339
		c-0.023,0.226-0.191,0.36-0.508,0.404c-0.227,0.046-0.473,0.169-0.744,0.372c-0.27,0.203-0.518,0.417-0.742,0.643
		c-1.037,0.856-2.265,1.927-3.685,3.211c-1.421,1.283-2.974,2.682-4.664,4.19c-1.688,1.51-3.446,3.099-5.272,4.766
		c-1.824,1.668-3.615,3.346-5.373,5.035s-3.457,3.323-5.104,4.9c-1.645,1.578-3.12,3.042-4.428,4.395
		c-0.226,0.314-0.338,0.541-0.338,0.677c0,0.27,0.203,0.473,0.608,0.606c0.99,0.271,2.399,0.619,4.224,1.048
		c1.826,0.428,3.854,0.847,6.084,1.252c2.229,0.404,4.539,0.742,6.928,1.014c2.389,0.271,4.641,0.405,6.759,0.405
		c3.517,0,6.187-0.722,8.011-2.163c1.825-1.44,3.03-3.516,3.616-6.22c0.09-0.271,0.202-0.404,0.338-0.404
		S59.917,30.51,59.917,30.869z"/>
</g>
</svg>
