<?xml version="1.0" encoding="utf-8"?>
<!-- Generator: Adobe Illustrator 16.0.0, SVG Export Plug-In . SVG Version: 6.00 Build 0)  -->
<!DOCTYPE svg PUBLIC "-//W3C//DTD SVG 1.1 Tiny//EN" "http://www.w3.org/Graphics/SVG/1.1/DTD/svg11-tiny.dtd">
<svg version="1.1" baseProfile="tiny" id="Layer_1" xmlns="http://www.w3.org/2000/svg" xmlns:xlink="http://www.w3.org/1999/xlink"
	 x="0px" y="0px" width="59.917px" height="47.07px" viewBox="0 0 59.917 47.07" xml:space="preserve">
<g>
	<path d="M59.917,33.3c-0.36,1.741-0.945,3.48-1.755,5.22c-0.81,1.74-1.815,3.299-3.015,4.68c-1.201,1.379-2.551,2.37-4.05,2.97
		c-1.5,0.599-3.15,0.9-4.95,0.9c-2.94,0-6.196-0.375-9.765-1.125c-3.57-0.751-7.305-1.575-11.205-2.475
		c-3.901-0.9-7.936-1.755-12.105-2.565C8.9,40.095,4.747,39.629,0.606,39.51c-0.301-0.059-0.495-0.225-0.585-0.495
		s0.104-0.405,0.585-0.405c1.56,0,2.939-0.509,4.14-1.53c0.959-0.779,2.354-1.949,4.185-3.51c1.829-1.56,3.915-3.344,6.255-5.355
		c2.34-2.01,4.815-4.154,7.425-6.435c2.61-2.28,5.13-4.545,7.56-6.795s4.694-4.41,6.795-6.48c2.1-2.07,3.78-3.884,5.04-5.445
		c0.479-0.599,0.72-1.02,0.72-1.26c0-0.479-0.601-0.72-1.8-0.72c-3.06,0-6.255,0.076-9.585,0.225
		c-3.33,0.15-6.226,0.375-8.685,0.675c-1.68,0.18-3.181,0.481-4.5,0.9c-1.32,0.421-2.34,0.96-3.06,1.62
		c-0.54,0.54-0.81,0.481-0.81-0.18c0.479-1.02,0.9-1.8,1.26-2.34s0.93-0.869,1.71-0.99c2.039-0.18,4.424-0.315,7.155-0.405
		c2.729-0.09,5.474-0.165,8.235-0.225c1.62,0,3.434-0.029,5.445-0.09c2.01-0.059,3.915-0.104,5.715-0.135
		c1.8-0.03,3.389-0.059,4.77-0.09C49.956,0.016,50.827,0,51.187,0c0.599,0,0.884,0.15,0.855,0.45
		c-0.031,0.301-0.256,0.481-0.675,0.54c-0.301,0.061-0.63,0.225-0.99,0.495c-0.36,0.27-0.69,0.556-0.99,0.855
		c-1.381,1.14-3.015,2.565-4.905,4.275s-3.96,3.57-6.21,5.58c-2.25,2.011-4.59,4.125-7.02,6.345
		c-2.43,2.221-4.815,4.455-7.155,6.705c-2.34,2.25-4.605,4.425-6.795,6.525c-2.191,2.101-4.155,4.05-5.895,5.85
		c-0.301,0.42-0.45,0.72-0.45,0.9c0,0.36,0.27,0.63,0.81,0.81c1.319,0.36,3.195,0.824,5.625,1.395c2.43,0.569,5.13,1.125,8.1,1.665
		c2.97,0.54,6.044,0.99,9.225,1.35c3.18,0.36,6.179,0.54,9,0.54c4.68,0,8.235-0.96,10.665-2.88c2.43-1.919,4.035-4.68,4.815-8.28
		c0.12-0.36,0.27-0.54,0.45-0.54S59.917,32.821,59.917,33.3z"/>
</g>
</svg>
